<?xml version="1.0" encoding="utf-8"?>
<!-- Generator: Adobe Illustrator 26.0.1, SVG Export Plug-In . SVG Version: 6.00 Build 0)  -->
<svg version="1.1" id="Layer_1" xmlns="http://www.w3.org/2000/svg" xmlns:xlink="http://www.w3.org/1999/xlink" x="0px" y="0px"
	 viewBox="0 0 1200 657.3" style="enable-background:new 0 0 1200 657.3;" xml:space="preserve">
<style type="text/css">
	.Drop_x0020_Shadow{fill:none;}
	.Round_x0020_Corners_x0020_2_x0020_pt{fill:#FFFFFF;stroke:#000000;stroke-miterlimit:10;}
	.Live_x0020_Reflect_x0020_X{fill:none;}
	.Bevel_x0020_Soft{fill:url(#SVGID_1_);}
	.Dusk{fill:#FFFFFF;}
	.Foliage_GS{fill:#FFDD00;}
	.Pompadour_GS{fill-rule:evenodd;clip-rule:evenodd;fill:#44ADE2;}
	.st0{opacity:0.3;}
	.st1{fill:#C9C9C7;}
	.st2{opacity:0.3;fill:#C9C9C7;}
	.st3{fill:#010101;}
	.st4{fill:#E11B22;}
</style>
<linearGradient id="SVGID_1_" gradientUnits="userSpaceOnUse" x1="-3969.2788" y1="-714.4431" x2="-3968.5718" y2="-713.736">
	<stop  offset="0" style="stop-color:#DEDFE3"/>
	<stop  offset="0.1738" style="stop-color:#D8D9DD"/>
	<stop  offset="0.352" style="stop-color:#C9CACD"/>
	<stop  offset="0.5323" style="stop-color:#B4B5B8"/>
	<stop  offset="0.7139" style="stop-color:#989A9C"/>
	<stop  offset="0.8949" style="stop-color:#797C7E"/>
	<stop  offset="1" style="stop-color:#656B6C"/>
</linearGradient>
<path class="st2" d="M1037.3,224.4H929.5c-3.5,0-6.3-2.8-6.3-6.3V110.2c0-17.5-14.2-31.7-31.7-31.7c-17.5,0-31.7,14.2-31.7,31.7V218
	c0,3.5-2.8,6.3-6.3,6.3H745.6c-17.5,0-31.7,14.2-31.7,31.7s14.2,31.7,31.7,31.7h107.8c3.5,0,6.3,2.8,6.3,6.3v107.8
	c0,17.5,14.2,31.7,31.7,31.7c17.5,0,31.7-14.2,31.7-31.7V294.1c0-3.5,2.8-6.3,6.3-6.3h107.8c17.5,0,31.7-14.2,31.7-31.7
	S1054.8,224.4,1037.3,224.4z"/>
<path class="st2" d="M1187.7,403.7h-60.1c-2,0-3.5-1.6-3.5-3.5v-60.1c0-9.8-7.9-17.7-17.7-17.7s-17.7,7.9-17.7,17.7v60.1
	c0,2-1.6,3.5-3.5,3.5H1025c-9.8,0-17.7,7.9-17.7,17.7s7.9,17.7,17.7,17.7h60.1c2,0,3.5,1.6,3.5,3.5v60.1c0,9.8,7.9,17.7,17.7,17.7
	s17.7-7.9,17.7-17.7v-60.1c0-2,1.6-3.5,3.5-3.5h60.1c9.8,0,17.7-7.9,17.7-17.7S1197.4,403.7,1187.7,403.7z"/>
<path class="st2" d="M1000.4,524.9h-37.6c-1.2,0-2.2-1-2.2-2.2v-37.6c0-6.1-4.9-11-11-11s-11,4.9-11,11v37.6c0,1.2-1,2.2-2.2,2.2
	h-37.6c-6.1,0-11,4.9-11,11s4.9,11,11,11h37.6c1.2,0,2.2,1,2.2,2.2v37.6c0,6.1,4.9,11,11,11s11-4.9,11-11v-37.6c0-1.2,1-2.2,2.2-2.2
	h37.6c6.1,0,11-4.9,11-11S1006.5,524.9,1000.4,524.9z"/>
<g>
	<g>
		<g>
			<path class="st3" d="M98.6,94.4h-3.7l-2.7-7.5H81.3l-2.8,7.5H75l9.9-25.6h3.8L98.6,94.4z M86,74.2L82.4,84h8.7l-3.5-9.7l-0.8-2.7
				L86,74.2z"/>
			<path class="st3" d="M105.9,94.4h-3.3V68.8h3.3V94.4z"/>
			<path class="st3" d="M115,94.4h-3.3V68.8h3.3V94.4z"/>
			<path class="st3" d="M148,86.5l3.1-10.7h3.4l-6,18.6h-3.3l-2.6-11.1l-0.9-4.7l-1,4.7l-2.8,11.1h-3.4l-5.9-18.6h3.6l2.9,10.7
				l1.1,4.4l1-4.4l2.7-10.7h3.6l2.7,10.7l0.9,4.4L148,86.5z"/>
			<path class="st3" d="M173.7,85.9h-13.9c0,2,0.6,3.6,1.6,4.6c1,1.1,2.3,1.6,4,1.6c1.3,0,2.3-0.3,3.2-0.9s1.5-1.4,1.9-2.5l3,0.4
				c-0.6,1.8-1.6,3.2-3,4.2s-3.1,1.5-5.1,1.5c-1.8,0-3.4-0.4-4.7-1.2c-1.3-0.8-2.3-2-3-3.5c-0.7-1.5-1.1-3.2-1.1-5.1
				c0-1.9,0.3-3.6,1-5s1.7-2.6,3-3.4c1.3-0.8,2.9-1.2,4.7-1.2c1.7,0,3.2,0.4,4.5,1.1c1.3,0.7,2.3,1.8,3,3.2c0.7,1.4,1,3,1,5V85.9z
				 M161.5,79.5c-1,0.9-1.5,2.3-1.7,4h10.8c-0.2-1.8-0.8-3.1-1.7-4c-0.9-0.9-2.1-1.4-3.7-1.4S162.5,78.5,161.5,79.5z"/>
			<path class="st3" d="M181.7,94.4h-3.3V68.8h3.3V94.4z"/>
			<path class="st3" d="M190.7,94.4h-3.3V68.8h3.3V94.4z"/>
			<path class="st3" d="M205.5,86.5h-10.1v-3h10.1V86.5z"/>
			<path class="st3" d="M227.7,86.5l3.1-10.7h3.4l-6,18.6h-3.3l-2.6-11.1l-0.9-4.7l-1,4.7l-2.8,11.1h-3.4l-5.9-18.6h3.6l2.9,10.7
				l1.1,4.4l1-4.4l2.7-10.7h3.6l2.7,10.7l0.9,4.4L227.7,86.5z"/>
			<path class="st3" d="M247.8,75.4v3.2c-0.3,0-0.7,0-1.2,0c-0.8,0-1.7,0.2-2.5,0.6c-0.8,0.4-1.5,1.1-2,1.9s-0.8,1.9-0.9,3.1v10.2
				H238V75.8h3.1v3.6c1.2-2.7,3.1-4.1,5.7-4.1C247,75.3,247.4,75.3,247.8,75.4z"/>
			<path class="st3" d="M254.5,72.3h-3.3v-3.6h3.3V72.3z M254.5,94.4h-3.3V75.8h3.3V94.4z"/>
			<path class="st3" d="M264.9,78.2v11.6c0,0.7,0.1,1.1,0.4,1.4c0.3,0.3,0.7,0.4,1.4,0.4h2.4v2.8h-3.4c-1.4,0-2.5-0.3-3.1-1
				c-0.7-0.7-1-1.7-1-3.1v-12l-2.8,0.1v-2.6l2.8,0.1v-5.8h3.3V76l4.2-0.1v2.6L264.9,78.2z"/>
			<path class="st3" d="M277.8,78.2v11.6c0,0.7,0.1,1.1,0.4,1.4c0.3,0.3,0.7,0.4,1.4,0.4h2.4v2.8h-3.4c-1.4,0-2.5-0.3-3.1-1
				c-0.7-0.7-1-1.7-1-3.1v-12l-2.8,0.1v-2.6l2.8,0.1v-5.8h3.3V76l4.2-0.1v2.6L277.8,78.2z"/>
			<path class="st3" d="M302.2,85.9h-13.9c0,2,0.6,3.6,1.6,4.6c1,1.1,2.3,1.6,4,1.6c1.3,0,2.3-0.3,3.2-0.9s1.5-1.4,1.9-2.5l3,0.4
				c-0.6,1.8-1.6,3.2-3,4.2s-3.1,1.5-5.1,1.5c-1.8,0-3.4-0.4-4.7-1.2c-1.3-0.8-2.3-2-3-3.5c-0.7-1.5-1.1-3.2-1.1-5.1
				c0-1.9,0.3-3.6,1-5s1.7-2.6,3-3.4c1.3-0.8,2.9-1.2,4.7-1.2c1.7,0,3.2,0.4,4.5,1.1c1.3,0.7,2.3,1.8,3,3.2c0.7,1.4,1,3,1,5V85.9z
				 M290,79.5c-1,0.9-1.5,2.3-1.7,4h10.8c-0.2-1.8-0.8-3.1-1.7-4c-0.9-0.9-2.1-1.4-3.7-1.4S290.9,78.5,290,79.5z"/>
			<path class="st3" d="M319.5,76.1c0.9,0.5,1.7,1.2,2.2,2.1s0.8,2,0.8,3.3v12.9h-3.3V82.2c0-2.6-1.2-3.9-3.7-3.9
				c-0.9,0-1.8,0.2-2.6,0.6c-0.8,0.4-1.4,1-1.9,1.9c-0.5,0.9-0.8,2-0.8,3.4v10.3h-3.3V75.8h3.1v2.6c0.6-1,1.5-1.7,2.6-2.3
				s2.3-0.8,3.7-0.8C317.5,75.4,318.6,75.6,319.5,76.1z"/>
			<path class="st3" d="M355.7,72.1c2,2.2,2.9,5.4,2.9,9.4c0,2.6-0.5,4.9-1.3,6.8c-0.9,1.9-2.3,3.4-4.1,4.4c-1.9,1-4.2,1.6-7,1.6h-8
				V68.8h8.7C350.8,68.8,353.7,69.9,355.7,72.1z M345.8,91.5c2.2,0,4-0.4,5.4-1.1c1.4-0.7,2.4-1.8,3-3.3c0.6-1.5,1-3.3,1-5.6
				c0-3.4-0.7-5.9-2.2-7.5c-1.5-1.6-3.8-2.4-7-2.4h-4.5v19.8H345.8z"/>
			<path class="st3" d="M387.1,94.4h-4.4l-2.7-2.7c-1.1,1.1-2.4,1.9-3.7,2.5s-2.8,0.8-4.4,0.8c-1.8,0-3.4-0.3-4.8-0.9
				c-1.4-0.6-2.5-1.5-3.2-2.7c-0.8-1.2-1.2-2.5-1.2-4c0-3.6,1.9-6,5.8-7.4c-1-1.1-1.7-2.1-2.1-3c-0.4-0.9-0.6-1.8-0.6-2.7
				c0-1.2,0.3-2.3,0.9-3.2c0.6-0.9,1.4-1.6,2.4-2.1c1-0.5,2.2-0.7,3.6-0.7c1.3,0,2.5,0.2,3.5,0.7c1,0.5,1.9,1.2,2.4,2.1
				s0.9,2,0.9,3.2c0,1.6-0.5,2.9-1.5,4c-1,1.1-2.4,2-4.2,2.8l6.2,6.2c0.6-1.3,1-2.7,1.2-4.3h3.2c-0.1,1.2-0.4,2.3-0.8,3.4
				c-0.4,1.1-0.9,2.1-1.5,3L387.1,94.4z M375.2,91.7c1-0.4,2-1,2.8-2l-7.6-7.7c-3.1,1.1-4.6,2.8-4.6,5.3c0,1,0.2,1.8,0.7,2.6
				c0.5,0.7,1.2,1.3,2.1,1.8c0.9,0.4,2,0.6,3.3,0.6C373.1,92.2,374.2,92,375.2,91.7z M370.8,71.3c-0.6,0.2-1,0.6-1.3,1.1
				s-0.5,1.1-0.5,1.7c0,1.3,0.6,2.5,1.9,3.8l0.9,0.9c1.6-0.6,2.7-1.2,3.4-1.9c0.7-0.7,1.1-1.6,1.1-2.7c0-0.7-0.2-1.3-0.5-1.8
				c-0.3-0.5-0.8-0.9-1.4-1.2c-0.6-0.3-1.2-0.4-1.9-0.4C372,71,371.4,71.1,370.8,71.3z"/>
			<path class="st3" d="M395.2,93.3c-1.8-1.1-3.3-2.7-4.3-4.8c-1-2-1.5-4.4-1.5-6.9c0-2.6,0.5-4.9,1.5-6.9c1-2,2.4-3.6,4.3-4.7
				c1.8-1.1,3.9-1.7,6.3-1.7c2.4,0,4.5,0.6,6.3,1.7c1.8,1.1,3.3,2.7,4.3,4.7c1,2,1.5,4.3,1.5,6.9c0,2.6-0.5,4.9-1.5,7
				c-1,2-2.4,3.6-4.3,4.8s-3.9,1.7-6.3,1.7C399.2,95,397.1,94.4,395.2,93.3z M406.1,90.7c1.3-0.9,2.3-2.1,3.1-3.6
				c0.7-1.6,1.1-3.4,1.1-5.5c0-2.1-0.4-3.9-1.1-5.4c-0.7-1.6-1.8-2.8-3.1-3.6c-1.3-0.8-2.8-1.3-4.5-1.3c-1.7,0-3.2,0.4-4.5,1.3
				c-1.3,0.8-2.3,2-3.1,3.6c-0.7,1.6-1.1,3.4-1.1,5.4c0,2.1,0.4,3.9,1.1,5.5c0.7,1.6,1.8,2.8,3.1,3.7c1.3,0.9,2.8,1.3,4.5,1.3
				S404.8,91.6,406.1,90.7z"/>
			<path class="st3" d="M441.7,76.6c1.2,0.8,2.2,1.8,2.8,3.2c0.7,1.4,1,3,1,4.9c0,1.9-0.3,3.6-1,5.2c-0.7,1.5-1.6,2.7-2.8,3.6
				s-2.7,1.3-4.3,1.3c-1.2,0-2.2-0.2-3.2-0.7c-0.9-0.5-1.7-1.1-2.4-1.9v9.6h-3.3V75.8h2.9v3c0.6-1,1.4-1.9,2.4-2.5
				c1.1-0.6,2.3-0.9,3.6-0.9C439.1,75.4,440.5,75.8,441.7,76.6z M439.8,91c0.8-0.6,1.4-1.5,1.8-2.6s0.6-2.4,0.6-3.8
				c0-2.1-0.5-3.7-1.4-4.8c-0.9-1.1-2.2-1.6-3.8-1.6c-1.1,0-2,0.3-2.8,0.8c-0.8,0.5-1.4,1.3-1.9,2.2c-0.5,1-0.7,2.2-0.7,3.6
				c0,1.4,0.2,2.7,0.7,3.8c0.5,1.1,1.1,1.9,1.9,2.4c0.8,0.6,1.7,0.8,2.8,0.8C438.1,91.9,439,91.6,439.8,91z"/>
			<path class="st3" d="M453.4,93.6c-1.4-0.8-2.4-2-3.2-3.4c-0.7-1.5-1.1-3.2-1.1-5.1c0-2,0.4-3.7,1.1-5.2c0.8-1.5,1.8-2.6,3.2-3.4
				s2.9-1.2,4.7-1.2c1.7,0,3.3,0.4,4.6,1.2c1.3,0.8,2.4,1.9,3.1,3.3c0.8,1.5,1.1,3.2,1.1,5.1c0,1.9-0.4,3.6-1.2,5.1
				c-0.8,1.5-1.8,2.7-3.2,3.5c-1.4,0.8-2.9,1.3-4.6,1.3C456.3,94.9,454.7,94.5,453.4,93.6z M461.1,91.2c0.9-0.6,1.5-1.4,1.9-2.5
				c0.4-1.1,0.7-2.3,0.7-3.7c0-1.4-0.2-2.6-0.7-3.6c-0.4-1-1.1-1.8-1.9-2.4c-0.9-0.6-1.9-0.8-3-0.8c-1.2,0-2.2,0.3-3,0.9
				s-1.5,1.4-1.9,2.4c-0.4,1.1-0.7,2.3-0.7,3.7c0,1.4,0.2,2.6,0.7,3.7c0.5,1.1,1.1,1.9,1.9,2.4c0.8,0.6,1.8,0.9,3,0.9
				C459.2,92.1,460.2,91.8,461.1,91.2z"/>
			<path class="st3" d="M475,94.4h-3.3V68.8h3.3V94.4z"/>
			<path class="st3" d="M484.1,72.3h-3.3v-3.6h3.3V72.3z M484.1,94.4h-3.3V75.8h3.3V94.4z"/>
			<path class="st3" d="M492.8,93.8c-1.3-0.7-2.3-1.8-3-3.3c-0.7-1.5-1.1-3.2-1.1-5.2c0-2.1,0.4-3.8,1.1-5.3s1.7-2.6,3.1-3.4
				c1.3-0.8,2.9-1.2,4.6-1.2c2.2,0,3.9,0.6,5.3,1.7s2.2,2.7,2.5,4.9h-3.1c-0.5-2.5-2.1-3.8-4.7-3.8c-1.8,0-3.2,0.6-4.1,1.8
				c-0.9,1.2-1.4,2.9-1.4,5.2c0,2.2,0.5,3.9,1.4,5.1c0.9,1.2,2.3,1.8,4,1.8c1.3,0,2.4-0.4,3.2-1.1c0.8-0.7,1.3-1.8,1.6-3.1h3.1
				c-0.3,2.2-1.2,3.9-2.5,5.1c-1.4,1.2-3.2,1.8-5.5,1.8C495.6,94.9,494.1,94.5,492.8,93.8z"/>
			<path class="st3" d="M513.2,72.3h-3.3v-3.6h3.3V72.3z M513.2,94.4h-3.3V75.8h3.3V94.4z"/>
			<path class="st3" d="M535.1,85.9h-13.9c0,2,0.6,3.6,1.6,4.6c1,1.1,2.3,1.6,4,1.6c1.3,0,2.3-0.3,3.2-0.9s1.5-1.4,1.9-2.5l3,0.4
				c-0.6,1.8-1.6,3.2-3,4.2s-3.1,1.5-5.1,1.5c-1.8,0-3.4-0.4-4.7-1.2c-1.3-0.8-2.3-2-3-3.5c-0.7-1.5-1.1-3.2-1.1-5.1
				c0-1.9,0.3-3.6,1-5s1.7-2.6,3-3.4c1.3-0.8,2.9-1.2,4.7-1.2c1.7,0,3.2,0.4,4.5,1.1c1.3,0.7,2.3,1.8,3,3.2c0.7,1.4,1,3,1,5V85.9z
				 M522.9,79.5c-1,0.9-1.5,2.3-1.7,4H532c-0.2-1.8-0.8-3.1-1.7-4c-0.9-0.9-2.1-1.4-3.7-1.4S523.9,78.5,522.9,79.5z"/>
			<path class="st3" d="M540.6,93.3c-1.3-1-2.1-2.6-2.3-4.6l3.1-0.1c0.2,1.3,0.6,2.2,1.4,2.8c0.8,0.6,1.9,0.9,3.3,0.9
				c1.5,0,2.6-0.3,3.3-0.8s1.1-1.2,1.1-2.1c0-0.7-0.2-1.3-0.7-1.7c-0.5-0.4-1.2-0.8-2.2-1l-3.7-0.8c-1.8-0.4-3.1-1-3.9-1.8
				c-0.8-0.8-1.2-1.9-1.2-3.2c0-1.1,0.3-2,0.8-2.8c0.5-0.8,1.3-1.4,2.3-1.9c1-0.4,2.3-0.7,3.8-0.7c2.1,0,3.9,0.5,5.2,1.4
				c1.3,0.9,2.1,2.4,2.4,4.3l-3.3,0.1c-0.2-1.1-0.6-1.9-1.4-2.4c-0.7-0.5-1.7-0.8-3-0.8c-1.2,0-2.1,0.2-2.8,0.6c-0.6,0.4-1,1-1,1.8
				c0,0.6,0.2,1.1,0.6,1.5c0.4,0.4,1.2,0.7,2.2,0.9l3.6,0.8c1.9,0.4,3.3,1.1,4.2,1.9c0.9,0.9,1.3,2,1.3,3.3c0,1.2-0.3,2.2-0.9,3.1
				s-1.5,1.6-2.7,2c-1.2,0.5-2.6,0.7-4.2,0.7C543.7,94.9,541.9,94.3,540.6,93.3z"/>
			<path class="st3" d="M584.6,91.9v2.4h-1.8c-2,0-3.1-0.9-3.2-2.7c-0.6,1-1.5,1.7-2.7,2.3s-2.5,0.9-4,0.9c-1.2,0-2.3-0.2-3.3-0.6
				c-0.9-0.4-1.7-1-2.2-1.9c-0.5-0.8-0.8-1.8-0.8-2.9c0-1.6,0.5-2.9,1.5-3.9c1-1,2.6-1.6,4.8-1.9l4.8-0.6c0.5,0,0.8-0.2,1-0.4
				c0.2-0.2,0.3-0.6,0.3-1v-0.7c0-1-0.3-1.7-1-2.2c-0.7-0.5-1.7-0.7-3.2-0.7c-1.4,0-2.4,0.2-3.1,0.7c-0.7,0.5-1.1,1.4-1.2,2.6h-3.3
				c0.2-2,0.9-3.6,2.2-4.6s3.1-1.5,5.5-1.5c2.4,0,4.2,0.5,5.4,1.5s1.9,2.5,1.9,4.5v9.1c0,0.6,0.1,1,0.4,1.3c0.2,0.2,0.7,0.4,1.3,0.4
				H584.6z M576.3,91.7c0.9-0.4,1.5-1,2.1-1.6c0.5-0.7,0.8-1.4,0.8-2.2v-2.6l-5.5,0.8c-1.2,0.2-2.2,0.6-2.7,1.1s-0.9,1.2-0.9,2.1
				c0,0.9,0.3,1.7,1,2.2c0.6,0.5,1.5,0.8,2.6,0.8C574.5,92.3,575.4,92.1,576.3,91.7z"/>
			<path class="st3" d="M591.5,94.4h-3.3V68.8h3.3V94.4z"/>
			<path class="st3" d="M600.6,94.4h-3.3V68.8h3.3V94.4z"/>
			<path class="st3" d="M609.5,93.6c-1.4-0.8-2.4-2-3.2-3.4c-0.7-1.5-1.1-3.2-1.1-5.1c0-2,0.4-3.7,1.1-5.2c0.8-1.5,1.8-2.6,3.2-3.4
				s2.9-1.2,4.7-1.2c1.7,0,3.3,0.4,4.6,1.2c1.3,0.8,2.4,1.9,3.1,3.3c0.8,1.5,1.1,3.2,1.1,5.1c0,1.9-0.4,3.6-1.2,5.1
				c-0.8,1.5-1.8,2.7-3.2,3.5c-1.4,0.8-2.9,1.3-4.6,1.3C612.4,94.9,610.9,94.5,609.5,93.6z M617.2,91.2c0.9-0.6,1.5-1.4,1.9-2.5
				c0.4-1.1,0.7-2.3,0.7-3.7c0-1.4-0.2-2.6-0.7-3.6c-0.4-1-1.1-1.8-1.9-2.4c-0.9-0.6-1.9-0.8-3-0.8c-1.2,0-2.2,0.3-3,0.9
				s-1.5,1.4-1.9,2.4c-0.4,1.1-0.7,2.3-0.7,3.7c0,1.4,0.2,2.6,0.7,3.7c0.5,1.1,1.1,1.9,1.9,2.4c0.8,0.6,1.8,0.9,3,0.9
				C615.4,92.1,616.4,91.8,617.2,91.2z"/>
			<path class="st3" d="M644.7,86.5l3.1-10.7h3.4l-6,18.6h-3.3l-2.6-11.1l-0.9-4.7l-1,4.7l-2.8,11.1H631l-5.9-18.6h3.6l2.9,10.7
				l1.1,4.4l1-4.4l2.7-10.7h3.6l2.7,10.7l0.9,4.4L644.7,86.5z"/>
			<path class="st3" d="M80.1,120.3h-3.3v-3.6h3.3V120.3z M80.1,142.4h-3.3v-18.6h3.3V142.4z"/>
			<path class="st3" d="M98.6,124.1c0.9,0.5,1.7,1.2,2.2,2.1s0.8,2,0.8,3.3v12.9h-3.3v-12.2c0-2.6-1.2-3.9-3.7-3.9
				c-0.9,0-1.8,0.2-2.6,0.6c-0.8,0.4-1.4,1-1.9,1.9c-0.5,0.9-0.8,2-0.8,3.4v10.3h-3.3v-18.6H89v2.6c0.6-1,1.5-1.7,2.6-2.3
				s2.3-0.8,3.7-0.8C96.5,123.4,97.6,123.6,98.6,124.1z"/>
			<path class="st3" d="M108.1,141.3c-1.3-1-2.1-2.6-2.3-4.6l3.1-0.1c0.2,1.3,0.6,2.2,1.4,2.8c0.8,0.6,1.9,0.9,3.3,0.9
				c1.5,0,2.6-0.3,3.3-0.8s1.1-1.2,1.1-2.1c0-0.7-0.2-1.3-0.7-1.7c-0.5-0.4-1.2-0.8-2.2-1l-3.7-0.8c-1.8-0.4-3.1-1-3.9-1.8
				c-0.8-0.8-1.2-1.9-1.2-3.2c0-1.1,0.3-2,0.8-2.8c0.5-0.8,1.3-1.4,2.3-1.9c1-0.4,2.3-0.7,3.8-0.7c2.1,0,3.9,0.5,5.2,1.4
				c1.3,0.9,2.1,2.4,2.4,4.3l-3.3,0.1c-0.2-1.1-0.6-1.9-1.4-2.4c-0.7-0.5-1.7-0.8-3-0.8c-1.2,0-2.1,0.2-2.8,0.6c-0.6,0.4-1,1-1,1.8
				c0,0.6,0.2,1.1,0.6,1.5c0.4,0.4,1.2,0.7,2.2,0.9l3.6,0.8c1.9,0.4,3.3,1.1,4.2,1.9c0.9,0.9,1.3,2,1.3,3.3c0,1.2-0.3,2.2-0.9,3.1
				s-1.5,1.6-2.7,2c-1.2,0.5-2.6,0.7-4.2,0.7C111.2,142.9,109.4,142.3,108.1,141.3z"/>
			<path class="st3" d="M137.7,123.8h3.3v18.6H138v-2.6c-0.6,1-1.5,1.7-2.6,2.3c-1.1,0.5-2.3,0.8-3.7,0.8c-1.3,0-2.4-0.2-3.4-0.7
				c-0.9-0.5-1.7-1.2-2.2-2.1c-0.5-0.9-0.8-2-0.8-3.3v-12.9h3.3v12.2c0,2.6,1.2,3.9,3.7,3.9c0.9,0,1.8-0.2,2.6-0.6s1.4-1,1.9-1.9
				c0.5-0.9,0.8-2,0.8-3.4V123.8z"/>
			<path class="st3" d="M156.6,123.4v3.2c-0.3,0-0.7,0-1.2,0c-0.8,0-1.7,0.2-2.5,0.6c-0.8,0.4-1.5,1.1-2,1.9s-0.8,1.9-0.9,3.1v10.2
				h-3.3v-18.6h3.1v3.6c1.2-2.7,3.1-4.1,5.7-4.1C155.9,123.3,156.2,123.3,156.6,123.4z"/>
			<path class="st3" d="M176.2,133.9h-13.9c0,2,0.6,3.6,1.6,4.6c1,1.1,2.3,1.6,4,1.6c1.3,0,2.3-0.3,3.2-0.9s1.5-1.4,1.9-2.5l3,0.4
				c-0.6,1.8-1.6,3.2-3,4.2s-3.1,1.5-5.1,1.5c-1.8,0-3.4-0.4-4.7-1.2c-1.3-0.8-2.3-2-3-3.5c-0.7-1.5-1.1-3.2-1.1-5.1
				c0-1.9,0.3-3.6,1-5c0.7-1.5,1.7-2.6,3-3.4c1.3-0.8,2.9-1.2,4.7-1.2c1.7,0,3.2,0.4,4.5,1.1c1.3,0.7,2.3,1.8,3,3.2c0.7,1.4,1,3,1,5
				V133.9z M164,127.5c-1,0.9-1.5,2.3-1.7,4h10.8c-0.2-1.8-0.8-3.1-1.7-4c-0.9-0.9-2.1-1.4-3.7-1.4S165,126.5,164,127.5z"/>
			<path class="st3" d="M193.5,116.8h3.3v25.6h-2.9v-3c-0.6,1-1.4,1.8-2.4,2.4c-1,0.6-2.2,0.9-3.5,0.9c-1.7,0-3.1-0.4-4.3-1.3
				s-2.2-2-2.8-3.5c-0.6-1.5-1-3.2-1-5.1c0-1.8,0.3-3.5,1-4.9c0.7-1.4,1.6-2.5,2.8-3.3s2.6-1.2,4.2-1.2c1.2,0,2.3,0.2,3.3,0.7
				c1,0.5,1.8,1.1,2.4,1.9V116.8z M191,139.1c0.8-0.6,1.5-1.4,1.9-2.4c0.5-1.1,0.7-2.3,0.7-3.8c0-1.4-0.2-2.6-0.7-3.6
				c-0.5-1-1.1-1.7-1.9-2.3s-1.7-0.8-2.8-0.8c-1.6,0-2.9,0.6-3.8,1.7c-0.9,1.1-1.4,2.7-1.4,4.9c0,1.4,0.2,2.7,0.6,3.8
				c0.4,1.1,1,1.9,1.8,2.5c0.8,0.6,1.7,0.9,2.7,0.9C189.3,139.9,190.2,139.7,191,139.1z"/>
			<path class="st3" d="M203.4,141.3c-1.3-1-2.1-2.6-2.3-4.6l3.1-0.1c0.2,1.3,0.6,2.2,1.4,2.8c0.8,0.6,1.9,0.9,3.3,0.9
				c1.5,0,2.6-0.3,3.3-0.8s1.1-1.2,1.1-2.1c0-0.7-0.2-1.3-0.7-1.7c-0.5-0.4-1.2-0.8-2.2-1l-3.7-0.8c-1.8-0.4-3.1-1-3.9-1.8
				c-0.8-0.8-1.2-1.9-1.2-3.2c0-1.1,0.3-2,0.8-2.8c0.5-0.8,1.3-1.4,2.3-1.9c1-0.4,2.3-0.7,3.8-0.7c2.1,0,3.9,0.5,5.2,1.4
				c1.3,0.9,2.1,2.4,2.4,4.3l-3.3,0.1c-0.2-1.1-0.6-1.9-1.4-2.4c-0.7-0.5-1.7-0.8-3-0.8c-1.2,0-2.1,0.2-2.8,0.6c-0.6,0.4-1,1-1,1.8
				c0,0.6,0.2,1.1,0.6,1.5c0.4,0.4,1.2,0.7,2.2,0.9l3.6,0.8c1.9,0.4,3.3,1.1,4.2,1.9c0.9,0.9,1.3,2,1.3,3.3c0,1.2-0.3,2.2-0.9,3.1
				s-1.5,1.6-2.7,2c-1.2,0.5-2.6,0.7-4.2,0.7C206.5,142.9,204.7,142.3,203.4,141.3z"/>
			<path class="st3" d="M221.3,138.8h4v5.7c0,2.6-1.2,3.9-3.6,3.9h-0.4v-1.8h0.4c1.1,0,1.7-0.6,1.7-1.7v-2.5h-2.1V138.8z"/>
			<path class="st3" d="M244.4,141.6c-1.4-0.8-2.4-2-3.2-3.4c-0.7-1.5-1.1-3.2-1.1-5.1c0-2,0.4-3.7,1.1-5.2c0.8-1.5,1.8-2.6,3.2-3.4
				s2.9-1.2,4.7-1.2c1.7,0,3.3,0.4,4.6,1.2c1.3,0.8,2.4,1.9,3.1,3.3c0.8,1.5,1.1,3.2,1.1,5.1c0,1.9-0.4,3.6-1.2,5.1
				c-0.8,1.5-1.8,2.7-3.2,3.5c-1.4,0.8-2.9,1.3-4.6,1.3C247.3,142.9,245.8,142.5,244.4,141.6z M252.1,139.2c0.9-0.6,1.5-1.4,1.9-2.5
				c0.4-1.1,0.7-2.3,0.7-3.7c0-1.4-0.2-2.6-0.7-3.6c-0.4-1-1.1-1.8-1.9-2.4c-0.9-0.6-1.9-0.8-3-0.8c-1.2,0-2.2,0.3-3,0.9
				s-1.5,1.4-1.9,2.4c-0.4,1.1-0.7,2.3-0.7,3.7c0,1.4,0.2,2.6,0.7,3.7c0.5,1.1,1.1,1.9,1.9,2.4c0.8,0.6,1.8,0.9,3,0.9
				C250.3,140.1,251.3,139.8,252.1,139.2z"/>
			<path class="st3" d="M275.4,124.1c0.9,0.5,1.7,1.2,2.2,2.1s0.8,2,0.8,3.3v12.9H275v-12.2c0-2.6-1.2-3.9-3.7-3.9
				c-0.9,0-1.8,0.2-2.6,0.6c-0.8,0.4-1.4,1-1.9,1.9c-0.5,0.9-0.8,2-0.8,3.4v10.3h-3.3v-18.6h3.1v2.6c0.6-1,1.5-1.7,2.6-2.3
				s2.3-0.8,3.7-0.8C273.4,123.4,274.5,123.6,275.4,124.1z"/>
			<path class="st3" d="M310.8,139.9v2.4H309c-2,0-3.1-0.9-3.2-2.7c-0.6,1-1.5,1.7-2.7,2.3s-2.5,0.9-4,0.9c-1.2,0-2.3-0.2-3.3-0.6
				c-0.9-0.4-1.7-1-2.2-1.9c-0.5-0.8-0.8-1.8-0.8-2.9c0-1.6,0.5-2.9,1.5-3.9c1-1,2.6-1.6,4.8-1.9l4.8-0.6c0.5,0,0.8-0.2,1-0.4
				c0.2-0.2,0.3-0.6,0.3-1v-0.7c0-1-0.3-1.7-1-2.2c-0.7-0.5-1.7-0.7-3.2-0.7c-1.4,0-2.4,0.2-3.1,0.7c-0.7,0.5-1.1,1.4-1.2,2.6h-3.3
				c0.2-2,0.9-3.6,2.2-4.6s3.1-1.5,5.5-1.5c2.4,0,4.2,0.5,5.4,1.5s1.9,2.5,1.9,4.5v9.1c0,0.6,0.1,1,0.4,1.3c0.2,0.2,0.7,0.4,1.3,0.4
				H310.8z M302.4,139.7c0.9-0.4,1.5-1,2.1-1.6c0.5-0.7,0.8-1.4,0.8-2.2v-2.6l-5.5,0.8c-1.2,0.2-2.2,0.6-2.7,1.1s-0.9,1.2-0.9,2.1
				c0,0.9,0.3,1.7,1,2.2c0.6,0.5,1.5,0.8,2.6,0.8C300.7,140.3,301.6,140.1,302.4,139.7z"/>
			<path class="st3" d="M327,124.1c0.9,0.5,1.7,1.2,2.2,2.1s0.8,2,0.8,3.3v12.9h-3.3v-12.2c0-2.6-1.2-3.9-3.7-3.9
				c-0.9,0-1.8,0.2-2.6,0.6c-0.8,0.4-1.4,1-1.9,1.9c-0.5,0.9-0.8,2-0.8,3.4v10.3h-3.3v-18.6h3.1v2.6c0.6-1,1.5-1.7,2.6-2.3
				s2.3-0.8,3.7-0.8C325,123.4,326.1,123.6,327,124.1z"/>
			<path class="st3" d="M348.6,141.6c-1.4-0.8-2.4-2-3.2-3.4c-0.7-1.5-1.1-3.2-1.1-5.1c0-2,0.4-3.7,1.1-5.2c0.8-1.5,1.8-2.6,3.2-3.4
				s2.9-1.2,4.7-1.2c1.7,0,3.3,0.4,4.6,1.2c1.3,0.8,2.4,1.9,3.1,3.3c0.8,1.5,1.1,3.2,1.1,5.1c0,1.9-0.4,3.6-1.2,5.1
				c-0.8,1.5-1.8,2.7-3.2,3.5c-1.4,0.8-2.9,1.3-4.6,1.3C351.6,142.9,350,142.5,348.6,141.6z M356.4,139.2c0.9-0.6,1.5-1.4,1.9-2.5
				c0.4-1.1,0.7-2.3,0.7-3.7c0-1.4-0.2-2.6-0.7-3.6c-0.4-1-1.1-1.8-1.9-2.4c-0.9-0.6-1.9-0.8-3-0.8c-1.2,0-2.2,0.3-3,0.9
				s-1.5,1.4-1.9,2.4c-0.4,1.1-0.7,2.3-0.7,3.7c0,1.4,0.2,2.6,0.7,3.7c0.5,1.1,1.1,1.9,1.9,2.4c0.8,0.6,1.8,0.9,3,0.9
				C354.5,140.1,355.5,139.8,356.4,139.2z"/>
			<path class="st3" d="M380.1,124.6c1.2,0.8,2.2,1.8,2.8,3.2c0.7,1.4,1,3,1,4.9c0,1.9-0.3,3.6-1,5.2c-0.7,1.5-1.6,2.7-2.8,3.6
				s-2.7,1.3-4.3,1.3c-1.2,0-2.2-0.2-3.2-0.7c-0.9-0.5-1.7-1.1-2.4-1.9v9.6H367v-25.9h2.9v3c0.6-1,1.4-1.9,2.4-2.5
				c1.1-0.6,2.3-0.9,3.6-0.9C377.5,123.4,378.9,123.8,380.1,124.6z M378.2,139c0.8-0.6,1.4-1.5,1.8-2.6s0.6-2.4,0.6-3.8
				c0-2.1-0.5-3.7-1.4-4.8c-0.9-1.1-2.2-1.6-3.8-1.6c-1.1,0-2,0.3-2.8,0.8c-0.8,0.5-1.4,1.3-1.9,2.3c-0.5,1-0.7,2.2-0.7,3.6
				c0,1.4,0.2,2.7,0.7,3.8c0.5,1.1,1.1,1.9,1.9,2.4c0.8,0.6,1.7,0.8,2.8,0.8C376.5,139.9,377.4,139.6,378.2,139z"/>
			<path class="st3" d="M392.5,126.2v11.6c0,0.7,0.1,1.1,0.4,1.4c0.3,0.3,0.7,0.4,1.4,0.4h2.4v2.8h-3.4c-1.4,0-2.5-0.3-3.1-1
				c-0.7-0.7-1-1.7-1-3.1v-12l-2.8,0.1v-2.6l2.8,0.1v-5.8h3.3v5.8l4.2-0.1v2.6L392.5,126.2z"/>
			<path class="st3" d="M404,120.3h-3.3v-3.6h3.3V120.3z M404,142.4h-3.3v-18.6h3.3V142.4z"/>
			<path class="st3" d="M413,141.6c-1.4-0.8-2.4-2-3.2-3.4c-0.7-1.5-1.1-3.2-1.1-5.1c0-2,0.4-3.7,1.1-5.2c0.8-1.5,1.8-2.6,3.2-3.4
				s2.9-1.2,4.7-1.2c1.7,0,3.3,0.4,4.6,1.2c1.3,0.8,2.4,1.9,3.1,3.3c0.8,1.5,1.1,3.2,1.1,5.1c0,1.9-0.4,3.6-1.2,5.1
				c-0.8,1.5-1.8,2.7-3.2,3.5c-1.4,0.8-2.9,1.3-4.6,1.3C415.9,142.9,414.3,142.5,413,141.6z M420.7,139.2c0.9-0.6,1.5-1.4,1.9-2.5
				c0.4-1.1,0.7-2.3,0.7-3.7c0-1.4-0.2-2.6-0.7-3.6c-0.4-1-1.1-1.8-1.9-2.4c-0.9-0.6-1.9-0.8-3-0.8c-1.2,0-2.2,0.3-3,0.9
				s-1.5,1.4-1.9,2.4c-0.4,1.1-0.7,2.3-0.7,3.7c0,1.4,0.2,2.6,0.7,3.7c0.5,1.1,1.1,1.9,1.9,2.4c0.8,0.6,1.8,0.9,3,0.9
				C418.8,140.1,419.8,139.8,420.7,139.2z"/>
			<path class="st3" d="M444,124.1c0.9,0.5,1.7,1.2,2.2,2.1s0.8,2,0.8,3.3v12.9h-3.3v-12.2c0-2.6-1.2-3.9-3.7-3.9
				c-0.9,0-1.8,0.2-2.6,0.6c-0.8,0.4-1.4,1-1.9,1.9c-0.5,0.9-0.8,2-0.8,3.4v10.3h-3.3v-18.6h3.1v2.6c0.6-1,1.5-1.7,2.6-2.3
				s2.3-0.8,3.7-0.8C441.9,123.4,443,123.6,444,124.1z"/>
			<path class="st3" d="M469.6,139.9v2.4h-1.8c-2,0-3.1-0.9-3.2-2.7c-0.6,1-1.5,1.7-2.7,2.3s-2.5,0.9-4,0.9c-1.2,0-2.3-0.2-3.3-0.6
				c-0.9-0.4-1.7-1-2.2-1.9c-0.5-0.8-0.8-1.8-0.8-2.9c0-1.6,0.5-2.9,1.5-3.9c1-1,2.6-1.6,4.8-1.9l4.8-0.6c0.5,0,0.8-0.2,1-0.4
				c0.2-0.2,0.3-0.6,0.3-1v-0.7c0-1-0.3-1.7-1-2.2c-0.7-0.5-1.7-0.7-3.2-0.7c-1.4,0-2.4,0.2-3.1,0.7c-0.7,0.5-1.1,1.4-1.2,2.6h-3.3
				c0.2-2,0.9-3.6,2.2-4.6s3.1-1.5,5.5-1.5c2.4,0,4.2,0.5,5.4,1.5s1.9,2.5,1.9,4.5v9.1c0,0.6,0.1,1,0.4,1.3c0.2,0.2,0.7,0.4,1.3,0.4
				H469.6z M461.3,139.7c0.9-0.4,1.5-1,2.1-1.6c0.5-0.7,0.8-1.4,0.8-2.2v-2.6l-5.5,0.8c-1.2,0.2-2.2,0.6-2.7,1.1s-0.9,1.2-0.9,2.1
				c0,0.9,0.3,1.7,1,2.2c0.6,0.5,1.5,0.8,2.6,0.8C459.5,140.3,460.4,140.1,461.3,139.7z"/>
			<path class="st3" d="M476.5,142.4h-3.3v-25.6h3.3V142.4z"/>
			<path class="st3" d="M505.1,124.6c1.2,0.8,2.2,1.8,2.8,3.2c0.7,1.4,1,3,1,4.9c0,1.9-0.3,3.6-1,5.2c-0.7,1.5-1.6,2.7-2.8,3.6
				s-2.7,1.3-4.3,1.3c-1.3,0-2.5-0.3-3.5-0.9c-1.1-0.6-1.9-1.4-2.4-2.4v2.9H492v-25.6h3.3v9.3c0.6-0.8,1.4-1.5,2.4-2
				c1-0.5,2.1-0.7,3.3-0.7C502.5,123.4,503.9,123.8,505.1,124.6z M503.2,139c0.8-0.6,1.4-1.5,1.8-2.6s0.6-2.4,0.6-3.8
				c0-2.1-0.5-3.7-1.4-4.8c-0.9-1.1-2.2-1.6-3.8-1.6c-1.1,0-2,0.3-2.8,0.8c-0.8,0.5-1.4,1.3-1.9,2.3c-0.5,1-0.7,2.2-0.7,3.6
				c0,1.4,0.2,2.7,0.7,3.8c0.5,1.1,1.1,1.9,1.9,2.4c0.8,0.6,1.7,0.8,2.8,0.8C501.5,139.9,502.4,139.6,503.2,139z"/>
			<path class="st3" d="M530.5,139.9v2.4h-1.8c-2,0-3.1-0.9-3.2-2.7c-0.6,1-1.5,1.7-2.7,2.3s-2.5,0.9-4,0.9c-1.2,0-2.3-0.2-3.3-0.6
				c-0.9-0.4-1.7-1-2.2-1.9c-0.5-0.8-0.8-1.8-0.8-2.9c0-1.6,0.5-2.9,1.5-3.9c1-1,2.6-1.6,4.8-1.9l4.8-0.6c0.5,0,0.8-0.2,1-0.4
				c0.2-0.2,0.3-0.6,0.3-1v-0.7c0-1-0.3-1.7-1-2.2c-0.7-0.5-1.7-0.7-3.2-0.7c-1.4,0-2.4,0.2-3.1,0.7c-0.7,0.5-1.1,1.4-1.2,2.6h-3.3
				c0.2-2,0.9-3.6,2.2-4.6s3.1-1.5,5.5-1.5c2.4,0,4.2,0.5,5.4,1.5s1.9,2.5,1.9,4.5v9.1c0,0.6,0.1,1,0.4,1.3c0.2,0.2,0.7,0.4,1.3,0.4
				H530.5z M522.2,139.7c0.9-0.4,1.5-1,2.1-1.6c0.5-0.7,0.8-1.4,0.8-2.2v-2.6l-5.5,0.8c-1.2,0.2-2.2,0.6-2.7,1.1s-0.9,1.2-0.9,2.1
				c0,0.9,0.3,1.7,1,2.2c0.6,0.5,1.5,0.8,2.6,0.8C520.4,140.3,521.3,140.1,522.2,139.7z"/>
			<path class="st3" d="M535,141.3c-1.3-1-2.1-2.6-2.3-4.6l3.1-0.1c0.2,1.3,0.6,2.2,1.4,2.8c0.8,0.6,1.9,0.9,3.3,0.9
				c1.5,0,2.6-0.3,3.3-0.8s1.1-1.2,1.1-2.1c0-0.7-0.2-1.3-0.7-1.7c-0.5-0.4-1.2-0.8-2.2-1l-3.7-0.8c-1.8-0.4-3.1-1-3.9-1.8
				c-0.8-0.8-1.2-1.9-1.2-3.2c0-1.1,0.3-2,0.8-2.8c0.5-0.8,1.3-1.4,2.3-1.9c1-0.4,2.3-0.7,3.8-0.7c2.1,0,3.9,0.5,5.2,1.4
				c1.3,0.9,2.1,2.4,2.4,4.3l-3.3,0.1c-0.2-1.1-0.6-1.9-1.4-2.4c-0.7-0.5-1.7-0.8-3-0.8c-1.2,0-2.1,0.2-2.8,0.6c-0.6,0.4-1,1-1,1.8
				c0,0.6,0.2,1.1,0.6,1.5c0.4,0.4,1.2,0.7,2.2,0.9l3.6,0.8c1.9,0.4,3.3,1.1,4.2,1.9c0.9,0.9,1.3,2,1.3,3.3c0,1.2-0.3,2.2-0.9,3.1
				s-1.5,1.6-2.7,2c-1.2,0.5-2.6,0.7-4.2,0.7C538.1,142.9,536.3,142.3,535,141.3z"/>
			<path class="st3" d="M555.6,120.3h-3.3v-3.6h3.3V120.3z M555.6,142.4h-3.3v-18.6h3.3V142.4z"/>
			<path class="st3" d="M562.2,141.3c-1.3-1-2.1-2.6-2.3-4.6l3.1-0.1c0.2,1.3,0.6,2.2,1.4,2.8c0.8,0.6,1.9,0.9,3.3,0.9
				c1.5,0,2.6-0.3,3.3-0.8s1.1-1.2,1.1-2.1c0-0.7-0.2-1.3-0.7-1.7c-0.5-0.4-1.2-0.8-2.2-1l-3.7-0.8c-1.8-0.4-3.1-1-3.9-1.8
				c-0.8-0.8-1.2-1.9-1.2-3.2c0-1.1,0.3-2,0.8-2.8c0.5-0.8,1.3-1.4,2.3-1.9c1-0.4,2.3-0.7,3.8-0.7c2.1,0,3.9,0.5,5.2,1.4
				c1.3,0.9,2.1,2.4,2.4,4.3l-3.3,0.1c-0.2-1.1-0.6-1.9-1.4-2.4c-0.7-0.5-1.7-0.8-3-0.8c-1.2,0-2.1,0.2-2.8,0.6c-0.6,0.4-1,1-1,1.8
				c0,0.6,0.2,1.1,0.6,1.5c0.4,0.4,1.2,0.7,2.2,0.9l3.6,0.8c1.9,0.4,3.3,1.1,4.2,1.9c0.9,0.9,1.3,2,1.3,3.3c0,1.2-0.3,2.2-0.9,3.1
				s-1.5,1.6-2.7,2c-1.2,0.5-2.6,0.7-4.2,0.7C565.3,142.9,563.5,142.3,562.2,141.3z"/>
			<path class="st3" d="M580.1,138.8h4v5.7c0,2.6-1.2,3.9-3.6,3.9h-0.4v-1.8h0.4c1.1,0,1.7-0.6,1.7-1.7v-2.5h-2.1V138.8z"/>
			<path class="st3" d="M604.7,126.2v11.6c0,0.7,0.1,1.1,0.4,1.4c0.3,0.3,0.7,0.4,1.4,0.4h2.4v2.8h-3.4c-1.4,0-2.5-0.3-3.1-1
				c-0.7-0.7-1-1.7-1-3.1v-12l-2.8,0.1v-2.6l2.8,0.1v-5.8h3.3v5.8l4.2-0.1v2.6L604.7,126.2z"/>
			<path class="st3" d="M616.1,141.6c-1.4-0.8-2.4-2-3.2-3.4c-0.7-1.5-1.1-3.2-1.1-5.1c0-2,0.4-3.7,1.1-5.2c0.8-1.5,1.8-2.6,3.2-3.4
				s2.9-1.2,4.7-1.2c1.7,0,3.3,0.4,4.6,1.2c1.3,0.8,2.4,1.9,3.1,3.3c0.8,1.5,1.1,3.2,1.1,5.1c0,1.9-0.4,3.6-1.2,5.1
				c-0.8,1.5-1.8,2.7-3.2,3.5c-1.4,0.8-2.9,1.3-4.6,1.3C619,142.9,617.5,142.5,616.1,141.6z M623.8,139.2c0.9-0.6,1.5-1.4,1.9-2.5
				c0.4-1.1,0.7-2.3,0.7-3.7c0-1.4-0.2-2.6-0.7-3.6c-0.4-1-1.1-1.8-1.9-2.4c-0.9-0.6-1.9-0.8-3-0.8c-1.2,0-2.2,0.3-3,0.9
				s-1.5,1.4-1.9,2.4c-0.4,1.1-0.7,2.3-0.7,3.7c0,1.4,0.2,2.6,0.7,3.7c0.5,1.1,1.1,1.9,1.9,2.4c0.8,0.6,1.8,0.9,3,0.9
				C622,140.1,623,139.8,623.8,139.2z"/>
			<path class="st3" d="M657.1,123.8h3.1v18c0,2.9-0.8,5-2.3,6.4c-1.5,1.4-3.7,2-6.4,2c-2.2,0-4-0.5-5.4-1.4
				c-1.4-0.9-2.2-2.3-2.4-4.1h3.2c0.2,1,0.7,1.7,1.5,2.2c0.8,0.4,1.8,0.6,3.2,0.6c1.3,0,2.3-0.2,3.1-0.6c0.8-0.4,1.4-1,1.7-1.7
				s0.6-1.8,0.6-3.1v-2.4c-0.6,0.9-1.4,1.7-2.4,2.2s-2.2,0.8-3.4,0.8c-1.7,0-3.1-0.4-4.3-1.3s-2.2-2-2.8-3.5c-0.6-1.5-1-3.2-1-5.1
				c0-1.8,0.3-3.5,1-4.9c0.7-1.4,1.6-2.5,2.8-3.3s2.6-1.2,4.2-1.2c1.3,0,2.5,0.3,3.6,0.9s1.9,1.4,2.4,2.4V123.8z M654.3,139.1
				c0.8-0.6,1.5-1.4,1.9-2.4c0.5-1.1,0.7-2.3,0.7-3.8c0-1.4-0.2-2.6-0.7-3.6c-0.5-1-1.1-1.7-1.9-2.3s-1.7-0.8-2.8-0.8
				c-1.6,0-2.9,0.6-3.8,1.7c-0.9,1.1-1.4,2.7-1.4,4.9c0,1.4,0.2,2.7,0.6,3.8c0.4,1.1,1,1.9,1.8,2.5c0.8,0.6,1.7,0.9,2.7,0.9
				C652.5,139.9,653.4,139.7,654.3,139.1z"/>
			<path class="st3" d="M669.3,120.3H666v-3.6h3.3V120.3z M669.3,142.4H666v-18.6h3.3V142.4z"/>
			<path class="st3" d="M683.4,134.5l3.5-10.7h3.3l-6.8,18.6h-3.3l-7.1-18.6h3.6l3.7,10.7l1.5,5L683.4,134.5z"/>
			<path class="st3" d="M709.5,133.9h-13.9c0,2,0.6,3.6,1.6,4.6c1,1.1,2.3,1.6,4,1.6c1.3,0,2.3-0.3,3.2-0.9s1.5-1.4,1.9-2.5l3,0.4
				c-0.6,1.8-1.6,3.2-3,4.2s-3.1,1.5-5.1,1.5c-1.8,0-3.4-0.4-4.7-1.2c-1.3-0.8-2.3-2-3-3.5c-0.7-1.5-1.1-3.2-1.1-5.1
				c0-1.9,0.3-3.6,1-5c0.7-1.5,1.7-2.6,3-3.4c1.3-0.8,2.9-1.2,4.7-1.2c1.7,0,3.2,0.4,4.5,1.1c1.3,0.7,2.3,1.8,3,3.2c0.7,1.4,1,3,1,5
				V133.9z M697.3,127.5c-1,0.9-1.5,2.3-1.7,4h10.8c-0.2-1.8-0.8-3.1-1.7-4c-0.9-0.9-2.1-1.4-3.7-1.4S698.3,126.5,697.3,127.5z"/>
			<path class="st3" d="M89.5,172.1c0.9,0.5,1.7,1.2,2.2,2.1s0.8,2,0.8,3.3v12.9h-3.3v-12.2c0-2.6-1.2-3.9-3.7-3.9
				c-0.9,0-1.8,0.2-2.6,0.6c-0.8,0.4-1.4,1-1.9,1.9c-0.5,0.9-0.8,2-0.8,3.4v10.3h-3.3v-18.6h3.1v2.6c0.6-1,1.5-1.7,2.6-2.3
				s2.3-0.8,3.7-0.8C87.4,171.4,88.5,171.6,89.5,172.1z"/>
			<path class="st3" d="M101.4,189.6c-1.4-0.8-2.4-2-3.2-3.4c-0.7-1.5-1.1-3.2-1.1-5.1c0-2,0.4-3.7,1.1-5.2c0.8-1.5,1.8-2.6,3.2-3.4
				s2.9-1.2,4.7-1.2c1.7,0,3.3,0.4,4.6,1.2c1.3,0.8,2.4,1.9,3.1,3.3c0.8,1.5,1.1,3.2,1.1,5.1c0,1.9-0.4,3.6-1.2,5.1
				c-0.8,1.5-1.8,2.7-3.2,3.5c-1.4,0.8-2.9,1.3-4.6,1.3C104.3,190.9,102.7,190.5,101.4,189.6z M109.1,187.2c0.9-0.6,1.5-1.4,1.9-2.5
				c0.4-1.1,0.7-2.3,0.7-3.7c0-1.4-0.2-2.6-0.7-3.6c-0.4-1-1.1-1.8-1.9-2.4c-0.9-0.6-1.9-0.8-3-0.8c-1.2,0-2.2,0.3-3,0.9
				s-1.5,1.4-1.9,2.4c-0.4,1.1-0.7,2.3-0.7,3.7c0,1.4,0.2,2.6,0.7,3.7c0.5,1.1,1.1,1.9,1.9,2.4c0.8,0.6,1.8,0.9,3,0.9
				C107.2,188.1,108.2,187.8,109.1,187.2z"/>
			<path class="st3" d="M123.6,174.2v11.6c0,0.7,0.1,1.1,0.4,1.4c0.3,0.3,0.7,0.4,1.4,0.4h2.4v2.8h-3.4c-1.4,0-2.5-0.3-3.1-1
				c-0.7-0.7-1-1.7-1-3.1v-12l-2.8,0.1v-2.6l2.8,0.1v-5.8h3.3v5.8l4.2-0.1v2.6L123.6,174.2z"/>
			<path class="st3" d="M135.1,168.3h-3.3v-3.6h3.3V168.3z M135.1,190.4h-3.3v-18.6h3.3V190.4z"/>
			<path class="st3" d="M143.9,189.8c-1.3-0.7-2.3-1.8-3-3.3c-0.7-1.5-1.1-3.2-1.1-5.2c0-2.1,0.4-3.8,1.1-5.3s1.7-2.6,3.1-3.4
				c1.3-0.8,2.9-1.2,4.6-1.2c2.2,0,3.9,0.6,5.3,1.7s2.2,2.7,2.5,4.9h-3.1c-0.5-2.5-2.1-3.8-4.7-3.8c-1.8,0-3.2,0.6-4.1,1.8
				c-0.9,1.2-1.4,2.9-1.4,5.2c0,2.2,0.5,3.9,1.4,5.1c0.9,1.2,2.3,1.8,4,1.8c1.3,0,2.4-0.4,3.2-1.1c0.8-0.7,1.3-1.8,1.6-3.1h3.1
				c-0.3,2.2-1.2,3.9-2.5,5.1c-1.4,1.2-3.2,1.8-5.5,1.8C146.7,190.9,145.2,190.5,143.9,189.8z"/>
			<path class="st3" d="M177.1,181.9h-13.9c0,2,0.6,3.6,1.6,4.6c1,1.1,2.3,1.6,4,1.6c1.3,0,2.3-0.3,3.2-0.9s1.5-1.4,1.9-2.5l3,0.4
				c-0.6,1.8-1.6,3.2-3,4.2s-3.1,1.5-5.1,1.5c-1.8,0-3.4-0.4-4.7-1.2c-1.3-0.8-2.3-2-3-3.5c-0.7-1.5-1.1-3.2-1.1-5.1
				c0-1.9,0.3-3.6,1-5s1.7-2.6,3-3.4c1.3-0.8,2.9-1.2,4.7-1.2c1.7,0,3.2,0.4,4.5,1.1c1.3,0.7,2.3,1.8,3,3.2c0.7,1.4,1,3,1,5V181.9z
				 M164.9,175.5c-1,0.9-1.5,2.3-1.7,4H174c-0.2-1.8-0.8-3.1-1.7-4c-0.9-0.9-2.1-1.4-3.7-1.4S165.9,174.5,164.9,175.5z"/>
			<path class="st3" d="M194.7,189.6c-1.4-0.8-2.4-2-3.2-3.4c-0.7-1.5-1.1-3.2-1.1-5.1c0-2,0.4-3.7,1.1-5.2c0.8-1.5,1.8-2.6,3.2-3.4
				s2.9-1.2,4.7-1.2c1.7,0,3.3,0.4,4.6,1.2c1.3,0.8,2.4,1.9,3.1,3.3c0.8,1.5,1.1,3.2,1.1,5.1c0,1.9-0.4,3.6-1.2,5.1
				c-0.8,1.5-1.8,2.7-3.2,3.5c-1.4,0.8-2.9,1.3-4.6,1.3C197.6,190.9,196,190.5,194.7,189.6z M202.4,187.2c0.9-0.6,1.5-1.4,1.9-2.5
				c0.4-1.1,0.7-2.3,0.7-3.7c0-1.4-0.2-2.6-0.7-3.6c-0.4-1-1.1-1.8-1.9-2.4c-0.9-0.6-1.9-0.8-3-0.8c-1.2,0-2.2,0.3-3,0.9
				s-1.5,1.4-1.9,2.4c-0.4,1.1-0.7,2.3-0.7,3.7c0,1.4,0.2,2.6,0.7,3.7c0.5,1.1,1.1,1.9,1.9,2.4c0.8,0.6,1.8,0.9,3,0.9
				C200.5,188.1,201.5,187.8,202.4,187.2z"/>
			<path class="st3" d="M220.2,167.5c-0.6,0-1.1,0.1-1.4,0.2c-0.3,0.1-0.6,0.4-0.7,0.7c-0.1,0.3-0.2,0.8-0.2,1.4v2.1l4.2-0.1v2.6
				l-4.2-0.1v16.2h-3.3v-16.2l-3,0.1v-2.6l3,0.1v-1.6c0-1.9,0.4-3.4,1.3-4.2s2.3-1.3,4.2-1.3h2v2.8H220.2z"/>
			<path class="st3" d="M238.6,189.8c-1.3-0.7-2.3-1.8-3-3.3c-0.7-1.5-1.1-3.2-1.1-5.2c0-2.1,0.4-3.8,1.1-5.3s1.7-2.6,3.1-3.4
				c1.3-0.8,2.9-1.2,4.6-1.2c2.2,0,3.9,0.6,5.3,1.7s2.2,2.7,2.5,4.9H248c-0.5-2.5-2.1-3.8-4.7-3.8c-1.8,0-3.2,0.6-4.1,1.8
				c-0.9,1.2-1.4,2.9-1.4,5.2c0,2.2,0.5,3.9,1.4,5.1c0.9,1.2,2.3,1.8,4,1.8c1.3,0,2.4-0.4,3.2-1.1c0.8-0.7,1.3-1.8,1.6-3.1h3.1
				c-0.3,2.2-1.2,3.9-2.5,5.1c-1.4,1.2-3.2,1.8-5.5,1.8C241.4,190.9,239.9,190.5,238.6,189.8z"/>
			<path class="st3" d="M259,168.3h-3.3v-3.6h3.3V168.3z M259,190.4h-3.3v-18.6h3.3V190.4z"/>
			<path class="st3" d="M274.5,171.4v3.2c-0.3,0-0.7,0-1.2,0c-0.8,0-1.7,0.2-2.5,0.6c-0.8,0.4-1.5,1.1-2,1.9s-0.8,1.9-0.9,3.1v10.2
				h-3.3v-18.6h3.1v3.6c1.2-2.7,3.1-4.1,5.7-4.1C273.8,171.3,274.1,171.3,274.5,171.4z"/>
			<path class="st3" d="M281,189.8c-1.3-0.7-2.3-1.8-3-3.3c-0.7-1.5-1.1-3.2-1.1-5.2c0-2.1,0.4-3.8,1.1-5.3s1.7-2.6,3.1-3.4
				c1.3-0.8,2.9-1.2,4.6-1.2c2.2,0,3.9,0.6,5.3,1.7s2.2,2.7,2.5,4.9h-3.1c-0.5-2.5-2.1-3.8-4.7-3.8c-1.8,0-3.2,0.6-4.1,1.8
				c-0.9,1.2-1.4,2.9-1.4,5.2c0,2.2,0.5,3.9,1.4,5.1c0.9,1.2,2.3,1.8,4,1.8c1.3,0,2.4-0.4,3.2-1.1c0.8-0.7,1.3-1.8,1.6-3.1h3.1
				c-0.3,2.2-1.2,3.9-2.5,5.1c-1.4,1.2-3.2,1.8-5.5,1.8C283.8,190.9,282.2,190.5,281,189.8z"/>
			<path class="st3" d="M310.3,171.8h3.3v18.6h-3.1v-2.6c-0.6,1-1.5,1.7-2.6,2.3c-1.1,0.5-2.3,0.8-3.7,0.8c-1.3,0-2.4-0.2-3.4-0.7
				c-0.9-0.5-1.7-1.2-2.2-2.1c-0.5-0.9-0.8-2-0.8-3.3v-12.9h3.3v12.2c0,2.6,1.2,3.9,3.7,3.9c0.9,0,1.8-0.2,2.6-0.6s1.4-1,1.9-1.9
				c0.5-0.9,0.8-2,0.8-3.4V171.8z"/>
			<path class="st3" d="M343.4,172.9c1,1,1.5,2.6,1.5,4.8v12.7h-3.3v-12.7c0-1.1-0.3-1.9-0.8-2.5c-0.6-0.6-1.3-0.9-2.4-0.9
				c-1.3,0-2.3,0.5-3.2,1.4c-0.9,0.9-1.3,2.5-1.3,4.7v10.1h-3.3v-12.7c0-1.1-0.3-1.9-0.8-2.5c-0.6-0.6-1.3-0.9-2.4-0.9
				c-0.8,0-1.5,0.2-2.2,0.6c-0.7,0.4-1.2,1.1-1.7,2c-0.4,0.9-0.6,2.2-0.6,3.7v9.9h-3.3v-18.6h3.1v2.6c1.3-2.1,3.1-3.1,5.6-3.1
				c1.3,0,2.3,0.3,3.2,0.8c0.9,0.6,1.5,1.4,1.9,2.4c1.2-2.2,3.2-3.2,5.9-3.2C341,171.4,342.4,171.9,343.4,172.9z"/>
			<path class="st3" d="M351.4,189.3c-1.3-1-2.1-2.6-2.3-4.6l3.1-0.1c0.2,1.3,0.6,2.2,1.4,2.8c0.8,0.6,1.9,0.9,3.3,0.9
				c1.5,0,2.6-0.3,3.3-0.8s1.1-1.2,1.1-2.1c0-0.7-0.2-1.3-0.7-1.7c-0.5-0.4-1.2-0.8-2.2-1l-3.7-0.8c-1.8-0.4-3.1-1-3.9-1.8
				c-0.8-0.8-1.2-1.9-1.2-3.2c0-1.1,0.3-2,0.8-2.8c0.5-0.8,1.3-1.4,2.3-1.9c1-0.4,2.3-0.7,3.8-0.7c2.1,0,3.9,0.5,5.2,1.4
				c1.3,0.9,2.1,2.4,2.4,4.3l-3.3,0.1c-0.2-1.1-0.6-1.9-1.4-2.4c-0.7-0.5-1.7-0.8-3-0.8c-1.2,0-2.1,0.2-2.8,0.6c-0.6,0.4-1,1-1,1.8
				c0,0.6,0.2,1.1,0.6,1.5c0.4,0.4,1.2,0.7,2.2,0.9l3.6,0.8c1.9,0.4,3.3,1.1,4.2,1.9c0.9,0.9,1.3,2,1.3,3.3c0,1.2-0.3,2.2-0.9,3.1
				s-1.5,1.6-2.7,2c-1.2,0.5-2.6,0.7-4.2,0.7C354.5,190.9,352.7,190.3,351.4,189.3z"/>
			<path class="st3" d="M373.4,174.2v11.6c0,0.7,0.1,1.1,0.4,1.4c0.3,0.3,0.7,0.4,1.4,0.4h2.4v2.8h-3.4c-1.4,0-2.5-0.3-3.1-1
				c-0.7-0.7-1-1.7-1-3.1v-12l-2.8,0.1v-2.6l2.8,0.1v-5.8h3.3v5.8l4.2-0.1v2.6L373.4,174.2z"/>
			<path class="st3" d="M398.5,187.9v2.4h-1.8c-2,0-3.1-0.9-3.2-2.7c-0.6,1-1.5,1.7-2.7,2.3s-2.5,0.9-4,0.9c-1.2,0-2.3-0.2-3.3-0.6
				c-0.9-0.4-1.7-1-2.2-1.9c-0.5-0.8-0.8-1.8-0.8-2.9c0-1.6,0.5-2.9,1.5-3.9c1-1,2.6-1.6,4.8-1.9l4.8-0.6c0.5,0,0.8-0.2,1-0.4
				c0.2-0.2,0.3-0.6,0.3-1v-0.7c0-1-0.3-1.7-1-2.2c-0.7-0.5-1.7-0.7-3.2-0.7c-1.4,0-2.4,0.2-3.1,0.7c-0.7,0.5-1.1,1.4-1.2,2.6h-3.3
				c0.2-2,0.9-3.6,2.2-4.6s3.1-1.5,5.5-1.5c2.4,0,4.2,0.5,5.4,1.5s1.9,2.5,1.9,4.5v9.1c0,0.6,0.1,1,0.4,1.3c0.2,0.2,0.7,0.4,1.3,0.4
				H398.5z M390.2,187.7c0.9-0.4,1.5-1,2.1-1.6c0.5-0.7,0.8-1.4,0.8-2.2v-2.6l-5.5,0.8c-1.2,0.2-2.2,0.6-2.7,1.1s-0.9,1.2-0.9,2.1
				c0,0.9,0.3,1.7,1,2.2c0.6,0.5,1.5,0.8,2.6,0.8C388.4,188.3,389.3,188.1,390.2,187.7z"/>
			<path class="st3" d="M414.8,172.1c0.9,0.5,1.7,1.2,2.2,2.1s0.8,2,0.8,3.3v12.9h-3.3v-12.2c0-2.6-1.2-3.9-3.7-3.9
				c-0.9,0-1.8,0.2-2.6,0.6c-0.8,0.4-1.4,1-1.9,1.9c-0.5,0.9-0.8,2-0.8,3.4v10.3h-3.3v-18.6h3.1v2.6c0.6-1,1.5-1.7,2.6-2.3
				s2.3-0.8,3.7-0.8C412.7,171.4,413.9,171.6,414.8,172.1z"/>
			<path class="st3" d="M426.5,189.8c-1.3-0.7-2.3-1.8-3-3.3c-0.7-1.5-1.1-3.2-1.1-5.2c0-2.1,0.4-3.8,1.1-5.3s1.7-2.6,3.1-3.4
				c1.3-0.8,2.9-1.2,4.6-1.2c2.2,0,3.9,0.6,5.3,1.7s2.2,2.7,2.5,4.9h-3.1c-0.5-2.5-2.1-3.8-4.7-3.8c-1.8,0-3.2,0.6-4.1,1.8
				c-0.9,1.2-1.4,2.9-1.4,5.2c0,2.2,0.5,3.9,1.4,5.1c0.9,1.2,2.3,1.8,4,1.8c1.3,0,2.4-0.4,3.2-1.1c0.8-0.7,1.3-1.8,1.6-3.1h3.1
				c-0.3,2.2-1.2,3.9-2.5,5.1c-1.4,1.2-3.2,1.8-5.5,1.8C429.3,190.9,427.8,190.5,426.5,189.8z"/>
			<path class="st3" d="M459.7,181.9h-13.9c0,2,0.6,3.6,1.6,4.6c1,1.1,2.3,1.6,4,1.6c1.3,0,2.3-0.3,3.2-0.9s1.5-1.4,1.9-2.5l3,0.4
				c-0.6,1.8-1.6,3.2-3,4.2s-3.1,1.5-5.1,1.5c-1.8,0-3.4-0.4-4.7-1.2c-1.3-0.8-2.3-2-3-3.5c-0.7-1.5-1.1-3.2-1.1-5.1
				c0-1.9,0.3-3.6,1-5s1.7-2.6,3-3.4c1.3-0.8,2.9-1.2,4.7-1.2c1.7,0,3.2,0.4,4.5,1.1c1.3,0.7,2.3,1.8,3,3.2c0.7,1.4,1,3,1,5V181.9z
				 M447.5,175.5c-1,0.9-1.5,2.3-1.7,4h10.8c-0.2-1.8-0.8-3.1-1.7-4c-0.9-0.9-2.1-1.4-3.7-1.4S448.5,174.5,447.5,175.5z"/>
			<path class="st3" d="M465.2,189.3c-1.3-1-2.1-2.6-2.3-4.6l3.1-0.1c0.2,1.3,0.6,2.2,1.4,2.8c0.8,0.6,1.9,0.9,3.3,0.9
				c1.5,0,2.6-0.3,3.3-0.8s1.1-1.2,1.1-2.1c0-0.7-0.2-1.3-0.7-1.7c-0.5-0.4-1.2-0.8-2.2-1l-3.7-0.8c-1.8-0.4-3.1-1-3.9-1.8
				c-0.8-0.8-1.2-1.9-1.2-3.2c0-1.1,0.3-2,0.8-2.8c0.5-0.8,1.3-1.4,2.3-1.9c1-0.4,2.3-0.7,3.8-0.7c2.1,0,3.9,0.5,5.2,1.4
				c1.3,0.9,2.1,2.4,2.4,4.3l-3.3,0.1c-0.2-1.1-0.6-1.9-1.4-2.4c-0.7-0.5-1.7-0.8-3-0.8c-1.2,0-2.1,0.2-2.8,0.6c-0.6,0.4-1,1-1,1.8
				c0,0.6,0.2,1.1,0.6,1.5c0.4,0.4,1.2,0.7,2.2,0.9l3.6,0.8c1.9,0.4,3.3,1.1,4.2,1.9c0.9,0.9,1.3,2,1.3,3.3c0,1.2-0.3,2.2-0.9,3.1
				s-1.5,1.6-2.7,2c-1.2,0.5-2.6,0.7-4.2,0.7C468.3,190.9,466.5,190.3,465.2,189.3z"/>
			<path class="st3" d="M496.9,174.2v11.6c0,0.7,0.1,1.1,0.4,1.4c0.3,0.3,0.7,0.4,1.4,0.4h2.4v2.8h-3.4c-1.4,0-2.5-0.3-3.1-1
				c-0.7-0.7-1-1.7-1-3.1v-12l-2.8,0.1v-2.6l2.8,0.1v-5.8h3.3v5.8l4.2-0.1v2.6L496.9,174.2z"/>
			<path class="st3" d="M517.8,172.1c0.9,0.5,1.7,1.2,2.2,2.1s0.8,2,0.8,3.3v12.9h-3.3v-12.2c0-2.6-1.2-3.9-3.7-3.9
				c-0.9,0-1.8,0.2-2.6,0.6c-0.8,0.4-1.4,1-1.9,1.9c-0.5,0.9-0.8,2-0.8,3.4v10.3h-3.3v-25.6h3.3v9.4c0.6-0.9,1.5-1.6,2.5-2.1
				c1-0.5,2.2-0.7,3.5-0.7S516.9,171.6,517.8,172.1z"/>
			<path class="st3" d="M543.5,187.9v2.4h-1.8c-2,0-3.1-0.9-3.2-2.7c-0.6,1-1.5,1.7-2.7,2.3s-2.5,0.9-4,0.9c-1.2,0-2.3-0.2-3.3-0.6
				c-0.9-0.4-1.7-1-2.2-1.9c-0.5-0.8-0.8-1.8-0.8-2.9c0-1.6,0.5-2.9,1.5-3.9c1-1,2.6-1.6,4.8-1.9l4.8-0.6c0.5,0,0.8-0.2,1-0.4
				c0.2-0.2,0.3-0.6,0.3-1v-0.7c0-1-0.3-1.7-1-2.2c-0.7-0.5-1.7-0.7-3.2-0.7c-1.4,0-2.4,0.2-3.1,0.7c-0.7,0.5-1.1,1.4-1.2,2.6h-3.3
				c0.2-2,0.9-3.6,2.2-4.6s3.1-1.5,5.5-1.5c2.4,0,4.2,0.5,5.4,1.5s1.9,2.5,1.9,4.5v9.1c0,0.6,0.1,1,0.4,1.3c0.2,0.2,0.7,0.4,1.3,0.4
				H543.5z M535.1,187.7c0.9-0.4,1.5-1,2.1-1.6c0.5-0.7,0.8-1.4,0.8-2.2v-2.6l-5.5,0.8c-1.2,0.2-2.2,0.6-2.7,1.1s-0.9,1.2-0.9,2.1
				c0,0.9,0.3,1.7,1,2.2c0.6,0.5,1.5,0.8,2.6,0.8C533.4,188.3,534.3,188.1,535.1,187.7z"/>
			<path class="st3" d="M551.7,174.2v11.6c0,0.7,0.1,1.1,0.4,1.4c0.3,0.3,0.7,0.4,1.4,0.4h2.4v2.8h-3.4c-1.4,0-2.5-0.3-3.1-1
				c-0.7-0.7-1-1.7-1-3.1v-12l-2.8,0.1v-2.6l2.8,0.1v-5.8h3.3v5.8l4.2-0.1v2.6L551.7,174.2z"/>
			<path class="st3" d="M593.6,172.9c1,1,1.5,2.6,1.5,4.8v12.7h-3.3v-12.7c0-1.1-0.3-1.9-0.8-2.5c-0.6-0.6-1.3-0.9-2.4-0.9
				c-1.3,0-2.3,0.5-3.2,1.4c-0.9,0.9-1.3,2.5-1.3,4.7v10.1h-3.3v-12.7c0-1.1-0.3-1.9-0.8-2.5c-0.6-0.6-1.3-0.9-2.4-0.9
				c-0.8,0-1.5,0.2-2.2,0.6c-0.7,0.4-1.2,1.1-1.7,2c-0.4,0.9-0.6,2.2-0.6,3.7v9.9h-3.3v-18.6h3.1v2.6c1.3-2.1,3.1-3.1,5.6-3.1
				c1.3,0,2.3,0.3,3.2,0.8c0.9,0.6,1.5,1.4,1.9,2.4c1.2-2.2,3.2-3.2,5.9-3.2C591.2,171.4,592.6,171.9,593.6,172.9z"/>
			<path class="st3" d="M617.7,187.9v2.4H616c-2,0-3.1-0.9-3.2-2.7c-0.6,1-1.5,1.7-2.7,2.3s-2.5,0.9-4,0.9c-1.2,0-2.3-0.2-3.3-0.6
				c-0.9-0.4-1.7-1-2.2-1.9c-0.5-0.8-0.8-1.8-0.8-2.9c0-1.6,0.5-2.9,1.5-3.9c1-1,2.6-1.6,4.8-1.9l4.8-0.6c0.5,0,0.8-0.2,1-0.4
				c0.2-0.2,0.3-0.6,0.3-1v-0.7c0-1-0.3-1.7-1-2.2c-0.7-0.5-1.7-0.7-3.2-0.7c-1.4,0-2.4,0.2-3.1,0.7c-0.7,0.5-1.1,1.4-1.2,2.6h-3.3
				c0.2-2,0.9-3.6,2.2-4.6s3.1-1.5,5.5-1.5c2.4,0,4.2,0.5,5.4,1.5s1.9,2.5,1.9,4.5v9.1c0,0.6,0.1,1,0.4,1.3c0.2,0.2,0.7,0.4,1.3,0.4
				H617.7z M609.4,187.7c0.9-0.4,1.5-1,2.1-1.6c0.5-0.7,0.8-1.4,0.8-2.2v-2.6l-5.5,0.8c-1.2,0.2-2.2,0.6-2.7,1.1s-0.9,1.2-0.9,2.1
				c0,0.9,0.3,1.7,1,2.2c0.6,0.5,1.5,0.8,2.6,0.8C607.6,188.3,608.5,188.1,609.4,187.7z"/>
			<path class="st3" d="M633,171.8h3.4l-8.6,22.2c-0.4,1-0.8,1.7-1.2,2.2c-0.4,0.5-1,0.9-1.6,1.1c-0.6,0.2-1.4,0.3-2.3,0.3h-2.1V195
				h1.7c0.6,0,1-0.1,1.4-0.2c0.4-0.1,0.7-0.4,0.9-0.7c0.3-0.3,0.5-0.9,0.8-1.5l0.9-2.3l-7.5-18.4h3.6l4.4,11.7
				c0.4,1.1,0.7,2.1,1,3.1c0.3-1,0.6-2,1-3.1L633,171.8z"/>
			<path class="st3" d="M662.9,171.8h3.1v18c0,2.9-0.8,5-2.3,6.4c-1.5,1.4-3.7,2-6.4,2c-2.2,0-4-0.5-5.4-1.4
				c-1.4-0.9-2.2-2.3-2.4-4.1h3.2c0.2,1,0.7,1.7,1.5,2.2c0.8,0.4,1.8,0.6,3.2,0.6c1.3,0,2.3-0.2,3.1-0.6c0.8-0.4,1.4-1,1.7-1.7
				s0.6-1.8,0.6-3.1v-2.4c-0.6,0.9-1.4,1.7-2.4,2.2s-2.2,0.8-3.4,0.8c-1.7,0-3.1-0.4-4.3-1.3s-2.2-2-2.8-3.5c-0.6-1.5-1-3.2-1-5.1
				c0-1.8,0.3-3.5,1-4.9c0.7-1.4,1.6-2.5,2.8-3.3s2.6-1.2,4.2-1.2c1.3,0,2.5,0.3,3.6,0.9s1.9,1.4,2.4,2.4V171.8z M660,187.1
				c0.8-0.6,1.5-1.4,1.9-2.4c0.5-1.1,0.7-2.3,0.7-3.8c0-1.4-0.2-2.6-0.7-3.6c-0.5-1-1.1-1.7-1.9-2.2s-1.7-0.8-2.8-0.8
				c-1.6,0-2.9,0.6-3.8,1.7c-0.9,1.1-1.4,2.7-1.4,4.9c0,1.4,0.2,2.7,0.6,3.8c0.4,1.1,1,1.9,1.8,2.5c0.8,0.6,1.7,0.9,2.7,0.9
				C658.3,187.9,659.2,187.7,660,187.1z"/>
			<path class="st3" d="M675,168.3h-3.3v-3.6h3.3V168.3z M675,190.4h-3.3v-18.6h3.3V190.4z"/>
			<path class="st3" d="M689.1,182.5l3.5-10.7h3.3l-6.8,18.6h-3.3l-7.1-18.6h3.6l3.7,10.7l1.5,5L689.1,182.5z"/>
			<path class="st3" d="M715.2,181.9h-13.9c0,2,0.6,3.6,1.6,4.6c1,1.1,2.3,1.6,4,1.6c1.3,0,2.3-0.3,3.2-0.9s1.5-1.4,1.9-2.5l3,0.4
				c-0.6,1.8-1.6,3.2-3,4.2s-3.1,1.5-5.1,1.5c-1.8,0-3.4-0.4-4.7-1.2c-1.3-0.8-2.3-2-3-3.5c-0.7-1.5-1.1-3.2-1.1-5.1
				c0-1.9,0.3-3.6,1-5s1.7-2.6,3-3.4c1.3-0.8,2.9-1.2,4.7-1.2c1.7,0,3.2,0.4,4.5,1.1c1.3,0.7,2.3,1.8,3,3.2c0.7,1.4,1,3,1,5V181.9z
				 M703.1,175.5c-1,0.9-1.5,2.3-1.7,4h10.8c-0.2-1.8-0.8-3.1-1.7-4c-0.9-0.9-2.1-1.4-3.7-1.4S704,174.5,703.1,175.5z"/>
			<path class="st3" d="M86.6,219.4v3.2c-0.3,0-0.7,0-1.2,0c-0.8,0-1.7,0.2-2.5,0.6c-0.8,0.4-1.5,1.1-2,1.9s-0.8,1.9-0.9,3.1v10.2
				h-3.3v-18.6h3.1v3.6c1.2-2.7,3.1-4.1,5.7-4.1C85.9,219.3,86.2,219.3,86.6,219.4z"/>
			<path class="st3" d="M93.4,216.3H90v-3.6h3.3V216.3z M93.4,238.4H90v-18.6h3.3V238.4z"/>
			<path class="st3" d="M99.9,237.3c-1.3-1-2.1-2.6-2.3-4.6l3.1-0.1c0.2,1.3,0.6,2.2,1.4,2.8c0.8,0.6,1.9,0.9,3.3,0.9
				c1.5,0,2.6-0.3,3.3-0.8s1.1-1.2,1.1-2.1c0-0.7-0.2-1.3-0.7-1.7c-0.5-0.4-1.2-0.8-2.2-1l-3.7-0.8c-1.8-0.4-3.1-1-3.9-1.8
				c-0.8-0.8-1.2-1.9-1.2-3.2c0-1.1,0.3-2,0.8-2.8c0.5-0.8,1.3-1.4,2.3-1.9c1-0.4,2.3-0.7,3.8-0.7c2.1,0,3.9,0.5,5.2,1.4
				c1.3,0.9,2.1,2.4,2.4,4.3l-3.3,0.1c-0.2-1.1-0.6-1.9-1.4-2.4c-0.7-0.5-1.7-0.8-3-0.8c-1.2,0-2.1,0.2-2.8,0.6c-0.6,0.4-1,1-1,1.8
				c0,0.6,0.2,1.1,0.6,1.5c0.4,0.4,1.2,0.7,2.2,0.9l3.6,0.8c1.9,0.4,3.3,1.1,4.2,1.9c0.9,0.9,1.3,2,1.3,3.3c0,1.2-0.3,2.2-0.9,3.1
				s-1.5,1.6-2.7,2c-1.2,0.5-2.6,0.7-4.2,0.7C103.1,238.9,101.2,238.3,99.9,237.3z"/>
			<path class="st3" d="M133.5,229.9h-13.9c0,2,0.6,3.6,1.6,4.6c1,1.1,2.3,1.6,4,1.6c1.3,0,2.3-0.3,3.2-0.9c0.8-0.6,1.5-1.4,1.9-2.5
				l3,0.4c-0.6,1.8-1.6,3.2-3,4.2s-3.1,1.5-5.1,1.5c-1.8,0-3.4-0.4-4.7-1.2c-1.3-0.8-2.3-2-3-3.5c-0.7-1.5-1.1-3.2-1.1-5.1
				c0-1.9,0.3-3.6,1-5s1.7-2.6,3-3.4c1.3-0.8,2.9-1.2,4.7-1.2c1.7,0,3.2,0.4,4.5,1.1c1.3,0.7,2.3,1.8,3,3.2c0.7,1.4,1,3,1,5V229.9z
				 M121.3,223.5c-1,0.9-1.5,2.3-1.7,4h10.8c-0.2-1.8-0.8-3.1-1.7-4c-0.9-0.9-2.1-1.4-3.7-1.4S122.2,222.5,121.3,223.5z"/>
			<path class="st3" d="M152.5,222.2v11.6c0,0.7,0.1,1.1,0.4,1.4c0.3,0.3,0.7,0.4,1.4,0.4h2.4v2.8h-3.4c-1.4,0-2.5-0.3-3.1-1
				c-0.7-0.7-1-1.7-1-3.1v-12l-2.8,0.1v-2.6l2.8,0.1v-5.8h3.3v5.8l4.2-0.1v2.6L152.5,222.2z"/>
			<path class="st3" d="M163.9,237.6c-1.4-0.8-2.4-2-3.2-3.4c-0.7-1.5-1.1-3.2-1.1-5.1c0-2,0.4-3.7,1.1-5.2c0.8-1.5,1.8-2.6,3.2-3.4
				s2.9-1.2,4.7-1.2c1.7,0,3.3,0.4,4.6,1.2c1.3,0.8,2.4,1.9,3.1,3.3c0.8,1.5,1.1,3.2,1.1,5.1c0,1.9-0.4,3.6-1.2,5.1
				c-0.8,1.5-1.8,2.7-3.2,3.5c-1.4,0.8-2.9,1.3-4.6,1.3C166.8,238.9,165.3,238.5,163.9,237.6z M171.6,235.2c0.9-0.6,1.5-1.4,1.9-2.5
				c0.4-1.1,0.7-2.3,0.7-3.7c0-1.4-0.2-2.6-0.7-3.6c-0.4-1-1.1-1.8-1.9-2.4c-0.9-0.6-1.9-0.8-3-0.8c-1.2,0-2.2,0.3-3,0.9
				s-1.5,1.4-1.9,2.4c-0.4,1.1-0.7,2.3-0.7,3.7c0,1.4,0.2,2.6,0.7,3.7c0.5,1.1,1.1,1.9,1.9,2.4c0.8,0.6,1.8,0.9,3,0.9
				C169.7,236.1,170.8,235.8,171.6,235.2z"/>
			<path class="st3" d="M208.8,235.9v2.4h-1.8c-2,0-3.1-0.9-3.2-2.7c-0.6,1-1.5,1.7-2.7,2.3s-2.5,0.9-4,0.9c-1.2,0-2.3-0.2-3.3-0.6
				c-0.9-0.4-1.7-1-2.2-1.9c-0.5-0.8-0.8-1.8-0.8-2.9c0-1.6,0.5-2.9,1.5-3.9c1-1,2.6-1.6,4.8-1.9l4.8-0.6c0.5,0,0.8-0.2,1-0.4
				c0.2-0.2,0.3-0.6,0.3-1v-0.7c0-1-0.3-1.7-1-2.2c-0.7-0.5-1.7-0.7-3.2-0.7c-1.4,0-2.4,0.2-3.1,0.7c-0.7,0.5-1.1,1.4-1.2,2.6h-3.3
				c0.2-2,0.9-3.6,2.2-4.6s3.1-1.5,5.5-1.5c2.4,0,4.2,0.5,5.4,1.5s1.9,2.5,1.9,4.5v9.1c0,0.6,0.1,1,0.4,1.3c0.2,0.2,0.7,0.4,1.3,0.4
				H208.8z M200.5,235.7c0.9-0.4,1.5-1,2.1-1.6c0.5-0.7,0.8-1.4,0.8-2.2v-2.6l-5.5,0.8c-1.2,0.2-2.2,0.6-2.7,1.1s-0.9,1.2-0.9,2.1
				c0,0.9,0.3,1.7,1,2.2c0.6,0.5,1.5,0.8,2.6,0.8C198.7,236.3,199.7,236.1,200.5,235.7z"/>
			<path class="st3" d="M225.2,237.8c-1.3-0.7-2.3-1.8-3-3.3c-0.7-1.5-1.1-3.2-1.1-5.2c0-2.1,0.4-3.8,1.1-5.3s1.7-2.6,3.1-3.4
				c1.3-0.8,2.9-1.2,4.6-1.2c2.2,0,3.9,0.6,5.3,1.7s2.2,2.7,2.5,4.9h-3.1c-0.5-2.5-2.1-3.8-4.7-3.8c-1.8,0-3.2,0.6-4.1,1.8
				c-0.9,1.2-1.4,2.9-1.4,5.2c0,2.2,0.5,3.9,1.4,5.1c0.9,1.2,2.3,1.8,4,1.8c1.3,0,2.4-0.4,3.2-1.1c0.8-0.7,1.3-1.8,1.6-3.1h3.1
				c-0.3,2.2-1.2,3.9-2.5,5.1c-1.4,1.2-3.2,1.8-5.5,1.8C228,238.9,226.4,238.5,225.2,237.8z"/>
			<path class="st3" d="M245.5,238.4h-3.3v-25.6h3.3V238.4z"/>
			<path class="st3" d="M268.2,235.9v2.4h-1.8c-2,0-3.1-0.9-3.2-2.7c-0.6,1-1.5,1.7-2.7,2.3s-2.5,0.9-4,0.9c-1.2,0-2.3-0.2-3.3-0.6
				c-0.9-0.4-1.7-1-2.2-1.9c-0.5-0.8-0.8-1.8-0.8-2.9c0-1.6,0.5-2.9,1.5-3.9c1-1,2.6-1.6,4.8-1.9l4.8-0.6c0.5,0,0.8-0.2,1-0.4
				c0.2-0.2,0.3-0.6,0.3-1v-0.7c0-1-0.3-1.7-1-2.2c-0.7-0.5-1.7-0.7-3.2-0.7c-1.4,0-2.4,0.2-3.1,0.7c-0.7,0.5-1.1,1.4-1.2,2.6H251
				c0.2-2,0.9-3.6,2.2-4.6s3.1-1.5,5.5-1.5c2.4,0,4.2,0.5,5.4,1.5s1.9,2.5,1.9,4.5v9.1c0,0.6,0.1,1,0.4,1.3c0.2,0.2,0.7,0.4,1.3,0.4
				H268.2z M259.9,235.7c0.9-0.4,1.5-1,2.1-1.6c0.5-0.7,0.8-1.4,0.8-2.2v-2.6l-5.5,0.8c-1.2,0.2-2.2,0.6-2.7,1.1s-0.9,1.2-0.9,2.1
				c0,0.9,0.3,1.7,1,2.2c0.6,0.5,1.5,0.8,2.6,0.8C258.1,236.3,259,236.1,259.9,235.7z"/>
			<path class="st3" d="M275.1,216.3h-3.3v-3.6h3.3V216.3z M275.1,238.4h-3.3v-18.6h3.3V238.4z"/>
			<path class="st3" d="M304.8,220.9c1,1,1.5,2.6,1.5,4.8v12.7H303v-12.7c0-1.1-0.3-1.9-0.8-2.5c-0.6-0.6-1.3-0.9-2.4-0.9
				c-1.3,0-2.3,0.5-3.2,1.4c-0.9,0.9-1.3,2.5-1.3,4.7v10.1h-3.3v-12.7c0-1.1-0.3-1.9-0.8-2.5c-0.6-0.6-1.3-0.9-2.4-0.9
				c-0.8,0-1.5,0.2-2.2,0.6c-0.7,0.4-1.2,1.1-1.7,2c-0.4,0.9-0.6,2.2-0.6,3.7v9.9h-3.3v-18.6h3.1v2.6c1.3-2.1,3.1-3.1,5.6-3.1
				c1.3,0,2.3,0.3,3.2,0.8c0.9,0.6,1.5,1.4,1.9,2.4c1.2-2.2,3.2-3.2,5.9-3.2C302.5,219.4,303.9,219.9,304.8,220.9z"/>
			<path class="st3" d="M346.9,230.5h-26.2v-3h26.2V230.5z"/>
		</g>
	</g>
</g>
<g>
	<g>
		<g>
			<path class="st4" d="M98.7,292.6h-7.3v19.9c0,1.2,0.3,2,1,2.5c0.6,0.5,1.7,0.7,3.3,0.7h3.1v7c-1.6,0.1-3.2,0.2-4.8,0.2
				c-4,0-6.9-0.7-8.8-2.2c-1.9-1.5-2.8-3.9-2.8-7.2v-20.9h-5.8v-7.1h5.8v-10.8h9v10.8h7.3V292.6z"/>
			<path class="st4" d="M131.3,286.2c1.9,1,3.5,2.5,4.5,4.5c1.1,2,1.6,4.5,1.6,7.3v24.6h-9.1v-23.1c0-4.7-2.3-7.1-7-7.1
				c-1.4,0-2.7,0.3-4,1c-1.3,0.7-2.3,1.7-3.1,3.1c-0.8,1.4-1.2,3.1-1.2,5.3v20.8h-9.1v-51.3h9.1v19.1c1.3-1.8,2.9-3.2,4.8-4.2
				c1.9-1.1,4.1-1.6,6.5-1.6C127.1,284.7,129.4,285.2,131.3,286.2z"/>
			<path class="st4" d="M152,321.2c-2.8-1.6-5-3.9-6.5-6.8c-1.6-3-2.3-6.4-2.3-10.3c0-3.8,0.8-7.2,2.3-10.2c1.5-3,3.7-5.2,6.4-6.8
				c2.8-1.6,6-2.4,9.6-2.4c3.7,0,7,0.9,9.8,2.6c2.8,1.7,4.9,4.1,6.4,7.1c1.5,3,2.2,6.5,2.2,10.4v2.2h-27.8c0.3,3.2,1.4,5.6,3.1,7.2
				c1.7,1.6,3.9,2.4,6.6,2.4c2.1,0,3.9-0.5,5.3-1.4c1.4-0.9,2.5-2.2,3.1-3.9h8.8c-0.7,2.5-1.8,4.7-3.4,6.6s-3.6,3.3-5.9,4.3
				c-2.4,1-5,1.5-8,1.5C158,323.6,154.8,322.8,152,321.2z M170.8,300.6c-0.4-2.7-1.4-4.8-3-6.4c-1.6-1.6-3.7-2.4-6.4-2.4
				c-2.5,0-4.6,0.7-6.2,2.2c-1.6,1.5-2.7,3.7-3.1,6.6H170.8z"/>
			<path class="st4" d="M207.8,285.1v8.4h-2.3c-3.4,0-6,0.9-7.9,2.6c-1.9,1.7-2.8,4.3-2.8,7.8v18.9h-9.1v-37.2h8.8v6.6
				c1-2.2,2.4-4,4.2-5.3c1.8-1.3,4.1-1.9,6.9-1.9C206.5,285,207.3,285,207.8,285.1z"/>
			<path class="st4" d="M218.3,321.2c-2.8-1.6-5-3.9-6.5-6.8c-1.6-3-2.3-6.4-2.3-10.3c0-3.8,0.8-7.2,2.3-10.2c1.5-3,3.7-5.2,6.4-6.8
				c2.8-1.6,6-2.4,9.6-2.4c3.7,0,7,0.9,9.8,2.6c2.8,1.7,4.9,4.1,6.4,7.1c1.5,3,2.2,6.5,2.2,10.4v2.2h-27.8c0.3,3.2,1.4,5.6,3.1,7.2
				c1.7,1.6,3.9,2.4,6.6,2.4c2.1,0,3.9-0.5,5.3-1.4c1.4-0.9,2.5-2.2,3.1-3.9h8.8c-0.7,2.5-1.8,4.7-3.4,6.6s-3.6,3.3-5.9,4.3
				c-2.4,1-5,1.5-8,1.5C224.3,323.6,221,322.8,218.3,321.2z M237.1,300.6c-0.4-2.7-1.4-4.8-3-6.4c-1.6-1.6-3.7-2.4-6.4-2.4
				c-2.5,0-4.6,0.7-6.2,2.2c-1.6,1.5-2.7,3.7-3.1,6.6H237.1z"/>
			<path class="st4" d="M281.4,287.1c2.5,1.6,4.5,3.9,5.8,6.8c1.3,3,2,6.4,2,10.3s-0.7,7.3-2,10.3c-1.3,3-3.3,5.2-5.8,6.8
				s-5.5,2.4-8.8,2.4c-2.6,0-5-0.5-6.9-1.6c-2-1.1-3.6-2.6-4.9-4.6v5.3H252v-51.3h9.1v18.9c1.3-1.8,2.9-3.2,4.8-4.2
				c1.9-1,4.2-1.5,6.7-1.5C275.9,284.7,278.8,285.5,281.4,287.1z M277.4,312.9c1.7-2.1,2.6-5.1,2.6-9c0-3.8-0.8-6.7-2.5-8.7
				c-1.7-2-4-3-7.1-3c-3,0-5.3,1-7,3.1c-1.7,2-2.6,5-2.6,8.9s0.9,6.9,2.6,8.9c1.7,2,4,3.1,7,3.1S275.7,315,277.4,312.9z"/>
			<path class="st4" d="M317.3,285.5h9.5l-14.3,40.2c-1,2.8-2.2,5-3.5,6.6c-1.3,1.6-3,2.8-5,3.5c-2,0.7-4.5,1.1-7.5,1.1
				c-1.5,0-2.8-0.1-4-0.2v-7.1h3.5c2.1,0,3.6-0.6,4.6-1.7c1-1.1,1.5-2.6,1.5-4.3c0-1.7-0.6-4.2-1.7-7.5l-10.8-30.5h9.8l3,9.3
				c2.2,7,4.2,13.9,5.9,20.7c1.6-5.9,3.6-12.8,6-20.7L317.3,285.5z"/>
			<path class="st4" d="M375.5,287.1c2.5,1.6,4.5,3.9,5.8,6.8c1.3,3,2,6.4,2,10.3s-0.7,7.3-2,10.3c-1.3,3-3.3,5.2-5.8,6.8
				s-5.5,2.4-8.8,2.4c-2.5,0-4.8-0.5-6.7-1.5c-1.9-1-3.5-2.4-4.8-4.2v18.9h-9.1v-51.3h8.7v5.3c1.3-2,2.9-3.5,4.9-4.6
				c2-1.1,4.3-1.6,6.9-1.6C370.1,284.7,373,285.5,375.5,287.1z M371.6,312.9c1.7-2.1,2.6-5.1,2.6-9c0-3.8-0.8-6.7-2.5-8.7
				c-1.7-2-4-3-7.1-3c-3,0-5.3,1-7,3.1c-1.7,2-2.6,5-2.6,8.9s0.9,6.9,2.6,8.9c1.7,2,4,3.1,7,3.1S369.9,315,371.6,312.9z"/>
			<path class="st4" d="M411.1,285.1v8.4h-2.3c-3.4,0-6,0.9-7.9,2.6c-1.9,1.7-2.8,4.3-2.8,7.8v18.9H389v-37.2h8.8v6.6
				c1-2.2,2.4-4,4.2-5.3c1.8-1.3,4.1-1.9,6.9-1.9C409.9,285,410.6,285,411.1,285.1z"/>
			<path class="st4" d="M421.8,321.1c-2.9-1.6-5.1-3.9-6.7-6.8s-2.4-6.3-2.4-10.2s0.8-7.3,2.4-10.2s3.8-5.2,6.7-6.8
				c2.9-1.6,6.2-2.4,9.9-2.4s7,0.8,9.9,2.4s5.1,3.9,6.6,6.8s2.3,6.3,2.3,10.2s-0.8,7.3-2.3,10.2s-3.8,5.2-6.6,6.8s-6.2,2.4-9.9,2.4
				S424.6,322.8,421.8,321.1z M438.7,313c1.7-2.1,2.6-5,2.6-8.9c0-3.8-0.9-6.8-2.6-8.9c-1.7-2.1-4.1-3.1-7.1-3.1c-3,0-5.4,1-7.1,3.1
				c-1.7,2.1-2.6,5-2.6,8.9c0,3.8,0.9,6.8,2.6,8.9c1.7,2.1,4.1,3.1,7.1,3.1C434.6,316.1,437,315,438.7,313z"/>
			<path class="st4" d="M479.5,285.5h9.4l-13.8,37.2h-10.4l-13.8-37.2h9.7l3.6,10c1.5,4.7,3.4,11,5.8,18.9c1.8-6,3.7-12.3,5.8-19
				L479.5,285.5z"/>
			<path class="st4" d="M501.4,281.2h-9v-8.5h9V281.2z M501.5,322.7h-9.1v-37.2h9.1V322.7z"/>
			<path class="st4" d="M535.3,271.4h9.1v51.3h-8.8v-5.2c-1.3,1.9-2.9,3.4-4.9,4.5c-2,1.1-4.2,1.6-6.8,1.6c-3.4,0-6.4-0.8-8.9-2.4
				c-2.5-1.6-4.5-3.9-5.8-6.8c-1.3-3-2-6.4-2-10.3s0.7-7.3,2-10.3c1.3-3,3.3-5.2,5.8-6.8c2.5-1.6,5.5-2.4,8.9-2.4
				c2.5,0,4.7,0.5,6.6,1.5c1.9,1,3.5,2.4,4.8,4.2V271.4z M533,313c1.7-2,2.6-5,2.6-8.9s-0.9-6.9-2.6-8.9c-1.7-2-4-3.1-7-3.1
				c-2,0-3.7,0.5-5.1,1.4c-1.4,1-2.5,2.4-3.3,4.2c-0.8,1.8-1.2,4-1.2,6.6c0,3.8,0.8,6.7,2.5,8.7c1.7,2,4,3,7,3
				C529,316.1,531.3,315.1,533,313z"/>
			<path class="st4" d="M561.2,281.2h-9v-8.5h9V281.2z M561.3,322.7h-9.1v-37.2h9.1V322.7z"/>
			<path class="st4" d="M595.9,286.2c1.9,1,3.5,2.5,4.5,4.5c1.1,2,1.6,4.5,1.6,7.3v24.6h-9.1v-23.1c0-4.7-2.3-7.1-7-7.1
				c-1.4,0-2.7,0.3-4,1c-1.3,0.7-2.3,1.7-3.1,3.1c-0.8,1.4-1.2,3.1-1.2,5.3v20.8h-9.1v-37.2h8.8v5.3c1.2-1.9,2.9-3.4,4.9-4.5
				c2-1.1,4.2-1.7,6.7-1.7C591.6,284.7,593.9,285.2,595.9,286.2z"/>
			<path class="st4" d="M636.1,285.5h8.8v35.9c0,3.3-0.7,6.2-2.1,8.6c-1.4,2.4-3.5,4.3-6.2,5.6c-2.8,1.3-6.1,2-10,2
				c-3.5,0-6.5-0.5-9-1.6c-2.5-1.1-4.4-2.6-5.8-4.5c-1.3-1.9-2.1-4.2-2.3-6.8h8.9c0.2,2,1,3.5,2.4,4.5c1.4,1,3.4,1.5,5.9,1.5
				c3,0,5.2-0.8,6.8-2.3c1.6-1.5,2.3-3.8,2.3-6.7V317c-1.2,1.8-2.8,3.1-4.7,4.1c-1.9,1-4.1,1.4-6.7,1.4c-3.3,0-6.2-0.8-8.8-2.4
				c-2.5-1.6-4.5-3.8-5.9-6.7c-1.4-2.9-2.1-6.2-2.1-9.9s0.7-7.1,2.1-9.9c1.4-2.9,3.3-5.1,5.8-6.7c2.5-1.6,5.5-2.3,8.8-2.3
				c2.6,0,4.9,0.5,6.9,1.5c2,1,3.6,2.5,4.8,4.4V285.5z M633.5,312.1c1.7-2,2.6-4.8,2.6-8.5c0-3.6-0.9-6.5-2.6-8.5c-1.7-2-4-3-7-3
				c-1.9,0-3.6,0.5-5,1.4c-1.4,0.9-2.5,2.2-3.3,4c-0.8,1.8-1.2,3.8-1.2,6.2c0,2.4,0.4,4.4,1.2,6.1c0.8,1.7,1.9,3,3.3,3.9
				c1.4,0.9,3.1,1.3,5,1.3C629.5,315.1,631.8,314.1,633.5,312.1z"/>
			<path class="st4" d="M88.4,367.6h-9v-8.5h9V367.6z M88.4,409.1h-9.1v-37.2h9.1V409.1z"/>
			<path class="st4" d="M123,372.6c1.9,1,3.5,2.5,4.5,4.5c1.1,2,1.6,4.5,1.6,7.3v24.6h-9.1V386c0-4.7-2.3-7.1-7-7.1
				c-1.4,0-2.7,0.3-4,1c-1.3,0.7-2.3,1.7-3.1,3.1c-0.8,1.4-1.2,3.1-1.2,5.3v20.8h-9.1v-37.2h8.8v5.3c1.2-1.9,2.9-3.4,4.9-4.5
				c2-1.1,4.2-1.7,6.7-1.7C118.8,371.1,121.1,371.6,123,372.6z"/>
			<path class="st4" d="M138.8,407c-2.8-2.1-4.4-5.3-4.7-9.7h8.9c0.2,2.3,1,3.9,2.3,4.9c1.3,1,3.3,1.4,6,1.4c2.5,0,4.4-0.4,5.6-1.2
				c1.2-0.8,1.8-1.9,1.8-3.3c0-0.9-0.2-1.7-0.6-2.3c-0.4-0.6-1.2-1.1-2.2-1.5c-1.1-0.4-2.5-0.8-4.4-1.1l-4.2-0.7
				c-4-0.7-7.1-1.9-9.1-3.8c-2-1.8-3.1-4.3-3.1-7.5c0-2.4,0.6-4.4,1.8-6c1.2-1.7,3-3,5.3-3.9c2.3-0.9,5.1-1.3,8.4-1.3
				c5.5,0,9.6,1.1,12.2,3.3c2.6,2.2,4,5.3,4.2,9.3h-8.6c-0.1-2.3-0.8-3.8-2.1-4.8c-1.3-0.9-3.2-1.4-5.7-1.4c-2.2,0-3.8,0.4-4.9,1.2
				c-1.1,0.8-1.6,1.8-1.6,3.2c0,1.3,0.5,2.3,1.5,3c1,0.7,2.6,1.2,4.7,1.6l4.7,0.7c4.5,0.8,7.8,2.1,9.8,3.9c2,1.8,3.1,4.2,3.1,7.4
				c0,2.5-0.6,4.6-1.9,6.3c-1.3,1.7-3.2,3-5.7,4c-2.5,0.9-5.4,1.4-8.9,1.4C145.8,410.1,141.7,409.1,138.8,407z"/>
			<path class="st4" d="M196.8,371.9h9.1v37.2h-8.8v-5.4c-1.3,1.9-2.9,3.4-4.9,4.6c-2,1.1-4.2,1.7-6.8,1.7c-2.6,0-4.9-0.5-6.8-1.5
				c-1.9-1-3.5-2.5-4.5-4.5c-1.1-2-1.6-4.5-1.6-7.3v-24.6h9.1v23.1c0,2.4,0.6,4.1,1.7,5.3c1.2,1.2,2.9,1.8,5.3,1.8
				c1.4,0,2.7-0.3,4-1c1.3-0.7,2.3-1.7,3.1-3.1c0.8-1.4,1.2-3.1,1.2-5.3V371.9z"/>
			<path class="st4" d="M235.3,371.5v8.4H233c-3.4,0-6,0.9-7.9,2.6c-1.9,1.7-2.8,4.3-2.8,7.8v18.9h-9.1v-37.2h8.8v6.6
				c1-2.2,2.4-4,4.2-5.3c1.8-1.3,4.1-1.9,6.9-1.9C234.1,371.4,234.8,371.4,235.3,371.5z"/>
			<path class="st4" d="M245.8,407.6c-2.8-1.6-5-3.9-6.5-6.8c-1.6-3-2.3-6.4-2.3-10.3c0-3.8,0.8-7.2,2.3-10.2c1.5-3,3.7-5.2,6.4-6.8
				c2.8-1.6,6-2.4,9.6-2.4c3.7,0,7,0.9,9.8,2.6c2.8,1.7,4.9,4.1,6.4,7.1c1.5,3,2.2,6.5,2.2,10.4v2.2h-27.8c0.3,3.2,1.4,5.6,3.1,7.2
				c1.7,1.6,3.9,2.4,6.6,2.4c2.1,0,3.9-0.5,5.3-1.4c1.4-0.9,2.5-2.2,3.1-3.9h8.8c-0.7,2.5-1.8,4.7-3.4,6.6s-3.6,3.3-5.9,4.3
				c-2.4,1-5,1.5-8,1.5C251.8,410,248.5,409.2,245.8,407.6z M264.6,387c-0.4-2.7-1.4-4.8-3-6.4c-1.6-1.6-3.7-2.4-6.4-2.4
				c-2.5,0-4.6,0.7-6.2,2.2c-1.6,1.5-2.7,3.7-3.1,6.6H264.6z"/>
			<path class="st4" d="M306,357.8h9.1v51.3h-8.8v-5.2c-1.3,1.9-2.9,3.4-4.9,4.5c-2,1.1-4.2,1.6-6.8,1.6c-3.4,0-6.4-0.8-8.9-2.4
				c-2.5-1.6-4.5-3.9-5.8-6.8c-1.3-3-2-6.4-2-10.3s0.7-7.3,2-10.3c1.3-3,3.3-5.2,5.8-6.8c2.5-1.6,5.5-2.4,8.9-2.4
				c2.5,0,4.7,0.5,6.6,1.5c1.9,1,3.5,2.4,4.8,4.2V357.8z M303.6,399.4c1.7-2,2.6-5,2.6-8.9s-0.9-6.9-2.6-8.9c-1.7-2-4-3.1-7-3.1
				c-2,0-3.7,0.5-5.1,1.4c-1.4,1-2.5,2.4-3.3,4.2c-0.8,1.8-1.2,4-1.2,6.6c0,3.8,0.8,6.7,2.5,8.7c1.7,2,4,3,7,3
				C299.6,402.5,301.9,401.5,303.6,399.4z"/>
			<path class="st4" d="M324.7,407c-2.8-2.1-4.4-5.3-4.7-9.7h8.9c0.2,2.3,1,3.9,2.3,4.9c1.3,1,3.3,1.4,6,1.4c2.5,0,4.4-0.4,5.6-1.2
				c1.2-0.8,1.8-1.9,1.8-3.3c0-0.9-0.2-1.7-0.6-2.3c-0.4-0.6-1.2-1.1-2.2-1.5c-1.1-0.4-2.5-0.8-4.4-1.1l-4.2-0.7
				c-4-0.7-7.1-1.9-9.1-3.8c-2-1.8-3.1-4.3-3.1-7.5c0-2.4,0.6-4.4,1.8-6c1.2-1.7,3-3,5.3-3.9c2.3-0.9,5.1-1.3,8.4-1.3
				c5.5,0,9.6,1.1,12.2,3.3c2.6,2.2,4,5.3,4.2,9.3H344c-0.1-2.3-0.8-3.8-2.1-4.8c-1.3-0.9-3.2-1.4-5.7-1.4c-2.2,0-3.8,0.4-4.9,1.2
				c-1.1,0.8-1.6,1.8-1.6,3.2c0,1.3,0.5,2.3,1.5,3c1,0.7,2.6,1.2,4.7,1.6l4.7,0.7c4.5,0.8,7.8,2.1,9.8,3.9c2,1.8,3.1,4.2,3.1,7.4
				c0,2.5-0.6,4.6-1.9,6.3c-1.3,1.7-3.2,3-5.7,4c-2.5,0.9-5.4,1.4-8.9,1.4C331.6,410.1,327.5,409.1,324.7,407z"/>
			<path class="st4" d="M419.7,371.9h9.7l-12.2,37.2h-9.5l-4.7-15.3c-1.2-4.2-2.3-7.9-3.2-11.1l-0.5,1.9l-2.6,9.1l-4.6,15.3h-9.5
				l-12.2-37.2h9.7l4.2,13.9c1.1,3.5,2.3,7.8,3.7,12.9c1.2-4.8,2.4-9.1,3.5-13l4.1-13.8h8.6l4.1,13.8c1.2,3.8,2.3,8.2,3.5,13
				c1.4-5.1,2.6-9.4,3.7-12.9L419.7,371.9z"/>
			<path class="st4" d="M442,367.6h-9v-8.5h9V367.6z M442,409.1H433v-37.2h9.1V409.1z"/>
			<path class="st4" d="M468.7,379h-7.3v19.9c0,1.2,0.3,2,1,2.5c0.6,0.5,1.7,0.7,3.3,0.7h3.1v7c-1.6,0.1-3.2,0.2-4.8,0.2
				c-4,0-6.9-0.7-8.8-2.2c-1.9-1.5-2.8-3.9-2.8-7.2V379h-5.8v-7.1h5.8v-10.8h9v10.8h7.3V379z"/>
			<path class="st4" d="M501.3,372.6c1.9,1,3.5,2.5,4.5,4.5c1.1,2,1.6,4.5,1.6,7.3v24.6h-9.1V386c0-4.7-2.3-7.1-7-7.1
				c-1.4,0-2.7,0.3-4,1c-1.3,0.7-2.3,1.7-3.1,3.1c-0.8,1.4-1.2,3.1-1.2,5.3v20.8h-9.1v-51.3h9.1v19.1c1.3-1.8,2.9-3.2,4.8-4.2
				c1.9-1.1,4.1-1.6,6.5-1.6C497.1,371.1,499.4,371.6,501.3,372.6z"/>
			<path class="st4" d="M537.6,407.6c-2.8-1.6-5-3.9-6.5-6.8c-1.6-3-2.3-6.4-2.3-10.3c0-3.8,0.8-7.2,2.3-10.2c1.5-3,3.7-5.2,6.4-6.8
				c2.8-1.6,6-2.4,9.6-2.4c3.7,0,7,0.9,9.8,2.6c2.8,1.7,4.9,4.1,6.4,7.1c1.5,3,2.2,6.5,2.2,10.4v2.2h-27.8c0.3,3.2,1.4,5.6,3.1,7.2
				c1.7,1.6,3.9,2.4,6.6,2.4c2.1,0,3.9-0.5,5.3-1.4c1.4-0.9,2.5-2.2,3.1-3.9h8.8c-0.7,2.5-1.8,4.7-3.4,6.6s-3.6,3.3-5.9,4.3
				c-2.4,1-5,1.5-8,1.5C543.6,410,540.4,409.2,537.6,407.6z M556.4,387c-0.4-2.7-1.4-4.8-3-6.4c-1.6-1.6-3.7-2.4-6.4-2.4
				c-2.5,0-4.6,0.7-6.2,2.2c-1.6,1.5-2.7,3.7-3.1,6.6H556.4z"/>
			<path class="st4" d="M588.6,390l13.8,19.1H592l-1.4-1.9l-7.2-10.5l-1.5,2.2l-5.8,8.3l-1.4,1.9h-10.2l13.9-18.9l-13.2-18.2h10.4
				l1.9,2.7c1.9,2.6,3.9,5.6,6,8.8l4.2-6.3l1.7-2.4l1.9-2.7h10.2L588.6,390z"/>
			<path class="st4" d="M635.1,373.5c2.5,1.6,4.5,3.9,5.8,6.8c1.3,3,2,6.4,2,10.3s-0.7,7.3-2,10.3c-1.3,3-3.3,5.2-5.8,6.8
				s-5.5,2.4-8.8,2.4c-2.5,0-4.8-0.5-6.7-1.5c-1.9-1-3.5-2.4-4.8-4.2v18.9h-9.1v-51.3h8.7v5.3c1.3-2,2.9-3.5,4.9-4.6
				c2-1.1,4.3-1.6,6.9-1.6C629.6,371.1,632.6,371.9,635.1,373.5z M631.1,399.3c1.7-2.1,2.6-5.1,2.6-9c0-3.8-0.8-6.7-2.5-8.7
				c-1.7-2-4-3-7.1-3c-3,0-5.3,1-7,3.1c-1.7,2-2.6,5-2.6,8.9s0.9,6.9,2.6,8.9c1.7,2,4,3.1,7,3.1S629.4,401.4,631.1,399.3z"/>
			<path class="st4" d="M672.5,409.1c-0.5-0.9-0.8-2.4-1-4.5c-1.2,1.7-2.9,3.1-4.9,4c-2,0.9-4.4,1.4-7.1,1.4c-2.6,0-5-0.4-7-1.3
				c-2-0.9-3.6-2.1-4.7-3.8c-1.1-1.7-1.7-3.7-1.7-6c0-3.3,1.1-5.9,3.3-7.9c2.2-2,5.9-3.2,10.9-3.7l5.6-0.5c1.8-0.2,3.2-0.7,4-1.3
				c0.8-0.6,1.3-1.6,1.3-3c0-1.5-0.5-2.7-1.5-3.5c-1-0.8-2.8-1.2-5.3-1.2c-1.8,0-3.2,0.2-4.3,0.5c-1.1,0.4-1.9,1-2.4,1.8
				c-0.5,0.8-0.9,2-1,3.6h-8.9c0.2-4.1,1.7-7.3,4.4-9.4c2.7-2.2,6.8-3.2,12.3-3.2c5.3,0,9.2,1,11.7,3c2.5,2,3.7,4.7,3.7,8.2V402
				c0,1.4,0.1,2.7,0.4,4.1c0.3,1.3,0.6,2.3,1.1,3H672.5z M666.4,402.5c1.5-0.6,2.6-1.6,3.5-3c0.9-1.3,1.3-3,1.3-5.1V391
				c-0.4,0.4-1,0.8-1.7,1c-0.7,0.2-1.5,0.4-2.6,0.5l-4.9,0.6c-2.4,0.3-4.2,0.9-5.2,1.7s-1.5,2.1-1.5,3.6c0,1.6,0.5,2.8,1.6,3.7
				c1.1,0.9,2.6,1.3,4.7,1.3C663.4,403.5,665,403.2,666.4,402.5z"/>
			<path class="st4" d="M714.2,372.6c1.9,1,3.5,2.5,4.5,4.5c1.1,2,1.6,4.5,1.6,7.3v24.6h-9.1V386c0-4.7-2.3-7.1-7-7.1
				c-1.4,0-2.7,0.3-4,1c-1.3,0.7-2.3,1.7-3.1,3.1c-0.8,1.4-1.2,3.1-1.2,5.3v20.8H687v-37.2h8.8v5.3c1.2-1.9,2.9-3.4,4.9-4.5
				c2-1.1,4.2-1.7,6.7-1.7C710,371.1,712.3,371.6,714.2,372.6z"/>
			<path class="st4" d="M754.2,357.8h9.1v51.3h-8.8v-5.2c-1.3,1.9-2.9,3.4-4.9,4.5c-2,1.1-4.2,1.6-6.8,1.6c-3.4,0-6.4-0.8-8.9-2.4
				c-2.5-1.6-4.5-3.9-5.8-6.8c-1.3-3-2-6.4-2-10.3s0.7-7.3,2-10.3c1.3-3,3.3-5.2,5.8-6.8c2.5-1.6,5.5-2.4,8.9-2.4
				c2.5,0,4.7,0.5,6.6,1.5c1.9,1,3.5,2.4,4.8,4.2V357.8z M751.9,399.4c1.7-2,2.6-5,2.6-8.9s-0.9-6.9-2.6-8.9c-1.7-2-4-3.1-7-3.1
				c-2,0-3.7,0.5-5.1,1.4c-1.4,1-2.5,2.4-3.3,4.2c-0.8,1.8-1.2,4-1.2,6.6c0,3.8,0.8,6.7,2.5,8.7c1.7,2,4,3,7,3
				C747.8,402.5,750.2,401.5,751.9,399.4z"/>
			<path class="st4" d="M777.8,407.6c-2.8-1.6-5-3.9-6.5-6.8c-1.6-3-2.3-6.4-2.3-10.3c0-3.8,0.8-7.2,2.3-10.2c1.5-3,3.7-5.2,6.4-6.8
				c2.8-1.6,6-2.4,9.6-2.4c3.7,0,7,0.9,9.8,2.6c2.8,1.7,4.9,4.1,6.4,7.1c1.5,3,2.2,6.5,2.2,10.4v2.2h-27.8c0.3,3.2,1.4,5.6,3.1,7.2
				c1.7,1.6,3.9,2.4,6.6,2.4c2.1,0,3.9-0.5,5.3-1.4c1.4-0.9,2.5-2.2,3.1-3.9h8.8c-0.7,2.5-1.8,4.7-3.4,6.6s-3.6,3.3-5.9,4.3
				c-2.4,1-5,1.5-8,1.5C783.8,410,780.6,409.2,777.8,407.6z M796.6,387c-0.4-2.7-1.4-4.8-3-6.4c-1.6-1.6-3.7-2.4-6.4-2.4
				c-2.5,0-4.6,0.7-6.2,2.2c-1.6,1.5-2.7,3.7-3.1,6.6H796.6z"/>
			<path class="st4" d="M838,357.8h9.1v51.3h-8.8v-5.2c-1.3,1.9-2.9,3.4-4.9,4.5c-2,1.1-4.2,1.6-6.8,1.6c-3.4,0-6.4-0.8-8.9-2.4
				c-2.5-1.6-4.5-3.9-5.8-6.8c-1.3-3-2-6.4-2-10.3s0.7-7.3,2-10.3c1.3-3,3.3-5.2,5.8-6.8c2.5-1.6,5.5-2.4,8.9-2.4
				c2.5,0,4.7,0.5,6.6,1.5c1.9,1,3.5,2.4,4.8,4.2V357.8z M835.7,399.4c1.7-2,2.6-5,2.6-8.9s-0.9-6.9-2.6-8.9c-1.7-2-4-3.1-7-3.1
				c-2,0-3.7,0.5-5.1,1.4c-1.4,1-2.5,2.4-3.3,4.2c-0.8,1.8-1.2,4-1.2,6.6c0,3.8,0.8,6.7,2.5,8.7c1.7,2,4,3,7,3
				C831.6,402.5,834,401.5,835.7,399.4z"/>
			<path class="st4" d="M101.5,457.9v8.4h-2.3c-3.4,0-6,0.9-7.9,2.6c-1.9,1.7-2.8,4.3-2.8,7.8v18.9h-9.1v-37.2h8.8v6.6
				c1-2.2,2.4-4,4.2-5.3c1.8-1.3,4.1-1.9,6.9-1.9C100.2,457.8,100.9,457.8,101.5,457.9z"/>
			<path class="st4" d="M111.9,494c-2.8-1.6-5-3.9-6.5-6.8c-1.6-3-2.3-6.4-2.3-10.3c0-3.8,0.8-7.2,2.3-10.2c1.5-3,3.7-5.2,6.4-6.8
				c2.8-1.6,6-2.4,9.6-2.4c3.7,0,7,0.9,9.8,2.6c2.8,1.7,4.9,4.1,6.4,7.1c1.5,3,2.2,6.5,2.2,10.4v2.2H112c0.3,3.2,1.4,5.6,3.1,7.2
				c1.7,1.6,3.9,2.4,6.6,2.4c2.1,0,3.9-0.5,5.3-1.4c1.4-0.9,2.5-2.2,3.1-3.9h8.8c-0.7,2.5-1.8,4.7-3.4,6.6s-3.6,3.3-5.9,4.3
				c-2.4,1-5,1.5-8,1.5C117.9,496.4,114.7,495.6,111.9,494z M130.7,473.4c-0.4-2.7-1.4-4.8-3-6.4c-1.6-1.6-3.7-2.4-6.4-2.4
				c-2.5,0-4.6,0.7-6.2,2.2c-1.6,1.5-2.7,3.7-3.1,6.6H130.7z"/>
			<path class="st4" d="M175,459.9c2.5,1.6,4.5,3.9,5.8,6.8c1.3,3,2,6.4,2,10.3s-0.7,7.3-2,10.3c-1.3,3-3.3,5.2-5.8,6.8
				s-5.5,2.4-8.8,2.4c-2.5,0-4.8-0.5-6.7-1.5c-1.9-1-3.5-2.4-4.8-4.2v18.9h-9.1v-51.3h8.7v5.3c1.3-2,2.9-3.5,4.9-4.6
				c2-1.1,4.3-1.6,6.9-1.6C169.6,457.5,172.5,458.3,175,459.9z M171.1,485.7c1.7-2.1,2.6-5.1,2.6-9c0-3.8-0.8-6.7-2.5-8.7
				c-1.7-2-4-3-7.1-3c-3,0-5.3,1-7,3.1c-1.7,2-2.6,5-2.6,8.9s0.9,6.9,2.6,8.9c1.7,2,4,3.1,7,3.1S169.4,487.8,171.1,485.7z"/>
			<path class="st4" d="M195.9,493.9c-2.9-1.6-5.1-3.9-6.7-6.8s-2.4-6.3-2.4-10.2s0.8-7.3,2.4-10.2s3.8-5.2,6.7-6.8
				c2.9-1.6,6.2-2.4,9.9-2.4s7,0.8,9.9,2.4s5.1,3.9,6.6,6.8s2.3,6.3,2.3,10.2s-0.8,7.3-2.3,10.2s-3.8,5.2-6.6,6.8s-6.2,2.4-9.9,2.4
				S198.8,495.6,195.9,493.9z M212.9,485.8c1.7-2.1,2.6-5,2.6-8.9c0-3.8-0.9-6.8-2.6-8.9c-1.7-2.1-4.1-3.1-7.1-3.1
				c-3,0-5.4,1-7.1,3.1c-1.7,2.1-2.6,5-2.6,8.9c0,3.8,0.9,6.8,2.6,8.9c1.7,2.1,4.1,3.1,7.1,3.1C208.8,488.9,211.1,487.8,212.9,485.8
				z"/>
			<path class="st4" d="M252.5,457.9v8.4h-2.3c-3.4,0-6,0.9-7.9,2.6c-1.9,1.7-2.8,4.3-2.8,7.8v18.9h-9.1v-37.2h8.8v6.6
				c1-2.2,2.4-4,4.2-5.3c1.8-1.3,4.1-1.9,6.9-1.9C251.2,457.8,251.9,457.8,252.5,457.9z"/>
			<path class="st4" d="M277.1,465.4h-7.3v19.9c0,1.2,0.3,2,1,2.5c0.6,0.5,1.7,0.7,3.3,0.7h3.1v7c-1.6,0.1-3.2,0.2-4.8,0.2
				c-4,0-6.9-0.7-8.8-2.2c-1.9-1.5-2.8-3.9-2.8-7.2v-20.9H255v-7.1h5.8v-10.8h9v10.8h7.3V465.4z"/>
			<path class="st4" d="M291.4,454h-9v-8.5h9V454z M291.5,495.5h-9.1v-37.2h9.1V495.5z"/>
			<path class="st4" d="M326.1,459c1.9,1,3.5,2.5,4.5,4.5c1.1,2,1.6,4.5,1.6,7.3v24.6h-9.1v-23.1c0-4.7-2.3-7.1-7-7.1
				c-1.4,0-2.7,0.3-4,1c-1.3,0.7-2.3,1.7-3.1,3.1c-0.8,1.4-1.2,3.1-1.2,5.3v20.8h-9.1v-37.2h8.8v5.3c1.2-1.9,2.9-3.4,4.9-4.5
				c2-1.1,4.2-1.7,6.7-1.7C321.8,457.5,324.1,458,326.1,459z"/>
			<path class="st4" d="M366.4,458.3h8.8v35.9c0,3.3-0.7,6.2-2.1,8.6c-1.4,2.4-3.5,4.3-6.2,5.6c-2.8,1.3-6.1,2-10,2
				c-3.5,0-6.5-0.5-9-1.6c-2.5-1.1-4.4-2.6-5.8-4.5c-1.3-1.9-2.1-4.2-2.3-6.8h8.9c0.2,2,1,3.5,2.4,4.5c1.4,1,3.4,1.5,5.9,1.5
				c3,0,5.2-0.8,6.8-2.3c1.6-1.5,2.3-3.8,2.3-6.7v-4.7c-1.2,1.8-2.8,3.1-4.7,4.1c-1.9,1-4.1,1.4-6.7,1.4c-3.3,0-6.2-0.8-8.8-2.4
				c-2.5-1.6-4.5-3.8-5.9-6.7c-1.4-2.9-2.1-6.2-2.1-9.9s0.7-7.1,2.1-9.9c1.4-2.9,3.3-5.1,5.8-6.7c2.5-1.6,5.5-2.3,8.8-2.3
				c2.6,0,4.9,0.5,6.9,1.5c2,1,3.6,2.5,4.8,4.4V458.3z M363.7,484.9c1.7-2,2.6-4.8,2.6-8.5c0-3.6-0.9-6.5-2.6-8.5c-1.7-2-4-3-7-3
				c-1.9,0-3.6,0.5-5,1.4c-1.4,0.9-2.5,2.2-3.3,4c-0.8,1.8-1.2,3.8-1.2,6.2c0,2.4,0.4,4.4,1.2,6.1c0.8,1.7,1.9,3,3.3,3.9
				c1.4,0.9,3.1,1.3,5,1.3C359.7,487.9,362,486.9,363.7,484.9z"/>
			<path class="st4" d="M427.5,459.9c2.5,1.6,4.5,3.9,5.8,6.8c1.3,3,2,6.4,2,10.3s-0.7,7.3-2,10.3c-1.3,3-3.3,5.2-5.8,6.8
				s-5.5,2.4-8.8,2.4c-2.6,0-5-0.5-6.9-1.6c-2-1.1-3.6-2.6-4.9-4.6v5.3H398v-51.3h9.1v18.9c1.3-1.8,2.9-3.2,4.8-4.2
				c1.9-1,4.2-1.5,6.7-1.5C422,457.5,424.9,458.3,427.5,459.9z M423.5,485.7c1.7-2.1,2.6-5.1,2.6-9c0-3.8-0.8-6.7-2.5-8.7
				c-1.7-2-4-3-7.1-3c-3,0-5.3,1-7,3.1c-1.7,2-2.6,5-2.6,8.9s0.9,6.9,2.6,8.9c1.7,2,4,3.1,7,3.1S421.8,487.8,423.5,485.7z"/>
			<path class="st4" d="M448.1,494c-2.8-1.6-5-3.9-6.5-6.8c-1.6-3-2.3-6.4-2.3-10.3c0-3.8,0.8-7.2,2.3-10.2c1.5-3,3.7-5.2,6.4-6.8
				c2.8-1.6,6-2.4,9.6-2.4c3.7,0,7,0.9,9.8,2.6c2.8,1.7,4.9,4.1,6.4,7.1c1.5,3,2.2,6.5,2.2,10.4v2.2h-27.8c0.3,3.2,1.4,5.6,3.1,7.2
				c1.7,1.6,3.9,2.4,6.6,2.4c2.1,0,3.9-0.5,5.3-1.4c1.4-0.9,2.5-2.2,3.1-3.9h8.8c-0.7,2.5-1.8,4.7-3.4,6.6s-3.6,3.3-5.9,4.3
				c-2.4,1-5,1.5-8,1.5C454.1,496.4,450.9,495.6,448.1,494z M466.9,473.4c-0.4-2.7-1.4-4.8-3-6.4c-1.6-1.6-3.7-2.4-6.4-2.4
				c-2.5,0-4.6,0.7-6.2,2.2c-1.6,1.5-2.7,3.7-3.1,6.6H466.9z"/>
			<path class="st4" d="M509.1,459c1.9,1,3.5,2.5,4.5,4.5c1.1,2,1.6,4.5,1.6,7.3v24.6h-9.1v-23.1c0-4.7-2.3-7.1-7-7.1
				c-1.4,0-2.7,0.3-4,1c-1.3,0.7-2.3,1.7-3.1,3.1c-0.8,1.4-1.2,3.1-1.2,5.3v20.8h-9.1v-37.2h8.8v5.3c1.2-1.9,2.9-3.4,4.9-4.5
				c2-1.1,4.2-1.7,6.7-1.7C504.9,457.5,507.2,458,509.1,459z"/>
			<path class="st4" d="M529.8,494c-2.8-1.6-5-3.9-6.5-6.8c-1.6-3-2.3-6.4-2.3-10.3c0-3.8,0.8-7.2,2.3-10.2c1.5-3,3.7-5.2,6.4-6.8
				c2.8-1.6,6-2.4,9.6-2.4c3.7,0,7,0.9,9.8,2.6c2.8,1.7,4.9,4.1,6.4,7.1c1.5,3,2.2,6.5,2.2,10.4v2.2h-27.8c0.3,3.2,1.4,5.6,3.1,7.2
				c1.7,1.6,3.9,2.4,6.6,2.4c2.1,0,3.9-0.5,5.3-1.4c1.4-0.9,2.5-2.2,3.1-3.9h8.8c-0.7,2.5-1.8,4.7-3.4,6.6s-3.6,3.3-5.9,4.3
				c-2.4,1-5,1.5-8,1.5C535.8,496.4,532.6,495.6,529.8,494z M548.6,473.4c-0.4-2.7-1.4-4.8-3-6.4c-1.6-1.6-3.7-2.4-6.4-2.4
				c-2.5,0-4.6,0.7-6.2,2.2c-1.6,1.5-2.7,3.7-3.1,6.6H548.6z"/>
			<path class="st4" d="M574.1,455.7v2.7h7.6v7.1h-7.6v30.1h-9v-30.1h-5.8v-7.1h5.8v-2.8c0-3.5,1-6.3,2.9-8.4c1.9-2.1,5-3.1,9.3-3.1
				c1.8,0,3.4,0.1,4.7,0.2v7h-3.2C575.6,451.2,574.1,452.7,574.1,455.7z M595.8,454h-9v-8.5h9V454z M595.9,495.5h-9.1v-37.2h9.1
				V495.5z"/>
			<path class="st4" d="M622.6,465.4h-7.3v19.9c0,1.2,0.3,2,1,2.5c0.6,0.5,1.7,0.7,3.3,0.7h3.1v7c-1.6,0.1-3.2,0.2-4.8,0.2
				c-4,0-6.9-0.7-8.8-2.2c-1.9-1.5-2.8-3.9-2.8-7.2v-20.9h-5.8v-7.1h5.8v-10.8h9v10.8h7.3V465.4z"/>
			<path class="st4" d="M630.2,493.4c-2.8-2.1-4.4-5.3-4.7-9.7h8.9c0.2,2.3,1,3.9,2.3,4.9c1.3,1,3.3,1.4,6,1.4
				c2.5,0,4.4-0.4,5.6-1.2c1.2-0.8,1.8-1.9,1.8-3.3c0-0.9-0.2-1.7-0.6-2.3c-0.4-0.6-1.2-1.1-2.2-1.5c-1.1-0.4-2.5-0.8-4.4-1.1
				l-4.2-0.7c-4-0.7-7.1-1.9-9.1-3.8c-2-1.8-3.1-4.3-3.1-7.5c0-2.4,0.6-4.4,1.8-6c1.2-1.7,3-3,5.3-3.9c2.3-0.9,5.1-1.3,8.4-1.3
				c5.5,0,9.6,1.1,12.2,3.3c2.6,2.2,4,5.3,4.2,9.3h-8.6c-0.1-2.3-0.8-3.8-2.1-4.8c-1.3-0.9-3.2-1.4-5.7-1.4c-2.2,0-3.8,0.4-4.9,1.2
				c-1.1,0.8-1.6,1.8-1.6,3.2c0,1.3,0.5,2.3,1.5,3c1,0.7,2.6,1.2,4.7,1.6l4.7,0.7c4.5,0.8,7.8,2.1,9.8,3.9c2,1.8,3.1,4.2,3.1,7.4
				c0,2.5-0.6,4.6-1.9,6.3c-1.3,1.7-3.2,3-5.7,4c-2.5,0.9-5.4,1.4-8.9,1.4C637.1,496.5,633,495.5,630.2,493.4z"/>
			<path class="st4" d="M703.7,458.3h9.1v37.2H704v-5.4c-1.3,1.9-2.9,3.4-4.9,4.6c-2,1.1-4.2,1.7-6.8,1.7c-2.6,0-4.9-0.5-6.8-1.5
				c-1.9-1-3.5-2.5-4.5-4.5c-1.1-2-1.6-4.5-1.6-7.3v-24.6h9.1v23.1c0,2.4,0.6,4.1,1.7,5.3c1.2,1.2,2.9,1.8,5.3,1.8
				c1.4,0,2.7-0.3,4-1c1.3-0.7,2.3-1.7,3.1-3.1c0.8-1.4,1.2-3.1,1.2-5.3V458.3z"/>
			<path class="st4" d="M747.3,459c1.9,1,3.5,2.5,4.5,4.5c1.1,2,1.6,4.5,1.6,7.3v24.6h-9.1v-23.1c0-4.7-2.3-7.1-7-7.1
				c-1.4,0-2.7,0.3-4,1c-1.3,0.7-2.3,1.7-3.1,3.1c-0.8,1.4-1.2,3.1-1.2,5.3v20.8h-9.1v-37.2h8.8v5.3c1.2-1.9,2.9-3.4,4.9-4.5
				c2-1.1,4.2-1.7,6.7-1.7C743.1,457.5,745.4,458,747.3,459z"/>
			<path class="st4" d="M787.3,444.2h9.1v51.3h-8.8v-5.2c-1.3,1.9-2.9,3.4-4.9,4.5c-2,1.1-4.2,1.6-6.8,1.6c-3.4,0-6.4-0.8-8.9-2.4
				c-2.5-1.6-4.5-3.9-5.8-6.8c-1.3-3-2-6.4-2-10.3s0.7-7.3,2-10.3c1.3-3,3.3-5.2,5.8-6.8c2.5-1.6,5.5-2.4,8.9-2.4
				c2.5,0,4.7,0.5,6.6,1.5c1.9,1,3.5,2.4,4.8,4.2V444.2z M785,485.8c1.7-2,2.6-5,2.6-8.9s-0.9-6.9-2.6-8.9c-1.7-2-4-3.1-7-3.1
				c-2,0-3.7,0.5-5.1,1.4c-1.4,1-2.5,2.4-3.3,4.2c-0.8,1.8-1.2,4-1.2,6.6c0,3.8,0.8,6.7,2.5,8.7c1.7,2,4,3,7,3
				C781,488.9,783.3,487.9,785,485.8z"/>
			<path class="st4" d="M811,494c-2.8-1.6-5-3.9-6.5-6.8c-1.6-3-2.3-6.4-2.3-10.3c0-3.8,0.8-7.2,2.3-10.2c1.5-3,3.7-5.2,6.4-6.8
				c2.8-1.6,6-2.4,9.6-2.4c3.7,0,7,0.9,9.8,2.6c2.8,1.7,4.9,4.1,6.4,7.1c1.5,3,2.2,6.5,2.2,10.4v2.2H811c0.3,3.2,1.4,5.6,3.1,7.2
				c1.7,1.6,3.9,2.4,6.6,2.4c2.1,0,3.9-0.5,5.3-1.4c1.4-0.9,2.5-2.2,3.1-3.9h8.8c-0.7,2.5-1.8,4.7-3.4,6.6s-3.6,3.3-5.9,4.3
				c-2.4,1-5,1.5-8,1.5C817,496.4,813.7,495.6,811,494z M829.7,473.4c-0.4-2.7-1.4-4.8-3-6.4c-1.6-1.6-3.7-2.4-6.4-2.4
				c-2.5,0-4.6,0.7-6.2,2.2c-1.6,1.5-2.7,3.7-3.1,6.6H829.7z"/>
			<path class="st4" d="M866.8,457.9v8.4h-2.3c-3.4,0-6,0.9-7.9,2.6c-1.9,1.7-2.8,4.3-2.8,7.8v18.9h-9.1v-37.2h8.8v6.6
				c1-2.2,2.4-4,4.2-5.3c1.8-1.3,4.1-1.9,6.9-1.9C865.5,457.8,866.2,457.8,866.8,457.9z"/>
			<path class="st4" d="M98.7,551.8h-7.3v19.9c0,1.2,0.3,2,1,2.5c0.6,0.5,1.7,0.7,3.3,0.7h3.1v7c-1.6,0.1-3.2,0.2-4.8,0.2
				c-4,0-6.9-0.7-8.8-2.2c-1.9-1.5-2.8-3.9-2.8-7.2v-20.9h-5.8v-7.1h5.8v-10.8h9v10.8h7.3V551.8z"/>
			<path class="st4" d="M131.3,545.4c1.9,1,3.5,2.5,4.5,4.5c1.1,2,1.6,4.5,1.6,7.3v24.6h-9.1v-23.1c0-4.7-2.3-7.1-7-7.1
				c-1.4,0-2.7,0.3-4,1c-1.3,0.7-2.3,1.7-3.1,3.1c-0.8,1.4-1.2,3.1-1.2,5.3v20.8h-9.1v-51.3h9.1v19.1c1.3-1.8,2.9-3.2,4.8-4.2
				c1.9-1.1,4.1-1.6,6.5-1.6C127.1,543.9,129.4,544.4,131.3,545.4z"/>
			<path class="st4" d="M152,580.4c-2.8-1.6-5-3.9-6.5-6.8c-1.6-3-2.3-6.4-2.3-10.3c0-3.8,0.8-7.2,2.3-10.2c1.5-3,3.7-5.2,6.4-6.8
				c2.8-1.6,6-2.4,9.6-2.4c3.7,0,7,0.9,9.8,2.6c2.8,1.7,4.9,4.1,6.4,7.1c1.5,3,2.2,6.5,2.2,10.4v2.2h-27.8c0.3,3.2,1.4,5.6,3.1,7.2
				c1.7,1.6,3.9,2.4,6.6,2.4c2.1,0,3.9-0.5,5.3-1.4c1.4-0.9,2.5-2.2,3.1-3.9h8.8c-0.7,2.5-1.8,4.7-3.4,6.6s-3.6,3.3-5.9,4.3
				c-2.4,1-5,1.5-8,1.5C158,582.8,154.8,582,152,580.4z M170.8,559.8c-0.4-2.7-1.4-4.8-3-6.4c-1.6-1.6-3.7-2.4-6.4-2.4
				c-2.5,0-4.6,0.7-6.2,2.2c-1.6,1.5-2.7,3.7-3.1,6.6H170.8z"/>
			<path class="st4" d="M235.4,533.8c3.9,2.1,6.8,5.1,8.7,8.9c2,3.8,3,8.4,3,13.6c0,5.2-1,9.8-3,13.6c-2,3.8-4.9,6.8-8.7,8.9
				c-3.9,2.1-8.5,3.1-14,3.1h-19.6v-51.3h19.6C226.8,530.6,231.5,531.7,235.4,533.8z M221.2,573.5c5,0,8.9-1.5,11.7-4.4
				c2.7-3,4.1-7.2,4.1-12.9s-1.4-9.9-4.1-12.9c-2.7-3-6.6-4.4-11.7-4.4h-9.7v34.6H221.2z"/>
			<path class="st4" d="M298.6,581.9h-11.4l-3.7-4.2c-2.1,1.7-4.5,3.1-7,4c-2.6,0.9-5.3,1.4-8.3,1.4c-3.6,0-6.8-0.6-9.4-1.9
				c-2.6-1.3-4.7-3.1-6-5.4c-1.4-2.3-2.1-4.8-2.1-7.7c0-3.4,0.9-6.2,2.8-8.5c1.8-2.3,4.6-4.4,8.4-6.3c-2-2.3-3.4-4.2-4.2-6
				c-0.9-1.7-1.3-3.6-1.3-5.5c0-2.3,0.6-4.4,1.7-6.2c1.2-1.8,2.8-3.3,5-4.4c2.2-1.1,4.7-1.7,7.7-1.7c2.7,0,5.2,0.5,7.4,1.4
				c2.2,1,3.9,2.3,5.1,4.1s1.8,3.9,1.8,6.3c0,2.7-0.9,5.2-2.7,7.5c-1.8,2.3-4.4,4.3-7.9,6.1l8.9,9.9c1.1-2.6,1.6-5.3,1.7-8.2h8.4
				c-0.1,2.6-0.5,5.2-1.3,7.7c-0.7,2.5-1.8,4.8-3.1,6.9L298.6,581.9z M278.4,571.9l-12-13.4c-2.1,1.2-3.6,2.4-4.7,3.8
				c-1.1,1.4-1.6,3.1-1.6,5c0,1.4,0.3,2.7,1,3.9c0.7,1.2,1.7,2.2,3.1,2.9c1.3,0.7,2.9,1.1,4.8,1.1
				C272.5,575.3,275.6,574.1,278.4,571.9z M266.9,538.2c-1.1,0.9-1.6,2.1-1.6,3.6c0,1.1,0.4,2.3,1.1,3.6s1.8,2.8,3.3,4.4l0.1,0.1
				c2.3-1.2,3.9-2.5,5-3.9c1.1-1.3,1.6-2.7,1.6-4.3c0-1-0.2-1.8-0.7-2.6c-0.5-0.8-1.2-1.4-2-1.8c-0.9-0.4-1.8-0.6-2.9-0.6
				C269.3,536.8,268,537.2,266.9,538.2z"/>
			<path class="st4" d="M309.8,579.7c-3.9-2.2-6.9-5.3-9-9.4c-2.1-4.1-3.2-8.7-3.2-14.1s1.1-10,3.2-14.1c2.1-4.1,5.1-7.2,9-9.4
				c3.9-2.2,8.3-3.3,13.4-3.3c5,0,9.5,1.1,13.4,3.3c3.9,2.2,6.9,5.4,9,9.4c2.1,4,3.2,8.7,3.2,14s-1.1,10-3.2,14
				c-2.1,4-5.1,7.2-9,9.4c-3.9,2.2-8.3,3.3-13.4,3.3C318.1,583,313.7,581.9,309.8,579.7z M331.4,572.3c2.3-1.5,4.1-3.6,5.4-6.3
				c1.3-2.7,1.9-6,1.9-9.7s-0.6-7-1.9-9.7c-1.3-2.7-3.1-4.8-5.4-6.3c-2.3-1.5-5.1-2.2-8.2-2.2c-3.1,0-5.8,0.7-8.2,2.2
				c-2.3,1.5-4.1,3.6-5.4,6.3c-1.3,2.7-1.9,6-1.9,9.7s0.6,7,1.9,9.7c1.3,2.7,3.1,4.8,5.4,6.3c2.3,1.5,5.1,2.2,8.2,2.2
				C326.4,574.5,329.1,573.7,331.4,572.3z"/>
			<path class="st4" d="M399.5,546.3c2.5,1.6,4.5,3.9,5.8,6.8c1.3,3,2,6.4,2,10.3s-0.7,7.3-2,10.3c-1.3,3-3.3,5.2-5.8,6.8
				s-5.5,2.4-8.8,2.4c-2.5,0-4.8-0.5-6.7-1.5c-1.9-1-3.5-2.4-4.8-4.2V596h-9.1v-51.3h8.7v5.3c1.3-2,2.9-3.5,4.9-4.6
				c2-1.1,4.3-1.6,6.9-1.6C394.1,543.9,397,544.7,399.5,546.3z M395.6,572.1c1.7-2.1,2.6-5.1,2.6-9c0-3.8-0.8-6.7-2.5-8.7
				c-1.7-2-4-3-7.1-3c-3,0-5.3,1-7,3.1c-1.7,2-2.6,5-2.6,8.9s0.9,6.9,2.6,8.9c1.7,2,4,3.1,7,3.1S393.9,574.2,395.6,572.1z"/>
			<path class="st4" d="M435.1,544.3v8.4h-2.3c-3.4,0-6,0.9-7.9,2.6c-1.9,1.7-2.8,4.3-2.8,7.8v18.9H413v-37.2h8.8v6.6
				c1-2.2,2.4-4,4.2-5.3c1.8-1.3,4.1-1.9,6.9-1.9C433.8,544.2,434.6,544.2,435.1,544.3z"/>
			<path class="st4" d="M445.7,580.3c-2.9-1.6-5.1-3.9-6.7-6.8s-2.4-6.3-2.4-10.2s0.8-7.3,2.4-10.2s3.8-5.2,6.7-6.8
				c2.9-1.6,6.2-2.4,9.9-2.4s7,0.8,9.9,2.4s5.1,3.9,6.6,6.8s2.3,6.3,2.3,10.2s-0.8,7.3-2.3,10.2s-3.8,5.2-6.6,6.8s-6.2,2.4-9.9,2.4
				S448.6,582,445.7,580.3z M462.7,572.2c1.7-2.1,2.6-5,2.6-8.9c0-3.8-0.9-6.8-2.6-8.9c-1.7-2.1-4.1-3.1-7.1-3.1c-3,0-5.4,1-7.1,3.1
				c-1.7,2.1-2.6,5-2.6,8.9c0,3.8,0.9,6.8,2.6,8.9c1.7,2.1,4.1,3.1,7.1,3.1C458.6,575.3,461,574.2,462.7,572.2z"/>
			<path class="st4" d="M507,544.7h8.8v35.9c0,3.3-0.7,6.2-2.1,8.6c-1.4,2.4-3.5,4.3-6.2,5.6c-2.8,1.3-6.1,2-10,2
				c-3.5,0-6.5-0.5-9-1.6c-2.5-1.1-4.4-2.6-5.8-4.5c-1.3-1.9-2.1-4.2-2.3-6.8h8.9c0.2,2,1,3.5,2.4,4.5c1.4,1,3.4,1.5,5.9,1.5
				c3,0,5.2-0.8,6.8-2.3c1.6-1.5,2.3-3.8,2.3-6.7v-4.7c-1.2,1.8-2.8,3.1-4.7,4.1c-1.9,1-4.1,1.4-6.7,1.4c-3.3,0-6.2-0.8-8.8-2.4
				c-2.5-1.6-4.5-3.8-5.9-6.7c-1.4-2.9-2.1-6.2-2.1-9.9s0.7-7.1,2.1-9.9c1.4-2.9,3.3-5.1,5.8-6.7c2.5-1.6,5.5-2.3,8.8-2.3
				c2.6,0,4.9,0.5,6.9,1.5c2,1,3.6,2.5,4.8,4.4V544.7z M504.3,571.3c1.7-2,2.6-4.8,2.6-8.5c0-3.6-0.9-6.5-2.6-8.5c-1.7-2-4-3-7-3
				c-1.9,0-3.6,0.5-5,1.4c-1.4,0.9-2.5,2.2-3.3,4c-0.8,1.8-1.2,3.8-1.2,6.2c0,2.4,0.4,4.4,1.2,6.1c0.8,1.7,1.9,3,3.3,3.9
				c1.4,0.9,3.1,1.3,5,1.3C500.3,574.3,502.6,573.3,504.3,571.3z"/>
			<path class="st4" d="M545.2,544.3v8.4h-2.3c-3.4,0-6,0.9-7.9,2.6c-1.9,1.7-2.8,4.3-2.8,7.8v18.9h-9.1v-37.2h8.8v6.6
				c1-2.2,2.4-4,4.2-5.3c1.8-1.3,4.1-1.9,6.9-1.9C543.9,544.2,544.7,544.2,545.2,544.3z"/>
			<path class="st4" d="M572.3,581.9c-0.5-0.9-0.8-2.4-1-4.5c-1.2,1.7-2.9,3.1-4.9,4c-2,0.9-4.4,1.4-7.1,1.4c-2.6,0-5-0.4-7-1.3
				c-2-0.9-3.6-2.1-4.7-3.8c-1.1-1.7-1.7-3.7-1.7-6c0-3.3,1.1-5.9,3.3-7.9c2.2-2,5.9-3.2,10.9-3.7l5.6-0.5c1.8-0.2,3.2-0.7,4-1.3
				c0.8-0.6,1.3-1.6,1.3-3c0-1.5-0.5-2.7-1.5-3.5c-1-0.8-2.8-1.2-5.3-1.2c-1.8,0-3.2,0.2-4.3,0.5c-1.1,0.4-1.9,1-2.4,1.8
				c-0.5,0.8-0.9,2-1,3.6h-8.9c0.2-4.1,1.7-7.3,4.4-9.4c2.7-2.2,6.8-3.2,12.3-3.2c5.3,0,9.2,1,11.7,3c2.5,2,3.7,4.7,3.7,8.2v19.8
				c0,1.4,0.1,2.7,0.4,4.1c0.3,1.3,0.6,2.3,1.1,3H572.3z M566.2,575.3c1.5-0.6,2.6-1.6,3.5-3c0.9-1.3,1.3-3,1.3-5.1v-3.4
				c-0.4,0.4-1,0.8-1.7,1c-0.7,0.2-1.5,0.4-2.6,0.5l-4.9,0.6c-2.4,0.3-4.2,0.9-5.2,1.7s-1.5,2.1-1.5,3.6c0,1.6,0.5,2.8,1.6,3.7
				c1.1,0.9,2.6,1.3,4.7,1.3C563.2,576.3,564.7,576,566.2,575.3z"/>
			<path class="st4" d="M636.2,545.5c1.9,1.1,3.4,2.7,4.4,4.7c1,2,1.5,4.4,1.5,7.1v24.6H633v-23.1c0-2.4-0.5-4.2-1.6-5.3
				c-1.1-1.2-2.7-1.7-4.8-1.7c-1.4,0-2.7,0.3-3.8,1c-1.2,0.7-2.1,1.7-2.8,3.2c-0.7,1.5-1.1,3.3-1.1,5.5v20.4h-9v-23.1
				c0-4.7-2.2-7.1-6.5-7.1c-1.3,0-2.6,0.3-3.7,1c-1.2,0.7-2.1,1.7-2.8,3.2c-0.7,1.5-1.1,3.3-1.1,5.5v20.4h-9.1v-37.2h8.8v5.3
				c1.2-1.9,2.7-3.4,4.4-4.5c1.8-1.1,3.8-1.7,6.2-1.7c2.8,0,5.2,0.6,7.1,1.8c2,1.2,3.4,2.9,4.4,5.1c1.3-2.1,2.9-3.8,4.9-5
				c2-1.2,4.2-1.9,6.6-1.9C631.9,543.9,634.2,544.4,636.2,545.5z"/>
			<path class="st4" d="M659.1,581.9h-10.6v-10.3h10.6V581.9z"/>
		</g>
	</g>
</g>
</svg>
