<?xml version="1.0" encoding="utf-8"?>
<!-- Generator: Adobe Illustrator 26.0.1, SVG Export Plug-In . SVG Version: 6.00 Build 0)  -->
<svg version="1.1" id="Layer_1" xmlns="http://www.w3.org/2000/svg" xmlns:xlink="http://www.w3.org/1999/xlink" x="0px" y="0px"
	 viewBox="0 0 1200 179" style="enable-background:new 0 0 1200 179;" xml:space="preserve">
<style type="text/css">
	.Drop_x0020_Shadow{fill:none;}
	.Round_x0020_Corners_x0020_2_x0020_pt{fill:#FFFFFF;stroke:#000000;stroke-miterlimit:10;}
	.Live_x0020_Reflect_x0020_X{fill:none;}
	.Bevel_x0020_Soft{fill:url(#SVGID_1_);}
	.Dusk{fill:#FFFFFF;}
	.Foliage_GS{fill:#FFDD00;}
	.Pompadour_GS{fill-rule:evenodd;clip-rule:evenodd;fill:#44ADE2;}
	.st0{fill:#E11B22;}
	.st1{fill:#010101;}
</style>
<linearGradient id="SVGID_1_" gradientUnits="userSpaceOnUse" x1="-3969.2788" y1="-714.4431" x2="-3968.5718" y2="-713.736">
	<stop  offset="0" style="stop-color:#DEDFE3"/>
	<stop  offset="0.1738" style="stop-color:#D8D9DD"/>
	<stop  offset="0.352" style="stop-color:#C9CACD"/>
	<stop  offset="0.5323" style="stop-color:#B4B5B8"/>
	<stop  offset="0.7139" style="stop-color:#989A9C"/>
	<stop  offset="0.8949" style="stop-color:#797C7E"/>
	<stop  offset="1" style="stop-color:#656B6C"/>
</linearGradient>
<g>
	<g>
		<g>
			<path class="st0" d="M248.6,64.7l4.1-15.3h3.4L248.9,75h-3.2l-4.5-16.6l-1.5-5.8l-1.5,5.8L233.9,75h-3.2l-6.8-25.6h3.4l3.8,15.3
				l1.3,5.8l1.4-5.8l4.2-15.3h3.8l4.1,15.3l1.4,5.8L248.6,64.7z"/>
			<path class="st0" d="M272.7,56.7c0.9,0.5,1.7,1.2,2.2,2.1s0.8,2,0.8,3.3V75h-3.3V62.8c0-2.6-1.2-3.9-3.7-3.9
				c-0.9,0-1.8,0.2-2.6,0.6c-0.8,0.4-1.4,1-1.9,1.9c-0.5,0.9-0.8,2-0.8,3.4V75H260V49.4h3.3v9.4c0.6-0.9,1.5-1.6,2.5-2.1
				c1-0.5,2.2-0.7,3.5-0.7S271.8,56.2,272.7,56.7z"/>
			<path class="st0" d="M297.6,66.5h-13.9c0,2,0.6,3.6,1.6,4.6c1,1.1,2.3,1.6,4,1.6c1.3,0,2.3-0.3,3.2-0.9s1.5-1.4,1.9-2.5l3,0.4
				c-0.6,1.8-1.6,3.2-3,4.2s-3.1,1.5-5.1,1.5c-1.8,0-3.4-0.4-4.7-1.2c-1.3-0.8-2.3-2-3-3.5c-0.7-1.5-1.1-3.2-1.1-5.1
				c0-1.9,0.3-3.6,1-5s1.7-2.6,3-3.4c1.3-0.8,2.9-1.2,4.7-1.2c1.7,0,3.2,0.4,4.5,1.1c1.3,0.7,2.3,1.8,3,3.2c0.7,1.4,1,3,1,5V66.5z
				 M285.4,60.1c-1,0.9-1.5,2.3-1.7,4h10.8c-0.2-1.8-0.8-3.1-1.7-4c-0.9-0.9-2.1-1.4-3.7-1.4S286.3,59.2,285.4,60.1z"/>
			<path class="st0" d="M314.9,56.7c0.9,0.5,1.7,1.2,2.2,2.1s0.8,2,0.8,3.3V75h-3.3V62.8c0-2.6-1.2-3.9-3.7-3.9
				c-0.9,0-1.8,0.2-2.6,0.6c-0.8,0.4-1.4,1-1.9,1.9c-0.5,0.9-0.8,2-0.8,3.4V75h-3.3V56.4h3.1v2.6c0.6-1,1.5-1.7,2.6-2.3
				s2.3-0.8,3.7-0.8C312.9,56,314,56.2,314.9,56.7z"/>
			<path class="st0" d="M346,56.7c0.9,0.5,1.7,1.2,2.2,2.1s0.8,2,0.8,3.3V75h-3.3V62.8c0-2.6-1.2-3.9-3.7-3.9
				c-0.9,0-1.8,0.2-2.6,0.6c-0.8,0.4-1.4,1-1.9,1.9c-0.5,0.9-0.8,2-0.8,3.4V75h-3.3V56.4h3.1v2.6c0.6-1,1.5-1.7,2.6-2.3
				s2.3-0.8,3.7-0.8C344,56,345.1,56.2,346,56.7z"/>
			<path class="st0" d="M357.9,74.2c-1.4-0.8-2.4-2-3.2-3.4c-0.7-1.5-1.1-3.2-1.1-5.1c0-2,0.4-3.7,1.1-5.2c0.8-1.5,1.8-2.6,3.2-3.4
				s2.9-1.2,4.7-1.2c1.7,0,3.3,0.4,4.6,1.2c1.3,0.8,2.4,1.9,3.1,3.3c0.8,1.5,1.1,3.2,1.1,5.1c0,1.9-0.4,3.6-1.2,5.1
				c-0.8,1.5-1.8,2.7-3.2,3.5c-1.4,0.8-2.9,1.3-4.6,1.3C360.8,75.5,359.3,75.1,357.9,74.2z M365.6,71.8c0.9-0.6,1.5-1.4,1.9-2.5
				c0.4-1.1,0.7-2.3,0.7-3.7c0-1.4-0.2-2.6-0.7-3.6c-0.4-1-1.1-1.8-1.9-2.4c-0.9-0.6-1.9-0.8-3-0.8c-1.2,0-2.2,0.3-3,0.9
				s-1.5,1.4-1.9,2.4c-0.4,1.1-0.7,2.3-0.7,3.7c0,1.4,0.2,2.6,0.7,3.7c0.5,1.1,1.1,1.9,1.9,2.4c0.8,0.6,1.8,0.9,3,0.9
				C363.7,72.7,364.8,72.4,365.6,71.8z"/>
			<path class="st0" d="M380.1,58.8v11.6c0,0.7,0.1,1.1,0.4,1.4c0.3,0.3,0.7,0.4,1.4,0.4h2.4V75H381c-1.4,0-2.5-0.3-3.1-1
				c-0.7-0.7-1-1.7-1-3.1v-12l-2.8,0.1v-2.6l2.8,0.1v-5.8h3.3v5.8l4.2-0.1V59L380.1,58.8z"/>
			<path class="st0" d="M391.7,52.9h-3.3v-3.6h3.3V52.9z M391.7,75h-3.3V56.4h3.3V75z"/>
			<path class="st0" d="M400.4,74.4c-1.3-0.7-2.3-1.8-3-3.3c-0.7-1.5-1.1-3.2-1.1-5.2c0-2.1,0.4-3.8,1.1-5.3s1.7-2.6,3.1-3.4
				c1.3-0.8,2.9-1.2,4.6-1.2c2.2,0,3.9,0.6,5.3,1.7s2.2,2.7,2.5,4.9h-3.1c-0.5-2.5-2.1-3.8-4.7-3.8c-1.8,0-3.2,0.6-4.1,1.8
				c-0.9,1.2-1.4,2.9-1.4,5.2c0,2.2,0.5,3.9,1.4,5.1c0.9,1.2,2.3,1.8,4,1.8c1.3,0,2.4-0.4,3.2-1.1c0.8-0.7,1.3-1.8,1.6-3.1h3.1
				c-0.3,2.2-1.2,3.9-2.5,5.1c-1.4,1.2-3.2,1.8-5.5,1.8C403.2,75.5,401.7,75.1,400.4,74.4z"/>
			<path class="st0" d="M420.8,52.9h-3.3v-3.6h3.3V52.9z M420.8,75h-3.3V56.4h3.3V75z"/>
			<path class="st0" d="M439.2,56.7c0.9,0.5,1.7,1.2,2.2,2.1s0.8,2,0.8,3.3V75h-3.3V62.8c0-2.6-1.2-3.9-3.7-3.9
				c-0.9,0-1.8,0.2-2.6,0.6c-0.8,0.4-1.4,1-1.9,1.9c-0.5,0.9-0.8,2-0.8,3.4V75h-3.3V56.4h3.1v2.6c0.6-1,1.5-1.7,2.6-2.3
				s2.3-0.8,3.7-0.8C437.2,56,438.3,56.2,439.2,56.7z"/>
			<path class="st0" d="M460.9,56.4h3.1v18c0,2.9-0.8,5-2.3,6.4c-1.5,1.4-3.7,2-6.4,2c-2.2,0-4-0.5-5.4-1.4
				c-1.4-0.9-2.2-2.3-2.4-4.1h3.2c0.2,1,0.7,1.7,1.5,2.2c0.8,0.4,1.8,0.6,3.2,0.6c1.3,0,2.3-0.2,3.1-0.6c0.8-0.4,1.4-1,1.7-1.7
				s0.6-1.8,0.6-3.1v-2.4c-0.6,0.9-1.4,1.7-2.4,2.2s-2.2,0.8-3.4,0.8c-1.7,0-3.1-0.4-4.3-1.3s-2.2-2-2.8-3.5c-0.6-1.5-1-3.2-1-5.1
				c0-1.8,0.3-3.5,1-4.9c0.7-1.4,1.6-2.5,2.8-3.3s2.6-1.2,4.2-1.2c1.3,0,2.5,0.3,3.6,0.9s1.9,1.4,2.4,2.4V56.4z M458,71.7
				c0.8-0.6,1.5-1.4,1.9-2.4c0.5-1.1,0.7-2.3,0.7-3.8c0-1.4-0.2-2.6-0.7-3.6c-0.5-1-1.1-1.7-1.9-2.2s-1.7-0.8-2.8-0.8
				c-1.6,0-2.9,0.6-3.8,1.7c-0.9,1.1-1.4,2.7-1.4,4.9c0,1.4,0.2,2.7,0.6,3.8c0.4,1.1,1,1.9,1.8,2.5c0.8,0.6,1.7,0.9,2.7,0.9
				C456.3,72.6,457.2,72.3,458,71.7z"/>
			<path class="st0" d="M496.4,72.6V75h-1.8c-2,0-3.1-0.9-3.2-2.7c-0.6,1-1.5,1.7-2.7,2.3s-2.5,0.9-4,0.9c-1.2,0-2.3-0.2-3.3-0.6
				c-0.9-0.4-1.7-1-2.2-1.9c-0.5-0.8-0.8-1.8-0.8-2.9c0-1.6,0.5-2.9,1.5-3.9c1-1,2.6-1.6,4.8-1.9l4.8-0.6c0.5,0,0.8-0.2,1-0.4
				c0.2-0.2,0.3-0.6,0.3-1v-0.7c0-1-0.3-1.7-1-2.2c-0.7-0.5-1.7-0.7-3.2-0.7c-1.4,0-2.4,0.2-3.1,0.7c-0.7,0.5-1.1,1.4-1.2,2.6h-3.3
				c0.2-2,0.9-3.6,2.2-4.6s3.1-1.5,5.5-1.5c2.4,0,4.2,0.5,5.4,1.5s1.9,2.5,1.9,4.5v9.1c0,0.6,0.1,1,0.4,1.3c0.2,0.2,0.7,0.4,1.3,0.4
				H496.4z M488,72.3c0.9-0.4,1.5-1,2.1-1.6c0.5-0.7,0.8-1.4,0.8-2.2v-2.6l-5.5,0.8c-1.2,0.2-2.2,0.6-2.7,1.1s-0.9,1.2-0.9,2.1
				c0,0.9,0.3,1.7,1,2.2c0.6,0.5,1.5,0.8,2.6,0.8C486.3,72.9,487.2,72.7,488,72.3z"/>
			<path class="st0" d="M512.7,74.4c-1.3-0.7-2.3-1.8-3-3.3c-0.7-1.5-1.1-3.2-1.1-5.2c0-2.1,0.4-3.8,1.1-5.3s1.7-2.6,3.1-3.4
				c1.3-0.8,2.9-1.2,4.6-1.2c2.2,0,3.9,0.6,5.3,1.7s2.2,2.7,2.5,4.9h-3.1c-0.5-2.5-2.1-3.8-4.7-3.8c-1.8,0-3.2,0.6-4.1,1.8
				c-0.9,1.2-1.4,2.9-1.4,5.2c0,2.2,0.5,3.9,1.4,5.1c0.9,1.2,2.3,1.8,4,1.8c1.3,0,2.4-0.4,3.2-1.1c0.8-0.7,1.3-1.8,1.6-3.1h3.1
				c-0.3,2.2-1.2,3.9-2.5,5.1c-1.4,1.2-3.2,1.8-5.5,1.8C515.5,75.5,514,75.1,512.7,74.4z"/>
			<path class="st0" d="M533.1,52.9h-3.3v-3.6h3.3V52.9z M533.1,75h-3.3V56.4h3.3V75z"/>
			<path class="st0" d="M548.7,56v3.2c-0.3,0-0.7,0-1.2,0c-0.8,0-1.7,0.2-2.5,0.6c-0.8,0.4-1.5,1.1-2,1.9s-0.8,1.9-0.9,3.1V75h-3.3
				V56.4h3.1V60c1.2-2.7,3.1-4.1,5.7-4.1C547.9,55.9,548.2,55.9,548.7,56z"/>
			<path class="st0" d="M555.1,74.4c-1.3-0.7-2.3-1.8-3-3.3c-0.7-1.5-1.1-3.2-1.1-5.2c0-2.1,0.4-3.8,1.1-5.3s1.7-2.6,3.1-3.4
				c1.3-0.8,2.9-1.2,4.6-1.2c2.2,0,3.9,0.6,5.3,1.7s2.2,2.7,2.5,4.9h-3.1c-0.5-2.5-2.1-3.8-4.7-3.8c-1.8,0-3.2,0.6-4.1,1.8
				c-0.9,1.2-1.4,2.9-1.4,5.2c0,2.2,0.5,3.9,1.4,5.1c0.9,1.2,2.3,1.8,4,1.8c1.3,0,2.4-0.4,3.2-1.1c0.8-0.7,1.3-1.8,1.6-3.1h3.1
				c-0.3,2.2-1.2,3.9-2.5,5.1c-1.4,1.2-3.2,1.8-5.5,1.8C557.9,75.5,556.4,75.1,555.1,74.4z"/>
			<path class="st0" d="M584.4,56.4h3.3V75h-3.1v-2.6c-0.6,1-1.5,1.7-2.6,2.3c-1.1,0.5-2.3,0.8-3.7,0.8c-1.3,0-2.4-0.2-3.4-0.7
				c-0.9-0.5-1.7-1.2-2.2-2.1c-0.5-0.9-0.8-2-0.8-3.3V56.4h3.3v12.2c0,2.6,1.2,3.9,3.7,3.9c0.9,0,1.8-0.2,2.6-0.6s1.4-1,1.9-1.9
				c0.5-0.9,0.8-2,0.8-3.4V56.4z"/>
			<path class="st0" d="M617.5,57.5c1,1,1.5,2.6,1.5,4.8V75h-3.3V62.3c0-1.1-0.3-1.9-0.8-2.5c-0.6-0.6-1.3-0.9-2.4-0.9
				c-1.3,0-2.3,0.5-3.2,1.4c-0.9,0.9-1.3,2.5-1.3,4.7V75h-3.3V62.3c0-1.1-0.3-1.9-0.8-2.5c-0.6-0.6-1.3-0.9-2.4-0.9
				c-0.8,0-1.5,0.2-2.2,0.6c-0.7,0.4-1.2,1.1-1.7,2c-0.4,0.9-0.6,2.2-0.6,3.7V75h-3.3V56.4h3.1v2.6c1.3-2.1,3.1-3.1,5.6-3.1
				c1.3,0,2.3,0.3,3.2,0.8c0.9,0.6,1.5,1.4,1.9,2.4c1.2-2.2,3.2-3.2,5.9-3.2C615.1,56,616.5,56.5,617.5,57.5z"/>
			<path class="st0" d="M625.5,73.9c-1.3-1-2.1-2.6-2.3-4.6l3.1-0.1c0.2,1.3,0.6,2.2,1.4,2.8c0.8,0.6,1.9,0.9,3.3,0.9
				c1.5,0,2.6-0.3,3.3-0.8s1.1-1.2,1.1-2.1c0-0.7-0.2-1.3-0.7-1.7c-0.5-0.4-1.2-0.8-2.2-1l-3.7-0.8c-1.8-0.4-3.1-1-3.9-1.8
				c-0.8-0.8-1.2-1.9-1.2-3.2c0-1.1,0.3-2,0.8-2.8c0.5-0.8,1.3-1.4,2.3-1.9c1-0.4,2.3-0.7,3.8-0.7c2.1,0,3.9,0.5,5.2,1.4
				c1.3,0.9,2.1,2.4,2.4,4.3l-3.3,0.1c-0.2-1.1-0.6-1.9-1.4-2.4c-0.7-0.5-1.7-0.8-3-0.8c-1.2,0-2.1,0.2-2.8,0.6c-0.6,0.4-1,1-1,1.8
				c0,0.6,0.2,1.1,0.6,1.5c0.4,0.4,1.2,0.7,2.2,0.9l3.6,0.8c1.9,0.4,3.3,1.1,4.2,1.9c0.9,0.9,1.3,2,1.3,3.3c0,1.2-0.3,2.2-0.9,3.1
				s-1.5,1.6-2.7,2c-1.2,0.5-2.6,0.7-4.2,0.7C628.6,75.5,626.8,75,625.5,73.9z"/>
			<path class="st0" d="M647.5,58.8v11.6c0,0.7,0.1,1.1,0.4,1.4c0.3,0.3,0.7,0.4,1.4,0.4h2.4V75h-3.4c-1.4,0-2.5-0.3-3.1-1
				c-0.7-0.7-1-1.7-1-3.1v-12l-2.8,0.1v-2.6l2.8,0.1v-5.8h3.3v5.8l4.2-0.1V59L647.5,58.8z"/>
			<path class="st0" d="M672.6,72.6V75h-1.8c-2,0-3.1-0.9-3.2-2.7c-0.6,1-1.5,1.7-2.7,2.3s-2.5,0.9-4,0.9c-1.2,0-2.3-0.2-3.3-0.6
				c-0.9-0.4-1.7-1-2.2-1.9c-0.5-0.8-0.8-1.8-0.8-2.9c0-1.6,0.5-2.9,1.5-3.9c1-1,2.6-1.6,4.8-1.9l4.8-0.6c0.5,0,0.8-0.2,1-0.4
				c0.2-0.2,0.3-0.6,0.3-1v-0.7c0-1-0.3-1.7-1-2.2c-0.7-0.5-1.7-0.7-3.2-0.7c-1.4,0-2.4,0.2-3.1,0.7c-0.7,0.5-1.1,1.4-1.2,2.6h-3.3
				c0.2-2,0.9-3.6,2.2-4.6s3.1-1.5,5.5-1.5c2.4,0,4.2,0.5,5.4,1.5s1.9,2.5,1.9,4.5v9.1c0,0.6,0.1,1,0.4,1.3c0.2,0.2,0.7,0.4,1.3,0.4
				H672.6z M664.3,72.3c0.9-0.4,1.5-1,2.1-1.6c0.5-0.7,0.8-1.4,0.8-2.2v-2.6l-5.5,0.8c-1.2,0.2-2.2,0.6-2.7,1.1s-0.9,1.2-0.9,2.1
				c0,0.9,0.3,1.7,1,2.2c0.6,0.5,1.5,0.8,2.6,0.8C662.5,72.9,663.4,72.7,664.3,72.3z"/>
			<path class="st0" d="M688.9,56.7c0.9,0.5,1.7,1.2,2.2,2.1s0.8,2,0.8,3.3V75h-3.3V62.8c0-2.6-1.2-3.9-3.7-3.9
				c-0.9,0-1.8,0.2-2.6,0.6c-0.8,0.4-1.4,1-1.9,1.9c-0.5,0.9-0.8,2-0.8,3.4V75h-3.3V56.4h3.1v2.6c0.6-1,1.5-1.7,2.6-2.3
				s2.3-0.8,3.7-0.8C686.9,56,688,56.2,688.9,56.7z"/>
			<path class="st0" d="M700.6,74.4c-1.3-0.7-2.3-1.8-3-3.3c-0.7-1.5-1.1-3.2-1.1-5.2c0-2.1,0.4-3.8,1.1-5.3s1.7-2.6,3.1-3.4
				c1.3-0.8,2.9-1.2,4.6-1.2c2.2,0,3.9,0.6,5.3,1.7s2.2,2.7,2.5,4.9H710c-0.5-2.5-2.1-3.8-4.7-3.8c-1.8,0-3.2,0.6-4.1,1.8
				c-0.9,1.2-1.4,2.9-1.4,5.2c0,2.2,0.5,3.9,1.4,5.1c0.9,1.2,2.3,1.8,4,1.8c1.3,0,2.4-0.4,3.2-1.1c0.8-0.7,1.3-1.8,1.6-3.1h3.1
				c-0.3,2.2-1.2,3.9-2.5,5.1c-1.4,1.2-3.2,1.8-5.5,1.8C703.4,75.5,701.9,75.1,700.6,74.4z"/>
			<path class="st0" d="M733.8,66.5h-13.9c0,2,0.6,3.6,1.6,4.6c1,1.1,2.3,1.6,4,1.6c1.3,0,2.3-0.3,3.2-0.9s1.5-1.4,1.9-2.5l3,0.4
				c-0.6,1.8-1.6,3.2-3,4.2s-3.1,1.5-5.1,1.5c-1.8,0-3.4-0.4-4.7-1.2c-1.3-0.8-2.3-2-3-3.5c-0.7-1.5-1.1-3.2-1.1-5.1
				c0-1.9,0.3-3.6,1-5s1.7-2.6,3-3.4c1.3-0.8,2.9-1.2,4.7-1.2c1.7,0,3.2,0.4,4.5,1.1c1.3,0.7,2.3,1.8,3,3.2c0.7,1.4,1,3,1,5V66.5z
				 M721.6,60.1c-1,0.9-1.5,2.3-1.7,4h10.8c-0.2-1.8-0.8-3.1-1.7-4c-0.9-0.9-2.1-1.4-3.7-1.4S722.6,59.2,721.6,60.1z"/>
			<path class="st0" d="M738,71.4h4v5.7c0,2.6-1.2,3.9-3.6,3.9H738v-1.8h0.4c1.1,0,1.7-0.6,1.7-1.7V75H738V71.4z"/>
			<path class="st0" d="M762.6,58.8v11.6c0,0.7,0.1,1.1,0.4,1.4c0.3,0.3,0.7,0.4,1.4,0.4h2.4V75h-3.4c-1.4,0-2.5-0.3-3.1-1
				c-0.7-0.7-1-1.7-1-3.1v-12l-2.8,0.1v-2.6l2.8,0.1v-5.8h3.3v5.8l4.2-0.1V59L762.6,58.8z"/>
			<path class="st0" d="M783.5,56.7c0.9,0.5,1.7,1.2,2.2,2.1s0.8,2,0.8,3.3V75h-3.3V62.8c0-2.6-1.2-3.9-3.7-3.9
				c-0.9,0-1.8,0.2-2.6,0.6c-0.8,0.4-1.4,1-1.9,1.9c-0.5,0.9-0.8,2-0.8,3.4V75h-3.3V49.4h3.3v9.4c0.6-0.9,1.5-1.6,2.5-2.1
				c1-0.5,2.2-0.7,3.5-0.7S782.5,56.2,783.5,56.7z"/>
			<path class="st0" d="M808.4,66.5h-13.9c0,2,0.6,3.6,1.6,4.6c1,1.1,2.3,1.6,4,1.6c1.3,0,2.3-0.3,3.2-0.9s1.5-1.4,1.9-2.5l3,0.4
				c-0.6,1.8-1.6,3.2-3,4.2s-3.1,1.5-5.1,1.5c-1.8,0-3.4-0.4-4.7-1.2c-1.3-0.8-2.3-2-3-3.5c-0.7-1.5-1.1-3.2-1.1-5.1
				c0-1.9,0.3-3.6,1-5s1.7-2.6,3-3.4c1.3-0.8,2.9-1.2,4.7-1.2c1.7,0,3.2,0.4,4.5,1.1c1.3,0.7,2.3,1.8,3,3.2c0.7,1.4,1,3,1,5V66.5z
				 M796.2,60.1c-1,0.9-1.5,2.3-1.7,4h10.8c-0.2-1.8-0.8-3.1-1.7-4c-0.9-0.9-2.1-1.4-3.7-1.4S797.1,59.2,796.2,60.1z"/>
			<path class="st0" d="M826.1,52.9h-3.3v-3.6h3.3V52.9z M826.1,75h-3.3V56.4h3.3V75z"/>
			<path class="st0" d="M844.5,56.7c0.9,0.5,1.7,1.2,2.2,2.1s0.8,2,0.8,3.3V75h-3.3V62.8c0-2.6-1.2-3.9-3.7-3.9
				c-0.9,0-1.8,0.2-2.6,0.6c-0.8,0.4-1.4,1-1.9,1.9c-0.5,0.9-0.8,2-0.8,3.4V75h-3.3V56.4h3.1v2.6c0.6-1,1.5-1.7,2.6-2.3
				s2.3-0.8,3.7-0.8C842.4,56,843.6,56.2,844.5,56.7z"/>
			<path class="st0" d="M854,73.9c-1.3-1-2.1-2.6-2.3-4.6l3.1-0.1c0.2,1.3,0.6,2.2,1.4,2.8c0.8,0.6,1.9,0.9,3.3,0.9
				c1.5,0,2.6-0.3,3.3-0.8s1.1-1.2,1.1-2.1c0-0.7-0.2-1.3-0.7-1.7c-0.5-0.4-1.2-0.8-2.2-1l-3.7-0.8c-1.8-0.4-3.1-1-3.9-1.8
				c-0.8-0.8-1.2-1.9-1.2-3.2c0-1.1,0.3-2,0.8-2.8c0.5-0.8,1.3-1.4,2.3-1.9c1-0.4,2.3-0.7,3.8-0.7c2.1,0,3.9,0.5,5.2,1.4
				c1.3,0.9,2.1,2.4,2.4,4.3l-3.3,0.1c-0.2-1.1-0.6-1.9-1.4-2.4c-0.7-0.5-1.7-0.8-3-0.8c-1.2,0-2.1,0.2-2.8,0.6c-0.6,0.4-1,1-1,1.8
				c0,0.6,0.2,1.1,0.6,1.5c0.4,0.4,1.2,0.7,2.2,0.9l3.6,0.8c1.9,0.4,3.3,1.1,4.2,1.9c0.9,0.9,1.3,2,1.3,3.3c0,1.2-0.3,2.2-0.9,3.1
				s-1.5,1.6-2.7,2c-1.2,0.5-2.6,0.7-4.2,0.7C857.1,75.5,855.3,75,854,73.9z"/>
			<path class="st0" d="M883.7,56.4h3.3V75h-3.1v-2.6c-0.6,1-1.5,1.7-2.6,2.3c-1.1,0.5-2.3,0.8-3.7,0.8c-1.3,0-2.4-0.2-3.4-0.7
				c-0.9-0.5-1.7-1.2-2.2-2.1c-0.5-0.9-0.8-2-0.8-3.3V56.4h3.3v12.2c0,2.6,1.2,3.9,3.7,3.9c0.9,0,1.8-0.2,2.6-0.6s1.4-1,1.9-1.9
				c0.5-0.9,0.8-2,0.8-3.4V56.4z"/>
			<path class="st0" d="M902.6,56v3.2c-0.3,0-0.7,0-1.2,0c-0.8,0-1.7,0.2-2.5,0.6c-0.8,0.4-1.5,1.1-2,1.9s-0.8,1.9-0.9,3.1V75h-3.3
				V56.4h3.1V60c1.2-2.7,3.1-4.1,5.7-4.1C901.8,55.9,902.2,55.9,902.6,56z"/>
			<path class="st0" d="M922.2,66.5h-13.9c0,2,0.6,3.6,1.6,4.6c1,1.1,2.3,1.6,4,1.6c1.3,0,2.3-0.3,3.2-0.9s1.5-1.4,1.9-2.5l3,0.4
				c-0.6,1.8-1.6,3.2-3,4.2s-3.1,1.5-5.1,1.5c-1.8,0-3.4-0.4-4.7-1.2c-1.3-0.8-2.3-2-3-3.5c-0.7-1.5-1.1-3.2-1.1-5.1
				c0-1.9,0.3-3.6,1-5s1.7-2.6,3-3.4c1.3-0.8,2.9-1.2,4.7-1.2c1.7,0,3.2,0.4,4.5,1.1c1.3,0.7,2.3,1.8,3,3.2c0.7,1.4,1,3,1,5V66.5z
				 M910,60.1c-1,0.9-1.5,2.3-1.7,4h10.8c-0.2-1.8-0.8-3.1-1.7-4c-0.9-0.9-2.1-1.4-3.7-1.4S911,59.2,910,60.1z"/>
			<path class="st0" d="M939.4,49.4h3.3V75h-2.9v-3c-0.6,1-1.4,1.8-2.4,2.4c-1,0.6-2.2,0.9-3.5,0.9c-1.7,0-3.1-0.4-4.3-1.3
				s-2.2-2-2.8-3.5c-0.6-1.5-1-3.2-1-5.1c0-1.8,0.3-3.5,1-4.9c0.7-1.4,1.6-2.5,2.8-3.3s2.6-1.2,4.2-1.2c1.2,0,2.3,0.2,3.3,0.7
				c1,0.5,1.8,1.1,2.4,1.9V49.4z M937,71.7c0.8-0.6,1.5-1.4,1.9-2.4c0.5-1.1,0.7-2.3,0.7-3.8c0-1.4-0.2-2.6-0.7-3.6
				c-0.5-1-1.1-1.7-1.9-2.2s-1.7-0.8-2.8-0.8c-1.6,0-2.9,0.6-3.8,1.7c-0.9,1.1-1.4,2.7-1.4,4.9c0,1.4,0.2,2.7,0.6,3.8
				c0.4,1.1,1,1.9,1.8,2.5c0.8,0.6,1.7,0.9,2.7,0.9C935.2,72.6,936.2,72.3,937,71.7z"/>
			<path class="st0" d="M228.9,100.9h-3.3v-3.6h3.3V100.9z M228.9,123h-3.3v-18.6h3.3V123z"/>
			<path class="st0" d="M235.5,121.9c-1.3-1-2.1-2.6-2.3-4.6l3.1-0.1c0.2,1.3,0.6,2.2,1.4,2.8c0.8,0.6,1.9,0.9,3.3,0.9
				c1.5,0,2.6-0.3,3.3-0.8s1.1-1.2,1.1-2.1c0-0.7-0.2-1.3-0.7-1.7c-0.5-0.4-1.2-0.8-2.2-1l-3.7-0.8c-1.8-0.4-3.1-1-3.9-1.8
				c-0.8-0.8-1.2-1.9-1.2-3.2c0-1.1,0.3-2,0.8-2.8c0.5-0.8,1.3-1.4,2.3-1.9c1-0.4,2.3-0.7,3.8-0.7c2.1,0,3.9,0.5,5.2,1.4
				c1.3,0.9,2.1,2.4,2.4,4.3l-3.3,0.1c-0.2-1.1-0.6-1.9-1.4-2.4c-0.7-0.5-1.7-0.8-3-0.8c-1.2,0-2.1,0.2-2.8,0.6c-0.6,0.4-1,1-1,1.8
				c0,0.6,0.2,1.1,0.6,1.5c0.4,0.4,1.2,0.7,2.2,0.9l3.6,0.8c1.9,0.4,3.3,1.1,4.2,1.9c0.9,0.9,1.3,2,1.3,3.3c0,1.2-0.3,2.2-0.9,3.1
				s-1.5,1.6-2.7,2c-1.2,0.5-2.6,0.7-4.2,0.7C238.6,123.5,236.8,123,235.5,121.9z"/>
			<path class="st0" d="M275.7,105.2c1.2,0.8,2.2,1.8,2.8,3.2c0.7,1.4,1,3,1,4.9c0,1.9-0.3,3.6-1,5.2c-0.7,1.5-1.6,2.7-2.8,3.6
				s-2.7,1.3-4.3,1.3c-1.2,0-2.2-0.2-3.2-0.7c-0.9-0.5-1.7-1.1-2.4-1.9v9.6h-3.3v-25.9h2.9v3c0.6-1,1.4-1.9,2.4-2.5
				c1.1-0.6,2.3-0.9,3.6-0.9C273.1,104,274.5,104.4,275.7,105.2z M273.8,119.6c0.8-0.6,1.4-1.5,1.8-2.6s0.6-2.4,0.6-3.8
				c0-2.1-0.5-3.7-1.4-4.8c-0.9-1.1-2.2-1.6-3.8-1.6c-1.1,0-2,0.3-2.8,0.8c-0.8,0.5-1.4,1.3-1.9,2.2c-0.5,1-0.7,2.2-0.7,3.6
				c0,1.4,0.2,2.7,0.7,3.8c0.5,1.1,1.1,1.9,1.9,2.4c0.8,0.6,1.7,0.8,2.8,0.8C272.2,120.6,273.1,120.2,273.8,119.6z"/>
			<path class="st0" d="M296.5,104.4h3.3V123h-3.1v-2.6c-0.6,1-1.5,1.7-2.6,2.3c-1.1,0.5-2.3,0.8-3.7,0.8c-1.3,0-2.4-0.2-3.4-0.7
				c-0.9-0.5-1.7-1.2-2.2-2.1c-0.5-0.9-0.8-2-0.8-3.3v-12.9h3.3v12.2c0,2.6,1.2,3.9,3.7,3.9c0.9,0,1.8-0.2,2.6-0.6s1.4-1,1.9-1.9
				c0.5-0.9,0.8-2,0.8-3.4V104.4z"/>
			<path class="st0" d="M310.3,106.8v11.6c0,0.7,0.1,1.1,0.4,1.4c0.3,0.3,0.7,0.4,1.4,0.4h2.4v2.8h-3.4c-1.4,0-2.5-0.3-3.1-1
				c-0.7-0.7-1-1.7-1-3.1v-12l-2.8,0.1v-2.6l2.8,0.1v-5.8h3.3v5.8l4.2-0.1v2.6L310.3,106.8z"/>
			<path class="st0" d="M323.1,106.8v11.6c0,0.7,0.1,1.1,0.4,1.4c0.3,0.3,0.7,0.4,1.4,0.4h2.4v2.8h-3.4c-1.4,0-2.5-0.3-3.1-1
				c-0.7-0.7-1-1.7-1-3.1v-12L317,107v-2.6l2.8,0.1v-5.8h3.3v5.8l4.2-0.1v2.6L323.1,106.8z"/>
			<path class="st0" d="M334.6,100.9h-3.3v-3.6h3.3V100.9z M334.6,123h-3.3v-18.6h3.3V123z"/>
			<path class="st0" d="M353.1,104.7c0.9,0.5,1.7,1.2,2.2,2.1s0.8,2,0.8,3.3V123h-3.3v-12.2c0-2.6-1.2-3.9-3.7-3.9
				c-0.9,0-1.8,0.2-2.6,0.6c-0.8,0.4-1.4,1-1.9,1.9c-0.5,0.9-0.8,2-0.8,3.4V123h-3.3v-18.6h3.1v2.6c0.6-1,1.5-1.7,2.6-2.3
				s2.3-0.8,3.7-0.8C351,104,352.1,104.2,353.1,104.7z"/>
			<path class="st0" d="M374.7,104.4h3.1v18c0,2.9-0.8,5-2.3,6.4c-1.5,1.4-3.7,2-6.4,2c-2.2,0-4-0.5-5.4-1.4
				c-1.4-0.9-2.2-2.3-2.4-4.1h3.2c0.2,1,0.7,1.7,1.5,2.2c0.8,0.4,1.8,0.6,3.2,0.6c1.3,0,2.3-0.2,3.1-0.6c0.8-0.4,1.4-1,1.7-1.7
				s0.6-1.8,0.6-3.1v-2.4c-0.6,0.9-1.4,1.7-2.4,2.2s-2.2,0.8-3.4,0.8c-1.7,0-3.1-0.4-4.3-1.3s-2.2-2-2.8-3.5c-0.6-1.5-1-3.2-1-5.1
				c0-1.8,0.3-3.5,1-4.9c0.7-1.4,1.6-2.5,2.8-3.3s2.6-1.2,4.2-1.2c1.3,0,2.5,0.3,3.6,0.9s1.9,1.4,2.4,2.4V104.4z M371.9,119.7
				c0.8-0.6,1.5-1.4,1.9-2.4c0.5-1.1,0.7-2.3,0.7-3.8c0-1.4-0.2-2.6-0.7-3.6c-0.5-1-1.1-1.7-1.9-2.2s-1.7-0.8-2.8-0.8
				c-1.6,0-2.9,0.6-3.8,1.7c-0.9,1.1-1.4,2.7-1.4,4.9c0,1.4,0.2,2.7,0.6,3.8c0.4,1.1,1,1.9,1.8,2.5c0.8,0.6,1.7,0.9,2.7,0.9
				C370.2,120.6,371.1,120.3,371.9,119.7z"/>
			<path class="st0" d="M410.2,120.6v2.4h-1.8c-2,0-3.1-0.9-3.2-2.7c-0.6,1-1.5,1.7-2.7,2.3s-2.5,0.9-4,0.9c-1.2,0-2.3-0.2-3.3-0.6
				c-0.9-0.4-1.7-1-2.2-1.9c-0.5-0.8-0.8-1.8-0.8-2.9c0-1.6,0.5-2.9,1.5-3.9c1-1,2.6-1.6,4.8-1.9l4.8-0.6c0.5,0,0.8-0.2,1-0.4
				c0.2-0.2,0.3-0.6,0.3-1v-0.7c0-1-0.3-1.7-1-2.2c-0.7-0.5-1.7-0.7-3.2-0.7c-1.4,0-2.4,0.2-3.1,0.7c-0.7,0.5-1.1,1.4-1.2,2.6h-3.3
				c0.2-2,0.9-3.6,2.2-4.6s3.1-1.5,5.5-1.5c2.4,0,4.2,0.5,5.4,1.5s1.9,2.5,1.9,4.5v9.1c0,0.6,0.1,1,0.4,1.3c0.2,0.2,0.7,0.4,1.3,0.4
				H410.2z M401.9,120.3c0.9-0.4,1.5-1,2.1-1.6c0.5-0.7,0.8-1.4,0.8-2.2v-2.6l-5.5,0.8c-1.2,0.2-2.2,0.6-2.7,1.1s-0.9,1.2-0.9,2.1
				c0,0.9,0.3,1.7,1,2.2c0.6,0.5,1.5,0.8,2.6,0.8C400.1,120.9,401,120.7,401.9,120.3z"/>
			<path class="st0" d="M447.5,105.5c1,1,1.5,2.6,1.5,4.8V123h-3.3v-12.7c0-1.1-0.3-1.9-0.8-2.5c-0.6-0.6-1.3-0.9-2.4-0.9
				c-1.3,0-2.3,0.5-3.2,1.4c-0.9,0.9-1.3,2.5-1.3,4.7V123h-3.3v-12.7c0-1.1-0.3-1.9-0.8-2.5c-0.6-0.6-1.3-0.9-2.4-0.9
				c-0.8,0-1.5,0.2-2.2,0.6c-0.7,0.4-1.2,1.1-1.7,2c-0.4,0.9-0.6,2.2-0.6,3.7v9.9h-3.3v-18.6h3.1v2.6c1.3-2.1,3.1-3.1,5.6-3.1
				c1.3,0,2.3,0.3,3.2,0.8c0.9,0.6,1.5,1.4,1.9,2.4c1.2-2.2,3.2-3.2,5.9-3.2C445.1,104,446.5,104.5,447.5,105.5z"/>
			<path class="st0" d="M471.6,120.6v2.4h-1.8c-2,0-3.1-0.9-3.2-2.7c-0.6,1-1.5,1.7-2.7,2.3s-2.5,0.9-4,0.9c-1.2,0-2.3-0.2-3.3-0.6
				c-0.9-0.4-1.7-1-2.2-1.9c-0.5-0.8-0.8-1.8-0.8-2.9c0-1.6,0.5-2.9,1.5-3.9c1-1,2.6-1.6,4.8-1.9l4.8-0.6c0.5,0,0.8-0.2,1-0.4
				c0.2-0.2,0.3-0.6,0.3-1v-0.7c0-1-0.3-1.7-1-2.2c-0.7-0.5-1.7-0.7-3.2-0.7c-1.4,0-2.4,0.2-3.1,0.7c-0.7,0.5-1.1,1.4-1.2,2.6h-3.3
				c0.2-2,0.9-3.6,2.2-4.6s3.1-1.5,5.5-1.5c2.4,0,4.2,0.5,5.4,1.5s1.9,2.5,1.9,4.5v9.1c0,0.6,0.1,1,0.4,1.3c0.2,0.2,0.7,0.4,1.3,0.4
				H471.6z M463.3,120.3c0.9-0.4,1.5-1,2.1-1.6c0.5-0.7,0.8-1.4,0.8-2.2v-2.6l-5.5,0.8c-1.2,0.2-2.2,0.6-2.7,1.1s-0.9,1.2-0.9,2.1
				c0,0.9,0.3,1.7,1,2.2c0.6,0.5,1.5,0.8,2.6,0.8C461.5,120.9,462.5,120.7,463.3,120.3z"/>
			<path class="st0" d="M485.1,104v3.2c-0.3,0-0.7,0-1.2,0c-0.8,0-1.7,0.2-2.5,0.6c-0.8,0.4-1.5,1.1-2,1.9s-0.8,1.9-0.9,3.1V123
				h-3.3v-18.6h3.1v3.6c1.2-2.7,3.1-4.1,5.7-4.1C484.3,103.9,484.6,103.9,485.1,104z"/>
			<path class="st0" d="M504.2,104.4l-7.4,6.8l8,11.7h-3.9l-4.2-6.5l-2-3.3l-2.8,2.6v7.2h-3.3V97.4h3.3v10.8l-0.1,4.5l3-3.1l5.4-5.2
				H504.2z"/>
			<path class="st0" d="M523.7,114.5h-13.9c0,2,0.6,3.6,1.6,4.6c1,1.1,2.3,1.6,4,1.6c1.3,0,2.3-0.3,3.2-0.9s1.5-1.4,1.9-2.5l3,0.4
				c-0.6,1.8-1.6,3.2-3,4.2s-3.1,1.5-5.1,1.5c-1.8,0-3.4-0.4-4.7-1.2c-1.3-0.8-2.3-2-3-3.5c-0.7-1.5-1.1-3.2-1.1-5.1
				c0-1.9,0.3-3.6,1-5s1.7-2.6,3-3.4c1.3-0.8,2.9-1.2,4.7-1.2c1.7,0,3.2,0.4,4.5,1.1c1.3,0.7,2.3,1.8,3,3.2c0.7,1.4,1,3,1,5V114.5z
				 M511.5,108.1c-1,0.9-1.5,2.3-1.7,4h10.8c-0.2-1.8-0.8-3.1-1.7-4c-0.9-0.9-2.1-1.4-3.7-1.4S512.5,107.2,511.5,108.1z"/>
			<path class="st0" d="M538.2,104v3.2c-0.3,0-0.7,0-1.2,0c-0.8,0-1.7,0.2-2.5,0.6c-0.8,0.4-1.5,1.1-2,1.9s-0.8,1.9-0.9,3.1V123
				h-3.3v-18.6h3.1v3.6c1.2-2.7,3.1-4.1,5.7-4.1C537.4,103.9,537.7,103.9,538.2,104z"/>
			<path class="st0" d="M554.6,100.9h-3.3v-3.6h3.3V100.9z M554.6,123h-3.3v-18.6h3.3V123z"/>
			<path class="st0" d="M573.1,104.7c0.9,0.5,1.7,1.2,2.2,2.1s0.8,2,0.8,3.3V123h-3.3v-12.2c0-2.6-1.2-3.9-3.7-3.9
				c-0.9,0-1.8,0.2-2.6,0.6c-0.8,0.4-1.4,1-1.9,1.9c-0.5,0.9-0.8,2-0.8,3.4V123h-3.3v-18.6h3.1v2.6c0.6-1,1.5-1.7,2.6-2.3
				s2.3-0.8,3.7-0.8C571,104,572.1,104.2,573.1,104.7z"/>
			<path class="st0" d="M596.1,106.8v11.6c0,0.7,0.1,1.1,0.4,1.4c0.3,0.3,0.7,0.4,1.4,0.4h2.4v2.8H597c-1.4,0-2.5-0.3-3.1-1
				c-0.7-0.7-1-1.7-1-3.1v-12l-2.8,0.1v-2.6l2.8,0.1v-5.8h3.3v5.8l4.2-0.1v2.6L596.1,106.8z"/>
			<path class="st0" d="M617,104.7c0.9,0.5,1.7,1.2,2.2,2.1s0.8,2,0.8,3.3V123h-3.3v-12.2c0-2.6-1.2-3.9-3.7-3.9
				c-0.9,0-1.8,0.2-2.6,0.6c-0.8,0.4-1.4,1-1.9,1.9c-0.5,0.9-0.8,2-0.8,3.4V123h-3.3V97.4h3.3v9.4c0.6-0.9,1.5-1.6,2.5-2.1
				c1-0.5,2.2-0.7,3.5-0.7S616.1,104.2,617,104.7z"/>
			<path class="st0" d="M642.6,120.6v2.4h-1.8c-2,0-3.1-0.9-3.2-2.7c-0.6,1-1.5,1.7-2.7,2.3s-2.5,0.9-4,0.9c-1.2,0-2.3-0.2-3.3-0.6
				c-0.9-0.4-1.7-1-2.2-1.9c-0.5-0.8-0.8-1.8-0.8-2.9c0-1.6,0.5-2.9,1.5-3.9c1-1,2.6-1.6,4.8-1.9l4.8-0.6c0.5,0,0.8-0.2,1-0.4
				c0.2-0.2,0.3-0.6,0.3-1v-0.7c0-1-0.3-1.7-1-2.2c-0.7-0.5-1.7-0.7-3.2-0.7c-1.4,0-2.4,0.2-3.1,0.7c-0.7,0.5-1.1,1.4-1.2,2.6h-3.3
				c0.2-2,0.9-3.6,2.2-4.6s3.1-1.5,5.5-1.5c2.4,0,4.2,0.5,5.4,1.5s1.9,2.5,1.9,4.5v9.1c0,0.6,0.1,1,0.4,1.3c0.2,0.2,0.7,0.4,1.3,0.4
				H642.6z M634.3,120.3c0.9-0.4,1.5-1,2.1-1.6c0.5-0.7,0.8-1.4,0.8-2.2v-2.6l-5.5,0.8c-1.2,0.2-2.2,0.6-2.7,1.1s-0.9,1.2-0.9,2.1
				c0,0.9,0.3,1.7,1,2.2c0.6,0.5,1.5,0.8,2.6,0.8C632.5,120.9,633.5,120.7,634.3,120.3z"/>
			<path class="st0" d="M650.9,106.8v11.6c0,0.7,0.1,1.1,0.4,1.4c0.3,0.3,0.7,0.4,1.4,0.4h2.4v2.8h-3.4c-1.4,0-2.5-0.3-3.1-1
				c-0.7-0.7-1-1.7-1-3.1v-12l-2.8,0.1v-2.6l2.8,0.1v-5.8h3.3v5.8l4.2-0.1v2.6L650.9,106.8z"/>
			<path class="st0" d="M681.9,105.2c1.2,0.8,2.2,1.8,2.8,3.2c0.7,1.4,1,3,1,4.9c0,1.9-0.3,3.6-1,5.2c-0.7,1.5-1.6,2.7-2.8,3.6
				s-2.7,1.3-4.3,1.3c-1.2,0-2.2-0.2-3.2-0.7c-0.9-0.5-1.7-1.1-2.4-1.9v9.6h-3.3v-25.9h2.9v3c0.6-1,1.4-1.9,2.4-2.5
				c1.1-0.6,2.3-0.9,3.6-0.9C679.3,104,680.7,104.4,681.9,105.2z M680.1,119.6c0.8-0.6,1.4-1.5,1.8-2.6s0.6-2.4,0.6-3.8
				c0-2.1-0.5-3.7-1.4-4.8c-0.9-1.1-2.2-1.6-3.8-1.6c-1.1,0-2,0.3-2.8,0.8c-0.8,0.5-1.4,1.3-1.9,2.2c-0.5,1-0.7,2.2-0.7,3.6
				c0,1.4,0.2,2.7,0.7,3.8c0.5,1.1,1.1,1.9,1.9,2.4c0.8,0.6,1.7,0.8,2.8,0.8C678.4,120.6,679.3,120.2,680.1,119.6z"/>
			<path class="st0" d="M693.6,122.2c-1.4-0.8-2.4-2-3.2-3.4c-0.7-1.5-1.1-3.2-1.1-5.1c0-2,0.4-3.7,1.1-5.2c0.8-1.5,1.8-2.6,3.2-3.4
				s2.9-1.2,4.7-1.2c1.7,0,3.3,0.4,4.6,1.2c1.3,0.8,2.4,1.9,3.1,3.3c0.8,1.5,1.1,3.2,1.1,5.1c0,1.9-0.4,3.6-1.2,5.1
				c-0.8,1.5-1.8,2.7-3.2,3.5c-1.4,0.8-2.9,1.3-4.6,1.3C696.5,123.5,695,123.1,693.6,122.2z M701.3,119.8c0.9-0.6,1.5-1.4,1.9-2.5
				c0.4-1.1,0.7-2.3,0.7-3.7c0-1.4-0.2-2.6-0.7-3.6c-0.4-1-1.1-1.8-1.9-2.4c-0.9-0.6-1.9-0.8-3-0.8c-1.2,0-2.2,0.3-3,0.9
				s-1.5,1.4-1.9,2.4c-0.4,1.1-0.7,2.3-0.7,3.7c0,1.4,0.2,2.6,0.7,3.7c0.5,1.1,1.1,1.9,1.9,2.4c0.8,0.6,1.8,0.9,3,0.9
				C699.5,120.7,700.5,120.4,701.3,119.8z"/>
			<path class="st0" d="M715.3,123h-3.3V97.4h3.3V123z"/>
			<path class="st0" d="M724.3,100.9H721v-3.6h3.3V100.9z M724.3,123H721v-18.6h3.3V123z"/>
			<path class="st0" d="M733.1,122.4c-1.3-0.7-2.3-1.8-3-3.3c-0.7-1.5-1.1-3.2-1.1-5.2c0-2.1,0.4-3.8,1.1-5.3s1.7-2.6,3.1-3.4
				c1.3-0.8,2.9-1.2,4.6-1.2c2.2,0,3.9,0.6,5.3,1.7s2.2,2.7,2.5,4.9h-3.1c-0.5-2.5-2.1-3.8-4.7-3.8c-1.8,0-3.2,0.6-4.1,1.8
				c-0.9,1.2-1.4,2.9-1.4,5.2c0,2.2,0.5,3.9,1.4,5.1c0.9,1.2,2.3,1.8,4,1.8c1.3,0,2.4-0.4,3.2-1.1c0.8-0.7,1.3-1.8,1.6-3.1h3.1
				c-0.3,2.2-1.2,3.9-2.5,5.1c-1.4,1.2-3.2,1.8-5.5,1.8C735.9,123.5,734.4,123.1,733.1,122.4z"/>
			<path class="st0" d="M761.6,104.4h3.4l-8.6,22.2c-0.4,1-0.8,1.7-1.2,2.2c-0.4,0.5-1,0.9-1.6,1.1c-0.6,0.2-1.4,0.3-2.3,0.3h-2.1
				v-2.8h1.7c0.6,0,1-0.1,1.4-0.2c0.4-0.1,0.7-0.4,0.9-0.7c0.3-0.3,0.5-0.9,0.8-1.5l0.9-2.3l-7.5-18.4h3.6l4.4,11.7
				c0.4,1.1,0.7,2.1,1,3.1c0.3-1,0.6-2,1-3.1L761.6,104.4z"/>
			<path class="st0" d="M791.7,105.2c1.2,0.8,2.2,1.8,2.8,3.2c0.7,1.4,1,3,1,4.9c0,1.9-0.3,3.6-1,5.2c-0.7,1.5-1.6,2.7-2.8,3.6
				s-2.7,1.3-4.3,1.3c-1.2,0-2.2-0.2-3.2-0.7c-0.9-0.5-1.7-1.1-2.4-1.9v9.6h-3.3v-25.9h2.9v3c0.6-1,1.4-1.9,2.4-2.5
				c1.1-0.6,2.3-0.9,3.6-0.9C789.1,104,790.5,104.4,791.7,105.2z M789.8,119.6c0.8-0.6,1.4-1.5,1.8-2.6s0.6-2.4,0.6-3.8
				c0-2.1-0.5-3.7-1.4-4.8c-0.9-1.1-2.2-1.6-3.8-1.6c-1.1,0-2,0.3-2.8,0.8c-0.8,0.5-1.4,1.3-1.9,2.2c-0.5,1-0.7,2.2-0.7,3.6
				c0,1.4,0.2,2.7,0.7,3.8c0.5,1.1,1.1,1.9,1.9,2.4c0.8,0.6,1.7,0.8,2.8,0.8C788.1,120.6,789,120.2,789.8,119.6z"/>
			<path class="st0" d="M816.3,114.5h-13.9c0,2,0.6,3.6,1.6,4.6c1,1.1,2.3,1.6,4,1.6c1.3,0,2.3-0.3,3.2-0.9s1.5-1.4,1.9-2.5l3,0.4
				c-0.6,1.8-1.6,3.2-3,4.2s-3.1,1.5-5.1,1.5c-1.8,0-3.4-0.4-4.7-1.2c-1.3-0.8-2.3-2-3-3.5c-0.7-1.5-1.1-3.2-1.1-5.1
				c0-1.9,0.3-3.6,1-5s1.7-2.6,3-3.4c1.3-0.8,2.9-1.2,4.7-1.2c1.7,0,3.2,0.4,4.5,1.1c1.3,0.7,2.3,1.8,3,3.2c0.7,1.4,1,3,1,5V114.5z
				 M804.2,108.1c-1,0.9-1.5,2.3-1.7,4h10.8c-0.2-1.8-0.8-3.1-1.7-4c-0.9-0.9-2.1-1.4-3.7-1.4S805.1,107.2,804.2,108.1z"/>
			<path class="st0" d="M830.9,104v3.2c-0.3,0-0.7,0-1.2,0c-0.8,0-1.7,0.2-2.5,0.6c-0.8,0.4-1.5,1.1-2,1.9s-0.8,1.9-0.9,3.1V123H821
				v-18.6h3.1v3.6c1.2-2.7,3.1-4.1,5.7-4.1C830.1,103.9,830.4,103.9,830.9,104z"/>
			<path class="st0" d="M837.6,100.9h-3.3v-3.6h3.3V100.9z M837.6,123h-3.3v-18.6h3.3V123z"/>
			<path class="st0" d="M846.5,122.2c-1.4-0.8-2.4-2-3.2-3.4c-0.7-1.5-1.1-3.2-1.1-5.1c0-2,0.4-3.7,1.1-5.2c0.8-1.5,1.8-2.6,3.2-3.4
				s2.9-1.2,4.7-1.2c1.7,0,3.3,0.4,4.6,1.2c1.3,0.8,2.4,1.9,3.1,3.3c0.8,1.5,1.1,3.2,1.1,5.1c0,1.9-0.4,3.6-1.2,5.1
				c-0.8,1.5-1.8,2.7-3.2,3.5c-1.4,0.8-2.9,1.3-4.6,1.3C849.4,123.5,847.9,123.1,846.5,122.2z M854.2,119.8c0.9-0.6,1.5-1.4,1.9-2.5
				c0.4-1.1,0.7-2.3,0.7-3.7c0-1.4-0.2-2.6-0.7-3.6c-0.4-1-1.1-1.8-1.9-2.4c-0.9-0.6-1.9-0.8-3-0.8c-1.2,0-2.2,0.3-3,0.9
				s-1.5,1.4-1.9,2.4c-0.4,1.1-0.7,2.3-0.7,3.7c0,1.4,0.2,2.6,0.7,3.7c0.5,1.1,1.1,1.9,1.9,2.4c0.8,0.6,1.8,0.9,3,0.9
				C852.4,120.7,853.4,120.4,854.2,119.8z"/>
			<path class="st0" d="M877.4,97.4h3.3V123h-2.9v-3c-0.6,1-1.4,1.8-2.4,2.4c-1,0.6-2.2,0.9-3.5,0.9c-1.7,0-3.1-0.4-4.3-1.3
				s-2.2-2-2.8-3.5c-0.6-1.5-1-3.2-1-5.1c0-1.8,0.3-3.5,1-4.9c0.7-1.4,1.6-2.5,2.8-3.3s2.6-1.2,4.2-1.2c1.2,0,2.3,0.2,3.3,0.7
				c1,0.5,1.8,1.1,2.4,1.9V97.4z M875,119.7c0.8-0.6,1.5-1.4,1.9-2.4c0.5-1.1,0.7-2.3,0.7-3.8c0-1.4-0.2-2.6-0.7-3.6
				c-0.5-1-1.1-1.7-1.9-2.2s-1.7-0.8-2.8-0.8c-1.6,0-2.9,0.6-3.8,1.7c-0.9,1.1-1.4,2.7-1.4,4.9c0,1.4,0.2,2.7,0.6,3.8
				c0.4,1.1,1,1.9,1.8,2.5c0.8,0.6,1.7,0.9,2.7,0.9C873.2,120.6,874.1,120.3,875,119.7z"/>
			<path class="st0" d="M890.7,123h-4.1v-3.6h4.1V123z"/>
		</g>
	</g>
</g>
<polygon class="st0" points="141.2,122.7 -21.6,122.7 -21.6,15.7 141.2,15.7 177.7,73.2 "/>
</svg>
