<?xml version="1.0" encoding="utf-8"?>
<!-- Generator: Adobe Illustrator 26.0.1, SVG Export Plug-In . SVG Version: 6.00 Build 0)  -->
<svg version="1.1" id="Layer_1" xmlns="http://www.w3.org/2000/svg" xmlns:xlink="http://www.w3.org/1999/xlink" x="0px" y="0px"
	 viewBox="0 0 540 395.5" style="enable-background:new 0 0 540 395.5;" xml:space="preserve">
<style type="text/css">
	.Drop_x0020_Shadow{fill:none;}
	.Outer_x0020_Glow_x0020_5_x0020_pt{fill:none;}
	.Jive_GS{fill:#A5CFE3;}
	.st0{opacity:0.3;fill:#C9C9C7;}
	.st1{fill:#E11B22;}
</style>
<g>
	<path class="st0" d="M374.9,139.6h-84c-2.7,0-4.9-2.2-4.9-4.9v-84C286,37,274.9,26,261.3,26c-13.6,0-24.7,11.1-24.7,24.7v84
		c0,2.7-2.2,4.9-4.9,4.9h-84c-13.6,0-24.7,11.1-24.7,24.7c0,13.6,11.1,24.7,24.7,24.7h84c2.7,0,4.9,2.2,4.9,4.9v84
		c0,13.6,11.1,24.7,24.7,24.7c13.6,0,24.7-11.1,24.7-24.7v-84c0-2.7,2.2-4.9,4.9-4.9h84c13.6,0,24.7-11.1,24.7-24.7
		C399.6,150.6,388.5,139.6,374.9,139.6z"/>
	<path class="st0" d="M492,279.3h-46.8c-1.5,0-2.8-1.2-2.8-2.8v-46.8c0-7.6-6.2-13.8-13.8-13.8s-13.8,6.2-13.8,13.8v46.8
		c0,1.5-1.2,2.8-2.8,2.8h-46.8c-7.6,0-13.8,6.2-13.8,13.8c0,7.6,6.2,13.8,13.8,13.8h46.8c1.5,0,2.8,1.2,2.8,2.8v46.8
		c0,7.6,6.2,13.8,13.8,13.8s13.8-6.2,13.8-13.8v-46.8c0-1.5,1.2-2.8,2.8-2.8H492c7.6,0,13.8-6.2,13.8-13.8
		C505.8,285.4,499.6,279.3,492,279.3z"/>
	<path class="st0" d="M346.1,333.7h-29.3c-1,0-1.7-0.8-1.7-1.7v-29.3c0-4.8-3.9-8.6-8.6-8.6s-8.6,3.9-8.6,8.6V332
		c0,1-0.8,1.7-1.7,1.7H267c-4.8,0-8.6,3.9-8.6,8.6s3.9,8.6,8.6,8.6h29.3c1,0,1.7,0.8,1.7,1.7v29.3c0,4.8,3.9,8.6,8.6,8.6
		s8.6-3.9,8.6-8.6v-29.3c0-1,0.8-1.7,1.7-1.7h29.3c4.8,0,8.6-3.9,8.6-8.6S350.9,333.7,346.1,333.7z"/>
</g>
<g>
	<g>
		<g>
			<path d="M45.4,59.7H43l-1.8-5h-7.2l-1.8,5h-2.4l6.6-17.1h2.5L45.4,59.7z M37,46.3l-2.4,6.5h5.8l-2.3-6.5l-0.6-1.8L37,46.3z"/>
			<path d="M50.3,59.7h-2.2V42.6h2.2V59.7z"/>
			<path d="M56.3,59.7h-2.2V42.6h2.2V59.7z"/>
			<path d="M78.3,54.5l2-7.2h2.3l-4,12.4h-2.2l-1.8-7.4L74,49.2l-0.7,3.1l-1.9,7.4h-2.3l-3.9-12.4h2.4l1.9,7.2l0.7,3l0.6-3l1.8-7.2
				h2.4l1.8,7.2l0.6,3L78.3,54.5z"/>
			<path d="M95.5,54h-9.3c0,1.4,0.4,2.4,1,3.1c0.7,0.7,1.6,1.1,2.7,1.1c0.8,0,1.5-0.2,2.1-0.6s1-0.9,1.3-1.7l2,0.2
				c-0.4,1.2-1.1,2.2-2,2.8s-2.1,1-3.4,1c-1.2,0-2.3-0.3-3.1-0.8s-1.6-1.3-2-2.3c-0.5-1-0.7-2.1-0.7-3.4c0-1.3,0.2-2.4,0.7-3.3
				c0.5-1,1.1-1.7,2-2.3c0.9-0.5,1.9-0.8,3.1-0.8c1.2,0,2.2,0.2,3,0.7c0.9,0.5,1.5,1.2,2,2.1s0.7,2,0.7,3.3V54z M87.4,49.8
				c-0.6,0.6-1,1.5-1.1,2.7h7.2c-0.1-1.2-0.5-2.1-1.1-2.7c-0.6-0.6-1.4-0.9-2.4-0.9C88.8,48.8,88,49.1,87.4,49.8z"/>
			<path d="M100.8,59.7h-2.2V42.6h2.2V59.7z"/>
			<path d="M106.9,59.7h-2.2V42.6h2.2V59.7z"/>
			<path d="M116.7,54.5H110v-2h6.7V54.5z"/>
			<path d="M131.5,54.5l2-7.2h2.3l-4,12.4h-2.2l-1.8-7.4l-0.6-3.1l-0.7,3.1l-1.9,7.4h-2.3l-3.9-12.4h2.4l1.9,7.2l0.7,3l0.6-3
				l1.8-7.2h2.4l1.8,7.2l0.6,3L131.5,54.5z"/>
			<path d="M144.9,47v2.1c-0.2,0-0.5,0-0.8,0c-0.6,0-1.1,0.1-1.6,0.4s-1,0.7-1.3,1.3c-0.4,0.6-0.5,1.3-0.6,2.1v6.8h-2.2V47.3h2.1
				v2.4c0.8-1.8,2.1-2.7,3.8-2.7C144.4,47,144.6,47,144.9,47z"/>
			<path d="M149.4,45h-2.2v-2.4h2.2V45z M149.4,59.7h-2.2V47.3h2.2V59.7z"/>
			<path d="M156.3,48.9v7.7c0,0.4,0.1,0.8,0.3,0.9c0.2,0.2,0.5,0.3,0.9,0.3h1.6v1.8h-2.3c-1,0-1.7-0.2-2.1-0.7
				c-0.4-0.4-0.7-1.1-0.7-2.1v-8l-1.8,0.1v-1.7l1.8,0.1v-3.9h2.2v3.9l2.8-0.1V49L156.3,48.9z"/>
			<path d="M164.9,48.9v7.7c0,0.4,0.1,0.8,0.3,0.9c0.2,0.2,0.5,0.3,0.9,0.3h1.6v1.8h-2.3c-1,0-1.7-0.2-2.1-0.7
				c-0.4-0.4-0.7-1.1-0.7-2.1v-8l-1.8,0.1v-1.7l1.8,0.1v-3.9h2.2v3.9l2.8-0.1V49L164.9,48.9z"/>
			<path d="M181.1,54h-9.3c0,1.4,0.4,2.4,1,3.1c0.7,0.7,1.6,1.1,2.7,1.1c0.8,0,1.5-0.2,2.1-0.6s1-0.9,1.3-1.7l2,0.2
				c-0.4,1.2-1.1,2.2-2,2.8s-2.1,1-3.4,1c-1.2,0-2.3-0.3-3.1-0.8s-1.6-1.3-2-2.3c-0.5-1-0.7-2.1-0.7-3.4c0-1.3,0.2-2.4,0.7-3.3
				c0.5-1,1.1-1.7,2-2.3c0.9-0.5,1.9-0.8,3.1-0.8c1.2,0,2.2,0.2,3,0.7c0.9,0.5,1.5,1.2,2,2.1s0.7,2,0.7,3.3V54z M173,49.8
				c-0.6,0.6-1,1.5-1.1,2.7h7.2c-0.1-1.2-0.5-2.1-1.1-2.7c-0.6-0.6-1.4-0.9-2.4-0.9C174.5,48.8,173.7,49.1,173,49.8z"/>
			<path d="M192.7,47.5c0.6,0.3,1.1,0.8,1.5,1.4c0.3,0.6,0.5,1.4,0.5,2.2v8.6h-2.2v-8.2c0-1.7-0.8-2.6-2.5-2.6
				c-0.6,0-1.2,0.1-1.7,0.4c-0.5,0.2-1,0.7-1.3,1.2c-0.3,0.6-0.5,1.3-0.5,2.3v6.9h-2.2V47.3h2.1v1.8c0.4-0.7,1-1.2,1.7-1.5
				c0.7-0.4,1.5-0.5,2.4-0.5C191.3,47,192.1,47.2,192.7,47.5z"/>
			<path d="M216.8,44.9c1.3,1.5,2,3.6,2,6.3c0,1.8-0.3,3.3-0.9,4.5c-0.6,1.3-1.5,2.3-2.8,3c-1.2,0.7-2.8,1-4.7,1h-5.3V42.6h5.8
				C213.6,42.6,215.5,43.4,216.8,44.9z M210.2,57.8c1.5,0,2.7-0.2,3.6-0.7c0.9-0.5,1.6-1.2,2-2.2s0.6-2.2,0.6-3.7
				c0-2.3-0.5-3.9-1.5-5s-2.6-1.6-4.7-1.6h-3v13.2H210.2z"/>
			<path d="M237.8,59.7h-2.9l-1.8-1.8c-0.8,0.7-1.6,1.3-2.5,1.6c-0.9,0.4-1.9,0.5-3,0.5c-1.2,0-2.3-0.2-3.2-0.6s-1.6-1-2.2-1.8
				c-0.5-0.8-0.8-1.7-0.8-2.7c0-2.4,1.3-4,3.9-4.9c-0.7-0.8-1.2-1.4-1.4-2c-0.3-0.6-0.4-1.2-0.4-1.8c0-0.8,0.2-1.5,0.6-2.1
				c0.4-0.6,0.9-1.1,1.6-1.4c0.7-0.3,1.5-0.5,2.4-0.5c0.9,0,1.7,0.2,2.4,0.5c0.7,0.3,1.2,0.8,1.6,1.4c0.4,0.6,0.6,1.3,0.6,2.1
				c0,1-0.3,1.9-1,2.7c-0.7,0.7-1.6,1.4-2.8,1.8l4.1,4.2c0.4-0.8,0.6-1.8,0.8-2.9h2.1c-0.1,0.8-0.3,1.6-0.5,2.3s-0.6,1.4-1,2
				L237.8,59.7z M229.8,57.9c0.7-0.2,1.3-0.7,1.9-1.3l-5.1-5.2c-2,0.7-3.1,1.9-3.1,3.5c0,0.6,0.2,1.2,0.5,1.7
				c0.3,0.5,0.8,0.9,1.4,1.2c0.6,0.3,1.4,0.4,2.2,0.4C228.4,58.2,229.1,58.1,229.8,57.9z M226.9,44.3c-0.4,0.2-0.7,0.4-0.9,0.7
				c-0.2,0.3-0.3,0.7-0.3,1.2c0,0.8,0.4,1.7,1.2,2.5l0.6,0.6c1-0.4,1.8-0.8,2.3-1.3s0.7-1.1,0.7-1.8c0-0.4-0.1-0.8-0.3-1.2
				c-0.2-0.3-0.5-0.6-0.9-0.8c-0.4-0.2-0.8-0.3-1.2-0.3C227.7,44.1,227.3,44.2,226.9,44.3z"/>
			<path d="M243.2,59c-1.2-0.8-2.2-1.8-2.9-3.2c-0.7-1.4-1-2.9-1-4.6c0-1.7,0.3-3.2,1-4.6c0.7-1.3,1.6-2.4,2.9-3.1
				c1.2-0.8,2.6-1.1,4.2-1.1c1.6,0,3,0.4,4.2,1.1c1.2,0.8,2.2,1.8,2.9,3.1c0.7,1.3,1,2.9,1,4.6c0,1.7-0.3,3.3-1,4.6
				c-0.7,1.4-1.6,2.4-2.9,3.2c-1.2,0.8-2.6,1.1-4.2,1.1C245.8,60.1,244.4,59.7,243.2,59z M250.4,57.3c0.9-0.6,1.6-1.4,2-2.4
				c0.5-1,0.7-2.3,0.7-3.7c0-1.4-0.2-2.6-0.7-3.6s-1.2-1.8-2.1-2.4c-0.9-0.6-1.9-0.8-3-0.8c-1.1,0-2.1,0.3-3,0.8
				c-0.9,0.6-1.6,1.4-2.1,2.4s-0.7,2.2-0.7,3.6c0,1.4,0.2,2.6,0.7,3.7s1.2,1.9,2.1,2.4c0.9,0.6,1.9,0.9,3,0.9
				C248.5,58.1,249.5,57.8,250.4,57.3z"/>
			<path d="M274.1,47.8c0.8,0.5,1.4,1.2,1.9,2.2s0.7,2,0.7,3.2c0,1.3-0.2,2.4-0.7,3.5c-0.4,1-1.1,1.8-1.9,2.4
				c-0.8,0.6-1.8,0.9-2.9,0.9c-0.8,0-1.5-0.2-2.1-0.5c-0.6-0.3-1.2-0.8-1.6-1.3v6.4h-2.2V47.3h1.9v2c0.4-0.7,0.9-1.2,1.6-1.6
				c0.7-0.4,1.5-0.6,2.4-0.6C272.4,47.1,273.3,47.3,274.1,47.8z M272.9,57.5c0.5-0.4,0.9-1,1.2-1.7c0.3-0.7,0.4-1.6,0.4-2.5
				c0-1.4-0.3-2.5-0.9-3.2c-0.6-0.7-1.4-1.1-2.5-1.1c-0.7,0-1.3,0.2-1.9,0.5s-1,0.8-1.3,1.5s-0.5,1.5-0.5,2.4c0,1,0.2,1.8,0.5,2.5
				s0.7,1.3,1.3,1.6c0.5,0.4,1.2,0.6,1.8,0.6C271.8,58.1,272.4,57.9,272.9,57.5z"/>
			<path d="M281.9,59.2c-0.9-0.5-1.6-1.3-2.1-2.3c-0.5-1-0.7-2.1-0.7-3.4c0-1.3,0.3-2.5,0.8-3.4c0.5-1,1.2-1.7,2.1-2.3
				c0.9-0.5,2-0.8,3.1-0.8c1.2,0,2.2,0.3,3.1,0.8c0.9,0.5,1.6,1.3,2.1,2.2c0.5,1,0.8,2.1,0.8,3.4c0,1.3-0.3,2.4-0.8,3.4
				c-0.5,1-1.2,1.8-2.1,2.3c-0.9,0.6-1.9,0.8-3.1,0.8C283.9,60,282.8,59.7,281.9,59.2z M287.1,57.6c0.6-0.4,1-1,1.3-1.7
				s0.4-1.5,0.4-2.5c0-0.9-0.1-1.7-0.4-2.4c-0.3-0.7-0.7-1.2-1.3-1.6c-0.6-0.4-1.2-0.6-2-0.6c-0.8,0-1.4,0.2-2,0.6
				c-0.6,0.4-1,0.9-1.3,1.6s-0.4,1.5-0.4,2.4c0,0.9,0.2,1.7,0.5,2.4c0.3,0.7,0.7,1.2,1.3,1.6c0.6,0.4,1.2,0.6,2,0.6
				C285.8,58.2,286.5,58,287.1,57.6z"/>
			<path d="M296.4,59.7h-2.2V42.6h2.2V59.7z"/>
			<path d="M302.4,45h-2.2v-2.4h2.2V45z M302.4,59.7h-2.2V47.3h2.2V59.7z"/>
			<path d="M308.2,59.3c-0.9-0.5-1.5-1.2-2-2.2c-0.5-1-0.7-2.1-0.7-3.5c0-1.4,0.2-2.6,0.7-3.6c0.5-1,1.2-1.7,2-2.3
				c0.9-0.5,1.9-0.8,3.1-0.8c1.4,0,2.6,0.4,3.5,1.1c0.9,0.8,1.5,1.8,1.7,3.2h-2.1c-0.3-1.7-1.4-2.5-3.1-2.5c-1.2,0-2.2,0.4-2.8,1.2
				c-0.6,0.8-0.9,2-0.9,3.4c0,1.5,0.3,2.6,0.9,3.4c0.6,0.8,1.5,1.2,2.7,1.2c0.9,0,1.6-0.2,2.1-0.7c0.5-0.5,0.9-1.2,1-2.1h2.1
				c-0.2,1.5-0.8,2.6-1.7,3.4c-0.9,0.8-2.1,1.2-3.7,1.2C310.1,60,309.1,59.8,308.2,59.3z"/>
			<path d="M321.8,45h-2.2v-2.4h2.2V45z M321.8,59.7h-2.2V47.3h2.2V59.7z"/>
			<path d="M336.4,54h-9.3c0,1.4,0.4,2.4,1,3.1c0.7,0.7,1.6,1.1,2.7,1.1c0.8,0,1.5-0.2,2.1-0.6s1-0.9,1.3-1.7l2,0.2
				c-0.4,1.2-1.1,2.2-2,2.8s-2.1,1-3.4,1c-1.2,0-2.3-0.3-3.1-0.8s-1.6-1.3-2-2.3c-0.5-1-0.7-2.1-0.7-3.4c0-1.3,0.2-2.4,0.7-3.3
				c0.5-1,1.1-1.7,2-2.3c0.9-0.5,1.9-0.8,3.1-0.8c1.2,0,2.2,0.2,3,0.7c0.9,0.5,1.5,1.2,2,2.1s0.7,2,0.7,3.3V54z M328.3,49.8
				c-0.6,0.6-1,1.5-1.1,2.7h7.2c-0.1-1.2-0.5-2.1-1.1-2.7c-0.6-0.6-1.4-0.9-2.4-0.9C329.8,48.8,329,49.1,328.3,49.8z"/>
			<path d="M340.1,59c-0.9-0.7-1.4-1.7-1.5-3.1l2.1-0.1c0.1,0.8,0.4,1.5,0.9,1.9c0.5,0.4,1.2,0.6,2.2,0.6c1,0,1.7-0.2,2.2-0.5
				c0.5-0.3,0.8-0.8,0.8-1.4c0-0.5-0.2-0.9-0.5-1.2c-0.3-0.3-0.8-0.5-1.5-0.6l-2.5-0.5c-1.2-0.3-2.1-0.7-2.6-1.2
				c-0.6-0.6-0.8-1.3-0.8-2.1c0-0.7,0.2-1.3,0.5-1.9c0.3-0.5,0.9-1,1.6-1.2c0.7-0.3,1.5-0.4,2.5-0.4c1.4,0,2.6,0.3,3.5,0.9
				s1.4,1.6,1.6,2.8l-2.2,0.1c-0.1-0.7-0.4-1.3-0.9-1.6c-0.5-0.4-1.2-0.5-2-0.5c-0.8,0-1.4,0.1-1.8,0.4c-0.4,0.3-0.6,0.7-0.6,1.2
				c0,0.4,0.1,0.8,0.4,1s0.8,0.5,1.5,0.6l2.4,0.5c1.3,0.3,2.2,0.7,2.8,1.3c0.6,0.6,0.9,1.3,0.9,2.2c0,0.8-0.2,1.5-0.6,2.1
				s-1,1-1.8,1.4c-0.8,0.3-1.7,0.5-2.8,0.5C342.2,60,341,59.7,340.1,59z"/>
			<path d="M369.4,58.1v1.6h-1.2c-1.3,0-2-0.6-2.1-1.8c-0.4,0.6-1,1.2-1.8,1.5c-0.8,0.4-1.7,0.6-2.7,0.6c-0.8,0-1.6-0.1-2.2-0.4
				c-0.6-0.3-1.1-0.7-1.5-1.2c-0.3-0.5-0.5-1.2-0.5-1.9c0-1.1,0.3-1.9,1-2.6c0.7-0.7,1.7-1.1,3.2-1.3l3.2-0.4c0.3,0,0.5-0.1,0.7-0.3
				c0.1-0.2,0.2-0.4,0.2-0.7v-0.5c0-0.7-0.2-1.1-0.7-1.5c-0.4-0.3-1.2-0.5-2.1-0.5c-0.9,0-1.6,0.2-2,0.5c-0.4,0.3-0.7,0.9-0.8,1.7
				H358c0.1-1.4,0.6-2.4,1.5-3s2.1-1,3.7-1c1.6,0,2.8,0.3,3.6,1c0.8,0.7,1.2,1.6,1.2,3v6c0,0.4,0.1,0.7,0.2,0.8s0.4,0.2,0.8,0.2
				H369.4z M363.9,57.9c0.6-0.3,1-0.6,1.4-1.1s0.5-0.9,0.5-1.5v-1.7l-3.7,0.6c-0.8,0.1-1.4,0.4-1.8,0.7s-0.6,0.8-0.6,1.4
				c0,0.6,0.2,1.1,0.6,1.5c0.4,0.4,1,0.5,1.7,0.5C362.7,58.3,363.3,58.2,363.9,57.9z"/>
			<path d="M374,59.7h-2.2V42.6h2.2V59.7z"/>
			<path d="M380.1,59.7h-2.2V42.6h2.2V59.7z"/>
			<path d="M386.1,59.2c-0.9-0.5-1.6-1.3-2.1-2.3c-0.5-1-0.7-2.1-0.7-3.4c0-1.3,0.3-2.5,0.8-3.4c0.5-1,1.2-1.7,2.1-2.3
				c0.9-0.5,2-0.8,3.1-0.8c1.2,0,2.2,0.3,3.1,0.8c0.9,0.5,1.6,1.3,2.1,2.2c0.5,1,0.8,2.1,0.8,3.4c0,1.3-0.3,2.4-0.8,3.4
				c-0.5,1-1.2,1.8-2.1,2.3c-0.9,0.6-1.9,0.8-3.1,0.8C388,60,387,59.7,386.1,59.2z M391.2,57.6c0.6-0.4,1-1,1.3-1.7s0.4-1.5,0.4-2.5
				c0-0.9-0.1-1.7-0.4-2.4c-0.3-0.7-0.7-1.2-1.3-1.6c-0.6-0.4-1.2-0.6-2-0.6c-0.8,0-1.4,0.2-2,0.6c-0.6,0.4-1,0.9-1.3,1.6
				s-0.4,1.5-0.4,2.4c0,0.9,0.2,1.7,0.5,2.4c0.3,0.7,0.7,1.2,1.3,1.6c0.6,0.4,1.2,0.6,2,0.6C389.9,58.2,390.6,58,391.2,57.6z"/>
			<path d="M409.5,54.5l2-7.2h2.3l-4,12.4h-2.2l-1.8-7.4l-0.6-3.1l-0.7,3.1l-1.9,7.4h-2.3l-3.9-12.4h2.4l1.9,7.2l0.7,3l0.6-3
				l1.8-7.2h2.4l1.8,7.2l0.6,3L409.5,54.5z"/>
			<path d="M425,45h-2.2v-2.4h2.2V45z M425,59.7h-2.2V47.3h2.2V59.7z"/>
			<path d="M437.3,47.5c0.6,0.3,1.1,0.8,1.5,1.4c0.3,0.6,0.5,1.4,0.5,2.2v8.6H437v-8.2c0-1.7-0.8-2.6-2.5-2.6
				c-0.6,0-1.2,0.1-1.7,0.4c-0.5,0.2-1,0.7-1.3,1.2c-0.3,0.6-0.5,1.3-0.5,2.3v6.9h-2.2V47.3h2.1v1.8c0.4-0.7,1-1.2,1.7-1.5
				c0.7-0.4,1.5-0.5,2.4-0.5C435.9,47,436.7,47.2,437.3,47.5z"/>
			<path d="M443.6,59c-0.9-0.7-1.4-1.7-1.5-3.1l2.1-0.1c0.1,0.8,0.4,1.5,0.9,1.9c0.5,0.4,1.2,0.6,2.2,0.6c1,0,1.7-0.2,2.2-0.5
				c0.5-0.3,0.8-0.8,0.8-1.4c0-0.5-0.2-0.9-0.5-1.2c-0.3-0.3-0.8-0.5-1.5-0.6l-2.5-0.5c-1.2-0.3-2.1-0.7-2.6-1.2
				c-0.6-0.6-0.8-1.3-0.8-2.1c0-0.7,0.2-1.3,0.5-1.9c0.3-0.5,0.9-1,1.6-1.2c0.7-0.3,1.5-0.4,2.5-0.4c1.4,0,2.6,0.3,3.5,0.9
				s1.4,1.6,1.6,2.8l-2.2,0.1c-0.1-0.7-0.4-1.3-0.9-1.6c-0.5-0.4-1.2-0.5-2-0.5c-0.8,0-1.4,0.1-1.8,0.4c-0.4,0.3-0.6,0.7-0.6,1.2
				c0,0.4,0.1,0.8,0.4,1s0.8,0.5,1.5,0.6l2.4,0.5c1.3,0.3,2.2,0.7,2.8,1.3c0.6,0.6,0.9,1.3,0.9,2.2c0,0.8-0.2,1.5-0.6,2.1
				s-1,1-1.8,1.4c-0.8,0.3-1.7,0.5-2.8,0.5C445.7,60,444.5,59.7,443.6,59z"/>
			<path d="M463.4,47.3h2.2v12.4h-2.1V58c-0.4,0.7-1,1.2-1.7,1.5c-0.7,0.4-1.5,0.5-2.4,0.5c-0.9,0-1.6-0.2-2.2-0.5s-1.1-0.8-1.5-1.4
				c-0.3-0.6-0.5-1.4-0.5-2.2v-8.6h2.2v8.2c0,1.7,0.8,2.6,2.5,2.6c0.6,0,1.2-0.1,1.7-0.4c0.5-0.2,1-0.7,1.3-1.2s0.5-1.3,0.5-2.3
				V47.3z"/>
			<path d="M476,47v2.1c-0.2,0-0.5,0-0.8,0c-0.6,0-1.1,0.1-1.6,0.4s-1,0.7-1.3,1.3c-0.4,0.6-0.5,1.3-0.6,2.1v6.8h-2.2V47.3h2.1v2.4
				c0.8-1.8,2.1-2.7,3.8-2.7C475.5,47,475.7,47,476,47z"/>
			<path d="M489.1,54h-9.3c0,1.4,0.4,2.4,1,3.1c0.7,0.7,1.6,1.1,2.7,1.1c0.8,0,1.5-0.2,2.1-0.6s1-0.9,1.3-1.7l2,0.2
				c-0.4,1.2-1.1,2.2-2,2.8s-2.1,1-3.4,1c-1.2,0-2.3-0.3-3.1-0.8s-1.6-1.3-2-2.3c-0.5-1-0.7-2.1-0.7-3.4c0-1.3,0.2-2.4,0.7-3.3
				c0.5-1,1.1-1.7,2-2.3c0.9-0.5,1.9-0.8,3.1-0.8c1.2,0,2.2,0.2,3,0.7c0.9,0.5,1.5,1.2,2,2.1s0.7,2,0.7,3.3V54z M481,49.8
				c-0.6,0.6-1,1.5-1.1,2.7h7.2c-0.1-1.2-0.5-2.1-1.1-2.7c-0.6-0.6-1.4-0.9-2.4-0.9C482.4,48.8,481.6,49.1,481,49.8z"/>
			<path d="M500.6,42.6h2.2v17.1h-1.9v-2c-0.4,0.7-0.9,1.2-1.6,1.6c-0.7,0.4-1.5,0.6-2.4,0.6c-1.1,0-2.1-0.3-2.9-0.9
				c-0.8-0.6-1.4-1.4-1.9-2.4c-0.4-1-0.6-2.2-0.6-3.4c0-1.2,0.2-2.3,0.7-3.3c0.5-1,1.1-1.7,1.9-2.2c0.8-0.5,1.7-0.8,2.8-0.8
				c0.8,0,1.5,0.2,2.2,0.5c0.6,0.3,1.2,0.7,1.6,1.3V42.6z M498.9,57.5c0.5-0.4,1-0.9,1.3-1.6c0.3-0.7,0.5-1.5,0.5-2.5
				c0-0.9-0.2-1.7-0.5-2.4s-0.7-1.2-1.2-1.5s-1.1-0.5-1.8-0.5c-1.1,0-1.9,0.4-2.5,1.1c-0.6,0.8-0.9,1.8-0.9,3.2c0,1,0.1,1.8,0.4,2.5
				c0.3,0.7,0.7,1.3,1.2,1.7c0.5,0.4,1.1,0.6,1.8,0.6C497.8,58.1,498.4,57.9,498.9,57.5z"/>
			<path d="M507.2,59c-0.9-0.7-1.4-1.7-1.5-3.1l2.1-0.1c0.1,0.8,0.4,1.5,0.9,1.9c0.5,0.4,1.2,0.6,2.2,0.6c1,0,1.7-0.2,2.2-0.5
				c0.5-0.3,0.8-0.8,0.8-1.4c0-0.5-0.2-0.9-0.5-1.2c-0.3-0.3-0.8-0.5-1.5-0.6l-2.5-0.5c-1.2-0.3-2.1-0.7-2.6-1.2
				c-0.6-0.6-0.8-1.3-0.8-2.1c0-0.7,0.2-1.3,0.5-1.9c0.3-0.5,0.9-1,1.6-1.2c0.7-0.3,1.5-0.4,2.5-0.4c1.4,0,2.6,0.3,3.5,0.9
				s1.4,1.6,1.6,2.8l-2.2,0.1c-0.1-0.7-0.4-1.3-0.9-1.6c-0.5-0.4-1.2-0.5-2-0.5c-0.8,0-1.4,0.1-1.8,0.4c-0.4,0.3-0.6,0.7-0.6,1.2
				c0,0.4,0.1,0.8,0.4,1s0.8,0.5,1.5,0.6l2.4,0.5c1.3,0.3,2.2,0.7,2.8,1.3c0.6,0.6,0.9,1.3,0.9,2.2c0,0.8-0.2,1.5-0.6,2.1
				s-1,1-1.8,1.4c-0.8,0.3-1.7,0.5-2.8,0.5C509.2,60,508,59.7,507.2,59z"/>
			<path d="M519.1,57.3h2.6v3.8c0,1.7-0.8,2.6-2.4,2.6h-0.2v-1.2h0.2c0.8,0,1.1-0.4,1.1-1.1v-1.7h-1.4V57.3z"/>
			<path d="M33,88c-0.9-0.5-1.6-1.3-2.1-2.3c-0.5-1-0.7-2.1-0.7-3.4c0-1.3,0.3-2.5,0.8-3.4c0.5-1,1.2-1.7,2.1-2.3
				c0.9-0.5,2-0.8,3.1-0.8c1.2,0,2.2,0.3,3.1,0.8c0.9,0.5,1.6,1.3,2.1,2.2c0.5,1,0.8,2.1,0.8,3.4c0,1.3-0.3,2.4-0.8,3.4
				c-0.5,1-1.2,1.8-2.1,2.3c-0.9,0.6-1.9,0.8-3.1,0.8C35,88.8,33.9,88.5,33,88z M38.2,86.4c0.6-0.4,1-1,1.3-1.7s0.4-1.5,0.4-2.5
				c0-0.9-0.1-1.7-0.4-2.4c-0.3-0.7-0.7-1.2-1.3-1.6c-0.6-0.4-1.2-0.6-2-0.6c-0.8,0-1.4,0.2-2,0.6c-0.6,0.4-1,0.9-1.3,1.6
				s-0.4,1.5-0.4,2.4c0,0.9,0.2,1.7,0.5,2.4c0.3,0.7,0.7,1.2,1.3,1.6c0.6,0.4,1.2,0.6,2,0.6C36.9,87,37.6,86.8,38.2,86.4z"/>
			<path d="M53.7,76.3c0.6,0.3,1.1,0.8,1.5,1.4c0.3,0.6,0.5,1.4,0.5,2.2v8.6h-2.2v-8.2c0-1.7-0.8-2.6-2.5-2.6
				c-0.6,0-1.2,0.1-1.7,0.4c-0.5,0.2-1,0.7-1.3,1.2c-0.3,0.6-0.5,1.3-0.5,2.3v6.9h-2.2V76.1h2.1v1.8c0.4-0.7,1-1.2,1.7-1.5
				c0.7-0.4,1.5-0.5,2.4-0.5C52.3,75.8,53.1,76,53.7,76.3z"/>
			<path d="M77.2,86.9v1.6h-1.2c-1.3,0-2-0.6-2.1-1.8c-0.4,0.6-1,1.2-1.8,1.5c-0.8,0.4-1.7,0.6-2.7,0.6c-0.8,0-1.6-0.1-2.2-0.4
				c-0.6-0.3-1.1-0.7-1.5-1.2c-0.3-0.5-0.5-1.2-0.5-1.9c0-1.1,0.3-1.9,1-2.6c0.7-0.7,1.7-1.1,3.2-1.3l3.2-0.4c0.3,0,0.5-0.1,0.7-0.3
				c0.1-0.2,0.2-0.4,0.2-0.7v-0.5c0-0.7-0.2-1.1-0.7-1.5c-0.4-0.3-1.2-0.5-2.1-0.5c-0.9,0-1.6,0.2-2,0.5C68.3,78.4,68,79,68,79.8
				h-2.2c0.1-1.4,0.6-2.4,1.5-3s2.1-1,3.7-1c1.6,0,2.8,0.3,3.6,1c0.8,0.7,1.2,1.6,1.2,3v6c0,0.4,0.1,0.7,0.2,0.8s0.4,0.2,0.8,0.2
				H77.2z M71.7,86.7c0.6-0.3,1-0.6,1.4-1.1s0.5-0.9,0.5-1.5v-1.7L69.9,83c-0.8,0.1-1.4,0.4-1.8,0.7s-0.6,0.8-0.6,1.4
				c0,0.6,0.2,1.1,0.6,1.5c0.4,0.4,1,0.5,1.7,0.5C70.5,87.1,71.1,87,71.7,86.7z"/>
			<path d="M88.1,76.3c0.6,0.3,1.1,0.8,1.5,1.4c0.3,0.6,0.5,1.4,0.5,2.2v8.6h-2.2v-8.2c0-1.7-0.8-2.6-2.5-2.6
				c-0.6,0-1.2,0.1-1.7,0.4c-0.5,0.2-1,0.7-1.3,1.2c-0.3,0.6-0.5,1.3-0.5,2.3v6.9h-2.2V76.1h2.1v1.8c0.4-0.7,1-1.2,1.7-1.5
				c0.7-0.4,1.5-0.5,2.4-0.5C86.7,75.8,87.5,76,88.1,76.3z"/>
			<path d="M102.5,88c-0.9-0.5-1.6-1.3-2.1-2.3c-0.5-1-0.7-2.1-0.7-3.4c0-1.3,0.3-2.5,0.8-3.4c0.5-1,1.2-1.7,2.1-2.3
				c0.9-0.5,2-0.8,3.1-0.8c1.2,0,2.2,0.3,3.1,0.8c0.9,0.5,1.6,1.3,2.1,2.2c0.5,1,0.8,2.1,0.8,3.4c0,1.3-0.3,2.4-0.8,3.4
				c-0.5,1-1.2,1.8-2.1,2.3c-0.9,0.6-1.9,0.8-3.1,0.8C104.4,88.8,103.4,88.5,102.5,88z M107.6,86.4c0.6-0.4,1-1,1.3-1.7
				s0.4-1.5,0.4-2.5c0-0.9-0.1-1.7-0.4-2.4c-0.3-0.7-0.7-1.2-1.3-1.6c-0.6-0.4-1.2-0.6-2-0.6c-0.8,0-1.4,0.2-2,0.6
				c-0.6,0.4-1,0.9-1.3,1.6s-0.4,1.5-0.4,2.4c0,0.9,0.2,1.7,0.5,2.4c0.3,0.7,0.7,1.2,1.3,1.6c0.6,0.4,1.2,0.6,2,0.6
				C106.4,87,107.1,86.8,107.6,86.4z"/>
			<path d="M123.5,76.6c0.8,0.5,1.4,1.2,1.9,2.2s0.7,2,0.7,3.2c0,1.3-0.2,2.4-0.7,3.5c-0.4,1-1.1,1.8-1.9,2.4
				c-0.8,0.6-1.8,0.9-2.9,0.9c-0.8,0-1.5-0.2-2.1-0.5c-0.6-0.3-1.2-0.8-1.6-1.3v6.4h-2.2V76.1h1.9v2c0.4-0.7,0.9-1.2,1.6-1.6
				c0.7-0.4,1.5-0.6,2.4-0.6C121.7,75.9,122.6,76.1,123.5,76.6z M122.2,86.3c0.5-0.4,0.9-1,1.2-1.7c0.3-0.7,0.4-1.6,0.4-2.5
				c0-1.4-0.3-2.5-0.9-3.2c-0.6-0.7-1.4-1.1-2.5-1.1c-0.7,0-1.3,0.2-1.9,0.5s-1,0.8-1.3,1.5s-0.5,1.5-0.5,2.4c0,1,0.2,1.8,0.5,2.5
				s0.7,1.3,1.3,1.6c0.5,0.4,1.2,0.6,1.8,0.6C121.1,86.9,121.7,86.7,122.2,86.3z"/>
			<path d="M131.7,77.7v7.7c0,0.4,0.1,0.8,0.3,0.9c0.2,0.2,0.5,0.3,0.9,0.3h1.6v1.8h-2.3c-1,0-1.7-0.2-2.1-0.7
				c-0.4-0.4-0.7-1.1-0.7-2.1v-8l-1.8,0.1v-1.7l1.8,0.1v-3.9h2.2v3.9l2.8-0.1v1.7L131.7,77.7z"/>
			<path d="M139.4,73.8h-2.2v-2.4h2.2V73.8z M139.4,88.5h-2.2V76.1h2.2V88.5z"/>
			<path d="M145.4,88c-0.9-0.5-1.6-1.3-2.1-2.3c-0.5-1-0.7-2.1-0.7-3.4c0-1.3,0.3-2.5,0.8-3.4c0.5-1,1.2-1.7,2.1-2.3
				c0.9-0.5,2-0.8,3.1-0.8c1.2,0,2.2,0.3,3.1,0.8c0.9,0.5,1.6,1.3,2.1,2.2c0.5,1,0.8,2.1,0.8,3.4c0,1.3-0.3,2.4-0.8,3.4
				c-0.5,1-1.2,1.8-2.1,2.3c-0.9,0.6-1.9,0.8-3.1,0.8C147.3,88.8,146.3,88.5,145.4,88z M150.5,86.4c0.6-0.4,1-1,1.3-1.7
				s0.4-1.5,0.4-2.5c0-0.9-0.1-1.7-0.4-2.4c-0.3-0.7-0.7-1.2-1.3-1.6c-0.6-0.4-1.2-0.6-2-0.6c-0.8,0-1.4,0.2-2,0.6
				c-0.6,0.4-1,0.9-1.3,1.6s-0.4,1.5-0.4,2.4c0,0.9,0.2,1.7,0.5,2.4c0.3,0.7,0.7,1.2,1.3,1.6c0.6,0.4,1.2,0.6,2,0.6
				C149.3,87,150,86.8,150.5,86.4z"/>
			<path d="M166.1,76.3c0.6,0.3,1.1,0.8,1.5,1.4c0.3,0.6,0.5,1.4,0.5,2.2v8.6h-2.2v-8.2c0-1.7-0.8-2.6-2.5-2.6
				c-0.6,0-1.2,0.1-1.7,0.4c-0.5,0.2-1,0.7-1.3,1.2c-0.3,0.6-0.5,1.3-0.5,2.3v6.9h-2.2V76.1h2.1v1.8c0.4-0.7,1-1.2,1.7-1.5
				c0.7-0.4,1.5-0.5,2.4-0.5C164.7,75.8,165.4,76,166.1,76.3z"/>
			<path d="M183.1,86.9v1.6H182c-1.3,0-2-0.6-2.1-1.8c-0.4,0.6-1,1.2-1.8,1.5c-0.8,0.4-1.7,0.6-2.7,0.6c-0.8,0-1.6-0.1-2.2-0.4
				c-0.6-0.3-1.1-0.7-1.5-1.2c-0.3-0.5-0.5-1.2-0.5-1.9c0-1.1,0.3-1.9,1-2.6c0.7-0.7,1.7-1.1,3.2-1.3l3.2-0.4c0.3,0,0.5-0.1,0.7-0.3
				c0.1-0.2,0.2-0.4,0.2-0.7v-0.5c0-0.7-0.2-1.1-0.7-1.5c-0.4-0.3-1.2-0.5-2.1-0.5c-0.9,0-1.6,0.2-2,0.5c-0.4,0.3-0.7,0.9-0.8,1.7
				h-2.2c0.1-1.4,0.6-2.4,1.5-3s2.1-1,3.7-1c1.6,0,2.8,0.3,3.6,1c0.8,0.7,1.2,1.6,1.2,3v6c0,0.4,0.1,0.7,0.2,0.8s0.4,0.2,0.8,0.2
				H183.1z M177.6,86.7c0.6-0.3,1-0.6,1.4-1.1s0.5-0.9,0.5-1.5v-1.7l-3.7,0.6c-0.8,0.1-1.4,0.4-1.8,0.7s-0.6,0.8-0.6,1.4
				c0,0.6,0.2,1.1,0.6,1.5c0.4,0.4,1,0.5,1.7,0.5C176.4,87.1,177,87,177.6,86.7z"/>
			<path d="M187.7,88.5h-2.2V71.4h2.2V88.5z"/>
			<path d="M206.8,76.6c0.8,0.5,1.4,1.2,1.9,2.2s0.7,2,0.7,3.2c0,1.3-0.2,2.4-0.7,3.5c-0.4,1-1.1,1.8-1.9,2.4
				c-0.8,0.6-1.8,0.9-2.9,0.9c-0.9,0-1.6-0.2-2.4-0.6s-1.2-0.9-1.6-1.6v1.9h-1.9V71.4h2.2v6.2c0.4-0.6,0.9-1,1.6-1.3
				c0.7-0.3,1.4-0.5,2.2-0.5C205.1,75.9,206,76.1,206.8,76.6z M205.5,86.3c0.5-0.4,0.9-1,1.2-1.7c0.3-0.7,0.4-1.6,0.4-2.5
				c0-1.4-0.3-2.5-0.9-3.2c-0.6-0.7-1.4-1.1-2.5-1.1c-0.7,0-1.3,0.2-1.9,0.5s-1,0.8-1.3,1.5s-0.5,1.5-0.5,2.4c0,1,0.2,1.8,0.5,2.5
				s0.7,1.3,1.3,1.6c0.5,0.4,1.2,0.6,1.8,0.6C204.4,86.9,205,86.7,205.5,86.3z"/>
			<path d="M223.8,86.9v1.6h-1.2c-1.3,0-2-0.6-2.1-1.8c-0.4,0.6-1,1.2-1.8,1.5c-0.8,0.4-1.7,0.6-2.7,0.6c-0.8,0-1.6-0.1-2.2-0.4
				c-0.6-0.3-1.1-0.7-1.5-1.2c-0.3-0.5-0.5-1.2-0.5-1.9c0-1.1,0.3-1.9,1-2.6c0.7-0.7,1.7-1.1,3.2-1.3l3.2-0.4c0.3,0,0.5-0.1,0.7-0.3
				c0.1-0.2,0.2-0.4,0.2-0.7v-0.5c0-0.7-0.2-1.1-0.7-1.5c-0.4-0.3-1.2-0.5-2.1-0.5c-0.9,0-1.6,0.2-2,0.5c-0.4,0.3-0.7,0.9-0.8,1.7
				h-2.2c0.1-1.4,0.6-2.4,1.5-3s2.1-1,3.7-1c1.6,0,2.8,0.3,3.6,1c0.8,0.7,1.2,1.6,1.2,3v6c0,0.4,0.1,0.7,0.2,0.8s0.4,0.2,0.8,0.2
				H223.8z M218.2,86.7c0.6-0.3,1-0.6,1.4-1.1s0.5-0.9,0.5-1.5v-1.7l-3.7,0.6c-0.8,0.1-1.4,0.4-1.8,0.7s-0.6,0.8-0.6,1.4
				c0,0.6,0.2,1.1,0.6,1.5c0.4,0.4,1,0.5,1.7,0.5C217,87.1,217.6,87,218.2,86.7z"/>
			<path d="M226.7,87.8c-0.9-0.7-1.4-1.7-1.5-3.1l2.1-0.1c0.1,0.8,0.4,1.5,0.9,1.9c0.5,0.4,1.2,0.6,2.2,0.6c1,0,1.7-0.2,2.2-0.5
				c0.5-0.3,0.8-0.8,0.8-1.4c0-0.5-0.2-0.9-0.5-1.2c-0.3-0.3-0.8-0.5-1.5-0.6l-2.5-0.5c-1.2-0.3-2.1-0.7-2.6-1.2
				c-0.6-0.6-0.8-1.3-0.8-2.1c0-0.7,0.2-1.3,0.5-1.9c0.3-0.5,0.9-1,1.6-1.2c0.7-0.3,1.5-0.4,2.5-0.4c1.4,0,2.6,0.3,3.5,0.9
				s1.4,1.6,1.6,2.8l-2.2,0.1c-0.1-0.7-0.4-1.3-0.9-1.6c-0.5-0.4-1.2-0.5-2-0.5c-0.8,0-1.4,0.1-1.8,0.4c-0.4,0.3-0.6,0.7-0.6,1.2
				c0,0.4,0.1,0.8,0.4,1s0.8,0.5,1.5,0.6l2.4,0.5c1.3,0.3,2.2,0.7,2.8,1.3c0.6,0.6,0.9,1.3,0.9,2.2c0,0.8-0.2,1.5-0.6,2.1
				s-1,1-1.8,1.4c-0.8,0.3-1.7,0.5-2.8,0.5C228.8,88.8,227.6,88.5,226.7,87.8z"/>
			<path d="M240.5,73.8h-2.2v-2.4h2.2V73.8z M240.5,88.5h-2.2V76.1h2.2V88.5z"/>
			<path d="M244.9,87.8c-0.9-0.7-1.4-1.7-1.5-3.1l2.1-0.1c0.1,0.8,0.4,1.5,0.9,1.9c0.5,0.4,1.2,0.6,2.2,0.6c1,0,1.7-0.2,2.2-0.5
				c0.5-0.3,0.8-0.8,0.8-1.4c0-0.5-0.2-0.9-0.5-1.2c-0.3-0.3-0.8-0.5-1.5-0.6l-2.5-0.5c-1.2-0.3-2.1-0.7-2.6-1.2
				c-0.6-0.6-0.8-1.3-0.8-2.1c0-0.7,0.2-1.3,0.5-1.9c0.3-0.5,0.9-1,1.6-1.2c0.7-0.3,1.5-0.4,2.5-0.4c1.4,0,2.6,0.3,3.5,0.9
				s1.4,1.6,1.6,2.8l-2.2,0.1c-0.1-0.7-0.4-1.3-0.9-1.6c-0.5-0.4-1.2-0.5-2-0.5c-0.8,0-1.4,0.1-1.8,0.4c-0.4,0.3-0.6,0.7-0.6,1.2
				c0,0.4,0.1,0.8,0.4,1s0.8,0.5,1.5,0.6l2.4,0.5c1.3,0.3,2.2,0.7,2.8,1.3c0.6,0.6,0.9,1.3,0.9,2.2c0,0.8-0.2,1.5-0.6,2.1
				s-1,1-1.8,1.4c-0.8,0.3-1.7,0.5-2.8,0.5C247,88.8,245.7,88.5,244.9,87.8z"/>
			<path d="M256.8,86.1h2.6v3.8c0,1.7-0.8,2.6-2.4,2.6h-0.2v-1.2h0.2c0.8,0,1.1-0.4,1.1-1.1v-1.7h-1.4V86.1z"/>
			<path d="M273.2,77.7v7.7c0,0.4,0.1,0.8,0.3,0.9c0.2,0.2,0.5,0.3,0.9,0.3h1.6v1.8h-2.3c-1,0-1.7-0.2-2.1-0.7
				c-0.4-0.4-0.7-1.1-0.7-2.1v-8l-1.8,0.1v-1.7l1.8,0.1v-3.9h2.2v3.9l2.8-0.1v1.7L273.2,77.7z"/>
			<path d="M280.8,88c-0.9-0.5-1.6-1.3-2.1-2.3c-0.5-1-0.7-2.1-0.7-3.4c0-1.3,0.3-2.5,0.8-3.4c0.5-1,1.2-1.7,2.1-2.3
				c0.9-0.5,2-0.8,3.1-0.8c1.2,0,2.2,0.3,3.1,0.8c0.9,0.5,1.6,1.3,2.1,2.2c0.5,1,0.8,2.1,0.8,3.4c0,1.3-0.3,2.4-0.8,3.4
				c-0.5,1-1.2,1.8-2.1,2.3c-0.9,0.6-1.9,0.8-3.1,0.8C282.8,88.8,281.7,88.5,280.8,88z M286,86.4c0.6-0.4,1-1,1.3-1.7
				s0.4-1.5,0.4-2.5c0-0.9-0.1-1.7-0.4-2.4c-0.3-0.7-0.7-1.2-1.3-1.6c-0.6-0.4-1.2-0.6-2-0.6c-0.8,0-1.4,0.2-2,0.6
				c-0.6,0.4-1,0.9-1.3,1.6s-0.4,1.5-0.4,2.4c0,0.9,0.2,1.7,0.5,2.4c0.3,0.7,0.7,1.2,1.3,1.6c0.6,0.4,1.2,0.6,2,0.6
				C284.7,87,285.4,86.8,286,86.4z"/>
			<path d="M308.1,76.1h2.1v12c0,1.9-0.5,3.3-1.5,4.2c-1,0.9-2.4,1.4-4.3,1.4c-1.5,0-2.7-0.3-3.6-0.9c-0.9-0.6-1.5-1.5-1.6-2.7h2.2
				c0.2,0.7,0.5,1.2,1,1.4s1.2,0.4,2.1,0.4c0.9,0,1.6-0.1,2.1-0.4s0.9-0.6,1.2-1.2c0.2-0.5,0.4-1.2,0.4-2.1v-1.6
				c-0.4,0.6-0.9,1.1-1.6,1.5c-0.7,0.4-1.4,0.6-2.3,0.6c-1.1,0-2.1-0.3-2.9-0.9c-0.8-0.6-1.4-1.4-1.9-2.4c-0.4-1-0.6-2.2-0.6-3.4
				c0-1.2,0.2-2.3,0.7-3.3c0.5-1,1.1-1.7,1.9-2.2c0.8-0.5,1.7-0.8,2.8-0.8c0.9,0,1.7,0.2,2.4,0.6c0.7,0.4,1.2,0.9,1.6,1.6V76.1z
				 M306.2,86.3c0.5-0.4,1-0.9,1.3-1.6c0.3-0.7,0.5-1.5,0.5-2.5c0-0.9-0.2-1.7-0.5-2.4s-0.7-1.2-1.2-1.5s-1.1-0.5-1.8-0.5
				c-1.1,0-1.9,0.4-2.5,1.1c-0.6,0.8-0.9,1.8-0.9,3.2c0,1,0.1,1.8,0.4,2.5c0.3,0.7,0.7,1.3,1.2,1.7c0.5,0.4,1.1,0.6,1.8,0.6
				C305.1,86.9,305.7,86.7,306.2,86.3z"/>
			<path d="M316.3,73.8H314v-2.4h2.2V73.8z M316.3,88.5H314V76.1h2.2V88.5z"/>
			<path d="M325.7,83.3l2.4-7.2h2.2l-4.5,12.4h-2.2l-4.8-12.4h2.4l2.5,7.2l1,3.3L325.7,83.3z"/>
			<path d="M343.1,82.8h-9.3c0,1.4,0.4,2.4,1,3.1c0.7,0.7,1.6,1.1,2.7,1.1c0.8,0,1.5-0.2,2.1-0.6s1-0.9,1.3-1.7l2,0.2
				c-0.4,1.2-1.1,2.2-2,2.8s-2.1,1-3.4,1c-1.2,0-2.3-0.3-3.1-0.8s-1.6-1.3-2-2.3c-0.5-1-0.7-2.1-0.7-3.4c0-1.3,0.2-2.4,0.7-3.3
				c0.5-1,1.1-1.7,2-2.3c0.9-0.5,1.9-0.8,3.1-0.8c1.2,0,2.2,0.2,3,0.7c0.9,0.5,1.5,1.2,2,2.1s0.7,2,0.7,3.3V82.8z M334.9,78.6
				c-0.6,0.6-1,1.5-1.1,2.7h7.2c-0.1-1.2-0.5-2.1-1.1-2.7c-0.6-0.6-1.4-0.9-2.4-0.9C336.4,77.6,335.6,77.9,334.9,78.6z"/>
			<path d="M361.1,76.3c0.6,0.3,1.1,0.8,1.5,1.4c0.3,0.6,0.5,1.4,0.5,2.2v8.6h-2.2v-8.2c0-1.7-0.8-2.6-2.5-2.6
				c-0.6,0-1.2,0.1-1.7,0.4c-0.5,0.2-1,0.7-1.3,1.2c-0.3,0.6-0.5,1.3-0.5,2.3v6.9h-2.2V76.1h2.1v1.8c0.4-0.7,1-1.2,1.7-1.5
				c0.7-0.4,1.5-0.5,2.4-0.5C359.7,75.8,360.5,76,361.1,76.3z"/>
			<path d="M369,88c-0.9-0.5-1.6-1.3-2.1-2.3c-0.5-1-0.7-2.1-0.7-3.4c0-1.3,0.3-2.5,0.8-3.4c0.5-1,1.2-1.7,2.1-2.3
				c0.9-0.5,2-0.8,3.1-0.8c1.2,0,2.2,0.3,3.1,0.8c0.9,0.5,1.6,1.3,2.1,2.2c0.5,1,0.8,2.1,0.8,3.4c0,1.3-0.3,2.4-0.8,3.4
				c-0.5,1-1.2,1.8-2.1,2.3c-0.9,0.6-1.9,0.8-3.1,0.8C371,88.8,369.9,88.5,369,88z M374.2,86.4c0.6-0.4,1-1,1.3-1.7s0.4-1.5,0.4-2.5
				c0-0.9-0.1-1.7-0.4-2.4c-0.3-0.7-0.7-1.2-1.3-1.6c-0.6-0.4-1.2-0.6-2-0.6c-0.8,0-1.4,0.2-2,0.6c-0.6,0.4-1,0.9-1.3,1.6
				s-0.4,1.5-0.4,2.4c0,0.9,0.2,1.7,0.5,2.4c0.3,0.7,0.7,1.2,1.3,1.6c0.6,0.4,1.2,0.6,2,0.6C372.9,87,373.6,86.8,374.2,86.4z"/>
			<path d="M383.9,77.7v7.7c0,0.4,0.1,0.8,0.3,0.9c0.2,0.2,0.5,0.3,0.9,0.3h1.6v1.8h-2.3c-1,0-1.7-0.2-2.1-0.7
				c-0.4-0.4-0.7-1.1-0.7-2.1v-8l-1.8,0.1v-1.7l1.8,0.1v-3.9h2.2v3.9l2.8-0.1v1.7L383.9,77.7z"/>
			<path d="M391.5,73.8h-2.2v-2.4h2.2V73.8z M391.5,88.5h-2.2V76.1h2.2V88.5z"/>
			<path d="M397.4,88.1c-0.9-0.5-1.5-1.2-2-2.2c-0.5-1-0.7-2.1-0.7-3.5c0-1.4,0.2-2.6,0.7-3.6c0.5-1,1.2-1.7,2-2.3
				c0.9-0.5,1.9-0.8,3.1-0.8c1.4,0,2.6,0.4,3.5,1.1c0.9,0.8,1.5,1.8,1.7,3.2h-2.1c-0.3-1.7-1.4-2.5-3.1-2.5c-1.2,0-2.2,0.4-2.8,1.2
				c-0.6,0.8-0.9,2-0.9,3.4c0,1.5,0.3,2.6,0.9,3.4c0.6,0.8,1.5,1.2,2.7,1.2c0.9,0,1.6-0.2,2.1-0.7c0.5-0.5,0.9-1.2,1-2.1h2.1
				c-0.2,1.5-0.8,2.6-1.7,3.4c-0.9,0.8-2.1,1.2-3.7,1.2C399.2,88.8,398.2,88.6,397.4,88.1z"/>
			<path d="M419.5,82.8h-9.3c0,1.4,0.4,2.4,1,3.1c0.7,0.7,1.6,1.1,2.7,1.1c0.8,0,1.5-0.2,2.1-0.6s1-0.9,1.3-1.7l2,0.2
				c-0.4,1.2-1.1,2.2-2,2.8s-2.1,1-3.4,1c-1.2,0-2.3-0.3-3.1-0.8s-1.6-1.3-2-2.3c-0.5-1-0.7-2.1-0.7-3.4c0-1.3,0.2-2.4,0.7-3.3
				c0.5-1,1.1-1.7,2-2.3c0.9-0.5,1.9-0.8,3.1-0.8c1.2,0,2.2,0.2,3,0.7c0.9,0.5,1.5,1.2,2,2.1s0.7,2,0.7,3.3V82.8z M411.4,78.6
				c-0.6,0.6-1,1.5-1.1,2.7h7.2c-0.1-1.2-0.5-2.1-1.1-2.7c-0.6-0.6-1.4-0.9-2.4-0.9C412.9,77.6,412,77.9,411.4,78.6z"/>
			<path d="M431.2,88c-0.9-0.5-1.6-1.3-2.1-2.3c-0.5-1-0.7-2.1-0.7-3.4c0-1.3,0.3-2.5,0.8-3.4c0.5-1,1.2-1.7,2.1-2.3
				c0.9-0.5,2-0.8,3.1-0.8c1.2,0,2.2,0.3,3.1,0.8c0.9,0.5,1.6,1.3,2.1,2.2c0.5,1,0.8,2.1,0.8,3.4c0,1.3-0.3,2.4-0.8,3.4
				c-0.5,1-1.2,1.8-2.1,2.3c-0.9,0.6-1.9,0.8-3.1,0.8C433.2,88.8,432.2,88.5,431.2,88z M436.4,86.4c0.6-0.4,1-1,1.3-1.7
				s0.4-1.5,0.4-2.5c0-0.9-0.1-1.7-0.4-2.4c-0.3-0.7-0.7-1.2-1.3-1.6c-0.6-0.4-1.2-0.6-2-0.6c-0.8,0-1.4,0.2-2,0.6
				c-0.6,0.4-1,0.9-1.3,1.6s-0.4,1.5-0.4,2.4c0,0.9,0.2,1.7,0.5,2.4c0.3,0.7,0.7,1.2,1.3,1.6c0.6,0.4,1.2,0.6,2,0.6
				C435.1,87,435.8,86.8,436.4,86.4z"/>
			<path d="M448.3,73.3c-0.4,0-0.7,0-0.9,0.1c-0.2,0.1-0.4,0.3-0.5,0.5c-0.1,0.2-0.1,0.5-0.1,0.9v1.4l2.8-0.1v1.7l-2.8-0.1v10.8
				h-2.2V77.7l-2,0.1v-1.7l2,0.1v-1.1c0-1.3,0.3-2.2,0.9-2.8c0.6-0.6,1.5-0.9,2.8-0.9h1.3v1.8H448.3z"/>
			<path d="M32.9,116.9c-0.9-0.5-1.5-1.2-2-2.2c-0.5-1-0.7-2.1-0.7-3.5c0-1.4,0.2-2.6,0.7-3.6c0.5-1,1.2-1.7,2-2.3
				c0.9-0.5,1.9-0.8,3.1-0.8c1.4,0,2.6,0.4,3.5,1.1c0.9,0.8,1.5,1.8,1.7,3.2h-2.1c-0.3-1.7-1.4-2.5-3.1-2.5c-1.2,0-2.2,0.4-2.8,1.2
				c-0.6,0.8-0.9,2-0.9,3.4c0,1.5,0.3,2.6,0.9,3.4c0.6,0.8,1.5,1.2,2.7,1.2c0.9,0,1.6-0.2,2.1-0.7c0.5-0.5,0.9-1.2,1-2.1h2.1
				c-0.2,1.5-0.8,2.6-1.7,3.4c-0.9,0.8-2.1,1.2-3.7,1.2C34.8,117.6,33.8,117.4,32.9,116.9z"/>
			<path d="M46.5,102.6h-2.2v-2.4h2.2V102.6z M46.5,117.3h-2.2v-12.4h2.2V117.3z"/>
			<path d="M56.9,104.6v2.1c-0.2,0-0.5,0-0.8,0c-0.6,0-1.1,0.1-1.6,0.4s-1,0.7-1.3,1.3c-0.4,0.6-0.5,1.3-0.6,2.1v6.8h-2.2v-12.4h2.1
				v2.4c0.8-1.8,2.1-2.7,3.8-2.7C56.4,104.6,56.6,104.6,56.9,104.6z"/>
			<path d="M61.1,116.9c-0.9-0.5-1.5-1.2-2-2.2c-0.5-1-0.7-2.1-0.7-3.5c0-1.4,0.2-2.6,0.7-3.6c0.5-1,1.2-1.7,2-2.3
				c0.9-0.5,1.9-0.8,3.1-0.8c1.4,0,2.6,0.4,3.5,1.1c0.9,0.8,1.5,1.8,1.7,3.2h-2.1c-0.3-1.7-1.4-2.5-3.1-2.5c-1.2,0-2.2,0.4-2.8,1.2
				c-0.6,0.8-0.9,2-0.9,3.4c0,1.5,0.3,2.6,0.9,3.4c0.6,0.8,1.5,1.2,2.7,1.2c0.9,0,1.6-0.2,2.1-0.7c0.5-0.5,0.9-1.2,1-2.1h2.1
				c-0.2,1.5-0.8,2.6-1.7,3.4c-0.9,0.8-2.1,1.2-3.7,1.2C63,117.6,62,117.4,61.1,116.9z"/>
			<path d="M80.7,104.9h2.2v12.4h-2.1v-1.8c-0.4,0.7-1,1.2-1.7,1.5c-0.7,0.4-1.5,0.5-2.4,0.5c-0.9,0-1.6-0.2-2.2-0.5
				s-1.1-0.8-1.5-1.4c-0.3-0.6-0.5-1.4-0.5-2.2v-8.6h2.2v8.2c0,1.7,0.8,2.6,2.5,2.6c0.6,0,1.2-0.1,1.7-0.4c0.5-0.2,1-0.7,1.3-1.2
				s0.5-1.3,0.5-2.3V104.9z"/>
			<path d="M102.7,105.6c0.6,0.7,1,1.7,1,3.2v8.5h-2.2v-8.5c0-0.7-0.2-1.3-0.6-1.7s-0.9-0.6-1.6-0.6c-0.8,0-1.6,0.3-2.1,0.9
				s-0.9,1.7-0.9,3.1v6.7h-2.2v-8.5c0-0.7-0.2-1.3-0.6-1.7c-0.4-0.4-0.9-0.6-1.6-0.6c-0.5,0-1,0.1-1.5,0.4s-0.8,0.7-1.1,1.3
				c-0.3,0.6-0.4,1.4-0.4,2.4v6.6h-2.2v-12.4h2.1v1.8c0.8-1.4,2.1-2.1,3.7-2.1c0.8,0,1.6,0.2,2.1,0.6s1,0.9,1.3,1.6
				c0.8-1.4,2.1-2.2,3.9-2.2C101.2,104.6,102.1,105,102.7,105.6z"/>
			<path d="M108.1,116.6c-0.9-0.7-1.4-1.7-1.5-3.1l2.1-0.1c0.1,0.8,0.4,1.5,0.9,1.9c0.5,0.4,1.2,0.6,2.2,0.6c1,0,1.7-0.2,2.2-0.5
				c0.5-0.3,0.8-0.8,0.8-1.4c0-0.5-0.2-0.9-0.5-1.2c-0.3-0.3-0.8-0.5-1.5-0.6l-2.5-0.5c-1.2-0.3-2.1-0.7-2.6-1.2
				c-0.6-0.6-0.8-1.3-0.8-2.1c0-0.7,0.2-1.3,0.5-1.9c0.3-0.5,0.9-1,1.6-1.2c0.7-0.3,1.5-0.4,2.5-0.4c1.4,0,2.6,0.3,3.5,0.9
				s1.4,1.6,1.6,2.8l-2.2,0.1c-0.1-0.7-0.4-1.3-0.9-1.6c-0.5-0.4-1.2-0.5-2-0.5c-0.8,0-1.4,0.1-1.8,0.4c-0.4,0.3-0.6,0.7-0.6,1.2
				c0,0.4,0.1,0.8,0.4,1s0.8,0.5,1.5,0.6l2.4,0.5c1.3,0.3,2.2,0.7,2.8,1.3c0.6,0.6,0.9,1.3,0.9,2.2c0,0.8-0.2,1.5-0.6,2.1
				s-1,1-1.8,1.4c-0.8,0.3-1.7,0.5-2.8,0.5C110.2,117.6,109,117.3,108.1,116.6z"/>
			<path d="M122.8,106.5v7.7c0,0.4,0.1,0.8,0.3,0.9c0.2,0.2,0.5,0.3,0.9,0.3h1.6v1.8h-2.3c-1,0-1.7-0.2-2.1-0.7
				c-0.4-0.4-0.7-1.1-0.7-2.1v-8l-1.8,0.1v-1.7l1.8,0.1v-3.9h2.2v3.9l2.8-0.1v1.7L122.8,106.5z"/>
			<path d="M139.5,115.7v1.6h-1.2c-1.3,0-2-0.6-2.1-1.8c-0.4,0.6-1,1.2-1.8,1.5c-0.8,0.4-1.7,0.6-2.7,0.6c-0.8,0-1.6-0.1-2.2-0.4
				c-0.6-0.3-1.1-0.7-1.5-1.2c-0.3-0.5-0.5-1.2-0.5-1.9c0-1.1,0.3-1.9,1-2.6c0.7-0.7,1.7-1.1,3.2-1.3l3.2-0.4c0.3,0,0.5-0.1,0.7-0.3
				c0.1-0.2,0.2-0.4,0.2-0.7v-0.5c0-0.7-0.2-1.1-0.7-1.5c-0.4-0.3-1.2-0.5-2.1-0.5c-0.9,0-1.6,0.2-2,0.5c-0.4,0.3-0.7,0.9-0.8,1.7
				h-2.2c0.1-1.4,0.6-2.4,1.5-3s2.1-1,3.7-1c1.6,0,2.8,0.3,3.6,1c0.8,0.7,1.2,1.6,1.2,3v6c0,0.4,0.1,0.7,0.2,0.8s0.4,0.2,0.8,0.2
				H139.5z M134,115.5c0.6-0.3,1-0.6,1.4-1.1s0.5-0.9,0.5-1.5v-1.7l-3.7,0.6c-0.8,0.1-1.4,0.4-1.8,0.7s-0.6,0.8-0.6,1.4
				c0,0.6,0.2,1.1,0.6,1.5c0.4,0.4,1,0.5,1.7,0.5C132.8,115.9,133.4,115.8,134,115.5z"/>
			<path d="M150.4,105.1c0.6,0.3,1.1,0.8,1.5,1.4c0.3,0.6,0.5,1.4,0.5,2.2v8.6h-2.2v-8.2c0-1.7-0.8-2.6-2.5-2.6
				c-0.6,0-1.2,0.1-1.7,0.4c-0.5,0.2-1,0.7-1.3,1.2c-0.3,0.6-0.5,1.3-0.5,2.3v6.9h-2.2v-12.4h2.1v1.8c0.4-0.7,1-1.2,1.7-1.5
				c0.7-0.4,1.5-0.5,2.4-0.5C149,104.6,149.8,104.8,150.4,105.1z"/>
			<path d="M158.2,116.9c-0.9-0.5-1.5-1.2-2-2.2c-0.5-1-0.7-2.1-0.7-3.5c0-1.4,0.2-2.6,0.7-3.6c0.5-1,1.2-1.7,2-2.3
				c0.9-0.5,1.9-0.8,3.1-0.8c1.4,0,2.6,0.4,3.5,1.1c0.9,0.8,1.5,1.8,1.7,3.2h-2.1c-0.3-1.7-1.4-2.5-3.1-2.5c-1.2,0-2.2,0.4-2.8,1.2
				c-0.6,0.8-0.9,2-0.9,3.4c0,1.5,0.3,2.6,0.9,3.4c0.6,0.8,1.5,1.2,2.7,1.2c0.9,0,1.6-0.2,2.1-0.7c0.5-0.5,0.9-1.2,1-2.1h2.1
				c-0.2,1.5-0.8,2.6-1.7,3.4c-0.9,0.8-2.1,1.2-3.7,1.2C160,117.6,159,117.4,158.2,116.9z"/>
			<path d="M180.3,111.6H171c0,1.4,0.4,2.4,1,3.1c0.7,0.7,1.6,1.1,2.7,1.1c0.8,0,1.5-0.2,2.1-0.6s1-0.9,1.3-1.7l2,0.2
				c-0.4,1.2-1.1,2.2-2,2.8s-2.1,1-3.4,1c-1.2,0-2.3-0.3-3.1-0.8s-1.6-1.3-2-2.3c-0.5-1-0.7-2.1-0.7-3.4c0-1.3,0.2-2.4,0.7-3.3
				c0.5-1,1.1-1.7,2-2.3c0.9-0.5,1.9-0.8,3.1-0.8c1.2,0,2.2,0.2,3,0.7c0.9,0.5,1.5,1.2,2,2.1s0.7,2,0.7,3.3V111.6z M172.2,107.4
				c-0.6,0.6-1,1.5-1.1,2.7h7.2c-0.1-1.2-0.5-2.1-1.1-2.7c-0.6-0.6-1.4-0.9-2.4-0.9C173.7,106.4,172.8,106.7,172.2,107.4z"/>
			<path d="M184,116.6c-0.9-0.7-1.4-1.7-1.5-3.1l2.1-0.1c0.1,0.8,0.4,1.5,0.9,1.9c0.5,0.4,1.2,0.6,2.2,0.6c1,0,1.7-0.2,2.2-0.5
				c0.5-0.3,0.8-0.8,0.8-1.4c0-0.5-0.2-0.9-0.5-1.2c-0.3-0.3-0.8-0.5-1.5-0.6l-2.5-0.5c-1.2-0.3-2.1-0.7-2.6-1.2
				c-0.6-0.6-0.8-1.3-0.8-2.1c0-0.7,0.2-1.3,0.5-1.9c0.3-0.5,0.9-1,1.6-1.2c0.7-0.3,1.5-0.4,2.5-0.4c1.4,0,2.6,0.3,3.5,0.9
				s1.4,1.6,1.6,2.8l-2.2,0.1c-0.1-0.7-0.4-1.3-0.9-1.6c-0.5-0.4-1.2-0.5-2-0.5c-0.8,0-1.4,0.1-1.8,0.4c-0.4,0.3-0.6,0.7-0.6,1.2
				c0,0.4,0.1,0.8,0.4,1s0.8,0.5,1.5,0.6l2.4,0.5c1.3,0.3,2.2,0.7,2.8,1.3c0.6,0.6,0.9,1.3,0.9,2.2c0,0.8-0.2,1.5-0.6,2.1
				s-1,1-1.8,1.4c-0.8,0.3-1.7,0.5-2.8,0.5C186.1,117.6,184.9,117.3,184,116.6z"/>
			<path d="M205.1,106.5v7.7c0,0.4,0.1,0.8,0.3,0.9c0.2,0.2,0.5,0.3,0.9,0.3h1.6v1.8h-2.3c-1,0-1.7-0.2-2.1-0.7
				c-0.4-0.4-0.7-1.1-0.7-2.1v-8l-1.8,0.1v-1.7l1.8,0.1v-3.9h2.2v3.9l2.8-0.1v1.7L205.1,106.5z"/>
			<path d="M219.1,105.1c0.6,0.3,1.1,0.8,1.5,1.4c0.3,0.6,0.5,1.4,0.5,2.2v8.6h-2.2v-8.2c0-1.7-0.8-2.6-2.5-2.6
				c-0.6,0-1.2,0.1-1.7,0.4c-0.5,0.2-1,0.7-1.3,1.2c-0.3,0.6-0.5,1.3-0.5,2.3v6.9h-2.2v-17.1h2.2v6.3c0.4-0.6,1-1.1,1.7-1.4
				c0.7-0.3,1.5-0.5,2.3-0.5C217.7,104.6,218.4,104.8,219.1,105.1z"/>
			<path d="M236.1,115.7v1.6H235c-1.3,0-2-0.6-2.1-1.8c-0.4,0.6-1,1.2-1.8,1.5c-0.8,0.4-1.7,0.6-2.7,0.6c-0.8,0-1.6-0.1-2.2-0.4
				c-0.6-0.3-1.1-0.7-1.5-1.2c-0.3-0.5-0.5-1.2-0.5-1.9c0-1.1,0.3-1.9,1-2.6c0.7-0.7,1.7-1.1,3.2-1.3l3.2-0.4c0.3,0,0.5-0.1,0.7-0.3
				c0.1-0.2,0.2-0.4,0.2-0.7v-0.5c0-0.7-0.2-1.1-0.7-1.5c-0.4-0.3-1.2-0.5-2.1-0.5c-0.9,0-1.6,0.2-2,0.5c-0.4,0.3-0.7,0.9-0.8,1.7
				h-2.2c0.1-1.4,0.6-2.4,1.5-3s2.1-1,3.7-1c1.6,0,2.8,0.3,3.6,1c0.8,0.7,1.2,1.6,1.2,3v6c0,0.4,0.1,0.7,0.2,0.8s0.4,0.2,0.8,0.2
				H236.1z M230.6,115.5c0.6-0.3,1-0.6,1.4-1.1s0.5-0.9,0.5-1.5v-1.7l-3.7,0.6c-0.8,0.1-1.4,0.4-1.8,0.7s-0.6,0.8-0.6,1.4
				c0,0.6,0.2,1.1,0.6,1.5c0.4,0.4,1,0.5,1.7,0.5C229.4,115.9,230,115.8,230.6,115.5z"/>
			<path d="M241.6,106.5v7.7c0,0.4,0.1,0.8,0.3,0.9c0.2,0.2,0.5,0.3,0.9,0.3h1.6v1.8h-2.3c-1,0-1.7-0.2-2.1-0.7
				c-0.4-0.4-0.7-1.1-0.7-2.1v-8l-1.8,0.1v-1.7l1.8,0.1v-3.9h2.2v3.9l2.8-0.1v1.7L241.6,106.5z"/>
			<path d="M269.6,105.6c0.6,0.7,1,1.7,1,3.2v8.5h-2.2v-8.5c0-0.7-0.2-1.3-0.6-1.7s-0.9-0.6-1.6-0.6c-0.8,0-1.6,0.3-2.1,0.9
				s-0.9,1.7-0.9,3.1v6.7H261v-8.5c0-0.7-0.2-1.3-0.6-1.7c-0.4-0.4-0.9-0.6-1.6-0.6c-0.5,0-1,0.1-1.5,0.4s-0.8,0.7-1.1,1.3
				c-0.3,0.6-0.4,1.4-0.4,2.4v6.6h-2.2v-12.4h2.1v1.8c0.8-1.4,2.1-2.1,3.7-2.1c0.8,0,1.6,0.2,2.1,0.6s1,0.9,1.3,1.6
				c0.8-1.4,2.1-2.2,3.9-2.2C268,104.6,268.9,105,269.6,105.6z"/>
			<path d="M285.7,115.7v1.6h-1.2c-1.3,0-2-0.6-2.1-1.8c-0.4,0.6-1,1.2-1.8,1.5c-0.8,0.4-1.7,0.6-2.7,0.6c-0.8,0-1.6-0.1-2.2-0.4
				c-0.6-0.3-1.1-0.7-1.5-1.2c-0.3-0.5-0.5-1.2-0.5-1.9c0-1.1,0.3-1.9,1-2.6c0.7-0.7,1.7-1.1,3.2-1.3l3.2-0.4c0.3,0,0.5-0.1,0.7-0.3
				c0.1-0.2,0.2-0.4,0.2-0.7v-0.5c0-0.7-0.2-1.1-0.7-1.5c-0.4-0.3-1.2-0.5-2.1-0.5c-0.9,0-1.6,0.2-2,0.5c-0.4,0.3-0.7,0.9-0.8,1.7
				h-2.2c0.1-1.4,0.6-2.4,1.5-3s2.1-1,3.7-1c1.6,0,2.8,0.3,3.6,1c0.8,0.7,1.2,1.6,1.2,3v6c0,0.4,0.1,0.7,0.2,0.8s0.4,0.2,0.8,0.2
				H285.7z M280.1,115.5c0.6-0.3,1-0.6,1.4-1.1s0.5-0.9,0.5-1.5v-1.7l-3.7,0.6c-0.8,0.1-1.4,0.4-1.8,0.7s-0.6,0.8-0.6,1.4
				c0,0.6,0.2,1.1,0.6,1.5c0.4,0.4,1,0.5,1.7,0.5C278.9,115.9,279.5,115.8,280.1,115.5z"/>
			<path d="M295.8,104.9h2.3l-5.8,14.8c-0.3,0.6-0.5,1.1-0.8,1.5c-0.3,0.4-0.6,0.6-1.1,0.8c-0.4,0.2-0.9,0.2-1.5,0.2h-1.4v-1.8h1.2
				c0.4,0,0.7,0,0.9-0.1c0.2-0.1,0.4-0.3,0.6-0.5c0.2-0.2,0.3-0.6,0.5-1l0.6-1.5l-5-12.3h2.4l2.9,7.8c0.3,0.7,0.5,1.4,0.7,2
				c0.2-0.7,0.4-1.3,0.7-2L295.8,104.9z"/>
			<path d="M315.8,104.9h2.1v12c0,1.9-0.5,3.3-1.5,4.2c-1,0.9-2.4,1.4-4.3,1.4c-1.5,0-2.7-0.3-3.6-0.9c-0.9-0.6-1.5-1.5-1.6-2.7h2.2
				c0.2,0.7,0.5,1.2,1,1.4s1.2,0.4,2.1,0.4c0.9,0,1.6-0.1,2.1-0.4s0.9-0.6,1.2-1.2c0.2-0.5,0.4-1.2,0.4-2.1v-1.6
				c-0.4,0.6-0.9,1.1-1.6,1.5c-0.7,0.4-1.4,0.6-2.3,0.6c-1.1,0-2.1-0.3-2.9-0.9c-0.8-0.6-1.4-1.4-1.9-2.4c-0.4-1-0.6-2.2-0.6-3.4
				c0-1.2,0.2-2.3,0.7-3.3c0.5-1,1.1-1.7,1.9-2.2c0.8-0.5,1.7-0.8,2.8-0.8c0.9,0,1.7,0.2,2.4,0.6c0.7,0.4,1.2,0.9,1.6,1.6V104.9z
				 M313.9,115.1c0.5-0.4,1-0.9,1.3-1.6c0.3-0.7,0.5-1.5,0.5-2.5c0-0.9-0.2-1.7-0.5-2.4s-0.7-1.2-1.2-1.5s-1.1-0.5-1.8-0.5
				c-1.1,0-1.9,0.4-2.5,1.1c-0.6,0.8-0.9,1.8-0.9,3.2c0,1,0.1,1.8,0.4,2.5c0.3,0.7,0.7,1.3,1.2,1.7c0.5,0.4,1.1,0.6,1.8,0.6
				C312.7,115.7,313.3,115.5,313.9,115.1z"/>
			<path d="M323.9,102.6h-2.2v-2.4h2.2V102.6z M323.9,117.3h-2.2v-12.4h2.2V117.3z"/>
			<path d="M333.3,112.1l2.4-7.2h2.2l-4.5,12.4h-2.2l-4.8-12.4h2.4l2.5,7.2l1,3.3L333.3,112.1z"/>
			<path d="M350.7,111.6h-9.3c0,1.4,0.4,2.4,1,3.1c0.7,0.7,1.6,1.1,2.7,1.1c0.8,0,1.5-0.2,2.1-0.6s1-0.9,1.3-1.7l2,0.2
				c-0.4,1.2-1.1,2.2-2,2.8s-2.1,1-3.4,1c-1.2,0-2.3-0.3-3.1-0.8s-1.6-1.3-2-2.3c-0.5-1-0.7-2.1-0.7-3.4c0-1.3,0.2-2.4,0.7-3.3
				c0.5-1,1.1-1.7,2-2.3c0.9-0.5,1.9-0.8,3.1-0.8c1.2,0,2.2,0.2,3,0.7c0.9,0.5,1.5,1.2,2,2.1s0.7,2,0.7,3.3V111.6z M342.5,107.4
				c-0.6,0.6-1,1.5-1.1,2.7h7.2c-0.1-1.2-0.5-2.1-1.1-2.7c-0.6-0.6-1.4-0.9-2.4-0.9C344,106.4,343.2,106.7,342.5,107.4z"/>
			<path d="M366.8,104.6v2.1c-0.2,0-0.5,0-0.8,0c-0.6,0-1.1,0.1-1.6,0.4s-1,0.7-1.3,1.3c-0.4,0.6-0.5,1.3-0.6,2.1v6.8h-2.2v-12.4
				h2.1v2.4c0.8-1.8,2.1-2.7,3.8-2.7C366.3,104.6,366.5,104.6,366.8,104.6z"/>
			<path d="M371.3,102.6h-2.2v-2.4h2.2V102.6z M371.3,117.3h-2.2v-12.4h2.2V117.3z"/>
			<path d="M375.7,116.6c-0.9-0.7-1.4-1.7-1.5-3.1l2.1-0.1c0.1,0.8,0.4,1.5,0.9,1.9c0.5,0.4,1.2,0.6,2.2,0.6c1,0,1.7-0.2,2.2-0.5
				c0.5-0.3,0.8-0.8,0.8-1.4c0-0.5-0.2-0.9-0.5-1.2c-0.3-0.3-0.8-0.5-1.5-0.6l-2.5-0.5c-1.2-0.3-2.1-0.7-2.6-1.2
				c-0.6-0.6-0.8-1.3-0.8-2.1c0-0.7,0.2-1.3,0.5-1.9c0.3-0.5,0.9-1,1.6-1.2c0.7-0.3,1.5-0.4,2.5-0.4c1.4,0,2.6,0.3,3.5,0.9
				s1.4,1.6,1.6,2.8l-2.2,0.1c-0.1-0.7-0.4-1.3-0.9-1.6c-0.5-0.4-1.2-0.5-2-0.5c-0.8,0-1.4,0.1-1.8,0.4c-0.4,0.3-0.6,0.7-0.6,1.2
				c0,0.4,0.1,0.8,0.4,1s0.8,0.5,1.5,0.6l2.4,0.5c1.3,0.3,2.2,0.7,2.8,1.3c0.6,0.6,0.9,1.3,0.9,2.2c0,0.8-0.2,1.5-0.6,2.1
				s-1,1-1.8,1.4c-0.8,0.3-1.7,0.5-2.8,0.5C377.8,117.6,376.6,117.3,375.7,116.6z"/>
			<path d="M398,111.6h-9.3c0,1.4,0.4,2.4,1,3.1c0.7,0.7,1.6,1.1,2.7,1.1c0.8,0,1.5-0.2,2.1-0.6s1-0.9,1.3-1.7l2,0.2
				c-0.4,1.2-1.1,2.2-2,2.8s-2.1,1-3.4,1c-1.2,0-2.3-0.3-3.1-0.8s-1.6-1.3-2-2.3c-0.5-1-0.7-2.1-0.7-3.4c0-1.3,0.2-2.4,0.7-3.3
				c0.5-1,1.1-1.7,2-2.3c0.9-0.5,1.9-0.8,3.1-0.8c1.2,0,2.2,0.2,3,0.7c0.9,0.5,1.5,1.2,2,2.1s0.7,2,0.7,3.3V111.6z M389.9,107.4
				c-0.6,0.6-1,1.5-1.1,2.7h7.2c-0.1-1.2-0.5-2.1-1.1-2.7c-0.6-0.6-1.4-0.9-2.4-0.9C391.4,106.4,390.6,106.7,389.9,107.4z"/>
			<path d="M410.7,106.5v7.7c0,0.4,0.1,0.8,0.3,0.9c0.2,0.2,0.5,0.3,0.9,0.3h1.6v1.8h-2.3c-1,0-1.7-0.2-2.1-0.7
				c-0.4-0.4-0.7-1.1-0.7-2.1v-8l-1.8,0.1v-1.7l1.8,0.1v-3.9h2.2v3.9l2.8-0.1v1.7L410.7,106.5z"/>
			<path d="M418.3,116.8c-0.9-0.5-1.6-1.3-2.1-2.3c-0.5-1-0.7-2.1-0.7-3.4c0-1.3,0.3-2.5,0.8-3.4c0.5-1,1.2-1.7,2.1-2.3
				c0.9-0.5,2-0.8,3.1-0.8c1.2,0,2.2,0.3,3.1,0.8c0.9,0.5,1.6,1.3,2.1,2.2c0.5,1,0.8,2.1,0.8,3.4c0,1.3-0.3,2.4-0.8,3.4
				c-0.5,1-1.2,1.8-2.1,2.3c-0.9,0.6-1.9,0.8-3.1,0.8C420.3,117.6,419.2,117.3,418.3,116.8z M423.5,115.2c0.6-0.4,1-1,1.3-1.7
				s0.4-1.5,0.4-2.5c0-0.9-0.1-1.7-0.4-2.4c-0.3-0.7-0.7-1.2-1.3-1.6c-0.6-0.4-1.2-0.6-2-0.6c-0.8,0-1.4,0.2-2,0.6
				c-0.6,0.4-1,0.9-1.3,1.6s-0.4,1.5-0.4,2.4c0,0.9,0.2,1.7,0.5,2.4c0.3,0.7,0.7,1.2,1.3,1.6c0.6,0.4,1.2,0.6,2,0.6
				C422.2,115.8,422.9,115.6,423.5,115.2z"/>
			<path d="M448.3,115.7v1.6h-1.2c-1.3,0-2-0.6-2.1-1.8c-0.4,0.6-1,1.2-1.8,1.5c-0.8,0.4-1.7,0.6-2.7,0.6c-0.8,0-1.6-0.1-2.2-0.4
				c-0.6-0.3-1.1-0.7-1.5-1.2c-0.3-0.5-0.5-1.2-0.5-1.9c0-1.1,0.3-1.9,1-2.6c0.7-0.7,1.7-1.1,3.2-1.3l3.2-0.4c0.3,0,0.5-0.1,0.7-0.3
				c0.1-0.2,0.2-0.4,0.2-0.7v-0.5c0-0.7-0.2-1.1-0.7-1.5c-0.4-0.3-1.2-0.5-2.1-0.5c-0.9,0-1.6,0.2-2,0.5c-0.4,0.3-0.7,0.9-0.8,1.7
				h-2.2c0.1-1.4,0.6-2.4,1.5-3s2.1-1,3.7-1c1.6,0,2.8,0.3,3.6,1c0.8,0.7,1.2,1.6,1.2,3v6c0,0.4,0.1,0.7,0.2,0.8s0.4,0.2,0.8,0.2
				H448.3z M442.7,115.5c0.6-0.3,1-0.6,1.4-1.1s0.5-0.9,0.5-1.5v-1.7l-3.7,0.6c-0.8,0.1-1.4,0.4-1.8,0.7s-0.6,0.8-0.6,1.4
				c0,0.6,0.2,1.1,0.6,1.5c0.4,0.4,1,0.5,1.7,0.5C441.6,115.9,442.2,115.8,442.7,115.5z"/>
			<path d="M459.2,116.9c-0.9-0.5-1.5-1.2-2-2.2c-0.5-1-0.7-2.1-0.7-3.5c0-1.4,0.2-2.6,0.7-3.6c0.5-1,1.2-1.7,2-2.3
				c0.9-0.5,1.9-0.8,3.1-0.8c1.4,0,2.6,0.4,3.5,1.1c0.9,0.8,1.5,1.8,1.7,3.2h-2.1c-0.3-1.7-1.4-2.5-3.1-2.5c-1.2,0-2.2,0.4-2.8,1.2
				c-0.6,0.8-0.9,2-0.9,3.4c0,1.5,0.3,2.6,0.9,3.4c0.6,0.8,1.5,1.2,2.7,1.2c0.9,0,1.6-0.2,2.1-0.7c0.5-0.5,0.9-1.2,1-2.1h2.1
				c-0.2,1.5-0.8,2.6-1.7,3.4c-0.9,0.8-2.1,1.2-3.7,1.2C461,117.6,460,117.4,459.2,116.9z"/>
			<path d="M472.8,117.3h-2.2v-17.1h2.2V117.3z"/>
			<path d="M487.9,115.7v1.6h-1.2c-1.3,0-2-0.6-2.1-1.8c-0.4,0.6-1,1.2-1.8,1.5c-0.8,0.4-1.7,0.6-2.7,0.6c-0.8,0-1.6-0.1-2.2-0.4
				c-0.6-0.3-1.1-0.7-1.5-1.2c-0.3-0.5-0.5-1.2-0.5-1.9c0-1.1,0.3-1.9,1-2.6c0.7-0.7,1.7-1.1,3.2-1.3l3.2-0.4c0.3,0,0.5-0.1,0.7-0.3
				c0.1-0.2,0.2-0.4,0.2-0.7v-0.5c0-0.7-0.2-1.1-0.7-1.5c-0.4-0.3-1.2-0.5-2.1-0.5c-0.9,0-1.6,0.2-2,0.5c-0.4,0.3-0.7,0.9-0.8,1.7
				h-2.2c0.1-1.4,0.6-2.4,1.5-3s2.1-1,3.7-1c1.6,0,2.8,0.3,3.6,1c0.8,0.7,1.2,1.6,1.2,3v6c0,0.4,0.1,0.7,0.2,0.8s0.4,0.2,0.8,0.2
				H487.9z M482.3,115.5c0.6-0.3,1-0.6,1.4-1.1s0.5-0.9,0.5-1.5v-1.7l-3.7,0.6c-0.8,0.1-1.4,0.4-1.8,0.7s-0.6,0.8-0.6,1.4
				c0,0.6,0.2,1.1,0.6,1.5c0.4,0.4,1,0.5,1.7,0.5C481.1,115.9,481.8,115.8,482.3,115.5z"/>
			<path d="M492.5,102.6h-2.2v-2.4h2.2V102.6z M492.5,117.3h-2.2v-12.4h2.2V117.3z"/>
			<path d="M512.3,105.6c0.6,0.7,1,1.7,1,3.2v8.5h-2.2v-8.5c0-0.7-0.2-1.3-0.6-1.7s-0.9-0.6-1.6-0.6c-0.8,0-1.6,0.3-2.1,0.9
				s-0.9,1.7-0.9,3.1v6.7h-2.2v-8.5c0-0.7-0.2-1.3-0.6-1.7c-0.4-0.4-0.9-0.6-1.6-0.6c-0.5,0-1,0.1-1.5,0.4s-0.8,0.7-1.1,1.3
				c-0.3,0.6-0.4,1.4-0.4,2.4v6.6h-2.2v-12.4h2.1v1.8c0.8-1.4,2.1-2.1,3.7-2.1c0.8,0,1.6,0.2,2.1,0.6s1,0.9,1.3,1.6
				c0.8-1.4,2.1-2.2,3.9-2.2C510.7,104.6,511.6,105,512.3,105.6z"/>
			<path d="M47.7,140.9H30.2v-2h17.5V140.9z"/>
		</g>
	</g>
</g>
<g>
	<g>
		<g>
			<path class="st1" d="M39.9,145.8h-3.5v9.4c0,0.6,0.2,1,0.5,1.2s0.8,0.3,1.5,0.3h1.5v3.3c-0.7,0.1-1.5,0.1-2.2,0.1
				c-1.9,0-3.3-0.3-4.1-1c-0.9-0.7-1.3-1.8-1.3-3.4v-9.9h-2.7v-3.3h2.7v-5.1h4.2v5.1h3.5V145.8z"/>
			<path class="st1" d="M55.2,142.8c0.9,0.5,1.6,1.2,2.1,2.1s0.8,2.1,0.8,3.5V160h-4.3v-10.9c0-2.2-1.1-3.3-3.3-3.3
				c-0.7,0-1.3,0.2-1.9,0.5s-1.1,0.8-1.5,1.5s-0.6,1.5-0.6,2.5v9.8h-4.3v-24.2h4.3v9c0.6-0.8,1.4-1.5,2.3-2c0.9-0.5,1.9-0.7,3.1-0.7
				C53.2,142.1,54.3,142.3,55.2,142.8z"/>
			<path class="st1" d="M65,159.3c-1.3-0.7-2.3-1.8-3.1-3.2c-0.7-1.4-1.1-3-1.1-4.8c0-1.8,0.4-3.4,1.1-4.8s1.7-2.5,3-3.2
				c1.3-0.8,2.8-1.1,4.5-1.1c1.8,0,3.3,0.4,4.6,1.2c1.3,0.8,2.3,1.9,3,3.3c0.7,1.4,1.1,3.1,1.1,4.9v1H65.1c0.2,1.5,0.6,2.7,1.4,3.4
				c0.8,0.7,1.8,1.1,3.1,1.1c1,0,1.8-0.2,2.5-0.7s1.2-1.1,1.5-1.9h4.1c-0.3,1.2-0.8,2.2-1.6,3.1c-0.7,0.9-1.7,1.6-2.8,2
				c-1.1,0.5-2.4,0.7-3.8,0.7C67.9,160.4,66.3,160.1,65,159.3z M73.9,149.6c-0.2-1.3-0.7-2.3-1.4-3c-0.8-0.8-1.8-1.1-3-1.1
				c-1.2,0-2.2,0.4-2.9,1.1c-0.8,0.7-1.3,1.7-1.5,3.1H73.9z"/>
			<path class="st1" d="M91.4,142.3v3.9h-1.1c-1.6,0-2.9,0.4-3.7,1.2s-1.3,2-1.3,3.7v8.9h-4.3v-17.5h4.1v3.1c0.5-1,1.1-1.9,2-2.5
				c0.9-0.6,2-0.9,3.2-0.9C90.8,142.2,91.1,142.2,91.4,142.3z"/>
			<path class="st1" d="M96.3,159.3c-1.3-0.7-2.3-1.8-3.1-3.2c-0.7-1.4-1.1-3-1.1-4.8c0-1.8,0.4-3.4,1.1-4.8s1.7-2.5,3-3.2
				c1.3-0.8,2.8-1.1,4.5-1.1c1.8,0,3.3,0.4,4.6,1.2c1.3,0.8,2.3,1.9,3,3.3c0.7,1.4,1.1,3.1,1.1,4.9v1H96.3c0.2,1.5,0.6,2.7,1.4,3.4
				c0.8,0.7,1.8,1.1,3.1,1.1c1,0,1.8-0.2,2.5-0.7s1.2-1.1,1.5-1.9h4.1c-0.3,1.2-0.8,2.2-1.6,3.1c-0.7,0.9-1.7,1.6-2.8,2
				c-1.1,0.5-2.4,0.7-3.8,0.7C99.1,160.4,97.6,160.1,96.3,159.3z M105.2,149.6c-0.2-1.3-0.7-2.3-1.4-3c-0.8-0.8-1.8-1.1-3-1.1
				c-1.2,0-2.2,0.4-2.9,1.1c-0.8,0.7-1.3,1.7-1.5,3.1H105.2z"/>
			<path class="st1" d="M126.1,143.2c1.2,0.7,2.1,1.8,2.7,3.2c0.6,1.4,1,3,1,4.8c0,1.8-0.3,3.5-1,4.8c-0.6,1.4-1.5,2.5-2.7,3.2
				s-2.6,1.1-4.2,1.1c-1.2,0-2.3-0.3-3.3-0.8c-0.9-0.5-1.7-1.2-2.3-2.2v2.5h-4.1v-24.2h4.3v8.9c0.6-0.9,1.4-1.5,2.3-2
				c0.9-0.5,2-0.7,3.2-0.7C123.5,142.1,124.9,142.4,126.1,143.2z M124.2,155.4c0.8-1,1.2-2.4,1.2-4.3c0-1.8-0.4-3.2-1.2-4.1
				c-0.8-0.9-1.9-1.4-3.3-1.4c-1.4,0-2.5,0.5-3.3,1.4s-1.2,2.4-1.2,4.2c0,1.8,0.4,3.2,1.2,4.2c0.8,1,1.9,1.4,3.3,1.4
				C122.3,156.9,123.4,156.4,124.2,155.4z"/>
			<path class="st1" d="M143,142.5h4.5l-6.8,19c-0.5,1.3-1,2.4-1.6,3.1c-0.6,0.8-1.4,1.3-2.3,1.6c-0.9,0.3-2.1,0.5-3.6,0.5
				c-0.7,0-1.3,0-1.9-0.1v-3.4h1.6c1,0,1.7-0.3,2.2-0.8c0.5-0.5,0.7-1.2,0.7-2c0-0.8-0.3-2-0.8-3.5l-5.1-14.4h4.6l1.4,4.4
				c1,3.3,2,6.6,2.8,9.8c0.7-2.8,1.7-6,2.8-9.8L143,142.5z"/>
			<path class="st1" d="M170.6,143.2c1.2,0.7,2.1,1.8,2.7,3.2c0.6,1.4,1,3,1,4.8c0,1.8-0.3,3.5-1,4.8c-0.6,1.4-1.5,2.5-2.7,3.2
				s-2.6,1.1-4.2,1.1c-1.2,0-2.3-0.2-3.2-0.7c-0.9-0.5-1.7-1.1-2.3-2v8.9h-4.3v-24.2h4.1v2.5c0.6-0.9,1.4-1.6,2.3-2.2
				c0.9-0.5,2-0.8,3.3-0.8C168,142.1,169.4,142.4,170.6,143.2z M168.7,155.4c0.8-1,1.2-2.4,1.2-4.3c0-1.8-0.4-3.2-1.2-4.1
				c-0.8-0.9-1.9-1.4-3.3-1.4c-1.4,0-2.5,0.5-3.3,1.4s-1.2,2.4-1.2,4.2c0,1.8,0.4,3.2,1.2,4.2c0.8,1,1.9,1.4,3.3,1.4
				C166.8,156.9,167.9,156.4,168.7,155.4z"/>
			<path class="st1" d="M187.4,142.3v3.9h-1.1c-1.6,0-2.9,0.4-3.7,1.2s-1.3,2-1.3,3.7v8.9h-4.3v-17.5h4.1v3.1c0.5-1,1.1-1.9,2-2.5
				c0.9-0.6,2-0.9,3.2-0.9C186.8,142.2,187.1,142.2,187.4,142.3z"/>
			<path class="st1" d="M192.4,159.3c-1.3-0.8-2.4-1.8-3.1-3.2c-0.7-1.4-1.1-3-1.1-4.8c0-1.8,0.4-3.4,1.1-4.8s1.8-2.5,3.1-3.2
				c1.3-0.8,2.9-1.1,4.7-1.1c1.8,0,3.3,0.4,4.7,1.1c1.3,0.8,2.4,1.8,3.1,3.2c0.7,1.4,1.1,3,1.1,4.8c0,1.8-0.4,3.4-1.1,4.8
				c-0.7,1.4-1.8,2.5-3.1,3.2c-1.3,0.8-2.9,1.1-4.7,1.1C195.3,160.4,193.7,160.1,192.4,159.3z M200.4,155.4c0.8-1,1.2-2.4,1.2-4.2
				c0-1.8-0.4-3.2-1.2-4.2c-0.8-1-1.9-1.5-3.3-1.5c-1.4,0-2.5,0.5-3.3,1.5s-1.2,2.4-1.2,4.2c0,1.8,0.4,3.2,1.2,4.2s1.9,1.5,3.3,1.5
				C198.5,156.9,199.6,156.4,200.4,155.4z"/>
			<path class="st1" d="M219.6,142.5h4.5l-6.5,17.5h-4.9l-6.5-17.5h4.6l1.7,4.7c0.7,2.2,1.6,5.2,2.8,8.9c0.8-2.8,1.8-5.8,2.8-9
				L219.6,142.5z"/>
			<path class="st1" d="M230,140.4h-4.2v-4h4.2V140.4z M230.1,160h-4.3v-17.5h4.3V160z"/>
			<path class="st1" d="M246,135.8h4.3V160h-4.1v-2.4c-0.6,0.9-1.4,1.6-2.3,2.1c-0.9,0.5-2,0.7-3.2,0.7c-1.6,0-3-0.4-4.2-1.1
				c-1.2-0.7-2.1-1.8-2.7-3.2c-0.6-1.4-1-3-1-4.8c0-1.8,0.3-3.5,1-4.8c0.6-1.4,1.5-2.5,2.7-3.2c1.2-0.7,2.6-1.1,4.2-1.1
				c1.2,0,2.2,0.2,3.1,0.7s1.7,1.1,2.3,2V135.8z M244.9,155.5c0.8-1,1.2-2.4,1.2-4.2c0-1.8-0.4-3.2-1.2-4.2s-1.9-1.4-3.3-1.4
				c-0.9,0-1.7,0.2-2.4,0.7c-0.7,0.5-1.2,1.1-1.5,2s-0.5,1.9-0.5,3.1c0,1.8,0.4,3.2,1.2,4.1c0.8,0.9,1.9,1.4,3.3,1.4
				C243,156.9,244.1,156.4,244.9,155.5z"/>
			<path class="st1" d="M258.2,140.4H254v-4h4.2V140.4z M258.3,160H254v-17.5h4.3V160z"/>
			<path class="st1" d="M274.6,142.8c0.9,0.5,1.6,1.2,2.1,2.1s0.8,2.1,0.8,3.5V160h-4.3v-10.9c0-2.2-1.1-3.3-3.3-3.3
				c-0.7,0-1.3,0.2-1.9,0.5s-1.1,0.8-1.5,1.5s-0.6,1.5-0.6,2.5v9.8h-4.3v-17.5h4.1v2.5c0.6-0.9,1.4-1.6,2.3-2.1
				c0.9-0.5,2-0.8,3.2-0.8C272.6,142.1,273.7,142.3,274.6,142.8z"/>
			<path class="st1" d="M293.6,142.5h4.1v17c0,1.6-0.3,2.9-1,4.1c-0.7,1.1-1.6,2-2.9,2.7c-1.3,0.6-2.9,0.9-4.7,0.9
				c-1.7,0-3.1-0.3-4.2-0.8c-1.2-0.5-2.1-1.2-2.7-2.1s-1-2-1.1-3.2h4.2c0.1,0.9,0.5,1.6,1.1,2.1c0.7,0.5,1.6,0.7,2.8,0.7
				c1.4,0,2.5-0.4,3.2-1.1s1.1-1.8,1.1-3.2v-2.2c-0.6,0.8-1.3,1.5-2.2,1.9c-0.9,0.5-1.9,0.7-3.1,0.7c-1.6,0-2.9-0.4-4.1-1.1
				s-2.1-1.8-2.8-3.1c-0.7-1.3-1-2.9-1-4.7c0-1.8,0.3-3.3,1-4.7c0.6-1.4,1.6-2.4,2.8-3.1c1.2-0.7,2.6-1.1,4.2-1.1
				c1.2,0,2.3,0.2,3.3,0.7s1.7,1.2,2.3,2.1V142.5z M292.4,155c0.8-0.9,1.2-2.3,1.2-4s-0.4-3.1-1.2-4s-1.9-1.4-3.3-1.4
				c-0.9,0-1.7,0.2-2.4,0.6s-1.2,1.1-1.6,1.9c-0.4,0.8-0.5,1.8-0.5,2.9s0.2,2.1,0.5,2.9c0.4,0.8,0.9,1.4,1.6,1.9
				c0.7,0.4,1.5,0.6,2.4,0.6C290.5,156.4,291.6,156,292.4,155z"/>
			<path class="st1" d="M312.8,140.4h-4.2v-4h4.2V140.4z M312.9,160h-4.3v-17.5h4.3V160z"/>
			<path class="st1" d="M329.2,142.8c0.9,0.5,1.6,1.2,2.1,2.1s0.8,2.1,0.8,3.5V160h-4.3v-10.9c0-2.2-1.1-3.3-3.3-3.3
				c-0.7,0-1.3,0.2-1.9,0.5c-0.6,0.3-1.1,0.8-1.5,1.5c-0.4,0.7-0.6,1.5-0.6,2.5v9.8h-4.3v-17.5h4.1v2.5c0.6-0.9,1.4-1.6,2.3-2.1
				c0.9-0.5,2-0.8,3.2-0.8C327.2,142.1,328.3,142.3,329.2,142.8z"/>
			<path class="st1" d="M336.7,159c-1.3-1-2.1-2.5-2.2-4.6h4.2c0.1,1.1,0.5,1.9,1.1,2.3c0.6,0.5,1.5,0.7,2.8,0.7
				c1.2,0,2.1-0.2,2.6-0.5c0.6-0.4,0.8-0.9,0.8-1.6c0-0.4-0.1-0.8-0.3-1.1c-0.2-0.3-0.6-0.5-1.1-0.7c-0.5-0.2-1.2-0.4-2.1-0.5
				l-2-0.3c-1.9-0.3-3.3-0.9-4.3-1.8c-1-0.9-1.4-2-1.4-3.5c0-1.1,0.3-2.1,0.8-2.9c0.6-0.8,1.4-1.4,2.5-1.8c1.1-0.4,2.4-0.6,3.9-0.6
				c2.6,0,4.5,0.5,5.8,1.6s1.9,2.5,2,4.4h-4c0-1.1-0.4-1.8-1-2.2s-1.5-0.6-2.7-0.6c-1,0-1.8,0.2-2.3,0.5s-0.8,0.9-0.8,1.5
				c0,0.6,0.2,1.1,0.7,1.4s1.2,0.6,2.2,0.7l2.2,0.3c2.1,0.4,3.7,1,4.6,1.8c1,0.8,1.4,2,1.4,3.5c0,1.2-0.3,2.2-0.9,3
				c-0.6,0.8-1.5,1.4-2.7,1.9s-2.6,0.6-4.2,0.6C340,160.5,338,160,336.7,159z"/>
			<path class="st1" d="M364,142.5h4.3V160h-4.1v-2.5c-0.6,0.9-1.4,1.6-2.3,2.2s-2,0.8-3.2,0.8c-1.2,0-2.3-0.2-3.2-0.7
				c-0.9-0.5-1.6-1.2-2.1-2.1s-0.8-2.1-0.8-3.5v-11.6h4.3v10.9c0,1.1,0.3,1.9,0.8,2.5c0.5,0.6,1.4,0.8,2.5,0.8
				c0.7,0,1.3-0.2,1.9-0.5c0.6-0.3,1.1-0.8,1.5-1.5c0.4-0.7,0.6-1.5,0.6-2.5V142.5z"/>
			<path class="st1" d="M382.2,142.3v3.9h-1.1c-1.6,0-2.9,0.4-3.7,1.2c-0.9,0.8-1.3,2-1.3,3.7v8.9h-4.3v-17.5h4.1v3.1
				c0.5-1,1.1-1.9,2-2.5c0.9-0.6,2-0.9,3.2-0.9C381.6,142.2,382,142.2,382.2,142.3z"/>
			<path class="st1" d="M387.2,159.3c-1.3-0.7-2.3-1.8-3.1-3.2c-0.7-1.4-1.1-3-1.1-4.8c0-1.8,0.4-3.4,1.1-4.8c0.7-1.4,1.7-2.5,3-3.2
				c1.3-0.8,2.8-1.1,4.5-1.1c1.8,0,3.3,0.4,4.6,1.2c1.3,0.8,2.3,1.9,3,3.3c0.7,1.4,1.1,3.1,1.1,4.9v1h-13.1c0.2,1.5,0.6,2.7,1.4,3.4
				c0.8,0.7,1.8,1.1,3.1,1.1c1,0,1.8-0.2,2.5-0.7c0.7-0.4,1.2-1.1,1.5-1.9h4.1c-0.3,1.2-0.8,2.2-1.6,3.1c-0.7,0.9-1.7,1.6-2.8,2
				c-1.1,0.5-2.4,0.7-3.8,0.7C390,160.4,388.5,160.1,387.2,159.3z M396,149.6c-0.2-1.3-0.7-2.3-1.4-3c-0.8-0.8-1.8-1.1-3-1.1
				c-1.2,0-2.2,0.4-2.9,1.1c-0.8,0.7-1.3,1.7-1.5,3.1H396z"/>
			<path class="st1" d="M415.6,135.8h4.3V160h-4.1v-2.4c-0.6,0.9-1.4,1.6-2.3,2.1c-0.9,0.5-2,0.7-3.2,0.7c-1.6,0-3-0.4-4.2-1.1
				s-2.1-1.8-2.7-3.2c-0.6-1.4-1-3-1-4.8c0-1.8,0.3-3.5,1-4.8c0.6-1.4,1.5-2.5,2.7-3.2s2.6-1.1,4.2-1.1c1.2,0,2.2,0.2,3.1,0.7
				s1.7,1.1,2.3,2V135.8z M414.5,155.5c0.8-1,1.2-2.4,1.2-4.2c0-1.8-0.4-3.2-1.2-4.2s-1.9-1.4-3.3-1.4c-0.9,0-1.7,0.2-2.4,0.7
				c-0.7,0.5-1.2,1.1-1.5,2c-0.4,0.9-0.5,1.9-0.5,3.1c0,1.8,0.4,3.2,1.2,4.1c0.8,0.9,1.9,1.4,3.3,1.4
				C412.6,156.9,413.7,156.4,414.5,155.5z"/>
			<path class="st1" d="M424.4,159c-1.3-1-2.1-2.5-2.2-4.6h4.2c0.1,1.1,0.5,1.9,1.1,2.3c0.6,0.5,1.5,0.7,2.8,0.7
				c1.2,0,2.1-0.2,2.6-0.5c0.6-0.4,0.8-0.9,0.8-1.6c0-0.4-0.1-0.8-0.3-1.1c-0.2-0.3-0.6-0.5-1.1-0.7c-0.5-0.2-1.2-0.4-2.1-0.5
				l-2-0.3c-1.9-0.3-3.3-0.9-4.3-1.8c-1-0.9-1.4-2-1.4-3.5c0-1.1,0.3-2.1,0.8-2.9c0.6-0.8,1.4-1.4,2.5-1.8c1.1-0.4,2.4-0.6,3.9-0.6
				c2.6,0,4.5,0.5,5.8,1.6s1.9,2.5,2,4.4h-4c0-1.1-0.4-1.8-1-2.2s-1.5-0.6-2.7-0.6c-1,0-1.8,0.2-2.3,0.5s-0.8,0.9-0.8,1.5
				c0,0.6,0.2,1.1,0.7,1.4s1.2,0.6,2.2,0.7l2.2,0.3c2.1,0.4,3.7,1,4.6,1.8c1,0.8,1.4,2,1.4,3.5c0,1.2-0.3,2.2-0.9,3
				c-0.6,0.8-1.5,1.4-2.7,1.9s-2.6,0.6-4.2,0.6C427.7,160.5,425.8,160,424.4,159z"/>
			<path class="st1" d="M469.3,142.5h4.6l-5.8,17.5h-4.5l-2.2-7.2c-0.6-2-1.1-3.7-1.5-5.2l-0.2,0.9l-1.2,4.3l-2.2,7.2h-4.5
				l-5.8-17.5h4.6l2,6.6c0.5,1.6,1.1,3.7,1.7,6.1c0.6-2.3,1.1-4.3,1.7-6.1l1.9-6.5h4.1l1.9,6.5c0.5,1.8,1.1,3.9,1.7,6.1
				c0.7-2.4,1.2-4.4,1.7-6.1L469.3,142.5z"/>
			<path class="st1" d="M479.8,140.4h-4.2v-4h4.2V140.4z M479.8,160h-4.3v-17.5h4.3V160z"/>
			<path class="st1" d="M492.5,145.8H489v9.4c0,0.6,0.2,1,0.5,1.2c0.3,0.2,0.8,0.3,1.5,0.3h1.5v3.3c-0.7,0.1-1.5,0.1-2.2,0.1
				c-1.9,0-3.3-0.3-4.1-1s-1.3-1.8-1.3-3.4v-9.9H482v-3.3h2.7v-5.1h4.2v5.1h3.5V145.8z"/>
			<path class="st1" d="M507.8,142.8c0.9,0.5,1.6,1.2,2.1,2.1s0.8,2.1,0.8,3.5V160h-4.3v-10.9c0-2.2-1.1-3.3-3.3-3.3
				c-0.7,0-1.3,0.2-1.9,0.5c-0.6,0.3-1.1,0.8-1.5,1.5c-0.4,0.7-0.6,1.5-0.6,2.5v9.8H495v-24.2h4.3v9c0.6-0.8,1.4-1.5,2.3-2
				c0.9-0.5,1.9-0.7,3.1-0.7C505.8,142.1,506.9,142.3,507.8,142.8z"/>
			<path class="st1" d="M34.1,200.1c-1.3-0.7-2.3-1.8-3.1-3.2c-0.7-1.4-1.1-3-1.1-4.8c0-1.8,0.4-3.4,1.1-4.8s1.7-2.5,3-3.2
				c1.3-0.8,2.8-1.1,4.5-1.1c1.8,0,3.3,0.4,4.6,1.2c1.3,0.8,2.3,1.9,3,3.3c0.7,1.4,1.1,3.1,1.1,4.9v1H34.1c0.2,1.5,0.6,2.7,1.4,3.4
				c0.8,0.7,1.8,1.1,3.1,1.1c1,0,1.8-0.2,2.5-0.7s1.2-1.1,1.5-1.9h4.1c-0.3,1.2-0.8,2.2-1.6,3.1c-0.7,0.9-1.7,1.6-2.8,2
				c-1.1,0.5-2.4,0.7-3.8,0.7C36.9,201.2,35.4,200.9,34.1,200.1z M43,190.4c-0.2-1.3-0.7-2.3-1.4-3c-0.8-0.8-1.8-1.1-3-1.1
				c-1.2,0-2.2,0.4-2.9,1.1c-0.8,0.7-1.3,1.7-1.5,3.1H43z"/>
			<path class="st1" d="M58.2,191.8l6.5,9h-4.9l-0.6-0.9l-3.4-5l-0.7,1.1l-2.7,3.9l-0.6,0.9h-4.8l6.6-8.9l-6.2-8.6h4.9l0.9,1.3
				c0.9,1.2,1.8,2.6,2.8,4.1l2-3l0.8-1.2l0.9-1.3h4.8L58.2,191.8z"/>
			<path class="st1" d="M80.2,184c1.2,0.7,2.1,1.8,2.7,3.2c0.6,1.4,1,3,1,4.8c0,1.8-0.3,3.5-1,4.8c-0.6,1.4-1.5,2.5-2.7,3.2
				s-2.6,1.1-4.2,1.1c-1.2,0-2.3-0.2-3.2-0.7c-0.9-0.5-1.7-1.1-2.3-2v8.9h-4.3v-24.2h4.1v2.5c0.6-0.9,1.4-1.6,2.3-2.2
				c0.9-0.5,2-0.8,3.3-0.8C77.6,182.9,79,183.2,80.2,184z M78.3,196.2c0.8-1,1.2-2.4,1.2-4.3c0-1.8-0.4-3.2-1.2-4.1
				c-0.8-0.9-1.9-1.4-3.3-1.4c-1.4,0-2.5,0.5-3.3,1.4s-1.2,2.4-1.2,4.2c0,1.8,0.4,3.2,1.2,4.2c0.8,1,1.9,1.4,3.3,1.4
				C76.4,197.7,77.5,197.2,78.3,196.2z"/>
			<path class="st1" d="M97.8,200.8c-0.2-0.4-0.4-1.1-0.5-2.1c-0.6,0.8-1.4,1.4-2.3,1.9c-1,0.4-2.1,0.7-3.3,0.7
				c-1.2,0-2.3-0.2-3.3-0.6c-1-0.4-1.7-1-2.2-1.8c-0.5-0.8-0.8-1.7-0.8-2.9c0-1.5,0.5-2.8,1.6-3.7c1.1-0.9,2.8-1.5,5.2-1.8l2.7-0.2
				c0.9-0.1,1.5-0.3,1.9-0.6c0.4-0.3,0.6-0.8,0.6-1.4c0-0.7-0.2-1.3-0.7-1.6c-0.5-0.4-1.3-0.5-2.5-0.5c-0.8,0-1.5,0.1-2,0.3
				c-0.5,0.2-0.9,0.5-1.1,0.8c-0.2,0.4-0.4,1-0.5,1.7h-4.2c0.1-1.9,0.8-3.4,2.1-4.5c1.3-1,3.2-1.5,5.8-1.5c2.5,0,4.4,0.5,5.5,1.4
				c1.2,0.9,1.8,2.2,1.8,3.9v9.3c0,0.7,0.1,1.3,0.2,1.9c0.1,0.6,0.3,1.1,0.5,1.4H97.8z M95,197.7c0.7-0.3,1.2-0.8,1.7-1.4
				c0.4-0.6,0.6-1.4,0.6-2.4v-1.6c-0.2,0.2-0.5,0.4-0.8,0.5c-0.3,0.1-0.7,0.2-1.2,0.2l-2.3,0.3c-1.2,0.1-2,0.4-2.4,0.8
				c-0.5,0.4-0.7,1-0.7,1.7c0,0.7,0.2,1.3,0.7,1.8c0.5,0.4,1.2,0.6,2.2,0.6C93.5,198.2,94.3,198,95,197.7z"/>
			<path class="st1" d="M117.5,183.6c0.9,0.5,1.6,1.2,2.1,2.1s0.8,2.1,0.8,3.5v11.6h-4.3v-10.9c0-2.2-1.1-3.3-3.3-3.3
				c-0.7,0-1.3,0.2-1.9,0.5s-1.1,0.8-1.5,1.5s-0.6,1.5-0.6,2.5v9.8h-4.3v-17.5h4.1v2.5c0.6-0.9,1.4-1.6,2.3-2.1
				c0.9-0.5,2-0.8,3.2-0.8C115.5,182.9,116.6,183.1,117.5,183.6z"/>
			<path class="st1" d="M136.4,176.6h4.3v24.2h-4.1v-2.4c-0.6,0.9-1.4,1.6-2.3,2.1c-0.9,0.5-2,0.7-3.2,0.7c-1.6,0-3-0.4-4.2-1.1
				c-1.2-0.7-2.1-1.8-2.7-3.2c-0.6-1.4-1-3-1-4.8c0-1.8,0.3-3.5,1-4.8c0.6-1.4,1.5-2.5,2.7-3.2c1.2-0.7,2.6-1.1,4.2-1.1
				c1.2,0,2.2,0.2,3.1,0.7s1.7,1.1,2.3,2V176.6z M135.3,196.3c0.8-1,1.2-2.4,1.2-4.2c0-1.8-0.4-3.2-1.2-4.2s-1.9-1.4-3.3-1.4
				c-0.9,0-1.7,0.2-2.4,0.7c-0.7,0.5-1.2,1.1-1.5,2s-0.5,1.9-0.5,3.1c0,1.8,0.4,3.2,1.2,4.1c0.8,0.9,1.9,1.4,3.3,1.4
				C133.4,197.7,134.5,197.2,135.3,196.3z"/>
			<path class="st1" d="M147.6,200.1c-1.3-0.7-2.3-1.8-3.1-3.2c-0.7-1.4-1.1-3-1.1-4.8c0-1.8,0.4-3.4,1.1-4.8s1.7-2.5,3-3.2
				c1.3-0.8,2.8-1.1,4.5-1.1c1.8,0,3.3,0.4,4.6,1.2c1.3,0.8,2.3,1.9,3,3.3c0.7,1.4,1.1,3.1,1.1,4.9v1h-13.1c0.2,1.5,0.6,2.7,1.4,3.4
				c0.8,0.7,1.8,1.1,3.1,1.1c1,0,1.8-0.2,2.5-0.7s1.2-1.1,1.5-1.9h4.1c-0.3,1.2-0.8,2.2-1.6,3.1c-0.7,0.9-1.7,1.6-2.8,2
				c-1.1,0.5-2.4,0.7-3.8,0.7C150.4,201.2,148.9,200.9,147.6,200.1z M156.4,190.4c-0.2-1.3-0.7-2.3-1.4-3c-0.8-0.8-1.8-1.1-3-1.1
				c-1.2,0-2.2,0.4-2.9,1.1c-0.8,0.7-1.3,1.7-1.5,3.1H156.4z"/>
			<path class="st1" d="M176,176.6h4.3v24.2h-4.1v-2.4c-0.6,0.9-1.4,1.6-2.3,2.1c-0.9,0.5-2,0.7-3.2,0.7c-1.6,0-3-0.4-4.2-1.1
				c-1.2-0.7-2.1-1.8-2.7-3.2c-0.6-1.4-1-3-1-4.8c0-1.8,0.3-3.5,1-4.8c0.6-1.4,1.5-2.5,2.7-3.2c1.2-0.7,2.6-1.1,4.2-1.1
				c1.2,0,2.2,0.2,3.1,0.7s1.7,1.1,2.3,2V176.6z M174.9,196.3c0.8-1,1.2-2.4,1.2-4.2c0-1.8-0.4-3.2-1.2-4.2s-1.9-1.4-3.3-1.4
				c-0.9,0-1.7,0.2-2.4,0.7c-0.7,0.5-1.2,1.1-1.5,2s-0.5,1.9-0.5,3.1c0,1.8,0.4,3.2,1.2,4.1c0.8,0.9,1.9,1.4,3.3,1.4
				C173,197.7,174.1,197.2,174.9,196.3z"/>
			<path class="st1" d="M201.5,183.1v3.9h-1.1c-1.6,0-2.9,0.4-3.7,1.2s-1.3,2-1.3,3.7v8.9h-4.3v-17.5h4.1v3.1c0.5-1,1.1-1.9,2-2.5
				c0.9-0.6,2-0.9,3.2-0.9C200.9,183,201.3,183,201.5,183.1z"/>
			<path class="st1" d="M206.5,200.1c-1.3-0.7-2.3-1.8-3.1-3.2c-0.7-1.4-1.1-3-1.1-4.8c0-1.8,0.4-3.4,1.1-4.8s1.7-2.5,3-3.2
				c1.3-0.8,2.8-1.1,4.5-1.1c1.8,0,3.3,0.4,4.6,1.2c1.3,0.8,2.3,1.9,3,3.3c0.7,1.4,1.1,3.1,1.1,4.9v1h-13.1c0.2,1.5,0.6,2.7,1.4,3.4
				c0.8,0.7,1.8,1.1,3.1,1.1c1,0,1.8-0.2,2.5-0.7s1.2-1.1,1.5-1.9h4.1c-0.3,1.2-0.8,2.2-1.6,3.1c-0.7,0.9-1.7,1.6-2.8,2
				c-1.1,0.5-2.4,0.7-3.8,0.7C209.3,201.2,207.8,200.9,206.5,200.1z M215.3,190.4c-0.2-1.3-0.7-2.3-1.4-3c-0.8-0.8-1.8-1.1-3-1.1
				c-1.2,0-2.2,0.4-2.9,1.1c-0.8,0.7-1.3,1.7-1.5,3.1H215.3z"/>
			<path class="st1" d="M236.3,184c1.2,0.7,2.1,1.8,2.7,3.2c0.6,1.4,1,3,1,4.8c0,1.8-0.3,3.5-1,4.8c-0.6,1.4-1.5,2.5-2.7,3.2
				s-2.6,1.1-4.2,1.1c-1.2,0-2.3-0.2-3.2-0.7c-0.9-0.5-1.7-1.1-2.3-2v8.9h-4.3v-24.2h4.1v2.5c0.6-0.9,1.4-1.6,2.3-2.2
				c0.9-0.5,2-0.8,3.3-0.8C233.7,182.9,235.1,183.2,236.3,184z M234.4,196.2c0.8-1,1.2-2.4,1.2-4.3c0-1.8-0.4-3.2-1.2-4.1
				c-0.8-0.9-1.9-1.4-3.3-1.4c-1.4,0-2.5,0.5-3.3,1.4s-1.2,2.4-1.2,4.2c0,1.8,0.4,3.2,1.2,4.2c0.8,1,1.9,1.4,3.3,1.4
				C232.5,197.7,233.6,197.2,234.4,196.2z"/>
			<path class="st1" d="M246.1,200.1c-1.3-0.8-2.4-1.8-3.1-3.2c-0.7-1.4-1.1-3-1.1-4.8c0-1.8,0.4-3.4,1.1-4.8s1.8-2.5,3.1-3.2
				c1.3-0.8,2.9-1.1,4.7-1.1c1.8,0,3.3,0.4,4.7,1.1c1.3,0.8,2.4,1.8,3.1,3.2c0.7,1.4,1.1,3,1.1,4.8c0,1.8-0.4,3.4-1.1,4.8
				c-0.7,1.4-1.8,2.5-3.1,3.2c-1.3,0.8-2.9,1.1-4.7,1.1C249,201.2,247.5,200.9,246.1,200.1z M254.1,196.2c0.8-1,1.2-2.4,1.2-4.2
				c0-1.8-0.4-3.2-1.2-4.2c-0.8-1-1.9-1.5-3.3-1.5c-1.4,0-2.5,0.5-3.3,1.5s-1.2,2.4-1.2,4.2c0,1.8,0.4,3.2,1.2,4.2s1.9,1.5,3.3,1.5
				C252.2,197.7,253.3,197.2,254.1,196.2z"/>
			<path class="st1" d="M272.8,183.1v3.9h-1.1c-1.6,0-2.9,0.4-3.7,1.2s-1.3,2-1.3,3.7v8.9h-4.3v-17.5h4.1v3.1c0.5-1,1.1-1.9,2-2.5
				c0.9-0.6,2-0.9,3.2-0.9C272.2,183,272.6,183,272.8,183.1z"/>
			<path class="st1" d="M284.5,186.6H281v9.4c0,0.6,0.2,1,0.5,1.2c0.3,0.2,0.8,0.3,1.5,0.3h1.5v3.3c-0.7,0.1-1.5,0.1-2.2,0.1
				c-1.9,0-3.3-0.3-4.1-1s-1.3-1.8-1.3-3.4v-9.9H274v-3.3h2.7v-5.1h4.2v5.1h3.5V186.6z"/>
			<path class="st1" d="M291.2,181.2H287v-4h4.2V181.2z M291.2,200.8H287v-17.5h4.3V200.8z"/>
			<path class="st1" d="M307.6,183.6c0.9,0.5,1.6,1.2,2.1,2.1s0.8,2.1,0.8,3.5v11.6h-4.3v-10.9c0-2.2-1.1-3.3-3.3-3.3
				c-0.7,0-1.3,0.2-1.9,0.5c-0.6,0.3-1.1,0.8-1.5,1.5c-0.4,0.7-0.6,1.5-0.6,2.5v9.8h-4.3v-17.5h4.1v2.5c0.6-0.9,1.4-1.6,2.3-2.1
				c0.9-0.5,2-0.8,3.2-0.8C305.6,182.9,306.7,183.1,307.6,183.6z"/>
			<path class="st1" d="M326.6,183.3h4.1v17c0,1.6-0.3,2.9-1,4.1c-0.7,1.1-1.6,2-2.9,2.7c-1.3,0.6-2.9,0.9-4.7,0.9
				c-1.7,0-3.1-0.3-4.2-0.8c-1.2-0.5-2.1-1.2-2.7-2.1s-1-2-1.1-3.2h4.2c0.1,0.9,0.5,1.6,1.1,2.1c0.7,0.5,1.6,0.7,2.8,0.7
				c1.4,0,2.5-0.4,3.2-1.1s1.1-1.8,1.1-3.2v-2.2c-0.6,0.8-1.3,1.5-2.2,1.9c-0.9,0.5-1.9,0.7-3.1,0.7c-1.6,0-2.9-0.4-4.1-1.1
				s-2.1-1.8-2.8-3.1c-0.7-1.3-1-2.9-1-4.7c0-1.8,0.3-3.3,1-4.7c0.6-1.4,1.6-2.4,2.8-3.1c1.2-0.7,2.6-1.1,4.2-1.1
				c1.2,0,2.3,0.2,3.3,0.7s1.7,1.2,2.3,2.1V183.3z M325.4,195.8c0.8-0.9,1.2-2.3,1.2-4s-0.4-3.1-1.2-4s-1.9-1.4-3.3-1.4
				c-0.9,0-1.7,0.2-2.4,0.6s-1.2,1.1-1.6,1.9c-0.4,0.8-0.5,1.8-0.5,2.9s0.2,2.1,0.5,2.9c0.4,0.8,0.9,1.4,1.6,1.9
				c0.7,0.4,1.5,0.6,2.4,0.6C323.5,197.2,324.6,196.8,325.4,195.8z"/>
			<path class="st1" d="M355.5,184c1.2,0.7,2.1,1.8,2.7,3.2c0.6,1.4,1,3,1,4.8c0,1.8-0.3,3.5-1,4.8c-0.6,1.4-1.5,2.5-2.7,3.2
				c-1.2,0.7-2.6,1.1-4.2,1.1c-1.2,0-2.3-0.3-3.3-0.8c-0.9-0.5-1.7-1.2-2.3-2.2v2.5h-4.1v-24.2h4.3v8.9c0.6-0.9,1.4-1.5,2.3-2
				s2-0.7,3.2-0.7C352.9,182.9,354.3,183.2,355.5,184z M353.6,196.2c0.8-1,1.2-2.4,1.2-4.3c0-1.8-0.4-3.2-1.2-4.1
				c-0.8-0.9-1.9-1.4-3.3-1.4c-1.4,0-2.5,0.5-3.3,1.4s-1.2,2.4-1.2,4.2c0,1.8,0.4,3.2,1.2,4.2c0.8,1,1.9,1.4,3.3,1.4
				C351.7,197.7,352.8,197.2,353.6,196.2z"/>
			<path class="st1" d="M365.2,200.1c-1.3-0.7-2.3-1.8-3.1-3.2c-0.7-1.4-1.1-3-1.1-4.8c0-1.8,0.4-3.4,1.1-4.8c0.7-1.4,1.7-2.5,3-3.2
				c1.3-0.8,2.8-1.1,4.5-1.1c1.8,0,3.3,0.4,4.6,1.2c1.3,0.8,2.3,1.9,3,3.3c0.7,1.4,1.1,3.1,1.1,4.9v1h-13.1c0.2,1.5,0.6,2.7,1.4,3.4
				c0.8,0.7,1.8,1.1,3.1,1.1c1,0,1.8-0.2,2.5-0.7c0.7-0.4,1.2-1.1,1.5-1.9h4.1c-0.3,1.2-0.8,2.2-1.6,3.1c-0.7,0.9-1.7,1.6-2.8,2
				c-1.1,0.5-2.4,0.7-3.8,0.7C368.1,201.2,366.5,200.9,365.2,200.1z M374.1,190.4c-0.2-1.3-0.7-2.3-1.4-3c-0.8-0.8-1.8-1.1-3-1.1
				c-1.2,0-2.2,0.4-2.9,1.1c-0.8,0.7-1.3,1.7-1.5,3.1H374.1z"/>
			<path class="st1" d="M394,183.6c0.9,0.5,1.6,1.2,2.1,2.1s0.8,2.1,0.8,3.5v11.6h-4.3v-10.9c0-2.2-1.1-3.3-3.3-3.3
				c-0.7,0-1.3,0.2-1.9,0.5c-0.6,0.3-1.1,0.8-1.5,1.5c-0.4,0.7-0.6,1.5-0.6,2.5v9.8h-4.3v-17.5h4.1v2.5c0.6-0.9,1.4-1.6,2.3-2.1
				c0.9-0.5,2-0.8,3.2-0.8C392,182.9,393.1,183.1,394,183.6z"/>
			<path class="st1" d="M403.8,200.1c-1.3-0.7-2.3-1.8-3.1-3.2c-0.7-1.4-1.1-3-1.1-4.8c0-1.8,0.4-3.4,1.1-4.8c0.7-1.4,1.7-2.5,3-3.2
				c1.3-0.8,2.8-1.1,4.5-1.1c1.8,0,3.3,0.4,4.6,1.2c1.3,0.8,2.3,1.9,3,3.3c0.7,1.4,1.1,3.1,1.1,4.9v1h-13.1c0.2,1.5,0.6,2.7,1.4,3.4
				s1.8,1.1,3.1,1.1c1,0,1.8-0.2,2.5-0.7c0.7-0.4,1.2-1.1,1.5-1.9h4.1c-0.3,1.2-0.8,2.2-1.6,3.1c-0.7,0.9-1.7,1.6-2.8,2
				c-1.1,0.5-2.4,0.7-3.8,0.7C406.6,201.2,405.1,200.9,403.8,200.1z M412.7,190.4c-0.2-1.3-0.7-2.3-1.4-3c-0.8-0.8-1.8-1.1-3-1.1
				c-1.2,0-2.2,0.4-2.9,1.1c-0.8,0.7-1.3,1.7-1.5,3.1H412.7z"/>
			<path class="st1" d="M424.7,182v1.3h3.6v3.3h-3.6v14.2h-4.2v-14.2h-2.7v-3.3h2.7V182c0-1.7,0.5-3,1.4-4s2.4-1.5,4.4-1.5
				c0.9,0,1.6,0,2.2,0.1v3.3h-1.5C425.4,179.9,424.7,180.6,424.7,182z M435,181.2h-4.2v-4h4.2V181.2z M435,200.8h-4.3v-17.5h4.3
				V200.8z"/>
			<path class="st1" d="M447.6,186.6h-3.5v9.4c0,0.6,0.2,1,0.5,1.2c0.3,0.2,0.8,0.3,1.5,0.3h1.5v3.3c-0.7,0.1-1.5,0.1-2.2,0.1
				c-1.9,0-3.3-0.3-4.1-1c-0.9-0.7-1.3-1.8-1.3-3.4v-9.9h-2.7v-3.3h2.7v-5.1h4.2v5.1h3.5V186.6z"/>
			<path class="st1" d="M451.2,199.8c-1.3-1-2.1-2.5-2.2-4.6h4.2c0.1,1.1,0.5,1.9,1.1,2.3c0.6,0.5,1.5,0.7,2.8,0.7
				c1.2,0,2.1-0.2,2.6-0.5c0.6-0.4,0.8-0.9,0.8-1.6c0-0.4-0.1-0.8-0.3-1.1c-0.2-0.3-0.6-0.5-1.1-0.7s-1.2-0.4-2.1-0.5l-2-0.3
				c-1.9-0.3-3.3-0.9-4.3-1.8c-1-0.9-1.4-2-1.4-3.5c0-1.1,0.3-2.1,0.8-2.9c0.6-0.8,1.4-1.4,2.5-1.8c1.1-0.4,2.4-0.6,3.9-0.6
				c2.6,0,4.5,0.5,5.8,1.6c1.2,1,1.9,2.5,2,4.4h-4c0-1.1-0.4-1.8-1-2.2s-1.5-0.6-2.7-0.6c-1,0-1.8,0.2-2.3,0.5s-0.8,0.9-0.8,1.5
				c0,0.6,0.2,1.1,0.7,1.4c0.5,0.3,1.2,0.6,2.2,0.7l2.2,0.3c2.1,0.4,3.7,1,4.6,1.8c1,0.8,1.4,2,1.4,3.5c0,1.2-0.3,2.2-0.9,3
				c-0.6,0.8-1.5,1.4-2.7,1.9c-1.2,0.4-2.6,0.6-4.2,0.6C454.5,201.3,452.5,200.8,451.2,199.8z"/>
			<path class="st1" d="M42.2,224.1h4.3v17.5h-4.1v-2.5c-0.6,0.9-1.4,1.6-2.3,2.2s-2,0.8-3.2,0.8c-1.2,0-2.3-0.2-3.2-0.7
				c-0.9-0.5-1.6-1.2-2.1-2.1s-0.8-2.1-0.8-3.5v-11.6H35V235c0,1.1,0.3,1.9,0.8,2.5s1.4,0.8,2.5,0.8c0.7,0,1.3-0.2,1.9-0.5
				c0.6-0.3,1.1-0.8,1.5-1.5c0.4-0.7,0.6-1.5,0.6-2.5V224.1z"/>
			<path class="st1" d="M62.8,224.4c0.9,0.5,1.6,1.2,2.1,2.1s0.8,2.1,0.8,3.5v11.6h-4.3v-10.9c0-2.2-1.1-3.3-3.3-3.3
				c-0.7,0-1.3,0.2-1.9,0.5s-1.1,0.8-1.5,1.5s-0.6,1.5-0.6,2.5v9.8H50v-17.5h4.1v2.5c0.6-0.9,1.4-1.6,2.3-2.1c0.9-0.5,2-0.8,3.2-0.8
				C60.8,223.7,61.9,223.9,62.8,224.4z"/>
			<path class="st1" d="M81.7,217.4H86v24.2h-4.1v-2.4c-0.6,0.9-1.4,1.6-2.3,2.1c-0.9,0.5-2,0.7-3.2,0.7c-1.6,0-3-0.4-4.2-1.1
				c-1.2-0.7-2.1-1.8-2.7-3.2c-0.6-1.4-1-3-1-4.8c0-1.8,0.3-3.5,1-4.8c0.6-1.4,1.5-2.5,2.7-3.2c1.2-0.7,2.6-1.1,4.2-1.1
				c1.2,0,2.2,0.2,3.1,0.7s1.7,1.1,2.3,2V217.4z M80.6,237.1c0.8-1,1.2-2.4,1.2-4.2c0-1.8-0.4-3.2-1.2-4.2s-1.9-1.4-3.3-1.4
				c-0.9,0-1.7,0.2-2.4,0.7c-0.7,0.5-1.2,1.1-1.5,2s-0.5,1.9-0.5,3.1c0,1.8,0.4,3.2,1.2,4.1c0.8,0.9,1.9,1.4,3.3,1.4
				C78.7,238.5,79.8,238,80.6,237.1z"/>
			<path class="st1" d="M92.9,240.9c-1.3-0.7-2.3-1.8-3.1-3.2c-0.7-1.4-1.1-3-1.1-4.8c0-1.8,0.4-3.4,1.1-4.8s1.7-2.5,3-3.2
				c1.3-0.8,2.8-1.1,4.5-1.1c1.8,0,3.3,0.4,4.6,1.2c1.3,0.8,2.3,1.9,3,3.3c0.7,1.4,1.1,3.1,1.1,4.9v1H92.9c0.2,1.5,0.6,2.7,1.4,3.4
				c0.8,0.7,1.8,1.1,3.1,1.1c1,0,1.8-0.2,2.5-0.7s1.2-1.1,1.5-1.9h4.1c-0.3,1.2-0.8,2.2-1.6,3.1c-0.7,0.9-1.7,1.6-2.8,2
				c-1.1,0.5-2.4,0.7-3.8,0.7C95.7,242,94.2,241.7,92.9,240.9z M101.7,231.2c-0.2-1.3-0.7-2.3-1.4-3c-0.8-0.8-1.8-1.1-3-1.1
				c-1.2,0-2.2,0.4-2.9,1.1c-0.8,0.7-1.3,1.7-1.5,3.1H101.7z"/>
			<path class="st1" d="M119.2,223.9v3.9h-1.1c-1.6,0-2.9,0.4-3.7,1.2s-1.3,2-1.3,3.7v8.9h-4.3v-17.5h4.1v3.1c0.5-1,1.1-1.9,2-2.5
				c0.9-0.6,2-0.9,3.2-0.9C118.6,223.8,119,223.8,119.2,223.9z"/>
			<path class="st1" d="M138.2,227.4h-3.5v9.4c0,0.6,0.2,1,0.5,1.2s0.8,0.3,1.5,0.3h1.5v3.3c-0.7,0.1-1.5,0.1-2.2,0.1
				c-1.9,0-3.3-0.3-4.1-1c-0.9-0.7-1.3-1.8-1.3-3.4v-9.9h-2.7v-3.3h2.7V219h4.2v5.1h3.5V227.4z"/>
			<path class="st1" d="M153.6,224.4c0.9,0.5,1.6,1.2,2.1,2.1s0.8,2.1,0.8,3.5v11.6h-4.3v-10.9c0-2.2-1.1-3.3-3.3-3.3
				c-0.7,0-1.3,0.2-1.9,0.5s-1.1,0.8-1.5,1.5s-0.6,1.5-0.6,2.5v9.8h-4.3v-24.2h4.3v9c0.6-0.8,1.4-1.5,2.3-2c0.9-0.5,1.9-0.7,3.1-0.7
				C151.6,223.7,152.7,223.9,153.6,224.4z"/>
			<path class="st1" d="M163.4,240.9c-1.3-0.7-2.3-1.8-3.1-3.2c-0.7-1.4-1.1-3-1.1-4.8c0-1.8,0.4-3.4,1.1-4.8s1.7-2.5,3-3.2
				c1.3-0.8,2.8-1.1,4.5-1.1c1.8,0,3.3,0.4,4.6,1.2c1.3,0.8,2.3,1.9,3,3.3c0.7,1.4,1.1,3.1,1.1,4.9v1h-13.1c0.2,1.5,0.6,2.7,1.4,3.4
				c0.8,0.7,1.8,1.1,3.1,1.1c1,0,1.8-0.2,2.5-0.7s1.2-1.1,1.5-1.9h4.1c-0.3,1.2-0.8,2.2-1.6,3.1c-0.7,0.9-1.7,1.6-2.8,2
				c-1.1,0.5-2.4,0.7-3.8,0.7C166.2,242,164.7,241.7,163.4,240.9z M172.3,231.2c-0.2-1.3-0.7-2.3-1.4-3c-0.8-0.8-1.8-1.1-3-1.1
				c-1.2,0-2.2,0.4-2.9,1.1c-0.8,0.7-1.3,1.7-1.5,3.1H172.3z"/>
			<path class="st1" d="M202.7,218.9c1.8,1,3.2,2.4,4.1,4.2c0.9,1.8,1.4,4,1.4,6.4s-0.5,4.6-1.4,6.4s-2.3,3.2-4.1,4.2
				c-1.8,1-4,1.5-6.6,1.5h-9.2v-24.2h9.2C198.7,217.4,200.9,217.9,202.7,218.9z M196.1,237.7c2.4,0,4.2-0.7,5.5-2.1
				c1.3-1.4,1.9-3.4,1.9-6.1c0-2.7-0.6-4.7-1.9-6.1c-1.3-1.4-3.1-2.1-5.5-2.1h-4.6v16.3H196.1z"/>
			<path class="st1" d="M232.6,241.6h-5.4l-1.8-2c-1,0.8-2.1,1.4-3.3,1.9c-1.2,0.4-2.5,0.7-3.9,0.7c-1.7,0-3.2-0.3-4.5-0.9
				c-1.2-0.6-2.2-1.5-2.9-2.5c-0.7-1.1-1-2.3-1-3.6c0-1.6,0.4-2.9,1.3-4c0.9-1.1,2.2-2.1,4-3c-0.9-1.1-1.6-2-2-2.8
				c-0.4-0.8-0.6-1.7-0.6-2.6c0-1.1,0.3-2.1,0.8-2.9c0.5-0.9,1.3-1.6,2.3-2.1c1-0.5,2.2-0.8,3.6-0.8c1.3,0,2.5,0.2,3.5,0.7
				c1,0.5,1.8,1.1,2.4,2c0.6,0.9,0.9,1.8,0.9,3c0,1.3-0.4,2.4-1.3,3.5c-0.9,1.1-2.1,2.1-3.7,2.9l4.2,4.7c0.5-1.2,0.8-2.5,0.8-3.9
				h3.9c0,1.2-0.2,2.5-0.6,3.6c-0.4,1.2-0.8,2.2-1.4,3.2L232.6,241.6z M223,236.9l-5.7-6.3c-1,0.5-1.7,1.1-2.2,1.8
				c-0.5,0.7-0.7,1.5-0.7,2.4c0,0.7,0.2,1.3,0.5,1.8c0.3,0.6,0.8,1,1.4,1.4c0.6,0.4,1.4,0.5,2.2,0.5
				C220.3,238.5,221.8,238,223,236.9z M217.6,221c-0.5,0.4-0.7,1-0.7,1.7c0,0.5,0.2,1.1,0.5,1.7c0.3,0.6,0.9,1.3,1.6,2.1l0.1,0.1
				c1.1-0.6,1.9-1.2,2.4-1.8c0.5-0.6,0.8-1.3,0.8-2c0-0.5-0.1-0.9-0.3-1.2c-0.2-0.4-0.5-0.6-1-0.8s-0.9-0.3-1.4-0.3
				C218.8,220.3,218.1,220.5,217.6,221z"/>
			<path class="st1" d="M237.9,240.6c-1.8-1-3.2-2.5-4.2-4.4c-1-1.9-1.5-4.1-1.5-6.6c0-2.5,0.5-4.7,1.5-6.6c1-1.9,2.4-3.4,4.2-4.4
				c1.8-1,3.9-1.6,6.3-1.6c2.4,0,4.5,0.5,6.3,1.6c1.8,1.1,3.2,2.5,4.2,4.4c1,1.9,1.5,4.1,1.5,6.6c0,2.5-0.5,4.7-1.5,6.6
				c-1,1.9-2.4,3.4-4.2,4.4c-1.8,1.1-3.9,1.6-6.3,1.6C241.8,242.2,239.7,241.6,237.9,240.6z M248.1,237.1c1.1-0.7,1.9-1.7,2.5-3
				s0.9-2.8,0.9-4.6c0-1.8-0.3-3.3-0.9-4.6s-1.5-2.3-2.5-3c-1.1-0.7-2.4-1-3.9-1s-2.8,0.3-3.9,1c-1.1,0.7-2,1.7-2.5,3
				c-0.6,1.3-0.9,2.8-0.9,4.6c0,1.8,0.3,3.3,0.9,4.6c0.6,1.3,1.5,2.3,2.5,3c1.1,0.7,2.4,1,3.9,1S247,237.8,248.1,237.1z"/>
			<path class="st1" d="M280.3,224.8c1.2,0.7,2.1,1.8,2.7,3.2c0.6,1.4,1,3,1,4.8c0,1.8-0.3,3.5-1,4.8c-0.6,1.4-1.5,2.5-2.7,3.2
				c-1.2,0.7-2.6,1.1-4.2,1.1c-1.2,0-2.3-0.2-3.2-0.7c-0.9-0.5-1.7-1.1-2.3-2v8.9h-4.3v-24.2h4.1v2.5c0.6-0.9,1.4-1.6,2.3-2.2
				c0.9-0.5,2-0.8,3.3-0.8C277.7,223.7,279.1,224,280.3,224.8z M278.4,237c0.8-1,1.2-2.4,1.2-4.3c0-1.8-0.4-3.2-1.2-4.1
				c-0.8-0.9-1.9-1.4-3.3-1.4c-1.4,0-2.5,0.5-3.3,1.4c-0.8,1-1.2,2.4-1.2,4.2c0,1.8,0.4,3.2,1.2,4.2c0.8,1,1.9,1.4,3.3,1.4
				C276.5,238.5,277.6,238,278.4,237z"/>
			<path class="st1" d="M297.1,223.9v3.9H296c-1.6,0-2.9,0.4-3.7,1.2c-0.9,0.8-1.3,2-1.3,3.7v8.9h-4.3v-17.5h4.1v3.1
				c0.5-1,1.1-1.9,2-2.5c0.9-0.6,2-0.9,3.2-0.9C296.5,223.8,296.8,223.8,297.1,223.9z"/>
			<path class="st1" d="M302.1,240.9c-1.3-0.8-2.4-1.8-3.1-3.2c-0.7-1.4-1.1-3-1.1-4.8c0-1.8,0.4-3.4,1.1-4.8s1.8-2.5,3.1-3.2
				c1.3-0.8,2.9-1.1,4.7-1.1c1.8,0,3.3,0.4,4.7,1.1c1.3,0.8,2.4,1.8,3.1,3.2c0.7,1.4,1.1,3,1.1,4.8c0,1.8-0.4,3.4-1.1,4.8
				c-0.7,1.4-1.8,2.5-3.1,3.2c-1.3,0.8-2.9,1.1-4.7,1.1C305,242,303.4,241.7,302.1,240.9z M310.1,237c0.8-1,1.2-2.4,1.2-4.2
				c0-1.8-0.4-3.2-1.2-4.2c-0.8-1-1.9-1.5-3.3-1.5c-1.4,0-2.5,0.5-3.3,1.5s-1.2,2.4-1.2,4.2c0,1.8,0.4,3.2,1.2,4.2s1.9,1.5,3.3,1.5
				C308.2,238.5,309.3,238,310.1,237z"/>
			<path class="st1" d="M331,224.1h4.1v17c0,1.6-0.3,2.9-1,4.1c-0.7,1.1-1.6,2-2.9,2.7c-1.3,0.6-2.9,0.9-4.7,0.9
				c-1.7,0-3.1-0.3-4.2-0.8c-1.2-0.5-2.1-1.2-2.7-2.1s-1-2-1.1-3.2h4.2c0.1,0.9,0.5,1.6,1.1,2.1c0.7,0.5,1.6,0.7,2.8,0.7
				c1.4,0,2.5-0.4,3.2-1.1s1.1-1.8,1.1-3.2v-2.2c-0.6,0.8-1.3,1.5-2.2,1.9c-0.9,0.5-1.9,0.7-3.1,0.7c-1.6,0-2.9-0.4-4.1-1.1
				s-2.1-1.8-2.8-3.1c-0.7-1.3-1-2.9-1-4.7c0-1.8,0.3-3.3,1-4.7c0.6-1.4,1.6-2.4,2.8-3.1c1.2-0.7,2.6-1.1,4.2-1.1
				c1.2,0,2.3,0.2,3.3,0.7s1.7,1.2,2.3,2.1V224.1z M329.8,236.6c0.8-0.9,1.2-2.3,1.2-4s-0.4-3.1-1.2-4s-1.9-1.4-3.3-1.4
				c-0.9,0-1.7,0.2-2.4,0.6s-1.2,1.1-1.6,1.9c-0.4,0.8-0.5,1.8-0.5,2.9s0.2,2.1,0.5,2.9c0.4,0.8,0.9,1.4,1.6,1.9
				c0.7,0.4,1.5,0.6,2.4,0.6C327.8,238,329,237.6,329.8,236.6z"/>
			<path class="st1" d="M349.1,223.9v3.9H348c-1.6,0-2.9,0.4-3.7,1.2c-0.9,0.8-1.3,2-1.3,3.7v8.9h-4.3v-17.5h4.1v3.1
				c0.5-1,1.1-1.9,2-2.5c0.9-0.6,2-0.9,3.2-0.9C348.4,223.8,348.8,223.8,349.1,223.9z"/>
			<path class="st1" d="M361.8,241.6c-0.2-0.4-0.4-1.1-0.5-2.1c-0.6,0.8-1.4,1.4-2.3,1.9c-1,0.4-2.1,0.7-3.3,0.7
				c-1.2,0-2.3-0.2-3.3-0.6c-1-0.4-1.7-1-2.2-1.8c-0.5-0.8-0.8-1.7-0.8-2.9c0-1.5,0.5-2.8,1.6-3.7c1.1-0.9,2.8-1.5,5.2-1.8l2.7-0.2
				c0.9-0.1,1.5-0.3,1.9-0.6c0.4-0.3,0.6-0.8,0.6-1.4c0-0.7-0.2-1.3-0.7-1.6s-1.3-0.5-2.5-0.5c-0.8,0-1.5,0.1-2,0.3
				c-0.5,0.2-0.9,0.5-1.1,0.8c-0.2,0.4-0.4,1-0.5,1.7h-4.2c0.1-1.9,0.8-3.4,2.1-4.5c1.3-1,3.2-1.5,5.8-1.5c2.5,0,4.4,0.5,5.5,1.4
				s1.8,2.2,1.8,3.9v9.3c0,0.7,0.1,1.3,0.2,1.9c0.1,0.6,0.3,1.1,0.5,1.4H361.8z M359,238.5c0.7-0.3,1.2-0.8,1.7-1.4
				c0.4-0.6,0.6-1.4,0.6-2.4v-1.6c-0.2,0.2-0.5,0.4-0.8,0.5c-0.3,0.1-0.7,0.2-1.2,0.2l-2.3,0.3c-1.2,0.1-2,0.4-2.4,0.8
				c-0.5,0.4-0.7,1-0.7,1.7c0,0.7,0.2,1.3,0.7,1.8c0.5,0.4,1.2,0.6,2.2,0.6C357.5,239,358.3,238.8,359,238.5z"/>
			<path class="st1" d="M392,224.5c0.9,0.5,1.6,1.3,2.1,2.2c0.5,1,0.7,2.1,0.7,3.4v11.6h-4.3v-10.9c0-1.1-0.2-2-0.7-2.5
				c-0.5-0.5-1.3-0.8-2.3-0.8c-0.7,0-1.3,0.2-1.8,0.5c-0.5,0.3-1,0.8-1.3,1.5c-0.3,0.7-0.5,1.6-0.5,2.6v9.7h-4.2v-10.9
				c0-2.2-1-3.3-3.1-3.3c-0.6,0-1.2,0.2-1.8,0.5c-0.5,0.3-1,0.8-1.3,1.5s-0.5,1.6-0.5,2.6v9.7h-4.3v-17.5h4.1v2.5
				c0.6-0.9,1.3-1.6,2.1-2.1c0.8-0.5,1.8-0.8,2.9-0.8c1.3,0,2.4,0.3,3.4,0.9s1.6,1.4,2.1,2.4c0.6-1,1.4-1.8,2.3-2.4
				c0.9-0.6,2-0.9,3.1-0.9C390,223.7,391.1,223.9,392,224.5z"/>
			<path class="st1" d="M402.8,241.6h-5v-4.9h5V241.6z"/>
		</g>
	</g>
</g>
</svg>
