<?xml version="1.0" encoding="utf-8"?>
<!-- Generator: Adobe Illustrator 26.0.1, SVG Export Plug-In . SVG Version: 6.00 Build 0)  -->
<svg version="1.1" id="Layer_1" xmlns="http://www.w3.org/2000/svg" xmlns:xlink="http://www.w3.org/1999/xlink" x="0px" y="0px"
	 viewBox="0 0 540 165.5" style="enable-background:new 0 0 540 165.5;" xml:space="preserve">
<style type="text/css">
	.Drop_x0020_Shadow{fill:none;}
	.Outer_x0020_Glow_x0020_5_x0020_pt{fill:none;}
	.Jive_GS{fill:#A5CFE3;}
	.st0{fill:#E11B22;}
</style>
<g>
	<g>
		<g>
			<path class="st0" d="M156.2,52.8l2.7-10.2h2.3l-4.8,17.1h-2.1l-3-11.1l-1-3.9l-1,3.9l-3,11.1h-2.1l-4.6-17.1h2.3l2.5,10.2
				l0.8,3.8l0.9-3.8l2.8-10.2h2.5l2.8,10.2l0.9,3.9L156.2,52.8z"/>
			<path class="st0" d="M172.3,47.5c0.6,0.3,1.1,0.8,1.5,1.4c0.3,0.6,0.5,1.4,0.5,2.2v8.6H172v-8.2c0-1.7-0.8-2.6-2.5-2.6
				c-0.6,0-1.2,0.1-1.7,0.4c-0.5,0.2-1,0.7-1.3,1.2c-0.3,0.6-0.5,1.3-0.5,2.3v6.9h-2.2V42.6h2.2v6.3c0.4-0.6,1-1.1,1.7-1.4
				c0.7-0.3,1.5-0.5,2.3-0.5C170.9,47,171.6,47.2,172.3,47.5z"/>
			<path class="st0" d="M188.9,54h-9.3c0,1.4,0.4,2.4,1,3.1c0.7,0.7,1.6,1.1,2.7,1.1c0.8,0,1.5-0.2,2.1-0.6s1-0.9,1.3-1.7l2,0.2
				c-0.4,1.2-1.1,2.2-2,2.8s-2.1,1-3.4,1c-1.2,0-2.3-0.3-3.1-0.8s-1.6-1.3-2-2.3c-0.5-1-0.7-2.1-0.7-3.4c0-1.3,0.2-2.4,0.7-3.3
				c0.5-1,1.1-1.7,2-2.3c0.9-0.5,1.9-0.8,3.1-0.8c1.2,0,2.2,0.2,3,0.7c0.9,0.5,1.5,1.2,2,2.1s0.7,2,0.7,3.3V54z M180.7,49.8
				c-0.6,0.6-1,1.5-1.1,2.7h7.2c-0.1-1.2-0.5-2.1-1.1-2.7c-0.6-0.6-1.4-0.9-2.4-0.9C182.2,48.8,181.4,49.1,180.7,49.8z"/>
			<path class="st0" d="M200.4,47.5c0.6,0.3,1.1,0.8,1.5,1.4c0.3,0.6,0.5,1.4,0.5,2.2v8.6h-2.2v-8.2c0-1.7-0.8-2.6-2.5-2.6
				c-0.6,0-1.2,0.1-1.7,0.4c-0.5,0.2-1,0.7-1.3,1.2c-0.3,0.6-0.5,1.3-0.5,2.3v6.9H192V47.3h2.1v1.8c0.4-0.7,1-1.2,1.7-1.5
				c0.7-0.4,1.5-0.5,2.4-0.5C199,47,199.8,47.2,200.4,47.5z"/>
			<path class="st0" d="M221.2,47.5c0.6,0.3,1.1,0.8,1.5,1.4c0.3,0.6,0.5,1.4,0.5,2.2v8.6h-2.2v-8.2c0-1.7-0.8-2.6-2.5-2.6
				c-0.6,0-1.2,0.1-1.7,0.4c-0.5,0.2-1,0.7-1.3,1.2c-0.3,0.6-0.5,1.3-0.5,2.3v6.9h-2.2V47.3h2.1v1.8c0.4-0.7,1-1.2,1.7-1.5
				c0.7-0.4,1.5-0.5,2.4-0.5C219.8,47,220.5,47.2,221.2,47.5z"/>
			<path class="st0" d="M229.1,59.2c-0.9-0.5-1.6-1.3-2.1-2.3c-0.5-1-0.7-2.1-0.7-3.4c0-1.3,0.3-2.5,0.8-3.4c0.5-1,1.2-1.7,2.1-2.3
				c0.9-0.5,2-0.8,3.1-0.8c1.2,0,2.2,0.3,3.1,0.8c0.9,0.5,1.6,1.3,2.1,2.2c0.5,1,0.8,2.1,0.8,3.4c0,1.3-0.3,2.4-0.8,3.4
				c-0.5,1-1.2,1.8-2.1,2.3c-0.9,0.6-1.9,0.8-3.1,0.8C231,60,230,59.7,229.1,59.2z M234.2,57.6c0.6-0.4,1-1,1.3-1.7s0.4-1.5,0.4-2.5
				c0-0.9-0.1-1.7-0.4-2.4c-0.3-0.7-0.7-1.2-1.3-1.6c-0.6-0.4-1.2-0.6-2-0.6c-0.8,0-1.4,0.2-2,0.6c-0.6,0.4-1,0.9-1.3,1.6
				s-0.4,1.5-0.4,2.4c0,0.9,0.2,1.7,0.5,2.4c0.3,0.7,0.7,1.2,1.3,1.6c0.6,0.4,1.2,0.6,2,0.6C233,58.2,233.7,58,234.2,57.6z"/>
			<path class="st0" d="M243.9,48.9v7.7c0,0.4,0.1,0.8,0.3,0.9c0.2,0.2,0.5,0.3,0.9,0.3h1.6v1.8h-2.3c-1,0-1.7-0.2-2.1-0.7
				c-0.4-0.4-0.7-1.1-0.7-2.1v-8l-1.8,0.1v-1.7l1.8,0.1v-3.9h2.2v3.9l2.8-0.1V49L243.9,48.9z"/>
			<path class="st0" d="M251.6,45h-2.2v-2.4h2.2V45z M251.6,59.7h-2.2V47.3h2.2V59.7z"/>
			<path class="st0" d="M257.4,59.3c-0.9-0.5-1.5-1.2-2-2.2c-0.5-1-0.7-2.1-0.7-3.5c0-1.4,0.2-2.6,0.7-3.6c0.5-1,1.2-1.7,2-2.3
				c0.9-0.5,1.9-0.8,3.1-0.8c1.4,0,2.6,0.4,3.5,1.1c0.9,0.8,1.5,1.8,1.7,3.2h-2.1c-0.3-1.7-1.4-2.5-3.1-2.5c-1.2,0-2.2,0.4-2.8,1.2
				c-0.6,0.8-0.9,2-0.9,3.4c0,1.5,0.3,2.6,0.9,3.4c0.6,0.8,1.5,1.2,2.7,1.2c0.9,0,1.6-0.2,2.1-0.7c0.5-0.5,0.9-1.2,1-2.1h2.1
				c-0.2,1.5-0.8,2.6-1.7,3.4c-0.9,0.8-2.1,1.2-3.7,1.2C259.3,60,258.3,59.8,257.4,59.3z"/>
			<path class="st0" d="M271,45h-2.2v-2.4h2.2V45z M271,59.7h-2.2V47.3h2.2V59.7z"/>
			<path class="st0" d="M283.3,47.5c0.6,0.3,1.1,0.8,1.5,1.4c0.3,0.6,0.5,1.4,0.5,2.2v8.6H283v-8.2c0-1.7-0.8-2.6-2.5-2.6
				c-0.6,0-1.2,0.1-1.7,0.4c-0.5,0.2-1,0.7-1.3,1.2c-0.3,0.6-0.5,1.3-0.5,2.3v6.9h-2.2V47.3h2.1v1.8c0.4-0.7,1-1.2,1.7-1.5
				c0.7-0.4,1.5-0.5,2.4-0.5C281.9,47,282.7,47.2,283.3,47.5z"/>
			<path class="st0" d="M297.7,47.3h2.1v12c0,1.9-0.5,3.3-1.5,4.2c-1,0.9-2.4,1.4-4.3,1.4c-1.5,0-2.7-0.3-3.6-0.9
				c-0.9-0.6-1.5-1.5-1.6-2.7h2.2c0.2,0.7,0.5,1.2,1,1.4s1.2,0.4,2.1,0.4c0.9,0,1.6-0.1,2.1-0.4s0.9-0.6,1.2-1.2
				c0.2-0.5,0.4-1.2,0.4-2.1v-1.6c-0.4,0.6-0.9,1.1-1.6,1.5c-0.7,0.4-1.4,0.6-2.3,0.6c-1.1,0-2.1-0.3-2.9-0.9
				c-0.8-0.6-1.4-1.4-1.9-2.4c-0.4-1-0.6-2.2-0.6-3.4c0-1.2,0.2-2.3,0.7-3.3c0.5-1,1.1-1.7,1.9-2.2c0.8-0.5,1.7-0.8,2.8-0.8
				c0.9,0,1.7,0.2,2.4,0.6c0.7,0.4,1.2,0.9,1.6,1.6V47.3z M295.8,57.5c0.5-0.4,1-0.9,1.3-1.6c0.3-0.7,0.5-1.5,0.5-2.5
				c0-0.9-0.2-1.7-0.5-2.4s-0.7-1.2-1.2-1.5S294.7,49,294,49c-1.1,0-1.9,0.4-2.5,1.1c-0.6,0.8-0.9,1.8-0.9,3.2c0,1,0.1,1.8,0.4,2.5
				c0.3,0.7,0.7,1.3,1.2,1.7c0.5,0.4,1.1,0.6,1.8,0.6C294.7,58.1,295.3,57.9,295.8,57.5z"/>
			<path class="st0" d="M321.4,58.1v1.6h-1.2c-1.3,0-2-0.6-2.1-1.8c-0.4,0.6-1,1.2-1.8,1.5c-0.8,0.4-1.7,0.6-2.7,0.6
				c-0.8,0-1.6-0.1-2.2-0.4c-0.6-0.3-1.1-0.7-1.5-1.2c-0.3-0.5-0.5-1.2-0.5-1.9c0-1.1,0.3-1.9,1-2.6c0.7-0.7,1.7-1.1,3.2-1.3
				l3.2-0.4c0.3,0,0.5-0.1,0.7-0.3c0.1-0.2,0.2-0.4,0.2-0.7v-0.5c0-0.7-0.2-1.1-0.7-1.5c-0.4-0.3-1.2-0.5-2.1-0.5
				c-0.9,0-1.6,0.2-2,0.5c-0.4,0.3-0.7,0.9-0.8,1.7H310c0.1-1.4,0.6-2.4,1.5-3s2.1-1,3.7-1c1.6,0,2.8,0.3,3.6,1
				c0.8,0.7,1.2,1.6,1.2,3v6c0,0.4,0.1,0.7,0.2,0.8s0.4,0.2,0.8,0.2H321.4z M315.8,57.9c0.6-0.3,1-0.6,1.4-1.1s0.5-0.9,0.5-1.5v-1.7
				l-3.7,0.6c-0.8,0.1-1.4,0.4-1.8,0.7s-0.6,0.8-0.6,1.4c0,0.6,0.2,1.1,0.6,1.5c0.4,0.4,1,0.5,1.7,0.5
				C314.7,58.3,315.3,58.2,315.8,57.9z"/>
			<path class="st0" d="M332.3,59.3c-0.9-0.5-1.5-1.2-2-2.2c-0.5-1-0.7-2.1-0.7-3.5c0-1.4,0.2-2.6,0.7-3.6c0.5-1,1.2-1.7,2-2.3
				c0.9-0.5,1.9-0.8,3.1-0.8c1.4,0,2.6,0.4,3.5,1.1c0.9,0.8,1.5,1.8,1.7,3.2h-2.1c-0.3-1.7-1.4-2.5-3.1-2.5c-1.2,0-2.2,0.4-2.8,1.2
				c-0.6,0.8-0.9,2-0.9,3.4c0,1.5,0.3,2.6,0.9,3.4c0.6,0.8,1.5,1.2,2.7,1.2c0.9,0,1.6-0.2,2.1-0.7c0.5-0.5,0.9-1.2,1-2.1h2.1
				c-0.2,1.5-0.8,2.6-1.7,3.4c-0.9,0.8-2.1,1.2-3.7,1.2C334.1,60,333.1,59.8,332.3,59.3z"/>
			<path class="st0" d="M345.9,45h-2.2v-2.4h2.2V45z M345.9,59.7h-2.2V47.3h2.2V59.7z"/>
			<path class="st0" d="M356.2,47v2.1c-0.2,0-0.5,0-0.8,0c-0.6,0-1.1,0.1-1.6,0.4s-1,0.7-1.3,1.3c-0.4,0.6-0.5,1.3-0.6,2.1v6.8h-2.2
				V47.3h2.1v2.4c0.8-1.8,2.1-2.7,3.8-2.7C355.7,47,356,47,356.2,47z"/>
			<path class="st0" d="M360.5,59.3c-0.9-0.5-1.5-1.2-2-2.2c-0.5-1-0.7-2.1-0.7-3.5c0-1.4,0.2-2.6,0.7-3.6c0.5-1,1.2-1.7,2-2.3
				c0.9-0.5,1.9-0.8,3.1-0.8c1.4,0,2.6,0.4,3.5,1.1c0.9,0.8,1.5,1.8,1.7,3.2h-2.1c-0.3-1.7-1.4-2.5-3.1-2.5c-1.2,0-2.2,0.4-2.8,1.2
				c-0.6,0.8-0.9,2-0.9,3.4c0,1.5,0.3,2.6,0.9,3.4c0.6,0.8,1.5,1.2,2.7,1.2c0.9,0,1.6-0.2,2.1-0.7c0.5-0.5,0.9-1.2,1-2.1h2.1
				c-0.2,1.5-0.8,2.6-1.7,3.4c-0.9,0.8-2.1,1.2-3.7,1.2C362.4,60,361.4,59.8,360.5,59.3z"/>
			<path class="st0" d="M380.1,47.3h2.2v12.4h-2.1V58c-0.4,0.7-1,1.2-1.7,1.5c-0.7,0.4-1.5,0.5-2.4,0.5c-0.9,0-1.6-0.2-2.2-0.5
				s-1.1-0.8-1.5-1.4c-0.3-0.6-0.5-1.4-0.5-2.2v-8.6h2.2v8.2c0,1.7,0.8,2.6,2.5,2.6c0.6,0,1.2-0.1,1.7-0.4c0.5-0.2,1-0.7,1.3-1.2
				s0.5-1.3,0.5-2.3V47.3z"/>
			<path class="st0" d="M402.1,48c0.6,0.7,1,1.7,1,3.2v8.5h-2.2v-8.5c0-0.7-0.2-1.3-0.6-1.7s-0.9-0.6-1.6-0.6
				c-0.8,0-1.6,0.3-2.1,0.9s-0.9,1.7-0.9,3.1v6.7h-2.2v-8.5c0-0.7-0.2-1.3-0.6-1.7c-0.4-0.4-0.9-0.6-1.6-0.6c-0.5,0-1,0.1-1.5,0.4
				s-0.8,0.7-1.1,1.3c-0.3,0.6-0.4,1.4-0.4,2.4v6.6h-2.2V47.3h2.1v1.8c0.8-1.4,2.1-2.1,3.7-2.1c0.8,0,1.6,0.2,2.1,0.6s1,0.9,1.3,1.6
				c0.8-1.4,2.1-2.2,3.9-2.2C400.5,47,401.5,47.4,402.1,48z"/>
			<path class="st0" d="M407.5,59c-0.9-0.7-1.4-1.7-1.5-3.1l2.1-0.1c0.1,0.8,0.4,1.5,0.9,1.9c0.5,0.4,1.2,0.6,2.2,0.6
				c1,0,1.7-0.2,2.2-0.5c0.5-0.3,0.8-0.8,0.8-1.4c0-0.5-0.2-0.9-0.5-1.2c-0.3-0.3-0.8-0.5-1.5-0.6l-2.5-0.5
				c-1.2-0.3-2.1-0.7-2.6-1.2c-0.6-0.6-0.8-1.3-0.8-2.1c0-0.7,0.2-1.3,0.5-1.9c0.3-0.5,0.9-1,1.6-1.2c0.7-0.3,1.5-0.4,2.5-0.4
				c1.4,0,2.6,0.3,3.5,0.9s1.4,1.6,1.6,2.8l-2.2,0.1c-0.1-0.7-0.4-1.3-0.9-1.6c-0.5-0.4-1.2-0.5-2-0.5c-0.8,0-1.4,0.1-1.8,0.4
				c-0.4,0.3-0.6,0.7-0.6,1.2c0,0.4,0.1,0.8,0.4,1s0.8,0.5,1.5,0.6l2.4,0.5c1.3,0.3,2.2,0.7,2.8,1.3c0.6,0.6,0.9,1.3,0.9,2.2
				c0,0.8-0.2,1.5-0.6,2.1s-1,1-1.8,1.4c-0.8,0.3-1.7,0.5-2.8,0.5C409.6,60,408.4,59.7,407.5,59z"/>
			<path class="st0" d="M422.2,48.9v7.7c0,0.4,0.1,0.8,0.3,0.9c0.2,0.2,0.5,0.3,0.9,0.3h1.6v1.8h-2.3c-1,0-1.7-0.2-2.1-0.7
				c-0.4-0.4-0.7-1.1-0.7-2.1v-8l-1.8,0.1v-1.7l1.8,0.1v-3.9h2.2v3.9l2.8-0.1V49L422.2,48.9z"/>
			<path class="st0" d="M438.9,58.1v1.6h-1.2c-1.3,0-2-0.6-2.1-1.8c-0.4,0.6-1,1.2-1.8,1.5c-0.8,0.4-1.7,0.6-2.7,0.6
				c-0.8,0-1.6-0.1-2.2-0.4c-0.6-0.3-1.1-0.7-1.5-1.2c-0.3-0.5-0.5-1.2-0.5-1.9c0-1.1,0.3-1.9,1-2.6c0.7-0.7,1.7-1.1,3.2-1.3
				l3.2-0.4c0.3,0,0.5-0.1,0.7-0.3c0.1-0.2,0.2-0.4,0.2-0.7v-0.5c0-0.7-0.2-1.1-0.7-1.5c-0.4-0.3-1.2-0.5-2.1-0.5
				c-0.9,0-1.6,0.2-2,0.5c-0.4,0.3-0.7,0.9-0.8,1.7h-2.2c0.1-1.4,0.6-2.4,1.5-3s2.1-1,3.7-1c1.6,0,2.8,0.3,3.6,1
				c0.8,0.7,1.2,1.6,1.2,3v6c0,0.4,0.1,0.7,0.2,0.8s0.4,0.2,0.8,0.2H438.9z M433.3,57.9c0.6-0.3,1-0.6,1.4-1.1s0.5-0.9,0.5-1.5v-1.7
				l-3.7,0.6c-0.8,0.1-1.4,0.4-1.8,0.7s-0.6,0.8-0.6,1.4c0,0.6,0.2,1.1,0.6,1.5c0.4,0.4,1,0.5,1.7,0.5
				C432.2,58.3,432.8,58.2,433.3,57.9z"/>
			<path class="st0" d="M449.8,47.5c0.6,0.3,1.1,0.8,1.5,1.4c0.3,0.6,0.5,1.4,0.5,2.2v8.6h-2.2v-8.2c0-1.7-0.8-2.6-2.5-2.6
				c-0.6,0-1.2,0.1-1.7,0.4c-0.5,0.2-1,0.7-1.3,1.2c-0.3,0.6-0.5,1.3-0.5,2.3v6.9h-2.2V47.3h2.1v1.8c0.4-0.7,1-1.2,1.7-1.5
				c0.7-0.4,1.5-0.5,2.4-0.5C448.4,47,449.1,47.2,449.8,47.5z"/>
			<path class="st0" d="M457.6,59.3c-0.9-0.5-1.5-1.2-2-2.2c-0.5-1-0.7-2.1-0.7-3.5c0-1.4,0.2-2.6,0.7-3.6c0.5-1,1.2-1.7,2-2.3
				c0.9-0.5,1.9-0.8,3.1-0.8c1.4,0,2.6,0.4,3.5,1.1c0.9,0.8,1.5,1.8,1.7,3.2h-2.1c-0.3-1.7-1.4-2.5-3.1-2.5c-1.2,0-2.2,0.4-2.8,1.2
				c-0.6,0.8-0.9,2-0.9,3.4c0,1.5,0.3,2.6,0.9,3.4c0.6,0.8,1.5,1.2,2.7,1.2c0.9,0,1.6-0.2,2.1-0.7c0.5-0.5,0.9-1.2,1-2.1h2.1
				c-0.2,1.5-0.8,2.6-1.7,3.4c-0.9,0.8-2.1,1.2-3.7,1.2C459.4,60,458.4,59.8,457.6,59.3z"/>
			<path class="st0" d="M479.7,54h-9.3c0,1.4,0.4,2.4,1,3.1c0.7,0.7,1.6,1.1,2.7,1.1c0.8,0,1.5-0.2,2.1-0.6s1-0.9,1.3-1.7l2,0.2
				c-0.4,1.2-1.1,2.2-2,2.8s-2.1,1-3.4,1c-1.2,0-2.3-0.3-3.1-0.8s-1.6-1.3-2-2.3c-0.5-1-0.7-2.1-0.7-3.4c0-1.3,0.2-2.4,0.7-3.3
				c0.5-1,1.1-1.7,2-2.3c0.9-0.5,1.9-0.8,3.1-0.8c1.2,0,2.2,0.2,3,0.7c0.9,0.5,1.5,1.2,2,2.1s0.7,2,0.7,3.3V54z M471.6,49.8
				c-0.6,0.6-1,1.5-1.1,2.7h7.2c-0.1-1.2-0.5-2.1-1.1-2.7c-0.6-0.6-1.4-0.9-2.4-0.9C473.1,48.8,472.2,49.1,471.6,49.8z"/>
			<path class="st0" d="M482.5,57.3h2.6v3.8c0,1.7-0.8,2.6-2.4,2.6h-0.2v-1.2h0.2c0.8,0,1.1-0.4,1.1-1.1v-1.7h-1.4V57.3z"/>
			<path class="st0" d="M498.9,48.9v7.7c0,0.4,0.1,0.8,0.3,0.9c0.2,0.2,0.5,0.3,0.9,0.3h1.6v1.8h-2.3c-1,0-1.7-0.2-2.1-0.7
				c-0.4-0.4-0.7-1.1-0.7-2.1v-8l-1.8,0.1v-1.7l1.8,0.1v-3.9h2.2v3.9l2.8-0.1V49L498.9,48.9z"/>
			<path class="st0" d="M512.8,47.5c0.6,0.3,1.1,0.8,1.5,1.4c0.3,0.6,0.5,1.4,0.5,2.2v8.6h-2.2v-8.2c0-1.7-0.8-2.6-2.5-2.6
				c-0.6,0-1.2,0.1-1.7,0.4c-0.5,0.2-1,0.7-1.3,1.2c-0.3,0.6-0.5,1.3-0.5,2.3v6.9h-2.2V42.6h2.2v6.3c0.4-0.6,1-1.1,1.7-1.4
				c0.7-0.3,1.5-0.5,2.3-0.5C511.4,47,512.2,47.2,512.8,47.5z"/>
			<path class="st0" d="M529.4,54h-9.3c0,1.4,0.4,2.4,1,3.1c0.7,0.7,1.6,1.1,2.7,1.1c0.8,0,1.5-0.2,2.1-0.6s1-0.9,1.3-1.7l2,0.2
				c-0.4,1.2-1.1,2.2-2,2.8s-2.1,1-3.4,1c-1.2,0-2.3-0.3-3.1-0.8s-1.6-1.3-2-2.3c-0.5-1-0.7-2.1-0.7-3.4c0-1.3,0.2-2.4,0.7-3.3
				c0.5-1,1.1-1.7,2-2.3c0.9-0.5,1.9-0.8,3.1-0.8c1.2,0,2.2,0.2,3,0.7c0.9,0.5,1.5,1.2,2,2.1s0.7,2,0.7,3.3V54z M521.3,49.8
				c-0.6,0.6-1,1.5-1.1,2.7h7.2c-0.1-1.2-0.5-2.1-1.1-2.7c-0.6-0.6-1.4-0.9-2.4-0.9C522.7,48.8,521.9,49.1,521.3,49.8z"/>
			<path class="st0" d="M143.1,73.8h-2.2v-2.4h2.2V73.8z M143.1,88.5h-2.2V76.1h2.2V88.5z"/>
			<path class="st0" d="M155.4,76.3c0.6,0.3,1.1,0.8,1.5,1.4c0.3,0.6,0.5,1.4,0.5,2.2v8.6h-2.2v-8.2c0-1.7-0.8-2.6-2.5-2.6
				c-0.6,0-1.2,0.1-1.7,0.4c-0.5,0.2-1,0.7-1.3,1.2c-0.3,0.6-0.5,1.3-0.5,2.3v6.9h-2.2V76.1h2.1v1.8c0.4-0.7,1-1.2,1.7-1.5
				c0.7-0.4,1.5-0.5,2.4-0.5C154,75.8,154.8,76,155.4,76.3z"/>
			<path class="st0" d="M161.8,87.8c-0.9-0.7-1.4-1.7-1.5-3.1l2.1-0.1c0.1,0.8,0.4,1.5,0.9,1.9c0.5,0.4,1.2,0.6,2.2,0.6
				c1,0,1.7-0.2,2.2-0.5c0.5-0.3,0.8-0.8,0.8-1.4c0-0.5-0.2-0.9-0.5-1.2c-0.3-0.3-0.8-0.5-1.5-0.6l-2.5-0.5
				c-1.2-0.3-2.1-0.7-2.6-1.2c-0.6-0.6-0.8-1.3-0.8-2.1c0-0.7,0.2-1.3,0.5-1.9c0.3-0.5,0.9-1,1.6-1.2c0.7-0.3,1.5-0.4,2.5-0.4
				c1.4,0,2.6,0.3,3.5,0.9s1.4,1.6,1.6,2.8l-2.2,0.1c-0.1-0.7-0.4-1.3-0.9-1.6c-0.5-0.4-1.2-0.5-2-0.5c-0.8,0-1.4,0.1-1.8,0.4
				c-0.4,0.3-0.6,0.7-0.6,1.2c0,0.4,0.1,0.8,0.4,1s0.8,0.5,1.5,0.6l2.4,0.5c1.3,0.3,2.2,0.7,2.8,1.3c0.6,0.6,0.9,1.3,0.9,2.2
				c0,0.8-0.2,1.5-0.6,2.1s-1,1-1.8,1.4c-0.8,0.3-1.7,0.5-2.8,0.5C163.8,88.8,162.6,88.5,161.8,87.8z"/>
			<path class="st0" d="M181.5,76.1h2.2v12.4h-2.1v-1.8c-0.4,0.7-1,1.2-1.7,1.5c-0.7,0.4-1.5,0.5-2.4,0.5c-0.9,0-1.6-0.2-2.2-0.5
				s-1.1-0.8-1.5-1.4c-0.3-0.6-0.5-1.4-0.5-2.2v-8.6h2.2v8.2c0,1.7,0.8,2.6,2.5,2.6c0.6,0,1.2-0.1,1.7-0.4c0.5-0.2,1-0.7,1.3-1.2
				s0.5-1.3,0.5-2.3V76.1z"/>
			<path class="st0" d="M194.1,75.8V78c-0.2,0-0.5,0-0.8,0c-0.6,0-1.1,0.1-1.6,0.4s-1,0.7-1.3,1.3c-0.4,0.6-0.5,1.3-0.6,2.1v6.8
				h-2.2V76.1h2.1v2.4c0.8-1.8,2.1-2.7,3.8-2.7C193.6,75.8,193.8,75.8,194.1,75.8z"/>
			<path class="st0" d="M207.2,82.8h-9.3c0,1.4,0.4,2.4,1,3.1c0.7,0.7,1.6,1.1,2.7,1.1c0.8,0,1.5-0.2,2.1-0.6s1-0.9,1.3-1.7l2,0.2
				c-0.4,1.2-1.1,2.2-2,2.8s-2.1,1-3.4,1c-1.2,0-2.3-0.3-3.1-0.8s-1.6-1.3-2-2.3c-0.5-1-0.7-2.1-0.7-3.4c0-1.3,0.2-2.4,0.7-3.3
				c0.5-1,1.1-1.7,2-2.3c0.9-0.5,1.9-0.8,3.1-0.8c1.2,0,2.2,0.2,3,0.7c0.9,0.5,1.5,1.2,2,2.1s0.7,2,0.7,3.3V82.8z M199.1,78.6
				c-0.6,0.6-1,1.5-1.1,2.7h7.2c-0.1-1.2-0.5-2.1-1.1-2.7c-0.6-0.6-1.4-0.9-2.4-0.9C200.5,77.6,199.7,77.9,199.1,78.6z"/>
			<path class="st0" d="M218.7,71.4h2.2v17.1H219v-2c-0.4,0.7-0.9,1.2-1.6,1.6c-0.7,0.4-1.5,0.6-2.4,0.6c-1.1,0-2.1-0.3-2.9-0.9
				c-0.8-0.6-1.4-1.4-1.9-2.4c-0.4-1-0.6-2.2-0.6-3.4c0-1.2,0.2-2.3,0.7-3.3c0.5-1,1.1-1.7,1.9-2.2c0.8-0.5,1.7-0.8,2.8-0.8
				c0.8,0,1.5,0.2,2.2,0.5c0.6,0.3,1.2,0.7,1.6,1.3V71.4z M217,86.3c0.5-0.4,1-0.9,1.3-1.6c0.3-0.7,0.5-1.5,0.5-2.5
				c0-0.9-0.2-1.7-0.5-2.4s-0.7-1.2-1.2-1.5s-1.1-0.5-1.8-0.5c-1.1,0-1.9,0.4-2.5,1.1c-0.6,0.8-0.9,1.8-0.9,3.2c0,1,0.1,1.8,0.4,2.5
				c0.3,0.7,0.7,1.3,1.2,1.7c0.5,0.4,1.1,0.6,1.8,0.6C215.9,86.9,216.5,86.7,217,86.3z"/>
			<path class="st0" d="M233.4,73.8h-2.2v-2.4h2.2V73.8z M233.4,88.5h-2.2V76.1h2.2V88.5z"/>
			<path class="st0" d="M237.8,87.8c-0.9-0.7-1.4-1.7-1.5-3.1l2.1-0.1c0.1,0.8,0.4,1.5,0.9,1.9c0.5,0.4,1.2,0.6,2.2,0.6
				c1,0,1.7-0.2,2.2-0.5c0.5-0.3,0.8-0.8,0.8-1.4c0-0.5-0.2-0.9-0.5-1.2c-0.3-0.3-0.8-0.5-1.5-0.6l-2.5-0.5
				c-1.2-0.3-2.1-0.7-2.6-1.2c-0.6-0.6-0.8-1.3-0.8-2.1c0-0.7,0.2-1.3,0.5-1.9c0.3-0.5,0.9-1,1.6-1.2c0.7-0.3,1.5-0.4,2.5-0.4
				c1.4,0,2.6,0.3,3.5,0.9s1.4,1.6,1.6,2.8l-2.2,0.1c-0.1-0.7-0.4-1.3-0.9-1.6c-0.5-0.4-1.2-0.5-2-0.5c-0.8,0-1.4,0.1-1.8,0.4
				c-0.4,0.3-0.6,0.7-0.6,1.2c0,0.4,0.1,0.8,0.4,1s0.8,0.5,1.5,0.6l2.4,0.5c1.3,0.3,2.2,0.7,2.8,1.3c0.6,0.6,0.9,1.3,0.9,2.2
				c0,0.8-0.2,1.5-0.6,2.1s-1,1-1.8,1.4c-0.8,0.3-1.7,0.5-2.8,0.5C239.9,88.8,238.7,88.5,237.8,87.8z"/>
			<path class="st0" d="M264.6,76.6c0.8,0.5,1.4,1.2,1.9,2.2s0.7,2,0.7,3.2c0,1.3-0.2,2.4-0.7,3.5c-0.4,1-1.1,1.8-1.9,2.4
				c-0.8,0.6-1.8,0.9-2.9,0.9c-0.8,0-1.5-0.2-2.1-0.5c-0.6-0.3-1.2-0.8-1.6-1.3v6.4h-2.2V76.1h1.9v2c0.4-0.7,0.9-1.2,1.6-1.6
				c0.7-0.4,1.5-0.6,2.4-0.6C262.9,75.9,263.8,76.1,264.6,76.6z M263.3,86.3c0.5-0.4,0.9-1,1.2-1.7c0.3-0.7,0.4-1.6,0.4-2.5
				c0-1.4-0.3-2.5-0.9-3.2c-0.6-0.7-1.4-1.1-2.5-1.1c-0.7,0-1.3,0.2-1.9,0.5s-1,0.8-1.3,1.5s-0.5,1.5-0.5,2.4c0,1,0.2,1.8,0.5,2.5
				s0.7,1.3,1.3,1.6c0.5,0.4,1.2,0.6,1.8,0.6C262.2,86.9,262.8,86.7,263.3,86.3z"/>
			<path class="st0" d="M278.5,76.1h2.2v12.4h-2.1v-1.8c-0.4,0.7-1,1.2-1.7,1.5c-0.7,0.4-1.5,0.5-2.4,0.5c-0.9,0-1.6-0.2-2.2-0.5
				s-1.1-0.8-1.5-1.4c-0.3-0.6-0.5-1.4-0.5-2.2v-8.6h2.2v8.2c0,1.7,0.8,2.6,2.5,2.6c0.6,0,1.2-0.1,1.7-0.4c0.5-0.2,1-0.7,1.3-1.2
				s0.5-1.3,0.5-2.3V76.1z"/>
			<path class="st0" d="M287.6,77.7v7.7c0,0.4,0.1,0.8,0.3,0.9c0.2,0.2,0.5,0.3,0.9,0.3h1.6v1.8h-2.3c-1,0-1.7-0.2-2.1-0.7
				c-0.4-0.4-0.7-1.1-0.7-2.1v-8l-1.8,0.1v-1.7l1.8,0.1v-3.9h2.2v3.9l2.8-0.1v1.7L287.6,77.7z"/>
			<path class="st0" d="M296.2,77.7v7.7c0,0.4,0.1,0.8,0.3,0.9c0.2,0.2,0.5,0.3,0.9,0.3h1.6v1.8h-2.3c-1,0-1.7-0.2-2.1-0.7
				c-0.4-0.4-0.7-1.1-0.7-2.1v-8l-1.8,0.1v-1.7l1.8,0.1v-3.9h2.2v3.9l2.8-0.1v1.7L296.2,77.7z"/>
			<path class="st0" d="M303.9,73.8h-2.2v-2.4h2.2V73.8z M303.9,88.5h-2.2V76.1h2.2V88.5z"/>
			<path class="st0" d="M316.2,76.3c0.6,0.3,1.1,0.8,1.5,1.4c0.3,0.6,0.5,1.4,0.5,2.2v8.6h-2.2v-8.2c0-1.7-0.8-2.6-2.5-2.6
				c-0.6,0-1.2,0.1-1.7,0.4c-0.5,0.2-1,0.7-1.3,1.2c-0.3,0.6-0.5,1.3-0.5,2.3v6.9h-2.2V76.1h2.1v1.8c0.4-0.7,1-1.2,1.7-1.5
				c0.7-0.4,1.5-0.5,2.4-0.5C314.8,75.8,315.5,76,316.2,76.3z"/>
			<path class="st0" d="M330.6,76.1h2.1v12c0,1.9-0.5,3.3-1.5,4.2c-1,0.9-2.4,1.4-4.3,1.4c-1.5,0-2.7-0.3-3.6-0.9
				c-0.9-0.6-1.5-1.5-1.6-2.7h2.2c0.2,0.7,0.5,1.2,1,1.4s1.2,0.4,2.1,0.4c0.9,0,1.6-0.1,2.1-0.4s0.9-0.6,1.2-1.2
				c0.2-0.5,0.4-1.2,0.4-2.1v-1.6c-0.4,0.6-0.9,1.1-1.6,1.5c-0.7,0.4-1.4,0.6-2.3,0.6c-1.1,0-2.1-0.3-2.9-0.9
				c-0.8-0.6-1.4-1.4-1.9-2.4c-0.4-1-0.6-2.2-0.6-3.4c0-1.2,0.2-2.3,0.7-3.3c0.5-1,1.1-1.7,1.9-2.2c0.8-0.5,1.7-0.8,2.8-0.8
				c0.9,0,1.7,0.2,2.4,0.6c0.7,0.4,1.2,0.9,1.6,1.6V76.1z M328.7,86.3c0.5-0.4,1-0.9,1.3-1.6c0.3-0.7,0.5-1.5,0.5-2.5
				c0-0.9-0.2-1.7-0.5-2.4s-0.7-1.2-1.2-1.5s-1.1-0.5-1.8-0.5c-1.1,0-1.9,0.4-2.5,1.1c-0.6,0.8-0.9,1.8-0.9,3.2c0,1,0.1,1.8,0.4,2.5
				c0.3,0.7,0.7,1.3,1.2,1.7c0.5,0.4,1.1,0.6,1.8,0.6C327.6,86.9,328.2,86.7,328.7,86.3z"/>
			<path class="st0" d="M354.3,86.9v1.6h-1.2c-1.3,0-2-0.6-2.1-1.8c-0.4,0.6-1,1.2-1.8,1.5c-0.8,0.4-1.7,0.6-2.7,0.6
				c-0.8,0-1.6-0.1-2.2-0.4c-0.6-0.3-1.1-0.7-1.5-1.2c-0.3-0.5-0.5-1.2-0.5-1.9c0-1.1,0.3-1.9,1-2.6c0.7-0.7,1.7-1.1,3.2-1.3
				l3.2-0.4c0.3,0,0.5-0.1,0.7-0.3c0.1-0.2,0.2-0.4,0.2-0.7v-0.5c0-0.7-0.2-1.1-0.7-1.5c-0.4-0.3-1.2-0.5-2.1-0.5
				c-0.9,0-1.6,0.2-2,0.5c-0.4,0.3-0.7,0.9-0.8,1.7h-2.2c0.1-1.4,0.6-2.4,1.5-3s2.1-1,3.7-1c1.6,0,2.8,0.3,3.6,1
				c0.8,0.7,1.2,1.6,1.2,3v6c0,0.4,0.1,0.7,0.2,0.8s0.4,0.2,0.8,0.2H354.3z M348.7,86.7c0.6-0.3,1-0.6,1.4-1.1s0.5-0.9,0.5-1.5v-1.7
				l-3.7,0.6c-0.8,0.1-1.4,0.4-1.8,0.7s-0.6,0.8-0.6,1.4c0,0.6,0.2,1.1,0.6,1.5c0.4,0.4,1,0.5,1.7,0.5
				C347.5,87.1,348.2,87,348.7,86.7z"/>
			<path class="st0" d="M379.1,76.8c0.6,0.7,1,1.7,1,3.2v8.5h-2.2V80c0-0.7-0.2-1.3-0.6-1.7s-0.9-0.6-1.6-0.6
				c-0.8,0-1.6,0.3-2.1,0.9s-0.9,1.7-0.9,3.1v6.7h-2.2V80c0-0.7-0.2-1.3-0.6-1.7c-0.4-0.4-0.9-0.6-1.6-0.6c-0.5,0-1,0.1-1.5,0.4
				s-0.8,0.7-1.1,1.3c-0.3,0.6-0.4,1.4-0.4,2.4v6.6h-2.2V76.1h2.1v1.8c0.8-1.4,2.1-2.1,3.7-2.1c0.8,0,1.6,0.2,2.1,0.6s1,0.9,1.3,1.6
				c0.8-1.4,2.1-2.2,3.9-2.2C377.5,75.8,378.5,76.2,379.1,76.8z"/>
			<path class="st0" d="M395.2,86.9v1.6H394c-1.3,0-2-0.6-2.1-1.8c-0.4,0.6-1,1.2-1.8,1.5c-0.8,0.4-1.7,0.6-2.7,0.6
				c-0.8,0-1.6-0.1-2.2-0.4c-0.6-0.3-1.1-0.7-1.5-1.2c-0.3-0.5-0.5-1.2-0.5-1.9c0-1.1,0.3-1.9,1-2.6c0.7-0.7,1.7-1.1,3.2-1.3
				l3.2-0.4c0.3,0,0.5-0.1,0.7-0.3c0.1-0.2,0.2-0.4,0.2-0.7v-0.5c0-0.7-0.2-1.1-0.7-1.5c-0.4-0.3-1.2-0.5-2.1-0.5
				c-0.9,0-1.6,0.2-2,0.5c-0.4,0.3-0.7,0.9-0.8,1.7h-2.2c0.1-1.4,0.6-2.4,1.5-3s2.1-1,3.7-1c1.6,0,2.8,0.3,3.6,1
				c0.8,0.7,1.2,1.6,1.2,3v6c0,0.4,0.1,0.7,0.2,0.8s0.4,0.2,0.8,0.2H395.2z M389.7,86.7c0.6-0.3,1-0.6,1.4-1.1s0.5-0.9,0.5-1.5v-1.7
				l-3.7,0.6c-0.8,0.1-1.4,0.4-1.8,0.7s-0.6,0.8-0.6,1.4c0,0.6,0.2,1.1,0.6,1.5c0.4,0.4,1,0.5,1.7,0.5
				C388.5,87.1,389.1,87,389.7,86.7z"/>
			<path class="st0" d="M404.2,75.8V78c-0.2,0-0.5,0-0.8,0c-0.6,0-1.1,0.1-1.6,0.4s-1,0.7-1.3,1.3c-0.4,0.6-0.5,1.3-0.6,2.1v6.8
				h-2.2V76.1h2.1v2.4c0.8-1.8,2.1-2.7,3.8-2.7C403.7,75.8,403.9,75.8,404.2,75.8z"/>
			<path class="st0" d="M416.9,76.1l-4.9,4.6l5.3,7.8h-2.6l-2.8-4.3l-1.3-2.2l-1.9,1.7v4.8h-2.2V71.4h2.2v7.2l-0.1,3l2-2.1l3.6-3.5
				H416.9z"/>
			<path class="st0" d="M429.9,82.8h-9.3c0,1.4,0.4,2.4,1,3.1c0.7,0.7,1.6,1.1,2.7,1.1c0.8,0,1.5-0.2,2.1-0.6s1-0.9,1.3-1.7l2,0.2
				c-0.4,1.2-1.1,2.2-2,2.8s-2.1,1-3.4,1c-1.2,0-2.3-0.3-3.1-0.8s-1.6-1.3-2-2.3c-0.5-1-0.7-2.1-0.7-3.4c0-1.3,0.2-2.4,0.7-3.3
				c0.5-1,1.1-1.7,2-2.3c0.9-0.5,1.9-0.8,3.1-0.8c1.2,0,2.2,0.2,3,0.7c0.9,0.5,1.5,1.2,2,2.1s0.7,2,0.7,3.3V82.8z M421.8,78.6
				c-0.6,0.6-1,1.5-1.1,2.7h7.2c-0.1-1.2-0.5-2.1-1.1-2.7c-0.6-0.6-1.4-0.9-2.4-0.9C423.3,77.6,422.4,77.9,421.8,78.6z"/>
			<path class="st0" d="M439.6,75.8V78c-0.2,0-0.5,0-0.8,0c-0.6,0-1.1,0.1-1.6,0.4s-1,0.7-1.3,1.3c-0.4,0.6-0.5,1.3-0.6,2.1v6.8H433
				V76.1h2.1v2.4c0.8-1.8,2.1-2.7,3.8-2.7C439.1,75.8,439.3,75.8,439.6,75.8z"/>
			<path class="st0" d="M450.5,73.8h-2.2v-2.4h2.2V73.8z M450.5,88.5h-2.2V76.1h2.2V88.5z"/>
			<path class="st0" d="M462.8,76.3c0.6,0.3,1.1,0.8,1.5,1.4c0.3,0.6,0.5,1.4,0.5,2.2v8.6h-2.2v-8.2c0-1.7-0.8-2.6-2.5-2.6
				c-0.6,0-1.2,0.1-1.7,0.4c-0.5,0.2-1,0.7-1.3,1.2c-0.3,0.6-0.5,1.3-0.5,2.3v6.9h-2.2V76.1h2.1v1.8c0.4-0.7,1-1.2,1.7-1.5
				c0.7-0.4,1.5-0.5,2.4-0.5C461.5,75.8,462.2,76,462.8,76.3z"/>
			<path class="st0" d="M478.2,77.7v7.7c0,0.4,0.1,0.8,0.3,0.9c0.2,0.2,0.5,0.3,0.9,0.3h1.6v1.8h-2.3c-1,0-1.7-0.2-2.1-0.7
				c-0.4-0.4-0.7-1.1-0.7-2.1v-8l-1.8,0.1v-1.7l1.8,0.1v-3.9h2.2v3.9l2.8-0.1v1.7L478.2,77.7z"/>
			<path class="st0" d="M492.1,76.3c0.6,0.3,1.1,0.8,1.5,1.4c0.3,0.6,0.5,1.4,0.5,2.2v8.6h-2.2v-8.2c0-1.7-0.8-2.6-2.5-2.6
				c-0.6,0-1.2,0.1-1.7,0.4c-0.5,0.2-1,0.7-1.3,1.2c-0.3,0.6-0.5,1.3-0.5,2.3v6.9h-2.2V71.4h2.2v6.3c0.4-0.6,1-1.1,1.7-1.4
				c0.7-0.3,1.5-0.5,2.3-0.5C490.8,75.8,491.5,76,492.1,76.3z"/>
			<path class="st0" d="M509.2,86.9v1.6H508c-1.3,0-2-0.6-2.1-1.8c-0.4,0.6-1,1.2-1.8,1.5c-0.8,0.4-1.7,0.6-2.7,0.6
				c-0.8,0-1.6-0.1-2.2-0.4c-0.6-0.3-1.1-0.7-1.5-1.2c-0.3-0.5-0.5-1.2-0.5-1.9c0-1.1,0.3-1.9,1-2.6c0.7-0.7,1.7-1.1,3.2-1.3
				l3.2-0.4c0.3,0,0.5-0.1,0.7-0.3c0.1-0.2,0.2-0.4,0.2-0.7v-0.5c0-0.7-0.2-1.1-0.7-1.5c-0.4-0.3-1.2-0.5-2.1-0.5
				c-0.9,0-1.6,0.2-2,0.5c-0.4,0.3-0.7,0.9-0.8,1.7h-2.2c0.1-1.4,0.6-2.4,1.5-3s2.1-1,3.7-1c1.6,0,2.8,0.3,3.6,1
				c0.8,0.7,1.2,1.6,1.2,3v6c0,0.4,0.1,0.7,0.2,0.8s0.4,0.2,0.8,0.2H509.2z M503.7,86.7c0.6-0.3,1-0.6,1.4-1.1s0.5-0.9,0.5-1.5v-1.7
				l-3.7,0.6c-0.8,0.1-1.4,0.4-1.8,0.7s-0.6,0.8-0.6,1.4c0,0.6,0.2,1.1,0.6,1.5c0.4,0.4,1,0.5,1.7,0.5
				C502.5,87.1,503.1,87,503.7,86.7z"/>
			<path class="st0" d="M514.7,77.7v7.7c0,0.4,0.1,0.8,0.3,0.9c0.2,0.2,0.5,0.3,0.9,0.3h1.6v1.8h-2.3c-1,0-1.7-0.2-2.1-0.7
				c-0.4-0.4-0.7-1.1-0.7-2.1v-8l-1.8,0.1v-1.7l1.8,0.1v-3.9h2.2v3.9l2.8-0.1v1.7L514.7,77.7z"/>
			<path class="st0" d="M149.6,105.4c0.8,0.5,1.4,1.2,1.9,2.2s0.7,2,0.7,3.2c0,1.3-0.2,2.4-0.7,3.5c-0.4,1-1.1,1.8-1.9,2.4
				c-0.8,0.6-1.8,0.9-2.9,0.9c-0.8,0-1.5-0.2-2.1-0.5c-0.6-0.3-1.2-0.8-1.6-1.3v6.4h-2.2v-17.3h1.9v2c0.4-0.7,0.9-1.2,1.6-1.6
				c0.7-0.4,1.5-0.6,2.4-0.6C147.9,104.7,148.8,104.9,149.6,105.4z M148.4,115.1c0.5-0.4,0.9-1,1.2-1.7c0.3-0.7,0.4-1.6,0.4-2.5
				c0-1.4-0.3-2.5-0.9-3.2c-0.6-0.7-1.4-1.1-2.5-1.1c-0.7,0-1.3,0.2-1.9,0.5s-1,0.8-1.3,1.5S143,110,143,111c0,1,0.2,1.8,0.5,2.5
				s0.7,1.3,1.3,1.6c0.5,0.4,1.2,0.6,1.8,0.6C147.3,115.7,147.9,115.5,148.4,115.1z"/>
			<path class="st0" d="M157.4,116.8c-0.9-0.5-1.6-1.3-2.1-2.3c-0.5-1-0.7-2.1-0.7-3.4c0-1.3,0.3-2.5,0.8-3.4c0.5-1,1.2-1.7,2.1-2.3
				c0.9-0.5,2-0.8,3.1-0.8c1.2,0,2.2,0.3,3.1,0.8c0.9,0.5,1.6,1.3,2.1,2.2c0.5,1,0.8,2.1,0.8,3.4c0,1.3-0.3,2.4-0.8,3.4
				c-0.5,1-1.2,1.8-2.1,2.3c-0.9,0.6-1.9,0.8-3.1,0.8C159.4,117.6,158.3,117.3,157.4,116.8z M162.6,115.2c0.6-0.4,1-1,1.3-1.7
				s0.4-1.5,0.4-2.5c0-0.9-0.1-1.7-0.4-2.4c-0.3-0.7-0.7-1.2-1.3-1.6c-0.6-0.4-1.2-0.6-2-0.6c-0.8,0-1.4,0.2-2,0.6
				c-0.6,0.4-1,0.9-1.3,1.6s-0.4,1.5-0.4,2.4c0,0.9,0.2,1.7,0.5,2.4c0.3,0.7,0.7,1.2,1.3,1.6c0.6,0.4,1.2,0.6,2,0.6
				C161.3,115.8,162,115.6,162.6,115.2z"/>
			<path class="st0" d="M171.9,117.3h-2.2v-17.1h2.2V117.3z"/>
			<path class="st0" d="M177.9,102.6h-2.2v-2.4h2.2V102.6z M177.9,117.3h-2.2v-12.4h2.2V117.3z"/>
			<path class="st0" d="M183.7,116.9c-0.9-0.5-1.5-1.2-2-2.2c-0.5-1-0.7-2.1-0.7-3.5c0-1.4,0.2-2.6,0.7-3.6c0.5-1,1.2-1.7,2-2.3
				c0.9-0.5,1.9-0.8,3.1-0.8c1.4,0,2.6,0.4,3.5,1.1c0.9,0.8,1.5,1.8,1.7,3.2H190c-0.3-1.7-1.4-2.5-3.1-2.5c-1.2,0-2.2,0.4-2.8,1.2
				c-0.6,0.8-0.9,2-0.9,3.4c0,1.5,0.3,2.6,0.9,3.4c0.6,0.8,1.5,1.2,2.7,1.2c0.9,0,1.6-0.2,2.1-0.7c0.5-0.5,0.9-1.2,1-2.1h2.1
				c-0.2,1.5-0.8,2.6-1.7,3.4c-0.9,0.8-2.1,1.2-3.7,1.2C185.6,117.6,184.6,117.4,183.7,116.9z"/>
			<path class="st0" d="M202.8,104.9h2.3l-5.8,14.8c-0.3,0.6-0.5,1.1-0.8,1.5c-0.3,0.4-0.6,0.6-1.1,0.8c-0.4,0.2-0.9,0.2-1.5,0.2
				h-1.4v-1.8h1.2c0.4,0,0.7,0,0.9-0.1c0.2-0.1,0.4-0.3,0.6-0.5c0.2-0.2,0.3-0.6,0.5-1l0.6-1.5l-5-12.3h2.4l2.9,7.8
				c0.3,0.7,0.5,1.4,0.7,2c0.2-0.7,0.4-1.3,0.7-2L202.8,104.9z"/>
			<path class="st0" d="M222.8,105.4c0.8,0.5,1.4,1.2,1.9,2.2s0.7,2,0.7,3.2c0,1.3-0.2,2.4-0.7,3.5c-0.4,1-1.1,1.8-1.9,2.4
				c-0.8,0.6-1.8,0.9-2.9,0.9c-0.8,0-1.5-0.2-2.1-0.5c-0.6-0.3-1.2-0.8-1.6-1.3v6.4H214v-17.3h1.9v2c0.4-0.7,0.9-1.2,1.6-1.6
				c0.7-0.4,1.5-0.6,2.4-0.6C221.1,104.7,222,104.9,222.8,105.4z M221.5,115.1c0.5-0.4,0.9-1,1.2-1.7c0.3-0.7,0.4-1.6,0.4-2.5
				c0-1.4-0.3-2.5-0.9-3.2c-0.6-0.7-1.4-1.1-2.5-1.1c-0.7,0-1.3,0.2-1.9,0.5s-1,0.8-1.3,1.5s-0.5,1.5-0.5,2.4c0,1,0.2,1.8,0.5,2.5
				s0.7,1.3,1.3,1.6c0.5,0.4,1.2,0.6,1.8,0.6C220.4,115.7,221,115.5,221.5,115.1z"/>
			<path class="st0" d="M239.2,111.6H230c0,1.4,0.4,2.4,1,3.1c0.7,0.7,1.6,1.1,2.7,1.1c0.8,0,1.5-0.2,2.1-0.6s1-0.9,1.3-1.7l2,0.2
				c-0.4,1.2-1.1,2.2-2,2.8s-2.1,1-3.4,1c-1.2,0-2.3-0.3-3.1-0.8s-1.6-1.3-2-2.3c-0.5-1-0.7-2.1-0.7-3.4c0-1.3,0.2-2.4,0.7-3.3
				c0.5-1,1.1-1.7,2-2.3c0.9-0.5,1.9-0.8,3.1-0.8c1.2,0,2.2,0.2,3,0.7c0.9,0.5,1.5,1.2,2,2.1s0.7,2,0.7,3.3V111.6z M231.1,107.4
				c-0.6,0.6-1,1.5-1.1,2.7h7.2c-0.1-1.2-0.5-2.1-1.1-2.7c-0.6-0.6-1.4-0.9-2.4-0.9C232.6,106.4,231.8,106.7,231.1,107.4z"/>
			<path class="st0" d="M248.9,104.6v2.1c-0.2,0-0.5,0-0.8,0c-0.6,0-1.1,0.1-1.6,0.4s-1,0.7-1.3,1.3c-0.4,0.6-0.5,1.3-0.6,2.1v6.8
				h-2.2v-12.4h2.1v2.4c0.8-1.8,2.1-2.7,3.8-2.7C248.4,104.6,248.6,104.6,248.9,104.6z"/>
			<path class="st0" d="M253.4,102.6h-2.2v-2.4h2.2V102.6z M253.4,117.3h-2.2v-12.4h2.2V117.3z"/>
			<path class="st0" d="M259.4,116.8c-0.9-0.5-1.6-1.3-2.1-2.3c-0.5-1-0.7-2.1-0.7-3.4c0-1.3,0.3-2.5,0.8-3.4c0.5-1,1.2-1.7,2.1-2.3
				c0.9-0.5,2-0.8,3.1-0.8c1.2,0,2.2,0.3,3.1,0.8c0.9,0.5,1.6,1.3,2.1,2.2c0.5,1,0.8,2.1,0.8,3.4c0,1.3-0.3,2.4-0.8,3.4
				c-0.5,1-1.2,1.8-2.1,2.3c-0.9,0.6-1.9,0.8-3.1,0.8C261.3,117.6,260.3,117.3,259.4,116.8z M264.5,115.2c0.6-0.4,1-1,1.3-1.7
				s0.4-1.5,0.4-2.5c0-0.9-0.1-1.7-0.4-2.4c-0.3-0.7-0.7-1.2-1.3-1.6c-0.6-0.4-1.2-0.6-2-0.6c-0.8,0-1.4,0.2-2,0.6
				c-0.6,0.4-1,0.9-1.3,1.6s-0.4,1.5-0.4,2.4c0,0.9,0.2,1.7,0.5,2.4c0.3,0.7,0.7,1.2,1.3,1.6c0.6,0.4,1.2,0.6,2,0.6
				C263.3,115.8,263.9,115.6,264.5,115.2z"/>
			<path class="st0" d="M280,100.2h2.2v17.1h-1.9v-2c-0.4,0.7-0.9,1.2-1.6,1.6c-0.7,0.4-1.5,0.6-2.4,0.6c-1.1,0-2.1-0.3-2.9-0.9
				c-0.8-0.6-1.4-1.4-1.9-2.4c-0.4-1-0.6-2.2-0.6-3.4c0-1.2,0.2-2.3,0.7-3.3c0.5-1,1.1-1.7,1.9-2.2c0.8-0.5,1.7-0.8,2.8-0.8
				c0.8,0,1.5,0.2,2.2,0.5c0.6,0.3,1.2,0.7,1.6,1.3V100.2z M278.3,115.1c0.5-0.4,1-0.9,1.3-1.6c0.3-0.7,0.5-1.5,0.5-2.5
				c0-0.9-0.2-1.7-0.5-2.4s-0.7-1.2-1.2-1.5s-1.1-0.5-1.8-0.5c-1.1,0-1.9,0.4-2.5,1.1c-0.6,0.8-0.9,1.8-0.9,3.2c0,1,0.1,1.8,0.4,2.5
				c0.3,0.7,0.7,1.3,1.2,1.7c0.5,0.4,1.1,0.6,1.8,0.6C277.2,115.7,277.8,115.5,278.3,115.1z"/>
			<path class="st0" d="M288.8,117.3h-2.7v-2.4h2.7V117.3z"/>
		</g>
	</g>
</g>
<polygon class="st0" points="88.6,108.9 -16.8,108.9 -16.8,39.6 88.6,39.6 112.3,76.8 "/>
</svg>
