<?xml version="1.0" encoding="utf-8"?>
<!-- Generator: Adobe Illustrator 26.0.1, SVG Export Plug-In . SVG Version: 6.00 Build 0)  -->
<svg version="1.1" id="Layer_1" xmlns="http://www.w3.org/2000/svg" xmlns:xlink="http://www.w3.org/1999/xlink" x="0px" y="0px"
	 viewBox="0 0 1200 179" style="enable-background:new 0 0 1200 179;" xml:space="preserve">
<style type="text/css">
	.Drop_x0020_Shadow{fill:none;}
	.Round_x0020_Corners_x0020_2_x0020_pt{fill:#FFFFFF;stroke:#000000;stroke-miterlimit:10;}
	.Live_x0020_Reflect_x0020_X{fill:none;}
	.Bevel_x0020_Soft{fill:url(#SVGID_1_);}
	.Dusk{fill:#FFFFFF;}
	.Foliage_GS{fill:#FFDD00;}
	.Pompadour_GS{fill-rule:evenodd;clip-rule:evenodd;fill:#44ADE2;}
	.st0{fill:#E11B22;}
	.st1{fill:#010101;}
</style>
<linearGradient id="SVGID_1_" gradientUnits="userSpaceOnUse" x1="-3969.2788" y1="-714.4431" x2="-3968.5718" y2="-713.736">
	<stop  offset="0" style="stop-color:#DEDFE3"/>
	<stop  offset="0.1738" style="stop-color:#D8D9DD"/>
	<stop  offset="0.352" style="stop-color:#C9CACD"/>
	<stop  offset="0.5323" style="stop-color:#B4B5B8"/>
	<stop  offset="0.7139" style="stop-color:#989A9C"/>
	<stop  offset="0.8949" style="stop-color:#797C7E"/>
	<stop  offset="1" style="stop-color:#656B6C"/>
</linearGradient>
<g>
	<g>
		<g>
			<path class="st0" d="M229.2,49.4v22.7h13.4V75h-16.7V49.4H229.2z"/>
			<path class="st0" d="M248.8,74.2c-1.4-0.8-2.4-2-3.2-3.4c-0.7-1.5-1.1-3.2-1.1-5.1c0-2,0.4-3.7,1.1-5.2c0.8-1.5,1.8-2.6,3.2-3.4
				s2.9-1.2,4.7-1.2c1.7,0,3.3,0.4,4.6,1.2c1.3,0.8,2.4,1.9,3.1,3.3c0.8,1.5,1.1,3.2,1.1,5.1c0,1.9-0.4,3.6-1.2,5.1
				c-0.8,1.5-1.8,2.7-3.2,3.5c-1.4,0.8-2.9,1.3-4.6,1.3C251.7,75.5,250.1,75.1,248.8,74.2z M256.5,71.8c0.9-0.6,1.5-1.4,1.9-2.5
				c0.4-1.1,0.7-2.3,0.7-3.7c0-1.4-0.2-2.6-0.7-3.6c-0.4-1-1.1-1.8-1.9-2.4c-0.9-0.6-1.9-0.8-3-0.8c-1.2,0-2.2,0.3-3,0.9
				s-1.5,1.4-1.9,2.4c-0.4,1.1-0.7,2.3-0.7,3.7c0,1.4,0.2,2.6,0.7,3.7c0.5,1.1,1.1,1.9,1.9,2.4c0.8,0.6,1.8,0.9,3,0.9
				C254.6,72.7,255.6,72.4,256.5,71.8z"/>
			<path class="st0" d="M276.9,56v3.2c-0.3,0-0.7,0-1.2,0c-0.8,0-1.7,0.2-2.5,0.6c-0.8,0.4-1.5,1.1-2,1.9s-0.8,1.9-0.9,3.1V75h-3.3
				V56.4h3.1V60c1.2-2.7,3.1-4.1,5.7-4.1C276.1,55.9,276.5,55.9,276.9,56z"/>
			<path class="st0" d="M281.1,73.9c-1.3-1-2.1-2.6-2.3-4.6l3.1-0.1c0.2,1.3,0.6,2.2,1.4,2.8c0.8,0.6,1.9,0.9,3.3,0.9
				c1.5,0,2.6-0.3,3.3-0.8s1.1-1.2,1.1-2.1c0-0.7-0.2-1.3-0.7-1.7c-0.5-0.4-1.2-0.8-2.2-1l-3.7-0.8c-1.8-0.4-3.1-1-3.9-1.8
				c-0.8-0.8-1.2-1.9-1.2-3.2c0-1.1,0.3-2,0.8-2.8c0.5-0.8,1.3-1.4,2.3-1.9c1-0.4,2.3-0.7,3.8-0.7c2.1,0,3.9,0.5,5.2,1.4
				c1.3,0.9,2.1,2.4,2.4,4.3l-3.3,0.1c-0.2-1.1-0.6-1.9-1.4-2.4c-0.7-0.5-1.7-0.8-3-0.8c-1.2,0-2.1,0.2-2.8,0.6c-0.6,0.4-1,1-1,1.8
				c0,0.6,0.2,1.1,0.6,1.5c0.4,0.4,1.2,0.7,2.2,0.9l3.6,0.8c1.9,0.4,3.3,1.1,4.2,1.9c0.9,0.9,1.3,2,1.3,3.3c0,1.2-0.3,2.2-0.9,3.1
				s-1.5,1.6-2.7,2c-1.2,0.5-2.6,0.7-4.2,0.7C284.2,75.5,282.4,75,281.1,73.9z"/>
			<path class="st0" d="M311.5,56.4h2.9v25.9h-3.3v-9.6c-0.6,0.8-1.4,1.5-2.4,2c-1,0.5-2,0.7-3.2,0.7c-1.7,0-3.1-0.4-4.3-1.3
				s-2.2-2-2.8-3.5c-0.6-1.5-1-3.2-1-5.1c0-1.8,0.3-3.5,1-4.9c0.7-1.4,1.6-2.5,2.8-3.3s2.6-1.2,4.2-1.2c1.3,0,2.5,0.3,3.6,0.9
				c1.1,0.6,1.9,1.4,2.4,2.4V56.4z M308.6,71.7c0.8-0.6,1.5-1.4,1.9-2.4c0.5-1.1,0.7-2.3,0.7-3.8c0-1.4-0.2-2.6-0.7-3.6
				c-0.5-1-1.1-1.7-1.9-2.2s-1.7-0.8-2.8-0.8c-1.6,0-2.9,0.6-3.8,1.7c-0.9,1.1-1.4,2.7-1.4,4.9c0,1.4,0.2,2.7,0.6,3.8
				c0.4,1.1,1,1.9,1.8,2.5c0.8,0.6,1.7,0.9,2.7,0.9C306.9,72.6,307.8,72.3,308.6,71.7z"/>
			<path class="st0" d="M332.4,56.4h3.3V75h-3.1v-2.6c-0.6,1-1.5,1.7-2.6,2.3c-1.1,0.5-2.3,0.8-3.7,0.8c-1.3,0-2.4-0.2-3.4-0.7
				c-0.9-0.5-1.7-1.2-2.2-2.1c-0.5-0.9-0.8-2-0.8-3.3V56.4h3.3v12.2c0,2.6,1.2,3.9,3.7,3.9c0.9,0,1.8-0.2,2.6-0.6s1.4-1,1.9-1.9
				c0.5-0.9,0.8-2,0.8-3.4V56.4z"/>
			<path class="st0" d="M357.7,66.5h-13.9c0,2,0.6,3.6,1.6,4.6c1,1.1,2.3,1.6,4,1.6c1.3,0,2.3-0.3,3.2-0.9s1.5-1.4,1.9-2.5l3,0.4
				c-0.6,1.8-1.6,3.2-3,4.2s-3.1,1.5-5.1,1.5c-1.8,0-3.4-0.4-4.7-1.2c-1.3-0.8-2.3-2-3-3.5c-0.7-1.5-1.1-3.2-1.1-5.1
				c0-1.9,0.3-3.6,1-5s1.7-2.6,3-3.4c1.3-0.8,2.9-1.2,4.7-1.2c1.7,0,3.2,0.4,4.5,1.1c1.3,0.7,2.3,1.8,3,3.2c0.7,1.4,1,3,1,5V66.5z
				 M345.5,60.1c-1,0.9-1.5,2.3-1.7,4h10.8c-0.2-1.8-0.8-3.1-1.7-4c-0.9-0.9-2.1-1.4-3.7-1.4S346.5,59.2,345.5,60.1z"/>
			<path class="st0" d="M375.4,75h-3.3V49.4h3.3V75z"/>
			<path class="st0" d="M379.8,49.4h4v5.7c0,2.6-1.2,3.9-3.6,3.9h-0.4v-1.8h0.4c1.1,0,1.7-0.6,1.7-1.7V53h-2.1V49.4z"/>
			<path class="st0" d="M405.4,72.6V75h-1.8c-2,0-3.1-0.9-3.2-2.7c-0.6,1-1.5,1.7-2.7,2.3s-2.5,0.9-4,0.9c-1.2,0-2.3-0.2-3.3-0.6
				c-0.9-0.4-1.7-1-2.2-1.9c-0.5-0.8-0.8-1.8-0.8-2.9c0-1.6,0.5-2.9,1.5-3.9c1-1,2.6-1.6,4.8-1.9l4.8-0.6c0.5,0,0.8-0.2,1-0.4
				c0.2-0.2,0.3-0.6,0.3-1v-0.7c0-1-0.3-1.7-1-2.2c-0.7-0.5-1.7-0.7-3.2-0.7c-1.4,0-2.4,0.2-3.1,0.7c-0.7,0.5-1.1,1.4-1.2,2.6h-3.3
				c0.2-2,0.9-3.6,2.2-4.6s3.1-1.5,5.5-1.5c2.4,0,4.2,0.5,5.4,1.5s1.9,2.5,1.9,4.5v9.1c0,0.6,0.1,1,0.4,1.3c0.2,0.2,0.7,0.4,1.3,0.4
				H405.4z M397.1,72.3c0.9-0.4,1.5-1,2.1-1.6c0.5-0.7,0.8-1.4,0.8-2.2v-2.6l-5.5,0.8c-1.2,0.2-2.2,0.6-2.7,1.1s-0.9,1.2-0.9,2.1
				c0,0.9,0.3,1.7,1,2.2c0.6,0.5,1.5,0.8,2.6,0.8C395.3,72.9,396.2,72.7,397.1,72.3z"/>
			<path class="st0" d="M409.8,73.9c-1.3-1-2.1-2.6-2.3-4.6l3.1-0.1c0.2,1.3,0.6,2.2,1.4,2.8c0.8,0.6,1.9,0.9,3.3,0.9
				c1.5,0,2.6-0.3,3.3-0.8s1.1-1.2,1.1-2.1c0-0.7-0.2-1.3-0.7-1.7c-0.5-0.4-1.2-0.8-2.2-1l-3.7-0.8c-1.8-0.4-3.1-1-3.9-1.8
				c-0.8-0.8-1.2-1.9-1.2-3.2c0-1.1,0.3-2,0.8-2.8c0.5-0.8,1.3-1.4,2.3-1.9c1-0.4,2.3-0.7,3.8-0.7c2.1,0,3.9,0.5,5.2,1.4
				c1.3,0.9,2.1,2.4,2.4,4.3l-3.3,0.1c-0.2-1.1-0.6-1.9-1.4-2.4c-0.7-0.5-1.7-0.8-3-0.8c-1.2,0-2.1,0.2-2.8,0.6c-0.6,0.4-1,1-1,1.8
				c0,0.6,0.2,1.1,0.6,1.5c0.4,0.4,1.2,0.7,2.2,0.9l3.6,0.8c1.9,0.4,3.3,1.1,4.2,1.9c0.9,0.9,1.3,2,1.3,3.3c0,1.2-0.3,2.2-0.9,3.1
				s-1.5,1.6-2.7,2c-1.2,0.5-2.6,0.7-4.2,0.7C412.9,75.5,411.1,75,409.8,73.9z"/>
			<path class="st0" d="M428,73.9c-1.3-1-2.1-2.6-2.3-4.6l3.1-0.1c0.2,1.3,0.6,2.2,1.4,2.8c0.8,0.6,1.9,0.9,3.3,0.9
				c1.5,0,2.6-0.3,3.3-0.8s1.1-1.2,1.1-2.1c0-0.7-0.2-1.3-0.7-1.7c-0.5-0.4-1.2-0.8-2.2-1l-3.7-0.8c-1.8-0.4-3.1-1-3.9-1.8
				c-0.8-0.8-1.2-1.9-1.2-3.2c0-1.1,0.3-2,0.8-2.8c0.5-0.8,1.3-1.4,2.3-1.9c1-0.4,2.3-0.7,3.8-0.7c2.1,0,3.9,0.5,5.2,1.4
				c1.3,0.9,2.1,2.4,2.4,4.3l-3.3,0.1c-0.2-1.1-0.6-1.9-1.4-2.4c-0.7-0.5-1.7-0.8-3-0.8c-1.2,0-2.1,0.2-2.8,0.6c-0.6,0.4-1,1-1,1.8
				c0,0.6,0.2,1.1,0.6,1.5c0.4,0.4,1.2,0.7,2.2,0.9l3.6,0.8c1.9,0.4,3.3,1.1,4.2,1.9c0.9,0.9,1.3,2,1.3,3.3c0,1.2-0.3,2.2-0.9,3.1
				s-1.5,1.6-2.7,2c-1.2,0.5-2.6,0.7-4.2,0.7C431.1,75.5,429.3,75,428,73.9z"/>
			<path class="st0" d="M457.7,56.4h3.3V75h-3.1v-2.6c-0.6,1-1.5,1.7-2.6,2.3c-1.1,0.5-2.3,0.8-3.7,0.8c-1.3,0-2.4-0.2-3.4-0.7
				c-0.9-0.5-1.7-1.2-2.2-2.1c-0.5-0.9-0.8-2-0.8-3.3V56.4h3.3v12.2c0,2.6,1.2,3.9,3.7,3.9c0.9,0,1.8-0.2,2.6-0.6s1.4-1,1.9-1.9
				c0.5-0.9,0.8-2,0.8-3.4V56.4z"/>
			<path class="st0" d="M476.6,56v3.2c-0.3,0-0.7,0-1.2,0c-0.8,0-1.7,0.2-2.5,0.6c-0.8,0.4-1.5,1.1-2,1.9s-0.8,1.9-0.9,3.1V75h-3.3
				V56.4h3.1V60c1.2-2.7,3.1-4.1,5.7-4.1C475.8,55.9,476.1,55.9,476.6,56z"/>
			<path class="st0" d="M496.2,66.5h-13.9c0,2,0.6,3.6,1.6,4.6c1,1.1,2.3,1.6,4,1.6c1.3,0,2.3-0.3,3.2-0.9s1.5-1.4,1.9-2.5l3,0.4
				c-0.6,1.8-1.6,3.2-3,4.2s-3.1,1.5-5.1,1.5c-1.8,0-3.4-0.4-4.7-1.2c-1.3-0.8-2.3-2-3-3.5c-0.7-1.5-1.1-3.2-1.1-5.1
				c0-1.9,0.3-3.6,1-5s1.7-2.6,3-3.4c1.3-0.8,2.9-1.2,4.7-1.2c1.7,0,3.2,0.4,4.5,1.1c1.3,0.7,2.3,1.8,3,3.2c0.7,1.4,1,3,1,5V66.5z
				 M484,60.1c-1,0.9-1.5,2.3-1.7,4h10.8c-0.2-1.8-0.8-3.1-1.7-4c-0.9-0.9-2.1-1.4-3.7-1.4S485,59.2,484,60.1z M488.3,52.9h-2.9
				l3.2-5.6h4.5L488.3,52.9z"/>
			<path class="st0" d="M527.5,72.6V75h-1.8c-2,0-3.1-0.9-3.2-2.7c-0.6,1-1.5,1.7-2.7,2.3s-2.5,0.9-4,0.9c-1.2,0-2.3-0.2-3.3-0.6
				c-0.9-0.4-1.7-1-2.2-1.9c-0.5-0.8-0.8-1.8-0.8-2.9c0-1.6,0.5-2.9,1.5-3.9c1-1,2.6-1.6,4.8-1.9l4.8-0.6c0.5,0,0.8-0.2,1-0.4
				c0.2-0.2,0.3-0.6,0.3-1v-0.7c0-1-0.3-1.7-1-2.2c-0.7-0.5-1.7-0.7-3.2-0.7c-1.4,0-2.4,0.2-3.1,0.7c-0.7,0.5-1.1,1.4-1.2,2.6h-3.3
				c0.2-2,0.9-3.6,2.2-4.6c1.3-1,3.1-1.5,5.5-1.5c2.4,0,4.2,0.5,5.4,1.5s1.9,2.5,1.9,4.5v9.1c0,0.6,0.1,1,0.4,1.3
				c0.2,0.2,0.7,0.4,1.3,0.4H527.5z M519.2,72.3c0.9-0.4,1.5-1,2.1-1.6c0.5-0.7,0.8-1.4,0.8-2.2v-2.6l-5.5,0.8
				c-1.2,0.2-2.2,0.6-2.7,1.1s-0.9,1.2-0.9,2.1c0,0.9,0.3,1.7,1,2.2c0.6,0.5,1.5,0.8,2.6,0.8C517.4,72.9,518.3,72.7,519.2,72.3z"/>
			<path class="st0" d="M538.9,67.2l3.5-10.7h3.3L539,75h-3.3l-7.1-18.6h3.6l3.7,10.7l1.5,5L538.9,67.2z"/>
			<path class="st0" d="M552.9,52.9h-3.3v-3.6h3.3V52.9z M552.9,75h-3.3V56.4h3.3V75z"/>
			<path class="st0" d="M559.5,73.9c-1.3-1-2.1-2.6-2.3-4.6l3.1-0.1c0.2,1.3,0.6,2.2,1.4,2.8c0.8,0.6,1.9,0.9,3.3,0.9
				c1.5,0,2.6-0.3,3.3-0.8s1.1-1.2,1.1-2.1c0-0.7-0.2-1.3-0.7-1.7c-0.5-0.4-1.2-0.8-2.2-1l-3.7-0.8c-1.8-0.4-3.1-1-3.9-1.8
				c-0.8-0.8-1.2-1.9-1.2-3.2c0-1.1,0.3-2,0.8-2.8c0.5-0.8,1.3-1.4,2.3-1.9c1-0.4,2.3-0.7,3.8-0.7c2.1,0,3.9,0.5,5.2,1.4
				c1.3,0.9,2.1,2.4,2.4,4.3l-3.3,0.1c-0.2-1.1-0.6-1.9-1.4-2.4c-0.7-0.5-1.7-0.8-3-0.8c-1.2,0-2.1,0.2-2.8,0.6c-0.6,0.4-1,1-1,1.8
				c0,0.6,0.2,1.1,0.6,1.5c0.4,0.4,1.2,0.7,2.2,0.9l3.6,0.8c1.9,0.4,3.3,1.1,4.2,1.9c0.9,0.9,1.3,2,1.3,3.3c0,1.2-0.3,2.2-0.9,3.1
				s-1.5,1.6-2.7,2c-1.2,0.5-2.6,0.7-4.2,0.7C562.6,75.5,560.7,75,559.5,73.9z"/>
			<path class="st0" d="M593,66.5H579c0,2,0.6,3.6,1.6,4.6c1,1.1,2.3,1.6,4,1.6c1.3,0,2.3-0.3,3.2-0.9s1.5-1.4,1.9-2.5l3,0.4
				c-0.6,1.8-1.6,3.2-3,4.2s-3.1,1.5-5.1,1.5c-1.8,0-3.4-0.4-4.7-1.2c-1.3-0.8-2.3-2-3-3.5c-0.7-1.5-1.1-3.2-1.1-5.1
				c0-1.9,0.3-3.6,1-5s1.7-2.6,3-3.4c1.3-0.8,2.9-1.2,4.7-1.2c1.7,0,3.2,0.4,4.5,1.1c1.3,0.7,2.3,1.8,3,3.2c0.7,1.4,1,3,1,5V66.5z
				 M580.8,60.1c-1,0.9-1.5,2.3-1.7,4h10.8c-0.2-1.8-0.8-3.1-1.7-4c-0.9-0.9-2.1-1.4-3.7-1.4S581.8,59.2,580.8,60.1z"/>
			<path class="st0" d="M619.9,49.4h3.3V75h-2.9v-3c-0.6,1-1.4,1.8-2.4,2.4c-1,0.6-2.2,0.9-3.5,0.9c-1.7,0-3.1-0.4-4.3-1.3
				s-2.2-2-2.8-3.5c-0.6-1.5-1-3.2-1-5.1c0-1.8,0.3-3.5,1-4.9c0.7-1.4,1.6-2.5,2.8-3.3s2.6-1.2,4.2-1.2c1.2,0,2.3,0.2,3.3,0.7
				c1,0.5,1.8,1.1,2.4,1.9V49.4z M617.5,71.7c0.8-0.6,1.5-1.4,1.9-2.4c0.5-1.1,0.7-2.3,0.7-3.8c0-1.4-0.2-2.6-0.7-3.6
				c-0.5-1-1.1-1.7-1.9-2.2s-1.7-0.8-2.8-0.8c-1.6,0-2.9,0.6-3.8,1.7c-0.9,1.1-1.4,2.7-1.4,4.9c0,1.4,0.2,2.7,0.6,3.8
				c0.4,1.1,1,1.9,1.8,2.5c0.8,0.6,1.7,0.9,2.7,0.9C615.7,72.6,616.7,72.3,617.5,71.7z"/>
			<path class="st0" d="M627.6,49.4h4v5.7c0,2.6-1.2,3.9-3.6,3.9h-0.4v-1.8h0.4c1.1,0,1.7-0.6,1.7-1.7V53h-2.1V49.4z"/>
			<path class="st0" d="M648.7,56.4h3.3V75h-3.1v-2.6c-0.6,1-1.5,1.7-2.6,2.3c-1.1,0.5-2.3,0.8-3.7,0.8c-1.3,0-2.4-0.2-3.4-0.7
				c-0.9-0.5-1.7-1.2-2.2-2.1c-0.5-0.9-0.8-2-0.8-3.3V56.4h3.3v12.2c0,2.6,1.2,3.9,3.7,3.9c0.9,0,1.8-0.2,2.6-0.6s1.4-1,1.9-1.9
				c0.5-0.9,0.8-2,0.8-3.4V56.4z"/>
			<path class="st0" d="M670.4,56.7c0.9,0.5,1.7,1.2,2.2,2.1s0.8,2,0.8,3.3V75H670V62.8c0-2.6-1.2-3.9-3.7-3.9
				c-0.9,0-1.8,0.2-2.6,0.6c-0.8,0.4-1.4,1-1.9,1.9c-0.5,0.9-0.8,2-0.8,3.4V75h-3.3V56.4h3.1v2.6c0.6-1,1.5-1.7,2.6-2.3
				s2.3-0.8,3.7-0.8C668.4,56,669.5,56.2,670.4,56.7z"/>
			<path class="st0" d="M695.3,66.5h-13.9c0,2,0.6,3.6,1.6,4.6c1,1.1,2.3,1.6,4,1.6c1.3,0,2.3-0.3,3.2-0.9s1.5-1.4,1.9-2.5l3,0.4
				c-0.6,1.8-1.6,3.2-3,4.2s-3.1,1.5-5.1,1.5c-1.8,0-3.4-0.4-4.7-1.2c-1.3-0.8-2.3-2-3-3.5c-0.7-1.5-1.1-3.2-1.1-5.1
				c0-1.9,0.3-3.6,1-5s1.7-2.6,3-3.4c1.3-0.8,2.9-1.2,4.7-1.2c1.7,0,3.2,0.4,4.5,1.1c1.3,0.7,2.3,1.8,3,3.2c0.7,1.4,1,3,1,5V66.5z
				 M683.1,60.1c-1,0.9-1.5,2.3-1.7,4h10.8c-0.2-1.8-0.8-3.1-1.7-4c-0.9-0.9-2.1-1.4-3.7-1.4S684.1,59.2,683.1,60.1z"/>
			<path class="st0" d="M712.7,74.4c-1.3-0.7-2.3-1.8-3-3.3c-0.7-1.5-1.1-3.2-1.1-5.2c0-2.1,0.4-3.8,1.1-5.3s1.7-2.6,3.1-3.4
				c1.3-0.8,2.9-1.2,4.6-1.2c2.2,0,3.9,0.6,5.3,1.7s2.2,2.7,2.5,4.9h-3.1c-0.5-2.5-2.1-3.8-4.7-3.8c-1.8,0-3.2,0.6-4.1,1.8
				c-0.9,1.2-1.4,2.9-1.4,5.2c0,2.2,0.5,3.9,1.4,5.1c0.9,1.2,2.3,1.8,4,1.8c1.3,0,2.4-0.4,3.2-1.1c0.8-0.7,1.3-1.8,1.6-3.1h3.1
				c-0.3,2.2-1.2,3.9-2.5,5.1c-1.4,1.2-3.2,1.8-5.5,1.8C715.5,75.5,714,75.1,712.7,74.4z"/>
			<path class="st0" d="M733,52.9h-3.3v-3.6h3.3V52.9z M733,75h-3.3V56.4h3.3V75z"/>
			<path class="st0" d="M748.6,56v3.2c-0.3,0-0.7,0-1.2,0c-0.8,0-1.7,0.2-2.5,0.6c-0.8,0.4-1.5,1.1-2,1.9s-0.8,1.9-0.9,3.1V75h-3.3
				V56.4h3.1V60c1.2-2.7,3.1-4.1,5.7-4.1C747.9,55.9,748.2,55.9,748.6,56z"/>
			<path class="st0" d="M755,74.4c-1.3-0.7-2.3-1.8-3-3.3c-0.7-1.5-1.1-3.2-1.1-5.2c0-2.1,0.4-3.8,1.1-5.3s1.7-2.6,3.1-3.4
				c1.3-0.8,2.9-1.2,4.6-1.2c2.2,0,3.9,0.6,5.3,1.7s2.2,2.7,2.5,4.9h-3.1c-0.5-2.5-2.1-3.8-4.7-3.8c-1.8,0-3.2,0.6-4.1,1.8
				c-0.9,1.2-1.4,2.9-1.4,5.2c0,2.2,0.5,3.9,1.4,5.1c0.9,1.2,2.3,1.8,4,1.8c1.3,0,2.4-0.4,3.2-1.1c0.8-0.7,1.3-1.8,1.6-3.1h3.1
				c-0.3,2.2-1.2,3.9-2.5,5.1c-1.4,1.2-3.2,1.8-5.5,1.8C757.8,75.5,756.3,75.1,755,74.4z"/>
			<path class="st0" d="M775.3,74.2c-1.4-0.8-2.4-2-3.2-3.4c-0.7-1.5-1.1-3.2-1.1-5.1c0-2,0.4-3.7,1.1-5.2c0.8-1.5,1.8-2.6,3.2-3.4
				s2.9-1.2,4.7-1.2c1.7,0,3.3,0.4,4.6,1.2c1.3,0.8,2.4,1.9,3.1,3.3c0.8,1.5,1.1,3.2,1.1,5.1c0,1.9-0.4,3.6-1.2,5.1
				c-0.8,1.5-1.8,2.7-3.2,3.5c-1.4,0.8-2.9,1.3-4.6,1.3C778.2,75.5,776.6,75.1,775.3,74.2z M783,71.8c0.9-0.6,1.5-1.4,1.9-2.5
				c0.4-1.1,0.7-2.3,0.7-3.7c0-1.4-0.2-2.6-0.7-3.6c-0.4-1-1.1-1.8-1.9-2.4c-0.9-0.6-1.9-0.8-3-0.8c-1.2,0-2.2,0.3-3,0.9
				S775.4,61,775,62c-0.4,1.1-0.7,2.3-0.7,3.7c0,1.4,0.2,2.6,0.7,3.7c0.5,1.1,1.1,1.9,1.9,2.4c0.8,0.6,1.8,0.9,3,0.9
				C781.1,72.7,782.1,72.4,783,71.8z"/>
			<path class="st0" d="M806.3,56.7c0.9,0.5,1.7,1.2,2.2,2.1s0.8,2,0.8,3.3V75h-3.3V62.8c0-2.6-1.2-3.9-3.7-3.9
				c-0.9,0-1.8,0.2-2.6,0.6c-0.8,0.4-1.4,1-1.9,1.9c-0.5,0.9-0.8,2-0.8,3.4V75h-3.3V56.4h3.1v2.6c0.6-1,1.5-1.7,2.6-2.3
				s2.3-0.8,3.7-0.8C804.2,56,805.3,56.2,806.3,56.7z"/>
			<path class="st0" d="M815.8,73.9c-1.3-1-2.1-2.6-2.3-4.6l3.1-0.1c0.2,1.3,0.6,2.2,1.4,2.8c0.8,0.6,1.9,0.9,3.3,0.9
				c1.5,0,2.6-0.3,3.3-0.8s1.1-1.2,1.1-2.1c0-0.7-0.2-1.3-0.7-1.7c-0.5-0.4-1.2-0.8-2.2-1l-3.7-0.8c-1.8-0.4-3.1-1-3.9-1.8
				c-0.8-0.8-1.2-1.9-1.2-3.2c0-1.1,0.3-2,0.8-2.8c0.5-0.8,1.3-1.4,2.3-1.9c1-0.4,2.3-0.7,3.8-0.7c2.1,0,3.9,0.5,5.2,1.4
				c1.3,0.9,2.1,2.4,2.4,4.3l-3.3,0.1c-0.2-1.1-0.6-1.9-1.4-2.4c-0.7-0.5-1.7-0.8-3-0.8c-1.2,0-2.1,0.2-2.8,0.6c-0.6,0.4-1,1-1,1.8
				c0,0.6,0.2,1.1,0.6,1.5c0.4,0.4,1.2,0.7,2.2,0.9l3.6,0.8c1.9,0.4,3.3,1.1,4.2,1.9c0.9,0.9,1.3,2,1.3,3.3c0,1.2-0.3,2.2-0.9,3.1
				s-1.5,1.6-2.7,2c-1.2,0.5-2.6,0.7-4.2,0.7C818.9,75.5,817.1,75,815.8,73.9z"/>
			<path class="st0" d="M837.8,58.8v11.6c0,0.7,0.1,1.1,0.4,1.4c0.3,0.3,0.7,0.4,1.4,0.4h2.4V75h-3.4c-1.4,0-2.5-0.3-3.1-1
				c-0.7-0.7-1-1.7-1-3.1v-12l-2.8,0.1v-2.6l2.8,0.1v-5.8h3.3v5.8l4.2-0.1V59L837.8,58.8z"/>
			<path class="st0" d="M862.9,72.6V75h-1.8c-2,0-3.1-0.9-3.2-2.7c-0.6,1-1.5,1.7-2.7,2.3s-2.5,0.9-4,0.9c-1.2,0-2.3-0.2-3.3-0.6
				c-0.9-0.4-1.7-1-2.2-1.9c-0.5-0.8-0.8-1.8-0.8-2.9c0-1.6,0.5-2.9,1.5-3.9c1-1,2.6-1.6,4.8-1.9l4.8-0.6c0.5,0,0.8-0.2,1-0.4
				c0.2-0.2,0.3-0.6,0.3-1v-0.7c0-1-0.3-1.7-1-2.2c-0.7-0.5-1.7-0.7-3.2-0.7c-1.4,0-2.4,0.2-3.1,0.7c-0.7,0.5-1.1,1.4-1.2,2.6h-3.3
				c0.2-2,0.9-3.6,2.2-4.6s3.1-1.5,5.5-1.5c2.4,0,4.2,0.5,5.4,1.5s1.9,2.5,1.9,4.5v9.1c0,0.6,0.1,1,0.4,1.3c0.2,0.2,0.7,0.4,1.3,0.4
				H862.9z M854.6,72.3c0.9-0.4,1.5-1,2.1-1.6c0.5-0.7,0.8-1.4,0.8-2.2v-2.6l-5.5,0.8c-1.2,0.2-2.2,0.6-2.7,1.1s-0.9,1.2-0.9,2.1
				c0,0.9,0.3,1.7,1,2.2c0.6,0.5,1.5,0.8,2.6,0.8C852.8,72.9,853.7,72.7,854.6,72.3z"/>
			<path class="st0" d="M879.2,56.7c0.9,0.5,1.7,1.2,2.2,2.1s0.8,2,0.8,3.3V75h-3.3V62.8c0-2.6-1.2-3.9-3.7-3.9
				c-0.9,0-1.8,0.2-2.6,0.6c-0.8,0.4-1.4,1-1.9,1.9c-0.5,0.9-0.8,2-0.8,3.4V75h-3.3V56.4h3.1v2.6c0.6-1,1.5-1.7,2.6-2.3
				s2.3-0.8,3.7-0.8C877.1,56,878.3,56.2,879.2,56.7z"/>
			<path class="st0" d="M890.9,74.4c-1.3-0.7-2.3-1.8-3-3.3c-0.7-1.5-1.1-3.2-1.1-5.2c0-2.1,0.4-3.8,1.1-5.3s1.7-2.6,3.1-3.4
				c1.3-0.8,2.9-1.2,4.6-1.2c2.2,0,3.9,0.6,5.3,1.7s2.2,2.7,2.5,4.9h-3.1c-0.5-2.5-2.1-3.8-4.7-3.8c-1.8,0-3.2,0.6-4.1,1.8
				c-0.9,1.2-1.4,2.9-1.4,5.2c0,2.2,0.5,3.9,1.4,5.1c0.9,1.2,2.3,1.8,4,1.8c1.3,0,2.4-0.4,3.2-1.1c0.8-0.7,1.3-1.8,1.6-3.1h3.1
				c-0.3,2.2-1.2,3.9-2.5,5.1c-1.4,1.2-3.2,1.8-5.5,1.8C893.7,75.5,892.2,75.1,890.9,74.4z"/>
			<path class="st0" d="M924.1,66.5h-13.9c0,2,0.6,3.6,1.6,4.6c1,1.1,2.3,1.6,4,1.6c1.3,0,2.3-0.3,3.2-0.9s1.5-1.4,1.9-2.5l3,0.4
				c-0.6,1.8-1.6,3.2-3,4.2s-3.1,1.5-5.1,1.5c-1.8,0-3.4-0.4-4.7-1.2c-1.3-0.8-2.3-2-3-3.5c-0.7-1.5-1.1-3.2-1.1-5.1
				c0-1.9,0.3-3.6,1-5s1.7-2.6,3-3.4c1.3-0.8,2.9-1.2,4.7-1.2c1.7,0,3.2,0.4,4.5,1.1c1.3,0.7,2.3,1.8,3,3.2c0.7,1.4,1,3,1,5V66.5z
				 M911.9,60.1c-1,0.9-1.5,2.3-1.7,4H921c-0.2-1.8-0.8-3.1-1.7-4c-0.9-0.9-2.1-1.4-3.7-1.4S912.9,59.2,911.9,60.1z"/>
			<path class="st0" d="M928.3,71.4h4v5.7c0,2.6-1.2,3.9-3.6,3.9h-0.4v-1.8h0.4c1.1,0,1.7-0.6,1.7-1.7V75h-2.1V71.4z"/>
			<path class="st0" d="M951.2,74.4c-1.3-0.7-2.3-1.8-3-3.3c-0.7-1.5-1.1-3.2-1.1-5.2c0-2.1,0.4-3.8,1.1-5.3s1.7-2.6,3.1-3.4
				c1.3-0.8,2.9-1.2,4.6-1.2c2.2,0,3.9,0.6,5.3,1.7s2.2,2.7,2.5,4.9h-3.1c-0.5-2.5-2.1-3.8-4.7-3.8c-1.8,0-3.2,0.6-4.1,1.8
				c-0.9,1.2-1.4,2.9-1.4,5.2c0,2.2,0.5,3.9,1.4,5.1c0.9,1.2,2.3,1.8,4,1.8c1.3,0,2.4-0.4,3.2-1.1c0.8-0.7,1.3-1.8,1.6-3.1h3.1
				c-0.3,2.2-1.2,3.9-2.5,5.1c-1.4,1.2-3.2,1.8-5.5,1.8C954,75.5,952.5,75.1,951.2,74.4z"/>
			<path class="st0" d="M984.5,66.5h-13.9c0,2,0.6,3.6,1.6,4.6c1,1.1,2.3,1.6,4,1.6c1.3,0,2.3-0.3,3.2-0.9s1.5-1.4,1.9-2.5l3,0.4
				c-0.6,1.8-1.6,3.2-3,4.2s-3.1,1.5-5.1,1.5c-1.8,0-3.4-0.4-4.7-1.2c-1.3-0.8-2.3-2-3-3.5c-0.7-1.5-1.1-3.2-1.1-5.1
				c0-1.9,0.3-3.6,1-5s1.7-2.6,3-3.4c1.3-0.8,2.9-1.2,4.7-1.2c1.7,0,3.2,0.4,4.5,1.1c1.3,0.7,2.3,1.8,3,3.2c0.7,1.4,1,3,1,5V66.5z
				 M972.3,60.1c-1,0.9-1.5,2.3-1.7,4h10.8c-0.2-1.8-0.8-3.1-1.7-4c-0.9-0.9-2.1-1.4-3.7-1.4S973.2,59.2,972.3,60.1z"/>
			<path class="st0" d="M992.5,75h-3.3V49.4h3.3V75z"/>
			<path class="st0" d="M1010.5,56.4h3.3V75h-3.1v-2.6c-0.6,1-1.5,1.7-2.6,2.3c-1.1,0.5-2.3,0.8-3.7,0.8c-1.3,0-2.4-0.2-3.4-0.7
				c-0.9-0.5-1.7-1.2-2.2-2.1c-0.5-0.9-0.8-2-0.8-3.3V56.4h3.3v12.2c0,2.6,1.2,3.9,3.7,3.9c0.9,0,1.8-0.2,2.6-0.6s1.4-1,1.9-1.9
				c0.5-0.9,0.8-2,0.8-3.4V56.4z"/>
			<path class="st0" d="M1022.9,52.9h-3.3v-3.6h3.3V52.9z M1022.9,75h-3.3V56.4h3.3V75z"/>
			<path class="st0" d="M1037.7,67.2h-10.1v-3h10.1V67.2z"/>
			<path class="st0" d="M1045.3,74.4c-1.3-0.7-2.3-1.8-3-3.3c-0.7-1.5-1.1-3.2-1.1-5.2c0-2.1,0.4-3.8,1.1-5.3s1.7-2.6,3.1-3.4
				c1.3-0.8,2.9-1.2,4.6-1.2c2.2,0,3.9,0.6,5.3,1.7s2.2,2.7,2.5,4.9h-3.1c-0.5-2.5-2.1-3.8-4.7-3.8c-1.8,0-3.2,0.6-4.1,1.8
				c-0.9,1.2-1.4,2.9-1.4,5.2c0,2.2,0.5,3.9,1.4,5.1c0.9,1.2,2.3,1.8,4,1.8c1.3,0,2.4-0.4,3.2-1.1c0.8-0.7,1.3-1.8,1.6-3.1h3.1
				c-0.3,2.2-1.2,3.9-2.5,5.1c-1.4,1.2-3.2,1.8-5.5,1.8C1048.1,75.5,1046.6,75.1,1045.3,74.4z"/>
			<path class="st0" d="M1065.7,52.9h-3.3v-3.6h3.3V52.9z M1065.7,75h-3.3V56.4h3.3V75z"/>
			<path class="st0" d="M1105.2,57.5c1,1,1.5,2.6,1.5,4.8V75h-3.3V62.3c0-1.1-0.3-1.9-0.8-2.5c-0.6-0.6-1.3-0.9-2.4-0.9
				c-1.3,0-2.3,0.5-3.2,1.4c-0.9,0.9-1.3,2.5-1.3,4.7V75h-3.3V62.3c0-1.1-0.3-1.9-0.8-2.5c-0.6-0.6-1.3-0.9-2.4-0.9
				c-0.8,0-1.5,0.2-2.2,0.6c-0.7,0.4-1.2,1.1-1.7,2c-0.4,0.9-0.6,2.2-0.6,3.7V75h-3.3V56.4h3.1v2.6c1.3-2.1,3.1-3.1,5.6-3.1
				c1.3,0,2.3,0.3,3.2,0.8c0.9,0.6,1.5,1.4,1.9,2.4c1.2-2.2,3.2-3.2,5.9-3.2C1102.8,56,1104.2,56.5,1105.2,57.5z"/>
			<path class="st0" d="M1128.5,66.5h-13.9c0,2,0.6,3.6,1.6,4.6c1,1.1,2.3,1.6,4,1.6c1.3,0,2.3-0.3,3.2-0.9s1.5-1.4,1.9-2.5l3,0.4
				c-0.6,1.8-1.6,3.2-3,4.2s-3.1,1.5-5.1,1.5c-1.8,0-3.4-0.4-4.7-1.2c-1.3-0.8-2.3-2-3-3.5c-0.7-1.5-1.1-3.2-1.1-5.1
				c0-1.9,0.3-3.6,1-5s1.7-2.6,3-3.4c1.3-0.8,2.9-1.2,4.7-1.2c1.7,0,3.2,0.4,4.5,1.1c1.3,0.7,2.3,1.8,3,3.2c0.7,1.4,1,3,1,5V66.5z
				 M1116.3,60.1c-1,0.9-1.5,2.3-1.7,4h10.8c-0.2-1.8-0.8-3.1-1.7-4c-0.9-0.9-2.1-1.4-3.7-1.4S1117.3,59.2,1116.3,60.1z"/>
			<path class="st0" d="M1137.1,58.8v11.6c0,0.7,0.1,1.1,0.4,1.4c0.3,0.3,0.7,0.4,1.4,0.4h2.4V75h-3.4c-1.4,0-2.5-0.3-3.1-1
				c-0.7-0.7-1-1.7-1-3.1v-12l-2.8,0.1v-2.6l2.8,0.1v-5.8h3.3v5.8l4.2-0.1V59L1137.1,58.8z"/>
			<path class="st0" d="M237.9,104.4h3.3V123h-3.1v-2.6c-0.6,1-1.5,1.7-2.6,2.3c-1.1,0.5-2.3,0.8-3.7,0.8c-1.3,0-2.4-0.2-3.4-0.7
				c-0.9-0.5-1.7-1.2-2.2-2.1c-0.5-0.9-0.8-2-0.8-3.3v-12.9h3.3v12.2c0,2.6,1.2,3.9,3.7,3.9c0.9,0,1.8-0.2,2.6-0.6s1.4-1,1.9-1.9
				c0.5-0.9,0.8-2,0.8-3.4V104.4z"/>
			<path class="st0" d="M259.7,104.7c0.9,0.5,1.7,1.2,2.2,2.1s0.8,2,0.8,3.3V123h-3.3v-12.2c0-2.6-1.2-3.9-3.7-3.9
				c-0.9,0-1.8,0.2-2.6,0.6c-0.8,0.4-1.4,1-1.9,1.9c-0.5,0.9-0.8,2-0.8,3.4V123H247v-18.6h3.1v2.6c0.6-1,1.5-1.7,2.6-2.3
				s2.3-0.8,3.7-0.8C257.6,104,258.8,104.2,259.7,104.7z"/>
			<path class="st0" d="M302.1,105.5c1,1,1.5,2.6,1.5,4.8V123h-3.3v-12.7c0-1.1-0.3-1.9-0.8-2.5c-0.6-0.6-1.3-0.9-2.4-0.9
				c-1.3,0-2.3,0.5-3.2,1.4c-0.9,0.9-1.3,2.5-1.3,4.7V123h-3.3v-12.7c0-1.1-0.3-1.9-0.8-2.5c-0.6-0.6-1.3-0.9-2.4-0.9
				c-0.8,0-1.5,0.2-2.2,0.6c-0.7,0.4-1.2,1.1-1.7,2c-0.4,0.9-0.6,2.2-0.6,3.7v9.9h-3.3v-18.6h3.1v2.6c1.3-2.1,3.1-3.1,5.6-3.1
				c1.3,0,2.3,0.3,3.2,0.8c0.9,0.6,1.5,1.4,1.9,2.4c1.2-2.2,3.2-3.2,5.9-3.2C299.7,104,301.1,104.5,302.1,105.5z"/>
			<path class="st0" d="M326.2,120.6v2.4h-1.8c-2,0-3.1-0.9-3.2-2.7c-0.6,1-1.5,1.7-2.7,2.3s-2.5,0.9-4,0.9c-1.2,0-2.3-0.2-3.3-0.6
				c-0.9-0.4-1.7-1-2.2-1.9c-0.5-0.8-0.8-1.8-0.8-2.9c0-1.6,0.5-2.9,1.5-3.9c1-1,2.6-1.6,4.8-1.9l4.8-0.6c0.5,0,0.8-0.2,1-0.4
				c0.2-0.2,0.3-0.6,0.3-1v-0.7c0-1-0.3-1.7-1-2.2c-0.7-0.5-1.7-0.7-3.2-0.7c-1.4,0-2.4,0.2-3.1,0.7c-0.7,0.5-1.1,1.4-1.2,2.6H309
				c0.2-2,0.9-3.6,2.2-4.6s3.1-1.5,5.5-1.5c2.4,0,4.2,0.5,5.4,1.5s1.9,2.5,1.9,4.5v9.1c0,0.6,0.1,1,0.4,1.3c0.2,0.2,0.7,0.4,1.3,0.4
				H326.2z M317.9,120.3c0.9-0.4,1.5-1,2.1-1.6c0.5-0.7,0.8-1.4,0.8-2.2v-2.6l-5.5,0.8c-1.2,0.2-2.2,0.6-2.7,1.1s-0.9,1.2-0.9,2.1
				c0,0.9,0.3,1.7,1,2.2c0.6,0.5,1.5,0.8,2.6,0.8C316.1,120.9,317,120.7,317.9,120.3z"/>
			<path class="st0" d="M339.6,104v3.2c-0.3,0-0.7,0-1.2,0c-0.8,0-1.7,0.2-2.5,0.6c-0.8,0.4-1.5,1.1-2,1.9s-0.8,1.9-0.9,3.1V123
				h-3.3v-18.6h3.1v3.6c1.2-2.7,3.1-4.1,5.7-4.1C338.9,103.9,339.2,103.9,339.6,104z"/>
			<path class="st0" d="M356.1,104.4h2.9v25.9h-3.3v-9.6c-0.6,0.8-1.4,1.5-2.4,2c-1,0.5-2,0.7-3.2,0.7c-1.7,0-3.1-0.4-4.3-1.3
				s-2.2-2-2.8-3.5c-0.6-1.5-1-3.2-1-5.1c0-1.8,0.3-3.5,1-4.9c0.7-1.4,1.6-2.5,2.8-3.3s2.6-1.2,4.2-1.2c1.3,0,2.5,0.3,3.6,0.9
				c1.1,0.6,1.9,1.4,2.4,2.4V104.4z M353.2,119.7c0.8-0.6,1.5-1.4,1.9-2.4c0.5-1.1,0.7-2.3,0.7-3.8c0-1.4-0.2-2.6-0.7-3.6
				c-0.5-1-1.1-1.7-1.9-2.2s-1.7-0.8-2.8-0.8c-1.6,0-2.9,0.6-3.8,1.7c-0.9,1.1-1.4,2.7-1.4,4.9c0,1.4,0.2,2.7,0.6,3.8
				c0.4,1.1,1,1.9,1.8,2.5c0.8,0.6,1.7,0.9,2.7,0.9C351.4,120.6,352.4,120.3,353.2,119.7z"/>
			<path class="st0" d="M377,104.4h3.3V123h-3.1v-2.6c-0.6,1-1.5,1.7-2.6,2.3c-1.1,0.5-2.3,0.8-3.7,0.8c-1.3,0-2.4-0.2-3.4-0.7
				c-0.9-0.5-1.7-1.2-2.2-2.1c-0.5-0.9-0.8-2-0.8-3.3v-12.9h3.3v12.2c0,2.6,1.2,3.9,3.7,3.9c0.9,0,1.8-0.2,2.6-0.6s1.4-1,1.9-1.9
				c0.5-0.9,0.8-2,0.8-3.4V104.4z"/>
			<path class="st0" d="M402.2,114.5h-13.9c0,2,0.6,3.6,1.6,4.6c1,1.1,2.3,1.6,4,1.6c1.3,0,2.3-0.3,3.2-0.9s1.5-1.4,1.9-2.5l3,0.4
				c-0.6,1.8-1.6,3.2-3,4.2s-3.1,1.5-5.1,1.5c-1.8,0-3.4-0.4-4.7-1.2c-1.3-0.8-2.3-2-3-3.5c-0.7-1.5-1.1-3.2-1.1-5.1
				c0-1.9,0.3-3.6,1-5s1.7-2.6,3-3.4c1.3-0.8,2.9-1.2,4.7-1.2c1.7,0,3.2,0.4,4.5,1.1c1.3,0.7,2.3,1.8,3,3.2c0.7,1.4,1,3,1,5V114.5z
				 M390.1,108.1c-1,0.9-1.5,2.3-1.7,4h10.8c-0.2-1.8-0.8-3.1-1.7-4c-0.9-0.9-2.1-1.4-3.7-1.4S391,107.2,390.1,108.1z"/>
			<path class="st0" d="M419.2,104.4h3.3V123h-3.1v-2.6c-0.6,1-1.5,1.7-2.6,2.3c-1.1,0.5-2.3,0.8-3.7,0.8c-1.3,0-2.4-0.2-3.4-0.7
				c-0.9-0.5-1.7-1.2-2.2-2.1c-0.5-0.9-0.8-2-0.8-3.3v-12.9h3.3v12.2c0,2.6,1.2,3.9,3.7,3.9c0.9,0,1.8-0.2,2.6-0.6s1.4-1,1.9-1.9
				c0.5-0.9,0.8-2,0.8-3.4V104.4z"/>
			<path class="st0" d="M438.1,104v3.2c-0.3,0-0.7,0-1.2,0c-0.8,0-1.7,0.2-2.5,0.6c-0.8,0.4-1.5,1.1-2,1.9s-0.8,1.9-0.9,3.1V123
				h-3.3v-18.6h3.1v3.6c1.2-2.7,3.1-4.1,5.7-4.1C437.4,103.9,437.7,103.9,438.1,104z"/>
			<path class="st0" d="M452.1,121.9c-1.3-1-2.1-2.6-2.3-4.6l3.1-0.1c0.2,1.3,0.6,2.2,1.4,2.8c0.8,0.6,1.9,0.9,3.3,0.9
				c1.5,0,2.6-0.3,3.3-0.8s1.1-1.2,1.1-2.1c0-0.7-0.2-1.3-0.7-1.7c-0.5-0.4-1.2-0.8-2.2-1l-3.7-0.8c-1.8-0.4-3.1-1-3.9-1.8
				c-0.8-0.8-1.2-1.9-1.2-3.2c0-1.1,0.3-2,0.8-2.8c0.5-0.8,1.3-1.4,2.3-1.9c1-0.4,2.3-0.7,3.8-0.7c2.1,0,3.9,0.5,5.2,1.4
				c1.3,0.9,2.1,2.4,2.4,4.3l-3.3,0.1c-0.2-1.1-0.6-1.9-1.4-2.4c-0.7-0.5-1.7-0.8-3-0.8c-1.2,0-2.1,0.2-2.8,0.6c-0.6,0.4-1,1-1,1.8
				c0,0.6,0.2,1.1,0.6,1.5c0.4,0.4,1.2,0.7,2.2,0.9l3.6,0.8c1.9,0.4,3.3,1.1,4.2,1.9c0.9,0.9,1.3,2,1.3,3.3c0,1.2-0.3,2.2-0.9,3.1
				s-1.5,1.6-2.7,2c-1.2,0.5-2.6,0.7-4.2,0.7C455.2,123.5,453.4,123,452.1,121.9z"/>
			<path class="st0" d="M481.8,104.4h3.3V123H482v-2.6c-0.6,1-1.5,1.7-2.6,2.3c-1.1,0.5-2.3,0.8-3.7,0.8c-1.3,0-2.4-0.2-3.4-0.7
				c-0.9-0.5-1.7-1.2-2.2-2.1c-0.5-0.9-0.8-2-0.8-3.3v-12.9h3.3v12.2c0,2.6,1.2,3.9,3.7,3.9c0.9,0,1.8-0.2,2.6-0.6s1.4-1,1.9-1.9
				c0.5-0.9,0.8-2,0.8-3.4V104.4z"/>
			<path class="st0" d="M500.7,104v3.2c-0.3,0-0.7,0-1.2,0c-0.8,0-1.7,0.2-2.5,0.6c-0.8,0.4-1.5,1.1-2,1.9s-0.8,1.9-0.9,3.1V123
				h-3.3v-18.6h3.1v3.6c1.2-2.7,3.1-4.1,5.7-4.1C499.9,103.9,500.2,103.9,500.7,104z"/>
			<path class="st0" d="M516.8,122.4c-1.3-0.7-2.3-1.8-3-3.3c-0.7-1.5-1.1-3.2-1.1-5.2c0-2.1,0.4-3.8,1.1-5.3s1.7-2.6,3.1-3.4
				c1.3-0.8,2.9-1.2,4.6-1.2c2.2,0,3.9,0.6,5.3,1.7s2.2,2.7,2.5,4.9h-3.1c-0.5-2.5-2.1-3.8-4.7-3.8c-1.8,0-3.2,0.6-4.1,1.8
				c-0.9,1.2-1.4,2.9-1.4,5.2c0,2.2,0.5,3.9,1.4,5.1c0.9,1.2,2.3,1.8,4,1.8c1.3,0,2.4-0.4,3.2-1.1c0.8-0.7,1.3-1.8,1.6-3.1h3.1
				c-0.3,2.2-1.2,3.9-2.5,5.1c-1.4,1.2-3.2,1.8-5.5,1.8C519.6,123.5,518.1,123.1,516.8,122.4z"/>
			<path class="st0" d="M550,114.5h-13.9c0,2,0.6,3.6,1.6,4.6c1,1.1,2.3,1.6,4,1.6c1.3,0,2.3-0.3,3.2-0.9s1.5-1.4,1.9-2.5l3,0.4
				c-0.6,1.8-1.6,3.2-3,4.2s-3.1,1.5-5.1,1.5c-1.8,0-3.4-0.4-4.7-1.2c-1.3-0.8-2.3-2-3-3.5c-0.7-1.5-1.1-3.2-1.1-5.1
				c0-1.9,0.3-3.6,1-5s1.7-2.6,3-3.4c1.3-0.8,2.9-1.2,4.7-1.2c1.7,0,3.2,0.4,4.5,1.1c1.3,0.7,2.3,1.8,3,3.2c0.7,1.4,1,3,1,5V114.5z
				 M537.8,108.1c-1,0.9-1.5,2.3-1.7,4h10.8c-0.2-1.8-0.8-3.1-1.7-4c-0.9-0.9-2.1-1.4-3.7-1.4S538.8,107.2,537.8,108.1z"/>
			<path class="st0" d="M558.6,106.8v11.6c0,0.7,0.1,1.1,0.4,1.4c0.3,0.3,0.7,0.4,1.4,0.4h2.4v2.8h-3.4c-1.4,0-2.5-0.3-3.1-1
				c-0.7-0.7-1-1.7-1-3.1v-12l-2.8,0.1v-2.6l2.8,0.1v-5.8h3.3v5.8l4.2-0.1v2.6L558.6,106.8z"/>
			<path class="st0" d="M571.5,106.8v11.6c0,0.7,0.1,1.1,0.4,1.4c0.3,0.3,0.7,0.4,1.4,0.4h2.4v2.8h-3.4c-1.4,0-2.5-0.3-3.1-1
				c-0.7-0.7-1-1.7-1-3.1v-12l-2.8,0.1v-2.6l2.8,0.1v-5.8h3.3v5.8l4.2-0.1v2.6L571.5,106.8z"/>
			<path class="st0" d="M595.8,114.5h-13.9c0,2,0.6,3.6,1.6,4.6c1,1.1,2.3,1.6,4,1.6c1.3,0,2.3-0.3,3.2-0.9s1.5-1.4,1.9-2.5l3,0.4
				c-0.6,1.8-1.6,3.2-3,4.2s-3.1,1.5-5.1,1.5c-1.8,0-3.4-0.4-4.7-1.2c-1.3-0.8-2.3-2-3-3.5c-0.7-1.5-1.1-3.2-1.1-5.1
				c0-1.9,0.3-3.6,1-5s1.7-2.6,3-3.4c1.3-0.8,2.9-1.2,4.7-1.2c1.7,0,3.2,0.4,4.5,1.1c1.3,0.7,2.3,1.8,3,3.2c0.7,1.4,1,3,1,5V114.5z
				 M583.7,108.1c-1,0.9-1.5,2.3-1.7,4h10.8c-0.2-1.8-0.8-3.1-1.7-4c-0.9-0.9-2.1-1.4-3.7-1.4S584.6,107.2,583.7,108.1z"/>
			<path class="st0" d="M623.4,105.2c1.2,0.8,2.2,1.8,2.8,3.2c0.7,1.4,1,3,1,4.9c0,1.9-0.3,3.6-1,5.2c-0.7,1.5-1.6,2.7-2.8,3.6
				s-2.7,1.3-4.3,1.3c-1.2,0-2.2-0.2-3.2-0.7c-0.9-0.5-1.7-1.1-2.4-1.9v9.6h-3.3v-25.9h2.9v3c0.6-1,1.4-1.9,2.4-2.5
				c1.1-0.6,2.3-0.9,3.6-0.9C620.8,104,622.2,104.4,623.4,105.2z M621.5,119.6c0.8-0.6,1.4-1.5,1.8-2.6s0.6-2.4,0.6-3.8
				c0-2.1-0.5-3.7-1.4-4.8c-0.9-1.1-2.2-1.6-3.8-1.6c-1.1,0-2,0.3-2.8,0.8c-0.8,0.5-1.4,1.3-1.9,2.2c-0.5,1-0.7,2.2-0.7,3.6
				c0,1.4,0.2,2.7,0.7,3.8c0.5,1.1,1.1,1.9,1.9,2.4c0.8,0.6,1.7,0.8,2.8,0.8C619.8,120.6,620.7,120.2,621.5,119.6z"/>
			<path class="st0" d="M648,114.5h-13.9c0,2,0.6,3.6,1.6,4.6c1,1.1,2.3,1.6,4,1.6c1.3,0,2.3-0.3,3.2-0.9s1.5-1.4,1.9-2.5l3,0.4
				c-0.6,1.8-1.6,3.2-3,4.2s-3.1,1.5-5.1,1.5c-1.8,0-3.4-0.4-4.7-1.2c-1.3-0.8-2.3-2-3-3.5c-0.7-1.5-1.1-3.2-1.1-5.1
				c0-1.9,0.3-3.6,1-5s1.7-2.6,3-3.4c1.3-0.8,2.9-1.2,4.7-1.2c1.7,0,3.2,0.4,4.5,1.1c1.3,0.7,2.3,1.8,3,3.2c0.7,1.4,1,3,1,5V114.5z
				 M635.9,108.1c-1,0.9-1.5,2.3-1.7,4H645c-0.2-1.8-0.8-3.1-1.7-4c-0.9-0.9-2.1-1.4-3.7-1.4S636.8,107.2,635.9,108.1z M640.2,100.9
				h-2.9l3.2-5.6h4.5L640.2,100.9z"/>
			<path class="st0" d="M662.6,104v3.2c-0.3,0-0.7,0-1.2,0c-0.8,0-1.7,0.2-2.5,0.6c-0.8,0.4-1.5,1.1-2,1.9s-0.8,1.9-0.9,3.1V123
				h-3.3v-18.6h3.1v3.6c1.2-2.7,3.1-4.1,5.7-4.1C661.8,103.9,662.1,103.9,662.6,104z"/>
			<path class="st0" d="M669.3,100.9H666v-3.6h3.3V100.9z M669.3,123H666v-18.6h3.3V123z"/>
			<path class="st0" d="M678.2,122.2c-1.4-0.8-2.4-2-3.2-3.4c-0.7-1.5-1.1-3.2-1.1-5.1c0-2,0.4-3.7,1.1-5.2c0.8-1.5,1.8-2.6,3.2-3.4
				s2.9-1.2,4.7-1.2c1.7,0,3.3,0.4,4.6,1.2c1.3,0.8,2.4,1.9,3.1,3.3c0.8,1.5,1.1,3.2,1.1,5.1c0,1.9-0.4,3.6-1.2,5.1
				c-0.8,1.5-1.8,2.7-3.2,3.5c-1.4,0.8-2.9,1.3-4.6,1.3C681.1,123.5,679.6,123.1,678.2,122.2z M685.9,119.8c0.9-0.6,1.5-1.4,1.9-2.5
				c0.4-1.1,0.7-2.3,0.7-3.7c0-1.4-0.2-2.6-0.7-3.6c-0.4-1-1.1-1.8-1.9-2.4c-0.9-0.6-1.9-0.8-3-0.8c-1.2,0-2.2,0.3-3,0.9
				s-1.5,1.4-1.9,2.4c-0.4,1.1-0.7,2.3-0.7,3.7c0,1.4,0.2,2.6,0.7,3.7c0.5,1.1,1.1,1.9,1.9,2.4c0.8,0.6,1.8,0.9,3,0.9
				C684.1,120.7,685.1,120.4,685.9,119.8z"/>
			<path class="st0" d="M709.1,97.4h3.3V123h-2.9v-3c-0.6,1-1.4,1.8-2.4,2.4c-1,0.6-2.2,0.9-3.5,0.9c-1.7,0-3.1-0.4-4.3-1.3
				s-2.2-2-2.8-3.5c-0.6-1.5-1-3.2-1-5.1c0-1.8,0.3-3.5,1-4.9c0.7-1.4,1.6-2.5,2.8-3.3s2.6-1.2,4.2-1.2c1.2,0,2.3,0.2,3.3,0.7
				c1,0.5,1.8,1.1,2.4,1.9V97.4z M706.7,119.7c0.8-0.6,1.5-1.4,1.9-2.4c0.5-1.1,0.7-2.3,0.7-3.8c0-1.4-0.2-2.6-0.7-3.6
				c-0.5-1-1.1-1.7-1.9-2.2s-1.7-0.8-2.8-0.8c-1.6,0-2.9,0.6-3.8,1.7c-0.9,1.1-1.4,2.7-1.4,4.9c0,1.4,0.2,2.7,0.6,3.8
				c0.4,1.1,1,1.9,1.8,2.5c0.8,0.6,1.7,0.9,2.7,0.9C704.9,120.6,705.8,120.3,706.7,119.7z"/>
			<path class="st0" d="M734.3,114.5h-13.9c0,2,0.6,3.6,1.6,4.6c1,1.1,2.3,1.6,4,1.6c1.3,0,2.3-0.3,3.2-0.9s1.5-1.4,1.9-2.5l3,0.4
				c-0.6,1.8-1.6,3.2-3,4.2s-3.1,1.5-5.1,1.5c-1.8,0-3.4-0.4-4.7-1.2c-1.3-0.8-2.3-2-3-3.5c-0.7-1.5-1.1-3.2-1.1-5.1
				c0-1.9,0.3-3.6,1-5s1.7-2.6,3-3.4c1.3-0.8,2.9-1.2,4.7-1.2c1.7,0,3.2,0.4,4.5,1.1c1.3,0.7,2.3,1.8,3,3.2c0.7,1.4,1,3,1,5V114.5z
				 M722.2,108.1c-1,0.9-1.5,2.3-1.7,4h10.8c-0.2-1.8-0.8-3.1-1.7-4c-0.9-0.9-2.1-1.4-3.7-1.4S723.1,107.2,722.2,108.1z"/>
			<path class="st0" d="M761.3,97.4h3.3V123h-2.9v-3c-0.6,1-1.4,1.8-2.4,2.4c-1,0.6-2.2,0.9-3.5,0.9c-1.7,0-3.1-0.4-4.3-1.3
				s-2.2-2-2.8-3.5c-0.6-1.5-1-3.2-1-5.1c0-1.8,0.3-3.5,1-4.9c0.7-1.4,1.6-2.5,2.8-3.3s2.6-1.2,4.2-1.2c1.2,0,2.3,0.2,3.3,0.7
				c1,0.5,1.8,1.1,2.4,1.9V97.4z M758.9,119.7c0.8-0.6,1.5-1.4,1.9-2.4c0.5-1.1,0.7-2.3,0.7-3.8c0-1.4-0.2-2.6-0.7-3.6
				c-0.5-1-1.1-1.7-1.9-2.2s-1.7-0.8-2.8-0.8c-1.6,0-2.9,0.6-3.8,1.7c-0.9,1.1-1.4,2.7-1.4,4.9c0,1.4,0.2,2.7,0.6,3.8
				c0.4,1.1,1,1.9,1.8,2.5c0.8,0.6,1.7,0.9,2.7,0.9C757.1,120.6,758,120.3,758.9,119.7z"/>
			<path class="st0" d="M786.5,114.5h-13.9c0,2,0.6,3.6,1.6,4.6c1,1.1,2.3,1.6,4,1.6c1.3,0,2.3-0.3,3.2-0.9s1.5-1.4,1.9-2.5l3,0.4
				c-0.6,1.8-1.6,3.2-3,4.2s-3.1,1.5-5.1,1.5c-1.8,0-3.4-0.4-4.7-1.2c-1.3-0.8-2.3-2-3-3.5c-0.7-1.5-1.1-3.2-1.1-5.1
				c0-1.9,0.3-3.6,1-5s1.7-2.6,3-3.4c1.3-0.8,2.9-1.2,4.7-1.2c1.7,0,3.2,0.4,4.5,1.1c1.3,0.7,2.3,1.8,3,3.2c0.7,1.4,1,3,1,5V114.5z
				 M774.4,108.1c-1,0.9-1.5,2.3-1.7,4h10.8c-0.2-1.8-0.8-3.1-1.7-4c-0.9-0.9-2.1-1.4-3.7-1.4S775.3,107.2,774.4,108.1z"/>
			<path class="st0" d="M814.1,105.2c1.2,0.8,2.2,1.8,2.8,3.2c0.7,1.4,1,3,1,4.9c0,1.9-0.3,3.6-1,5.2c-0.7,1.5-1.6,2.7-2.8,3.6
				s-2.7,1.3-4.3,1.3c-1.2,0-2.2-0.2-3.2-0.7c-0.9-0.5-1.7-1.1-2.4-1.9v9.6h-3.3v-25.9h2.9v3c0.6-1,1.4-1.9,2.4-2.5
				c1.1-0.6,2.3-0.9,3.6-0.9C811.5,104,812.8,104.4,814.1,105.2z M812.2,119.6c0.8-0.6,1.4-1.5,1.8-2.6s0.6-2.4,0.6-3.8
				c0-2.1-0.5-3.7-1.4-4.8c-0.9-1.1-2.2-1.6-3.8-1.6c-1.1,0-2,0.3-2.8,0.8c-0.8,0.5-1.4,1.3-1.9,2.2c-0.5,1-0.7,2.2-0.7,3.6
				c0,1.4,0.2,2.7,0.7,3.8c0.5,1.1,1.1,1.9,1.9,2.4c0.8,0.6,1.7,0.8,2.8,0.8C810.5,120.6,811.4,120.2,812.2,119.6z"/>
			<path class="st0" d="M825.8,122.2c-1.4-0.8-2.4-2-3.2-3.4c-0.7-1.5-1.1-3.2-1.1-5.1c0-2,0.4-3.7,1.1-5.2c0.8-1.5,1.8-2.6,3.2-3.4
				s2.9-1.2,4.7-1.2c1.7,0,3.3,0.4,4.6,1.2c1.3,0.8,2.4,1.9,3.1,3.3c0.8,1.5,1.1,3.2,1.1,5.1c0,1.9-0.4,3.6-1.2,5.1
				c-0.8,1.5-1.8,2.7-3.2,3.5c-1.4,0.8-2.9,1.3-4.6,1.3C828.7,123.5,827.1,123.1,825.8,122.2z M833.5,119.8c0.9-0.6,1.5-1.4,1.9-2.5
				c0.4-1.1,0.7-2.3,0.7-3.7c0-1.4-0.2-2.6-0.7-3.6c-0.4-1-1.1-1.8-1.9-2.4c-0.9-0.6-1.9-0.8-3-0.8c-1.2,0-2.2,0.3-3,0.9
				s-1.5,1.4-1.9,2.4c-0.4,1.1-0.7,2.3-0.7,3.7c0,1.4,0.2,2.6,0.7,3.7c0.5,1.1,1.1,1.9,1.9,2.4c0.8,0.6,1.8,0.9,3,0.9
				C831.6,120.7,832.6,120.4,833.5,119.8z"/>
			<path class="st0" d="M847.4,123h-3.3V97.4h3.3V123z"/>
			<path class="st0" d="M856.4,100.9h-3.3v-3.6h3.3V100.9z M856.4,123h-3.3v-18.6h3.3V123z"/>
			<path class="st0" d="M865.2,122.4c-1.3-0.7-2.3-1.8-3-3.3c-0.7-1.5-1.1-3.2-1.1-5.2c0-2.1,0.4-3.8,1.1-5.3s1.7-2.6,3.1-3.4
				c1.3-0.8,2.9-1.2,4.6-1.2c2.2,0,3.9,0.6,5.3,1.7s2.2,2.7,2.5,4.9h-3.1c-0.5-2.5-2.1-3.8-4.7-3.8c-1.8,0-3.2,0.6-4.1,1.8
				c-0.9,1.2-1.4,2.9-1.4,5.2c0,2.2,0.5,3.9,1.4,5.1c0.9,1.2,2.3,1.8,4,1.8c1.3,0,2.4-0.4,3.2-1.1c0.8-0.7,1.3-1.8,1.6-3.1h3.1
				c-0.3,2.2-1.2,3.9-2.5,5.1c-1.4,1.2-3.2,1.8-5.5,1.8C868,123.5,866.5,123.1,865.2,122.4z"/>
			<path class="st0" d="M898.4,114.5h-13.9c0,2,0.6,3.6,1.6,4.6c1,1.1,2.3,1.6,4,1.6c1.3,0,2.3-0.3,3.2-0.9s1.5-1.4,1.9-2.5l3,0.4
				c-0.6,1.8-1.6,3.2-3,4.2s-3.1,1.5-5.1,1.5c-1.8,0-3.4-0.4-4.7-1.2c-1.3-0.8-2.3-2-3-3.5c-0.7-1.5-1.1-3.2-1.1-5.1
				c0-1.9,0.3-3.6,1-5s1.7-2.6,3-3.4c1.3-0.8,2.9-1.2,4.7-1.2c1.7,0,3.2,0.4,4.5,1.1c1.3,0.7,2.3,1.8,3,3.2c0.7,1.4,1,3,1,5V114.5z
				 M886.2,108.1c-1,0.9-1.5,2.3-1.7,4h10.8c-0.2-1.8-0.8-3.1-1.7-4c-0.9-0.9-2.1-1.4-3.7-1.4S887.2,107.2,886.2,108.1z"/>
			<path class="st0" d="M906.3,123h-4.1v-3.6h4.1V123z"/>
		</g>
	</g>
</g>
<polygon class="st0" points="141.2,122.7 -21.6,122.7 -21.6,15.7 141.2,15.7 177.7,73.2 "/>
</svg>
