<?xml version="1.0" encoding="utf-8"?>
<!-- Generator: Adobe Illustrator 26.0.1, SVG Export Plug-In . SVG Version: 6.00 Build 0)  -->
<svg version="1.1" id="Layer_1" xmlns="http://www.w3.org/2000/svg" xmlns:xlink="http://www.w3.org/1999/xlink" x="0px" y="0px"
	 viewBox="0 0 540 165.5" style="enable-background:new 0 0 540 165.5;" xml:space="preserve">
<style type="text/css">
	.Drop_x0020_Shadow{fill:none;}
	.Outer_x0020_Glow_x0020_5_x0020_pt{fill:none;}
	.Jive_GS{fill:#A5CFE3;}
	.st0{fill:#E11B22;}
</style>
<g>
	<g>
		<g>
			<path class="st0" d="M143.3,42.6v15.1h8.9v1.9H141V42.6H143.3z"/>
			<path class="st0" d="M156.3,59.2c-0.9-0.5-1.6-1.3-2.1-2.3c-0.5-1-0.7-2.1-0.7-3.4c0-1.3,0.3-2.5,0.8-3.4c0.5-1,1.2-1.7,2.1-2.3
				c0.9-0.5,2-0.8,3.1-0.8c1.2,0,2.2,0.3,3.1,0.8c0.9,0.5,1.6,1.3,2.1,2.2c0.5,1,0.8,2.1,0.8,3.4c0,1.3-0.3,2.4-0.8,3.4
				c-0.5,1-1.2,1.8-2.1,2.3c-0.9,0.6-1.9,0.8-3.1,0.8C158.3,60,157.2,59.7,156.3,59.2z M161.5,57.6c0.6-0.4,1-1,1.3-1.7
				s0.4-1.5,0.4-2.5c0-0.9-0.1-1.7-0.4-2.4c-0.3-0.7-0.7-1.2-1.3-1.6c-0.6-0.4-1.2-0.6-2-0.6c-0.8,0-1.4,0.2-2,0.6
				c-0.6,0.4-1,0.9-1.3,1.6s-0.4,1.5-0.4,2.4c0,0.9,0.2,1.7,0.5,2.4c0.3,0.7,0.7,1.2,1.3,1.6c0.6,0.4,1.2,0.6,2,0.6
				C160.2,58.2,160.9,58,161.5,57.6z"/>
			<path class="st0" d="M175.1,47v2.1c-0.2,0-0.5,0-0.8,0c-0.6,0-1.1,0.1-1.6,0.4s-1,0.7-1.3,1.3c-0.4,0.6-0.5,1.3-0.6,2.1v6.8h-2.2
				V47.3h2.1v2.4c0.8-1.8,2.1-2.7,3.8-2.7C174.6,47,174.8,47,175.1,47z"/>
			<path class="st0" d="M177.9,59c-0.9-0.7-1.4-1.7-1.5-3.1l2.1-0.1c0.1,0.8,0.4,1.5,0.9,1.9c0.5,0.4,1.2,0.6,2.2,0.6
				c1,0,1.7-0.2,2.2-0.5c0.5-0.3,0.8-0.8,0.8-1.4c0-0.5-0.2-0.9-0.5-1.2c-0.3-0.3-0.8-0.5-1.5-0.6l-2.5-0.5
				c-1.2-0.3-2.1-0.7-2.6-1.2c-0.6-0.6-0.8-1.3-0.8-2.1c0-0.7,0.2-1.3,0.5-1.9c0.3-0.5,0.9-1,1.6-1.2c0.7-0.3,1.5-0.4,2.5-0.4
				c1.4,0,2.6,0.3,3.5,0.9s1.4,1.6,1.6,2.8l-2.2,0.1c-0.1-0.7-0.4-1.3-0.9-1.6c-0.5-0.4-1.2-0.5-2-0.5c-0.8,0-1.4,0.1-1.8,0.4
				c-0.4,0.3-0.6,0.7-0.6,1.2c0,0.4,0.1,0.8,0.4,1s0.8,0.5,1.5,0.6l2.4,0.5c1.3,0.3,2.2,0.7,2.8,1.3c0.6,0.6,0.9,1.3,0.9,2.2
				c0,0.8-0.2,1.5-0.6,2.1s-1,1-1.8,1.4c-0.8,0.3-1.7,0.5-2.8,0.5C180,60,178.8,59.7,177.9,59z"/>
			<path class="st0" d="M198.1,47.3h1.9v17.3h-2.2v-6.4c-0.4,0.6-0.9,1-1.6,1.3c-0.6,0.3-1.4,0.5-2.1,0.5c-1.1,0-2.1-0.3-2.9-0.9
				c-0.8-0.6-1.4-1.4-1.9-2.4c-0.4-1-0.6-2.2-0.6-3.4c0-1.2,0.2-2.3,0.7-3.3c0.5-1,1.1-1.7,1.9-2.2c0.8-0.5,1.7-0.8,2.8-0.8
				c0.9,0,1.7,0.2,2.4,0.6c0.7,0.4,1.3,0.9,1.6,1.6V47.3z M196.2,57.5c0.5-0.4,1-0.9,1.3-1.6c0.3-0.7,0.5-1.5,0.5-2.5
				c0-0.9-0.2-1.7-0.5-2.4s-0.7-1.2-1.2-1.5s-1.1-0.5-1.8-0.5c-1.1,0-1.9,0.4-2.5,1.1c-0.6,0.8-0.9,1.8-0.9,3.2c0,1,0.1,1.8,0.4,2.5
				c0.3,0.7,0.7,1.3,1.2,1.7c0.5,0.4,1.1,0.6,1.8,0.6C195.1,58.1,195.7,57.9,196.2,57.5z"/>
			<path class="st0" d="M212.1,47.3h2.2v12.4h-2.1V58c-0.4,0.7-1,1.2-1.7,1.5c-0.7,0.4-1.5,0.5-2.4,0.5c-0.9,0-1.6-0.2-2.2-0.5
				s-1.1-0.8-1.5-1.4c-0.3-0.6-0.5-1.4-0.5-2.2v-8.6h2.2v8.2c0,1.7,0.8,2.6,2.5,2.6c0.6,0,1.2-0.1,1.7-0.4c0.5-0.2,1-0.7,1.3-1.2
				s0.5-1.3,0.5-2.3V47.3z"/>
			<path class="st0" d="M228.9,54h-9.3c0,1.4,0.4,2.4,1,3.1c0.7,0.7,1.6,1.1,2.7,1.1c0.8,0,1.5-0.2,2.1-0.6s1-0.9,1.3-1.7l2,0.2
				c-0.4,1.2-1.1,2.2-2,2.8s-2.1,1-3.4,1c-1.2,0-2.3-0.3-3.1-0.8s-1.6-1.3-2-2.3c-0.5-1-0.7-2.1-0.7-3.4c0-1.3,0.2-2.4,0.7-3.3
				c0.5-1,1.1-1.7,2-2.3c0.9-0.5,1.9-0.8,3.1-0.8c1.2,0,2.2,0.2,3,0.7c0.9,0.5,1.5,1.2,2,2.1s0.7,2,0.7,3.3V54z M220.8,49.8
				c-0.6,0.6-1,1.5-1.1,2.7h7.2c-0.1-1.2-0.5-2.1-1.1-2.7c-0.6-0.6-1.4-0.9-2.4-0.9C222.3,48.8,221.5,49.1,220.8,49.8z"/>
			<path class="st0" d="M240.7,59.7h-2.2V42.6h2.2V59.7z"/>
			<path class="st0" d="M243.7,42.6h2.6v3.8c0,1.7-0.8,2.6-2.4,2.6h-0.2v-1.2h0.2c0.8,0,1.1-0.4,1.1-1.1V45h-1.4V42.6z"/>
			<path class="st0" d="M260.8,58.1v1.6h-1.2c-1.3,0-2-0.6-2.1-1.8c-0.4,0.6-1,1.2-1.8,1.5c-0.8,0.4-1.7,0.6-2.7,0.6
				c-0.8,0-1.6-0.1-2.2-0.4c-0.6-0.3-1.1-0.7-1.5-1.2c-0.3-0.5-0.5-1.2-0.5-1.9c0-1.1,0.3-1.9,1-2.6c0.7-0.7,1.7-1.1,3.2-1.3
				l3.2-0.4c0.3,0,0.5-0.1,0.7-0.3c0.1-0.2,0.2-0.4,0.2-0.7v-0.5c0-0.7-0.2-1.1-0.7-1.5c-0.4-0.3-1.2-0.5-2.1-0.5
				c-0.9,0-1.6,0.2-2,0.5c-0.4,0.3-0.7,0.9-0.8,1.7h-2.2c0.1-1.4,0.6-2.4,1.5-3s2.1-1,3.7-1c1.6,0,2.8,0.3,3.6,1
				c0.8,0.7,1.2,1.6,1.2,3v6c0,0.4,0.1,0.7,0.2,0.8s0.4,0.2,0.8,0.2H260.8z M255.2,57.9c0.6-0.3,1-0.6,1.4-1.1s0.5-0.9,0.5-1.5v-1.7
				l-3.7,0.6c-0.8,0.1-1.4,0.4-1.8,0.7s-0.6,0.8-0.6,1.4c0,0.6,0.2,1.1,0.6,1.5c0.4,0.4,1,0.5,1.7,0.5
				C254,58.3,254.6,58.2,255.2,57.9z"/>
			<path class="st0" d="M263.7,59c-0.9-0.7-1.4-1.7-1.5-3.1l2.1-0.1c0.1,0.8,0.4,1.5,0.9,1.9c0.5,0.4,1.2,0.6,2.2,0.6
				c1,0,1.7-0.2,2.2-0.5c0.5-0.3,0.8-0.8,0.8-1.4c0-0.5-0.2-0.9-0.5-1.2c-0.3-0.3-0.8-0.5-1.5-0.6l-2.5-0.5
				c-1.2-0.3-2.1-0.7-2.6-1.2c-0.6-0.6-0.8-1.3-0.8-2.1c0-0.7,0.2-1.3,0.5-1.9c0.3-0.5,0.9-1,1.6-1.2c0.7-0.3,1.5-0.4,2.5-0.4
				c1.4,0,2.6,0.3,3.5,0.9s1.4,1.6,1.6,2.8l-2.2,0.1c-0.1-0.7-0.4-1.3-0.9-1.6c-0.5-0.4-1.2-0.5-2-0.5c-0.8,0-1.4,0.1-1.8,0.4
				c-0.4,0.3-0.6,0.7-0.6,1.2c0,0.4,0.1,0.8,0.4,1s0.8,0.5,1.5,0.6l2.4,0.5c1.3,0.3,2.2,0.7,2.8,1.3c0.6,0.6,0.9,1.3,0.9,2.2
				c0,0.8-0.2,1.5-0.6,2.1s-1,1-1.8,1.4c-0.8,0.3-1.7,0.5-2.8,0.5C265.8,60,264.6,59.7,263.7,59z"/>
			<path class="st0" d="M275.8,59c-0.9-0.7-1.4-1.7-1.5-3.1l2.1-0.1c0.1,0.8,0.4,1.5,0.9,1.9c0.5,0.4,1.2,0.6,2.2,0.6
				c1,0,1.7-0.2,2.2-0.5c0.5-0.3,0.8-0.8,0.8-1.4c0-0.5-0.2-0.9-0.5-1.2c-0.3-0.3-0.8-0.5-1.5-0.6l-2.5-0.5
				c-1.2-0.3-2.1-0.7-2.6-1.2c-0.6-0.6-0.8-1.3-0.8-2.1c0-0.7,0.2-1.3,0.5-1.9c0.3-0.5,0.9-1,1.6-1.2c0.7-0.3,1.5-0.4,2.5-0.4
				c1.4,0,2.6,0.3,3.5,0.9s1.4,1.6,1.6,2.8l-2.2,0.1c-0.1-0.7-0.4-1.3-0.9-1.6c-0.5-0.4-1.2-0.5-2-0.5c-0.8,0-1.4,0.1-1.8,0.4
				c-0.4,0.3-0.6,0.7-0.6,1.2c0,0.4,0.1,0.8,0.4,1s0.8,0.5,1.5,0.6l2.4,0.5c1.3,0.3,2.2,0.7,2.8,1.3c0.6,0.6,0.9,1.3,0.9,2.2
				c0,0.8-0.2,1.5-0.6,2.1s-1,1-1.8,1.4c-0.8,0.3-1.7,0.5-2.8,0.5C277.9,60,276.7,59.7,275.8,59z"/>
			<path class="st0" d="M295.6,47.3h2.2v12.4h-2.1V58c-0.4,0.7-1,1.2-1.7,1.5c-0.7,0.4-1.5,0.5-2.4,0.5c-0.9,0-1.6-0.2-2.2-0.5
				s-1.1-0.8-1.5-1.4c-0.3-0.6-0.5-1.4-0.5-2.2v-8.6h2.2v8.2c0,1.7,0.8,2.6,2.5,2.6c0.6,0,1.2-0.1,1.7-0.4c0.5-0.2,1-0.7,1.3-1.2
				s0.5-1.3,0.5-2.3V47.3z"/>
			<path class="st0" d="M308.2,47v2.1c-0.2,0-0.5,0-0.8,0c-0.6,0-1.1,0.1-1.6,0.4s-1,0.7-1.3,1.3c-0.4,0.6-0.5,1.3-0.6,2.1v6.8h-2.2
				V47.3h2.1v2.4c0.8-1.8,2.1-2.7,3.8-2.7C307.7,47,307.9,47,308.2,47z"/>
			<path class="st0" d="M321.3,54H312c0,1.4,0.4,2.4,1,3.1c0.7,0.7,1.6,1.1,2.7,1.1c0.8,0,1.5-0.2,2.1-0.6s1-0.9,1.3-1.7l2,0.2
				c-0.4,1.2-1.1,2.2-2,2.8s-2.1,1-3.4,1c-1.2,0-2.3-0.3-3.1-0.8s-1.6-1.3-2-2.3c-0.5-1-0.7-2.1-0.7-3.4c0-1.3,0.2-2.4,0.7-3.3
				c0.5-1,1.1-1.7,2-2.3c0.9-0.5,1.9-0.8,3.1-0.8c1.2,0,2.2,0.2,3,0.7c0.9,0.5,1.5,1.2,2,2.1s0.7,2,0.7,3.3V54z M313.1,49.8
				c-0.6,0.6-1,1.5-1.1,2.7h7.2c-0.1-1.2-0.5-2.1-1.1-2.7c-0.6-0.6-1.4-0.9-2.4-0.9C314.6,48.8,313.8,49.1,313.1,49.8z M316,45h-1.9
				l2.1-3.7h3L316,45z"/>
			<path class="st0" d="M342.1,58.1v1.6H341c-1.3,0-2-0.6-2.1-1.8c-0.4,0.6-1,1.2-1.8,1.5c-0.8,0.4-1.7,0.6-2.7,0.6
				c-0.8,0-1.6-0.1-2.2-0.4c-0.6-0.3-1.1-0.7-1.5-1.2c-0.3-0.5-0.5-1.2-0.5-1.9c0-1.1,0.3-1.9,1-2.6c0.7-0.7,1.7-1.1,3.2-1.3
				l3.2-0.4c0.3,0,0.5-0.1,0.7-0.3c0.1-0.2,0.2-0.4,0.2-0.7v-0.5c0-0.7-0.2-1.1-0.7-1.5c-0.4-0.3-1.2-0.5-2.1-0.5
				c-0.9,0-1.6,0.2-2,0.5c-0.4,0.3-0.7,0.9-0.8,1.7h-2.2c0.1-1.4,0.6-2.4,1.5-3s2.1-1,3.7-1c1.6,0,2.8,0.3,3.6,1
				c0.8,0.7,1.2,1.6,1.2,3v6c0,0.4,0.1,0.7,0.2,0.8s0.4,0.2,0.8,0.2H342.1z M336.6,57.9c0.6-0.3,1-0.6,1.4-1.1s0.5-0.9,0.5-1.5v-1.7
				l-3.7,0.6c-0.8,0.1-1.4,0.4-1.8,0.7s-0.6,0.8-0.6,1.4c0,0.6,0.2,1.1,0.6,1.5c0.4,0.4,1,0.5,1.7,0.5
				C335.4,58.3,336,58.2,336.6,57.9z"/>
			<path class="st0" d="M349.7,54.5l2.4-7.2h2.2l-4.5,12.4h-2.2l-4.8-12.4h2.4l2.5,7.2l1,3.3L349.7,54.5z"/>
			<path class="st0" d="M359.1,45h-2.2v-2.4h2.2V45z M359.1,59.7h-2.2V47.3h2.2V59.7z"/>
			<path class="st0" d="M363.4,59c-0.9-0.7-1.4-1.7-1.5-3.1l2.1-0.1c0.1,0.8,0.4,1.5,0.9,1.9c0.5,0.4,1.2,0.6,2.2,0.6
				c1,0,1.7-0.2,2.2-0.5c0.5-0.3,0.8-0.8,0.8-1.4c0-0.5-0.2-0.9-0.5-1.2c-0.3-0.3-0.8-0.5-1.5-0.6l-2.5-0.5
				c-1.2-0.3-2.1-0.7-2.6-1.2c-0.6-0.6-0.8-1.3-0.8-2.1c0-0.7,0.2-1.3,0.5-1.9c0.3-0.5,0.9-1,1.6-1.2c0.7-0.3,1.5-0.4,2.5-0.4
				c1.4,0,2.6,0.3,3.5,0.9s1.4,1.6,1.6,2.8l-2.2,0.1c-0.1-0.7-0.4-1.3-0.9-1.6c-0.5-0.4-1.2-0.5-2-0.5c-0.8,0-1.4,0.1-1.8,0.4
				c-0.4,0.3-0.6,0.7-0.6,1.2c0,0.4,0.1,0.8,0.4,1s0.8,0.5,1.5,0.6l2.4,0.5c1.3,0.3,2.2,0.7,2.8,1.3c0.6,0.6,0.9,1.3,0.9,2.2
				c0,0.8-0.2,1.5-0.6,2.1s-1,1-1.8,1.4c-0.8,0.3-1.7,0.5-2.8,0.5C365.5,60,364.3,59.7,363.4,59z"/>
			<path class="st0" d="M385.8,54h-9.3c0,1.4,0.4,2.4,1,3.1c0.7,0.7,1.6,1.1,2.7,1.1c0.8,0,1.5-0.2,2.1-0.6s1-0.9,1.3-1.7l2,0.2
				c-0.4,1.2-1.1,2.2-2,2.8s-2.1,1-3.4,1c-1.2,0-2.3-0.3-3.1-0.8s-1.6-1.3-2-2.3c-0.5-1-0.7-2.1-0.7-3.4c0-1.3,0.2-2.4,0.7-3.3
				c0.5-1,1.1-1.7,2-2.3c0.9-0.5,1.9-0.8,3.1-0.8c1.2,0,2.2,0.2,3,0.7c0.9,0.5,1.5,1.2,2,2.1s0.7,2,0.7,3.3V54z M377.7,49.8
				c-0.6,0.6-1,1.5-1.1,2.7h7.2c-0.1-1.2-0.5-2.1-1.1-2.7c-0.6-0.6-1.4-0.9-2.4-0.9C379.1,48.8,378.3,49.1,377.7,49.8z"/>
			<path class="st0" d="M403.8,42.6h2.2v17.1h-1.9v-2c-0.4,0.7-0.9,1.2-1.6,1.6c-0.7,0.4-1.5,0.6-2.4,0.6c-1.1,0-2.1-0.3-2.9-0.9
				c-0.8-0.6-1.4-1.4-1.9-2.4c-0.4-1-0.6-2.2-0.6-3.4c0-1.2,0.2-2.3,0.7-3.3c0.5-1,1.1-1.7,1.9-2.2c0.8-0.5,1.7-0.8,2.8-0.8
				c0.8,0,1.5,0.2,2.2,0.5c0.6,0.3,1.2,0.7,1.6,1.3V42.6z M402.1,57.5c0.5-0.4,1-0.9,1.3-1.6c0.3-0.7,0.5-1.5,0.5-2.5
				c0-0.9-0.2-1.7-0.5-2.4s-0.7-1.2-1.2-1.5S401,49,400.3,49c-1.1,0-1.9,0.4-2.5,1.1c-0.6,0.8-0.9,1.8-0.9,3.2c0,1,0.1,1.8,0.4,2.5
				c0.3,0.7,0.7,1.3,1.2,1.7c0.5,0.4,1.1,0.6,1.8,0.6C401,58.1,401.6,57.9,402.1,57.5z"/>
			<path class="st0" d="M408.9,42.6h2.6v3.8c0,1.7-0.8,2.6-2.4,2.6h-0.2v-1.2h0.2c0.8,0,1.1-0.4,1.1-1.1V45h-1.4V42.6z"/>
			<path class="st0" d="M422.9,47.3h2.2v12.4h-2.1V58c-0.4,0.7-1,1.2-1.7,1.5c-0.7,0.4-1.5,0.5-2.4,0.5c-0.9,0-1.6-0.2-2.2-0.5
				s-1.1-0.8-1.5-1.4c-0.3-0.6-0.5-1.4-0.5-2.2v-8.6h2.2v8.2c0,1.7,0.8,2.6,2.5,2.6c0.6,0,1.2-0.1,1.7-0.4c0.5-0.2,1-0.7,1.3-1.2
				s0.5-1.3,0.5-2.3V47.3z"/>
			<path class="st0" d="M437.4,47.5c0.6,0.3,1.1,0.8,1.5,1.4c0.3,0.6,0.5,1.4,0.5,2.2v8.6h-2.2v-8.2c0-1.7-0.8-2.6-2.5-2.6
				c-0.6,0-1.2,0.1-1.7,0.4c-0.5,0.2-1,0.7-1.3,1.2c-0.3,0.6-0.5,1.3-0.5,2.3v6.9H429V47.3h2.1v1.8c0.4-0.7,1-1.2,1.7-1.5
				c0.7-0.4,1.5-0.5,2.4-0.5C436,47,436.8,47.2,437.4,47.5z"/>
			<path class="st0" d="M454,54h-9.3c0,1.4,0.4,2.4,1,3.1c0.7,0.7,1.6,1.1,2.7,1.1c0.8,0,1.5-0.2,2.1-0.6s1-0.9,1.3-1.7l2,0.2
				c-0.4,1.2-1.1,2.2-2,2.8s-2.1,1-3.4,1c-1.2,0-2.3-0.3-3.1-0.8s-1.6-1.3-2-2.3c-0.5-1-0.7-2.1-0.7-3.4c0-1.3,0.2-2.4,0.7-3.3
				c0.5-1,1.1-1.7,2-2.3c0.9-0.5,1.9-0.8,3.1-0.8c1.2,0,2.2,0.2,3,0.7c0.9,0.5,1.5,1.2,2,2.1s0.7,2,0.7,3.3V54z M445.9,49.8
				c-0.6,0.6-1,1.5-1.1,2.7h7.2c-0.1-1.2-0.5-2.1-1.1-2.7c-0.6-0.6-1.4-0.9-2.4-0.9C447.3,48.8,446.5,49.1,445.9,49.8z"/>
			<path class="st0" d="M142.9,88.1c-0.9-0.5-1.5-1.2-2-2.2c-0.5-1-0.7-2.1-0.7-3.5c0-1.4,0.2-2.6,0.7-3.6c0.5-1,1.2-1.7,2-2.3
				c0.9-0.5,1.9-0.8,3.1-0.8c1.4,0,2.6,0.4,3.5,1.1c0.9,0.8,1.5,1.8,1.7,3.2h-2.1c-0.3-1.7-1.4-2.5-3.1-2.5c-1.2,0-2.2,0.4-2.8,1.2
				c-0.6,0.8-0.9,2-0.9,3.4c0,1.5,0.3,2.6,0.9,3.4c0.6,0.8,1.5,1.2,2.7,1.2c0.9,0,1.6-0.2,2.1-0.7c0.5-0.5,0.9-1.2,1-2.1h2.1
				c-0.2,1.5-0.8,2.6-1.7,3.4c-0.9,0.8-2.1,1.2-3.7,1.2C144.8,88.8,143.8,88.6,142.9,88.1z"/>
			<path class="st0" d="M156.5,73.8h-2.2v-2.4h2.2V73.8z M156.5,88.5h-2.2V76.1h2.2V88.5z"/>
			<path class="st0" d="M166.9,75.8V78c-0.2,0-0.5,0-0.8,0c-0.6,0-1.1,0.1-1.6,0.4s-1,0.7-1.3,1.3c-0.4,0.6-0.5,1.3-0.6,2.1v6.8
				h-2.2V76.1h2.1v2.4c0.8-1.8,2.1-2.7,3.8-2.7C166.4,75.8,166.6,75.8,166.9,75.8z"/>
			<path class="st0" d="M171.1,88.1c-0.9-0.5-1.5-1.2-2-2.2c-0.5-1-0.7-2.1-0.7-3.5c0-1.4,0.2-2.6,0.7-3.6c0.5-1,1.2-1.7,2-2.3
				c0.9-0.5,1.9-0.8,3.1-0.8c1.4,0,2.6,0.4,3.5,1.1c0.9,0.8,1.5,1.8,1.7,3.2h-2.1c-0.3-1.7-1.4-2.5-3.1-2.5c-1.2,0-2.2,0.4-2.8,1.2
				c-0.6,0.8-0.9,2-0.9,3.4c0,1.5,0.3,2.6,0.9,3.4c0.6,0.8,1.5,1.2,2.7,1.2c0.9,0,1.6-0.2,2.1-0.7c0.5-0.5,0.9-1.2,1-2.1h2.1
				c-0.2,1.5-0.8,2.6-1.7,3.4c-0.9,0.8-2.1,1.2-3.7,1.2C173,88.8,172,88.6,171.1,88.1z"/>
			<path class="st0" d="M184.6,88c-0.9-0.5-1.6-1.3-2.1-2.3c-0.5-1-0.7-2.1-0.7-3.4c0-1.3,0.3-2.5,0.8-3.4c0.5-1,1.2-1.7,2.1-2.3
				c0.9-0.5,2-0.8,3.1-0.8c1.2,0,2.2,0.3,3.1,0.8c0.9,0.5,1.6,1.3,2.1,2.2c0.5,1,0.8,2.1,0.8,3.4c0,1.3-0.3,2.4-0.8,3.4
				c-0.5,1-1.2,1.8-2.1,2.3c-0.9,0.6-1.9,0.8-3.1,0.8C186.6,88.8,185.5,88.5,184.6,88z M189.8,86.4c0.6-0.4,1-1,1.3-1.7
				s0.4-1.5,0.4-2.5c0-0.9-0.1-1.7-0.4-2.4c-0.3-0.7-0.7-1.2-1.3-1.6c-0.6-0.4-1.2-0.6-2-0.6c-0.8,0-1.4,0.2-2,0.6
				c-0.6,0.4-1,0.9-1.3,1.6s-0.4,1.5-0.4,2.4c0,0.9,0.2,1.7,0.5,2.4c0.3,0.7,0.7,1.2,1.3,1.6c0.6,0.4,1.2,0.6,2,0.6
				C188.5,87,189.2,86.8,189.8,86.4z"/>
			<path class="st0" d="M205.3,76.3c0.6,0.3,1.1,0.8,1.5,1.4c0.3,0.6,0.5,1.4,0.5,2.2v8.6H205v-8.2c0-1.7-0.8-2.6-2.5-2.6
				c-0.6,0-1.2,0.1-1.7,0.4c-0.5,0.2-1,0.7-1.3,1.2c-0.3,0.6-0.5,1.3-0.5,2.3v6.9h-2.2V76.1h2.1v1.8c0.4-0.7,1-1.2,1.7-1.5
				c0.7-0.4,1.5-0.5,2.4-0.5C203.9,75.8,204.7,76,205.3,76.3z"/>
			<path class="st0" d="M211.6,87.8c-0.9-0.7-1.4-1.7-1.5-3.1l2.1-0.1c0.1,0.8,0.4,1.5,0.9,1.9c0.5,0.4,1.2,0.6,2.2,0.6
				c1,0,1.7-0.2,2.2-0.5c0.5-0.3,0.8-0.8,0.8-1.4c0-0.5-0.2-0.9-0.5-1.2c-0.3-0.3-0.8-0.5-1.5-0.6l-2.5-0.5
				c-1.2-0.3-2.1-0.7-2.6-1.2c-0.6-0.6-0.8-1.3-0.8-2.1c0-0.7,0.2-1.3,0.5-1.9c0.3-0.5,0.9-1,1.6-1.2c0.7-0.3,1.5-0.4,2.5-0.4
				c1.4,0,2.6,0.3,3.5,0.9s1.4,1.6,1.6,2.8l-2.2,0.1c-0.1-0.7-0.4-1.3-0.9-1.6c-0.5-0.4-1.2-0.5-2-0.5c-0.8,0-1.4,0.1-1.8,0.4
				c-0.4,0.3-0.6,0.7-0.6,1.2c0,0.4,0.1,0.8,0.4,1s0.8,0.5,1.5,0.6l2.4,0.5c1.3,0.3,2.2,0.7,2.8,1.3c0.6,0.6,0.9,1.3,0.9,2.2
				c0,0.8-0.2,1.5-0.6,2.1s-1,1-1.8,1.4c-0.8,0.3-1.7,0.5-2.8,0.5C213.7,88.8,212.5,88.5,211.6,87.8z"/>
			<path class="st0" d="M226.3,77.7v7.7c0,0.4,0.1,0.8,0.3,0.9c0.2,0.2,0.5,0.3,0.9,0.3h1.6v1.8h-2.3c-1,0-1.7-0.2-2.1-0.7
				c-0.4-0.4-0.7-1.1-0.7-2.1v-8l-1.8,0.1v-1.7l1.8,0.1v-3.9h2.2v3.9l2.8-0.1v1.7L226.3,77.7z"/>
			<path class="st0" d="M243.1,86.9v1.6h-1.2c-1.3,0-2-0.6-2.1-1.8c-0.4,0.6-1,1.2-1.8,1.5c-0.8,0.4-1.7,0.6-2.7,0.6
				c-0.8,0-1.6-0.1-2.2-0.4c-0.6-0.3-1.1-0.7-1.5-1.2c-0.3-0.5-0.5-1.2-0.5-1.9c0-1.1,0.3-1.9,1-2.6c0.7-0.7,1.7-1.1,3.2-1.3
				l3.2-0.4c0.3,0,0.5-0.1,0.7-0.3c0.1-0.2,0.2-0.4,0.2-0.7v-0.5c0-0.7-0.2-1.1-0.7-1.5c-0.4-0.3-1.2-0.5-2.1-0.5
				c-0.9,0-1.6,0.2-2,0.5c-0.4,0.3-0.7,0.9-0.8,1.7h-2.2c0.1-1.4,0.6-2.4,1.5-3s2.1-1,3.7-1c1.6,0,2.8,0.3,3.6,1
				c0.8,0.7,1.2,1.6,1.2,3v6c0,0.4,0.1,0.7,0.2,0.8s0.4,0.2,0.8,0.2H243.1z M237.5,86.7c0.6-0.3,1-0.6,1.4-1.1s0.5-0.9,0.5-1.5v-1.7
				l-3.7,0.6c-0.8,0.1-1.4,0.4-1.8,0.7s-0.6,0.8-0.6,1.4c0,0.6,0.2,1.1,0.6,1.5c0.4,0.4,1,0.5,1.7,0.5
				C236.3,87.1,236.9,87,237.5,86.7z"/>
			<path class="st0" d="M253.9,76.3c0.6,0.3,1.1,0.8,1.5,1.4c0.3,0.6,0.5,1.4,0.5,2.2v8.6h-2.2v-8.2c0-1.7-0.8-2.6-2.5-2.6
				c-0.6,0-1.2,0.1-1.7,0.4c-0.5,0.2-1,0.7-1.3,1.2c-0.3,0.6-0.5,1.3-0.5,2.3v6.9h-2.2V76.1h2.1v1.8c0.4-0.7,1-1.2,1.7-1.5
				c0.7-0.4,1.5-0.5,2.4-0.5C252.5,75.8,253.3,76,253.9,76.3z"/>
			<path class="st0" d="M261.7,88.1c-0.9-0.5-1.5-1.2-2-2.2c-0.5-1-0.7-2.1-0.7-3.5c0-1.4,0.2-2.6,0.7-3.6c0.5-1,1.2-1.7,2-2.3
				c0.9-0.5,1.9-0.8,3.1-0.8c1.4,0,2.6,0.4,3.5,1.1c0.9,0.8,1.5,1.8,1.7,3.2H268c-0.3-1.7-1.4-2.5-3.1-2.5c-1.2,0-2.2,0.4-2.8,1.2
				c-0.6,0.8-0.9,2-0.9,3.4c0,1.5,0.3,2.6,0.9,3.4c0.6,0.8,1.5,1.2,2.7,1.2c0.9,0,1.6-0.2,2.1-0.7c0.5-0.5,0.9-1.2,1-2.1h2.1
				c-0.2,1.5-0.8,2.6-1.7,3.4c-0.9,0.8-2.1,1.2-3.7,1.2C263.6,88.8,262.6,88.6,261.7,88.1z"/>
			<path class="st0" d="M283.9,82.8h-9.3c0,1.4,0.4,2.4,1,3.1c0.7,0.7,1.6,1.1,2.7,1.1c0.8,0,1.5-0.2,2.1-0.6s1-0.9,1.3-1.7l2,0.2
				c-0.4,1.2-1.1,2.2-2,2.8s-2.1,1-3.4,1c-1.2,0-2.3-0.3-3.1-0.8s-1.6-1.3-2-2.3c-0.5-1-0.7-2.1-0.7-3.4c0-1.3,0.2-2.4,0.7-3.3
				c0.5-1,1.1-1.7,2-2.3c0.9-0.5,1.9-0.8,3.1-0.8c1.2,0,2.2,0.2,3,0.7c0.9,0.5,1.5,1.2,2,2.1s0.7,2,0.7,3.3V82.8z M275.7,78.6
				c-0.6,0.6-1,1.5-1.1,2.7h7.2c-0.1-1.2-0.5-2.1-1.1-2.7c-0.6-0.6-1.4-0.9-2.4-0.9C277.2,77.6,276.4,77.9,275.7,78.6z"/>
			<path class="st0" d="M286.6,86.1h2.6v3.8c0,1.7-0.8,2.6-2.4,2.6h-0.2v-1.2h0.2c0.8,0,1.1-0.4,1.1-1.1v-1.7h-1.4V86.1z"/>
			<path class="st0" d="M301.9,88.1c-0.9-0.5-1.5-1.2-2-2.2c-0.5-1-0.7-2.1-0.7-3.5c0-1.4,0.2-2.6,0.7-3.6c0.5-1,1.2-1.7,2-2.3
				c0.9-0.5,1.9-0.8,3.1-0.8c1.4,0,2.6,0.4,3.5,1.1c0.9,0.8,1.5,1.8,1.7,3.2h-2.1c-0.3-1.7-1.4-2.5-3.1-2.5c-1.2,0-2.2,0.4-2.8,1.2
				c-0.6,0.8-0.9,2-0.9,3.4c0,1.5,0.3,2.6,0.9,3.4c0.6,0.8,1.5,1.2,2.7,1.2c0.9,0,1.6-0.2,2.1-0.7c0.5-0.5,0.9-1.2,1-2.1h2.1
				c-0.2,1.5-0.8,2.6-1.7,3.4c-0.9,0.8-2.1,1.2-3.7,1.2C303.8,88.8,302.8,88.6,301.9,88.1z"/>
			<path class="st0" d="M324.1,82.8h-9.3c0,1.4,0.4,2.4,1,3.1c0.7,0.7,1.6,1.1,2.7,1.1c0.8,0,1.5-0.2,2.1-0.6s1-0.9,1.3-1.7l2,0.2
				c-0.4,1.2-1.1,2.2-2,2.8s-2.1,1-3.4,1c-1.2,0-2.3-0.3-3.1-0.8s-1.6-1.3-2-2.3c-0.5-1-0.7-2.1-0.7-3.4c0-1.3,0.2-2.4,0.7-3.3
				c0.5-1,1.1-1.7,2-2.3c0.9-0.5,1.9-0.8,3.1-0.8c1.2,0,2.2,0.2,3,0.7c0.9,0.5,1.5,1.2,2,2.1s0.7,2,0.7,3.3V82.8z M316,78.6
				c-0.6,0.6-1,1.5-1.1,2.7h7.2c-0.1-1.2-0.5-2.1-1.1-2.7c-0.6-0.6-1.4-0.9-2.4-0.9C317.4,77.6,316.6,77.9,316,78.6z"/>
			<path class="st0" d="M329.4,88.5h-2.2V71.4h2.2V88.5z"/>
			<path class="st0" d="M341.5,76.1h2.2v12.4h-2.1v-1.8c-0.4,0.7-1,1.2-1.7,1.5c-0.7,0.4-1.5,0.5-2.4,0.5c-0.9,0-1.6-0.2-2.2-0.5
				s-1.1-0.8-1.5-1.4c-0.3-0.6-0.5-1.4-0.5-2.2v-8.6h2.2v8.2c0,1.7,0.8,2.6,2.5,2.6c0.6,0,1.2-0.1,1.7-0.4c0.5-0.2,1-0.7,1.3-1.2
				s0.5-1.3,0.5-2.3V76.1z"/>
			<path class="st0" d="M349.7,73.8h-2.2v-2.4h2.2V73.8z M349.7,88.5h-2.2V76.1h2.2V88.5z"/>
			<path class="st0" d="M359.6,83.3h-6.7v-2h6.7V83.3z"/>
			<path class="st0" d="M364.7,88.1c-0.9-0.5-1.5-1.2-2-2.2c-0.5-1-0.7-2.1-0.7-3.5c0-1.4,0.2-2.6,0.7-3.6c0.5-1,1.2-1.7,2-2.3
				c0.9-0.5,1.9-0.8,3.1-0.8c1.4,0,2.6,0.4,3.5,1.1c0.9,0.8,1.5,1.8,1.7,3.2H371c-0.3-1.7-1.4-2.5-3.1-2.5c-1.2,0-2.2,0.4-2.8,1.2
				c-0.6,0.8-0.9,2-0.9,3.4c0,1.5,0.3,2.6,0.9,3.4c0.6,0.8,1.5,1.2,2.7,1.2c0.9,0,1.6-0.2,2.1-0.7c0.5-0.5,0.9-1.2,1-2.1h2.1
				c-0.2,1.5-0.8,2.6-1.7,3.4c-0.9,0.8-2.1,1.2-3.7,1.2C366.5,88.8,365.5,88.6,364.7,88.1z"/>
			<path class="st0" d="M378.3,73.8H376v-2.4h2.2V73.8z M378.3,88.5H376V76.1h2.2V88.5z"/>
			<path class="st0" d="M404.5,76.8c0.6,0.7,1,1.7,1,3.2v8.5h-2.2V80c0-0.7-0.2-1.3-0.6-1.7s-0.9-0.6-1.6-0.6
				c-0.8,0-1.6,0.3-2.1,0.9s-0.9,1.7-0.9,3.1v6.7h-2.2V80c0-0.7-0.2-1.3-0.6-1.7c-0.4-0.4-0.9-0.6-1.6-0.6c-0.5,0-1,0.1-1.5,0.4
				s-0.8,0.7-1.1,1.3c-0.3,0.6-0.4,1.4-0.4,2.4v6.6h-2.2V76.1h2.1v1.8c0.8-1.4,2.1-2.1,3.7-2.1c0.8,0,1.6,0.2,2.1,0.6s1,0.9,1.3,1.6
				c0.8-1.4,2.1-2.2,3.9-2.2C403,75.8,403.9,76.2,404.5,76.8z"/>
			<path class="st0" d="M420.1,82.8h-9.3c0,1.4,0.4,2.4,1,3.1c0.7,0.7,1.6,1.1,2.7,1.1c0.8,0,1.5-0.2,2.1-0.6s1-0.9,1.3-1.7l2,0.2
				c-0.4,1.2-1.1,2.2-2,2.8s-2.1,1-3.4,1c-1.2,0-2.3-0.3-3.1-0.8s-1.6-1.3-2-2.3c-0.5-1-0.7-2.1-0.7-3.4c0-1.3,0.2-2.4,0.7-3.3
				c0.5-1,1.1-1.7,2-2.3c0.9-0.5,1.9-0.8,3.1-0.8c1.2,0,2.2,0.2,3,0.7c0.9,0.5,1.5,1.2,2,2.1s0.7,2,0.7,3.3V82.8z M412,78.6
				c-0.6,0.6-1,1.5-1.1,2.7h7.2c-0.1-1.2-0.5-2.1-1.1-2.7c-0.6-0.6-1.4-0.9-2.4-0.9C413.5,77.6,412.7,77.9,412,78.6z"/>
			<path class="st0" d="M425.9,77.7v7.7c0,0.4,0.1,0.8,0.3,0.9c0.2,0.2,0.5,0.3,0.9,0.3h1.6v1.8h-2.3c-1,0-1.7-0.2-2.1-0.7
				c-0.4-0.4-0.7-1.1-0.7-2.1v-8l-1.8,0.1v-1.7l1.8,0.1v-3.9h2.2v3.9l2.8-0.1v1.7L425.9,77.7z"/>
			<path class="st0" d="M446,76.1h2.2v12.4h-2.1v-1.8c-0.4,0.7-1,1.2-1.7,1.5c-0.7,0.4-1.5,0.5-2.4,0.5c-0.9,0-1.6-0.2-2.2-0.5
				s-1.1-0.8-1.5-1.4c-0.3-0.6-0.5-1.4-0.5-2.2v-8.6h2.2v8.2c0,1.7,0.8,2.6,2.5,2.6c0.6,0,1.2-0.1,1.7-0.4c0.5-0.2,1-0.7,1.3-1.2
				s0.5-1.3,0.5-2.3V76.1z"/>
			<path class="st0" d="M460.5,76.3c0.6,0.3,1.1,0.8,1.5,1.4c0.3,0.6,0.5,1.4,0.5,2.2v8.6h-2.2v-8.2c0-1.7-0.8-2.6-2.5-2.6
				c-0.6,0-1.2,0.1-1.7,0.4c-0.5,0.2-1,0.7-1.3,1.2c-0.3,0.6-0.5,1.3-0.5,2.3v6.9h-2.2V76.1h2.1v1.8c0.4-0.7,1-1.2,1.7-1.5
				c0.7-0.4,1.5-0.5,2.4-0.5C459.2,75.8,459.9,76,460.5,76.3z"/>
			<path class="st0" d="M156.9,105.6c0.6,0.7,1,1.7,1,3.2v8.5h-2.2v-8.5c0-0.7-0.2-1.3-0.6-1.7s-0.9-0.6-1.6-0.6
				c-0.8,0-1.6,0.3-2.1,0.9s-0.9,1.7-0.9,3.1v6.7h-2.2v-8.5c0-0.7-0.2-1.3-0.6-1.7c-0.4-0.4-0.9-0.6-1.6-0.6c-0.5,0-1,0.1-1.5,0.4
				s-0.8,0.7-1.1,1.3c-0.3,0.6-0.4,1.4-0.4,2.4v6.6h-2.2v-12.4h2.1v1.8c0.8-1.4,2.1-2.1,3.7-2.1c0.8,0,1.6,0.2,2.1,0.6
				s1,0.9,1.3,1.6c0.8-1.4,2.1-2.2,3.9-2.2C155.3,104.6,156.2,105,156.9,105.6z"/>
			<path class="st0" d="M173,115.7v1.6h-1.2c-1.3,0-2-0.6-2.1-1.8c-0.4,0.6-1,1.2-1.8,1.5c-0.8,0.4-1.7,0.6-2.7,0.6
				c-0.8,0-1.6-0.1-2.2-0.4c-0.6-0.3-1.1-0.7-1.5-1.2c-0.3-0.5-0.5-1.2-0.5-1.9c0-1.1,0.3-1.9,1-2.6c0.7-0.7,1.7-1.1,3.2-1.3
				l3.2-0.4c0.3,0,0.5-0.1,0.7-0.3c0.1-0.2,0.2-0.4,0.2-0.7v-0.5c0-0.7-0.2-1.1-0.7-1.5c-0.4-0.3-1.2-0.5-2.1-0.5
				c-0.9,0-1.6,0.2-2,0.5c-0.4,0.3-0.7,0.9-0.8,1.7h-2.2c0.1-1.4,0.6-2.4,1.5-3s2.1-1,3.7-1c1.6,0,2.8,0.3,3.6,1
				c0.8,0.7,1.2,1.6,1.2,3v6c0,0.4,0.1,0.7,0.2,0.8s0.4,0.2,0.8,0.2H173z M167.4,115.5c0.6-0.3,1-0.6,1.4-1.1s0.5-0.9,0.5-1.5v-1.7
				l-3.7,0.6c-0.8,0.1-1.4,0.4-1.8,0.7s-0.6,0.8-0.6,1.4c0,0.6,0.2,1.1,0.6,1.5c0.4,0.4,1,0.5,1.7,0.5
				C166.2,115.9,166.8,115.8,167.4,115.5z"/>
			<path class="st0" d="M181.9,104.6v2.1c-0.2,0-0.5,0-0.8,0c-0.6,0-1.1,0.1-1.6,0.4s-1,0.7-1.3,1.3c-0.4,0.6-0.5,1.3-0.6,2.1v6.8
				h-2.2v-12.4h2.1v2.4c0.8-1.8,2.1-2.7,3.8-2.7C181.4,104.6,181.6,104.6,181.9,104.6z"/>
			<path class="st0" d="M192.9,104.9h1.9v17.3h-2.2v-6.4c-0.4,0.6-0.9,1-1.6,1.3c-0.6,0.3-1.4,0.5-2.1,0.5c-1.1,0-2.1-0.3-2.9-0.9
				c-0.8-0.6-1.4-1.4-1.9-2.4c-0.4-1-0.6-2.2-0.6-3.4c0-1.2,0.2-2.3,0.7-3.3c0.5-1,1.1-1.7,1.9-2.2c0.8-0.5,1.7-0.8,2.8-0.8
				c0.9,0,1.7,0.2,2.4,0.6c0.7,0.4,1.3,0.9,1.6,1.6V104.9z M190.9,115.1c0.5-0.4,1-0.9,1.3-1.6c0.3-0.7,0.5-1.5,0.5-2.5
				c0-0.9-0.2-1.7-0.5-2.4s-0.7-1.2-1.2-1.5s-1.1-0.5-1.8-0.5c-1.1,0-1.9,0.4-2.5,1.1c-0.6,0.8-0.9,1.8-0.9,3.2c0,1,0.1,1.8,0.4,2.5
				c0.3,0.7,0.7,1.3,1.2,1.7c0.5,0.4,1.1,0.6,1.8,0.6C189.8,115.7,190.4,115.5,190.9,115.1z"/>
			<path class="st0" d="M206.8,104.9h2.2v12.4H207v-1.8c-0.4,0.7-1,1.2-1.7,1.5c-0.7,0.4-1.5,0.5-2.4,0.5c-0.9,0-1.6-0.2-2.2-0.5
				s-1.1-0.8-1.5-1.4c-0.3-0.6-0.5-1.4-0.5-2.2v-8.6h2.2v8.2c0,1.7,0.8,2.6,2.5,2.6c0.6,0,1.2-0.1,1.7-0.4c0.5-0.2,1-0.7,1.3-1.2
				s0.5-1.3,0.5-2.3V104.9z"/>
			<path class="st0" d="M223.7,111.6h-9.3c0,1.4,0.4,2.4,1,3.1c0.7,0.7,1.6,1.1,2.7,1.1c0.8,0,1.5-0.2,2.1-0.6s1-0.9,1.3-1.7l2,0.2
				c-0.4,1.2-1.1,2.2-2,2.8s-2.1,1-3.4,1c-1.2,0-2.3-0.3-3.1-0.8s-1.6-1.3-2-2.3c-0.5-1-0.7-2.1-0.7-3.4c0-1.3,0.2-2.4,0.7-3.3
				c0.5-1,1.1-1.7,2-2.3c0.9-0.5,1.9-0.8,3.1-0.8c1.2,0,2.2,0.2,3,0.7c0.9,0.5,1.5,1.2,2,2.1s0.7,2,0.7,3.3V111.6z M215.5,107.4
				c-0.6,0.6-1,1.5-1.1,2.7h7.2c-0.1-1.2-0.5-2.1-1.1-2.7c-0.6-0.6-1.4-0.9-2.4-0.9C217,106.4,216.2,106.7,215.5,107.4z"/>
			<path class="st0" d="M235,104.9h2.2v12.4h-2.1v-1.8c-0.4,0.7-1,1.2-1.7,1.5c-0.7,0.4-1.5,0.5-2.4,0.5c-0.9,0-1.6-0.2-2.2-0.5
				s-1.1-0.8-1.5-1.4c-0.3-0.6-0.5-1.4-0.5-2.2v-8.6h2.2v8.2c0,1.7,0.8,2.6,2.5,2.6c0.6,0,1.2-0.1,1.7-0.4c0.5-0.2,1-0.7,1.3-1.2
				s0.5-1.3,0.5-2.3V104.9z"/>
			<path class="st0" d="M247.6,104.6v2.1c-0.2,0-0.5,0-0.8,0c-0.6,0-1.1,0.1-1.6,0.4s-1,0.7-1.3,1.3c-0.4,0.6-0.5,1.3-0.6,2.1v6.8
				H241v-12.4h2.1v2.4c0.8-1.8,2.1-2.7,3.8-2.7C247.1,104.6,247.3,104.6,247.6,104.6z"/>
			<path class="st0" d="M256.9,116.6c-0.9-0.7-1.4-1.7-1.5-3.1l2.1-0.1c0.1,0.8,0.4,1.5,0.9,1.9c0.5,0.4,1.2,0.6,2.2,0.6
				c1,0,1.7-0.2,2.2-0.5c0.5-0.3,0.8-0.8,0.8-1.4c0-0.5-0.2-0.9-0.5-1.2c-0.3-0.3-0.8-0.5-1.5-0.6l-2.5-0.5
				c-1.2-0.3-2.1-0.7-2.6-1.2c-0.6-0.6-0.8-1.3-0.8-2.1c0-0.7,0.2-1.3,0.5-1.9c0.3-0.5,0.9-1,1.6-1.2c0.7-0.3,1.5-0.4,2.5-0.4
				c1.4,0,2.6,0.3,3.5,0.9s1.4,1.6,1.6,2.8l-2.2,0.1c-0.1-0.7-0.4-1.3-0.9-1.6c-0.5-0.4-1.2-0.5-2-0.5c-0.8,0-1.4,0.1-1.8,0.4
				c-0.4,0.3-0.6,0.7-0.6,1.2c0,0.4,0.1,0.8,0.4,1s0.8,0.5,1.5,0.6l2.4,0.5c1.3,0.3,2.2,0.7,2.8,1.3c0.6,0.6,0.9,1.3,0.9,2.2
				c0,0.8-0.2,1.5-0.6,2.1s-1,1-1.8,1.4c-0.8,0.3-1.7,0.5-2.8,0.5C259,117.6,257.8,117.3,256.9,116.6z"/>
			<path class="st0" d="M276.7,104.9h2.2v12.4h-2.1v-1.8c-0.4,0.7-1,1.2-1.7,1.5c-0.7,0.4-1.5,0.5-2.4,0.5c-0.9,0-1.6-0.2-2.2-0.5
				s-1.1-0.8-1.5-1.4c-0.3-0.6-0.5-1.4-0.5-2.2v-8.6h2.2v8.2c0,1.7,0.8,2.6,2.5,2.6c0.6,0,1.2-0.1,1.7-0.4c0.5-0.2,1-0.7,1.3-1.2
				s0.5-1.3,0.5-2.3V104.9z"/>
			<path class="st0" d="M289.3,104.6v2.1c-0.2,0-0.5,0-0.8,0c-0.6,0-1.1,0.1-1.6,0.4s-1,0.7-1.3,1.3c-0.4,0.6-0.5,1.3-0.6,2.1v6.8
				h-2.2v-12.4h2.1v2.4c0.8-1.8,2.1-2.7,3.8-2.7C288.8,104.6,289,104.6,289.3,104.6z"/>
			<path class="st0" d="M300,116.9c-0.9-0.5-1.5-1.2-2-2.2c-0.5-1-0.7-2.1-0.7-3.5c0-1.4,0.2-2.6,0.7-3.6c0.5-1,1.2-1.7,2-2.3
				c0.9-0.5,1.9-0.8,3.1-0.8c1.4,0,2.6,0.4,3.5,1.1c0.9,0.8,1.5,1.8,1.7,3.2h-2.1c-0.3-1.7-1.4-2.5-3.1-2.5c-1.2,0-2.2,0.4-2.8,1.2
				c-0.6,0.8-0.9,2-0.9,3.4c0,1.5,0.3,2.6,0.9,3.4c0.6,0.8,1.5,1.2,2.7,1.2c0.9,0,1.6-0.2,2.1-0.7c0.5-0.5,0.9-1.2,1-2.1h2.1
				c-0.2,1.5-0.8,2.6-1.7,3.4c-0.9,0.8-2.1,1.2-3.7,1.2C301.9,117.6,300.9,117.4,300,116.9z"/>
			<path class="st0" d="M322.2,111.6h-9.3c0,1.4,0.4,2.4,1,3.1c0.7,0.7,1.6,1.1,2.7,1.1c0.8,0,1.5-0.2,2.1-0.6s1-0.9,1.3-1.7l2,0.2
				c-0.4,1.2-1.1,2.2-2,2.8s-2.1,1-3.4,1c-1.2,0-2.3-0.3-3.1-0.8s-1.6-1.3-2-2.3c-0.5-1-0.7-2.1-0.7-3.4c0-1.3,0.2-2.4,0.7-3.3
				c0.5-1,1.1-1.7,2-2.3c0.9-0.5,1.9-0.8,3.1-0.8c1.2,0,2.2,0.2,3,0.7c0.9,0.5,1.5,1.2,2,2.1s0.7,2,0.7,3.3V111.6z M314,107.4
				c-0.6,0.6-1,1.5-1.1,2.7h7.2c-0.1-1.2-0.5-2.1-1.1-2.7c-0.6-0.6-1.4-0.9-2.4-0.9C315.5,106.4,314.7,106.7,314,107.4z"/>
			<path class="st0" d="M327.9,106.5v7.7c0,0.4,0.1,0.8,0.3,0.9c0.2,0.2,0.5,0.3,0.9,0.3h1.6v1.8h-2.3c-1,0-1.7-0.2-2.1-0.7
				c-0.4-0.4-0.7-1.1-0.7-2.1v-8l-1.8,0.1v-1.7l1.8,0.1v-3.9h2.2v3.9l2.8-0.1v1.7L327.9,106.5z"/>
			<path class="st0" d="M336.5,106.5v7.7c0,0.4,0.1,0.8,0.3,0.9c0.2,0.2,0.5,0.3,0.9,0.3h1.6v1.8H337c-1,0-1.7-0.2-2.1-0.7
				c-0.4-0.4-0.7-1.1-0.7-2.1v-8l-1.8,0.1v-1.7l1.8,0.1v-3.9h2.2v3.9l2.8-0.1v1.7L336.5,106.5z"/>
			<path class="st0" d="M352.7,111.6h-9.3c0,1.4,0.4,2.4,1,3.1c0.7,0.7,1.6,1.1,2.7,1.1c0.8,0,1.5-0.2,2.1-0.6s1-0.9,1.3-1.7l2,0.2
				c-0.4,1.2-1.1,2.2-2,2.8s-2.1,1-3.4,1c-1.2,0-2.3-0.3-3.1-0.8s-1.6-1.3-2-2.3c-0.5-1-0.7-2.1-0.7-3.4c0-1.3,0.2-2.4,0.7-3.3
				c0.5-1,1.1-1.7,2-2.3c0.9-0.5,1.9-0.8,3.1-0.8c1.2,0,2.2,0.2,3,0.7c0.9,0.5,1.5,1.2,2,2.1s0.7,2,0.7,3.3V111.6z M344.6,107.4
				c-0.6,0.6-1,1.5-1.1,2.7h7.2c-0.1-1.2-0.5-2.1-1.1-2.7c-0.6-0.6-1.4-0.9-2.4-0.9C346.1,106.4,345.2,106.7,344.6,107.4z"/>
			<path class="st0" d="M371.1,105.4c0.8,0.5,1.4,1.2,1.9,2.2s0.7,2,0.7,3.2c0,1.3-0.2,2.4-0.7,3.5c-0.4,1-1.1,1.8-1.9,2.4
				c-0.8,0.6-1.8,0.9-2.9,0.9c-0.8,0-1.5-0.2-2.1-0.5c-0.6-0.3-1.2-0.8-1.6-1.3v6.4h-2.2v-17.3h1.9v2c0.4-0.7,0.9-1.2,1.6-1.6
				c0.7-0.4,1.5-0.6,2.4-0.6C369.3,104.7,370.3,104.9,371.1,105.4z M369.8,115.1c0.5-0.4,0.9-1,1.2-1.7c0.3-0.7,0.4-1.6,0.4-2.5
				c0-1.4-0.3-2.5-0.9-3.2c-0.6-0.7-1.4-1.1-2.5-1.1c-0.7,0-1.3,0.2-1.9,0.5s-1,0.8-1.3,1.5s-0.5,1.5-0.5,2.4c0,1,0.2,1.8,0.5,2.5
				s0.7,1.3,1.3,1.6c0.5,0.4,1.2,0.6,1.8,0.6C368.7,115.7,369.3,115.5,369.8,115.1z"/>
			<path class="st0" d="M387.5,111.6h-9.3c0,1.4,0.4,2.4,1,3.1c0.7,0.7,1.6,1.1,2.7,1.1c0.8,0,1.5-0.2,2.1-0.6s1-0.9,1.3-1.7l2,0.2
				c-0.4,1.2-1.1,2.2-2,2.8s-2.1,1-3.4,1c-1.2,0-2.3-0.3-3.1-0.8s-1.6-1.3-2-2.3c-0.5-1-0.7-2.1-0.7-3.4c0-1.3,0.2-2.4,0.7-3.3
				c0.5-1,1.1-1.7,2-2.3c0.9-0.5,1.9-0.8,3.1-0.8c1.2,0,2.2,0.2,3,0.7c0.9,0.5,1.5,1.2,2,2.1s0.7,2,0.7,3.3V111.6z M379.4,107.4
				c-0.6,0.6-1,1.5-1.1,2.7h7.2c-0.1-1.2-0.5-2.1-1.1-2.7c-0.6-0.6-1.4-0.9-2.4-0.9C380.9,106.4,380,106.7,379.4,107.4z
				 M382.3,102.6h-1.9l2.1-3.7h3L382.3,102.6z"/>
			<path class="st0" d="M397.2,104.6v2.1c-0.2,0-0.5,0-0.8,0c-0.6,0-1.1,0.1-1.6,0.4s-1,0.7-1.3,1.3c-0.4,0.6-0.5,1.3-0.6,2.1v6.8
				h-2.2v-12.4h2.1v2.4c0.8-1.8,2.1-2.7,3.8-2.7C396.7,104.6,396.9,104.6,397.2,104.6z"/>
			<path class="st0" d="M401.7,102.6h-2.2v-2.4h2.2V102.6z M401.7,117.3h-2.2v-12.4h2.2V117.3z"/>
			<path class="st0" d="M407.6,116.8c-0.9-0.5-1.6-1.3-2.1-2.3c-0.5-1-0.7-2.1-0.7-3.4c0-1.3,0.3-2.5,0.8-3.4c0.5-1,1.2-1.7,2.1-2.3
				c0.9-0.5,2-0.8,3.1-0.8c1.2,0,2.2,0.3,3.1,0.8c0.9,0.5,1.6,1.3,2.1,2.2c0.5,1,0.8,2.1,0.8,3.4c0,1.3-0.3,2.4-0.8,3.4
				c-0.5,1-1.2,1.8-2.1,2.3c-0.9,0.6-1.9,0.8-3.1,0.8C409.6,117.6,408.5,117.3,407.6,116.8z M412.8,115.2c0.6-0.4,1-1,1.3-1.7
				s0.4-1.5,0.4-2.5c0-0.9-0.1-1.7-0.4-2.4c-0.3-0.7-0.7-1.2-1.3-1.6c-0.6-0.4-1.2-0.6-2-0.6c-0.8,0-1.4,0.2-2,0.6
				c-0.6,0.4-1,0.9-1.3,1.6s-0.4,1.5-0.4,2.4c0,0.9,0.2,1.7,0.5,2.4c0.3,0.7,0.7,1.2,1.3,1.6c0.6,0.4,1.2,0.6,2,0.6
				C411.5,115.8,412.2,115.6,412.8,115.2z"/>
			<path class="st0" d="M428.2,100.2h2.2v17.1h-1.9v-2c-0.4,0.7-0.9,1.2-1.6,1.6c-0.7,0.4-1.5,0.6-2.4,0.6c-1.1,0-2.1-0.3-2.9-0.9
				c-0.8-0.6-1.4-1.4-1.9-2.4c-0.4-1-0.6-2.2-0.6-3.4c0-1.2,0.2-2.3,0.7-3.3c0.5-1,1.1-1.7,1.9-2.2c0.8-0.5,1.7-0.8,2.8-0.8
				c0.8,0,1.5,0.2,2.2,0.5c0.6,0.3,1.2,0.7,1.6,1.3V100.2z M426.6,115.1c0.5-0.4,1-0.9,1.3-1.6c0.3-0.7,0.5-1.5,0.5-2.5
				c0-0.9-0.2-1.7-0.5-2.4s-0.7-1.2-1.2-1.5s-1.1-0.5-1.8-0.5c-1.1,0-1.9,0.4-2.5,1.1c-0.6,0.8-0.9,1.8-0.9,3.2c0,1,0.1,1.8,0.4,2.5
				c0.3,0.7,0.7,1.3,1.2,1.7c0.5,0.4,1.1,0.6,1.8,0.6C425.4,115.7,426,115.5,426.6,115.1z"/>
			<path class="st0" d="M445,111.6h-9.3c0,1.4,0.4,2.4,1,3.1c0.7,0.7,1.6,1.1,2.7,1.1c0.8,0,1.5-0.2,2.1-0.6s1-0.9,1.3-1.7l2,0.2
				c-0.4,1.2-1.1,2.2-2,2.8s-2.1,1-3.4,1c-1.2,0-2.3-0.3-3.1-0.8s-1.6-1.3-2-2.3c-0.5-1-0.7-2.1-0.7-3.4c0-1.3,0.2-2.4,0.7-3.3
				c0.5-1,1.1-1.7,2-2.3c0.9-0.5,1.9-0.8,3.1-0.8c1.2,0,2.2,0.2,3,0.7c0.9,0.5,1.5,1.2,2,2.1s0.7,2,0.7,3.3V111.6z M436.9,107.4
				c-0.6,0.6-1,1.5-1.1,2.7h7.2c-0.1-1.2-0.5-2.1-1.1-2.7c-0.6-0.6-1.4-0.9-2.4-0.9C438.4,106.4,437.6,106.7,436.9,107.4z"/>
			<path class="st0" d="M149.3,129h2.2v17.1h-1.9v-2c-0.4,0.7-0.9,1.2-1.6,1.6c-0.7,0.4-1.5,0.6-2.4,0.6c-1.1,0-2.1-0.3-2.9-0.9
				c-0.8-0.6-1.4-1.4-1.9-2.4c-0.4-1-0.6-2.2-0.6-3.4c0-1.2,0.2-2.3,0.7-3.3c0.5-1,1.1-1.7,1.9-2.2c0.8-0.5,1.7-0.8,2.8-0.8
				c0.8,0,1.5,0.2,2.2,0.5c0.6,0.3,1.2,0.7,1.6,1.3V129z M147.6,143.9c0.5-0.4,1-0.9,1.3-1.6c0.3-0.7,0.5-1.5,0.5-2.5
				c0-0.9-0.2-1.7-0.5-2.4s-0.7-1.2-1.2-1.5s-1.1-0.5-1.8-0.5c-1.1,0-1.9,0.4-2.5,1.1c-0.6,0.8-0.9,1.8-0.9,3.2c0,1,0.1,1.8,0.4,2.5
				c0.3,0.7,0.7,1.3,1.2,1.7c0.5,0.4,1.1,0.6,1.8,0.6C146.5,144.5,147.1,144.3,147.6,143.9z"/>
			<path class="st0" d="M166.1,140.4h-9.3c0,1.4,0.4,2.4,1,3.1c0.7,0.7,1.6,1.1,2.7,1.1c0.8,0,1.5-0.2,2.1-0.6s1-0.9,1.3-1.7l2,0.2
				c-0.4,1.2-1.1,2.2-2,2.8s-2.1,1-3.4,1c-1.2,0-2.3-0.3-3.1-0.8s-1.6-1.3-2-2.3c-0.5-1-0.7-2.1-0.7-3.4c0-1.3,0.2-2.4,0.7-3.3
				c0.5-1,1.1-1.7,2-2.3c0.9-0.5,1.9-0.8,3.1-0.8c1.2,0,2.2,0.2,3,0.7c0.9,0.5,1.5,1.2,2,2.1s0.7,2,0.7,3.3V140.4z M158,136.2
				c-0.6,0.6-1,1.5-1.1,2.7h7.2c-0.1-1.2-0.5-2.1-1.1-2.7c-0.6-0.6-1.4-0.9-2.4-0.9C159.5,135.2,158.6,135.5,158,136.2z"/>
			<path class="st0" d="M184.4,134.2c0.8,0.5,1.4,1.2,1.9,2.2s0.7,2,0.7,3.2c0,1.3-0.2,2.4-0.7,3.5c-0.4,1-1.1,1.8-1.9,2.4
				c-0.8,0.6-1.8,0.9-2.9,0.9c-0.8,0-1.5-0.2-2.1-0.5c-0.6-0.3-1.2-0.8-1.6-1.3v6.4h-2.2v-17.3h1.9v2c0.4-0.7,0.9-1.2,1.6-1.6
				c0.7-0.4,1.5-0.6,2.4-0.6C182.7,133.5,183.6,133.7,184.4,134.2z M183.2,143.9c0.5-0.4,0.9-1,1.2-1.7c0.3-0.7,0.4-1.6,0.4-2.5
				c0-1.4-0.3-2.5-0.9-3.2c-0.6-0.7-1.4-1.1-2.5-1.1c-0.7,0-1.3,0.2-1.9,0.5s-1,0.8-1.3,1.5s-0.5,1.5-0.5,2.4c0,1,0.2,1.8,0.5,2.5
				s0.7,1.3,1.3,1.6c0.5,0.4,1.2,0.6,1.8,0.6C182.1,144.5,182.7,144.3,183.2,143.9z"/>
			<path class="st0" d="M192.2,145.6c-0.9-0.5-1.6-1.3-2.1-2.3c-0.5-1-0.7-2.1-0.7-3.4c0-1.3,0.3-2.5,0.8-3.4c0.5-1,1.2-1.7,2.1-2.3
				c0.9-0.5,2-0.8,3.1-0.8c1.2,0,2.2,0.3,3.1,0.8c0.9,0.5,1.6,1.3,2.1,2.2c0.5,1,0.8,2.1,0.8,3.4c0,1.3-0.3,2.4-0.8,3.4
				c-0.5,1-1.2,1.8-2.1,2.3c-0.9,0.6-1.9,0.8-3.1,0.8C194.2,146.4,193.1,146.1,192.2,145.6z M197.4,144c0.6-0.4,1-1,1.3-1.7
				s0.4-1.5,0.4-2.5c0-0.9-0.1-1.7-0.4-2.4c-0.3-0.7-0.7-1.2-1.3-1.6c-0.6-0.4-1.2-0.6-2-0.6c-0.8,0-1.4,0.2-2,0.6
				c-0.6,0.4-1,0.9-1.3,1.6s-0.4,1.5-0.4,2.4c0,0.9,0.2,1.7,0.5,2.4c0.3,0.7,0.7,1.2,1.3,1.6c0.6,0.4,1.2,0.6,2,0.6
				C196.1,144.6,196.8,144.4,197.4,144z"/>
			<path class="st0" d="M206.7,146.1h-2.2V129h2.2V146.1z"/>
			<path class="st0" d="M212.7,131.4h-2.2V129h2.2V131.4z M212.7,146.1h-2.2v-12.4h2.2V146.1z"/>
			<path class="st0" d="M218.5,145.7c-0.9-0.5-1.5-1.2-2-2.2c-0.5-1-0.7-2.1-0.7-3.5c0-1.4,0.2-2.6,0.7-3.6c0.5-1,1.2-1.7,2-2.3
				c0.9-0.5,1.9-0.8,3.1-0.8c1.4,0,2.6,0.4,3.5,1.1c0.9,0.8,1.5,1.8,1.7,3.2h-2.1c-0.3-1.7-1.4-2.5-3.1-2.5c-1.2,0-2.2,0.4-2.8,1.2
				c-0.6,0.8-0.9,2-0.9,3.4c0,1.5,0.3,2.6,0.9,3.4c0.6,0.8,1.5,1.2,2.7,1.2c0.9,0,1.6-0.2,2.1-0.7c0.5-0.5,0.9-1.2,1-2.1h2.1
				c-0.2,1.5-0.8,2.6-1.7,3.4c-0.9,0.8-2.1,1.2-3.7,1.2C220.4,146.4,219.4,146.2,218.5,145.7z"/>
			<path class="st0" d="M240.7,140.4h-9.3c0,1.4,0.4,2.4,1,3.1c0.7,0.7,1.6,1.1,2.7,1.1c0.8,0,1.5-0.2,2.1-0.6s1-0.9,1.3-1.7l2,0.2
				c-0.4,1.2-1.1,2.2-2,2.8s-2.1,1-3.4,1c-1.2,0-2.3-0.3-3.1-0.8s-1.6-1.3-2-2.3c-0.5-1-0.7-2.1-0.7-3.4c0-1.3,0.2-2.4,0.7-3.3
				c0.5-1,1.1-1.7,2-2.3c0.9-0.5,1.9-0.8,3.1-0.8c1.2,0,2.2,0.2,3,0.7c0.9,0.5,1.5,1.2,2,2.1s0.7,2,0.7,3.3V140.4z M232.6,136.2
				c-0.6,0.6-1,1.5-1.1,2.7h7.2c-0.1-1.2-0.5-2.1-1.1-2.7c-0.6-0.6-1.4-0.9-2.4-0.9C234,135.2,233.2,135.5,232.6,136.2z"/>
			<path class="st0" d="M245.9,146.1h-2.7v-2.4h2.7V146.1z"/>
		</g>
	</g>
</g>
<polygon class="st0" points="88.6,108.9 -16.8,108.9 -16.8,39.6 88.6,39.6 112.3,76.8 "/>
</svg>
