<svg version="1.1" id="Layer_1" xmlns="http://www.w3.org/2000/svg" x="0" y="0" viewBox="0 0 540 516.7" style="enable-background:new 0 0 540 516.7" xml:space="preserve"><style>.st2{fill:#c9c9c7}.st3{fill:#e11b22}.st4{fill:#010101}</style><switch><g><path style="fill:none;stroke:#e11b22;stroke-width:3;stroke-miterlimit:10" d="M2.5 3.1h535v510.3H2.5z"/><g id="Outline" style="opacity:.3"><path class="st2" d="M204 153.9h23.2c2.6 0 4.6-2.1 4.6-4.6s-2.1-4.6-4.6-4.6H204c-2.6 0-4.6 2.1-4.6 4.6s2 4.6 4.6 4.6z"/><path class="st2" d="M301.5 144.6c-2.6 0-4.6 2.1-4.6 4.6v153.3H60c-12.8 0-23.2-10.4-23.2-23.2s10.4-23.2 23.2-23.2 23.2 10.4 23.2 23.2c0 2.6 2.1 4.6 4.6 4.6s4.6-2.1 4.6-4.6V153.9h13.9c2.6 0 4.6-2.1 4.6-4.6s-2.1-4.6-4.6-4.6H92.5v-13.9c0-18-14.6-32.5-32.5-32.5s-32.5 14.6-32.5 32.5v148.6c0 17.9 14.6 32.5 32.5 32.5h241.5c2.6 0 4.6-2.1 4.6-4.6V149.2c.1-2.5-2-4.6-4.6-4.6zM36.8 130.7c0-12.8 10.4-23.2 23.2-23.2s23.2 10.4 23.2 23.2v125.9c-12.5-12.8-33.1-13.1-45.9-.5l-.5.5V130.7z"/><path class="st2" d="m241.5 202.1 7.4 18.6 11.1 27.9c.9 2.4 3.7 3.5 6 2.6 1.2-.5 2.1-1.4 2.6-2.6l11.1-27.9 7.4-18.6c.2-.5.3-1 .3-1.6v-79.2c0-2.6-2.1-4.6-4.6-4.6-2.6 0-4.6 2.1-4.6 4.6v74.3H269V88.9h9.3v13.9c0 2.6 2.1 4.6 4.6 4.6 2.6 0 4.6-2.1 4.6-4.6V56.3c0-12.8-10.4-23.2-23.2-23.2-12.8 0-23.2 10.4-23.2 23.2v144.2c.1.5.2 1.1.4 1.6zm18.6 21.4h8.6l-4.3 10.7-4.3-10.7zm12.3-9.2h-16l-3.7-9.3h23.4l-3.7 9.3zm-12.7-18.6h-9.3V88.9h9.3v106.8zm-9.3-116.1v-9.3h27.9v9.3h-27.9zm0-23.3c0-7.7 6.2-13.9 13.9-13.9s13.9 6.2 13.9 13.9V61h-27.9v-4.7zM129.7 124.6v2.2c-7.2 2.5-11 10.4-8.5 17.6 1.4 4 4.5 7.1 8.5 8.5v.9c0 12 7.8 22.7 19.2 26.5-5 5-11.2 8.5-18 10.2l-7.1 1.8c-12.3 3-19.8 15.4-16.7 27.7 2.5 10.2 11.7 17.4 22.3 17.4h9.6c2.6 0 4.6-2.1 4.6-4.6 0-2.6-2.1-4.6-4.6-4.6h-9.6c-7.5 0-13.6-6.1-13.6-13.6 0-6.2 4.3-11.7 10.3-13.2l7.1-1.8c10.8-2.7 20.2-9.1 26.8-18 14.4-1.3 25.4-13.3 25.4-27.7v-.9c7.2-2.5 11-10.4 8.5-17.6-1.4-4-4.5-7.1-8.5-8.5v-2.2c14.9-13.3 18.3-35.2 8.1-52.3-1.3-2.2-4.2-2.9-6.4-1.6-2.2 1.3-2.9 4.2-1.6 6.4 8.2 13.9 5 31.8-7.7 41.8a4.6 4.6 0 0 0-1.7 3.6v3.5H172l4.1-36.6c.3-2.5-1.6-4.8-4.1-5.1-.7-.1-1.3 0-2 .2l-12.5 4.2-12.5-4.2c-2.4-.8-5.1.5-5.9 2.9-.2.6-.3 1.3-.2 2l4.1 36.6h-4v-3.5c0-1.4-.6-2.7-1.7-3.6-14-11.2-16.3-31.6-5.2-45.6 10.1-12.7 28-16 42-7.7 2.2 1.3 5.1.6 6.4-1.6 1.3-2.2.6-5.1-1.6-6.4-19.9-11.7-45.5-5.1-57.2 14.8-10.2 17-6.8 38.8 8 52.1zm27.9 47.9c-10.3 0-18.6-8.3-18.6-18.6h37.2c-.1 10.2-8.4 18.6-18.6 18.6zM149 95.6l7 2.4c1 .3 2 .3 2.9 0l7-2.4-3.4 30.5h-10.2L149 95.6zm-.7 39.7h32.5c2.6 0 4.6 2.1 4.6 4.6 0 2.6-2.1 4.6-4.6 4.6h-46.4c-2.6 0-4.6-2.1-4.6-4.6 0-2.6 2.1-4.6 4.6-4.6h13.9z"/><circle class="st2" cx="101.8" cy="93.5" r="4.6"/><circle class="st2" cx="213.3" cy="93.5" r="4.6"/><circle class="st2" cx="157.6" cy="37.8" r="4.6"/><path class="st2" d="M107 69.7c2.2 1.3 5.1.5 6.3-1.7 1.3-2.2.5-5.1-1.7-6.3-2.2-1.3-5.1-.5-6.3 1.7-1.3 2.1-.6 5 1.7 6.3zM203.5 125.4c2.2 1.3 5.1.5 6.3-1.7 1.3-2.2.5-5.1-1.7-6.3-2.2-1.3-5.1-.5-6.3 1.7-1.3 2.2-.5 5 1.7 6.3z"/><circle class="st2" cx="185.4" cy="45.2" r="4.6"/><path class="st2" d="M208.1 69.7c2.2-1.3 3-4.1 1.7-6.3s-4.1-3-6.3-1.7-3 4.1-1.7 6.3 4.1 2.9 6.3 1.7zM113.3 119c-1.3-2.2-4.1-3-6.3-1.7s-3 4.1-1.7 6.3 4.1 3 6.3 1.7c2.2-1.2 3-4 1.7-6.3zM132 49.3c2.2-1.3 3-4.1 1.7-6.3s-4.1-3-6.3-1.7-3 4.1-1.7 6.3c1.2 2.2 4.1 2.9 6.3 1.7zM180.8 274.6h18.6c2.6 0 4.6-2.1 4.6-4.6v-7.8c1.6-.7 3.1-1.6 4.5-2.6l6.8 3.9c2.2 1.3 5.1.5 6.3-1.7l9.3-16.1c1.3-2.2.5-5.1-1.7-6.3l-6.7-3.9c.1-.9.1-1.7.1-2.6 0-.9 0-1.7-.1-2.6l6.7-3.9c2.2-1.3 3-4.1 1.7-6.3l-9.3-16.1c-1.3-2.2-4.1-3-6.3-1.7l-6.8 3.9c-1.4-1-2.9-1.9-4.5-2.6v-7.8c0-2.6-2.1-4.6-4.6-4.6h-18.6c-2.6 0-4.6 2.1-4.6 4.6v7.8c-1.6.7-3.1 1.6-4.5 2.6l-6.8-3.9c-2.2-1.3-5.1-.5-6.3 1.7l-9.3 16.1c-1.3 2.2-.5 5.1 1.7 6.3l6.7 3.9c-.1.9-.1 1.7-.1 2.6 0 .9 0 1.7.1 2.6l-6.7 3.9c-2.2 1.3-3 4.1-1.7 6.3s4.1 3 6.3 1.7h.1l9.4-5.5c1.7-1 2.6-2.9 2.2-4.9-.5-2.8-.5-5.7 0-8.5.4-1.9-.5-3.9-2.2-4.9l-5.4-3.1 4.6-8 5.4 3.1c1.7 1 3.8.8 5.3-.5 2.2-1.8 4.7-3.3 7.3-4.2 1.9-.7 3.1-2.4 3.1-4.4v-6.3h9.3v6.3c0 2 1.2 3.7 3.1 4.4 2.7.9 5.2 2.4 7.3 4.2 1.5 1.3 3.6 1.5 5.3.5l5.4-3.1 4.6 8-5.4 3.1c-1.7 1-2.6 2.9-2.2 4.9.5 2.8.5 5.7 0 8.5-.4 1.9.5 3.9 2.2 4.9l5.4 3.1-4.6 8-5.4-3.1c-1.7-1-3.8-.8-5.3.5-2.2 1.8-4.7 3.3-7.3 4.2-1.9.7-3.1 2.4-3.1 4.4v6.3h-9.3V259c0-2-1.2-3.7-3.1-4.4-2.7-.9-5.2-2.4-7.3-4.2-1.5-1.3-3.6-1.5-5.3-.5l-9.4 5.5c-2.2 1.3-3 4.1-1.7 6.3s4.1 3 6.3 1.7h.1l6.8-3.9c1.4 1 2.9 1.9 4.5 2.6v7.8c-.2 2.7 1.9 4.7 4.5 4.7z"/><path class="st2" d="M204 232.8c0-7.7-6.2-13.9-13.9-13.9s-13.9 6.2-13.9 13.9 6.2 13.9 13.9 13.9 13.9-6.2 13.9-13.9zm-18.6 0c0-2.6 2.1-4.6 4.6-4.6 2.6 0 4.6 2.1 4.6 4.6 0 2.6-2.1 4.6-4.6 4.6-2.5.1-4.6-2-4.6-4.6zM194.7 293.2h55.7c10.3 0 18.6-8.3 18.6-18.6v-9.3c0-2.6-2.1-4.6-4.6-4.6-2.6 0-4.6 2.1-4.6 4.6v9.3c0 5.1-4.2 9.3-9.3 9.3h-55.7c-2.6 0-4.6 2.1-4.6 4.6s1.9 4.7 4.5 4.7zM111.1 274.6c0 7.7 6.2 13.9 13.9 13.9s13.9-6.2 13.9-13.9-6.2-13.9-13.9-13.9-13.9 6.2-13.9 13.9zm18.6 0c0 2.6-2.1 4.6-4.6 4.6-2.6 0-4.6-2.1-4.6-4.6 0-2.6 2.1-4.6 4.6-4.6 2.5 0 4.6 2.1 4.6 4.6z"/></g><g id="Glance_2_lines_00000129917434519785201910000003041084559315176329_"><g id="Glance_00000073703387599264965980000001370645493996542848_"><g id="Glance_00000079453989370095130490000008709511076854733218_"><g id="_Jobs_in_advanced_economies_are_increasingly_for_high-skill_workers._00000014614393676603863830000017857082882302423980_"><path class="st3" d="M56 321.8h6.2v8.3h.1c1.1-1.2 2.9-2 4.7-2 4.6 0 6 3.9 6 8.6 0 4.7-1.7 8.6-6.3 8.6-1.7 0-3.5-.7-4.6-1.8H62l-.8 1.5H56v-3.5h1.9v-16H56v-3.7zm9.1 9.9c-1.4 0-2.4.6-3 1v8c.5.4 1.6 1.1 3 1.1 2.5 0 3.2-2.2 3.2-5 .1-2.9-.6-5.1-3.2-5.1zM74.5 321.8h6.2v19.6h1.9v3.5h-8.1v-3.5h1.9v-16h-1.9v-3.6zM82.6 328.4h6.2v10.3c0 1.9.9 3 2.6 3 1.4 0 2.6-.8 3.5-1.3V332h-2.1v-3.6h6.4v13h1.9v3.5h-6.2v-2.1h-.1c-1.4 1.5-3.2 2.5-5.4 2.5-3.3 0-5-2.1-5-5.5V332h-1.9v-3.6zM106.8 337.6c.1 2.5 1.6 4.1 4.7 4.1 1.4 0 3-.1 5.1-.7l.5 3.4c-2.2.6-4.1.8-6.3.8-6.3 0-8.6-3.4-8.6-8.6 0-5.2 2.2-8.6 8.5-8.6 7.1 0 7.5 4.9 6.8 9.5h-10.7zm0-2.7h6.5c.3-1.8-.1-3.5-2.8-3.5-2.4 0-3.5 1.4-3.7 3.5zM119.5 328.4h6.2v1.7h.1c1.1-1.2 2.9-2 4.7-2 4.6 0 6 3.9 6 8.6 0 4.7-1.7 8.6-6.3 8.6-1.7 0-3.3-.7-4.4-1.8h-.1v4.6h1.9v3.5h-8.1V348h1.9v-16h-1.9v-3.6zm9.2 3.3c-1.4 0-2.4.6-3 1v8c.5.4 1.6 1.1 3 1.1 2.5 0 3.2-2.2 3.2-5 0-2.9-.7-5.1-3.2-5.1zM138 328.4h6.2v2.6h.1c1.1-1.5 3.1-3 5.7-3v4.1c-2.2 0-4.5.6-5.8 1.3v8h2.1v3.5H138v-3.5h1.9V332H138v-3.6zM151.5 328.4h6.2v13h1.9v3.5h-8.1v-3.5h1.9V332h-1.9v-3.6zm6.2-6.6v4.6h-4.3v-4.6h4.3zM171.6 341.4h1.7v-6.8c0-1.9-.7-3-2.6-3-1.4 0-2.6.7-3.5 1.3v8.5h1.7v3.5h-7.8v-3.5h1.9V332h-1.9v-3.6h6.2v2.1h.1c1.4-1.5 3.2-2.5 5.4-2.5 3.3 0 5 2.1 5 5.5v7.8h1.9v3.5h-7.9v-3.4zM181.6 331.5h-2.2v-2.8l2.2-.3.5-4.6h3.8v4.6h4.1v3.1h-4.1v8c0 1.6.7 2.4 2.4 2.4.4 0 .9 0 1.5-.2l.4 3.3c-.9.2-2.5.3-3.4.3-3.8 0-5.2-1.6-5.2-5v-8.8zM198.7 341.4h1.9v-9.9h-2.2v-2.8l2.2-.3v-1.7c0-3.2 1.1-4.9 5.2-4.9.9 0 1.9.1 2.9.3l-.4 3.3c-.6-.1-1.1-.2-1.5-.2-1.5 0-1.9.4-1.9 1.8v1.4h3.5v3.1h-3.5v9.9h2.1v3.5h-8.3v-3.5zM209.7 336.7c0-5.2 2.2-8.6 8-8.6s8 3.4 8 8.6c0 5.2-2.2 8.6-8 8.6-5.7 0-8-3.4-8-8.6zm4.6 0c0 3.1.8 5 3.5 5s3.5-2 3.5-5-.8-5-3.5-5-3.5 1.9-3.5 5zM227.3 328.4h6.2v2.6h.1c1.1-1.5 3.1-3 5.7-3v4.1c-2.2 0-4.5.6-5.8 1.3v8h2.1v3.5h-8.3v-3.5h1.9V332h-1.9v-3.6zM248.6 333.5v-4.6c2.3-.5 4.8-.8 6.8-.8 4.2 0 6.5 1.1 6.5 5.5v7.8h1.9v3.5h-6.2v-1.6h-.1c-1.5 1.5-3.3 2.1-5.3 1.9-2.8-.2-4.6-2.1-4.6-5 0-3.8 3.1-5.1 6.9-5.1h3.1v-1.2c0-1.7-1.1-2.2-3.2-2.2-.6 0-1.3 0-2.3.2v1.6h-3.5zm9 4.1h-2.4c-2.1 0-3.3.5-3.3 2.2 0 1.5 1.2 2.1 2.6 2.1 1.4 0 2.6-.6 3.2-1v-3.3zM275.7 333.5v-1.6c-.9-.2-1.6-.2-2.2-.2-2.6 0-4 1.7-4 5s1.4 5 4 5c1.2 0 2.3 0 5-.7l.8 3.4c-2 .5-3.7.8-5.8.8-6.4 0-8.5-3.4-8.5-8.6 0-5.2 2.1-8.6 8.5-8.6 2.1 0 3.8.3 5.8.8v4.6h-3.6zM283 331.5h-2.2v-2.8l2.2-.3.5-4.6h3.8v4.6h4.1v3.1h-4.1v8c0 1.6.7 2.4 2.4 2.4.4 0 .9 0 1.5-.2l.4 3.3c-.9.2-2.5.3-3.4.3-3.8 0-5.2-1.6-5.2-5v-8.8zM293.5 328.4h6.2v13h1.9v3.5h-8.1v-3.5h1.9V332h-1.9v-3.6zm6.2-6.6v4.6h-4.3v-4.6h4.3zM302.8 336.7c0-5.2 2.2-8.6 8-8.6s8 3.4 8 8.6c0 5.2-2.2 8.6-8 8.6s-8-3.4-8-8.6zm4.6 0c0 3.1.8 5 3.5 5s3.5-2 3.5-5-.8-5-3.5-5c-2.8 0-3.5 1.9-3.5 5zM331 341.4h1.6v-6.8c0-1.9-.7-3-2.6-3-1.4 0-2.6.7-3.5 1.3v8.5h1.7v3.5h-7.8v-3.5h1.9V332h-1.9v-3.6h6.2v2.1h.1c1.4-1.5 3.2-2.5 5.4-2.5 3.3 0 5 2.1 5 5.5v7.8h1.9v3.5h-8v-3.4zM348.7 331.5h-2.2v-2.8l2.2-.3.5-4.6h3.8v4.6h4.1v3.1H353v8c0 1.6.7 2.4 2.4 2.4.4 0 .9 0 1.5-.2l.4 3.3c-.9.2-2.5.3-3.4.3-3.8 0-5.2-1.6-5.2-5v-8.8zM369.8 341.4h1.7v-6.8c0-1.9-.7-3-2.6-3-1.4 0-2.6.7-3.5 1.3v8.5h1.7v3.5h-7.8v-3.5h1.9v-16h-1.9v-3.6h6.2v8.7h.1c1.4-1.5 3.2-2.5 5.4-2.5 3.3 0 5 2.1 5 5.5v7.8h1.9v3.5H370v-3.4zM380.1 333.5v-4.6c2.3-.5 4.8-.8 6.8-.8 4.2 0 6.5 1.1 6.5 5.5v7.8h1.9v3.5h-6.2v-1.6h-.1c-1.5 1.5-3.3 2.1-5.3 1.9-2.8-.2-4.6-2.1-4.6-5 0-3.8 3.1-5.1 6.9-5.1h3.1v-1.2c0-1.7-1.1-2.2-3.2-2.2-.6 0-1.3 0-2.3.2v1.6h-3.5zm9 4.1h-2.4c-2.1 0-3.3.5-3.3 2.2 0 1.5 1.2 2.1 2.6 2.1 1.4 0 2.6-.6 3.2-1v-3.3zM397.5 331.5h-2.2v-2.8l2.2-.3.5-4.6h3.8v4.6h4.1v3.1h-4.1v8c0 1.6.7 2.4 2.4 2.4.4 0 .9 0 1.5-.2l.4 3.3c-.9.2-2.5.3-3.4.3-3.8 0-5.2-1.6-5.2-5v-8.8zM432.7 328.4h7.3v3.6h-1.3l-4 13.1h-4.6l-3-9.4h-.1l-2.6 9.4h-4.6l-4.3-13.1h-1.3v-3.6h8v3.6h-2.1l2.4 8.3h.1l3.1-11.9h3.5l3.3 12.1h.1l1.9-8.5h-1.8v-3.6zM440.9 336.7c0-5.2 2.2-8.6 8-8.6s8 3.4 8 8.6c0 5.2-2.2 8.6-8 8.6s-8-3.4-8-8.6zm4.6 0c0 3.1.8 5 3.5 5s3.5-2 3.5-5-.8-5-3.5-5c-2.8 0-3.5 1.9-3.5 5zM458.5 328.4h6.2v2.6h.1c1.1-1.5 3.1-3 5.7-3v4.1c-2.2 0-4.5.6-5.8 1.3v8h2.1v3.5h-8.3v-3.5h1.9V332h-1.9v-3.6zM472 321.8h6.2v14.3l5.5-4.1h-1.4v-3.6h8.3v3.6h-2l-3.7 2.7 4.5 6.7h1.6v3.5h-8.3v-3.5h1.3l-2.7-4.4-3 2.3v2h1.9v3.5H472v-3.5h1.9v-16H472v-3.5zM502 333.5v-1.7c-1.3-.2-2.4-.3-3.1-.3-2 0-2.5.8-2.5 1.4 0 .8.5 1.2 2.7 1.7 3.1.7 7 1.5 7 5.3 0 3.6-2.5 5.3-6.5 5.3-2.7 0-5.5-.3-7.5-.8v-4.6h3.6v1.7c1.4.3 2.7.3 3.5.3 2.1 0 2.7-1 2.7-1.6 0-.8-.9-1.2-2.8-1.6-3.7-.6-6.8-1.8-6.8-5.6 0-3.5 2.5-5 6.5-5 2.7 0 5 .3 6.9.8v4.6H502zM57.5 379.7c0-5.2 2.2-8.6 8-8.6s8 3.4 8 8.6c0 5.2-2.2 8.6-8 8.6s-8-3.4-8-8.6zm4.6 0c0 3.1.8 5 3.5 5s3.5-2 3.5-5-.8-5-3.5-5c-2.8 0-3.5 1.9-3.5 5zM85.7 384.4h1.7v-6.8c0-1.9-.7-3-2.6-3-1.4 0-2.6.7-3.5 1.3v8.5h1.6v3.5h-7.8v-3.5H77V375h-1.9v-3.6h6.2v2.1h.1c1.4-1.5 3.2-2.5 5.4-2.5 3.3 0 5 2.1 5 5.5v7.8h1.9v3.5h-7.9v-3.4zM94.9 364.8h6.2v19.6h1.9v3.5h-8.1v-3.5h1.9v-16h-1.9v-3.6zM113.8 371.4h7.3v3.6h-1.2l-5.5 13.4c-1.5 3.5-3.6 6.5-7.2 6.5-.9 0-2.1-.1-2.9-.3l.4-3.4c.5.1 1.2.2 1.6.2 1.7 0 3-1.2 3.6-3l-5.4-13.3H103v-3.6h8v3.6h-1.9l3.4 9.1h.1l3-9.1h-1.8v-3.7zM128.7 371.4h6.2v13h1.9v3.5h-8.1v-3.5h1.9V375h-1.9v-3.6zm6.1-6.6v4.6h-4.3v-4.6h4.3zM138.4 384.4h1.9v-9.9h-2.2v-2.8l2.2-.3v-1.7c0-3.2 1.1-4.9 5.2-4.9.9 0 1.9.1 2.9.3l-.4 3.3c-.6-.1-1.1-.2-1.5-.2-1.5 0-1.9.4-1.9 1.8v1.4h3.5v3.1h-3.5v9.9h2.1v3.5h-8.3v-3.5zM158.2 374.5H156v-2.8l2.2-.3.5-4.6h3.8v4.6h4.1v3.1h-4.1v8c0 1.6.7 2.4 2.4 2.4.4 0 .9 0 1.5-.2l.4 3.3c-.9.2-2.5.3-3.4.3-3.8 0-5.2-1.6-5.2-5v-8.8zM179.3 384.4h1.6v-6.8c0-1.9-.7-3-2.6-3-1.4 0-2.6.7-3.5 1.3v8.5h1.6v3.5h-7.8v-3.5h1.9v-16h-1.9v-3.6h6.2v8.7h.1c1.4-1.5 3.2-2.5 5.4-2.5 3.3 0 5 2.1 5 5.5v7.8h1.9v3.5h-7.9v-3.4zM192.9 380.6c.1 2.5 1.6 4.1 4.7 4.1 1.4 0 3-.1 5.1-.7l.5 3.4c-2.2.6-4.1.8-6.3.8-6.3 0-8.6-3.4-8.6-8.6 0-5.2 2.2-8.6 8.5-8.6 7.1 0 7.5 4.9 6.8 9.5h-10.7zm0-2.7h6.5c.3-1.8-.1-3.5-2.8-3.5-2.4 0-3.5 1.4-3.7 3.5zM211.9 364.8h6.2v14.3l5.5-4.1h-1.4v-3.6h8.3v3.6h-2l-3.7 2.7 4.5 6.7h1.6v3.5h-8.3v-3.5h1.3l-2.7-4.4-3 2.3v2h1.9v3.5H212v-3.5h1.9v-16H212v-3.5zM236.2 380.6c.1 2.5 1.6 4.1 4.7 4.1 1.4 0 3-.1 5.1-.7l.5 3.4c-2.2.6-4.1.8-6.3.8-6.3 0-8.6-3.4-8.6-8.6 0-5.2 2.2-8.6 8.5-8.6 7.1 0 7.5 4.9 6.8 9.5h-10.7zm0-2.7h6.5c.3-1.8-.1-3.5-2.8-3.5-2.4 0-3.5 1.4-3.7 3.5zM258.9 371.4h7.3v3.6H265l-5.5 13.4c-1.5 3.5-3.6 6.5-7.2 6.5-.9 0-2.1-.1-2.9-.3l.4-3.4c.5.1 1.2.2 1.6.2 1.7 0 3-1.2 3.6-3l-5.4-13.3h-1.4v-3.6h8v3.6h-1.9l3.4 9.1h.1l3-9.1H259v-3.7zM273.8 371.4h6.2v1.7h.1c1.1-1.2 2.9-2 4.7-2 4.6 0 6 3.9 6 8.6 0 4.7-1.7 8.6-6.3 8.6-1.7 0-3.3-.7-4.4-1.8h-.1v4.6h1.9v3.5h-8.1V391h1.9v-16h-1.9v-3.6zm9.1 3.3c-1.4 0-2.4.6-3 1v8c.5.4 1.6 1.1 3 1.1 2.5 0 3.2-2.2 3.2-5 0-2.9-.7-5.1-3.2-5.1zM292.2 364.8h6.2v19.6h1.9v3.5h-8.1v-3.5h1.9v-16h-1.9v-3.6zM302.8 376.5v-4.6c2.3-.5 4.8-.8 6.8-.8 4.2 0 6.5 1.1 6.5 5.5v7.8h1.9v3.5h-6.2v-1.6h-.1c-1.5 1.5-3.3 2.1-5.3 1.9-2.8-.2-4.6-2.1-4.6-5 0-3.8 3.1-5.1 6.9-5.1h3.1v-1.2c0-1.7-1.1-2.2-3.2-2.2-.6 0-1.3 0-2.3.2v1.6h-3.5zm9 4.1h-2.4c-2.1 0-3.3.5-3.3 2.2 0 1.5 1.2 2.1 2.6 2.1 1.4 0 2.6-.6 3.2-1v-3.3zM328.6 371.4h7.3v3.6h-1.2l-5.5 13.4c-1.5 3.5-3.6 6.5-7.2 6.5-.9 0-2.1-.1-2.9-.3l.4-3.4c.5.1 1.2.2 1.6.2 1.7 0 3-1.2 3.6-3l-5.4-13.3h-1.4v-3.6h8v3.6H324l3.4 9.1h.1l3-9.1h-1.8v-3.7zM341.4 380.6c.1 2.5 1.6 4.1 4.7 4.1 1.4 0 3-.1 5.1-.7l.5 3.4c-2.2.6-4.1.8-6.3.8-6.3 0-8.6-3.4-8.6-8.6 0-5.2 2.2-8.6 8.5-8.6 7.1 0 7.5 4.9 6.8 9.5h-10.7zm0-2.7h6.5c.3-1.8-.1-3.5-2.8-3.5-2.4 0-3.5 1.4-3.7 3.5zM354.1 371.4h6.2v2.6h.1c1.1-1.5 3.1-3 5.7-3v4.1c-2.2 0-4.5.6-5.8 1.3v8h2.1v3.5h-8.3v-3.5h1.9V375h-1.9v-3.6zM378 376.5v-1.7c-1.3-.2-2.4-.3-3.1-.3-2 0-2.5.8-2.5 1.4 0 .8.5 1.2 2.7 1.7 3.1.7 7 1.5 7 5.3 0 3.6-2.5 5.3-6.5 5.3-2.7 0-5.5-.3-7.5-.8v-4.6h3.6v1.7c1.4.3 2.7.3 3.5.3 2.1 0 2.7-1 2.7-1.6 0-.8-.9-1.2-2.8-1.6-3.7-.6-6.8-1.8-6.8-5.6 0-3.5 2.5-5 6.5-5 2.7 0 5 .3 6.9.8v4.6H378zM391.5 376.5v-4.6c2.3-.5 4.8-.8 6.8-.8 4.2 0 6.5 1.1 6.5 5.5v7.8h1.9v3.5h-6.2v-1.6h-.1c-1.5 1.5-3.3 2.1-5.3 1.9-2.8-.2-4.6-2.1-4.6-5 0-3.8 3.1-5.1 6.9-5.1h3.1v-1.2c0-1.7-1.1-2.2-3.2-2.2-.6 0-1.3 0-2.3.2v1.6h-3.5zm9.1 4.1h-2.4c-2.1 0-3.3.5-3.3 2.2 0 1.5 1.2 2.1 2.6 2.1 1.4 0 2.6-.6 3.2-1v-3.3zM408.1 371.4h6.2v2.6h.1c1.1-1.5 3.1-3 5.7-3v4.1c-2.2 0-4.5.6-5.8 1.3v8h2.1v3.5h-8.3v-3.5h1.9V375h-1.9v-3.6zM425.7 380.6c.1 2.5 1.6 4.1 4.7 4.1 1.4 0 3-.1 5.1-.7l.5 3.4c-2.2.6-4.1.8-6.3.8-6.3 0-8.6-3.4-8.6-8.6 0-5.2 2.2-8.6 8.5-8.6 7.1 0 7.5 4.9 6.8 9.5h-10.7zm0-2.7h6.5c.3-1.8-.1-3.5-2.8-3.5-2.4 0-3.5 1.4-3.7 3.5zM446.2 376.5v-4.6c2.3-.5 4.8-.8 6.8-.8 4.2 0 6.5 1.1 6.5 5.5v7.8h1.9v3.5h-6.2v-1.6h-.1c-1.5 1.5-3.3 2.1-5.3 1.9-2.8-.2-4.6-2.1-4.6-5 0-3.8 3.1-5.1 6.9-5.1h3.1v-1.2c0-1.7-1.1-2.2-3.2-2.2-.6 0-1.3 0-2.3.2v1.6h-3.5zm9 4.1h-2.4c-2.1 0-3.3.5-3.3 2.2 0 1.5 1.2 2.1 2.6 2.1 1.4 0 2.6-.6 3.2-1v-3.3zM462.7 364.8h6.2v8.3h.1c1.1-1.2 2.9-2 4.7-2 4.6 0 6 3.9 6 8.6 0 4.7-1.7 8.6-6.3 8.6-1.7 0-3.5-.7-4.6-1.8h-.1l-.8 1.5h-5.2v-3.5h1.9v-16h-1.9v-3.7zm9.1 9.9c-1.4 0-2.4.6-3 1v8c.5.4 1.6 1.1 3 1.1 2.5 0 3.2-2.2 3.2-5 .1-2.9-.6-5.1-3.2-5.1zM481.2 364.8h6.2v19.6h1.9v3.5h-8.1v-3.5h1.9v-16h-1.9v-3.6zM495 380.6c.1 2.5 1.6 4.1 4.7 4.1 1.4 0 3-.1 5.1-.7l.5 3.4c-2.2.6-4.1.8-6.3.8-6.3 0-8.6-3.4-8.6-8.6 0-5.2 2.2-8.6 8.5-8.6 7.1 0 7.5 4.9 6.8 9.5H495zm0-2.7h6.5c.3-1.8-.1-3.5-2.8-3.5-2.4 0-3.5 1.4-3.7 3.5zM58 417.5h-2.2v-2.8l2.2-.3.5-4.6h3.8v4.6h4.1v3.1h-4.1v8c0 1.6.7 2.4 2.4 2.4.4 0 .9 0 1.5-.2l.4 3.3c-.9.2-2.5.3-3.4.3-3.8 0-5.2-1.6-5.2-5v-8.8zM67.9 422.7c0-5.2 2.2-8.6 8-8.6s8 3.4 8 8.6c0 5.2-2.2 8.6-8 8.6s-8-3.4-8-8.6zm4.6 0c0 3.1.8 5 3.5 5s3.5-2 3.5-5-.8-5-3.5-5c-2.8 0-3.5 1.9-3.5 5zM92.1 414.4h6.2v10.3c0 1.9.9 3 2.6 3 1.4 0 2.6-.8 3.5-1.3V418h-2.1v-3.6h6.4v13h1.9v3.5h-6.2v-2.1h-.1c-1.4 1.5-3.2 2.5-5.4 2.5-3.3 0-5-2.1-5-5.5V418H92v-3.6zM122.5 427.4h1.7v-6.8c0-1.9-.7-3-2.6-3-1.4 0-2.6.7-3.5 1.3v8.5h1.7v3.5H112v-3.5h1.9V418H112v-3.6h6.2v2.1h.1c1.4-1.5 3.2-2.5 5.4-2.5 3.3 0 5 2.1 5 5.5v7.8h1.9v3.5h-7.9v-3.4zM140.4 407.8h6.2v19.6h1.9v3.5h-6.2v-1.6h-.1c-1 1.2-2.8 2-4.6 2-4.6 0-6-3.9-6-8.6 0-4.7 1.7-8.6 6.3-8.6 1.7 0 3.4.7 4.4 1.8h.1v-4.6h-1.9v-3.5zm-1 19.9c1.4 0 2.5-.6 3-1.1v-8c-.5-.4-1.6-1-3-1-2.5 0-3.2 2.2-3.2 5 0 2.9.6 5.1 3.2 5.1zM154.3 423.6c.1 2.5 1.6 4.1 4.7 4.1 1.4 0 3-.1 5.1-.7l.5 3.4c-2.2.6-4.1.8-6.3.8-6.3 0-8.6-3.4-8.6-8.6 0-5.2 2.2-8.6 8.5-8.6 7.1 0 7.5 4.9 6.8 9.5h-10.7zm0-2.7h6.5c.3-1.8-.1-3.5-2.8-3.5-2.4 0-3.5 1.4-3.7 3.5zM167 414.4h6.2v2.6h.1c1.1-1.5 3.1-3 5.7-3v4.1c-2.2 0-4.5.6-5.8 1.3v8h2.1v3.5H167v-3.5h1.9V418H167v-3.6zM190.9 419.5v-1.7c-1.3-.2-2.4-.3-3.1-.3-2 0-2.5.8-2.5 1.4 0 .8.5 1.2 2.7 1.7 3.1.7 7 1.5 7 5.3 0 3.6-2.5 5.3-6.5 5.3-2.7 0-5.5-.3-7.5-.8v-4.6h3.6v1.7c1.4.3 2.7.3 3.5.3 2.1 0 2.7-1 2.7-1.6 0-.8-.9-1.2-2.8-1.6-3.7-.6-6.8-1.8-6.8-5.6 0-3.5 2.5-5 6.5-5 2.7 0 5 .3 6.9.8v4.6h-3.7zM198.9 417.5h-2.2v-2.8l2.2-.3.5-4.6h3.8v4.6h4.1v3.1h-4.1v8c0 1.6.7 2.4 2.4 2.4.4 0 .9 0 1.5-.2l.4 3.3c-.9.2-2.5.3-3.4.3-3.8 0-5.2-1.6-5.2-5v-8.8zM210 419.5v-4.6c2.3-.5 4.8-.8 6.8-.8 4.2 0 6.5 1.1 6.5 5.5v7.8h1.9v3.5H219v-1.6c-1.5 1.5-3.3 2.1-5.3 1.9-2.8-.2-4.6-2.1-4.6-5 0-3.8 3.1-5.1 6.9-5.1h3.1v-1.2c0-1.7-1.1-2.2-3.2-2.2-.6 0-1.3 0-2.3.2v1.6H210zm9.1 4.1h-2.4c-2.1 0-3.3.5-3.3 2.2 0 1.5 1.2 2.1 2.6 2.1 1.4 0 2.6-.6 3.2-1v-3.3zM237.2 427.4h1.7v-6.8c0-1.9-.7-3-2.6-3-1.4 0-2.6.7-3.5 1.3v8.5h1.7v3.5h-7.8v-3.5h1.9V418h-1.9v-3.6h6.2v2.1h.1c1.4-1.5 3.2-2.5 5.4-2.5 3.3 0 5 2.1 5 5.5v7.8h1.9v3.5h-7.9v-3.4zM255.1 407.8h6.2v19.6h1.9v3.5H257v-1.6h-.1c-1 1.2-2.8 2-4.6 2-4.6 0-6-3.9-6-8.6 0-4.7 1.6-8.6 6.3-8.6 1.7 0 3.4.7 4.4 1.8h.1v-4.6h-1.9v-3.5zm-1.1 19.9c1.4 0 2.5-.6 3-1.1v-8c-.5-.4-1.6-1-3-1-2.5 0-3.2 2.2-3.2 5 0 2.9.7 5.1 3.2 5.1zM272.2 419.5v-4.6c2.3-.5 4.8-.8 6.8-.8 4.2 0 6.5 1.1 6.5 5.5v7.8h1.9v3.5h-6.2v-1.6h-.1c-1.5 1.5-3.3 2.1-5.3 1.9-2.8-.2-4.6-2.1-4.6-5 0-3.8 3.1-5.1 6.9-5.1h3.1v-1.2c0-1.7-1.1-2.2-3.2-2.2-.6 0-1.3 0-2.3.2v1.6h-3.5zm9.1 4.1h-2.4c-2.1 0-3.3.5-3.3 2.2 0 1.5 1.2 2.1 2.6 2.1 1.4 0 2.6-.6 3.2-1v-3.3zM299.4 427.4h1.7v-6.8c0-1.9-.7-3-2.6-3-1.4 0-2.6.7-3.5 1.3v8.5h1.6v3.5h-7.8v-3.5h1.9V418h-1.9v-3.6h6.2v2.1h.1c1.4-1.5 3.2-2.5 5.4-2.5 3.3 0 5 2.1 5 5.5v7.8h1.9v3.5h-7.9v-3.4zM317.3 407.8h6.2v19.6h1.9v3.5h-6.2v-1.6h-.1c-1 1.2-2.8 2-4.6 2-4.6 0-6-3.9-6-8.6 0-4.7 1.7-8.6 6.3-8.6 1.7 0 3.4.7 4.4 1.8h.1v-4.6h-1.9v-3.5zm-1.1 19.9c1.4 0 2.5-.6 3-1.1v-8c-.5-.4-1.6-1-3-1-2.5 0-3.2 2.2-3.2 5 0 2.9.7 5.1 3.2 5.1zM338.1 423.6c.1 2.5 1.6 4.1 4.7 4.1 1.4 0 3-.1 5.1-.7l.5 3.4c-2.2.6-4.1.8-6.3.8-6.3 0-8.6-3.4-8.6-8.6 0-5.2 2.2-8.6 8.5-8.6 7.1 0 7.5 4.9 6.8 9.5h-10.7zm0-2.7h6.5c.3-1.8-.1-3.5-2.8-3.5-2.4 0-3.5 1.4-3.7 3.5zM362 414.4h6.8v3.6h-1.4l-4.7 4.8 4.6 4.6h1.8v3.5h-9v-3.5h1.4l-3-3.2-2.9 3.2h1.5v3.5h-7v-3.5h1.4l4.8-5.1-4.3-4.3h-1.6v-3.6h8.8v3.6h-1.4l2.8 2.9 2.7-2.9H362v-3.6zM374.6 423.6c.1 2.5 1.6 4.1 4.7 4.1 1.4 0 3-.1 5.1-.7l.5 3.4c-2.2.6-4.1.8-6.3.8-6.3 0-8.6-3.4-8.6-8.6 0-5.2 2.2-8.6 8.5-8.6 7.1 0 7.5 4.9 6.8 9.5h-10.7zm0-2.7h6.5c.3-1.8-.1-3.5-2.8-3.5-2.4 0-3.5 1.4-3.7 3.5zM398.6 419.5v-1.6c-.9-.2-1.6-.2-2.2-.2-2.6 0-4 1.7-4 5s1.4 5 4 5c1.2 0 2.3 0 5-.7l.8 3.4c-2 .5-3.7.8-5.8.8-6.4 0-8.5-3.4-8.5-8.6 0-5.2 2.1-8.6 8.5-8.6 2.1 0 3.8.3 5.8.8v4.6h-3.6zM403.6 414.4h6.2v10.3c0 1.9.9 3 2.6 3 1.4 0 2.6-.8 3.5-1.3V418h-2.1v-3.6h6.4v13h1.9v3.5h-6.2v-2.1h-.1c-1.4 1.5-3.2 2.5-5.4 2.5-3.3 0-5-2.1-5-5.5V418h-1.9v-3.6zM424.6 417.5h-2.2v-2.8l2.2-.3.5-4.6h3.8v4.6h4.1v3.1h-4.1v8c0 1.6.7 2.4 2.4 2.4.4 0 .9 0 1.5-.2l.4 3.3c-.9.2-2.5.3-3.4.3-3.8 0-5.2-1.6-5.2-5v-8.8zM439.1 423.6c.1 2.5 1.6 4.1 4.7 4.1 1.4 0 3-.1 5.1-.7l.5 3.4c-2.2.6-4.1.8-6.3.8-6.3 0-8.6-3.4-8.6-8.6 0-5.2 2.2-8.6 8.5-8.6 7.1 0 7.5 4.9 6.8 9.5h-10.7zm0-2.7h6.5c.3-1.8-.1-3.5-2.8-3.5-2.4 0-3.5 1.4-3.7 3.5zM460.3 417.5h-2.2v-2.8l2.2-.3.5-4.6h3.8v4.6h4.1v3.1h-4.1v8c0 1.6.7 2.4 2.4 2.4.4 0 .9 0 1.5-.2l.4 3.3c-.9.2-2.5.3-3.4.3-3.8 0-5.2-1.6-5.2-5v-8.8zM481.4 427.4h1.7v-6.8c0-1.9-.7-3-2.6-3-1.4 0-2.6.7-3.5 1.3v8.5h1.6v3.5h-7.8v-3.5h1.9v-16h-1.9v-3.6h6.2v8.7h.1c1.4-1.5 3.2-2.5 5.4-2.5 3.3 0 5 2.1 5 5.5v7.8h1.9v3.5h-7.9v-3.4zM495 423.6c.1 2.5 1.6 4.1 4.7 4.1 1.4 0 3-.1 5.1-.7l.5 3.4c-2.2.6-4.1.8-6.3.8-6.3 0-8.6-3.4-8.6-8.6 0-5.2 2.2-8.6 8.5-8.6 7.1 0 7.5 4.9 6.8 9.5H495zm0-2.7h6.5c.3-1.8-.1-3.5-2.8-3.5-2.4 0-3.5 1.4-3.7 3.5zM255.7 457.4h6.2v1.7h.1c1.1-1.2 2.9-2 4.7-2 4.6 0 6 3.9 6 8.6 0 4.7-1.7 8.6-6.3 8.6-1.6 0-3.3-.7-4.4-1.8h-.1v4.6h1.9v3.5h-8.1V477h1.9v-16h-1.9v-3.6zm9.1 3.3c-1.4 0-2.4.6-3 1v8c.5.4 1.6 1.1 3 1.1 2.5 0 3.2-2.2 3.2-5 .1-2.9-.6-5.1-3.2-5.1zM274.2 450.8h6.2v19.6h1.9v3.5h-8.1v-3.5h1.9v-16h-1.9v-3.6zM284.7 462.5v-4.6c2.3-.5 4.8-.8 6.8-.8 4.2 0 6.5 1.1 6.5 5.5v7.8h1.9v3.5h-6.2v-1.6h-.1c-1.5 1.5-3.3 2.1-5.3 1.9-2.8-.2-4.6-2.1-4.6-5 0-3.8 3.1-5.1 6.9-5.1h3.1v-1.2c0-1.7-1.1-2.2-3.2-2.2-.6 0-1.3 0-2.3.2v1.6h-3.5zm9 4.1h-2.4c-2.1 0-3.3.5-3.3 2.2 0 1.5 1.2 2.1 2.6 2.1 1.4 0 2.6-.6 3.2-1v-3.3zM311.8 470.4h1.7v-6.8c0-1.9-.7-3-2.6-3-1.4 0-2.6.7-3.5 1.3v8.5h1.6v3.5h-7.8v-3.5h1.9V461h-1.9v-3.6h6.2v2.1h.1c1.4-1.5 3.2-2.5 5.4-2.5 3.3 0 5 2.1 5 5.5v7.8h1.9v3.5h-7.9v-3.4zM328.7 462.5v-4.6c2.3-.5 4.8-.8 6.8-.8 4.2 0 6.5 1.1 6.5 5.5v7.8h1.9v3.5h-6.2v-1.6h-.1c-1.5 1.5-3.3 2.1-5.3 1.9-2.8-.2-4.6-2.1-4.6-5 0-3.8 3.1-5.1 6.9-5.1h3.1v-1.2c0-1.7-1.1-2.2-3.2-2.2-.6 0-1.3 0-2.3.2v1.6h-3.5zm9.1 4.1h-2.4c-2.1 0-3.3.5-3.3 2.2 0 1.5 1.2 2.1 2.6 2.1 1.4 0 2.6-.6 3.2-1v-3.3zM355.9 462.5v-1.6c-.9-.2-1.6-.2-2.2-.2-2.6 0-4 1.7-4 5s1.4 5 4 5c1.2 0 2.3 0 5-.7l.8 3.4c-2 .5-3.7.8-5.8.8-6.4 0-8.5-3.4-8.5-8.6 0-5.2 2.1-8.6 8.5-8.6 2.1 0 3.8.3 5.8.8v4.6h-3.6zM371.9 462.5v-1.6c-.9-.2-1.6-.2-2.2-.2-2.6 0-4 1.7-4 5s1.4 5 4 5c1.2 0 2.3 0 5-.7l.8 3.4c-2 .5-3.7.8-5.8.8-6.4 0-8.5-3.4-8.5-8.6 0-5.2 2.1-8.6 8.5-8.6 2.1 0 3.8.3 5.8.8v4.6h-3.6zM377.2 465.7c0-5.2 2.2-8.6 8-8.6s8 3.4 8 8.6c0 5.2-2.2 8.6-8 8.6s-8-3.4-8-8.6zm4.5 0c0 3.1.8 5 3.5 5s3.5-2 3.5-5-.8-5-3.5-5-3.5 1.9-3.5 5zM394.8 457.4h6.2v2.6h.1c1.1-1.5 3.1-3 5.7-3v4.1c-2.2 0-4.5.6-5.8 1.3v8h2.1v3.5h-8.3v-3.5h1.9V461h-1.9v-3.6zM416.7 450.8h6.2v19.6h1.9v3.5h-6.2v-1.6h-.1c-1 1.2-2.8 2-4.6 2-4.6 0-6-3.9-6-8.6 0-4.7 1.7-8.6 6.3-8.6 1.7 0 3.4.7 4.4 1.8h.1v-4.6h-1.9v-3.5zm-1.1 19.9c1.4 0 2.5-.6 3-1.1v-8c-.5-.4-1.6-1-3-1-2.5 0-3.2 2.2-3.2 5 0 2.9.7 5.1 3.2 5.1zM426.1 457.4h6.2v13h1.9v3.5h-8.1v-3.5h1.9V461h-1.9v-3.6zm6.2-6.6v4.6H428v-4.6h4.3zM446.2 470.4h1.7v-6.8c0-1.9-.7-3-2.6-3-1.4 0-2.6.7-3.5 1.3v8.5h1.7v3.5h-7.8v-3.5h1.9V461h-1.9v-3.6h6.2v2.1h.1c1.4-1.5 3.2-2.5 5.4-2.5 3.3 0 5 2.1 5 5.5v7.8h1.9v3.5h-7.9v-3.4zM457.4 473.1c-2.1-1.3-1.7-4.2 1.2-5.7v-.1c-1.7-.8-2.7-2.5-2.7-4.6 0-3.8 2.7-5.6 7-5.6.9 0 1.7.1 2.4.3h6.1v2.6h-2.6c.8.7 1 1.6 1 2.7 0 3.8-2.9 5.5-6.8 5.5-.6 0-1.4-.1-2.1-.3-.8 1.1-.9 2.2.4 2.3l5.4.3c3.4.1 5.2 1.7 5.2 4.4 0 4.1-3.1 6-9.9 6-4.9 0-7.1-1.4-7.1-4.3-.1-1.4.7-2.5 2.5-3.5zm5.2 4.8c2.4 0 4.6-.6 4.6-2.3 0-.8-.6-1.4-2-1.5l-5.6-.3c-.6.6-1.1 1-1.1 2 0 1.8 1.8 2.1 4.1 2.1zm3.1-15.2c0-1.8-1.2-2.7-2.8-2.7-1.7 0-2.8.8-2.8 2.7 0 1.8 1.2 2.6 2.8 2.6 1.6 0 2.8-.7 2.8-2.6zM472.8 450.8h6.2v19.6h1.9v3.5h-8.1v-3.5h1.9v-16h-1.9v-3.6zM491.7 457.4h7.3v3.6h-1.2l-5.5 13.4c-1.5 3.5-3.6 6.5-7.2 6.5-.9 0-2.1-.1-2.9-.3l.4-3.4c.5.1 1.2.2 1.6.2 1.7 0 3-1.2 3.6-3l-5.4-13.3H481v-3.6h8v3.6h-2l3.4 9.1h.1l3-9.1h-1.8v-3.7zM505.5 469.1v4.8h-4.3v-4.8h4.3z"/></g></g></g></g><g id="Glance_2_lines_00000058552832524662778230000010523919754080262820_"><g id="Glance_00000000209544967203001750000017321228947890308754_"><g id="Glance_00000083061876830347606460000008925873185058332862_"><g id="_Jobs_in_advanced_economies_are_increasingly_for_high-skill_workers._00000061441180254217076180000010689526342723225022_"><path class="st4" d="m142.3 265.1 4.1 12.1h1.1v1.5h-4.7v-1.5h1.5l-.9-2.6h-5.1l-.9 2.6h1.5v1.5h-4.6v-1.5h1.3l3.7-10.6h-1.5v-1.5h4.5zm-1.4 1.7-2.2 6.4h4.4l-2.2-6.4zM151.8 264.7h3.1v5c.7-.7 1.9-1.2 3.1-1.2 2.8 0 3.7 2.3 3.7 5.2 0 2.9-1 5.2-3.8 5.2-1.1 0-2.3-.4-3.1-1.1l-.3.9h-2.7v-1.5h1.3v-11h-1.3v-1.5zm5.5 5.3c-1.1 0-2 .5-2.4.9v5.7c.4.3 1.3.8 2.4.8 1.9 0 2.5-1.7 2.5-3.7s-.5-3.7-2.5-3.7zM162.6 268.7h3.1v6.5c0 1.3.5 2.2 2 2.2 1.1 0 2.2-.7 2.8-1.1v-6.1h-1.6v-1.5h3.4v8.5h1.3v1.5h-3.1v-1.4c-1 1-2.2 1.6-3.6 1.6-2 0-3-1.2-3-3.3v-5.4h-1.3v-1.5zM181.1 271.4v-1.2c-1-.2-1.9-.2-2.4-.2-1.8 0-2 1-2 1.3 0 .6.3 1.2 2.1 1.5 2.1.5 4 1 4 3.1 0 2-1.4 3-3.7 3-1.6 0-3.1-.1-4.3-.4V276h1.5v1.2c1 .2 2.1.2 2.6.2 1.8 0 2.1-1.1 2.1-1.5 0-.7-.5-1.2-2.3-1.5-2.1-.4-3.8-1.1-3.8-3.2 0-1.9 1.3-2.8 3.7-2.8 1.5 0 2.8.2 4 .5v2.4h-1.5zM184 268.7h3.1v8.5h1.3v1.5H184v-1.5h1.3v-7H184v-1.5zm3.1-4v2.5h-1.8v-2.5h1.8zM195.9 277.2h1.2v-5c0-1.3-.5-2.2-2-2.2-1.2 0-2.2.7-2.8 1.2v6h1.2v1.5h-4.3v-1.5h1.3v-7h-1.3v-1.5h3.1v1.4c1-.9 2.2-1.6 3.6-1.6 2 0 3 1.2 3 3.3v5.4h1.3v1.5h-4.3v-1.5zM203 274c0 2 1 3.4 3.3 3.4 1 0 2 0 3.1-.4l.2 1.5c-1.3.3-2.3.4-3.6.4-3.7 0-5-2.1-5-5.2s1.3-5.2 4.9-5.2c4.2 0 4.3 3.2 3.9 5.5H203zm0-1.1h5.1c.3-1.4-.1-3-2.2-3-2 0-2.7 1.3-2.9 3zM217.9 271.4v-1.2c-1-.2-1.9-.2-2.4-.2-1.8 0-2 1-2 1.3 0 .6.3 1.2 2.1 1.5 2.1.5 4 1 4 3.1 0 2-1.4 3-3.7 3-1.6 0-3.1-.1-4.3-.4V276h1.5v1.2c1 .2 2.1.2 2.6.2 1.8 0 2.1-1.1 2.1-1.5 0-.7-.5-1.2-2.3-1.5-2.1-.4-3.8-1.1-3.8-3.2 0-1.9 1.3-2.8 3.7-2.8 1.5 0 2.8.2 4 .5v2.4h-1.5zM227.5 271.4v-1.2c-1-.2-1.9-.2-2.4-.2-1.8 0-2 1-2 1.3 0 .6.3 1.2 2.1 1.5 2.1.5 4 1 4 3.1 0 2-1.4 3-3.7 3-1.6 0-3.1-.1-4.3-.4V276h1.5v1.2c1 .2 2.1.2 2.6.2 1.8 0 2.1-1.1 2.1-1.5 0-.7-.5-1.2-2.3-1.5-2.1-.4-3.8-1.1-3.8-3.2 0-1.9 1.3-2.8 3.7-2.8 1.5 0 2.8.2 4 .5v2.4h-1.5zM241.3 271.4v-1.2c-.9-.2-1.5-.2-1.9-.2-2.1 0-3 1.5-3 3.7s.9 3.7 3 3.7c.7 0 1.5 0 3.1-.4l.3 1.5c-1.2.3-2.2.4-3.4.4-3.7 0-4.9-2.1-4.9-5.2s1.2-5.2 4.9-5.2c1.2 0 2.2.2 3.4.5v2.4h-1.5zM244.1 273.7c0-3.1 1.2-5.2 4.6-5.2 3.3 0 4.6 2.1 4.6 5.2s-1.3 5.2-4.6 5.2-4.6-2.1-4.6-5.2zm1.9 0c0 2.1.6 3.7 2.7 3.7s2.7-1.6 2.7-3.7-.6-3.7-2.7-3.7-2.7 1.6-2.7 3.7zM261.1 277.2h1.2v-5c0-1.3-.5-2.2-2-2.2-1.2 0-2.2.7-2.8 1.2v6h1.2v1.5h-4.3v-1.5h1.3v-7h-1.3v-1.5h3.1v1.4c1-.9 2.2-1.6 3.6-1.6 2 0 3 1.2 3 3.3v5.4h1.3v1.5h-4.3v-1.5zM266.9 270h-1.5v-1.2l1.5-.1.2-2.8h1.6v2.8h2.8v1.3h-2.8v5.5c0 1.3.4 2 1.7 2 .3 0 .6 0 1-.1l.2 1.4c-.5.1-1.3.1-1.8.1-2.1 0-2.9-.8-2.9-3.1V270zM272.9 268.7h3.1v8.5h1.3v1.5h-4.4v-1.5h1.3v-7h-1.3v-1.5zm3.1-4v2.5h-1.8v-2.5h1.8zM284.8 277.2h1.2v-5c0-1.3-.5-2.2-2-2.2-1.2 0-2.2.7-2.8 1.2v6h1.2v1.5h-4.3v-1.5h1.3v-7h-1.3v-1.5h3.1v1.4c1-.9 2.2-1.6 3.6-1.6 2 0 3 1.2 3 3.3v5.4h1.3v1.5h-4.3v-1.5zM289.3 268.7h3.1v6.5c0 1.3.5 2.2 2 2.2 1.1 0 2.2-.7 2.8-1.1v-6.1h-1.6v-1.5h3.4v8.5h1.3v1.5h-3.1v-1.4c-1 1-2.2 1.6-3.6 1.6-2 0-3-1.2-3-3.3v-5.4h-1.3v-1.5zM301.1 268.7h3.1v8.5h1.3v1.5h-4.4v-1.5h1.3v-7h-1.3v-1.5zm3.1-4v2.5h-1.8v-2.5h1.8zM307.2 270h-1.5v-1.2l1.5-.1.2-2.8h1.6v2.8h2.8v1.3H309v5.5c0 1.3.4 2 1.7 2 .3 0 .6 0 1-.1l.2 1.4c-.5.1-1.3.1-1.8.1-2.1 0-2.9-.8-2.9-3.1V270zM319.9 268.7h4.1v1.5h-.9l-3.6 9.1c-.9 2.1-2.1 3.6-4 3.6-.5 0-1-.1-1.5-.1l.2-1.5c.3.1.7.1.9.1 1.4 0 2.1-1.3 2.6-2.5l-3.6-8.7h-.9v-1.5h4.4v1.5h-1.5l2.7 7 2.4-7h-1.4v-1.5zM334.8 277.2h1.2v-5.1c0-1.3-.6-2.1-2-2.1-1.1 0-1.9.7-2.5 1.2v6h1.2v1.5h-4.3v-1.5h1.3v-7h-1.3v-1.5h3.1v1.4c.7-.7 1.6-1.5 2.8-1.5h1c1.1.1 1.9.7 2.2 1.7.9-1 2.2-1.8 3.6-1.8 2 0 3 1.2 3 3.3v5.4h1.3v1.5h-4.3v-1.5h1.2v-5c0-1.3-.6-2.2-2-2.2-1 0-1.9.7-2.6 1.2 0 .3.1.6.1.9v5.1h1.2v1.5h-4.2v-1.5zM347.1 271.4v-2.5c1.4-.3 2.8-.4 3.9-.4 2.4 0 3.7.7 3.7 3.3v5.4h1.3v1.5h-3.1v-1c-.9.7-1.8 1.2-3.1 1.2-2.1 0-3.2-1.1-3.2-3 0-2.4 2.1-3 4.2-3h2.2v-1c0-1.3-.7-1.9-2.3-1.9-.5 0-1.1 0-2 .2v1.2h-1.6zm5.7 2.6h-1.9c-1.9 0-2.7.6-2.7 1.8 0 1.1.8 1.7 2.1 1.7 1.1 0 2-.5 2.5-.8V274zM363.4 277.2h1.2v-5c0-1.3-.5-2.2-2-2.2-1.2 0-2.2.7-2.8 1.2v6h1.2v1.5h-4.3v-1.5h1.3v-7h-1.3v-1.5h3.1v1.4c1-.9 2.2-1.6 3.6-1.6 2 0 3 1.2 3 3.3v5.4h1.3v1.5h-4.3v-1.5zM369.4 271.4v-2.5c1.4-.3 2.8-.4 3.9-.4 2.4 0 3.7.7 3.7 3.3v5.4h1.3v1.5h-3.1v-1c-.9.7-1.8 1.2-3.1 1.2-2.1 0-3.2-1.1-3.2-3 0-2.4 2.1-3 4.2-3h2.2v-1c0-1.3-.7-1.9-2.3-1.9-.5 0-1.1 0-2 .2v1.2h-1.6zm5.7 2.6h-1.9c-1.9 0-2.7.6-2.7 1.8 0 1.1.8 1.7 2.1 1.7 1.1 0 2-.5 2.5-.8V274zM380.7 278c-1.2-.7-.9-2.4.6-3.3-1-.5-1.7-1.5-1.7-2.8 0-2.2 1.6-3.4 4.1-3.4.5 0 1 .1 1.4.2h3.5v1.1h-1.9c.8.5 1 1.4 1 2.1 0 2.2-1.7 3.3-3.9 3.3-.4 0-1-.1-1.4-.2-.7.8-.8 1.8.2 1.8l3.4.2c2.1.1 3 1 3 2.4 0 2.3-1.8 3.5-5.7 3.5-2.7 0-4.1-.8-4.1-2.6-.2-.9.3-1.6 1.5-2.3zm2.8 3.7c1.9 0 3.5-.6 3.5-1.9 0-.6-.4-1.1-1.6-1.2l-3.6-.2c-.6.5-1.2.9-1.2 1.6 0 1.1.9 1.7 2.9 1.7zm2.5-9.8c0-1.3-.9-2.1-2.2-2.1-1.5 0-2.3.8-2.3 2.1 0 1.4.9 2.1 2.3 2.1 1.3 0 2.2-.8 2.2-2.1zM391.6 274c0 2 1 3.4 3.3 3.4 1 0 2 0 3.1-.4l.2 1.5c-1.3.3-2.3.4-3.6.4-3.7 0-5-2.1-5-5.2s1.3-5.2 4.9-5.2c4.2 0 4.3 3.2 3.9 5.5h-6.8zm0-1.1h5.1c.3-1.4-.1-3-2.2-3-2 0-2.8 1.3-2.9 3zM406.2 277.2h1.2v-5.1c0-1.3-.6-2.1-2-2.1-1.1 0-1.9.7-2.5 1.2v6h1.2v1.5h-4.3v-1.5h1.3v-7h-1.3v-1.5h3.1v1.4c.7-.7 1.6-1.5 2.8-1.5h1c1.1.1 1.9.7 2.2 1.7.9-1 2.2-1.8 3.6-1.8 2 0 3 1.2 3 3.3v5.4h1.3v1.5h-4.3v-1.5h1.2v-5c0-1.3-.6-2.2-2-2.2-1 0-1.9.7-2.6 1.2 0 .3.1.6.1.9v5.1h1.2v1.5h-4.2v-1.5zM419.6 274c0 2 1 3.4 3.3 3.4 1 0 2 0 3.1-.4l.2 1.5c-1.3.3-2.3.4-3.6.4-3.7 0-5-2.1-5-5.2s1.3-5.2 4.9-5.2c4.2 0 4.3 3.2 3.9 5.5h-6.8zm0-1.1h5.1c.3-1.4-.1-3-2.2-3-2 0-2.8 1.3-2.9 3zM434.5 277.2h1.2v-5c0-1.3-.5-2.2-2-2.2-1.2 0-2.2.7-2.8 1.2v6h1.2v1.5h-4.3v-1.5h1.3v-7h-1.3v-1.5h3.1v1.4c1-.9 2.2-1.6 3.6-1.6 2 0 3 1.2 3 3.3v5.4h1.3v1.5h-4.3v-1.5zM440.3 270h-1.5v-1.2l1.5-.1.2-2.8h1.6v2.8h2.8v1.3h-2.8v5.5c0 1.3.4 2 1.7 2 .3 0 .6 0 1-.1l.2 1.4c-.5.1-1.3.1-1.8.1-2.1 0-2.9-.8-2.9-3.1V270zM449.9 268.7h3.1v1c.7-.7 1.9-1.2 3.1-1.2 2.8 0 3.7 2.3 3.7 5.2 0 2.9-1 5.2-3.8 5.2-1.1 0-2.3-.4-3-1.1v3.4h1.3v1.5h-4.4v-1.5h1.3v-11h-1.3v-1.5zm5.5 1.3c-1.1 0-2 .5-2.4.9v5.7c.4.3 1.3.8 2.4.8 1.9 0 2.5-1.7 2.5-3.7s-.5-3.7-2.5-3.7zM460.9 264.7h3.1v12.5h1.3v1.5h-4.4v-1.5h1.3v-11h-1.3v-1.5zM467 271.4v-2.5c1.4-.3 2.8-.4 3.9-.4 2.4 0 3.7.7 3.7 3.3v5.4h1.3v1.5h-3.1v-1c-.9.7-1.8 1.2-3.1 1.2-2.1 0-3.2-1.1-3.2-3 0-2.4 2.1-3 4.2-3h2.2v-1c0-1.3-.7-1.9-2.3-1.9-.5 0-1.1 0-2 .2v1.2H467zm5.7 2.6h-1.9c-1.9 0-2.7.6-2.7 1.8 0 1.1.8 1.7 2.1 1.7 1.1 0 2-.5 2.5-.8V274zM483.3 277.2h1.2v-5c0-1.3-.5-2.2-2-2.2-1.2 0-2.2.7-2.8 1.2v6h1.2v1.5h-4.3v-1.5h1.3v-7h-1.3v-1.5h3.1v1.4c1-.9 2.2-1.6 3.6-1.6 2 0 3 1.2 3 3.3v5.4h1.3v1.5h-4.3v-1.5zM492 268.7h3.1v8.5h1.3v1.5H492v-1.5h1.3v-7H492v-1.5zm3.1-4v2.5h-1.8v-2.5h1.8zM503.9 271.4v-1.2c-1-.2-1.9-.2-2.4-.2-1.8 0-2 1-2 1.3 0 .6.3 1.2 2.1 1.5 2.1.5 4 1 4 3.1 0 2-1.4 3-3.7 3-1.6 0-3.1-.1-4.3-.4V276h1.5v1.2c1 .2 2.1.2 2.6.2 1.8 0 2.1-1.1 2.1-1.5 0-.7-.5-1.2-2.3-1.5-2.1-.4-3.8-1.1-3.8-3.2 0-1.9 1.3-2.8 3.7-2.8 1.5 0 2.8.2 4 .5v2.4h-1.5zM174.9 305.2h1.2v-5.1c0-1.3-.6-2.1-2-2.1-1.1 0-1.9.7-2.5 1.2v6h1.2v1.5h-4.3v-1.5h1.3v-7h-1.3v-1.5h3.1v1.4c.7-.7 1.6-1.5 2.8-1.5h1c1.1.1 1.9.7 2.2 1.7.9-1 2.2-1.8 3.6-1.8 2 0 3 1.2 3 3.3v5.4h1.3v1.5h-4.3v-1.5h1.2v-5c0-1.3-.6-2.2-2-2.2-1 0-1.9.7-2.6 1.2 0 .3.1.6.1.9v5.1h1.2v1.5h-4.2v-1.5zM185.7 296.7h3.1v6.5c0 1.3.5 2.2 2 2.2 1.1 0 2.2-.7 2.8-1.1v-6.1H192v-1.5h3.4v8.5h1.3v1.5h-3.1v-1.4c-1 1-2.2 1.6-3.6 1.6-2 0-3-1.2-3-3.3v-5.4h-1.3v-1.5zM204.4 299.4v-1.2c-.9-.2-1.5-.2-1.9-.2-2.1 0-3 1.5-3 3.7s.9 3.7 3 3.7c.7 0 1.5 0 3.1-.4l.3 1.5c-1.2.3-2.2.4-3.4.4-3.7 0-4.9-2.1-4.9-5.2s1.2-5.2 4.9-5.2c1.2 0 2.2.2 3.4.5v2.4h-1.5zM213.6 305.2h1.2v-5c0-1.3-.5-2.2-2-2.2-1.2 0-2.2.7-2.8 1.2v6h1.2v1.5h-4.3v-1.5h1.3v-11h-1.3v-1.5h3.1v5.4c1-.9 2.2-1.6 3.6-1.6 2 0 3 1.2 3 3.3v5.4h1.3v1.5h-4.3v-1.5zM228.7 305.2h1.2v-5.1c0-1.3-.6-2.1-2-2.1-1.1 0-1.9.7-2.5 1.2v6h1.2v1.5h-4.3v-1.5h1.3v-7h-1.3v-1.5h3.1v1.4c.7-.7 1.6-1.5 2.8-1.5h1c1.1.1 1.9.7 2.2 1.7.9-1 2.2-1.8 3.6-1.8 2 0 3 1.2 3 3.3v5.4h1.3v1.5H235v-1.5h1.2v-5c0-1.3-.6-2.2-2-2.2-1 0-1.9.7-2.6 1.2 0 .3.1.6.1.9v5.1h1.2v1.5h-4.2v-1.5zM240.2 301.7c0-3.1 1.2-5.2 4.6-5.2 3.3 0 4.6 2.1 4.6 5.2s-1.3 5.2-4.6 5.2-4.6-2.1-4.6-5.2zm1.9 0c0 2.1.6 3.7 2.7 3.7s2.7-1.6 2.7-3.7-.6-3.7-2.7-3.7-2.7 1.6-2.7 3.7zM250.5 296.7h3.1v1.6c.8-.9 2.2-1.8 3.8-1.8v1.7c-1.5 0-3 .6-3.8 1.2v5.8h1.5v1.5h-4.6v-1.5h1.3v-7h-1.3v-1.5zM260.1 302c0 2 1 3.4 3.3 3.4 1 0 2 0 3.1-.4l.2 1.5c-1.3.3-2.3.4-3.6.4-3.7 0-5-2.1-5-5.2s1.3-5.2 4.9-5.2c4.2 0 4.3 3.2 3.9 5.5h-6.8zm0-1.1h5.1c.3-1.4-.1-3-2.2-3-2 0-2.8 1.3-2.9 3zM273.4 298h-1.5v-1.2l1.5-.1.2-2.8h1.6v2.8h2.8v1.3h-2.8v5.5c0 1.3.4 2 1.7 2 .3 0 .6 0 1-.1l.2 1.4c-.5.1-1.3.1-1.8.1-2.1 0-2.9-.8-2.9-3.1V298zM286.1 305.2h1.2v-5c0-1.3-.5-2.2-2-2.2-1.2 0-2.2.7-2.8 1.2v6h1.2v1.5h-4.3v-1.5h1.3v-11h-1.3v-1.5h3.1v5.4c1-.9 2.2-1.6 3.6-1.6 2 0 3 1.2 3 3.3v5.4h1.3v1.5h-4.3v-1.5zM292.1 299.4v-2.5c1.4-.3 2.8-.4 3.9-.4 2.4 0 3.7.7 3.7 3.3v5.4h1.3v1.5h-3.1v-1c-.9.7-1.8 1.2-3.1 1.2-2.1 0-3.2-1.1-3.2-3 0-2.4 2.1-3 4.2-3h2.2v-1c0-1.3-.7-1.9-2.3-1.9-.5 0-1.1 0-2 .2v1.2h-1.6zm5.7 2.6h-1.9c-1.9 0-2.7.6-2.7 1.8 0 1.1.8 1.7 2.1 1.7 1.1 0 2-.5 2.5-.8V302zM308.4 305.2h1.2v-5c0-1.3-.5-2.2-2-2.2-1.2 0-2.2.7-2.8 1.2v6h1.2v1.5h-4.3v-1.5h1.3v-7h-1.3v-1.5h3.1v1.4c1-.9 2.2-1.6 3.6-1.6 2 0 3 1.2 3 3.3v5.4h1.3v1.5h-4.3v-1.5zM318.2 299.4v-2.5c1.4-.3 2.8-.4 3.9-.4 2.4 0 3.7.7 3.7 3.3v5.4h1.3v1.5H324v-1c-.9.7-1.8 1.2-3.1 1.2-2.1 0-3.2-1.1-3.2-3 0-2.4 2.1-3 4.2-3h2.2v-1c0-1.3-.7-1.9-2.3-1.9-.5 0-1.1 0-2 .2v1.2h-1.6zm5.7 2.6H322c-1.9 0-2.7.6-2.7 1.8 0 1.1.8 1.7 2.1 1.7 1.1 0 2-.5 2.5-.8V302zM331.4 296.7h3.1v1c.7-.7 1.9-1.2 3.1-1.2 2.8 0 3.7 2.3 3.7 5.2 0 2.9-1 5.2-3.8 5.2-1.1 0-2.3-.4-3-1.1v3.4h1.3v1.5h-4.4v-1.5h1.3v-11h-1.3v-1.5zm5.5 1.3c-1.1 0-2 .5-2.4.9v5.7c.4.3 1.3.8 2.4.8 1.9 0 2.5-1.7 2.5-3.7s-.5-3.7-2.5-3.7zM342.4 296.7h3.1v8.5h1.3v1.5h-4.4v-1.5h1.3v-7h-1.3v-1.5zm3.1-4v2.5h-1.8v-2.5h1.8zM349.6 302c0 2 1 3.4 3.3 3.4 1 0 2 0 3.1-.4l.2 1.5c-1.3.3-2.3.4-3.6.4-3.7 0-5-2.1-5-5.2s1.3-5.2 4.9-5.2c4.2 0 4.3 3.2 3.9 5.5h-6.8zm0-1.1h5.1c.3-1.4-.1-3-2.2-3-2 0-2.8 1.3-2.9 3zM365.1 299.4v-1.2c-.9-.2-1.5-.2-1.9-.2-2.1 0-3 1.5-3 3.7s.9 3.7 3 3.7c.7 0 1.5 0 3.1-.4l.3 1.5c-1.2.3-2.2.4-3.4.4-3.7 0-4.9-2.1-4.9-5.2s1.2-5.2 4.9-5.2c1.2 0 2.2.2 3.4.5v2.4h-1.5zM369.8 302c0 2 1 3.4 3.3 3.4 1 0 2 0 3.1-.4l.2 1.5c-1.3.3-2.3.4-3.6.4-3.7 0-5-2.1-5-5.2s1.3-5.2 4.9-5.2c4.2 0 4.3 3.2 3.9 5.5h-6.8zm0-1.1h5.1c.3-1.4-.1-3-2.2-3-2 0-2.8 1.3-2.9 3zM382.1 301.7c0-3.1 1.2-5.2 4.6-5.2 3.3 0 4.6 2.1 4.6 5.2s-1.3 5.2-4.6 5.2-4.6-2.1-4.6-5.2zm1.9 0c0 2.1.6 3.7 2.7 3.7s2.7-1.6 2.7-3.7-.6-3.7-2.7-3.7-2.7 1.6-2.7 3.7zM392.6 305.2h1.3V298h-1.5v-1.2l1.5-.1v-1.2c0-1.9.7-2.8 2.9-2.8.5 0 1.1.1 1.6.2l-.2 1.4c-.4-.1-.7-.1-1-.1-1.2 0-1.5.3-1.5 1.4v1.1h2.4v1.3h-2.4v7.2h1.5v1.5h-4.6v-1.5zM402.8 296.7h3.1v1c.7-.7 1.9-1.2 3.1-1.2 2.8 0 3.7 2.3 3.7 5.2 0 2.9-1 5.2-3.8 5.2-1.1 0-2.3-.4-3-1.1v3.4h1.3v1.5h-4.4v-1.5h1.3v-11h-1.3v-1.5zm5.5 1.3c-1.1 0-2 .5-2.4.9v5.7c.4.3 1.3.8 2.4.8 1.9 0 2.5-1.7 2.5-3.7s-.5-3.7-2.5-3.7zM414.9 299.4v-2.5c1.4-.3 2.8-.4 3.9-.4 2.4 0 3.7.7 3.7 3.3v5.4h1.3v1.5h-3.1v-1c-.9.7-1.8 1.2-3.1 1.2-2.1 0-3.2-1.1-3.2-3 0-2.4 2.1-3 4.2-3h2.2v-1c0-1.3-.7-1.9-2.3-1.9-.5 0-1.1 0-2 .2v1.2h-1.6zm5.7 2.6h-1.9c-1.9 0-2.7.6-2.7 1.8 0 1.1.8 1.7 2.1 1.7 1.1 0 2-.5 2.5-.8V302zM424.5 296.7h3.1v1c.7-.7 1.9-1.2 3.1-1.2 2.8 0 3.7 2.3 3.7 5.2 0 2.9-1 5.2-3.8 5.2-1.1 0-2.3-.4-3-1.1v3.4h1.3v1.5h-4.4v-1.5h1.3v-11h-1.3v-1.5zm5.5 1.3c-1.1 0-2 .5-2.4.9v5.7c.4.3 1.3.8 2.4.8 1.9 0 2.5-1.7 2.5-3.7s-.5-3.7-2.5-3.7zM438.1 302c0 2 1 3.4 3.3 3.4 1 0 2 0 3.1-.4l.2 1.5c-1.3.3-2.3.4-3.6.4-3.7 0-5-2.1-5-5.2s1.3-5.2 4.9-5.2c4.2 0 4.3 3.2 3.9 5.5h-6.8zm0-1.1h5.1c.3-1.4-.1-3-2.2-3-2 0-2.8 1.3-2.9 3zM446.3 296.7h3.1v1.6c.8-.9 2.2-1.8 3.8-1.8v1.7c-1.5 0-3 .6-3.8 1.2v5.8h1.5v1.5h-4.6v-1.5h1.3v-7h-1.3v-1.5zM456.8 304.1v2.6H455v-2.6h1.8zM463.2 305.2v-10.6h-1.3v-1.5h4.5v1.5h-1.3v10.6h1.3v1.5h-4.5v-1.5h1.3zM468.1 298h-1.5v-1.2l1.5-.1.2-2.8h1.6v2.8h2.8v1.3h-2.8v5.5c0 1.3.4 2 1.7 2 .3 0 .6 0 1-.1l.2 1.4c-.5.1-1.3.1-1.8.1-2.1 0-2.9-.8-2.9-3.1V298zM477.7 296.7h3.1v8.5h1.3v1.5h-4.4v-1.5h1.3v-7h-1.3v-1.5zm3.1-4v2.5H479v-2.5h1.8zM489.6 299.4v-1.2c-1-.2-1.9-.2-2.4-.2-1.8 0-2 1-2 1.3 0 .6.3 1.2 2.1 1.5 2.1.5 4 1 4 3.1 0 2-1.4 3-3.7 3-1.6 0-3.1-.1-4.3-.4V304h1.5v1.2c1 .2 2.1.2 2.6.2 1.8 0 2.1-1.1 2.1-1.5 0-.7-.5-1.2-2.3-1.5-2.1-.4-3.8-1.1-3.8-3.2 0-1.9 1.3-2.8 3.7-2.8 1.5 0 2.8.2 4 .5v2.4h-1.5zM497.2 299.4v-2.5c1.4-.3 2.8-.4 3.9-.4 2.4 0 3.7.7 3.7 3.3v5.4h1.3v1.5H503v-1c-.9.7-1.8 1.2-3.1 1.2-2.1 0-3.2-1.1-3.2-3 0-2.4 2.1-3 4.2-3h2.2v-1c0-1.3-.7-1.9-2.3-1.9-.5 0-1.1 0-2 .2v1.2h-1.6zm5.7 2.6H501c-1.9 0-2.7.6-2.7 1.8 0 1.1.8 1.7 2.1 1.7 1.1 0 2-.5 2.5-.8V302z"/></g></g></g></g></g></switch></svg>