<svg version="1.1" id="Layer_1" xmlns="http://www.w3.org/2000/svg" x="0" y="0" viewBox="0 0 540 516.7" style="enable-background:new 0 0 540 516.7" xml:space="preserve"><style>.st2{fill:#c9c9c7}.st3{fill:#e11b22}.st4{fill:#010101}</style><switch><g><path style="fill:none;stroke:#e11b22;stroke-width:3;stroke-miterlimit:10" d="M2.5 3.1h535v510.3H2.5z"/><g id="Outline" style="opacity:.3"><path class="st2" d="M204 153.9h23.2c2.6 0 4.6-2.1 4.6-4.6s-2.1-4.6-4.6-4.6H204c-2.6 0-4.6 2.1-4.6 4.6s2 4.6 4.6 4.6z"/><path class="st2" d="M301.5 144.6c-2.6 0-4.6 2.1-4.6 4.6v153.3H60c-12.8 0-23.2-10.4-23.2-23.2s10.4-23.2 23.2-23.2 23.2 10.4 23.2 23.2c0 2.6 2.1 4.6 4.6 4.6s4.6-2.1 4.6-4.6V153.9h13.9c2.6 0 4.6-2.1 4.6-4.6s-2.1-4.6-4.6-4.6H92.5v-13.9c0-18-14.6-32.5-32.5-32.5s-32.5 14.6-32.5 32.5v148.6c0 17.9 14.6 32.5 32.5 32.5h241.5c2.6 0 4.6-2.1 4.6-4.6V149.2c.1-2.5-2-4.6-4.6-4.6zM36.8 130.7c0-12.8 10.4-23.2 23.2-23.2s23.2 10.4 23.2 23.2v125.9c-12.5-12.8-33.1-13.1-45.9-.5l-.5.5V130.7z"/><path class="st2" d="m241.5 202.1 7.4 18.6 11.1 27.9c.9 2.4 3.7 3.5 6 2.6 1.2-.5 2.1-1.4 2.6-2.6l11.1-27.9 7.4-18.6c.2-.5.3-1 .3-1.6v-79.2c0-2.6-2.1-4.6-4.6-4.6-2.6 0-4.6 2.1-4.6 4.6v74.3H269V88.9h9.3v13.9c0 2.6 2.1 4.6 4.6 4.6 2.6 0 4.6-2.1 4.6-4.6V56.3c0-12.8-10.4-23.2-23.2-23.2-12.8 0-23.2 10.4-23.2 23.2v144.2c.1.5.2 1.1.4 1.6zm18.6 21.4h8.6l-4.3 10.7-4.3-10.7zm12.3-9.2h-16l-3.7-9.3h23.4l-3.7 9.3zm-12.7-18.6h-9.3V88.9h9.3v106.8zm-9.3-116.1v-9.3h27.9v9.3h-27.9zm0-23.3c0-7.7 6.2-13.9 13.9-13.9s13.9 6.2 13.9 13.9V61h-27.9v-4.7zM129.7 124.6v2.2c-7.2 2.5-11 10.4-8.5 17.6 1.4 4 4.5 7.1 8.5 8.5v.9c0 12 7.8 22.7 19.2 26.5-5 5-11.2 8.5-18 10.2l-7.1 1.8c-12.3 3-19.8 15.4-16.7 27.7 2.5 10.2 11.7 17.4 22.3 17.4h9.6c2.6 0 4.6-2.1 4.6-4.6 0-2.6-2.1-4.6-4.6-4.6h-9.6c-7.5 0-13.6-6.1-13.6-13.6 0-6.2 4.3-11.7 10.3-13.2l7.1-1.8c10.8-2.7 20.2-9.1 26.8-18 14.4-1.3 25.4-13.3 25.4-27.7v-.9c7.2-2.5 11-10.4 8.5-17.6-1.4-4-4.5-7.1-8.5-8.5v-2.2c14.9-13.3 18.3-35.2 8.1-52.3-1.3-2.2-4.2-2.9-6.4-1.6-2.2 1.3-2.9 4.2-1.6 6.4 8.2 13.9 5 31.8-7.7 41.8a4.6 4.6 0 0 0-1.7 3.6v3.5H172l4.1-36.6c.3-2.5-1.6-4.8-4.1-5.1-.7-.1-1.3 0-2 .2l-12.5 4.2-12.5-4.2c-2.4-.8-5.1.5-5.9 2.9-.2.6-.3 1.3-.2 2l4.1 36.6h-4v-3.5c0-1.4-.6-2.7-1.7-3.6-14-11.2-16.3-31.6-5.2-45.6 10.1-12.7 28-16 42-7.7 2.2 1.3 5.1.6 6.4-1.6 1.3-2.2.6-5.1-1.6-6.4-19.9-11.7-45.5-5.1-57.2 14.8-10.2 17-6.8 38.8 8 52.1zm27.9 47.9c-10.3 0-18.6-8.3-18.6-18.6h37.2c-.1 10.2-8.4 18.6-18.6 18.6zM149 95.6l7 2.4c1 .3 2 .3 2.9 0l7-2.4-3.4 30.5h-10.2L149 95.6zm-.7 39.7h32.5c2.6 0 4.6 2.1 4.6 4.6 0 2.6-2.1 4.6-4.6 4.6h-46.4c-2.6 0-4.6-2.1-4.6-4.6 0-2.6 2.1-4.6 4.6-4.6h13.9z"/><circle class="st2" cx="101.8" cy="93.5" r="4.6"/><circle class="st2" cx="213.3" cy="93.5" r="4.6"/><circle class="st2" cx="157.6" cy="37.8" r="4.6"/><path class="st2" d="M107 69.7c2.2 1.3 5.1.5 6.3-1.7 1.3-2.2.5-5.1-1.7-6.3-2.2-1.3-5.1-.5-6.3 1.7-1.3 2.1-.6 5 1.7 6.3zM203.5 125.4c2.2 1.3 5.1.5 6.3-1.7 1.3-2.2.5-5.1-1.7-6.3-2.2-1.3-5.1-.5-6.3 1.7-1.3 2.2-.5 5 1.7 6.3z"/><circle class="st2" cx="185.4" cy="45.2" r="4.6"/><path class="st2" d="M208.1 69.7c2.2-1.3 3-4.1 1.7-6.3s-4.1-3-6.3-1.7-3 4.1-1.7 6.3 4.1 2.9 6.3 1.7zM113.3 119c-1.3-2.2-4.1-3-6.3-1.7s-3 4.1-1.7 6.3 4.1 3 6.3 1.7c2.2-1.2 3-4 1.7-6.3zM132 49.3c2.2-1.3 3-4.1 1.7-6.3s-4.1-3-6.3-1.7-3 4.1-1.7 6.3c1.2 2.2 4.1 2.9 6.3 1.7zM180.8 274.6h18.6c2.6 0 4.6-2.1 4.6-4.6v-7.8c1.6-.7 3.1-1.6 4.5-2.6l6.8 3.9c2.2 1.3 5.1.5 6.3-1.7l9.3-16.1c1.3-2.2.5-5.1-1.7-6.3l-6.7-3.9c.1-.9.1-1.7.1-2.6 0-.9 0-1.7-.1-2.6l6.7-3.9c2.2-1.3 3-4.1 1.7-6.3l-9.3-16.1c-1.3-2.2-4.1-3-6.3-1.7l-6.8 3.9c-1.4-1-2.9-1.9-4.5-2.6v-7.8c0-2.6-2.1-4.6-4.6-4.6h-18.6c-2.6 0-4.6 2.1-4.6 4.6v7.8c-1.6.7-3.1 1.6-4.5 2.6l-6.8-3.9c-2.2-1.3-5.1-.5-6.3 1.7l-9.3 16.1c-1.3 2.2-.5 5.1 1.7 6.3l6.7 3.9c-.1.9-.1 1.7-.1 2.6 0 .9 0 1.7.1 2.6l-6.7 3.9c-2.2 1.3-3 4.1-1.7 6.3s4.1 3 6.3 1.7h.1l9.4-5.5c1.7-1 2.6-2.9 2.2-4.9-.5-2.8-.5-5.7 0-8.5.4-1.9-.5-3.9-2.2-4.9l-5.4-3.1 4.6-8 5.4 3.1c1.7 1 3.8.8 5.3-.5 2.2-1.8 4.7-3.3 7.3-4.2 1.9-.7 3.1-2.4 3.1-4.4v-6.3h9.3v6.3c0 2 1.2 3.7 3.1 4.4 2.7.9 5.2 2.4 7.3 4.2 1.5 1.3 3.6 1.5 5.3.5l5.4-3.1 4.6 8-5.4 3.1c-1.7 1-2.6 2.9-2.2 4.9.5 2.8.5 5.7 0 8.5-.4 1.9.5 3.9 2.2 4.9l5.4 3.1-4.6 8-5.4-3.1c-1.7-1-3.8-.8-5.3.5-2.2 1.8-4.7 3.3-7.3 4.2-1.9.7-3.1 2.4-3.1 4.4v6.3h-9.3V259c0-2-1.2-3.7-3.1-4.4-2.7-.9-5.2-2.4-7.3-4.2-1.5-1.3-3.6-1.5-5.3-.5l-9.4 5.5c-2.2 1.3-3 4.1-1.7 6.3s4.1 3 6.3 1.7h.1l6.8-3.9c1.4 1 2.9 1.9 4.5 2.6v7.8c-.2 2.7 1.9 4.7 4.5 4.7z"/><path class="st2" d="M204 232.8c0-7.7-6.2-13.9-13.9-13.9s-13.9 6.2-13.9 13.9 6.2 13.9 13.9 13.9 13.9-6.2 13.9-13.9zm-18.6 0c0-2.6 2.1-4.6 4.6-4.6 2.6 0 4.6 2.1 4.6 4.6 0 2.6-2.1 4.6-4.6 4.6-2.5.1-4.6-2-4.6-4.6zM194.7 293.2h55.7c10.3 0 18.6-8.3 18.6-18.6v-9.3c0-2.6-2.1-4.6-4.6-4.6-2.6 0-4.6 2.1-4.6 4.6v9.3c0 5.1-4.2 9.3-9.3 9.3h-55.7c-2.6 0-4.6 2.1-4.6 4.6s1.9 4.7 4.5 4.7zM111.1 274.6c0 7.7 6.2 13.9 13.9 13.9s13.9-6.2 13.9-13.9-6.2-13.9-13.9-13.9-13.9 6.2-13.9 13.9zm18.6 0c0 2.6-2.1 4.6-4.6 4.6-2.6 0-4.6-2.1-4.6-4.6 0-2.6 2.1-4.6 4.6-4.6 2.5 0 4.6 2.1 4.6 4.6z"/></g><g id="Glance_2_lines_00000108292442954593784570000009301577794037300118_"><g id="Glance_00000019664070881751812810000000924870649058536583_"><g id="Glance_00000111160142971583215170000007150081890816750779_"><g id="_Jobs_in_advanced_economies_are_increasingly_for_high-skill_workers._00000118357415153473495210000012977249064161202333_"><path class="st3" d="M80.7 299.4v-15.3h-1.9v-3.6h8.3v3.6h-1.9v15.3h1.9v3.5h-8.3v-3.5h1.9zM88.5 279.8h6.2v19.6h1.9v3.5h-8.1v-3.5h1.9v-16h-1.9v-3.6zM114.5 291.5v-1.7c-1.3-.2-2.4-.3-3.1-.3-2 0-2.5.8-2.5 1.4 0 .8.5 1.2 2.7 1.7 3.1.7 7 1.5 7 5.3 0 3.6-2.5 5.3-6.5 5.3-2.7 0-5.5-.3-7.5-.8v-4.6h3.6v1.7c1.4.3 2.7.3 3.5.3 2.1 0 2.7-1 2.7-1.6 0-.8-.9-1.2-2.8-1.6-3.7-.6-6.8-1.8-6.8-5.6 0-3.5 2.5-5 6.5-5 2.7 0 5 .3 6.9.8v4.6h-3.7zM122.1 289.6l.8-4.3h-1.7v-4.8h4.3v4.8l-2 4.3h-1.4zM129.2 291.5v-4.6c2.3-.5 4.8-.8 6.8-.8 4.2 0 6.5 1.1 6.5 5.5v7.8h1.9v3.5h-6.2v-1.6h-.1c-1.5 1.5-3.3 2.1-5.3 1.9-2.8-.2-4.6-2.1-4.6-5 0-3.8 3.1-5.1 6.9-5.1h3.1v-1.2c0-1.7-1.1-2.2-3.2-2.2-.6 0-1.3 0-2.3.2v1.6h-3.5zm9 4.1h-2.4c-2.1 0-3.3.5-3.3 2.2 0 1.5 1.2 2.1 2.6 2.1 1.4 0 2.6-.6 3.2-1v-3.3zM148.1 302.1c-2.1-1.3-1.7-4.2 1.2-5.7v-.1c-1.7-.8-2.7-2.5-2.7-4.6 0-3.8 2.7-5.6 7-5.6.9 0 1.7.1 2.4.3h6.1v2.6h-2.6c.8.7 1 1.6 1 2.7 0 3.8-2.9 5.5-6.8 5.5-.6 0-1.4-.1-2.1-.3-.8 1.1-.9 2.2.4 2.3l5.4.3c3.4.1 5.2 1.7 5.2 4.4 0 4.1-3.1 6-9.9 6-4.9 0-7.1-1.4-7.1-4.3 0-1.4.7-2.5 2.5-3.5zm5.3 4.8c2.4 0 4.6-.6 4.6-2.3 0-.8-.6-1.4-2-1.5l-5.6-.3c-.6.6-1.1 1-1.1 2-.1 1.8 1.8 2.1 4.1 2.1zm3-15.2c0-1.8-1.2-2.7-2.8-2.7-1.7 0-2.8.8-2.8 2.7 0 1.8 1.2 2.6 2.8 2.6 1.7 0 2.8-.7 2.8-2.6zM164 286.4h6.2v13h1.9v3.5H164v-3.5h1.9V290H164v-3.6zm6.2-6.6v4.6h-4.3v-4.6h4.3zM174.7 289.5h-2.2v-2.8l2.2-.3.5-4.6h3.8v4.6h4.1v3.1H179v8c0 1.6.7 2.4 2.4 2.4.4 0 .9 0 1.5-.2l.4 3.3c-.9.2-2.5.3-3.4.3-3.8 0-5.2-1.6-5.2-5v-8.8zM200.8 279.8h6.2v19.6h1.9v3.5h-6.2v-1.6h-.1c-1 1.2-2.8 2-4.6 2-4.6 0-6-3.9-6-8.6 0-4.7 1.7-8.6 6.3-8.6 1.7 0 3.4.7 4.4 1.8h.1v-4.6h-1.9v-3.5zm-1.1 19.9c1.4 0 2.5-.6 3-1.1v-8c-.5-.4-1.6-1-3-1-2.5 0-3.2 2.2-3.2 5 0 2.9.7 5.1 3.2 5.1zM212.1 289.6l.8-4.3h-1.7v-4.8h4.3v4.8l-2 4.3h-1.4zM217.7 286.4h6.2v10.3c0 1.9.9 3 2.6 3 1.4 0 2.6-.8 3.5-1.3V290h-2.1v-3.6h6.4v13h1.9v3.5H230v-2.1h-.1c-1.4 1.5-3.2 2.5-5.4 2.5-3.3 0-5-2.1-5-5.5V290h-1.9v-3.6zM248.1 299.4h1.7v-6.8c0-1.9-.7-3-2.6-3-1.4 0-2.6.7-3.5 1.3v8.5h1.7v3.5h-7.8v-3.5h1.9V290h-1.9v-3.6h6.2v2.1h.1c1.4-1.5 3.2-2.5 5.4-2.5 3.3 0 5 2.1 5 5.5v7.8h1.9v3.5h-7.9v-3.4zM263.5 286.4h6.2v1.7h.1c1.1-1.2 2.9-2 4.7-2 4.6 0 6 3.9 6 8.6 0 4.7-1.7 8.6-6.3 8.6-1.7 0-3.3-.7-4.4-1.8h-.1v4.6h1.9v3.5h-8.1V306h1.9v-16h-1.9v-3.6zm9.2 3.3c-1.4 0-2.4.6-3 1v8c.5.4 1.6 1.1 3 1.1 2.5 0 3.2-2.2 3.2-5 0-2.9-.7-5.1-3.2-5.1zM282 279.8h6.2v19.6h1.9v3.5H282v-3.5h1.9v-16H282v-3.6zM292.5 291.5v-4.6c2.3-.5 4.8-.8 6.8-.8 4.2 0 6.5 1.1 6.5 5.5v7.8h1.9v3.5h-6.2v-1.6h-.1c-1.5 1.5-3.3 2.1-5.3 1.9-2.8-.2-4.6-2.1-4.6-5 0-3.8 3.1-5.1 6.9-5.1h3.1v-1.2c0-1.7-1.1-2.2-3.2-2.2-.6 0-1.3 0-2.3.2v1.6h-3.5zm9.1 4.1h-2.4c-2.1 0-3.3.5-3.3 2.2 0 1.5 1.2 2.1 2.6 2.1 1.4 0 2.6-.6 3.2-1v-3.3zM319.7 299.4h1.6v-6.8c0-1.9-.7-3-2.6-3-1.4 0-2.6.7-3.5 1.3v8.5h1.7v3.5h-7.8v-3.5h1.9V290h-1.9v-3.6h6.2v2.1h.1c1.4-1.5 3.2-2.5 5.4-2.5 3.3 0 5 2.1 5 5.5v7.8h1.9v3.5h-7.9v-3.4zM344.5 279.8h6.2v19.6h1.9v3.5h-6.2v-1.6h-.1c-1 1.2-2.8 2-4.6 2-4.6 0-6-3.9-6-8.6 0-4.7 1.7-8.6 6.3-8.6 1.7 0 3.4.7 4.4 1.8h.1v-4.6h-1.9v-3.5zm-1 19.9c1.4 0 2.5-.6 3-1.1v-8c-.5-.4-1.6-1-3-1-2.5 0-3.2 2.2-3.2 5 0 2.9.7 5.1 3.2 5.1zM355.8 289.6l.8-4.3h-1.7v-4.8h4.3v4.8l-2 4.3h-1.4zM362.8 291.5v-4.6c2.3-.5 4.8-.8 6.8-.8 4.2 0 6.5 1.1 6.5 5.5v7.8h1.9v3.5h-6.2v-1.6h-.1c-1.5 1.5-3.3 2.1-5.3 1.9-2.8-.2-4.6-2.1-4.6-5 0-3.8 3.1-5.1 6.9-5.1h3.1v-1.2c0-1.7-1.1-2.2-3.2-2.2-.6 0-1.3 0-2.3.2v1.6h-3.5zm9 4.1h-2.4c-2.1 0-3.3.5-3.3 2.2 0 1.5 1.2 2.1 2.6 2.1 1.4 0 2.6-.6 3.2-1v-3.3zM390 291.5v-1.6c-.9-.2-1.6-.2-2.2-.2-2.6 0-4 1.7-4 5s1.4 5 4 5c1.2 0 2.3 0 5-.7l.8 3.4c-2 .5-3.7.8-5.8.8-6.4 0-8.5-3.4-8.5-8.6 0-5.2 2.1-8.6 8.5-8.6 2.1 0 3.8.3 5.8.8v4.6H390zM397.2 289.5H395v-2.8l2.2-.3.5-4.6h3.8v4.6h4.1v3.1h-4.1v8c0 1.6.7 2.4 2.4 2.4.4 0 .9 0 1.5-.2l.4 3.3c-.9.2-2.5.3-3.4.3-3.8 0-5.2-1.6-5.2-5v-8.8zM407.7 286.4h6.2v13h1.9v3.5h-8.1v-3.5h1.9V290h-1.9v-3.6zm6.2-6.6v4.6h-4.3v-4.6h4.3zM417 294.7c0-5.2 2.2-8.6 8-8.6s8 3.4 8 8.6c0 5.2-2.2 8.6-8 8.6s-8-3.4-8-8.6zm4.6 0c0 3.1.8 5 3.5 5s3.5-2 3.5-5-.8-5-3.5-5-3.5 1.9-3.5 5zM445.3 299.4h1.7v-6.8c0-1.9-.7-3-2.6-3-1.4 0-2.6.7-3.5 1.3v8.5h1.7v3.5h-7.8v-3.5h1.9V290h-1.9v-3.6h6.2v2.1h.1c1.4-1.5 3.2-2.5 5.4-2.5 3.3 0 5 2.1 5 5.5v7.8h1.9v3.5h-7.9v-3.4zM470.1 306h1.9v-4.7h-.1c-1 1.2-2.8 2-4.6 2-4.6 0-6-3.9-6-8.6 0-4.7 1.7-8.6 6.3-8.6 1.7 0 3.5.7 4.7 1.8h.1l.8-1.7h3.3V306h1.9v3.5h-8.1V306zm-1.1-6.3c1.4 0 2.5-.6 3-1.1v-8c-.5-.4-1.6-1-3-1-2.5 0-3.2 2.2-3.2 5 0 2.9.7 5.1 3.2 5.1zM478.5 286.4h6.2v10.3c0 1.9.9 3 2.6 3 1.4 0 2.6-.8 3.5-1.3V290h-2.1v-3.6h6.4v13h1.9v3.5h-6.2v-2.1h-.1c-1.4 1.5-3.2 2.5-5.4 2.5-3.3 0-5-2.1-5-5.5V290h-1.9v-3.6zM498.3 286.4h6.2v13h1.9v3.5h-8.1v-3.5h1.9V290h-1.9v-3.6zm6.2-6.6v4.6h-4.3v-4.6h4.3zM172.5 342.4h1.7v-6.8c0-1.9-.7-3-2.6-3-1.4 0-2.6.7-3.5 1.3v8.5h1.7v3.5H162v-3.5h1.9V333H162v-3.6h6.2v2.1h.1c1.4-1.5 3.2-2.5 5.4-2.5 3.3 0 5 2.1 5 5.5v7.8h1.9v3.5h-7.9v-3.4zM186.1 338.6c.1 2.5 1.6 4.1 4.7 4.1 1.4 0 3-.1 5.1-.7l.5 3.4c-2.2.6-4.1.8-6.3.8-6.3 0-8.6-3.4-8.6-8.6 0-5.2 2.2-8.6 8.5-8.6 7.1 0 7.5 4.9 6.8 9.5h-10.7zm0-2.7h6.5c.3-1.8-.1-3.5-2.8-3.5-2.4 0-3.5 1.4-3.7 3.5zM205.4 342.4h1.9v-9.9h-2.2v-2.8l2.2-.3v-1.7c0-3.2 1.1-4.9 5.2-4.9.9 0 1.9.1 2.9.3l-.4 3.3c-.6-.1-1.1-.2-1.5-.2-1.5 0-1.9.4-1.9 1.8v1.4h3.5v3.1h-3.5v9.9h2.1v3.5h-8.3v-3.5zM216.4 337.7c0-5.2 2.2-8.6 8-8.6s8 3.4 8 8.6c0 5.2-2.2 8.6-8 8.6s-8-3.4-8-8.6zm4.6 0c0 3.1.8 5 3.5 5s3.5-2 3.5-5-.8-5-3.5-5c-2.8 0-3.5 1.9-3.5 5zM244.6 342.4h1.7v-6.8c0-1.9-.7-3-2.6-3-1.4 0-2.6.7-3.5 1.3v8.5h1.7v3.5H234v-3.5h1.9V333H234v-3.6h6.2v2.1h.1c1.4-1.5 3.2-2.5 5.4-2.5 3.3 0 5 2.1 5 5.5v7.8h1.9v3.5h-7.9v-3.4zM264.4 334.5v-1.6c-.9-.2-1.6-.2-2.2-.2-2.6 0-4 1.7-4 5s1.4 5 4 5c1.2 0 2.3 0 5-.7l.8 3.4c-2 .5-3.7.8-5.8.8-6.4 0-8.5-3.4-8.5-8.6 0-5.2 2.1-8.6 8.5-8.6 2.1 0 3.8.3 5.8.8v4.6h-3.6zM271.7 332.5h-2.2v-2.8l2.2-.3.5-4.6h3.8v4.6h4.1v3.1H276v8c0 1.6.7 2.4 2.4 2.4.4 0 .9 0 1.5-.2l.4 3.3c-.9.2-2.5.3-3.4.3-3.8 0-5.2-1.6-5.2-5v-8.8zM282.2 329.4h6.2v13h1.9v3.5h-8.1v-3.5h1.9V333h-1.9v-3.6zm6.2-6.6v4.6h-4.3v-4.6h4.3zM291.5 337.7c0-5.2 2.2-8.6 8-8.6s8 3.4 8 8.6c0 5.2-2.2 8.6-8 8.6s-8-3.4-8-8.6zm4.5 0c0 3.1.8 5 3.5 5s3.5-2 3.5-5-.8-5-3.5-5-3.5 1.9-3.5 5zM319.7 342.4h1.6v-6.8c0-1.9-.7-3-2.6-3-1.4 0-2.6.7-3.5 1.3v8.5h1.7v3.5h-7.8v-3.5h1.9V333h-1.9v-3.6h6.2v2.1h.1c1.4-1.5 3.2-2.5 5.4-2.5 3.3 0 5 2.1 5 5.5v7.8h1.9v3.5h-7.9v-3.4zM339.5 342.4h1.6v-6.8c0-1.9-.7-3-2.6-3-1.4 0-2.6.7-3.5 1.3v8.5h1.7v3.5h-7.8v-3.5h1.9V333h-1.9v-3.6h6.2v2.1h.1c1.4-1.5 3.2-2.5 5.4-2.5 3.3 0 5 2.1 5 5.5v7.8h1.9v3.5h-7.9v-3.4zM353.1 338.6c.1 2.5 1.6 4.1 4.7 4.1 1.4 0 3-.1 5.1-.7l.5 3.4c-2.2.6-4.1.8-6.3.8-6.3 0-8.6-3.4-8.6-8.6 0-5.2 2.2-8.6 8.5-8.6 7.1 0 7.5 4.9 6.8 9.5h-10.7zm0-2.7h6.5c.3-1.8-.1-3.5-2.8-3.5-2.4 0-3.5 1.4-3.7 3.5zM381.5 349h1.9v-4.7h-.1c-1 1.2-2.8 2-4.6 2-4.6 0-6-3.9-6-8.6 0-4.7 1.7-8.6 6.3-8.6 1.7 0 3.5.7 4.7 1.8h.1l.8-1.7h3.3V349h1.9v3.5h-8.1V349zm-1.1-6.3c1.4 0 2.5-.6 3-1.1v-8c-.5-.4-1.6-1-3-1-2.5 0-3.2 2.2-3.2 5 0 2.9.7 5.1 3.2 5.1zM389.9 329.4h6.2v10.3c0 1.9.9 3 2.6 3 1.4 0 2.6-.8 3.5-1.3V333h-2.1v-3.6h6.4v13h1.9v3.5h-6.2v-2.1h-.1c-1.4 1.5-3.2 2.5-5.4 2.5-3.3 0-5-2.1-5-5.5V333h-1.9v-3.6zM414.2 338.6c.1 2.5 1.6 4.1 4.7 4.1 1.4 0 3-.1 5.1-.7l.5 3.4c-2.2.6-4.1.8-6.3.8-6.3 0-8.6-3.4-8.6-8.6 0-5.2 2.2-8.6 8.5-8.6 7.1 0 7.5 4.9 6.8 9.5h-10.7zm0-2.7h6.5c.3-1.8-.1-3.5-2.8-3.5-2.4 0-3.5 1.4-3.7 3.5zM443.5 334.5v-1.7c-1.3-.2-2.4-.3-3.1-.3-2 0-2.5.8-2.5 1.4 0 .8.5 1.2 2.7 1.7 3.1.7 7 1.5 7 5.3 0 3.6-2.5 5.3-6.5 5.3-2.7 0-5.5-.3-7.5-.8v-4.6h3.6v1.7c1.4.3 2.7.3 3.5.3 2.1 0 2.7-1 2.7-1.6 0-.8-.9-1.2-2.8-1.6-3.7-.6-6.8-1.8-6.8-5.6 0-3.5 2.5-5 6.5-5 2.7 0 5 .3 6.9.8v4.6h-3.7zM449.3 329.4h6.2v13h1.9v3.5h-8.1v-3.5h1.9V333h-1.9v-3.6zm6.2-6.6v4.6h-4.3v-4.6h4.3zM465 322.8h6.2v19.6h1.9v3.5H465v-3.5h1.9v-16H465v-3.6zM478.9 338.6c.1 2.5 1.6 4.1 4.7 4.1 1.4 0 3-.1 5.1-.7l.5 3.4c-2.2.6-4.1.8-6.3.8-6.3 0-8.6-3.4-8.6-8.6 0-5.2 2.2-8.6 8.5-8.6 7.1 0 7.5 4.9 6.8 9.5h-10.7zm0-2.7h6.5c.3-1.8-.1-3.5-2.8-3.5-2.4 0-3.5 1.4-3.7 3.5zM502 334.5v-1.7c-1.3-.2-2.4-.3-3.1-.3-2 0-2.5.8-2.5 1.4 0 .8.5 1.2 2.7 1.7 3.1.7 7 1.5 7 5.3 0 3.6-2.5 5.3-6.5 5.3-2.7 0-5.5-.3-7.5-.8v-4.6h3.6v1.7c1.4.3 2.7.3 3.5.3 2.1 0 2.7-1 2.7-1.6 0-.8-.9-1.2-2.8-1.6-3.7-.6-6.8-1.8-6.8-5.6 0-3.5 2.5-5 6.5-5 2.7 0 5 .3 6.9.8v4.6H502zM135.2 372.4h6.2v13h1.9v3.5h-8.1v-3.5h1.9V376h-1.9v-3.6zm6.1-6.6v4.6H137v-4.6h4.3zM155.2 385.4h1.7v-6.8c0-1.9-.7-3-2.6-3-1.4 0-2.6.7-3.5 1.3v8.5h1.7v3.5h-7.8v-3.5h1.9V376h-1.9v-3.6h6.2v2.1h.1c1.4-1.5 3.2-2.5 5.4-2.5 3.3 0 5 2.1 5 5.5v7.8h1.9v3.5h-7.9v-3.4zM165.3 375.5H163v-2.8l2.2-.3.5-4.6h3.8v4.6h4.1v3.1h-4.1v8c0 1.6.7 2.4 2.4 2.4.4 0 .9 0 1.5-.2l.4 3.3c-.9.2-2.5.3-3.4.3-3.8 0-5.2-1.6-5.2-5v-8.8zM179.7 381.6c.1 2.5 1.6 4.1 4.7 4.1 1.4 0 3-.1 5.1-.7l.5 3.4c-2.2.6-4.1.8-6.3.8-6.3 0-8.6-3.4-8.6-8.6 0-5.2 2.2-8.6 8.5-8.6 7.1 0 7.5 4.9 6.8 9.5h-10.7zm0-2.7h6.5c.3-1.8-.1-3.5-2.8-3.5-2.4 0-3.5 1.4-3.7 3.5zM192.4 372.4h6.2v2.6h.1c1.1-1.5 3.1-3 5.7-3v4.1c-2.2 0-4.5.6-5.8 1.3v8h2.1v3.5h-8.3v-3.5h1.9V376h-1.9v-3.6zM216.8 372.4h7.3v3.6h-1.2l-5.2 13.1h-5.1l-5.2-13.1h-1.3v-3.6h8v3.6h-1.9l3.4 8.8h.1l3.1-8.8H217v-3.6zM229.5 381.6c.1 2.5 1.6 4.1 4.7 4.1 1.4 0 3-.1 5.1-.7l.5 3.4c-2.2.6-4.1.8-6.3.8-6.3 0-8.6-3.4-8.6-8.6 0-5.2 2.2-8.6 8.5-8.6 7.1 0 7.5 4.9 6.8 9.5h-10.7zm0-2.7h6.5c.3-1.8-.1-3.5-2.8-3.5-2.3 0-3.5 1.4-3.7 3.5zM252.9 385.4h1.7v-6.8c0-1.9-.7-3-2.6-3-1.4 0-2.6.7-3.5 1.3v8.5h1.7v3.5h-7.8v-3.5h1.9V376h-1.9v-3.6h6.2v2.1h.1c1.4-1.5 3.2-2.5 5.4-2.5 3.3 0 5 2.1 5 5.5v7.8h1.9v3.5h-7.9v-3.4zM263.2 377.5v-4.6c2.3-.5 4.8-.8 6.8-.8 4.2 0 6.5 1.1 6.5 5.5v7.8h1.9v3.5h-6.2v-1.6h-.1c-1.5 1.5-3.3 2.1-5.3 1.9-2.8-.2-4.6-2.1-4.6-5 0-3.8 3.1-5.1 6.9-5.1h3.1v-1.2c0-1.7-1.1-2.2-3.2-2.2-.6 0-1.3 0-2.3.2v1.6h-3.5zm9 4.1h-2.4c-2.1 0-3.3.5-3.3 2.2 0 1.5 1.2 2.1 2.6 2.1 1.4 0 2.6-.6 3.2-1v-3.3zM290.3 385.4h1.7v-6.8c0-1.9-.7-3-2.6-3-1.4 0-2.6.7-3.5 1.3v8.5h1.7v3.5h-7.8v-3.5h1.9V376h-1.9v-3.6h6.2v2.1h.1c1.4-1.5 3.2-2.5 5.4-2.5 3.3 0 5 2.1 5 5.5v7.8h1.9v3.5h-7.9v-3.4zM300.4 375.5h-2.2v-2.8l2.2-.3.5-4.6h3.8v4.6h4.1v3.1h-4.1v8c0 1.6.7 2.4 2.4 2.4.4 0 .9 0 1.5-.2l.4 3.3c-.9.2-2.5.3-3.4.3-3.8 0-5.2-1.6-5.2-5v-8.8zM321.3 377.5v-1.7c-1.3-.2-2.4-.3-3.1-.3-2 0-2.5.8-2.5 1.4 0 .8.5 1.2 2.7 1.7 3.1.7 7 1.5 7 5.3 0 3.6-2.5 5.3-6.5 5.3-2.7 0-5.5-.3-7.5-.8v-4.6h3.6v1.7c1.4.3 2.7.3 3.5.3 2.1 0 2.7-1 2.7-1.6 0-.8-.9-1.2-2.8-1.6-3.7-.6-6.8-1.8-6.8-5.6 0-3.5 2.5-5 6.5-5 2.7 0 5 .3 6.9.8v4.6h-3.7zM344.6 377.5v-1.6c-.9-.2-1.6-.2-2.2-.2-2.6 0-4 1.7-4 5s1.4 5 4 5c1.2 0 2.3 0 5-.7l.8 3.4c-2 .5-3.7.8-5.8.8-6.4 0-8.5-3.4-8.5-8.6 0-5.2 2.1-8.6 8.5-8.6 2.1 0 3.8.3 5.8.8v4.6h-3.6zM349.7 365.8h6.2v19.6h1.9v3.5h-8.1v-3.5h1.9v-16h-1.9v-3.6zM363.5 381.6c.1 2.5 1.6 4.1 4.7 4.1 1.4 0 3-.1 5.1-.7l.5 3.4c-2.2.6-4.1.8-6.3.8-6.3 0-8.6-3.4-8.6-8.6 0-5.2 2.2-8.6 8.5-8.6 7.1 0 7.5 4.9 6.8 9.5h-10.7zm0-2.7h6.5c.3-1.8-.1-3.5-2.8-3.5-2.4 0-3.5 1.4-3.7 3.5zm5.5-8.5h-2.3l1.8-4.6h3.6l-3.1 4.6zM386.6 377.5v-1.7c-1.3-.2-2.4-.3-3.1-.3-2 0-2.5.8-2.5 1.4 0 .8.5 1.2 2.7 1.7 3.1.7 7 1.5 7 5.3 0 3.6-2.5 5.3-6.5 5.3-2.7 0-5.5-.3-7.5-.8v-4.6h3.6v1.7c1.4.3 2.7.3 3.5.3 2.1 0 2.7-1 2.7-1.6 0-.8-.9-1.2-2.8-1.6-3.7-.6-6.8-1.8-6.8-5.6 0-3.5 2.5-5 6.5-5 2.7 0 5 .3 6.9.8v4.6h-3.7zM409.1 377.5v-1.7c-1.3-.2-2.4-.3-3.1-.3-2 0-2.5.8-2.5 1.4 0 .8.5 1.2 2.7 1.7 3.1.7 7 1.5 7 5.3 0 3.6-2.5 5.3-6.5 5.3-2.7 0-5.5-.3-7.5-.8v-4.6h3.6v1.7c1.4.3 2.7.3 3.5.3 2.1 0 2.7-1 2.7-1.6 0-.8-.9-1.2-2.8-1.6-3.7-.6-6.8-1.8-6.8-5.6 0-3.5 2.5-5 6.5-5 2.7 0 5 .3 6.9.8v4.6h-3.7zM415.1 380.7c0-5.2 2.2-8.6 8-8.6s8 3.4 8 8.6c0 5.2-2.2 8.6-8 8.6s-8-3.4-8-8.6zm4.5 0c0 3.1.8 5 3.5 5s3.5-2 3.5-5-.8-5-3.5-5-3.5 1.9-3.5 5zM443.3 385.4h1.7v-6.8c0-1.9-.7-3-2.6-3-1.4 0-2.6.7-3.5 1.3v8.5h1.7v3.5h-7.8v-3.5h1.9V376h-1.9v-3.6h6.2v2.1h.1c1.4-1.5 3.2-2.5 5.4-2.5 3.3 0 5 2.1 5 5.5v7.8h1.9v3.5h-7.9v-3.4zM453.3 375.5h-2.2v-2.8l2.2-.3.5-4.6h3.8v4.6h4.1v3.1h-4.1v8c0 1.6.7 2.4 2.4 2.4.4 0 .9 0 1.5-.2l.4 3.3c-.9.2-2.5.3-3.4.3-3.8 0-5.2-1.6-5.2-5v-8.8zM475.2 381.6c.1 2.5 1.6 4.1 4.7 4.1 1.4 0 3-.1 5.1-.7l.5 3.4c-2.2.6-4.1.8-6.3.8-6.3 0-8.6-3.4-8.6-8.6 0-5.2 2.2-8.6 8.5-8.6 7.1 0 7.5 4.9 6.8 9.5h-10.7zm0-2.7h6.5c.3-1.8-.1-3.5-2.8-3.5-2.4 0-3.5 1.4-3.7 3.5zM498.6 385.4h1.7v-6.8c0-1.9-.7-3-2.6-3-1.4 0-2.6.7-3.5 1.3v8.5h1.7v3.5h-7.8v-3.5h1.9V376h-1.9v-3.6h6.2v2.1h.1c1.4-1.5 3.2-2.5 5.4-2.5 3.3 0 5 2.1 5 5.5v7.8h1.9v3.5h-7.9v-3.4zM63.6 428.4h1.7v-7c-.1-1.7-.9-2.8-2.6-2.8-1.3 0-2.4.7-3.2 1.3v8.5H61v3.5h-7.8v-3.5H55V419h-1.9v-3.6h6.2v2.1h.1c1.1-1.2 2.4-2.1 4.1-2.3.5-.1 1-.1 1.5-.1 2 .1 3.3 1.1 4 2.7 1.7-1.9 3.6-2.7 5.7-2.7 3.3 0 5 2.1 5 5.5v7.8h1.9v3.5h-7.9v-3.5h1.6v-6.8c0-1.9-.9-3-2.6-3-1.3 0-2.4.7-3.2 1.3v8.5h1.7v3.5h-7.6v-3.5zM87.3 424.6c.1 2.5 1.6 4.1 4.7 4.1 1.4 0 3-.1 5.1-.7l.5 3.4c-2.2.6-4.1.8-6.3.8-6.3 0-8.6-3.4-8.6-8.6 0-5.2 2.2-8.6 8.5-8.6 7.1 0 7.5 4.9 6.8 9.5H87.3zm0-2.7h6.5c.3-1.8-.1-3.5-2.8-3.5-2.4 0-3.5 1.4-3.7 3.5zM110.4 420.5v-1.7c-1.3-.2-2.4-.3-3.1-.3-2 0-2.5.8-2.5 1.4 0 .8.5 1.2 2.7 1.7 3.1.7 7 1.5 7 5.3 0 3.6-2.5 5.3-6.5 5.3-2.7 0-5.5-.3-7.5-.8v-4.6h3.6v1.7c1.4.3 2.7.3 3.5.3 2.1 0 2.7-1 2.7-1.6 0-.8-.9-1.2-2.8-1.6-3.7-.6-6.8-1.8-6.8-5.6 0-3.5 2.5-5 6.5-5 2.7 0 5 .3 6.9.8v4.6h-3.7zM116.2 415.4h6.2v10.3c0 1.9.9 3 2.6 3 1.4 0 2.6-.8 3.5-1.3V419h-2.1v-3.6h6.4v13h1.9v3.5h-6.2v-2.1h-.1c-1.4 1.5-3.2 2.5-5.4 2.5-3.3 0-5-2.1-5-5.5V419h-1.9v-3.6zM136 415.4h6.2v2.6h.1c1.1-1.5 3.1-3 5.7-3v4.1c-2.2 0-4.5.6-5.8 1.3v8h2.1v3.5H136v-3.5h1.9V419H136v-3.6zM153.6 424.6c.1 2.5 1.6 4.1 4.7 4.1 1.4 0 3-.1 5.1-.7l.5 3.4c-2.2.6-4.1.8-6.3.8-6.3 0-8.6-3.4-8.6-8.6 0-5.2 2.2-8.6 8.5-8.6 7.1 0 7.5 4.9 6.8 9.5h-10.7zm0-2.7h6.5c.3-1.8-.1-3.5-2.8-3.5-2.3 0-3.5 1.4-3.7 3.5zM182 408.8h6.2v19.6h1.9v3.5h-6.2v-1.6h-.1c-1 1.2-2.8 2-4.6 2-4.6 0-6-3.9-6-8.6 0-4.7 1.6-8.6 6.3-8.6 1.7 0 3.4.7 4.4 1.8h.1v-4.6h-2v-3.5zm-1.1 19.9c1.4 0 2.5-.6 3-1.1v-8c-.5-.4-1.6-1-3-1-2.5 0-3.2 2.2-3.2 5 0 2.9.7 5.1 3.2 5.1zM195.9 424.6c.1 2.5 1.6 4.1 4.7 4.1 1.4 0 3-.1 5.1-.7l.5 3.4c-2.2.6-4.1.8-6.3.8-6.3 0-8.6-3.4-8.6-8.6 0-5.2 2.2-8.6 8.5-8.6 7.1 0 7.5 4.9 6.8 9.5h-10.7zm0-2.7h6.5c.3-1.8-.1-3.5-2.8-3.5-2.4 0-3.5 1.4-3.7 3.5zM214.9 408.8h6.2v19.6h1.9v3.5h-8.1v-3.5h1.9v-16h-1.9v-3.6zM228.7 424.6c.1 2.5 1.6 4.1 4.7 4.1 1.4 0 3-.1 5.1-.7l.5 3.4c-2.2.6-4.1.8-6.3.8-6.3 0-8.6-3.4-8.6-8.6 0-5.2 2.2-8.6 8.5-8.6 7.1 0 7.5 4.9 6.8 9.5h-10.7zm0-2.7h6.5c.3-1.8-.1-3.5-2.8-3.5-2.4 0-3.5 1.4-3.7 3.5zM259 420.5v-1.6c-.9-.2-1.6-.2-2.2-.2-2.6 0-4 1.7-4 5s1.4 5 4 5c1.2 0 2.3 0 5-.7l.8 3.4c-2 .5-3.7.8-5.8.8-6.4 0-8.5-3.4-8.5-8.6 0-5.2 2.1-8.6 8.5-8.6 2.1 0 3.8.3 5.8.8v4.6H259zM264.3 423.7c0-5.2 2.2-8.6 8-8.6s8 3.4 8 8.6c0 5.2-2.2 8.6-8 8.6s-8-3.4-8-8.6zm4.5 0c0 3.1.8 5 3.5 5s3.5-2 3.5-5-.8-5-3.5-5-3.5 1.9-3.5 5zM292.2 428.4h1.7v-7c-.1-1.7-.9-2.8-2.6-2.8-1.3 0-2.4.7-3.2 1.3v8.5h1.7v3.5H282v-3.5h1.9V419H282v-3.6h6.2v2.1h.1c1.1-1.2 2.4-2.1 4.1-2.3.5-.1 1-.1 1.5-.1 2 .1 3.3 1.1 4 2.7 1.7-1.9 3.6-2.7 5.7-2.7 3.3 0 5 2.1 5 5.5v7.8h1.9v3.5h-7.9v-3.5h1.7v-6.8c0-1.9-.9-3-2.6-3-1.3 0-2.4.7-3.2 1.3v8.5h1.7v3.5h-7.6v-3.5zM311.5 415.4h6.2v1.7h.1c1.1-1.2 2.9-2 4.7-2 4.6 0 6 3.9 6 8.6 0 4.7-1.6 8.6-6.3 8.6-1.7 0-3.3-.7-4.4-1.8h-.1v4.6h1.9v3.5h-8.1V435h1.9v-16h-1.9v-3.6zm9.2 3.3c-1.4 0-2.4.6-3 1v8c.5.4 1.6 1.1 3 1.1 2.5 0 3.2-2.2 3.2-5 0-2.9-.7-5.1-3.2-5.1zM330 415.4h6.2v2.6h.1c1.1-1.5 3.1-3 5.7-3v4.1c-2.2 0-4.5.6-5.8 1.3v8h2.1v3.5H330v-3.5h1.9V419H330v-3.6zM347.7 424.6c.1 2.5 1.6 4.1 4.7 4.1 1.4 0 3-.1 5.1-.7l.5 3.4c-2.2.6-4.1.8-6.3.8-6.3 0-8.6-3.4-8.6-8.6 0-5.2 2.2-8.6 8.5-8.6 7.1 0 7.5 4.9 6.8 9.5h-10.7zm0-2.7h6.5c.3-1.8-.1-3.5-2.8-3.5-2.4 0-3.5 1.4-3.7 3.5zM371 428.4h1.7v-6.8c0-1.9-.7-3-2.6-3-1.4 0-2.6.7-3.5 1.3v8.5h1.7v3.5h-7.8v-3.5h1.9V419h-1.9v-3.6h6.2v2.1h.1c1.4-1.5 3.2-2.5 5.4-2.5 3.3 0 5 2.1 5 5.5v7.8h1.9v3.5H371v-3.4zM388.9 408.8h6.2v19.6h1.9v3.5h-6.2v-1.6h-.1c-1 1.2-2.8 2-4.6 2-4.6 0-6-3.9-6-8.6 0-4.7 1.6-8.6 6.3-8.6 1.7 0 3.4.7 4.4 1.8h.1v-4.6H389v-3.5zm-1.1 19.9c1.4 0 2.5-.6 3-1.1v-8c-.5-.4-1.6-1-3-1-2.5 0-3.2 2.2-3.2 5 0 2.9.7 5.1 3.2 5.1zM398.3 415.4h6.2v2.6h.1c1.1-1.5 3.1-3 5.7-3v4.1c-2.2 0-4.5.6-5.8 1.3v8h2.1v3.5h-8.3v-3.5h1.9V419h-1.9v-3.6zM416 424.6c.1 2.5 1.6 4.1 4.7 4.1 1.4 0 3-.1 5.1-.7l.5 3.4c-2.2.6-4.1.8-6.3.8-6.3 0-8.6-3.4-8.6-8.6 0-5.2 2.2-8.6 8.5-8.6 7.1 0 7.5 4.9 6.8 9.5H416zm0-2.7h6.5c.3-1.8-.1-3.5-2.8-3.5-2.4 0-3.5 1.4-3.7 3.5zM440.1 424.6c.1 2.5 1.6 4.1 4.7 4.1 1.4 0 3-.1 5.1-.7l.5 3.4c-2.2.6-4.1.8-6.3.8-6.3 0-8.6-3.4-8.6-8.6 0-5.2 2.2-8.6 8.5-8.6 7.1 0 7.5 4.9 6.8 9.5h-10.7zm0-2.7h6.5c.3-1.8-.1-3.5-2.8-3.5-2.4 0-3.5 1.4-3.7 3.5zM455 418.5h-2.2v-2.8l2.2-.3.5-4.6h3.8v4.6h4.1v3.1h-4.1v8c0 1.6.7 2.4 2.4 2.4.4 0 .9 0 1.5-.2l.4 3.3c-.9.2-2.5.3-3.4.3-3.8 0-5.2-1.6-5.2-5v-8.8zM481.2 408.8h6.2v19.6h1.9v3.5H483v-1.6c-1 1.2-2.8 2-4.6 2-4.6 0-6-3.9-6-8.6 0-4.7 1.7-8.6 6.3-8.6 1.7 0 3.4.7 4.4 1.8h.1v-4.6h-1.9v-3.5zm-1.1 19.9c1.4 0 2.5-.6 3-1.1v-8c-.5-.4-1.6-1-3-1-2.5 0-3.2 2.2-3.2 5 0 2.9.7 5.1 3.2 5.1zM495 424.6c.1 2.5 1.6 4.1 4.7 4.1 1.4 0 3-.1 5.1-.7l.5 3.4c-2.2.6-4.1.8-6.3.8-6.3 0-8.6-3.4-8.6-8.6 0-5.2 2.2-8.6 8.5-8.6 7.1 0 7.5 4.9 6.8 9.5H495zm0-2.7h6.5c.3-1.8-.1-3.5-2.8-3.5-2.4 0-3.5 1.4-3.7 3.5zM143.1 451.8h6.2v19.6h1.9v3.5h-8.1v-3.5h1.9v-16h-1.9v-3.6zM154.3 461.6l.8-4.3h-1.7v-4.8h4.3v4.8l-2 4.3h-1.4zM165 467.6c.1 2.5 1.6 4.1 4.7 4.1 1.4 0 3-.1 5.1-.7l.5 3.4c-2.2.6-4.1.8-6.3.8-6.3 0-8.6-3.4-8.6-8.6 0-5.2 2.2-8.6 8.5-8.6 7.1 0 7.5 4.9 6.8 9.5H165zm0-2.7h6.5c.3-1.8-.1-3.5-2.8-3.5-2.4 0-3.5 1.4-3.7 3.5zM188.9 458.4h6.8v3.6h-1.4l-4.7 4.8 4.6 4.6h1.8v3.5h-9v-3.5h1.4l-3-3.2-2.9 3.2h1.5v3.5h-7v-3.5h1.4l4.8-5.1-4.3-4.3h-1.6v-3.6h8.8v3.6h-1.4l2.8 2.9 2.7-2.9h-1.3v-3.6zM201.5 467.6c.1 2.5 1.6 4.1 4.7 4.1 1.4 0 3-.1 5.1-.7l.5 3.4c-2.2.6-4.1.8-6.3.8-6.3 0-8.6-3.4-8.6-8.6 0-5.2 2.2-8.6 8.5-8.6 7.1 0 7.5 4.9 6.8 9.5h-10.7zm0-2.7h6.5c.3-1.8-.1-3.5-2.8-3.5-2.4 0-3.5 1.4-3.7 3.5zm5.4-8.5h-2.3l1.8-4.6h3.6l-3.1 4.6zM225.5 463.5v-1.6c-.9-.2-1.6-.2-2.2-.2-2.6 0-4 1.7-4 5s1.4 5 4 5c1.2 0 2.3 0 5-.7l.8 3.4c-2 .5-3.7.8-5.8.8-6.4 0-8.5-3.4-8.5-8.6 0-5.2 2.1-8.6 8.5-8.6 2.1 0 3.8.3 5.8.8v4.6h-3.6zM230.5 458.4h6.2v10.3c0 1.9.9 3 2.6 3 1.4 0 2.6-.8 3.5-1.3V462h-2.1v-3.6h6.4v13h1.9v3.5h-6.2v-2.1h-.1c-1.4 1.5-3.2 2.5-5.4 2.5-3.3 0-5-2.1-5-5.5V462h-1.9v-3.6zM251.6 461.5h-2.2v-2.8l2.2-.3.5-4.6h3.8v4.6h4.1v3.1h-4.1v8c0 1.6.7 2.4 2.4 2.4.4 0 .9 0 1.5-.2l.4 3.3c-.9.2-2.5.3-3.4.3-3.8 0-5.2-1.6-5.2-5v-8.8zM266 467.6c.1 2.5 1.6 4.1 4.7 4.1 1.4 0 3-.1 5.1-.7l.5 3.4c-2.2.6-4.1.8-6.3.8-6.3 0-8.6-3.4-8.6-8.6 0-5.2 2.2-8.6 8.5-8.6 7.1 0 7.5 4.9 6.8 9.5H266zm0-2.7h6.5c.3-1.8-.1-3.5-2.8-3.5-2.4 0-3.5 1.4-3.7 3.5zM278.7 458.4h6.2v2.6h.1c1.1-1.5 3.1-3 5.7-3v4.1c-2.2 0-4.5.6-5.8 1.3v8h2.1v3.5h-8.3v-3.5h1.9V462h-1.9v-3.6zM309.8 463.5v-1.6c-.9-.2-1.6-.2-2.2-.2-2.6 0-4 1.7-4 5s1.4 5 4 5c1.2 0 2.3 0 5-.7l.8 3.4c-2 .5-3.7.8-5.8.8-6.4 0-8.5-3.4-8.5-8.6 0-5.2 2.1-8.6 8.5-8.6 2.1 0 3.8.3 5.8.8v4.6h-3.6zM315.1 466.7c0-5.2 2.2-8.6 8-8.6s8 3.4 8 8.6c0 5.2-2.2 8.6-8 8.6s-8-3.4-8-8.6zm4.5 0c0 3.1.8 5 3.5 5s3.5-2 3.5-5-.8-5-3.5-5-3.5 1.9-3.5 5zM332.7 458.4h6.2v2.6h.1c1.1-1.5 3.1-3 5.7-3v4.1c-2.2 0-4.5.6-5.8 1.3v8h2.1v3.5h-8.3v-3.5h1.9V462h-1.9v-3.6zM346.2 458.4h6.2v2.6h.1c1.1-1.5 3.1-3 5.7-3v4.1c-2.2 0-4.5.6-5.8 1.3v8h2.1v3.5h-8.3v-3.5h1.9V462h-1.9v-3.6zM363.9 467.6c.1 2.5 1.6 4.1 4.7 4.1 1.4 0 3-.1 5.1-.7l.5 3.4c-2.2.6-4.1.8-6.3.8-6.3 0-8.6-3.4-8.6-8.6 0-5.2 2.2-8.6 8.5-8.6 7.1 0 7.5 4.9 6.8 9.5h-10.7zm0-2.7h6.5c.3-1.8-.1-3.5-2.8-3.5-2.4 0-3.5 1.4-3.7 3.5zM387.8 463.5v-1.6c-.9-.2-1.6-.2-2.2-.2-2.6 0-4 1.7-4 5s1.4 5 4 5c1.2 0 2.3 0 5-.7l.8 3.4c-2 .5-3.7.8-5.8.8-6.4 0-8.5-3.4-8.5-8.6 0-5.2 2.1-8.6 8.5-8.6 2.1 0 3.8.3 5.8.8v4.6h-3.6zM395.1 461.5h-2.2v-2.8l2.2-.3.5-4.6h3.8v4.6h4.1v3.1h-4.1v8c0 1.6.7 2.4 2.4 2.4.4 0 .9 0 1.5-.2l.4 3.3c-.9.2-2.5.3-3.4.3-3.8 0-5.2-1.6-5.2-5v-8.8zM409.6 467.6c.1 2.5 1.6 4.1 4.7 4.1 1.4 0 3-.1 5.1-.7l.5 3.4c-2.2.6-4.1.8-6.3.8-6.3 0-8.6-3.4-8.6-8.6 0-5.2 2.2-8.6 8.5-8.6 7.1 0 7.5 4.9 6.8 9.5h-10.7zm0-2.7h6.5c.3-1.8-.1-3.5-2.8-3.5-2.4 0-3.5 1.4-3.7 3.5zM432.7 471.4h1.7v-7c-.1-1.7-.9-2.8-2.6-2.8-1.3 0-2.4.7-3.2 1.3v8.5h1.7v3.5h-7.8v-3.5h1.9V462h-1.9v-3.6h6.2v2.1h.1c1.1-1.2 2.4-2.1 4.1-2.3.5-.1 1-.1 1.5-.1 2 .1 3.3 1.1 4 2.7 1.7-1.9 3.6-2.7 5.7-2.7 3.3 0 5 2.1 5 5.5v7.8h1.9v3.5h-7.9v-3.5h1.7v-6.8c0-1.9-.9-3-2.6-3-1.3 0-2.4.7-3.2 1.3v8.5h1.6v3.5H433v-3.5zM456.4 467.6c.1 2.5 1.6 4.1 4.7 4.1 1.4 0 3-.1 5.1-.7l.5 3.4c-2.2.6-4.1.8-6.3.8-6.3 0-8.6-3.4-8.6-8.6 0-5.2 2.2-8.6 8.5-8.6 7.1 0 7.5 4.9 6.8 9.5h-10.7zm0-2.7h6.5c.3-1.8-.1-3.5-2.8-3.5-2.4 0-3.5 1.4-3.7 3.5zM479.8 471.4h1.7v-6.8c0-1.9-.7-3-2.6-3-1.4 0-2.6.7-3.5 1.3v8.5h1.7v3.5h-7.8v-3.5h1.9V462h-1.9v-3.6h6.2v2.1h.1c1.4-1.5 3.2-2.5 5.4-2.5 3.3 0 5 2.1 5 5.5v7.8h1.9v3.5H480v-3.4zM489.8 461.5h-2.2v-2.8l2.2-.3.5-4.6h3.8v4.6h4.1v3.1h-4.1v8c0 1.6.7 2.4 2.4 2.4.4 0 .9 0 1.5-.2l.4 3.3c-.9.2-2.5.3-3.4.3-3.8 0-5.2-1.6-5.2-5v-8.8zM505.5 470.1v4.8h-4.3v-4.8h4.3z"/></g></g></g></g><g id="Glance_2_lines_00000152235431030001638220000004783035728103730048_"><g id="Glance_00000019670768800489954650000006843168214220279968_"><g id="Glance_00000054971544604552937570000004009585566107909553_"><g id="_Jobs_in_advanced_economies_are_increasingly_for_high-skill_workers._00000093892741852824547060000015661538477672092309_"><path class="st4" d="M104.5 223.1v1.5h-1.3v7.3c0 3.5-1.9 5-5.1 5-3.3 0-5.1-1.5-5.1-5v-7.3h-1.3v-1.5h4.5v1.5h-1.3v7.3c0 1.5.3 3.5 3.2 3.5 2.8 0 3.2-2 3.2-3.5v-7.3H100v-1.5h4.5zM111.3 235.2h1.2v-5c0-1.3-.5-2.2-2-2.2-1.2 0-2.2.7-2.8 1.2v6h1.2v1.5h-4.3v-1.5h1.3v-7h-1.3v-1.5h3.1v1.4c1-.9 2.2-1.6 3.6-1.6 2 0 3 1.2 3 3.3v5.4h1.3v1.5h-4.3v-1.5zM120 226.7h3.1v1c.7-.7 1.9-1.2 3.1-1.2 2.8 0 3.7 2.3 3.7 5.2 0 2.9-1 5.2-3.8 5.2-1.1 0-2.3-.4-3-1.1v3.4h1.3v1.5H120v-1.5h1.3v-11H120v-1.5zm5.5 1.3c-1.1 0-2 .5-2.4.9v5.7c.4.3 1.3.8 2.4.8 1.9 0 2.5-1.7 2.5-3.7s-.5-3.7-2.5-3.7zM131 222.7h3.1v12.5h1.3v1.5H131v-1.5h1.3v-11H131v-1.5zM137.1 229.4v-2.5c1.4-.3 2.8-.4 3.9-.4 2.4 0 3.7.7 3.7 3.3v5.4h1.3v1.5h-3.1v-1c-.9.7-1.8 1.2-3.1 1.2-2.1 0-3.2-1.1-3.2-3 0-2.4 2.1-3 4.2-3h2.2v-1c0-1.3-.7-1.9-2.3-1.9-.5 0-1.1 0-2 .2v1.2h-1.6zm5.7 2.6h-1.9c-1.9 0-2.7.6-2.7 1.8 0 1.1.8 1.7 2.1 1.7 1.1 0 2-.5 2.5-.8V232zM153.4 235.2h1.2v-5c0-1.3-.5-2.2-2-2.2-1.2 0-2.2.7-2.8 1.2v6h1.2v1.5h-4.3v-1.5h1.3v-7h-1.3v-1.5h3.1v1.4c1-.9 2.2-1.6 3.6-1.6 2 0 3 1.2 3 3.3v5.4h1.3v1.5h-4.3v-1.5zM168.1 222.7h3.1v12.5h1.3v1.5h-3.1v-1c-.7.7-1.9 1.2-3.1 1.2-2.8 0-3.7-2.3-3.7-5.2 0-2.9 1-5.2 3.8-5.2 1.1 0 2.2.5 3 1.2v-3.5h-1.3v-1.5zm-1.1 12.7c1.1 0 2-.5 2.4-.8v-5.7c-.4-.3-1.3-.9-2.4-.9-2 0-2.5 1.7-2.5 3.7s.6 3.7 2.5 3.7zM175.3 232c0 2 1 3.4 3.3 3.4 1 0 2 0 3.1-.4l.2 1.5c-1.3.3-2.3.4-3.6.4-3.7 0-5-2.1-5-5.2s1.3-5.2 4.9-5.2c4.2 0 4.3 3.2 3.9 5.5h-6.8zm0-1.1h5.1c.3-1.4-.1-3-2.2-3-2 0-2.7 1.3-2.9 3zM189.1 236c-1.2-.7-.9-2.4.6-3.3-1-.5-1.7-1.5-1.7-2.8 0-2.2 1.6-3.4 4.1-3.4.5 0 1 .1 1.4.2h3.5v1.1h-2c.8.5 1 1.4 1 2.1 0 2.2-1.7 3.3-3.9 3.3-.4 0-1-.1-1.4-.2-.7.8-.8 1.8.2 1.8l3.4.2c2.1.1 3 1 3 2.4 0 2.3-1.8 3.5-5.7 3.5-2.7 0-4.1-.8-4.1-2.6-.2-.9.4-1.6 1.6-2.3zm2.7 3.7c1.9 0 3.5-.6 3.5-1.9 0-.6-.4-1.1-1.6-1.2l-3.6-.2c-.6.5-1.2.9-1.2 1.6 0 1.1 1 1.7 2.9 1.7zm2.5-9.8c0-1.3-.9-2.1-2.2-2.1-1.5 0-2.3.8-2.3 2.1 0 1.4.9 2.1 2.3 2.1 1.3 0 2.2-.8 2.2-2.1zM199.9 232c0 2 1 3.4 3.3 3.4 1 0 2 0 3.1-.4l.2 1.5c-1.3.3-2.3.4-3.6.4-3.7 0-5-2.1-5-5.2s1.3-5.2 4.9-5.2c4.2 0 4.3 3.2 3.9 5.5h-6.8zm0-1.1h5.1c.3-1.4-.1-3-2.2-3-2 0-2.7 1.3-2.9 3zM214.8 229.4v-1.2c-1-.2-1.9-.2-2.4-.2-1.8 0-2 1-2 1.3 0 .6.3 1.2 2.1 1.5 2.1.5 4 1 4 3.1 0 2-1.4 3-3.7 3-1.6 0-3.1-.1-4.3-.4V234h1.5v1.2c1 .2 2.1.2 2.6.2 1.8 0 2.1-1.1 2.1-1.5 0-.7-.5-1.2-2.3-1.5-2.1-.4-3.8-1.1-3.8-3.2 0-1.9 1.3-2.8 3.7-2.8 1.5 0 2.8.2 4 .5v2.4h-1.5zM219.2 228h-1.5v-1.2l1.5-.1.2-2.8h1.6v2.8h2.8v1.3H221v5.5c0 1.3.4 2 1.7 2 .3 0 .6 0 1-.1l.2 1.4c-.5.1-1.3.1-1.8.1-2.1 0-2.9-.8-2.9-3.1V228zM225.2 226.7h3.1v8.5h1.3v1.5h-4.4v-1.5h1.3v-7h-1.3v-1.5zm3.1-4v2.5h-1.8v-2.5h1.8zM230.5 231.7c0-3.1 1.2-5.2 4.6-5.2 3.3 0 4.6 2.1 4.6 5.2s-1.3 5.2-4.6 5.2-4.6-2.1-4.6-5.2zm1.9 0c0 2.1.6 3.7 2.7 3.7s2.7-1.6 2.7-3.7-.6-3.7-2.7-3.7-2.7 1.6-2.7 3.7zM247.5 235.2h1.2v-5c0-1.3-.5-2.2-2-2.2-1.2 0-2.2.7-2.8 1.2v6h1.2v1.5h-4.3v-1.5h1.3v-7h-1.3v-1.5h3.1v1.4c1-.9 2.2-1.6 3.6-1.6 2 0 3 1.2 3 3.3v5.4h1.3v1.5h-4.3v-1.5zM262.2 222.7h3.1v12.5h1.3v1.5h-3.1v-1c-.7.7-1.9 1.2-3.1 1.2-2.8 0-3.7-2.3-3.7-5.2 0-2.9 1-5.2 3.8-5.2 1.1 0 2.2.5 3 1.2v-3.5h-1.3v-1.5zm-1.1 12.7c1.1 0 2-.5 2.4-.8v-5.7c-.4-.3-1.3-.9-2.4-.9-2 0-2.5 1.7-2.5 3.7s.6 3.7 2.5 3.7zM269.4 232c0 2 1 3.4 3.3 3.4 1 0 2 0 3.1-.4l.2 1.5c-1.3.3-2.3.4-3.6.4-3.7 0-5-2.1-5-5.2s1.3-5.2 4.9-5.2c4.2 0 4.3 3.2 3.9 5.5h-6.8zm0-1.1h5.1c.3-1.4-.1-3-2.2-3-2 0-2.7 1.3-2.9 3zM281.2 222.7h3.1v12.5h1.3v1.5h-4.4v-1.5h1.3v-11h-1.3v-1.5zM287.3 229.4v-2.5c1.4-.3 2.8-.4 3.9-.4 2.4 0 3.7.7 3.7 3.3v5.4h1.3v1.5H293v-1c-.9.7-1.8 1.2-3.1 1.2-2.1 0-3.2-1.1-3.2-3 0-2.4 2.1-3 4.2-3h2.2v-1c0-1.3-.7-1.9-2.3-1.9-.5 0-1.1 0-2 .2v1.2h-1.5zm5.7 2.6h-1.9c-1.9 0-2.7.6-2.7 1.8 0 1.1.8 1.7 2.1 1.7 1.1 0 2-.5 2.5-.8V232zM307.8 229.4v-1.2c-.9-.2-1.5-.2-1.9-.2-2.1 0-3 1.5-3 3.7s.9 3.7 3 3.7c.7 0 1.5 0 3.1-.4l.3 1.5c-1.2.3-2.2.4-3.4.4-3.7 0-4.9-2.1-4.9-5.2s1.2-5.2 4.9-5.2c1.2 0 2.2.2 3.4.5v2.4h-1.5zM310.6 231.7c0-3.1 1.2-5.2 4.6-5.2 3.3 0 4.6 2.1 4.6 5.2s-1.3 5.2-4.6 5.2-4.6-2.1-4.6-5.2zm1.9 0c0 2.1.6 3.7 2.7 3.7s2.7-1.6 2.7-3.7-.6-3.7-2.7-3.7-2.7 1.6-2.7 3.7zM327.6 235.2h1.2v-5c0-1.3-.5-2.2-2-2.2-1.2 0-2.2.7-2.8 1.2v6h1.2v1.5h-4.3v-1.5h1.3v-7h-1.3v-1.5h3.1v1.4c1-.9 2.2-1.6 3.6-1.6 2 0 3 1.2 3 3.3v5.4h1.3v1.5h-4.3v-1.5zM333.4 228h-1.5v-1.2l1.5-.1.2-2.8h1.6v2.8h2.8v1.3h-2.8v5.5c0 1.3.4 2 1.7 2 .3 0 .6 0 1-.1l.2 1.4c-.5.1-1.3.1-1.8.1-2.1 0-2.9-.8-2.9-3.1V228zM339.4 226.7h3.1v8.5h1.3v1.5h-4.4v-1.5h1.3v-7h-1.3v-1.5zm3.1-4v2.5h-1.8v-2.5h1.8zM351.3 235.2h1.2v-5c0-1.3-.5-2.2-2-2.2-1.2 0-2.2.7-2.8 1.2v6h1.2v1.5h-4.3v-1.5h1.3v-7h-1.3v-1.5h3.1v1.4c1-.9 2.2-1.6 3.6-1.6 2 0 3 1.2 3 3.3v5.4h1.3v1.5h-4.3v-1.5zM355.8 226.7h3.1v6.5c0 1.3.5 2.2 2 2.2 1.1 0 2.2-.7 2.8-1.1v-6.1h-1.6v-1.5h3.4v8.5h1.3v1.5h-3.1v-1.4c-1 1-2.2 1.6-3.6 1.6-2 0-3-1.2-3-3.3v-5.4h-1.3v-1.5zM367.6 226.7h3.1v8.5h1.3v1.5h-4.4v-1.5h1.3v-7h-1.3v-1.5zm3.1-4v2.5h-1.8v-2.5h1.8zM373.7 228h-1.5v-1.2l1.5-.1.2-2.8h1.6v2.8h2.8v1.3h-2.8v5.5c0 1.3.4 2 1.7 2 .3 0 .6 0 1-.1l.2 1.4c-.5.1-1.3.1-1.8.1-2.1 0-2.9-.8-2.9-3.1V228zM381.3 232c0 2 1 3.4 3.3 3.4 1 0 2 0 3.1-.4l.2 1.5c-1.3.3-2.3.4-3.6.4-3.7 0-5-2.1-5-5.2s1.3-5.2 4.9-5.2c4.2 0 4.3 3.2 3.9 5.5h-6.8zm0-1.1h5.1c.3-1.4-.1-3-2.2-3-2 0-2.7 1.3-2.9 3zm3.7-5.4h-1l1.2-2.8h1.5l-1.7 2.8zM399.1 222.7h3.1v12.5h1.3v1.5h-3.1v-1c-.7.7-1.9 1.2-3.1 1.2-2.8 0-3.7-2.3-3.7-5.2 0-2.9 1-5.2 3.8-5.2 1.1 0 2.2.5 3 1.2v-3.5h-1.3v-1.5zm-1.1 12.7c1.1 0 2-.5 2.4-.8v-5.7c-.4-.3-1.3-.9-2.4-.9-2 0-2.5 1.7-2.5 3.7s.6 3.7 2.5 3.7zM406.3 232c0 2 1 3.4 3.3 3.4 1 0 2 0 3.1-.4l.2 1.5c-1.3.3-2.3.4-3.6.4-3.7 0-5-2.1-5-5.2s1.3-5.2 4.9-5.2c4.2 0 4.3 3.2 3.9 5.5h-6.8zm0-1.1h5.1c.3-1.4-.1-3-2.2-3-2 0-2.7 1.3-2.9 3zM421.2 229.4v-1.2c-1-.2-1.9-.2-2.4-.2-1.8 0-2 1-2 1.3 0 .6.3 1.2 2.1 1.5 2.1.5 4 1 4 3.1 0 2-1.4 3-3.7 3-1.6 0-3.1-.1-4.3-.4V234h1.5v1.2c1 .2 2.1.2 2.6.2 1.8 0 2.1-1.1 2.1-1.5 0-.7-.5-1.2-2.3-1.5-2.1-.4-3.8-1.1-3.8-3.2 0-1.9 1.3-2.8 3.7-2.8 1.5 0 2.8.2 4 .5v2.4h-1.5zM428.8 229.4v-2.5c1.4-.3 2.8-.4 3.9-.4 2.4 0 3.7.7 3.7 3.3v5.4h1.3v1.5h-3.1v-1c-.9.7-1.8 1.2-3.1 1.2-2.1 0-3.2-1.1-3.2-3 0-2.4 2.1-3 4.2-3h2.2v-1c0-1.3-.7-1.9-2.3-1.9-.5 0-1.1 0-2 .2v1.2h-1.6zm5.7 2.6h-1.9c-1.9 0-2.7.6-2.7 1.8 0 1.1.8 1.7 2.1 1.7 1.1 0 2-.5 2.5-.8V232zM445.3 229.4v-1.2c-.9-.2-1.5-.2-1.9-.2-2.1 0-3 1.5-3 3.7s.9 3.7 3 3.7c.7 0 1.5 0 3.1-.4l.3 1.5c-1.2.3-2.2.4-3.4.4-3.7 0-4.9-2.1-4.9-5.2s1.2-5.2 4.9-5.2c1.2 0 2.2.2 3.4.5v2.4h-1.5zM449.3 228h-1.5v-1.2l1.5-.1.2-2.8h1.6v2.8h2.8v1.3h-2.8v5.5c0 1.3.4 2 1.7 2 .3 0 .6 0 1-.1l.2 1.4c-.5.1-1.3.1-1.8.1-2.1 0-2.9-.8-2.9-3.1V228zM455.3 226.7h3.1v8.5h1.3v1.5h-4.4v-1.5h1.3v-7h-1.3v-1.5zm3.1-4v2.5h-1.8v-2.5h1.8zM466.4 226.7h4.1v1.5h-.9l-3.4 8.6H464l-3.4-8.6h-.9v-1.5h4.4v1.5h-1.5l2.6 6.8 2.5-6.8h-1.4v-1.5zM471.3 226.7h3.1v8.5h1.3v1.5h-4.4v-1.5h1.3v-7h-1.3v-1.5zm3.1-4v2.5h-1.8v-2.5h1.8zM477.4 228h-1.5v-1.2l1.5-.1.2-2.8h1.6v2.8h2.8v1.3h-2.8v5.5c0 1.3.4 2 1.7 2 .3 0 .6 0 1-.1l.2 1.4c-.5.1-1.3.1-1.8.1-2.1 0-2.9-.8-2.9-3.1V228zM485 232c0 2 1 3.4 3.3 3.4 1 0 2 0 3.1-.4l.2 1.5c-1.3.3-2.3.4-3.6.4-3.7 0-5-2.1-5-5.2s1.3-5.2 4.9-5.2c4.2 0 4.3 3.2 3.9 5.5H485zm0-1.1h5.1c.3-1.4-.1-3-2.2-3-2 0-2.8 1.3-2.9 3zm3.7-5.4h-1l1.2-2.8h1.5l-1.7 2.8zM499.9 229.4v-1.2c-1-.2-1.9-.2-2.4-.2-1.8 0-2 1-2 1.3 0 .6.3 1.2 2.1 1.5 2.1.5 4 1 4 3.1 0 2-1.4 3-3.7 3-1.6 0-3.1-.1-4.3-.4V234h1.5v1.2c1 .2 2.1.2 2.6.2 1.8 0 2.1-1.1 2.1-1.5 0-.7-.5-1.2-2.3-1.5-2.1-.4-3.8-1.1-3.8-3.2 0-1.9 1.3-2.8 3.7-2.8 1.5 0 2.8.2 4 .5v2.4h-1.5zM503.8 239.3l.4-2.6h-.7v-2.6h1.8v2.6l-.9 2.6h-.6zM128.6 257.4v-1.2c-.9-.2-1.5-.2-1.9-.2-2.1 0-3 1.5-3 3.7s.9 3.7 3 3.7c.7 0 1.5 0 3.1-.4l.3 1.5c-1.2.3-2.2.4-3.4.4-3.7 0-4.9-2.1-4.9-5.2s1.2-5.2 4.9-5.2c1.2 0 2.2.2 3.4.5v2.4h-1.5zM132.1 256.3l.4-2.6h-.7v-2.6h1.8v2.6l-.9 2.6h-.6zM137.5 260c0 2 1 3.4 3.3 3.4 1 0 2 0 3.1-.4l.2 1.5c-1.3.3-2.3.4-3.6.4-3.7 0-5-2.1-5-5.2s1.3-5.2 4.9-5.2c4.2 0 4.3 3.2 3.9 5.5h-6.8zm0-1.1h5.1c.3-1.4-.1-3-2.2-3-2 0-2.8 1.3-2.9 3zM152.4 257.4v-1.2c-1-.2-1.9-.2-2.4-.2-1.8 0-2 1-2 1.3 0 .6.3 1.2 2.1 1.5 2.1.5 4 1 4 3.1 0 2-1.4 3-3.7 3-1.6 0-3.1-.1-4.3-.4V262h1.5v1.2c1 .2 2.1.2 2.6.2 1.8 0 2.1-1.1 2.1-1.5 0-.7-.5-1.2-2.3-1.5-2.1-.4-3.8-1.1-3.8-3.2 0-1.9 1.3-2.8 3.7-2.8 1.5 0 2.8.2 4 .5v2.4h-1.5zM156.8 256h-1.5v-1.2l1.5-.1.2-2.8h1.6v2.8h2.8v1.3h-2.8v5.5c0 1.3.4 2 1.7 2 .3 0 .6 0 1-.1l.2 1.4c-.5.1-1.3.1-1.8.1-2.1 0-2.9-.8-2.9-3.1V256zM166.4 250.7h3.1v5c.7-.7 1.9-1.2 3.1-1.2 2.8 0 3.7 2.3 3.7 5.2 0 2.9-1 5.2-3.8 5.2-1.1 0-2.3-.4-3.1-1.1l-.3.9h-2.7v-1.5h1.3v-11h-1.3v-1.5zm5.5 5.3c-1.1 0-2 .5-2.4.9v5.7c.4.3 1.3.8 2.4.8 1.9 0 2.5-1.7 2.5-3.7s-.5-3.7-2.5-3.7zM180 260c0 2 1 3.4 3.3 3.4 1 0 2 0 3.1-.4l.2 1.5c-1.3.3-2.3.4-3.6.4-3.7 0-5-2.1-5-5.2s1.3-5.2 4.9-5.2c4.2 0 4.3 3.2 3.9 5.5H180zm0-1.1h5.1c.3-1.4-.1-3-2.2-3-2 0-2.8 1.3-2.9 3zM189.1 257.4v-2.5c1.4-.3 2.8-.4 3.9-.4 2.4 0 3.7.7 3.7 3.3v5.4h1.3v1.5h-3.1v-1c-.9.7-1.8 1.2-3.1 1.2-2.1 0-3.2-1.1-3.2-3 0-2.4 2.1-3 4.2-3h2.2v-1c0-1.3-.7-1.9-2.3-1.9-.5 0-1.1 0-2 .2v1.2h-1.6zm5.7 2.6h-1.9c-1.9 0-2.7.6-2.7 1.8 0 1.1.8 1.7 2.1 1.7 1.1 0 2-.5 2.5-.8V260zM198.1 254.7h3.1v6.5c0 1.3.5 2.2 2 2.2 1.1 0 2.2-.7 2.8-1.1v-6.1h-1.6v-1.5h3.4v8.5h1.3v1.5H206v-1.4c-1 1-2.2 1.6-3.6 1.6-2 0-3-1.2-3-3.3v-5.4h-1.3v-1.5zM216.8 257.4v-1.2c-.9-.2-1.5-.2-1.9-.2-2.1 0-3 1.5-3 3.7s.9 3.7 3 3.7c.7 0 1.5 0 3.1-.4l.3 1.5c-1.2.3-2.2.4-3.4.4-3.7 0-4.9-2.1-4.9-5.2s1.2-5.2 4.9-5.2c1.2 0 2.2.2 3.4.5v2.4h-1.5zM219.6 259.7c0-3.1 1.2-5.2 4.6-5.2 3.3 0 4.6 2.1 4.6 5.2s-1.3 5.2-4.6 5.2-4.6-2.1-4.6-5.2zm1.9 0c0 2.1.6 3.7 2.7 3.7s2.7-1.6 2.7-3.7-.6-3.7-2.7-3.7-2.7 1.6-2.7 3.7zM229.7 254.7h3.1v6.5c0 1.3.5 2.2 2 2.2 1.1 0 2.2-.7 2.8-1.1v-6.1H236v-1.5h3.4v8.5h1.3v1.5h-3.1v-1.4c-1 1-2.2 1.6-3.6 1.6-2 0-3-1.2-3-3.3v-5.4h-1.3v-1.5zM241.5 254.7h3.1v1c.7-.7 1.9-1.2 3.1-1.2 2.8 0 3.7 2.3 3.7 5.2 0 2.9-1 5.2-3.8 5.2-1.1 0-2.3-.4-3-1.1v3.4h1.3v1.5h-4.4v-1.5h1.3v-11h-1.3v-1.5zm5.5 1.3c-1.1 0-2 .5-2.4.9v5.7c.4.3 1.3.8 2.4.8 1.9 0 2.5-1.7 2.5-3.7s-.5-3.7-2.5-3.7zM256.3 254.7h3.1v1c.7-.7 1.9-1.2 3.1-1.2 2.8 0 3.7 2.3 3.7 5.2 0 2.9-1 5.2-3.8 5.2-1.1 0-2.3-.4-3-1.1v3.4h1.3v1.5h-4.4v-1.5h1.3v-11h-1.3v-1.5zm5.5 1.3c-1.1 0-2 .5-2.4.9v5.7c.4.3 1.3.8 2.4.8 1.9 0 2.5-1.7 2.5-3.7s-.5-3.7-2.5-3.7zM267.3 250.7h3.1v12.5h1.3v1.5h-4.4v-1.5h1.3v-11h-1.3v-1.5zM271.7 254.7h3.1v6.5c0 1.3.5 2.2 2 2.2 1.1 0 2.2-.7 2.8-1.1v-6.1H278v-1.5h3.4v8.5h1.3v1.5h-3.1v-1.4c-1 1-2.2 1.6-3.6 1.6-2 0-3-1.2-3-3.3v-5.4h-1.3v-1.5zM290.2 257.4v-1.2c-1-.2-1.9-.2-2.4-.2-1.8 0-2 1-2 1.3 0 .6.3 1.2 2.1 1.5 2.1.5 4 1 4 3.1 0 2-1.4 3-3.7 3-1.6 0-3.1-.1-4.3-.4V262h1.5v1.2c1 .2 2.1.2 2.6.2 1.8 0 2.1-1.1 2.1-1.5 0-.7-.5-1.2-2.3-1.5-2.1-.4-3.8-1.1-3.8-3.2 0-1.9 1.3-2.8 3.7-2.8 1.5 0 2.8.2 4 .5v2.4h-1.5zM302.7 267.2h1.3v-3.5c-.7.7-1.9 1.2-3.1 1.2-2.8 0-3.7-2.3-3.7-5.2 0-2.9 1-5.2 3.8-5.2 1.1 0 2.3.5 3.1 1.2l.3-1h1.4v12.5h1.3v1.5h-4.4v-1.5zm-1.1-3.8c1.1 0 2-.5 2.4-.8v-5.7c-.4-.3-1.3-.9-2.4-.9-2 0-2.5 1.7-2.5 3.7s.6 3.7 2.5 3.7zM307.3 254.7h3.1v6.5c0 1.3.5 2.2 2 2.2 1.1 0 2.2-.7 2.8-1.1v-6.1h-1.6v-1.5h3.4v8.5h1.3v1.5h-3.1v-1.4c-1 1-2.2 1.6-3.6 1.6-2 0-3-1.2-3-3.3v-5.4h-1.3v-1.5zM320.1 256.3l.4-2.6h-.7v-2.6h1.8v2.6l-.9 2.6h-.6zM323.1 254.7h3.1v6.5c0 1.3.5 2.2 2 2.2 1.1 0 2.2-.7 2.8-1.1v-6.1h-1.6v-1.5h3.4v8.5h1.3v1.5H331v-1.4c-1 1-2.2 1.6-3.6 1.6-2 0-3-1.2-3-3.3v-5.4h-1.3v-1.5zM341.6 263.2h1.2v-5c0-1.3-.5-2.2-2-2.2-1.2 0-2.2.7-2.8 1.2v6h1.2v1.5h-4.3v-1.5h1.3v-7h-1.3v-1.5h3.1v1.4c1-.9 2.2-1.6 3.6-1.6 2 0 3 1.2 3 3.3v5.4h1.3v1.5h-4.3v-1.5zM357 257.4v-1.2c-1-.2-1.9-.2-2.4-.2-1.8 0-2 1-2 1.3 0 .6.3 1.2 2.1 1.5 2.1.5 4 1 4 3.1 0 2-1.4 3-3.7 3-1.6 0-3.1-.1-4.3-.4V262h1.5v1.2c1 .2 2.1.2 2.6.2 1.8 0 2.1-1.1 2.1-1.5 0-.7-.5-1.2-2.3-1.5-2.1-.4-3.8-1.1-3.8-3.2 0-1.9 1.3-2.8 3.7-2.8 1.5 0 2.8.2 4 .5v2.4H357zM359.9 254.7h3.1v8.5h1.3v1.5h-4.4v-1.5h1.3v-7h-1.3v-1.5zm3.1-4v2.5h-1.8v-2.5h1.8zM371.5 263.2h1.2v-5.1c0-1.3-.6-2.1-2-2.1-1.1 0-1.9.7-2.5 1.2v6h1.2v1.5h-4.3v-1.5h1.3v-7h-1.3v-1.5h3.1v1.4c.7-.7 1.6-1.5 2.8-1.5h1c1.1.1 1.9.7 2.2 1.7.9-1 2.2-1.8 3.6-1.8 2 0 3 1.2 3 3.3v5.4h1.3v1.5h-4.3v-1.5h1.2v-5c0-1.3-.6-2.2-2-2.2-1 0-1.9.7-2.6 1.2 0 .3.1.6.1.9v5.1h1.2v1.5h-4.2v-1.5zM382.9 254.7h3.1v1c.7-.7 1.9-1.2 3.1-1.2 2.8 0 3.7 2.3 3.7 5.2 0 2.9-1 5.2-3.8 5.2-1.1 0-2.3-.4-3-1.1v3.4h1.3v1.5h-4.4v-1.5h1.3v-11h-1.3v-1.5zm5.5 1.3c-1.1 0-2 .5-2.4.9v5.7c.4.3 1.3.8 2.4.8 1.9 0 2.5-1.7 2.5-3.7s-.5-3.7-2.5-3.7zM393.9 250.7h3.1v12.5h1.3v1.5h-4.4v-1.5h1.3v-11h-1.3v-1.5zM401.1 260c0 2 1 3.4 3.3 3.4 1 0 2 0 3.1-.4l.2 1.5c-1.3.3-2.3.4-3.6.4-3.7 0-5-2.1-5-5.2s1.3-5.2 4.9-5.2c4.2 0 4.3 3.2 3.9 5.5h-6.8zm0-1.1h5.1c.3-1.4-.1-3-2.2-3-2 0-2.8 1.3-2.9 3zM418.9 250.7h3.1v12.5h1.3v1.5h-3.1v-1c-.7.7-1.9 1.2-3.1 1.2-2.8 0-3.7-2.3-3.7-5.2 0-2.9 1-5.2 3.8-5.2 1.1 0 2.2.5 3 1.2v-3.5h-1.3v-1.5zm-1.1 12.7c1.1 0 2-.5 2.4-.8v-5.7c-.4-.3-1.3-.9-2.4-.9-2 0-2.5 1.7-2.5 3.7s.6 3.7 2.5 3.7zM424.2 259.7c0-3.1 1.2-5.2 4.6-5.2 3.3 0 4.6 2.1 4.6 5.2s-1.3 5.2-4.6 5.2-4.6-2.1-4.6-5.2zm1.9 0c0 2.1.6 3.7 2.7 3.7s2.7-1.6 2.7-3.7-.6-3.7-2.7-3.7-2.7 1.6-2.7 3.7zM442 257.4v-1.2c-.9-.2-1.5-.2-1.9-.2-2.1 0-3 1.5-3 3.7s.9 3.7 3 3.7c.7 0 1.5 0 3.1-.4l.3 1.5c-1.2.3-2.2.4-3.4.4-3.7 0-4.9-2.1-4.9-5.2s1.2-5.2 4.9-5.2c1.2 0 2.2.2 3.4.5v2.4H442zM444.5 254.7h3.1v6.5c0 1.3.5 2.2 2 2.2 1.1 0 2.2-.7 2.8-1.1v-6.1h-1.6v-1.5h3.4v8.5h1.3v1.5h-3.1v-1.4c-1 1-2.2 1.6-3.6 1.6-2 0-3-1.2-3-3.3v-5.4h-1.3v-1.5zM462.7 263.2h1.2v-5.1c0-1.3-.6-2.1-2-2.1-1.1 0-1.9.7-2.5 1.2v6h1.2v1.5h-4.3v-1.5h1.3v-7h-1.3v-1.5h3.1v1.4c.7-.7 1.6-1.5 2.8-1.5h1c1.1.1 1.9.7 2.2 1.7.9-1 2.2-1.8 3.6-1.8 2 0 3 1.2 3 3.3v5.4h1.3v1.5H469v-1.5h1.2v-5c0-1.3-.6-2.2-2-2.2-1 0-1.9.7-2.6 1.2 0 .3.1.6.1.9v5.1h1.2v1.5h-4.2v-1.5zM476.1 260c0 2 1 3.4 3.3 3.4 1 0 2 0 3.1-.4l.2 1.5c-1.3.3-2.3.4-3.6.4-3.7 0-5-2.1-5-5.2s1.3-5.2 4.9-5.2c4.2 0 4.3 3.2 3.9 5.5h-6.8zm0-1.1h5.1c.3-1.4-.1-3-2.2-3-2 0-2.8 1.3-2.9 3zM491 263.2h1.2v-5c0-1.3-.5-2.2-2-2.2-1.2 0-2.2.7-2.8 1.2v6h1.2v1.5h-4.3v-1.5h1.3v-7h-1.3v-1.5h3.1v1.4c1-.9 2.2-1.6 3.6-1.6 2 0 3 1.2 3 3.3v5.4h1.3v1.5H491v-1.5zM496.8 256h-1.5v-1.2l1.5-.1.2-2.8h1.6v2.8h2.8v1.3h-2.8v5.5c0 1.3.4 2 1.7 2 .3 0 .6 0 1-.1l.2 1.4c-.5.1-1.3.1-1.8.1-2.1 0-2.9-.8-2.9-3.1V256zM505.3 262.1v2.6h-1.8v-2.6h1.8z"/></g></g></g></g></g></switch></svg>