<svg version="1.1" id="Layer_1" xmlns="http://www.w3.org/2000/svg" x="0" y="0" viewBox="0 0 540 516.7" style="enable-background:new 0 0 540 516.7" xml:space="preserve"><style>.st2{fill:#c9c9c7}.st3{fill:#e11b22}.st4{fill:#010101}.st6{fill:#4d4f53}</style><switch><g><path style="fill:none;stroke:#e11b22;stroke-width:3;stroke-miterlimit:10" d="M2.5 3.1h535v510.3H2.5z"/><g style="opacity:.3"><path class="st2" d="M258.5 232.9c13.9 0 25.2-11.3 25.2-25.2s-11.3-25.2-25.2-25.2-25.2 11.3-25.2 25.2 11.3 25.2 25.2 25.2zm0-33.7c4.6 0 8.4 3.8 8.4 8.4s-3.8 8.4-8.4 8.4c-4.6 0-8.4-3.8-8.4-8.4s3.8-8.4 8.4-8.4zM359.5 283.3c-13.9 0-25.2 11.3-25.2 25.2 0 13.9 11.3 25.2 25.2 25.2s25.2-11.3 25.2-25.2c0-13.8-11.3-25.2-25.2-25.2zm0 33.7c-4.6 0-8.4-3.8-8.4-8.4 0-4.6 3.8-8.4 8.4-8.4s8.4 3.8 8.4 8.4c0 4.6-3.8 8.4-8.4 8.4z"/><path class="st2" d="M469.4 267.1V248c19.2-3.9 33.6-20.9 33.6-41.2 0-23.2-18.9-42.1-42.1-42.1-23.2 0-42.1 18.9-42.1 42.1 0 20.3 14.5 37.3 33.6 41.2v19.1c-19.2 3.9-33.6 20.9-33.6 41.2 0 8.6 2.6 16.5 7 23.2l-43.3 43.3c-6.7-4.4-14.6-7-23.2-7s-16.5 2.6-23.2 7l-43.2-43c4.4-6.6 7-14.6 7-23.2 0-8.5-2.6-16.5-7-23.1l55.5-55c3.3 1.6 7 2.5 10.9 2.5 13.9 0 25.2-11.3 25.2-25.2s-11.3-25.2-25.2-25.2-25.2 11.3-25.2 25.2c0 3.9.9 7.6 2.5 10.8l-55.5 55c-6.7-4.4-14.6-7-23.2-7-23.2 0-42.1 18.9-42.1 42.1 0 20.3 14.5 37.4 33.7 41.2l.5 36.1c-9.7 3.5-16.7 12.8-16.7 23.8 0 13.9 11.3 25.2 25.2 25.2 11 0 20.3-7 23.8-16.8h35.9c3.9 19.2 20.9 33.6 41.2 33.6 23.2 0 42.1-18.9 42.1-42.1 0-8.6-2.6-16.5-7-23.2l43.3-43.3c6.7 4.4 14.6 7 23.2 7 23.2 0 42.1-18.9 42.1-42.1-.1-20.1-14.6-37.1-33.7-41zm-33.7-60.3c0-13.9 11.3-25.2 25.2-25.2 13.9 0 25.2 11.3 25.2 25.2 0 13.9-11.3 25.2-25.2 25.2-13.9 0-25.2-11.3-25.2-25.2zM266.9 386l-.4-36.2c5.3-1.1 10.3-3.2 14.7-6.1l43.2 43c-2.9 4.4-5 9.4-6.1 14.7h-35.9c-2.6-7.2-8.3-12.9-15.5-15.4zm92.6-186.8c4.6 0 8.4 3.8 8.4 8.4s-3.8 8.4-8.4 8.4-8.4-3.8-8.4-8.4 3.7-8.4 8.4-8.4zM232.7 308.6c0-13.9 11.3-25.2 25.2-25.2s25.2 11.3 25.2 25.2c0 13.9-11.3 25.2-25.2 25.2s-25.2-11.3-25.2-25.2zm25.8 109.6c-4.6 0-8.4-3.8-8.4-8.4 0-4.6 3.8-8.4 8.4-8.4 4.6 0 8.4 3.8 8.4 8.4 0 4.6-3.7 8.4-8.4 8.4zm101 16.8c-13.9 0-25.2-11.3-25.2-25.2 0-13.9 11.3-25.2 25.2-25.2 13.9 0 25.2 11.3 25.2 25.2 0 13.9-11.3 25.2-25.2 25.2zM461 333.5c-13.9 0-25.2-11.3-25.2-25.2s11.3-25.2 25.2-25.2c13.9 0 25.2 11.3 25.2 25.2s-11.3 25.2-25.2 25.2z"/><path class="st2" d="M461 384c-13.9 0-25.2 11.3-25.2 25.2 0 13.9 11.3 25.2 25.2 25.2 13.9 0 25.2-11.3 25.2-25.2 0-13.9-11.3-25.2-25.2-25.2zm0 33.6c-4.6 0-8.4-3.8-8.4-8.4s3.8-8.4 8.4-8.4c4.6 0 8.4 3.8 8.4 8.4s-3.8 8.4-8.4 8.4z"/></g><g id="Glance_2_lines_00000038385555796235064850000010749456239864171709_"><g id="Glance_00000041982716022062419360000007818985235499679153_"><g id="Glance_00000018939435415152314730000005465881082242267063_"><g id="_Jobs_in_advanced_economies_are_increasingly_for_high-skill_workers._00000175293470237507302270000006117728175790912697_"><path class="st3" d="M35.1 87.2h-2.2v-2.8l2.2-.3.5-4.6h3.8v4.6h4.1v3.1h-4.1v8c0 1.6.7 2.4 2.4 2.4.4 0 .9 0 1.5-.2l.4 3.3c-.9.2-2.5.3-3.4.3-3.8 0-5.2-1.6-5.2-5v-8.8zM56.2 97.1h1.7v-6.8c0-1.9-.7-3-2.6-3-1.4 0-2.6.7-3.5 1.3v8.5h1.6v3.5h-7.8v-3.5h1.9v-16h-1.9v-3.6h6.2v8.7h.1c1.4-1.5 3.2-2.5 5.4-2.5 3.3 0 5 2.1 5 5.5V97h1.9v3.5h-7.9v-3.4zM69.9 93.3c.1 2.5 1.6 4.1 4.7 4.1 1.4 0 3-.1 5.1-.7l.5 3.4c-2.2.6-4.1.8-6.3.8-6.3 0-8.6-3.4-8.6-8.6 0-5.2 2.2-8.6 8.5-8.6 7.1 0 7.5 4.9 6.8 9.5H69.9zm0-2.7h6.5c.3-1.8-.1-3.5-2.8-3.5-2.4 0-3.6 1.4-3.7 3.5zM88.8 84.1H95v1.7h.1c1.1-1.2 2.9-2 4.7-2 4.6 0 6 3.9 6 8.6 0 4.7-1.7 8.6-6.3 8.6-1.7 0-3.3-.7-4.4-1.8H95v4.6h1.9v3.5h-8.1v-3.5h1.9v-16h-1.9v-3.7zm9.2 3.3c-1.4 0-2.4.6-3 1v8c.5.4 1.6 1.1 3 1.1 2.5 0 3.2-2.2 3.2-5 0-2.9-.7-5.1-3.2-5.1zM108.8 89.2v-4.6c2.3-.5 4.8-.8 6.8-.8 4.2 0 6.5 1.1 6.5 5.5v7.8h1.9v3.5h-6.2V99h-.1c-1.5 1.5-3.3 2.1-5.3 1.9-2.8-.2-4.6-2.1-4.6-5 0-3.8 3.1-5.1 6.9-5.1h3.1v-1.2c0-1.7-1.1-2.2-3.2-2.2-.6 0-1.3 0-2.3.2v1.6h-3.5zm9 4.1h-2.4c-2.1 0-3.3.5-3.3 2.2 0 1.5 1.2 2.1 2.6 2.1 1.4 0 2.6-.6 3.2-1v-3.3zM135.9 97.1h1.6v-6.8c0-1.9-.7-3-2.6-3-1.4 0-2.6.7-3.5 1.3v8.5h1.7v3.5h-7.8v-3.5h1.9v-9.4h-1.9v-3.6h6.2v2.1h.1c1.4-1.5 3.2-2.5 5.4-2.5 3.3 0 5 2.1 5 5.5V97h1.9v3.5H136v-3.4zM153.8 77.5h6.2v19.6h1.9v3.5h-6.2V99h-.1c-1 1.2-2.8 2-4.6 2-4.6 0-6-3.9-6-8.6 0-4.7 1.6-8.6 6.3-8.6 1.7 0 3.4.7 4.4 1.8h.1V81h-1.9v-3.5zm-1.1 19.9c1.4 0 2.5-.6 3-1.1v-8c-.5-.4-1.6-1-3-1-2.5 0-3.2 2.2-3.2 5 0 2.9.7 5.1 3.2 5.1zM167.7 93.3c.1 2.5 1.6 4.1 4.7 4.1 1.4 0 3-.1 5.1-.7l.5 3.4c-2.2.6-4.1.8-6.3.8-6.3 0-8.6-3.4-8.6-8.6 0-5.2 2.2-8.6 8.5-8.6 7.1 0 7.5 4.9 6.8 9.5h-10.7zm0-2.7h6.5c.3-1.8-.1-3.5-2.8-3.5-2.4 0-3.5 1.4-3.7 3.5zM190.8 97.1h1.6v-7c-.1-1.7-.9-2.8-2.6-2.8-1.3 0-2.4.7-3.2 1.3v8.5h1.6v3.5h-7.8v-3.5h1.9v-9.4h-1.9v-3.6h6.2v2.1h.1c1.1-1.2 2.4-2.1 4.1-2.3.5-.1 1-.1 1.5-.1 2 .1 3.3 1.1 4 2.7 1.7-1.9 3.6-2.7 5.7-2.7 3.3 0 5 2.1 5 5.5v7.8h1.9v3.5H201v-3.5h1.7v-6.8c0-1.9-.9-3-2.6-3-1.3 0-2.4.7-3.2 1.3v8.5h1.6v3.5h-7.6v-3.5zM210.1 84.1h6.2v13h1.9v3.5h-8.1v-3.5h1.9v-9.4h-1.9v-3.6zm6.2-6.6v4.6H212v-4.6h4.3zM230.1 89.2v-1.6c-.9-.2-1.6-.2-2.2-.2-2.6 0-4 1.7-4 5s1.4 5 4 5c1.2 0 2.3 0 5-.7l.8 3.4c-2 .5-3.7.8-5.8.8-6.4 0-8.5-3.4-8.5-8.6 0-5.2 2.1-8.6 8.5-8.6 2.1 0 3.8.3 5.8.8v4.6h-3.6zM252.7 89.2v-1.6c-.9-.2-1.6-.2-2.2-.2-2.6 0-4 1.7-4 5s1.4 5 4 5c1.2 0 2.3 0 5-.7l.8 3.4c-2 .5-3.7.8-5.8.8-6.4 0-8.5-3.4-8.5-8.6 0-5.2 2.1-8.6 8.5-8.6 2.1 0 3.8.3 5.8.8v4.6h-3.6zM257.8 84.1h6.2v2.6h.1c1.1-1.5 3.1-3 5.7-3v4.1c-2.2 0-4.5.6-5.8 1.3v8h2.1v3.5h-8.3v-3.5h1.9v-9.4h-1.9v-3.6zM275.4 93.3c.1 2.5 1.6 4.1 4.7 4.1 1.4 0 3-.1 5.1-.7l.5 3.4c-2.2.6-4.1.8-6.3.8-6.3 0-8.6-3.4-8.6-8.6 0-5.2 2.2-8.6 8.5-8.6 7.1 0 7.5 4.9 6.8 9.5h-10.7zm0-2.7h6.5c.3-1.8-.1-3.5-2.8-3.5-2.3 0-3.5 1.4-3.7 3.5zM289.3 89.2v-4.6c2.3-.5 4.8-.8 6.8-.8 4.2 0 6.5 1.1 6.5 5.5v7.8h1.9v3.5h-6.2V99h-.1c-1.5 1.5-3.3 2.1-5.3 1.9-2.8-.2-4.6-2.1-4.6-5 0-3.8 3.1-5.1 6.9-5.1h3.1v-1.2c0-1.7-1.1-2.2-3.2-2.2-.6 0-1.3 0-2.3.2v1.6h-3.5zm9 4.1h-2.4c-2.1 0-3.3.5-3.3 2.2 0 1.5 1.2 2.1 2.6 2.1 1.4 0 2.6-.6 3.2-1v-3.3zM306.7 87.2h-2.2v-2.8l2.2-.3.5-4.6h3.8v4.6h4.1v3.1H311v8c0 1.6.7 2.4 2.4 2.4.4 0 .9 0 1.5-.2l.4 3.3c-.9.2-2.5.3-3.4.3-3.8 0-5.2-1.6-5.2-5v-8.8zM321.1 93.3c.1 2.5 1.6 4.1 4.7 4.1 1.4 0 3-.1 5.1-.7l.5 3.4c-2.2.6-4.1.8-6.3.8-6.3 0-8.6-3.4-8.6-8.6 0-5.2 2.2-8.6 8.5-8.6 7.1 0 7.5 4.9 6.8 9.5h-10.7zm0-2.7h6.5c.3-1.8-.1-3.5-2.8-3.5-2.3 0-3.5 1.4-3.7 3.5zM343.3 77.5h6.2v19.6h1.9v3.5h-6.2V99h-.1c-1 1.2-2.8 2-4.6 2-4.6 0-6-3.9-6-8.6 0-4.7 1.7-8.6 6.3-8.6 1.7 0 3.4.7 4.4 1.8h.1V81h-1.9v-3.5zm-1.1 19.9c1.4 0 2.5-.6 3-1.1v-8c-.5-.4-1.6-1-3-1-2.5 0-3.2 2.2-3.2 5 0 2.9.7 5.1 3.2 5.1zM361.1 87.2h-2.2v-2.8l2.2-.3.5-4.6h3.8v4.6h4.1v3.1h-4.1v8c0 1.6.7 2.4 2.4 2.4.4 0 .9 0 1.5-.2l.4 3.3c-.9.2-2.5.3-3.4.3-3.8 0-5.2-1.6-5.2-5v-8.8zM382.3 97.1h1.7v-6.8c0-1.9-.7-3-2.6-3-1.4 0-2.6.7-3.5 1.3v8.5h1.7v3.5h-7.8v-3.5h1.9v-16h-1.9v-3.6h6.2v8.7h.1c1.4-1.5 3.2-2.5 5.4-2.5 3.3 0 5 2.1 5 5.5V97h1.9v3.5h-7.9v-3.4zM395.9 93.3c.1 2.5 1.6 4.1 4.7 4.1 1.4 0 3-.1 5.1-.7l.5 3.4c-2.2.6-4.1.8-6.3.8-6.3 0-8.6-3.4-8.6-8.6 0-5.2 2.2-8.6 8.5-8.6 7.1 0 7.5 4.9 6.8 9.5h-10.7zm0-2.7h6.5c.3-1.8-.1-3.5-2.8-3.5-2.4 0-3.5 1.4-3.7 3.5zM425.5 97.1h1.7v-6.8c0-1.9-.7-3-2.6-3-1.4 0-2.6.7-3.5 1.3v8.5h1.7v3.5H415v-3.5h1.9v-9.4H415v-3.6h6.2v2.1h.1c1.4-1.5 3.2-2.5 5.4-2.5 3.3 0 5 2.1 5 5.5V97h1.9v3.5h-7.9v-3.4zM439.1 93.3c.1 2.5 1.6 4.1 4.7 4.1 1.4 0 3-.1 5.1-.7l.5 3.4c-2.2.6-4.1.8-6.3.8-6.3 0-8.6-3.4-8.6-8.6 0-5.2 2.2-8.6 8.5-8.6 7.1 0 7.5 4.9 6.8 9.5h-10.7zm0-2.7h6.5c.3-1.8-.1-3.5-2.8-3.5-2.4 0-3.5 1.4-3.7 3.5zM456.9 93.3c.1 2.5 1.6 4.1 4.7 4.1 1.4 0 3-.1 5.1-.7l.5 3.4c-2.2.6-4.1.8-6.3.8-6.3 0-8.6-3.4-8.6-8.6 0-5.2 2.2-8.6 8.5-8.6 7.1 0 7.5 4.9 6.8 9.5h-10.7zm0-2.7h6.5c.3-1.8-.1-3.5-2.8-3.5-2.3 0-3.5 1.4-3.7 3.5zM479.1 77.5h6.2v19.6h1.9v3.5H481V99h-.1c-1 1.2-2.8 2-4.6 2-4.6 0-6-3.9-6-8.6 0-4.7 1.7-8.6 6.3-8.6 1.7 0 3.4.7 4.4 1.8h.1V81h-1.9v-3.5zM478 97.4c1.4 0 2.5-.6 3-1.1v-8c-.5-.4-1.6-1-3-1-2.5 0-3.2 2.2-3.2 5 0 2.9.7 5.1 3.2 5.1zM35.1 130.2h-2.2v-2.8l2.2-.3.5-4.6h3.8v4.6h4.1v3.1h-4.1v8c0 1.6.7 2.4 2.4 2.4.4 0 .9 0 1.5-.2l.4 3.3c-.9.2-2.5.3-3.4.3-3.8 0-5.2-1.6-5.2-5v-8.8zM45 135.4c0-5.2 2.2-8.6 8-8.6s8 3.4 8 8.6c0 5.2-2.2 8.6-8 8.6s-8-3.4-8-8.6zm4.6 0c0 3.1.8 5 3.5 5s3.5-2 3.5-5-.8-5-3.5-5c-2.8 0-3.5 2-3.5 5zM79.8 140.1h1.7v-6.8c0-1.9-.7-3-2.6-3-1.4 0-2.6.7-3.5 1.3v8.5H77v3.5h-7.8v-3.5h1.9v-16h-1.9v-3.6h6.2v8.7h.1c1.4-1.5 3.2-2.5 5.4-2.5 3.3 0 5 2.1 5 5.5v7.8h1.9v3.5h-7.9v-3.4zM90.1 132.2v-4.6c2.3-.5 4.8-.8 6.8-.8 4.2 0 6.5 1.1 6.5 5.5v7.8h1.9v3.5h-6.2V142H99c-1.5 1.5-3.3 2.1-5.3 1.9-2.8-.2-4.6-2.1-4.6-5 0-3.8 3.1-5.1 6.9-5.1h3.1v-1.2c0-1.7-1.1-2.2-3.2-2.2-.6 0-1.3 0-2.3.2v1.6h-3.5zm9 4.1h-2.4c-2.1 0-3.3.5-3.3 2.2 0 1.5 1.2 2.1 2.6 2.1 1.4 0 2.6-.6 3.2-1v-3.3zM116 127.1h7.3v3.6h-1.2l-5.2 13.1h-5.1l-5.2-13.1h-1.3v-3.6h8v3.6h-1.9l3.4 8.8h.1l3.1-8.8h-2v-3.6zM128.8 136.3c.1 2.5 1.6 4.1 4.7 4.1 1.4 0 3-.1 5.1-.7l.5 3.4c-2.2.6-4.1.8-6.3.8-6.3 0-8.6-3.4-8.6-8.6 0-5.2 2.2-8.6 8.5-8.6 7.1 0 7.5 4.9 6.8 9.5h-10.7zm0-2.7h6.5c.3-1.8-.1-3.5-2.8-3.5-2.4 0-3.5 1.4-3.7 3.5zM149.2 132.2v-4.6c2.3-.5 4.8-.8 6.8-.8 4.2 0 6.5 1.1 6.5 5.5v7.8h1.9v3.5h-6.2V142h-.1c-1.5 1.5-3.3 2.1-5.3 1.9-2.8-.2-4.6-2.1-4.6-5 0-3.8 3.1-5.1 6.9-5.1h3.1v-1.2c0-1.7-1.1-2.2-3.2-2.2-.6 0-1.3 0-2.3.2v1.6h-3.5zm9 4.1h-2.4c-2.1 0-3.3.5-3.3 2.2 0 1.5 1.2 2.1 2.6 2.1 1.4 0 2.6-.6 3.2-1v-3.3zM176.3 140.1h1.7v-6.8c0-1.9-.7-3-2.6-3-1.4 0-2.6.7-3.5 1.3v8.5h1.7v3.5h-7.8v-3.5h1.9v-9.4h-1.9v-3.6h6.2v2.1h.1c1.4-1.5 3.2-2.5 5.4-2.5 3.3 0 5 2.1 5 5.5v7.8h1.9v3.5h-7.9v-3.4zM196.9 136.3c.1 2.5 1.6 4.1 4.7 4.1 1.4 0 3-.1 5.1-.7l.5 3.4c-2.2.6-4.1.8-6.3.8-6.3 0-8.6-3.4-8.6-8.6 0-5.2 2.2-8.6 8.5-8.6 7.1 0 7.5 4.9 6.8 9.5h-10.7zm0-2.7h6.5c.3-1.8-.1-3.5-2.8-3.5-2.4 0-3.5 1.4-3.7 3.5zM220.2 140.1h1.7v-6.8c0-1.9-.7-3-2.6-3-1.4 0-2.6.7-3.5 1.3v8.5h1.7v3.5h-7.8v-3.5h1.9v-9.4h-1.9v-3.6h6.2v2.1h.1c1.4-1.5 3.2-2.5 5.4-2.5 3.3 0 5 2.1 5 5.5v7.8h1.9v3.5h-7.9v-3.4zM230.3 130.2h-2.2v-2.8l2.2-.3.5-4.6h3.8v4.6h4.1v3.1h-4.1v8c0 1.6.7 2.4 2.4 2.4.4 0 .9 0 1.5-.2l.4 3.3c-.9.2-2.5.3-3.4.3-3.8 0-5.2-1.6-5.2-5v-8.8zM244.7 136.3c.1 2.5 1.6 4.1 4.7 4.1 1.4 0 3-.1 5.1-.7l.5 3.4c-2.2.6-4.1.8-6.3.8-6.3 0-8.6-3.4-8.6-8.6 0-5.2 2.2-8.6 8.5-8.6 7.1 0 7.5 4.9 6.8 9.5h-10.7zm0-2.7h6.5c.3-1.8-.1-3.5-2.8-3.5-2.3 0-3.5 1.4-3.7 3.5zM257.5 127.1h6.2v2.6h.1c1.1-1.5 3.1-3 5.7-3v4.1c-2.2 0-4.5.6-5.8 1.3v8h2.1v3.5h-8.3v-3.5h1.9v-9.4h-1.9v-3.6zM271 127.1h6.2v1.7h.1c1.1-1.2 2.9-2 4.7-2 4.6 0 6 3.9 6 8.6 0 4.7-1.7 8.6-6.3 8.6-1.7 0-3.3-.7-4.4-1.8h-.1v4.6h1.9v3.5H271v-3.5h1.9v-16H271v-3.7zm9.1 3.3c-1.4 0-2.4.6-3 1v8c.5.4 1.6 1.1 3 1.1 2.5 0 3.2-2.2 3.2-5 .1-2.9-.6-5.1-3.2-5.1zM289.5 127.1h6.2v2.6h.1c1.1-1.5 3.1-3 5.7-3v4.1c-2.2 0-4.5.6-5.8 1.3v8h2.1v3.5h-8.3v-3.5h1.9v-9.4h-1.9v-3.6zM303 127.1h6.2v13h1.9v3.5H303v-3.5h1.9v-9.4H303v-3.6zm6.2-6.6v4.6h-4.3v-4.6h4.3zM322.8 132.2v-1.7c-1.3-.2-2.4-.3-3.1-.3-2 0-2.5.8-2.5 1.4 0 .8.5 1.2 2.7 1.7 3.1.7 7 1.5 7 5.3 0 3.6-2.5 5.3-6.5 5.3-2.7 0-5.5-.3-7.5-.8v-4.6h3.6v1.7c1.4.3 2.7.3 3.5.3 2.1 0 2.7-1 2.7-1.6 0-.8-.9-1.2-2.8-1.6-3.7-.6-6.8-1.8-6.8-5.6 0-3.5 2.5-5 6.5-5 2.7 0 5 .3 6.9.8v4.6h-3.7zM333.4 136.3c.1 2.5 1.6 4.1 4.7 4.1 1.4 0 3-.1 5.1-.7l.5 3.4c-2.2.6-4.1.8-6.3.8-6.3 0-8.6-3.4-8.6-8.6 0-5.2 2.2-8.6 8.5-8.6 7.1 0 7.5 4.9 6.8 9.5h-10.7zm0-2.7h6.5c.3-1.8-.1-3.5-2.8-3.5-2.4 0-3.5 1.4-3.7 3.5zM360.6 133.1v3.6h-13.7v-3.6h13.7zM381.3 127.1h7.3v3.6h-1.3l-4 13.1h-4.6l-3-9.4h-.1l-2.6 9.4h-4.6l-4.3-13.1h-1.3v-3.6h8v3.6h-2.1l2.4 8.3h.1l3.1-11.9h3.5l3.3 12.1h.1l1.9-8.5h-1.8v-3.6zM389.9 127.1h6.2v13h1.9v3.5h-8.1v-3.5h1.9v-9.4h-1.9v-3.6zm6.2-6.6v4.6h-4.3v-4.6h4.3zM408 120.5h6.2v19.6h1.9v3.5h-6.2V142h-.1c-1 1.2-2.8 2-4.6 2-4.6 0-6-3.9-6-8.6 0-4.7 1.7-8.6 6.3-8.6 1.7 0 3.4.7 4.4 1.8h.1V124h-2v-3.5zm-1.1 19.9c1.4 0 2.5-.6 3-1.1v-8c-.5-.4-1.6-1-3-1-2.5 0-3.2 2.2-3.2 5 0 2.9.7 5.1 3.2 5.1zM421.9 136.3c.1 2.5 1.6 4.1 4.7 4.1 1.4 0 3-.1 5.1-.7l.5 3.4c-2.2.6-4.1.8-6.3.8-6.3 0-8.6-3.4-8.6-8.6 0-5.2 2.2-8.6 8.5-8.6 7.1 0 7.5 4.9 6.8 9.5h-10.7zm0-2.7h6.5c.3-1.8-.1-3.5-2.8-3.5-2.4 0-3.5 1.4-3.7 3.5zM34.3 175.2v-4.6c2.3-.5 4.8-.8 6.8-.8 4.2 0 6.5 1.1 6.5 5.5v7.8h1.9v3.5h-6.2V185h-.1c-1.5 1.5-3.3 2.1-5.3 1.9-2.8-.2-4.6-2.1-4.6-5 0-3.8 3.1-5.1 6.9-5.1h3.1v-1.2c0-1.7-1.1-2.2-3.2-2.2-.6 0-1.3 0-2.3.2v1.6h-3.5zm9.1 4.1H41c-2.1 0-3.3.5-3.3 2.2 0 1.5 1.2 2.1 2.6 2.1 1.4 0 2.6-.6 3.2-1v-3.3zM50.9 170.1H57v1.7h.1c1.1-1.2 2.9-2 4.7-2 4.6 0 6 3.9 6 8.6 0 4.7-1.6 8.6-6.3 8.6-1.7 0-3.3-.7-4.4-1.8H57v4.6h2v3.5h-8.1v-3.5h1.9v-16h-1.9v-3.7zm9.1 3.3c-1.4 0-2.4.6-3 1v8c.5.4 1.6 1.1 3 1.1 2.5 0 3.2-2.2 3.2-5 .1-2.9-.6-5.1-3.2-5.1zM69.4 170.1h6.2v1.7h.1c1.1-1.2 2.9-2 4.7-2 4.6 0 6 3.9 6 8.6 0 4.7-1.7 8.6-6.3 8.6-1.7 0-3.3-.7-4.4-1.8h-.1v4.6h1.9v3.5h-8.1v-3.5h1.9v-16h-1.9v-3.7zm9.1 3.3c-1.4 0-2.4.6-3 1v8c.5.4 1.6 1.1 3 1.1 2.5 0 3.2-2.2 3.2-5 0-2.9-.7-5.1-3.2-5.1zM87.8 170.1H94v2.6h.1c1.1-1.5 3.1-3 5.7-3v4.1c-2.2 0-4.5.6-5.8 1.3v8h2.1v3.5h-8.3v-3.5h1.9v-9.4h-1.9v-3.6zM100.9 178.4c0-5.2 2.2-8.6 8-8.6s8 3.4 8 8.6c0 5.2-2.2 8.6-8 8.6s-8-3.4-8-8.6zm4.6 0c0 3.1.8 5 3.5 5s3.5-2 3.5-5-.8-5-3.5-5-3.5 2-3.5 5zM120 175.2v-4.6c2.3-.5 4.8-.8 6.8-.8 4.2 0 6.5 1.1 6.5 5.5v7.8h1.9v3.5H129V185h-.1c-1.5 1.5-3.3 2.1-5.3 1.9-2.8-.2-4.6-2.1-4.6-5 0-3.8 3.1-5.1 6.9-5.1h3.1v-1.2c0-1.7-1.1-2.2-3.2-2.2-.6 0-1.3 0-2.3.2v1.6H120zm9 4.1h-2.4c-2.1 0-3.3.5-3.3 2.2 0 1.5 1.2 2.1 2.6 2.1 1.4 0 2.6-.6 3.2-1v-3.3zM147.1 175.2v-1.6c-.9-.2-1.6-.2-2.2-.2-2.6 0-4 1.7-4 5s1.4 5 4 5c1.2 0 2.3 0 5-.7l.8 3.4c-2 .5-3.7.8-5.8.8-6.4 0-8.5-3.4-8.5-8.6 0-5.2 2.1-8.6 8.5-8.6 2.1 0 3.8.3 5.8.8v4.6h-3.6zM162.8 183.1h1.7v-6.8c0-1.9-.7-3-2.6-3-1.4 0-2.6.7-3.5 1.3v8.5h1.7v3.5h-7.8v-3.5h1.9v-16h-1.9v-3.6h6.2v8.7h.1c1.4-1.5 3.2-2.5 5.4-2.5 3.3 0 5 2.1 5 5.5v7.8h1.9v3.5H163v-3.4zM180.5 173.2h-2.2v-2.8l2.2-.3.5-4.6h3.8v4.6h4.1v3.1h-4.1v8c0 1.6.7 2.4 2.4 2.4.4 0 .9 0 1.5-.2l.4 3.3c-.9.2-2.5.3-3.4.3-3.8 0-5.2-1.6-5.2-5v-8.8zM190.4 178.4c0-5.2 2.2-8.6 8-8.6s8 3.4 8 8.6c0 5.2-2.2 8.6-8 8.6s-8-3.4-8-8.6zm4.5 0c0 3.1.8 5 3.5 5s3.5-2 3.5-5-.8-5-3.5-5-3.5 2-3.5 5zM214.6 170.1h6.2v2.6h.1c1.1-1.5 3.1-3 5.7-3v4.1c-2.2 0-4.5.6-5.8 1.3v8h2.1v3.5h-8.3v-3.5h1.9v-9.4h-1.9v-3.6zM228.1 170.1h6.2v13h1.9v3.5h-8.1v-3.5h1.9v-9.4h-1.9v-3.6zm6.2-6.6v4.6H230v-4.6h4.3zM247.9 175.2v-1.7c-1.3-.2-2.4-.3-3.1-.3-2 0-2.5.8-2.5 1.4 0 .8.5 1.2 2.7 1.7 3.1.7 7 1.5 7 5.3 0 3.6-2.5 5.3-6.5 5.3-2.7 0-5.5-.3-7.5-.8v-4.6h3.6v1.7c1.4.3 2.7.3 3.5.3 2.1 0 2.7-1 2.7-1.6 0-.8-.9-1.2-2.8-1.6-3.7-.6-6.8-1.8-6.8-5.6 0-3.5 2.5-5 6.5-5 2.7 0 5 .3 6.9.8v4.6h-3.7zM253.7 163.5h6.2v14.3l5.5-4.1H264v-3.6h8.3v3.6h-2l-3.7 2.7 4.5 6.7h1.6v3.5h-8.3v-3.5h1.3l-2.7-4.4-3 2.3v2h1.9v3.5h-8.1V183h1.9v-16h-1.9v-3.5zM282.3 173.2h-2.2v-2.8l2.2-.3.5-4.6h3.8v4.6h4.1v3.1h-4.1v8c0 1.6.7 2.4 2.4 2.4.4 0 .9 0 1.5-.2l.4 3.3c-.9.2-2.5.3-3.4.3-3.8 0-5.2-1.6-5.2-5v-8.8zM292.2 178.4c0-5.2 2.2-8.6 8-8.6s8 3.4 8 8.6c0 5.2-2.2 8.6-8 8.6s-8-3.4-8-8.6zm4.5 0c0 3.1.8 5 3.5 5s3.5-2 3.5-5-.8-5-3.5-5-3.5 2-3.5 5zM326.8 175.2v-1.7c-1.3-.2-2.4-.3-3.1-.3-2 0-2.5.8-2.5 1.4 0 .8.5 1.2 2.7 1.7 3.1.7 7 1.5 7 5.3 0 3.6-2.5 5.3-6.5 5.3-2.7 0-5.5-.3-7.5-.8v-4.6h3.6v1.7c1.4.3 2.7.3 3.5.3 2.1 0 2.7-1 2.7-1.6 0-.8-.9-1.2-2.8-1.6-3.7-.6-6.8-1.8-6.8-5.6 0-3.5 2.5-5 6.5-5 2.7 0 5 .3 6.9.8v4.6h-3.7zM332.8 178.4c0-5.2 2.2-8.6 8-8.6s8 3.4 8 8.6c0 5.2-2.2 8.6-8 8.6s-8-3.4-8-8.6zm4.5 0c0 3.1.8 5 3.5 5s3.5-2 3.5-5-.8-5-3.5-5-3.5 2-3.5 5zM350.3 163.5h6.2v19.6h1.9v3.5h-8.1v-3.5h1.9v-16h-1.9v-3.6zM369.3 170.1h7.3v3.6h-1.2l-5.2 13.1h-5.1l-5.2-13.1h-1.3v-3.6h8v3.6h-1.9l3.4 8.8h.1l3.1-8.8h-1.8v-3.6zM382 179.3c.1 2.5 1.6 4.1 4.7 4.1 1.4 0 3-.1 5.1-.7l.5 3.4c-2.2.6-4.1.8-6.3.8-6.3 0-8.6-3.4-8.6-8.6 0-5.2 2.2-8.6 8.5-8.6 7.1 0 7.5 4.9 6.8 9.5H382zm0-2.7h6.5c.3-1.8-.1-3.5-2.8-3.5-2.4 0-3.5 1.4-3.7 3.5zM44.2 218.2v-1.6c-.9-.2-1.6-.2-2.2-.2-2.6 0-4 1.7-4 5s1.4 5 4 5c1.2 0 2.3 0 5-.7l.8 3.4c-2 .5-3.7.8-5.8.8-6.4 0-8.5-3.4-8.5-8.6 0-5.2 2.1-8.6 8.5-8.6 2.1 0 3.8.3 5.8.8v4.6h-3.6zM49.5 221.4c0-5.2 2.2-8.6 8-8.6s8 3.4 8 8.6c0 5.2-2.2 8.6-8 8.6s-8-3.4-8-8.6zm4.5 0c0 3.1.8 5 3.5 5s3.5-2 3.5-5-.8-5-3.5-5-3.5 2-3.5 5zM77.4 226.1h1.7v-7c-.1-1.7-.9-2.8-2.6-2.8-1.3 0-2.4.7-3.2 1.3v8.5H75v3.5h-8v-3.5h1.9v-9.4H67v-3.6h6.2v2.1h.1c1.1-1.2 2.4-2.1 4.1-2.3.5-.1 1-.1 1.5-.1 2 .1 3.3 1.1 4 2.7 1.7-1.9 3.6-2.7 5.7-2.7 3.3 0 5 2.1 5 5.5v7.8h1.9v3.5h-7.9v-3.5h1.6v-6.8c0-1.9-.9-3-2.6-3-1.3 0-2.4.7-3.2 1.3v8.5H85v3.5h-7.6v-3.5zM96.7 213.1h6.2v1.7h.1c1.1-1.2 2.9-2 4.7-2 4.6 0 6 3.9 6 8.6 0 4.7-1.7 8.6-6.3 8.6-1.7 0-3.3-.7-4.4-1.8h-.1v4.6h1.9v3.5h-8.1v-3.5h1.9v-16h-1.9v-3.7zm9.2 3.3c-1.4 0-2.4.6-3 1v8c.5.4 1.6 1.1 3 1.1 2.5 0 3.2-2.2 3.2-5 0-2.9-.7-5.1-3.2-5.1zM115.2 206.5h6.2v19.6h1.9v3.5h-8.1v-3.5h1.9v-16h-1.9v-3.6zM129.1 222.3c.1 2.5 1.6 4.1 4.7 4.1 1.4 0 3-.1 5.1-.7l.5 3.4c-2.2.6-4.1.8-6.3.8-6.3 0-8.6-3.4-8.6-8.6 0-5.2 2.2-8.6 8.5-8.6 7.1 0 7.5 4.9 6.8 9.5h-10.7zm0-2.7h6.5c.3-1.8-.1-3.5-2.8-3.5-2.4 0-3.5 1.4-3.7 3.5zM152.9 213.1h6.8v3.6h-1.4l-4.7 4.8 4.6 4.6h1.8v3.5h-9v-3.5h1.4l-3-3.2-2.9 3.2h1.5v3.5h-7v-3.5h1.4l4.8-5.1-4.3-4.3h-1.6v-3.6h8.8v3.6h-1.4l2.8 2.9 2.7-2.9h-1.3v-3.6zM167.6 213.1h6.2v13h1.9v3.5h-8.1v-3.5h1.9v-9.4h-1.9v-3.6zm6.2-6.6v4.6h-4.3v-4.6h4.3zM187.4 218.2v-1.7c-1.3-.2-2.4-.3-3.1-.3-2 0-2.5.8-2.5 1.4 0 .8.5 1.2 2.7 1.7 3.1.7 7 1.5 7 5.3 0 3.6-2.5 5.3-6.5 5.3-2.7 0-5.5-.3-7.5-.8v-4.6h3.6v1.7c1.4.3 2.7.3 3.5.3 2.1 0 2.7-1 2.7-1.6 0-.8-.9-1.2-2.8-1.6-3.7-.6-6.8-1.8-6.8-5.6 0-3.5 2.5-5 6.5-5 2.7 0 5 .3 6.9.8v4.6h-3.7zM203.6 218.2v-1.7c-1.3-.2-2.4-.3-3.1-.3-2 0-2.5.8-2.5 1.4 0 .8.5 1.2 2.7 1.7 3.1.7 7 1.5 7 5.3 0 3.6-2.5 5.3-6.5 5.3-2.7 0-5.5-.3-7.5-.8v-4.6h3.6v1.7c1.4.3 2.7.3 3.5.3 2.1 0 2.7-1 2.7-1.6 0-.8-.9-1.2-2.8-1.6-3.7-.6-6.8-1.8-6.8-5.6 0-3.5 2.5-5 6.5-5 2.7 0 5 .3 6.9.8v4.6h-3.7zM209.4 213.1h6.2v10.3c0 1.9.9 3 2.6 3 1.4 0 2.6-.8 3.5-1.3v-8.4h-2.1v-3.6h6.4v13h1.9v3.5h-6.2v-2.1h-.1c-1.4 1.5-3.2 2.5-5.4 2.5-3.3 0-5-2.1-5-5.5v-7.8h-1.9v-3.6zM233.6 222.3c.1 2.5 1.6 4.1 4.7 4.1 1.4 0 3-.1 5.1-.7l.5 3.4c-2.2.6-4.1.8-6.3.8-6.3 0-8.6-3.4-8.6-8.6 0-5.2 2.2-8.6 8.5-8.6 7.1 0 7.5 4.9 6.8 9.5h-10.7zm0-2.7h6.5c.3-1.8-.1-3.5-2.8-3.5-2.4 0-3.5 1.4-3.7 3.5zM256.7 218.2v-1.7c-1.3-.2-2.4-.3-3.1-.3-2 0-2.5.8-2.5 1.4 0 .8.5 1.2 2.7 1.7 3.1.7 7 1.5 7 5.3 0 3.6-2.5 5.3-6.5 5.3-2.7 0-5.5-.3-7.5-.8v-4.6h3.6v1.7c1.4.3 2.7.3 3.5.3 2.1 0 2.7-1 2.7-1.6 0-.8-.9-1.2-2.8-1.6-3.7-.6-6.8-1.8-6.8-5.6 0-3.5 2.5-5 6.5-5 2.7 0 5 .3 6.9.8v4.6h-3.7zM270.2 218.2v-4.6c2.3-.5 4.8-.8 6.8-.8 4.2 0 6.5 1.1 6.5 5.5v7.8h1.9v3.5h-6.2V228h-.1c-1.5 1.5-3.3 2.1-5.3 1.9-2.8-.2-4.6-2.1-4.6-5 0-3.8 3.1-5.1 6.9-5.1h3.1v-1.2c0-1.7-1.1-2.2-3.2-2.2-.6 0-1.3 0-2.3.2v1.6h-3.5zm9 4.1h-2.4c-2.1 0-3.3.5-3.3 2.2 0 1.5 1.2 2.1 2.6 2.1 1.4 0 2.6-.6 3.2-1v-3.3zM297.4 226.1h1.7v-6.8c0-1.9-.7-3-2.6-3-1.4 0-2.6.7-3.5 1.3v8.5h1.7v3.5h-7.8v-3.5h1.9v-9.4h-1.9v-3.6h6.2v2.1h.1c1.4-1.5 3.2-2.5 5.4-2.5 3.3 0 5 2.1 5 5.5v7.8h1.9v3.5h-7.9v-3.4zM315.3 206.5h6.2v19.6h1.9v3.5h-6.2V228h-.1c-1 1.2-2.8 2-4.6 2-4.6 0-6-3.9-6-8.6 0-4.7 1.6-8.6 6.3-8.6 1.7 0 3.4.7 4.4 1.8h.1V210h-1.9v-3.5zm-1.1 19.9c1.4 0 2.5-.6 3-1.1v-8c-.5-.4-1.6-1-3-1-2.5 0-3.2 2.2-3.2 5 0 2.9.7 5.1 3.2 5.1zM341.4 226.1h1.6v-7c-.1-1.7-.9-2.8-2.6-2.8-1.3 0-2.4.7-3.2 1.3v8.5h1.6v3.5H331v-3.5h1.9v-9.4H331v-3.6h6.2v2.1h.1c1.1-1.2 2.4-2.1 4.1-2.3.5-.1 1-.1 1.5-.1 2 .1 3.3 1.1 4 2.7 1.7-1.9 3.6-2.7 5.7-2.7 3.3 0 5 2.1 5 5.5v7.8h1.9v3.5h-7.9v-3.5h1.7v-6.8c0-1.9-.9-3-2.6-3-1.3 0-2.4.7-3.2 1.3v8.5h1.7v3.5h-7.6v-3.5zM361.8 218.2v-4.6c2.3-.5 4.8-.8 6.8-.8 4.2 0 6.5 1.1 6.5 5.5v7.8h1.9v3.5h-6.2V228h-.1c-1.5 1.5-3.3 2.1-5.3 1.9-2.8-.2-4.6-2.1-4.6-5 0-3.8 3.1-5.1 6.9-5.1h3.1v-1.2c0-1.7-1.1-2.2-3.2-2.2-.6 0-1.3 0-2.3.2v1.6h-3.5zm9 4.1h-2.4c-2.1 0-3.3.5-3.3 2.2 0 1.5 1.2 2.1 2.6 2.1 1.4 0 2.6-.6 3.2-1v-3.3zM378.3 213.1h6.2v13h1.9v3.5h-8.1v-3.5h1.9v-9.4h-1.9v-3.6zm6.2-6.6v4.6h-4.3v-4.6h4.3zM398.4 226.1h1.7v-6.8c0-1.9-.7-3-2.6-3-1.4 0-2.6.7-3.5 1.3v8.5h1.7v3.5h-7.8v-3.5h1.9v-9.4h-1.9v-3.6h6.2v2.1h.1c1.4-1.5 3.2-2.5 5.4-2.5 3.3 0 5 2.1 5 5.5v7.8h1.9v3.5h-7.9v-3.4zM408.4 216.2h-2.2v-2.8l2.2-.3.5-4.6h3.8v4.6h4.1v3.1h-4.1v8c0 1.6.7 2.4 2.4 2.4.4 0 .9 0 1.5-.2l.4 3.3c-.9.2-2.5.3-3.4.3-3.8 0-5.2-1.6-5.2-5v-8.8zM419.5 218.2v-4.6c2.3-.5 4.8-.8 6.8-.8 4.2 0 6.5 1.1 6.5 5.5v7.8h1.9v3.5h-6.2V228h-.1c-1.5 1.5-3.3 2.1-5.3 1.9-2.8-.2-4.6-2.1-4.6-5 0-3.8 3.1-5.1 6.9-5.1h3.1v-1.2c0-1.7-1.1-2.2-3.2-2.2-.6 0-1.3 0-2.3.2v1.6h-3.5zm9.1 4.1h-2.4c-2.1 0-3.3.5-3.3 2.2 0 1.5 1.2 2.1 2.6 2.1 1.4 0 2.6-.6 3.2-1v-3.3zM436.1 213.1h6.2v13h1.9v3.5h-8.1v-3.5h1.9v-9.4h-1.9v-3.6zm6.2-6.6v4.6H438v-4.6h4.3zM456.1 226.1h1.7v-6.8c0-1.9-.7-3-2.6-3-1.4 0-2.6.7-3.5 1.3v8.5h1.7v3.5h-7.8v-3.5h1.9v-9.4h-1.9v-3.6h6.2v2.1h.1c1.4-1.5 3.2-2.5 5.4-2.5 3.3 0 5 2.1 5 5.5v7.8h1.9v3.5h-7.9v-3.4zM33.5 264.4c0-5.2 2.2-8.6 8-8.6s8 3.4 8 8.6c0 5.2-2.2 8.6-8 8.6s-8-3.4-8-8.6zm4.5 0c0 3.1.8 5 3.5 5s3.5-2 3.5-5-.8-5-3.5-5-3.5 2-3.5 5zM51 256.1h6.2v1.7h.1c1.1-1.2 2.9-2 4.7-2 4.6 0 6 3.9 6 8.6 0 4.7-1.7 8.6-6.3 8.6-1.7 0-3.3-.7-4.4-1.8h-.1v4.6h1.9v3.5H51v-3.5h1.9v-16H51v-3.7zm9.2 3.3c-1.4 0-2.4.6-3 1v8c.5.4 1.6 1.1 3 1.1 2.5 0 3.2-2.2 3.2-5 0-2.9-.7-5.1-3.2-5.1zM75 265.3c.1 2.5 1.6 4.1 4.7 4.1 1.4 0 3-.1 5.1-.7l.5 3.4c-2.2.6-4.1.8-6.3.8-6.3 0-8.6-3.4-8.6-8.6 0-5.2 2.2-8.6 8.5-8.6 7.1 0 7.5 4.9 6.8 9.5H75zm0-2.7h6.5c.3-1.8-.1-3.5-2.8-3.5-2.4 0-3.5 1.4-3.7 3.5zM87.7 256.1h6.2v2.6h.1c1.1-1.5 3.1-3 5.7-3v4.1c-2.2 0-4.5.6-5.8 1.3v8H96v3.5h-8.3v-3.5h1.9v-9.4h-1.9v-3.6zM101.7 261.2v-4.6c2.3-.5 4.8-.8 6.8-.8 4.2 0 6.5 1.1 6.5 5.5v7.8h1.9v3.5h-6.2V271h-.1c-1.5 1.5-3.3 2.1-5.3 1.9-2.8-.2-4.6-2.1-4.6-5 0-3.8 3.1-5.1 6.9-5.1h3.1v-1.2c0-1.7-1.1-2.2-3.2-2.2-.6 0-1.3 0-2.3.2v1.6h-3.5zm9 4.1h-2.4c-2.1 0-3.3.5-3.3 2.2 0 1.5 1.2 2.1 2.6 2.1 1.4 0 2.6-.6 3.2-1v-3.3zM119.1 259.2h-2.2v-2.8l2.2-.3.5-4.6h3.8v4.6h4.1v3.1h-4.1v8c0 1.6.7 2.4 2.4 2.4.4 0 .9 0 1.5-.2l.4 3.3c-.9.2-2.5.3-3.4.3-3.8 0-5.2-1.6-5.2-5v-8.8zM129.6 256.1h6.2v13h1.9v3.5h-8.1v-3.5h1.9v-9.4h-1.9v-3.6zm6.2-6.6v4.6h-4.3v-4.6h4.3zM138.9 264.4c0-5.2 2.2-8.6 8-8.6s8 3.4 8 8.6c0 5.2-2.2 8.6-8 8.6s-8-3.4-8-8.6zm4.5 0c0 3.1.8 5 3.5 5s3.5-2 3.5-5-.8-5-3.5-5-3.5 2-3.5 5zM167.1 269.1h1.6v-6.8c0-1.9-.7-3-2.6-3-1.4 0-2.6.7-3.5 1.3v8.5h1.6v3.5h-7.8v-3.5h1.9v-9.4h-1.9v-3.6h6.2v2.1h.1c1.4-1.5 3.2-2.5 5.4-2.5 3.3 0 5 2.1 5 5.5v7.8h1.9v3.5h-7.9v-3.4zM177.4 261.2v-4.6c2.3-.5 4.8-.8 6.8-.8 4.2 0 6.5 1.1 6.5 5.5v7.8h1.9v3.5h-6.2V271h-.1c-1.5 1.5-3.3 2.1-5.3 1.9-2.8-.2-4.6-2.1-4.6-5 0-3.8 3.1-5.1 6.9-5.1h3.1v-1.2c0-1.7-1.1-2.2-3.2-2.2-.6 0-1.3 0-2.3.2v1.6h-3.5zm9 4.1H184c-2.1 0-3.3.5-3.3 2.2 0 1.5 1.2 2.1 2.6 2.1 1.4 0 2.6-.6 3.2-1v-3.3zM193.9 249.5h6.2v19.6h1.9v3.5h-8.1v-3.5h1.9v-16h-1.9v-3.6zM209.6 256.1h6.2v2.6h.1c1.1-1.5 3.1-3 5.7-3v4.1c-2.2 0-4.5.6-5.8 1.3v8h2.1v3.5h-8.3v-3.5h1.9v-9.4h-1.9v-3.6zM227.3 265.3c.1 2.5 1.6 4.1 4.7 4.1 1.4 0 3-.1 5.1-.7l.5 3.4c-2.2.6-4.1.8-6.3.8-6.3 0-8.6-3.4-8.6-8.6 0-5.2 2.2-8.6 8.5-8.6 7.1 0 7.5 4.9 6.8 9.5h-10.7zm0-2.7h6.5c.3-1.8-.1-3.5-2.8-3.5-2.4 0-3.5 1.4-3.7 3.5zM250.4 261.2v-1.7c-1.3-.2-2.4-.3-3.1-.3-2 0-2.5.8-2.5 1.4 0 .8.5 1.2 2.7 1.7 3.1.7 7 1.5 7 5.3 0 3.6-2.5 5.3-6.5 5.3-2.7 0-5.5-.3-7.5-.8v-4.6h3.6v1.7c1.4.3 2.7.3 3.5.3 2.1 0 2.7-1 2.7-1.6 0-.8-.9-1.2-2.8-1.6-3.7-.6-6.8-1.8-6.8-5.6 0-3.5 2.5-5 6.5-5 2.7 0 5 .3 6.9.8v4.6h-3.7zM256.1 256.1h6.2v13h1.9v3.5h-8.1v-3.5h1.9v-9.4h-1.9v-3.6zm6.2-6.6v4.6H258v-4.6h4.3zM265.5 249.5h6.2v19.6h1.9v3.5h-8.1v-3.5h1.9v-16h-1.9v-3.6zM274.9 256.1h6.2v13h1.9v3.5h-8.1v-3.5h1.9v-9.4h-1.9v-3.6zm6.2-6.6v4.6h-4.3v-4.6h4.3zM288.8 265.3c.1 2.5 1.6 4.1 4.7 4.1 1.4 0 3-.1 5.1-.7l.5 3.4c-2.2.6-4.1.8-6.3.8-6.3 0-8.6-3.4-8.6-8.6 0-5.2 2.2-8.6 8.5-8.6 7.1 0 7.5 4.9 6.8 9.5h-10.7zm0-2.7h6.5c.3-1.8-.1-3.5-2.8-3.5-2.4 0-3.5 1.4-3.7 3.5zM312.1 269.1h1.7v-6.8c0-1.9-.7-3-2.6-3-1.4 0-2.6.7-3.5 1.3v8.5h1.7v3.5h-7.8v-3.5h1.9v-9.4h-1.9v-3.6h6.2v2.1h.1c1.4-1.5 3.2-2.5 5.4-2.5 3.3 0 5 2.1 5 5.5v7.8h1.9v3.5h-7.9v-3.4zM331.9 261.2v-1.6c-.9-.2-1.6-.2-2.2-.2-2.6 0-4 1.7-4 5s1.4 5 4 5c1.2 0 2.3 0 5-.7l.8 3.4c-2 .5-3.7.8-5.8.8-6.4 0-8.5-3.4-8.5-8.6 0-5.2 2.1-8.6 8.5-8.6 2.1 0 3.8.3 5.8.8v4.6h-3.6zM347.8 256.1h7.3v3.6h-1.2l-5.5 13.4c-1.5 3.5-3.6 6.5-7.2 6.5-.9 0-2.1-.1-2.9-.3l.4-3.4c.5.1 1.2.2 1.6.2 1.7 0 3-1.2 3.6-3l-5.4-13.3H337v-3.6h8v3.6h-1.9l3.4 9.1h.1l3-9.1h-1.8v-3.7zM361.6 267.9v4.8h-4.3v-4.8h4.3zM376.6 259.6v2.1h-6.7v-2.1h2.1v-8.7l-2.1.1v-1.8l3.4-.8h1.2v11.1h2.1z"/></g></g></g></g><g id="Glance_2_lines_00000089551165676529457550000009932854870916352165_"><g id="Glance_00000054984484403091439330000011087631583435901326_"><g id="Glance_00000060725969270499916820000008599493654142587574_"><g id="_Jobs_in_advanced_economies_are_increasingly_for_high-skill_workers._00000168114748252189074860000001172403205840531847_"><path class="st4" d="M48.8 46.1v1.5h-1.3v10.6h1.3v1.5h-4.5v-1.5h1.3v-8.6l-4.1 10.1h-1.2L36 49.6v8.6h1.4v1.5H33v-1.5h1.3V47.6H33v-1.5h3.6l4.5 10.4 4.3-10.4h3.4zM49.9 54.7c0-3.1 1.2-5.2 4.6-5.2 3.3 0 4.6 2.1 4.6 5.2s-1.3 5.2-4.6 5.2c-3.4 0-4.6-2.1-4.6-5.2zm1.9 0c0 2.1.6 3.7 2.7 3.7s2.7-1.6 2.7-3.7-.6-3.7-2.7-3.7-2.7 1.6-2.7 3.7zM60.2 49.7h3.1v1.6c.8-.9 2.2-1.8 3.8-1.8v1.7c-1.5 0-3 .6-3.8 1.2v5.8h1.5v1.5h-4.6v-1.5h1.3v-7h-1.3v-1.5zM69.8 55c0 2 1 3.4 3.3 3.4 1 0 2 0 3.1-.4l.2 1.5c-1.3.3-2.3.4-3.6.4-3.7 0-5-2.1-5-5.2s1.3-5.2 4.9-5.2c4.2 0 4.3 3.2 3.9 5.5h-6.8zm0-1.1h5.1c.3-1.4-.1-3-2.2-3-2 0-2.8 1.3-2.9 3zM83.1 51h-1.5v-1.2l1.5-.1.2-2.8h1.6v2.8h2.8V51h-2.8v5.5c0 1.3.4 2 1.7 2 .3 0 .6 0 1-.1l.2 1.4c-.5.1-1.3.1-1.8.1-2.1 0-2.9-.8-2.9-3.1V51zM95.8 58.2H97v-5c0-1.3-.5-2.2-2-2.2-1.2 0-2.2.7-2.8 1.2v6h1.2v1.5h-4.3v-1.5h1.3v-11h-1.3v-1.5h3.1v5.4c1-.9 2.2-1.6 3.6-1.6 2 0 3 1.2 3 3.3v5.4h1.3v1.5h-4.3v-1.5zM101.7 52.4v-2.5c1.4-.3 2.8-.4 3.9-.4 2.4 0 3.7.7 3.7 3.3v5.4h1.3v1.5h-3.1v-1c-.9.7-1.8 1.2-3.1 1.2-2.1 0-3.2-1.1-3.2-3 0-2.4 2.1-3 4.2-3h2.2v-1c0-1.3-.7-1.9-2.3-1.9-.5 0-1.1 0-2 .2v1.2h-1.6zm5.8 2.6h-1.9c-1.9 0-2.7.6-2.7 1.8 0 1.1.8 1.7 2.1 1.7 1.1 0 2-.5 2.5-.8V55zM118.1 58.2h1.2v-5c0-1.3-.5-2.2-2-2.2-1.2 0-2.2.7-2.8 1.2v6h1.2v1.5h-4.3v-1.5h1.3v-7h-1.3v-1.5h3.1v1.4c1-.9 2.2-1.6 3.6-1.6 2 0 3 1.2 3 3.3v5.4h1.3v1.5h-4.3v-1.5zM129.2 55c0 2 1 3.4 3.3 3.4 1 0 2 0 3.1-.4l.2 1.5c-1.3.3-2.3.4-3.6.4-3.7 0-5-2.1-5-5.2s1.3-5.2 4.9-5.2c4.2 0 4.3 3.2 3.9 5.5h-6.8zm0-1.1h5.1c.3-1.4-.1-3-2.2-3-2 0-2.8 1.3-2.9 3zM137.4 49.7h3.1v8.5h1.3v1.5h-4.4v-1.5h1.3v-7h-1.3v-1.5zm3.1-4v2.5h-1.8v-2.5h1.8zM144.1 59c-1.2-.7-.9-2.4.6-3.3-1-.5-1.7-1.5-1.7-2.8 0-2.2 1.6-3.4 4.1-3.4.5 0 1 .1 1.4.2h3.5v1.1h-1.9c.8.5 1 1.4 1 2.1 0 2.2-1.7 3.3-3.9 3.3-.4 0-1-.1-1.4-.2-.7.8-.8 1.8.2 1.8l3.4.2c2.1.1 3 1 3 2.4 0 2.3-1.8 3.5-5.7 3.5-2.7 0-4.1-.8-4.1-2.6-.2-.9.3-1.6 1.5-2.3zm2.7 3.7c1.9 0 3.5-.6 3.5-1.9 0-.6-.4-1.1-1.6-1.2l-3.6-.2c-.6.5-1.2.9-1.2 1.6 0 1.1 1 1.7 2.9 1.7zm2.5-9.8c0-1.3-.9-2.1-2.2-2.1-1.5 0-2.3.8-2.3 2.1 0 1.4.9 2.1 2.3 2.1 1.3 0 2.2-.8 2.2-2.1zM159.6 58.2h1.2v-5c0-1.3-.5-2.2-2-2.2-1.2 0-2.2.7-2.8 1.2v6h1.2v1.5h-4.3v-1.5h1.3v-11h-1.3v-1.5h3.1v5.4c1-.9 2.2-1.6 3.6-1.6 2 0 3 1.2 3 3.3v5.4h1.3v1.5h-4.3v-1.5zM165.4 51h-1.5v-1.2l1.5-.1.2-2.8h1.6v2.8h2.8V51h-2.8v5.5c0 1.3.4 2 1.7 2 .3 0 .6 0 1-.1l.2 1.4c-.5.1-1.3.1-1.8.1-2.1 0-2.9-.8-2.9-3.1V51zM175 49.7h3.1v8.5h1.3v1.5H175v-1.5h1.3v-7H175v-1.5zm3.1-4v2.5h-1.8v-2.5h1.8zM186.9 58.2h1.2v-5c0-1.3-.5-2.2-2-2.2-1.2 0-2.2.7-2.8 1.2v6h1.2v1.5h-4.3v-1.5h1.3v-7h-1.3v-1.5h3.1v1.4c1-.9 2.2-1.6 3.6-1.6 2 0 3 1.2 3 3.3v5.4h1.3v1.5h-4.3v-1.5zM202.2 58.2v1.5h-6.6v-1.5h2.4V47.8l-2.3.2v-1.3l3.2-.7h.9v12.2h2.4zM203.5 52.8c0-3.8.9-6.9 4.8-6.9 3.8 0 4.8 3.1 4.8 6.9 0 3.9-1 7.1-4.8 7.1-3.9 0-4.8-3.2-4.8-7.1zm1.9 0c0 2.9.5 5.6 2.9 5.6 2.3 0 2.9-2.7 2.9-5.6 0-2.9-.6-5.4-2.9-5.4-2.4 0-2.9 2.5-2.9 5.4zM218 45.7h3.1v5c.7-.7 1.9-1.2 3.1-1.2 2.8 0 3.7 2.3 3.7 5.2 0 2.9-1 5.2-3.8 5.2-1.1 0-2.3-.4-3.1-1.1l-.3.9H218v-1.5h1.3v-11H218v-1.5zm5.5 5.3c-1.1 0-2 .5-2.4.9v5.7c.4.3 1.3.8 2.4.8 1.9 0 2.5-1.7 2.5-3.7s-.6-3.7-2.5-3.7zM228.8 49.7h3.1v6.5c0 1.3.5 2.2 2 2.2 1.1 0 2.2-.7 2.8-1.1v-6.1h-1.6v-1.5h3.4v8.5h1.3v1.5h-3.1v-1.4c-1 1-2.2 1.6-3.6 1.6-2 0-3-1.2-3-3.3v-5.4h-1.3v-1.5zM247.3 52.4v-1.2c-1-.2-1.9-.2-2.4-.2-1.8 0-2 1-2 1.3 0 .6.3 1.2 2.1 1.5 2.1.5 4 1 4 3.1 0 2-1.4 3-3.7 3-1.6 0-3.1-.1-4.3-.4V57h1.5v1.2c1 .2 2.1.2 2.6.2 1.8 0 2.1-1.1 2.1-1.5 0-.7-.5-1.2-2.3-1.5-2.1-.4-3.8-1.1-3.8-3.2 0-1.9 1.3-2.8 3.7-2.8 1.5 0 2.8.2 4 .5v2.4h-1.5zM250.2 49.7h3.1v8.5h1.3v1.5h-4.4v-1.5h1.3v-7h-1.3v-1.5zm3.1-4v2.5h-1.8v-2.5h1.8zM262.1 58.2h1.2v-5c0-1.3-.5-2.2-2-2.2-1.2 0-2.2.7-2.8 1.2v6h1.2v1.5h-4.3v-1.5h1.3v-7h-1.3v-1.5h3.1v1.4c1-.9 2.2-1.6 3.6-1.6 2 0 3 1.2 3 3.3v5.4h1.3v1.5h-4.3v-1.5zM269.2 55c0 2 1 3.4 3.3 3.4 1 0 2 0 3.1-.4l.2 1.5c-1.3.3-2.3.4-3.6.4-3.7 0-5-2.1-5-5.2s1.3-5.2 4.9-5.2c4.2 0 4.3 3.2 3.9 5.5h-6.8zm0-1.1h5.1c.3-1.4-.1-3-2.2-3-2 0-2.8 1.3-2.9 3zM284.1 52.4v-1.2c-1-.2-1.9-.2-2.4-.2-1.8 0-2 1-2 1.3 0 .6.3 1.2 2.1 1.5 2.1.5 4 1 4 3.1 0 2-1.4 3-3.7 3-1.6 0-3.1-.1-4.3-.4V57h1.5v1.2c1 .2 2.1.2 2.6.2 1.8 0 2.1-1.1 2.1-1.5 0-.7-.5-1.2-2.3-1.5-2.1-.4-3.8-1.1-3.8-3.2 0-1.9 1.3-2.8 3.7-2.8 1.5 0 2.8.2 4 .5v2.4h-1.5zM293.7 52.4v-1.2c-1-.2-1.9-.2-2.4-.2-1.8 0-2 1-2 1.3 0 .6.3 1.2 2.1 1.5 2.1.5 4 1 4 3.1 0 2-1.4 3-3.7 3-1.6 0-3.1-.1-4.3-.4V57h1.5v1.2c1 .2 2.1.2 2.6.2 1.8 0 2.1-1.1 2.1-1.5 0-.7-.5-1.2-2.3-1.5-2.1-.4-3.8-1.1-3.8-3.2 0-1.9 1.3-2.8 3.7-2.8 1.5 0 2.8.2 4 .5v2.4h-1.5zM298.8 55c0 2 1 3.4 3.3 3.4 1 0 2 0 3.1-.4l.2 1.5c-1.3.3-2.3.4-3.6.4-3.7 0-5-2.1-5-5.2s1.3-5.2 4.9-5.2c4.2 0 4.3 3.2 3.9 5.5h-6.8zm0-1.1h5.1c.3-1.4-.1-3-2.2-3-2 0-2.8 1.3-2.9 3zM313.7 52.4v-1.2c-1-.2-1.9-.2-2.4-.2-1.8 0-2 1-2 1.3 0 .6.3 1.2 2.1 1.5 2.1.5 4 1 4 3.1 0 2-1.4 3-3.7 3-1.6 0-3.1-.1-4.3-.4V57h1.5v1.2c1 .2 2.1.2 2.6.2 1.8 0 2.1-1.1 2.1-1.5 0-.7-.5-1.2-2.3-1.5-2.1-.4-3.8-1.1-3.8-3.2 0-1.9 1.3-2.8 3.7-2.8 1.5 0 2.8.2 4 .5v2.4h-1.5zM320.2 49.7h3.1v1.6c.8-.9 2.2-1.8 3.8-1.8v1.7c-1.5 0-3 .6-3.8 1.2v5.8h1.5v1.5h-4.6v-1.5h1.3v-7h-1.3v-1.5zM329.8 55c0 2 1 3.4 3.3 3.4 1 0 2 0 3.1-.4l.2 1.5c-1.3.3-2.3.4-3.6.4-3.7 0-5-2.1-5-5.2s1.3-5.2 4.9-5.2c4.2 0 4.3 3.2 3.9 5.5h-6.8zm0-1.1h5.1c.3-1.4-.1-3-2.2-3-2 0-2.8 1.3-2.9 3zM338 49.7h3.1v1c.7-.7 1.9-1.2 3.1-1.2 2.8 0 3.7 2.3 3.7 5.2 0 2.9-1 5.2-3.8 5.2-1.1 0-2.3-.4-3-1.1v3.4h1.3v1.5H338v-1.5h1.3v-11H338v-1.5zm5.5 1.3c-1.1 0-2 .5-2.4.9v5.7c.4.3 1.3.8 2.4.8 1.9 0 2.5-1.7 2.5-3.7s-.6-3.7-2.5-3.7zM349.7 54.7c0-3.1 1.2-5.2 4.6-5.2 3.3 0 4.6 2.1 4.6 5.2s-1.3 5.2-4.6 5.2c-3.4 0-4.6-2.1-4.6-5.2zm1.9 0c0 2.1.6 3.7 2.7 3.7s2.7-1.6 2.7-3.7-.6-3.7-2.7-3.7-2.7 1.6-2.7 3.7zM360 49.7h3.1v1.6c.8-.9 2.2-1.8 3.8-1.8v1.7c-1.5 0-3 .6-3.8 1.2v5.8h1.5v1.5H360v-1.5h1.3v-7H360v-1.5zM369.5 51H368v-1.2l1.5-.1.2-2.8h1.6v2.8h2.8V51h-2.8v5.5c0 1.3.4 2 1.7 2 .3 0 .6 0 1-.1l.2 1.4c-.5.1-1.3.1-1.8.1-2.1 0-2.9-.8-2.9-3.1V51zM377.1 55c0 2 1 3.4 3.3 3.4 1 0 2 0 3.1-.4l.2 1.5c-1.3.3-2.3.4-3.6.4-3.7 0-5-2.1-5-5.2s1.3-5.2 4.9-5.2c4.2 0 4.3 3.2 3.9 5.5h-6.8zm0-1.1h5.1c.3-1.4-.1-3-2.2-3-2 0-2.8 1.3-2.9 3zM391.3 45.7h3.1v12.5h1.3v1.5h-3.1v-1c-.7.7-1.9 1.2-3.1 1.2-2.8 0-3.7-2.3-3.7-5.2 0-2.9 1-5.2 3.8-5.2 1.1 0 2.2.5 3 1.2v-3.5h-1.3v-1.5zm-1.1 12.7c1.1 0 2-.5 2.4-.8v-5.7c-.4-.3-1.3-.9-2.4-.9-2 0-2.5 1.7-2.5 3.7s.5 3.7 2.5 3.7zM401.6 51h-1.5v-1.2l1.5-.1.2-2.8h1.6v2.8h2.8V51h-2.8v5.5c0 1.3.4 2 1.7 2 .3 0 .6 0 1-.1l.2 1.4c-.5.1-1.3.1-1.8.1-2.1 0-2.9-.8-2.9-3.1V51zM414.3 58.2h1.2v-5c0-1.3-.5-2.2-2-2.2-1.2 0-2.2.7-2.8 1.2v6h1.2v1.5h-4.3v-1.5h1.3v-11h-1.3v-1.5h3.1v5.4c1-.9 2.2-1.6 3.6-1.6 2 0 3 1.2 3 3.3v5.4h1.3v1.5h-4.3v-1.5zM420.2 52.4v-2.5c1.4-.3 2.8-.4 3.9-.4 2.4 0 3.7.7 3.7 3.3v5.4h1.3v1.5H426v-1c-.9.7-1.8 1.2-3.1 1.2-2.1 0-3.2-1.1-3.2-3 0-2.4 2.1-3 4.2-3h2.2v-1c0-1.3-.7-1.9-2.3-1.9-.5 0-1.1 0-2 .2v1.2h-1.6zM426 55h-1.9c-1.9 0-2.7.6-2.7 1.8 0 1.1.8 1.7 2.1 1.7 1.1 0 2-.5 2.5-.8V55zM430.6 51h-1.5v-1.2l1.5-.1.2-2.8h1.6v2.8h2.8V51h-2.8v5.5c0 1.3.4 2 1.7 2 .3 0 .6 0 1-.1l.2 1.4c-.5.1-1.3.1-1.8.1-2.1 0-2.9-.8-2.9-3.1V51z"/></g></g></g></g><path style="fill:none" d="M29.9 482.8h316V498h-316z"/><path class="st6" d="m31.5 483.4-.8.4-.1-.5 1-.5h.5v4.5h-.6v-3.9zM33.9 486.1c.3-1 .8-2.3 1.1-2.9l.7-.1c-.3.7-.6 1.9-.7 2.8l-1.1.2zm1.8 0c.3-1 .8-2.3 1.1-2.9l.7-.1c-.3.7-.6 1.9-.7 2.8l-1.1.2zM45.4 487.2c0 2.8-1.7 4.3-3.8 4.3-2.1 0-3.6-1.7-3.6-4.1 0-2.6 1.6-4.2 3.8-4.2 2.1-.1 3.6 1.6 3.6 4zm-6.3.2c0 1.7.9 3.3 2.6 3.3 1.7 0 2.6-1.5 2.6-3.4 0-1.6-.8-3.3-2.6-3.3s-2.6 1.6-2.6 3.4zM46.7 487.4v-1.8h.9v1.1c.3-.8.9-1.3 1.6-1.3h.3v1h-.4c-.7 0-1.3.6-1.4 1.4v3.6h-1v-4zM55.5 485.6v5c0 1.3-.3 2.1-.8 2.7-.6.5-1.4.7-2.1.7-.7 0-1.5-.2-1.9-.5l.3-.8c.4.2 1 .5 1.7.5 1.1 0 1.9-.6 1.9-2v-.6c-.3.5-.9 1-1.8 1-1.4 0-2.5-1.2-2.5-2.8 0-2 1.3-3.1 2.6-3.1 1 0 1.6.5 1.8 1v-.9h.8zm-1.1 2.2c0-.2 0-.3-.1-.5-.2-.6-.7-1.1-1.5-1.1-1 0-1.7.9-1.7 2.2 0 1.1.6 2.1 1.7 2.1.6 0 1.2-.4 1.5-1.1.1-.2.1-.4.1-.6v-1zM60.4 491.4l-.1-.7c-.3.5-.9.9-1.8.9-1.2 0-1.8-.8-1.8-1.7 0-1.4 1.2-2.2 3.5-2.2v-.1c0-.5-.1-1.3-1.3-1.3-.5 0-1.1.2-1.5.4l-.2-.7c.5-.3 1.2-.5 1.9-.5 1.8 0 2.2 1.2 2.2 2.4v2.2c0 .5 0 1 .1 1.4h-1zm-.1-3c-1.2 0-2.5.2-2.5 1.3 0 .7.5 1 1 1 .8 0 1.2-.5 1.4-1 0-.1.1-.2.1-.3v-1zM63 487.1v-1.6h.9l.1 1c.3-.6 1-1.1 1.9-1.1.8 0 2.1.5 2.1 2.5v3.5h-1.1V488c0-.9-.3-1.7-1.3-1.7-.7 0-1.2.5-1.4 1.1 0 .1-.1.3-.1.5v3.5H63v-4.3zM70.8 483.9c0 .4-.3.6-.7.6-.4 0-.6-.3-.6-.6 0-.4.3-.7.7-.7.4.1.6.4.6.7zm-1.1 7.5v-5.8h1.1v5.8h-1.1zM71.8 490.7l2.6-3.4c.3-.3.5-.6.8-.9H72v-.9h4.4v.7l-2.6 3.4c-.2.3-.5.6-.7.9h3.4v.8h-4.7v-.6zM80.8 491.4l-.1-.7c-.3.5-.9.9-1.8.9-1.2 0-1.8-.8-1.8-1.7 0-1.4 1.2-2.2 3.5-2.2v-.1c0-.5-.1-1.3-1.3-1.3-.5 0-1.1.2-1.5.4l-.2-.7c.5-.3 1.2-.5 1.9-.5 1.8 0 2.2 1.2 2.2 2.4v2.2c0 .5 0 1 .1 1.4h-1zm-.1-3c-1.2 0-2.5.2-2.5 1.3 0 .7.5 1 1 1 .8 0 1.2-.5 1.4-1 0-.1.1-.2.1-.3v-1zM84.6 483.9v1.7h1.5v.8h-1.5v3.1c0 .7.2 1.1.8 1.1.3 0 .5 0 .6-.1v.8c-.2.1-.5.1-.9.1-.5 0-.9-.2-1.1-.4-.3-.3-.4-.8-.4-1.5v-3.2h-.9v-.8h.9v-1.4l1-.2zM88.5 483.9c0 .4-.3.6-.7.6-.4 0-.6-.3-.6-.6 0-.4.3-.7.7-.7.3.1.6.4.6.7zm-1.2 7.5v-5.8h1.1v5.8h-1.1zM95.4 488.4c0 2.1-1.5 3.1-2.9 3.1-1.6 0-2.8-1.2-2.8-3 0-1.9 1.3-3.1 2.9-3.1 1.6 0 2.8 1.2 2.8 3zm-4.6.1c0 1.3.7 2.2 1.8 2.2 1 0 1.8-.9 1.8-2.3 0-1-.5-2.2-1.7-2.2-1.4 0-1.9 1.2-1.9 2.3zM96.7 487.1v-1.6h.9l.1 1c.3-.6 1-1.1 1.9-1.1.8 0 2.1.5 2.1 2.5v3.5h-1.1V488c0-.9-.3-1.7-1.3-1.7-.7 0-1.2.5-1.4 1.1 0 .1-.1.3-.1.5v3.5h-1.1v-4.3zM103.2 490.3c.3.2.9.4 1.4.4.8 0 1.1-.4 1.1-.9s-.3-.8-1.1-1.1c-1-.4-1.5-.9-1.5-1.6 0-.9.8-1.7 2-1.7.6 0 1.1.2 1.4.4l-.3.8c-.2-.1-.6-.3-1.2-.3s-1 .4-1 .8c0 .5.3.7 1.1 1 1 .4 1.5.9 1.5 1.8 0 1-.8 1.7-2.2 1.7-.6 0-1.2-.2-1.6-.4l.4-.9zM109.2 483.1c-.3 1-.8 2.3-1.1 2.8l-.7.1c.3-.7.6-2 .7-2.8l1.1-.1zM111.9 483.4c.5-.1 1.2-.2 2-.2 1 0 1.8.2 2.3.7.4.4.7 1 .7 1.7s-.2 1.3-.6 1.7c-.6.6-1.5.9-2.5.9-.3 0-.6 0-.8-.1v3.2h-1v-7.9zm1.1 3.9c.2.1.5.1.9.1 1.3 0 2-.6 2-1.7s-.8-1.6-1.9-1.6c-.5 0-.8 0-1 .1v3.1zM121.2 491.4l-.1-.7c-.3.5-.9.9-1.8.9-1.2 0-1.8-.8-1.8-1.7 0-1.4 1.2-2.2 3.5-2.2v-.1c0-.5-.1-1.3-1.3-1.3-.5 0-1.1.2-1.5.4l-.2-.7c.5-.3 1.2-.5 1.9-.5 1.8 0 2.2 1.2 2.2 2.4v2.2c0 .5 0 1 .1 1.4h-1zm-.2-3c-1.2 0-2.5.2-2.5 1.3 0 .7.5 1 1 1 .8 0 1.2-.5 1.4-1 0-.1.1-.2.1-.3v-1zM123.8 487.1v-1.6h.9l.1 1c.3-.6 1-1.1 1.9-1.1.8 0 2.1.5 2.1 2.5v3.5h-1.1V488c0-.9-.3-1.7-1.3-1.7-.7 0-1.2.5-1.4 1.1 0 .1-.1.3-.1.5v3.5h-1.1v-4.3zM135.4 482.8v8.5h-.9v-1c-.3.6-1 1.1-2 1.1-1.4 0-2.5-1.2-2.5-3 0-1.9 1.2-3.1 2.6-3.1.9 0 1.5.4 1.8.9v-3.5h1zm-1 5.1v-.4c-.2-.7-.7-1.2-1.5-1.2-1.1 0-1.7 1-1.7 2.2 0 1.2.6 2.1 1.7 2.1.7 0 1.4-.5 1.5-1.3v-1.4zM137.8 488.6c0 1.4.9 2 2 2 .8 0 1.2-.1 1.6-.3l.2.8c-.4.2-1 .4-1.9.4-1.8 0-2.9-1.2-2.9-2.9s1-3.1 2.7-3.1c1.9 0 2.4 1.7 2.4 2.7v.5h-4.1zm3.1-.7c0-.7-.3-1.7-1.5-1.7-1.1 0-1.5 1-1.6 1.7h3.1zM143.2 487.1v-1.6h.9v.9c.3-.6.9-1.1 1.8-1.1.8 0 1.4.5 1.6 1.2.2-.3.4-.6.6-.8.3-.3.7-.4 1.3-.4.8 0 1.9.5 1.9 2.5v3.4h-1v-3.3c0-1.1-.4-1.8-1.3-1.8-.6 0-1.1.4-1.2 1 0 .1-.1.3-.1.5v3.6h-1v-3.5c0-.9-.4-1.6-1.2-1.6-.7 0-1.1.5-1.3 1.1-.1.2-.1.3-.1.5v3.5h-1v-4.1zM154.4 483.9c0 .4-.3.6-.7.6-.4 0-.6-.3-.6-.6 0-.4.3-.7.7-.7.3.1.6.4.6.7zm-1.2 7.5v-5.8h1.1v5.8h-1.1zM160.2 491.1c-.3.1-.9.3-1.7.3-1.8 0-2.9-1.2-2.9-3s1.2-3.1 3.1-3.1c.6 0 1.2.2 1.5.3l-.2.8c-.3-.1-.6-.3-1.2-.3-1.3 0-2.1 1-2.1 2.2 0 1.3.9 2.2 2 2.2.6 0 1-.2 1.3-.3l.2.9zM164 483.4c.5-.1 1.3-.2 2-.2 1.1 0 1.8.2 2.3.7.4.4.6.9.6 1.5 0 1.1-.7 1.8-1.5 2.1.6.2 1 .8 1.2 1.6.3 1.1.5 1.9.6 2.2h-1.1c-.1-.2-.3-.9-.5-1.9-.2-1.1-.7-1.5-1.6-1.6h-1v3.5h-1v-7.9zm1 3.7h1.1c1.1 0 1.8-.6 1.8-1.5 0-1-.8-1.5-1.9-1.5-.5 0-.9 0-1 .1v2.9zM171 488.6c0 1.4.9 2 2 2 .8 0 1.2-.1 1.6-.3l.2.8c-.4.2-1 .4-1.9.4-1.8 0-2.9-1.2-2.9-2.9s1-3.1 2.7-3.1c1.9 0 2.4 1.7 2.4 2.7v.5H171zm3.1-.7c0-.7-.3-1.7-1.5-1.7-1.1 0-1.5 1-1.6 1.7h3.1zM176.3 490.3c.3.2.9.4 1.4.4.8 0 1.1-.4 1.1-.9s-.3-.8-1.1-1.1c-1-.4-1.5-.9-1.5-1.6 0-.9.8-1.7 2-1.7.6 0 1.1.2 1.4.4l-.3.8c-.2-.1-.6-.3-1.2-.3s-1 .4-1 .8c0 .5.3.7 1.1 1 1 .4 1.5.9 1.5 1.8 0 1-.8 1.7-2.2 1.7-.6 0-1.2-.2-1.6-.4l.4-.9zM181.2 487.4v-1.9h.9v1c.4-.7 1.1-1.1 2.1-1.1 1.4 0 2.5 1.2 2.5 3 0 2.1-1.3 3.1-2.6 3.1-.8 0-1.4-.3-1.8-.9v3.2h-1v-6.4zm1.1 1.6v.4c.2.7.8 1.2 1.6 1.2 1.1 0 1.8-.9 1.8-2.2 0-1.2-.6-2.2-1.7-2.2-.7 0-1.4.5-1.6 1.3 0 .1-.1.3-.1.4v1.1zM193.3 488.4c0 2.1-1.5 3.1-2.9 3.1-1.6 0-2.8-1.2-2.8-3 0-1.9 1.3-3.1 2.9-3.1 1.7 0 2.8 1.2 2.8 3zm-4.6.1c0 1.3.7 2.2 1.8 2.2 1 0 1.8-.9 1.8-2.3 0-1-.5-2.2-1.7-2.2-1.4 0-1.9 1.2-1.9 2.3zM194.6 487.1v-1.6h.9l.1 1c.3-.6 1-1.1 1.9-1.1.8 0 2.1.5 2.1 2.5v3.5h-1.1V488c0-.9-.3-1.7-1.3-1.7-.7 0-1.2.5-1.4 1.1 0 .1-.1.3-.1.5v3.5h-1.1v-4.3zM201.1 490.3c.3.2.9.4 1.4.4.8 0 1.1-.4 1.1-.9s-.3-.8-1.1-1.1c-1-.4-1.5-.9-1.5-1.6 0-.9.8-1.7 2-1.7.6 0 1.1.2 1.4.4l-.3.8c-.2-.1-.6-.3-1.2-.3s-1 .4-1 .8c0 .5.3.7 1.1 1 1 .4 1.5.9 1.5 1.8 0 1-.8 1.7-2.2 1.7-.6 0-1.2-.2-1.6-.4l.4-.9zM206.6 488.6c0 1.4.9 2 2 2 .8 0 1.2-.1 1.6-.3l.2.8c-.4.2-1 .4-1.9.4-1.8 0-2.9-1.2-2.9-2.9s1-3.1 2.7-3.1c1.9 0 2.4 1.7 2.4 2.7v.5h-4.1zm3.1-.7c0-.7-.3-1.7-1.5-1.7-1.1 0-1.5 1-1.6 1.7h3.1zM211.8 486.5c0-.4.3-.8.7-.8s.7.3.7.8c0 .4-.3.7-.7.7-.4.1-.7-.3-.7-.7zm0 4.2c0-.4.3-.8.7-.8s.7.3.7.8c0 .4-.3.7-.7.7-.4.1-.7-.2-.7-.7zM217.1 483.4c.5-.1 1.3-.2 2-.2 1.1 0 1.8.2 2.3.7.4.4.6.9.6 1.5 0 1.1-.7 1.8-1.5 2.1.6.2 1 .8 1.2 1.6.3 1.1.5 1.9.6 2.2h-1.1c-.1-.2-.3-.9-.5-1.9-.2-1.1-.7-1.5-1.6-1.6h-1v3.5h-1v-7.9zm1.1 3.7h1.1c1.1 0 1.8-.6 1.8-1.5 0-1-.8-1.5-1.9-1.5-.5 0-.9 0-1 .1v2.9zM224.2 488.6c0 1.4.9 2 2 2 .8 0 1.2-.1 1.6-.3l.2.8c-.4.2-1 .4-1.9.4-1.8 0-2.9-1.2-2.9-2.9s1-3.1 2.7-3.1c1.9 0 2.4 1.7 2.4 2.7v.5h-4.1zm3.1-.7c0-.7-.3-1.7-1.5-1.7-1.1 0-1.5 1-1.6 1.7h3.1zM232.8 491.4l-.1-.7c-.3.5-.9.9-1.8.9-1.2 0-1.8-.8-1.8-1.7 0-1.4 1.2-2.2 3.5-2.2v-.1c0-.5-.1-1.3-1.3-1.3-.5 0-1.1.2-1.5.4l-.2-.7c.5-.3 1.2-.5 1.9-.5 1.8 0 2.2 1.2 2.2 2.4v2.2c0 .5 0 1 .1 1.4h-1zm-.2-3c-1.2 0-2.5.2-2.5 1.3 0 .7.5 1 1 1 .8 0 1.2-.5 1.4-1 0-.1.1-.2.1-.3v-1zM239.5 491.1c-.3.1-.9.3-1.7.3-1.8 0-2.9-1.2-2.9-3s1.2-3.1 3.1-3.1c.6 0 1.2.2 1.5.3l-.2.8c-.3-.1-.6-.3-1.2-.3-1.3 0-2.1 1-2.1 2.2 0 1.3.9 2.2 2 2.2.6 0 1-.2 1.3-.3l.2.9zM242.2 483.9v1.7h1.5v.8h-1.5v3.1c0 .7.2 1.1.8 1.1.3 0 .5 0 .6-.1v.8c-.2.1-.5.1-.9.1-.5 0-.9-.2-1.1-.4-.3-.3-.4-.8-.4-1.5v-3.2h-.9v-.8h.9v-1.4l1-.2zM250.6 491.4l-.1-.7c-.3.5-.9.9-1.8.9-1.2 0-1.8-.8-1.8-1.7 0-1.4 1.2-2.2 3.5-2.2v-.1c0-.5-.1-1.3-1.3-1.3-.5 0-1.1.2-1.5.4l-.2-.7c.5-.3 1.2-.5 1.9-.5 1.8 0 2.2 1.2 2.2 2.4v2.2c0 .5 0 1 .1 1.4h-1zm-.1-3c-1.2 0-2.5.2-2.5 1.3 0 .7.5 1 1 1 .8 0 1.2-.5 1.4-1 0-.1.1-.2.1-.3v-1zM253.2 487.1v-1.6h.9l.1 1c.3-.6 1-1.1 1.9-1.1.8 0 2.1.5 2.1 2.5v3.5h-1.1V488c0-.9-.3-1.7-1.3-1.7-.7 0-1.2.5-1.4 1.1 0 .1-.1.3-.1.5v3.5h-1.1v-4.3zM264.9 482.8v8.5h-.9v-1c-.3.6-1 1.1-2 1.1-1.4 0-2.5-1.2-2.5-3 0-1.9 1.2-3.1 2.6-3.1.9 0 1.5.4 1.8.9v-3.5h1zm-1.1 5.1v-.4c-.2-.7-.7-1.2-1.5-1.2-1.1 0-1.7 1-1.7 2.2 0 1.2.6 2.1 1.7 2.1.7 0 1.4-.5 1.5-1.3v-1.4zM269.2 483.4c.5-.1 1.3-.2 2-.2 1.1 0 1.8.2 2.3.7.4.4.6.9.6 1.5 0 1.1-.7 1.8-1.5 2.1.6.2 1 .8 1.2 1.6.3 1.1.5 1.9.6 2.2h-1.1c-.1-.2-.3-.9-.5-1.9-.2-1.1-.7-1.5-1.6-1.6h-1v3.5h-1v-7.9zm1.1 3.7h1.1c1.1 0 1.8-.6 1.8-1.5 0-1-.8-1.5-1.9-1.5-.5 0-.9 0-1 .1v2.9zM276.3 488.6c0 1.4.9 2 2 2 .8 0 1.2-.1 1.6-.3l.2.8c-.4.2-1 .4-1.9.4-1.8 0-2.9-1.2-2.9-2.9s1-3.1 2.7-3.1c1.9 0 2.4 1.7 2.4 2.7v.5h-4.1zm3.1-.7c0-.7-.3-1.7-1.5-1.7-1.1 0-1.5 1-1.6 1.7h3.1zM281.5 490.3c.3.2.9.4 1.4.4.8 0 1.1-.4 1.1-.9s-.3-.8-1.1-1.1c-1-.4-1.5-.9-1.5-1.6 0-.9.8-1.7 2-1.7.6 0 1.1.2 1.4.4l-.3.8c-.2-.1-.6-.3-1.2-.3s-1 .4-1 .8c0 .5.3.7 1.1 1 1 .4 1.5.9 1.5 1.8 0 1-.8 1.7-2.2 1.7-.6 0-1.2-.2-1.6-.4l.4-.9zM286.4 487.4v-1.9h.9v1c.4-.7 1.1-1.1 2.1-1.1 1.4 0 2.5 1.2 2.5 3 0 2.1-1.3 3.1-2.6 3.1-.8 0-1.4-.3-1.8-.9v3.2h-1v-6.4zm1.1 1.6v.4c.2.7.8 1.2 1.6 1.2 1.1 0 1.8-.9 1.8-2.2 0-1.2-.6-2.2-1.7-2.2-.7 0-1.4.5-1.6 1.3 0 .1-.1.3-.1.4v1.1zM298.5 488.4c0 2.1-1.5 3.1-2.9 3.1-1.6 0-2.8-1.2-2.8-3 0-1.9 1.3-3.1 2.9-3.1 1.7 0 2.8 1.2 2.8 3zm-4.6.1c0 1.3.7 2.2 1.8 2.2 1 0 1.8-.9 1.8-2.3 0-1-.5-2.2-1.7-2.2s-1.9 1.2-1.9 2.3zM299.9 487.1v-1.6h.9l.1 1c.3-.6 1-1.1 1.9-1.1.8 0 2.1.5 2.1 2.5v3.5h-1.1V488c0-.9-.3-1.7-1.3-1.7-.7 0-1.2.5-1.4 1.1 0 .1-.1.3-.1.5v3.5h-1.1v-4.3zM311.5 482.8v8.5h-.9v-1c-.3.6-1 1.1-2 1.1-1.4 0-2.5-1.2-2.5-3 0-1.9 1.2-3.1 2.6-3.1.9 0 1.5.4 1.8.9v-3.5h1zm-1 5.1v-.4c-.2-.7-.7-1.2-1.5-1.2-1.1 0-1.7 1-1.7 2.2 0 1.2.6 2.1 1.7 2.1.7 0 1.4-.5 1.5-1.3v-1.4zM312.5 492.8c.3-.7.6-2 .7-2.9l1.2-.1c-.3 1-.8 2.4-1.1 2.9l-.8.1zM315.6 483.1c-.3 1-.8 2.3-1.1 2.8l-.7.1c.3-.7.6-2 .7-2.8l1.1-.1zm1.8 0c-.3 1-.8 2.3-1.1 2.8l-.7.1c.3-.7.6-2 .7-2.8l1.1-.1zM321.4 488.8l-.8 2.5h-1.1l2.7-8.1h1.3l2.8 8.1h-1.1l-.9-2.5h-2.9zm2.7-.8-.8-2.3c-.2-.5-.3-1-.4-1.5-.1.5-.3 1-.4 1.5l-.8 2.3h2.4zM332.5 488.4c0 2.1-1.5 3.1-2.9 3.1-1.6 0-2.8-1.2-2.8-3 0-1.9 1.3-3.1 2.9-3.1 1.7 0 2.8 1.2 2.8 3zm-4.6.1c0 1.3.7 2.2 1.8 2.2 1 0 1.8-.9 1.8-2.3 0-1-.5-2.2-1.7-2.2s-1.9 1.2-1.9 2.3zM333.8 487.1v-1.6h.9l.1 1c.3-.6 1-1.1 1.9-1.1.8 0 2.1.5 2.1 2.5v3.5h-1.1V488c0-.9-.3-1.7-1.3-1.7-.7 0-1.2.5-1.4 1.1 0 .1-.1.3-.1.5v3.5h-1.1v-4.3z"/></g></switch></svg>