<svg version="1.1" id="Layer_1" xmlns="http://www.w3.org/2000/svg" x="0" y="0" viewBox="0 0 540 516.7" style="enable-background:new 0 0 540 516.7" xml:space="preserve"><style>.st2{fill:#c9c9c7}.st3{fill:#e11b22}.st4{fill:#010101}.st6{fill:#4d4f53}</style><switch><g><path style="fill:none;stroke:#e11b22;stroke-width:3;stroke-miterlimit:10" d="M2.5 3.1h535v510.3H2.5z"/><g style="opacity:.3"><path class="st2" d="M258.5 232.9c13.9 0 25.2-11.3 25.2-25.2s-11.3-25.2-25.2-25.2-25.2 11.3-25.2 25.2 11.3 25.2 25.2 25.2zm0-33.7c4.6 0 8.4 3.8 8.4 8.4s-3.8 8.4-8.4 8.4c-4.6 0-8.4-3.8-8.4-8.4s3.8-8.4 8.4-8.4zM359.5 283.3c-13.9 0-25.2 11.3-25.2 25.2 0 13.9 11.3 25.2 25.2 25.2s25.2-11.3 25.2-25.2c0-13.8-11.3-25.2-25.2-25.2zm0 33.7c-4.6 0-8.4-3.8-8.4-8.4 0-4.6 3.8-8.4 8.4-8.4s8.4 3.8 8.4 8.4c0 4.6-3.8 8.4-8.4 8.4z"/><path class="st2" d="M469.4 267.1V248c19.2-3.9 33.6-20.9 33.6-41.2 0-23.2-18.9-42.1-42.1-42.1-23.2 0-42.1 18.9-42.1 42.1 0 20.3 14.5 37.3 33.6 41.2v19.1c-19.2 3.9-33.6 20.9-33.6 41.2 0 8.6 2.6 16.5 7 23.2l-43.3 43.3c-6.7-4.4-14.6-7-23.2-7s-16.5 2.6-23.2 7l-43.2-43c4.4-6.6 7-14.6 7-23.2 0-8.5-2.6-16.5-7-23.1l55.5-55c3.3 1.6 7 2.5 10.9 2.5 13.9 0 25.2-11.3 25.2-25.2s-11.3-25.2-25.2-25.2-25.2 11.3-25.2 25.2c0 3.9.9 7.6 2.5 10.8l-55.5 55c-6.7-4.4-14.6-7-23.2-7-23.2 0-42.1 18.9-42.1 42.1 0 20.3 14.5 37.4 33.7 41.2l.5 36.1c-9.7 3.5-16.7 12.8-16.7 23.8 0 13.9 11.3 25.2 25.2 25.2 11 0 20.3-7 23.8-16.8h35.9c3.9 19.2 20.9 33.6 41.2 33.6 23.2 0 42.1-18.9 42.1-42.1 0-8.6-2.6-16.5-7-23.2l43.3-43.3c6.7 4.4 14.6 7 23.2 7 23.2 0 42.1-18.9 42.1-42.1-.1-20.1-14.6-37.1-33.7-41zm-33.7-60.3c0-13.9 11.3-25.2 25.2-25.2 13.9 0 25.2 11.3 25.2 25.2 0 13.9-11.3 25.2-25.2 25.2-13.9 0-25.2-11.3-25.2-25.2zM266.9 386l-.4-36.2c5.3-1.1 10.3-3.2 14.7-6.1l43.2 43c-2.9 4.4-5 9.4-6.1 14.7h-35.9c-2.6-7.2-8.3-12.9-15.5-15.4zm92.6-186.8c4.6 0 8.4 3.8 8.4 8.4s-3.8 8.4-8.4 8.4-8.4-3.8-8.4-8.4 3.7-8.4 8.4-8.4zM232.7 308.6c0-13.9 11.3-25.2 25.2-25.2s25.2 11.3 25.2 25.2c0 13.9-11.3 25.2-25.2 25.2s-25.2-11.3-25.2-25.2zm25.8 109.6c-4.6 0-8.4-3.8-8.4-8.4 0-4.6 3.8-8.4 8.4-8.4 4.6 0 8.4 3.8 8.4 8.4 0 4.6-3.7 8.4-8.4 8.4zm101 16.8c-13.9 0-25.2-11.3-25.2-25.2 0-13.9 11.3-25.2 25.2-25.2 13.9 0 25.2 11.3 25.2 25.2 0 13.9-11.3 25.2-25.2 25.2zM461 333.5c-13.9 0-25.2-11.3-25.2-25.2s11.3-25.2 25.2-25.2c13.9 0 25.2 11.3 25.2 25.2s-11.3 25.2-25.2 25.2z"/><path class="st2" d="M461 384c-13.9 0-25.2 11.3-25.2 25.2 0 13.9 11.3 25.2 25.2 25.2 13.9 0 25.2-11.3 25.2-25.2 0-13.9-11.3-25.2-25.2-25.2zm0 33.6c-4.6 0-8.4-3.8-8.4-8.4s3.8-8.4 8.4-8.4c4.6 0 8.4 3.8 8.4 8.4s-3.8 8.4-8.4 8.4z"/></g><g id="Glance_2_lines_00000121267318325173368410000017175020744543633798_"><g id="Glance_00000165221387865836608630000003900513861592340921_"><g id="Glance_00000078743417082405849620000005290102851325118620_"><g id="_Jobs_in_advanced_economies_are_increasingly_for_high-skill_workers._00000108998973713778487840000003677238423861534856_"><path class="st3" d="M32.9 77.5h6.2v19.6H41v3.5h-8.1v-3.5h1.9v-16h-1.9v-3.6zM43.4 89.2v-4.6c2.3-.5 4.8-.8 6.8-.8 4.2 0 6.5 1.1 6.5 5.5v7.8h1.9v3.5h-6.2V99h-.1c-1.5 1.5-3.3 2.1-5.3 1.9-2.8-.2-4.6-2.1-4.6-5 0-3.8 3.1-5.1 6.9-5.1h3.1v-1.2c0-1.7-1.1-2.2-3.2-2.2-.6 0-1.3 0-2.3.2v1.6h-3.5zm9 4.1H50c-2.1 0-3.3.5-3.3 2.2 0 1.5 1.2 2.1 2.6 2.1 1.4 0 2.6-.6 3.2-1v-3.3zM66.2 84.1h6.2v1.7h.1c1.1-1.2 2.9-2 4.7-2 4.6 0 6 3.9 6 8.6 0 4.7-1.6 8.6-6.3 8.6-1.7 0-3.3-.7-4.4-1.8h-.1v4.6h1.9v3.5h-8.1v-3.5h1.9v-16h-1.9v-3.7zm9.2 3.3c-1.4 0-2.4.6-3 1v8c.5.4 1.6 1.1 3 1.1 2.5 0 3.2-2.2 3.2-5 0-2.9-.7-5.1-3.2-5.1zM86.2 89.2v-4.6c2.3-.5 4.8-.8 6.8-.8 4.2 0 6.5 1.1 6.5 5.5v7.8h1.9v3.5h-6.2V99h-.1c-1.5 1.5-3.3 2.1-5.3 1.9-2.8-.2-4.6-2.1-4.6-5 0-3.8 3.1-5.1 6.9-5.1h3.1v-1.2c0-1.7-1.1-2.2-3.2-2.2-.6 0-1.3 0-2.3.2v1.6h-3.5zm9 4.1h-2.4c-2.1 0-3.3.5-3.3 2.2 0 1.5 1.2 2.1 2.6 2.1 1.4 0 2.6-.6 3.2-1v-3.3zM113.3 97.1h1.7v-6.8c0-1.9-.7-3-2.6-3-1.4 0-2.6.7-3.5 1.3v8.5h1.7v3.5h-7.8v-3.5h1.9v-9.4h-1.9v-3.6h6.2v2.1h.1c1.4-1.5 3.2-2.5 5.4-2.5 3.3 0 5 2.1 5 5.5V97h1.9v3.5h-7.9v-3.4zM131.2 77.5h6.2v19.6h1.9v3.5h-6.2V99h-.1c-1 1.2-2.8 2-4.6 2-4.6 0-6-3.9-6-8.6 0-4.7 1.7-8.6 6.3-8.6 1.7 0 3.4.7 4.4 1.8h.1V81h-1.9v-3.5zm-1.1 19.9c1.4 0 2.5-.6 3-1.1v-8c-.5-.4-1.6-1-3-1-2.5 0-3.2 2.2-3.2 5 0 2.9.7 5.1 3.2 5.1zM145.1 93.3c.1 2.5 1.6 4.1 4.7 4.1 1.4 0 3-.1 5.1-.7l.5 3.4c-2.2.6-4.1.8-6.3.8-6.3 0-8.6-3.4-8.6-8.6 0-5.2 2.2-8.6 8.5-8.6 7.1 0 7.5 4.9 6.8 9.5h-10.7zm0-2.7h6.5c.3-1.8-.1-3.5-2.8-3.5-2.4 0-3.5 1.4-3.7 3.5zm5.4-8.4h-2.3l1.8-4.6h3.6l-3.1 4.6zM168.2 97.1h1.7v-7c-.1-1.7-.9-2.8-2.6-2.8-1.3 0-2.4.7-3.2 1.3v8.5h1.7v3.5H158v-3.5h1.9v-9.4H158v-3.6h6.2v2.1h.1c1.1-1.2 2.4-2.1 4.1-2.3.5-.1 1-.1 1.5-.1 2 .1 3.3 1.1 4 2.7 1.7-1.9 3.6-2.7 5.7-2.7 3.3 0 5 2.1 5 5.5v7.8h1.9v3.5h-7.9v-3.5h1.6v-6.8c0-1.9-.9-3-2.6-3-1.3 0-2.4.7-3.2 1.3v8.5h1.7v3.5h-7.6v-3.5zM187.5 84.1h6.2v13h1.9v3.5h-8.1v-3.5h1.9v-9.4h-1.9v-3.6zm6.2-6.6v4.6h-4.3v-4.6h4.3zM201.4 93.3c.1 2.5 1.6 4.1 4.7 4.1 1.4 0 3-.1 5.1-.7l.5 3.4c-2.2.6-4.1.8-6.3.8-6.3 0-8.6-3.4-8.6-8.6 0-5.2 2.2-8.6 8.5-8.6 7.1 0 7.5 4.9 6.8 9.5h-10.7zm0-2.7h6.5c.3-1.8-.1-3.5-2.8-3.5-2.4 0-3.5 1.4-3.7 3.5zM221.8 89.2v-4.6c2.3-.5 4.8-.8 6.8-.8 4.2 0 6.5 1.1 6.5 5.5v7.8h1.9v3.5h-6.2V99h-.1c-1.5 1.5-3.3 2.1-5.3 1.9-2.8-.2-4.6-2.1-4.6-5 0-3.8 3.1-5.1 6.9-5.1h3.1v-1.2c0-1.7-1.1-2.2-3.2-2.2-.6 0-1.3 0-2.3.2v1.6h-3.5zm9 4.1h-2.4c-2.1 0-3.3.5-3.3 2.2 0 1.5 1.2 2.1 2.6 2.1 1.4 0 2.6-.6 3.2-1v-3.3zM255.9 89.2v-1.6c-.9-.2-1.6-.2-2.2-.2-2.6 0-4 1.7-4 5s1.4 5 4 5c1.2 0 2.3 0 5-.7l.8 3.4c-2 .5-3.7.8-5.8.8-6.4 0-8.5-3.4-8.5-8.6 0-5.2 2.1-8.6 8.5-8.6 2.1 0 3.8.3 5.8.8v4.6h-3.6zM260.9 84.1h6.2v2.6h.1c1.1-1.5 3.1-3 5.7-3v4.1c-2.2 0-4.5.6-5.8 1.3v8h2.1v3.5h-8.3v-3.5h1.9v-9.4h-1.9v-3.6zM278.6 93.3c.1 2.5 1.6 4.1 4.7 4.1 1.4 0 3-.1 5.1-.7l.5 3.4c-2.2.6-4.1.8-6.3.8-6.3 0-8.6-3.4-8.6-8.6 0-5.2 2.2-8.6 8.5-8.6 7.1 0 7.5 4.9 6.8 9.5h-10.7zm0-2.7h6.5c.3-1.8-.1-3.5-2.8-3.5-2.4 0-3.5 1.4-3.7 3.5zm5.4-8.4h-2.3l1.8-4.6h3.6l-3.1 4.6zM296.4 93.3c.1 2.5 1.6 4.1 4.7 4.1 1.4 0 3-.1 5.1-.7l.5 3.4c-2.2.6-4.1.8-6.3.8-6.3 0-8.6-3.4-8.6-8.6 0-5.2 2.2-8.6 8.5-8.6 7.1 0 7.5 4.9 6.8 9.5h-10.7zm0-2.7h6.5c.3-1.8-.1-3.5-2.8-3.5-2.4 0-3.5 1.4-3.7 3.5zm5.4-8.4h-2.3l1.8-4.6h3.6l-3.1 4.6zM315.4 77.5h6.2v19.6h1.9v3.5h-8.1v-3.5h1.9v-16h-1.9v-3.6zM329.2 93.3c.1 2.5 1.6 4.1 4.7 4.1 1.4 0 3-.1 5.1-.7l.5 3.4c-2.2.6-4.1.8-6.3.8-6.3 0-8.6-3.4-8.6-8.6 0-5.2 2.2-8.6 8.5-8.6 7.1 0 7.5 4.9 6.8 9.5h-10.7zm0-2.7h6.5c.3-1.8-.1-3.5-2.8-3.5-2.4 0-3.5 1.4-3.7 3.5zM348.2 77.5h6.2v8.3h.1c1.1-1.2 2.9-2 4.7-2 4.6 0 6 3.9 6 8.6 0 4.7-1.7 8.6-6.3 8.6-1.7 0-3.5-.7-4.6-1.8h-.1l-.8 1.5h-5.2v-3.5h1.9v-16h-1.9v-3.7zm9.1 9.9c-1.4 0-2.4.6-3 1v8c.5.4 1.6 1.1 3 1.1 2.5 0 3.2-2.2 3.2-5 .1-2.9-.6-5.1-3.2-5.1zM372.1 93.3c.1 2.5 1.6 4.1 4.7 4.1 1.4 0 3-.1 5.1-.7l.5 3.4c-2.2.6-4.1.8-6.3.8-6.3 0-8.6-3.4-8.6-8.6 0-5.2 2.2-8.6 8.5-8.6 7.1 0 7.5 4.9 6.8 9.5h-10.7zm0-2.7h6.5c.3-1.8-.1-3.5-2.8-3.5-2.4 0-3.5 1.4-3.7 3.5zM395.2 89.2v-1.7c-1.3-.2-2.4-.3-3.1-.3-2 0-2.5.8-2.5 1.4 0 .8.5 1.2 2.7 1.7 3.1.7 7 1.5 7 5.3 0 3.6-2.5 5.3-6.5 5.3-2.7 0-5.5-.3-7.5-.8v-4.6h3.6v1.7c1.4.3 2.7.3 3.5.3 2.1 0 2.7-1 2.7-1.6 0-.8-.9-1.2-2.8-1.6-3.7-.6-6.8-1.8-6.8-5.6 0-3.5 2.5-5 6.5-5 2.7 0 5 .3 6.9.8v4.6h-3.7zM401.2 92.4c0-5.2 2.2-8.6 8-8.6s8 3.4 8 8.6c0 5.2-2.2 8.6-8 8.6s-8-3.4-8-8.6zm4.6 0c0 3.1.8 5 3.5 5s3.5-2 3.5-5-.8-5-3.5-5-3.5 2-3.5 5zM418.8 84.1h6.2v13h1.9v3.5h-8.1v-3.5h1.9v-9.4h-1.9v-3.6zm6.2-6.6v4.6h-4.3v-4.6h4.3zM438.9 97.1h1.7v-6.8c0-1.9-.7-3-2.6-3-1.4 0-2.6.7-3.5 1.3v8.5h1.7v3.5h-7.8v-3.5h1.9v-9.4h-1.9v-3.6h6.2v2.1h.1c1.4-1.5 3.2-2.5 5.4-2.5 3.3 0 5 2.1 5 5.5V97h1.9v3.5h-7.9v-3.4zM42.3 120.5h6.2v19.6h1.9v3.5h-6.2V142h-.1c-1 1.2-2.8 2-4.6 2-4.6 0-6-3.9-6-8.6 0-4.7 1.7-8.6 6.3-8.6 1.7 0 3.4.7 4.4 1.8h.1V124h-1.9v-3.5zm-1.1 19.9c1.4 0 2.5-.6 3-1.1v-8c-.5-.4-1.6-1-3-1-2.5 0-3.2 2.2-3.2 5 0 2.9.7 5.1 3.2 5.1zM53.5 130.3l.8-4.3h-1.7v-4.8h4.3v4.8l-2 4.3h-1.4zM60.6 132.2v-4.6c2.3-.5 4.8-.8 6.8-.8 4.2 0 6.5 1.1 6.5 5.5v7.8h1.9v3.5h-6.2V142h-.1c-1.5 1.5-3.3 2.1-5.3 1.9-2.8-.2-4.6-2.1-4.6-5 0-3.8 3.1-5.1 6.9-5.1h3.1v-1.2c0-1.7-1.1-2.2-3.2-2.2-.6 0-1.3 0-2.3.2v1.6h-3.5zm9 4.1h-2.4c-2.1 0-3.3.5-3.3 2.2 0 1.5 1.2 2.1 2.6 2.1 1.4 0 2.6-.6 3.2-1v-3.3zM85.9 120.5H92v19.6h1.9v3.5h-6.2V142h-.1c-1 1.2-2.8 2-4.6 2-4.6 0-6-3.9-6-8.6 0-4.7 1.7-8.6 6.3-8.6 1.7 0 3.4.7 4.4 1.8h.1V124h-1.9v-3.5zm-1.1 19.9c1.4 0 2.5-.6 3-1.1v-8c-.5-.4-1.6-1-3-1-2.5 0-3.2 2.2-3.2 5 0 2.9.7 5.1 3.2 5.1zM95.2 135.4c0-5.2 2.2-8.6 8-8.6s8 3.4 8 8.6c0 5.2-2.2 8.6-8 8.6s-8-3.4-8-8.6zm4.5 0c0 3.1.8 5 3.5 5s3.5-2 3.5-5-.8-5-3.5-5-3.5 2-3.5 5zM112.8 127.1h6.2v1.7h.1c1.1-1.2 2.9-2 4.7-2 4.6 0 6 3.9 6 8.6 0 4.7-1.7 8.6-6.3 8.6-1.7 0-3.3-.7-4.4-1.8h-.1v4.6h1.9v3.5h-8.1v-3.5h1.9v-16h-1.9v-3.7zm9.1 3.3c-1.4 0-2.4.6-3 1v8c.5.4 1.6 1.1 3 1.1 2.5 0 3.2-2.2 3.2-5 0-2.9-.7-5.1-3.2-5.1zM133.1 130.2h-2.2v-2.8l2.2-.3.5-4.6h3.8v4.6h4.1v3.1h-4.1v8c0 1.6.7 2.4 2.4 2.4.4 0 .9 0 1.5-.2l.4 3.3c-.9.2-2.5.3-3.4.3-3.8 0-5.2-1.6-5.2-5v-8.8zM147.6 136.3c.1 2.5 1.6 4.1 4.7 4.1 1.4 0 3-.1 5.1-.7l.5 3.4c-2.2.6-4.1.8-6.3.8-6.3 0-8.6-3.4-8.6-8.6 0-5.2 2.2-8.6 8.5-8.6 7.1 0 7.5 4.9 6.8 9.5h-10.7zm0-2.7h6.5c.3-1.8-.1-3.5-2.8-3.5-2.4 0-3.5 1.4-3.7 3.5zM160.3 127.1h6.2v2.6h.1c1.1-1.5 3.1-3 5.7-3v4.1c-2.2 0-4.5.6-5.8 1.3v8h2.1v3.5h-8.3v-3.5h1.9v-9.4h-1.9v-3.6zM180.1 127.1h6.2v10.3c0 1.9.9 3 2.6 3 1.4 0 2.6-.8 3.5-1.3v-8.4h-2.1v-3.6h6.4v13h1.9v3.5h-6.2v-2.1h-.1c-1.4 1.5-3.2 2.5-5.4 2.5-3.3 0-5-2.1-5-5.5v-7.8H180v-3.6zM210.5 140.1h1.7v-6.8c0-1.9-.7-3-2.6-3-1.4 0-2.6.7-3.5 1.3v8.5h1.6v3.5h-7.8v-3.5h1.9v-9.4h-1.9v-3.6h6.2v2.1h.1c1.4-1.5 3.2-2.5 5.4-2.5 3.3 0 5 2.1 5 5.5v7.8h1.9v3.5h-7.9v-3.4zM224.1 136.3c.1 2.5 1.6 4.1 4.7 4.1 1.4 0 3-.1 5.1-.7l.5 3.4c-2.2.6-4.1.8-6.3.8-6.3 0-8.6-3.4-8.6-8.6 0-5.2 2.2-8.6 8.5-8.6 7.1 0 7.5 4.9 6.8 9.5h-10.7zm0-2.7h6.5c.3-1.8-.1-3.5-2.8-3.5-2.4 0-3.5 1.4-3.7 3.5zM244.6 132.2v-4.6c2.3-.5 4.8-.8 6.8-.8 4.2 0 6.5 1.1 6.5 5.5v7.8h1.9v3.5h-6.2V142h-.1c-1.5 1.5-3.3 2.1-5.3 1.9-2.8-.2-4.6-2.1-4.6-5 0-3.8 3.1-5.1 6.9-5.1h3.1v-1.2c0-1.7-1.1-2.2-3.2-2.2-.6 0-1.3 0-2.3.2v1.6h-3.5zm9 4.1h-2.4c-2.1 0-3.3.5-3.3 2.2 0 1.5 1.2 2.1 2.6 2.1 1.4 0 2.6-.6 3.2-1v-3.3zM261.1 127.1h6.2v1.7h.1c1.1-1.2 2.9-2 4.7-2 4.6 0 6 3.9 6 8.6 0 4.7-1.7 8.6-6.3 8.6-1.6 0-3.3-.7-4.4-1.8h-.1v4.6h1.9v3.5h-8.1v-3.5h1.9v-16h-1.9v-3.7zm9.1 3.3c-1.4 0-2.4.6-3 1v8c.5.4 1.6 1.1 3 1.1 2.5 0 3.2-2.2 3.2-5 .1-2.9-.6-5.1-3.2-5.1zM279.6 127.1h6.2v1.7h.1c1.1-1.2 2.9-2 4.7-2 4.6 0 6 3.9 6 8.6 0 4.7-1.7 8.6-6.3 8.6-1.7 0-3.3-.7-4.4-1.8h-.1v4.6h1.9v3.5h-8.1v-3.5h1.9v-16h-1.9v-3.7zm9.1 3.3c-1.4 0-2.4.6-3 1v8c.5.4 1.6 1.1 3 1.1 2.5 0 3.2-2.2 3.2-5 0-2.9-.7-5.1-3.2-5.1zM298 127.1h6.2v2.6h.1c1.1-1.5 3.1-3 5.7-3v4.1c-2.2 0-4.5.6-5.8 1.3v8h2.1v3.5H298v-3.5h1.9v-9.4H298v-3.6zM311.1 135.4c0-5.2 2.2-8.6 8-8.6s8 3.4 8 8.6c0 5.2-2.2 8.6-8 8.6s-8-3.4-8-8.6zm4.6 0c0 3.1.8 5 3.5 5s3.5-2 3.5-5-.8-5-3.5-5-3.5 2-3.5 5zM340.4 132.2v-1.6c-.9-.2-1.6-.2-2.2-.2-2.6 0-4 1.7-4 5s1.4 5 4 5c1.2 0 2.3 0 5-.7l.8 3.4c-2 .5-3.7.8-5.8.8-6.4 0-8.5-3.4-8.5-8.6 0-5.2 2.1-8.6 8.5-8.6 2.1 0 3.8.3 5.8.8v4.6h-3.6zM356 140.1h1.7v-6.8c0-1.9-.7-3-2.6-3-1.4 0-2.6.7-3.5 1.3v8.5h1.7v3.5h-7.8v-3.5h1.9v-16h-1.9v-3.6h6.2v8.7h.1c1.4-1.5 3.2-2.5 5.4-2.5 3.3 0 5 2.1 5 5.5v7.8h1.9v3.5H356v-3.4zM369.7 136.3c.1 2.5 1.6 4.1 4.7 4.1 1.4 0 3-.1 5.1-.7l.5 3.4c-2.2.6-4.1.8-6.3.8-6.3 0-8.6-3.4-8.6-8.6 0-5.2 2.2-8.6 8.5-8.6 7.1 0 7.5 4.9 6.8 9.5h-10.7zm0-2.7h6.5c.3-1.8-.1-3.5-2.8-3.5-2.4 0-3.5 1.4-3.7 3.5zM390.1 132.2v-4.6c2.3-.5 4.8-.8 6.8-.8 4.2 0 6.5 1.1 6.5 5.5v7.8h1.9v3.5h-6.2V142h-.1c-1.5 1.5-3.3 2.1-5.3 1.9-2.8-.2-4.6-2.1-4.6-5 0-3.8 3.1-5.1 6.9-5.1h3.1v-1.2c0-1.7-1.1-2.2-3.2-2.2-.6 0-1.3 0-2.3.2v1.6h-3.5zm3-11.7h3.6l1.8 4.6h-2.3l-3.1-4.6zm6 15.8h-2.4c-2.1 0-3.3.5-3.3 2.2 0 1.5 1.2 2.1 2.6 2.1 1.4 0 2.6-.6 3.2-1v-3.3zM32.9 163.5h6.2v19.6H41v3.5h-8.1v-3.5h1.9v-16h-1.9v-3.6zM44.1 173.3l.8-4.3h-1.7v-4.8h4.3v4.8l-2 4.3h-1.4zM54.8 179.3c.1 2.5 1.6 4.1 4.7 4.1 1.4 0 3-.1 5.1-.7l.5 3.4c-2.2.6-4.1.8-6.3.8-6.3 0-8.6-3.4-8.6-8.6 0-5.2 2.2-8.6 8.5-8.6 7.1 0 7.5 4.9 6.8 9.5H54.8zm0-2.7h6.5c.3-1.8-.1-3.5-2.8-3.5-2.3 0-3.5 1.4-3.7 3.5zm5.5-8.4H58l1.8-4.6h3.6l-3.1 4.6zM78.8 175.2v-1.6c-.9-.2-1.6-.2-2.2-.2-2.6 0-4 1.7-4 5s1.4 5 4 5c1.2 0 2.3 0 5-.7l.8 3.4c-2 .5-3.7.8-5.8.8-6.4 0-8.5-3.4-8.5-8.6 0-5.2 2.1-8.6 8.5-8.6 2.1 0 3.8.3 5.8.8v4.6h-3.6zM94.5 183.1h1.6v-6.8c0-1.9-.7-3-2.6-3-1.4 0-2.6.7-3.5 1.3v8.5h1.7v3.5h-7.8v-3.5h1.9v-16h-1.9v-3.6H90v8.7h.1c1.4-1.5 3.2-2.5 5.4-2.5 3.3 0 5 2.1 5 5.5v7.8h1.9v3.5h-7.9v-3.4zM108.1 179.3c.1 2.5 1.6 4.1 4.7 4.1 1.4 0 3-.1 5.1-.7l.5 3.4c-2.2.6-4.1.8-6.3.8-6.3 0-8.6-3.4-8.6-8.6 0-5.2 2.2-8.6 8.5-8.6 7.1 0 7.5 4.9 6.8 9.5h-10.7zm0-2.7h6.5c.3-1.8-.1-3.5-2.8-3.5-2.3 0-3.5 1.4-3.7 3.5zM120.5 163.5h6.2v19.6h1.9v3.5h-8.1v-3.5h1.9v-16h-1.9v-3.6zM129.9 163.5h6.2v19.6h1.9v3.5h-8.1v-3.5h1.9v-16h-1.9v-3.6zM143.8 179.3c.1 2.5 1.6 4.1 4.7 4.1 1.4 0 3-.1 5.1-.7l.5 3.4c-2.2.6-4.1.8-6.3.8-6.3 0-8.6-3.4-8.6-8.6 0-5.2 2.2-8.6 8.5-8.6 7.1 0 7.5 4.9 6.8 9.5h-10.7zm0-2.7h6.5c.3-1.8-.1-3.5-2.8-3.5-2.4 0-3.5 1.4-3.7 3.5zM172.2 163.5h6.2v19.6h1.9v3.5H174V185c-1 1.2-2.8 2-4.6 2-4.6 0-6-3.9-6-8.6 0-4.7 1.7-8.6 6.3-8.6 1.7 0 3.4.7 4.4 1.8h.1V167h-1.9v-3.5zm-1.1 19.9c1.4 0 2.5-.6 3-1.1v-8c-.5-.4-1.6-1-3-1-2.5 0-3.2 2.2-3.2 5 0 2.9.7 5.1 3.2 5.1zM186 179.3c.1 2.5 1.6 4.1 4.7 4.1 1.4 0 3-.1 5.1-.7l.5 3.4c-2.2.6-4.1.8-6.3.8-6.3 0-8.6-3.4-8.6-8.6 0-5.2 2.2-8.6 8.5-8.6 7.1 0 7.5 4.9 6.8 9.5H186zm0-2.7h6.5c.3-1.8-.1-3.5-2.8-3.5-2.4 0-3.5 1.4-3.7 3.5zM205 163.5h6.2v19.6h1.9v3.5H205v-3.5h1.9v-16H205v-3.6zM216.2 173.3l.8-4.3h-1.7v-4.8h4.3v4.8l-2 4.3h-1.4zM222.4 178.4c0-5.2 2.2-8.6 8-8.6s8 3.4 8 8.6c0 5.2-2.2 8.6-8 8.6s-8-3.4-8-8.6zm4.5 0c0 3.1.8 5 3.5 5s3.5-2 3.5-5-.8-5-3.5-5-3.5 2-3.5 5zM240 170.1h6.2v2.6h.1c1.1-1.5 3.1-3 5.7-3v4.1c-2.2 0-4.5.6-5.8 1.3v8h2.1v3.5H240v-3.5h1.9v-9.4H240v-3.6zM256.2 185.9c-2.1-1.3-1.7-4.2 1.2-5.7v-.2c-1.7-.8-2.7-2.5-2.7-4.6 0-3.8 2.7-5.6 7-5.6.9 0 1.7.1 2.4.3h6.1v2.6h-2.6c.8.7 1 1.6 1 2.7 0 3.8-2.9 5.5-6.8 5.5-.6 0-1.4-.1-2.1-.3-.8 1.1-.9 2.2.4 2.3l5.4.3c3.4.1 5.2 1.7 5.2 4.4 0 4.1-3.1 6-9.9 6-4.9 0-7.1-1.4-7.1-4.3 0-1.4.7-2.5 2.5-3.4zm5.2 4.7c2.4 0 4.6-.6 4.6-2.3 0-.8-.6-1.4-2-1.5l-5.6-.3c-.6.6-1.1 1-1.1 2 0 1.8 1.9 2.1 4.1 2.1zm3.1-15.2c0-1.8-1.2-2.7-2.8-2.7-1.7 0-2.8.8-2.8 2.7 0 1.8 1.2 2.6 2.8 2.6 1.7 0 2.8-.7 2.8-2.6zM272.8 175.2v-4.6c2.3-.5 4.8-.8 6.8-.8 4.2 0 6.5 1.1 6.5 5.5v7.8h1.9v3.5h-6.2V185h-.1c-1.5 1.5-3.3 2.1-5.3 1.9-2.8-.2-4.6-2.1-4.6-5 0-3.8 3.1-5.1 6.9-5.1h3.1v-1.2c0-1.7-1.1-2.2-3.2-2.2-.6 0-1.3 0-2.3.2v1.6h-3.5zm9 4.1h-2.4c-2.1 0-3.3.5-3.3 2.2 0 1.5 1.2 2.1 2.6 2.1 1.4 0 2.6-.6 3.2-1v-3.3zM299.9 183.1h1.7v-6.8c0-1.9-.7-3-2.6-3-1.4 0-2.6.7-3.5 1.3v8.5h1.7v3.5h-7.8v-3.5h1.9v-9.4h-1.9v-3.6h6.2v2.1h.1c1.4-1.5 3.2-2.5 5.4-2.5 3.3 0 5 2.1 5 5.5v7.8h1.9v3.5h-7.9v-3.4zM309.1 170.1h6.2v13h1.9v3.5h-8.1v-3.5h1.9v-9.4h-1.9v-3.6zm6.2-6.6v4.6H311v-4.6h4.3zM328.9 175.2v-1.7c-1.3-.2-2.4-.3-3.1-.3-2 0-2.5.8-2.5 1.4 0 .8.5 1.2 2.7 1.7 3.1.7 7 1.5 7 5.3 0 3.6-2.5 5.3-6.5 5.3-2.7 0-5.5-.3-7.5-.8v-4.6h3.6v1.7c1.4.3 2.7.3 3.5.3 2.1 0 2.7-1 2.7-1.6 0-.8-.9-1.2-2.8-1.6-3.7-.6-6.8-1.8-6.8-5.6 0-3.5 2.5-5 6.5-5 2.7 0 5 .3 6.9.8v4.6h-3.7zM336.1 175.2v-4.6c2.3-.5 4.8-.8 6.8-.8 4.2 0 6.5 1.1 6.5 5.5v7.8h1.9v3.5h-6.2V185h-.1c-1.5 1.5-3.3 2.1-5.3 1.9-2.8-.2-4.6-2.1-4.6-5 0-3.8 3.1-5.1 6.9-5.1h3.1v-1.2c0-1.7-1.1-2.2-3.2-2.2-.6 0-1.3 0-2.3.2v1.6h-3.5zm9 4.1h-2.4c-2.1 0-3.3.5-3.3 2.2 0 1.5 1.2 2.1 2.6 2.1 1.4 0 2.6-.6 3.2-1v-3.3zM353.5 173.2h-2.2v-2.8l2.2-.3.5-4.6h3.8v4.6h4.1v3.1h-4.1v8c0 1.6.7 2.4 2.4 2.4.4 0 .9 0 1.5-.2l.4 3.3c-.9.2-2.5.3-3.4.3-3.8 0-5.2-1.6-5.2-5v-8.8zM364 170.1h6.2v13h1.9v3.5H364v-3.5h1.9v-9.4H364v-3.6zm6.2-6.6v4.6h-4.3v-4.6h4.3zM373.3 178.4c0-5.2 2.2-8.6 8-8.6s8 3.4 8 8.6c0 5.2-2.2 8.6-8 8.6s-8-3.4-8-8.6zm4.6 0c0 3.1.8 5 3.5 5s3.5-2 3.5-5-.8-5-3.5-5-3.5 2-3.5 5zM401.6 183.1h1.6v-6.8c0-1.9-.7-3-2.6-3-1.4 0-2.6.7-3.5 1.3v8.5h1.7v3.5H391v-3.5h1.9v-9.4H391v-3.6h6.2v2.1h.1c1.4-1.5 3.2-2.5 5.4-2.5 3.3 0 5 2.1 5 5.5v7.8h1.9v3.5h-7.9v-3.4zM422.1 179.3c.1 2.5 1.6 4.1 4.7 4.1 1.4 0 3-.1 5.1-.7l.5 3.4c-2.2.6-4.1.8-6.3.8-6.3 0-8.6-3.4-8.6-8.6 0-5.2 2.2-8.6 8.5-8.6 7.1 0 7.5 4.9 6.8 9.5h-10.7zm0-2.7h6.5c.3-1.8-.1-3.5-2.8-3.5-2.4 0-3.5 1.4-3.7 3.5zM445.5 183.1h1.6v-6.8c0-1.9-.7-3-2.6-3-1.4 0-2.6.7-3.5 1.3v8.5h1.7v3.5h-7.8v-3.5h1.9v-9.4h-1.9v-3.6h6.2v2.1h.1c1.4-1.5 3.2-2.5 5.4-2.5 3.3 0 5 2.1 5 5.5v7.8h1.9v3.5h-7.9v-3.4zM43.3 226.1H45v-7c-.1-1.7-.9-2.8-2.6-2.8-1.3 0-2.4.7-3.2 1.3v8.5h1.7v3.5h-7.8v-3.5H35v-9.4h-1.9v-3.6h6.2v2.1h.1c1.1-1.2 2.4-2.1 4.1-2.3.5-.1 1-.1 1.5-.1 2 .1 3.3 1.1 4 2.7 1.7-1.9 3.6-2.7 5.7-2.7 3.3 0 5 2.1 5 5.5v7.8h1.9v3.5h-7.9v-3.5h1.7v-6.8c0-1.9-.9-3-2.6-3-1.3 0-2.4.7-3.2 1.3v8.5h1.6v3.5h-7.6v-3.5zM63.7 218.2v-4.6c2.3-.5 4.8-.8 6.8-.8 4.2 0 6.5 1.1 6.5 5.5v7.8h1.9v3.5h-6.2V228h-.1c-1.5 1.5-3.3 2.1-5.3 1.9-2.8-.2-4.6-2.1-4.6-5 0-3.8 3.1-5.1 6.9-5.1h3.1v-1.2c0-1.7-1.1-2.2-3.2-2.2-.6 0-1.3 0-2.3.2v1.6h-3.5zm9 4.1h-2.4c-2.1 0-3.3.5-3.3 2.2 0 1.5 1.2 2.1 2.6 2.1 1.4 0 2.6-.6 3.2-1v-3.3zM81.1 216.2h-2.2v-2.8l2.2-.3.5-4.6h3.8v4.6h4.1v3.1h-4.1v8c0 1.6.7 2.4 2.4 2.4.4 0 .9 0 1.5-.2l.4 3.3c-.9.2-2.5.3-3.4.3-3.8 0-5.2-1.6-5.2-5v-8.8zM91.6 213.1h6.2v13h1.9v3.5h-8.1v-3.5h1.9v-9.4h-1.9v-3.6zm6.2-6.6v4.6h-4.3v-4.6h4.3zM105.5 222.3c.1 2.5 1.6 4.1 4.7 4.1 1.4 0 3-.1 5.1-.7l.5 3.4c-2.2.6-4.1.8-6.3.8-6.3 0-8.6-3.4-8.6-8.6 0-5.2 2.2-8.6 8.5-8.6 7.1 0 7.5 4.9 6.8 9.5h-10.7zm-.3-15.8h3.6l1.8 4.6h-2.3l-3.1-4.6zm.3 13.1h6.5c.3-1.8-.1-3.5-2.8-3.5-2.4 0-3.5 1.4-3.7 3.5zM118.2 213.1h6.2v2.6h.1c1.1-1.5 3.1-3 5.7-3v4.1c-2.2 0-4.5.6-5.8 1.3v8h2.1v3.5h-8.3v-3.5h1.9v-9.4h-1.9v-3.6zM135.9 222.3c.1 2.5 1.6 4.1 4.7 4.1 1.4 0 3-.1 5.1-.7l.5 3.4c-2.2.6-4.1.8-6.3.8-6.3 0-8.6-3.4-8.6-8.6 0-5.2 2.2-8.6 8.5-8.6 7.1 0 7.5 4.9 6.8 9.5h-10.7zm0-2.7h6.5c.3-1.8-.1-3.5-2.8-3.5-2.4 0-3.6 1.4-3.7 3.5zM164.2 206.5h6.2v19.6h1.9v3.5h-6.2V228h-.1c-1 1.2-2.8 2-4.6 2-4.6 0-6-3.9-6-8.6 0-4.7 1.7-8.6 6.3-8.6 1.7 0 3.4.7 4.4 1.8h.1V210h-1.9v-3.5zm-1.1 19.9c1.4 0 2.5-.6 3-1.1v-8c-.5-.4-1.6-1-3-1-2.5 0-3.2 2.2-3.2 5 0 2.9.7 5.1 3.2 5.1zM178.1 222.3c.1 2.5 1.6 4.1 4.7 4.1 1.4 0 3-.1 5.1-.7l.5 3.4c-2.2.6-4.1.8-6.3.8-6.3 0-8.6-3.4-8.6-8.6 0-5.2 2.2-8.6 8.5-8.6 7.1 0 7.5 4.9 6.8 9.5h-10.7zm0-2.7h6.5c.3-1.8-.1-3.5-2.8-3.5-2.4 0-3.5 1.4-3.7 3.5zM197.1 213.1h6.2v2.6h.1c1.1-1.5 3.1-3 5.7-3v4.1c-2.2 0-4.5.6-5.8 1.3v8h2.1v3.5h-8.3v-3.5h1.9v-9.4h-1.9v-3.6zM210.6 213.1h6.2v13h1.9v3.5h-8.1v-3.5h1.9v-9.4h-1.9v-3.6zm6.2-6.6v4.6h-4.3v-4.6h4.3zM230.4 218.2v-1.7c-1.3-.2-2.4-.3-3.1-.3-2 0-2.5.8-2.5 1.4 0 .8.5 1.2 2.7 1.7 3.1.7 7 1.5 7 5.3 0 3.6-2.5 5.3-6.5 5.3-2.7 0-5.5-.3-7.5-.8v-4.6h3.6v1.7c1.4.3 2.7.3 3.5.3 2.1 0 2.7-1 2.7-1.6 0-.8-.9-1.2-2.8-1.6-3.7-.6-6.8-1.8-6.8-5.6 0-3.5 2.5-5 6.5-5 2.7 0 5 .3 6.9.8v4.6h-3.7zM245.2 232.7h1.9V228h-.1c-1 1.2-2.8 2-4.6 2-4.6 0-6-3.9-6-8.6 0-4.7 1.7-8.6 6.3-8.6 1.7 0 3.5.7 4.7 1.8h.1l.8-1.7h3.3v19.7h1.9v3.5h-8.1v-3.4zm-1-6.3c1.4 0 2.5-.6 3-1.1v-8c-.5-.4-1.6-1-3-1-2.5 0-3.2 2.2-3.2 5 0 2.9.6 5.1 3.2 5.1zM253.7 213.1h6.2v10.3c0 1.9.9 3 2.6 3 1.4 0 2.6-.8 3.5-1.3v-8.4h-2.1v-3.6h6.4v13h1.9v3.5H266v-2.1h-.1c-1.4 1.5-3.2 2.5-5.4 2.5-3.3 0-5-2.1-5-5.5v-7.8h-1.9v-3.6zM277.9 222.3c.1 2.5 1.6 4.1 4.7 4.1 1.4 0 3-.1 5.1-.7l.5 3.4c-2.2.6-4.1.8-6.3.8-6.3 0-8.6-3.4-8.6-8.6 0-5.2 2.2-8.6 8.5-8.6 7.1 0 7.5 4.9 6.8 9.5h-10.7zm0-2.7h6.5c.3-1.8-.1-3.5-2.8-3.5-2.4 0-3.5 1.4-3.7 3.5zM298.3 218.2v-4.6c2.3-.5 4.8-.8 6.8-.8 4.2 0 6.5 1.1 6.5 5.5v7.8h1.9v3.5h-6.2V228h-.1c-1.5 1.5-3.3 2.1-5.3 1.9-2.8-.2-4.6-2.1-4.6-5 0-3.8 3.1-5.1 6.9-5.1h3.1v-1.2c0-1.7-1.1-2.2-3.2-2.2-.6 0-1.3 0-2.3.2v1.6h-3.5zm9.1 4.1H305c-2.1 0-3.3.5-3.3 2.2 0 1.5 1.2 2.1 2.6 2.1 1.4 0 2.6-.6 3.2-1v-3.3zM333.2 226.1v3.5h-7.9v-3.5h1.6v-9.9h-5.6v9.9h1.8v3.5h-8v-3.5h1.9v-9.9h-2.2v-2.8l2.2-.3v-.8c0-3.5 1.6-5.8 6.9-5.8 1.6 0 4.9.5 6.3 1l-.4 3.1c-1.3-.4-3.7-.7-5.4-.7-2.6 0-3.1 1.1-3.1 2.4v.8h9.9v13h2zM345.1 226.1h1.7v-6.8c0-1.9-.7-3-2.6-3-1.4 0-2.6.7-3.5 1.3v8.5h1.7v3.5h-7.8v-3.5h1.9v-9.4h-1.9v-3.6h6.2v2.1h.1c1.4-1.5 3.2-2.5 5.4-2.5 3.3 0 5 2.1 5 5.5v7.8h1.9v3.5h-7.9v-3.4zM370 206.5h6.2v19.6h1.9v3.5h-6.2V228h-.1c-1 1.2-2.8 2-4.6 2-4.6 0-6-3.9-6-8.6 0-4.7 1.7-8.6 6.3-8.6 1.7 0 3.4.7 4.4 1.8h.1V210h-2v-3.5zm-1.1 19.9c1.4 0 2.5-.6 3-1.1v-8c-.5-.4-1.6-1-3-1-2.5 0-3.2 2.2-3.2 5 0 2.9.7 5.1 3.2 5.1zM383.8 222.3c.1 2.5 1.6 4.1 4.7 4.1 1.4 0 3-.1 5.1-.7l.5 3.4c-2.2.6-4.1.8-6.3.8-6.3 0-8.6-3.4-8.6-8.6 0-5.2 2.2-8.6 8.5-8.6 7.1 0 7.5 4.9 6.8 9.5h-10.7zm0-2.7h6.5c.3-1.8-.1-3.5-2.8-3.5-2.4 0-3.5 1.4-3.7 3.5zM32.9 256.1h6.2v2.6h.1c1.1-1.5 3.1-3 5.7-3v4.1c-2.2 0-4.5.6-5.8 1.3v8h2.1v3.5h-8.3v-3.5h1.9v-9.4h-1.9v-3.6zM50.5 265.3c.1 2.5 1.6 4.1 4.7 4.1 1.4 0 3-.1 5.1-.7l.5 3.4c-2.2.6-4.1.8-6.3.8-6.3 0-8.6-3.4-8.6-8.6 0-5.2 2.2-8.6 8.5-8.6 7.1 0 7.5 4.9 6.8 9.5H50.5zm0-2.7H57c.3-1.8-.1-3.5-2.8-3.5-2.3 0-3.5 1.4-3.7 3.5zm5.5-8.4h-2.3l1.8-4.6h3.6l-3.1 4.6zM73.6 261.2v-1.7c-1.3-.2-2.4-.3-3.1-.3-2 0-2.5.8-2.5 1.4 0 .8.5 1.2 2.7 1.7 3.1.7 7 1.5 7 5.3 0 3.6-2.5 5.3-6.5 5.3-2.7 0-5.5-.3-7.5-.8v-4.6h3.6v1.7c1.4.3 2.7.3 3.5.3 2.1 0 2.7-1 2.7-1.6 0-.8-.9-1.2-2.8-1.6-3.7-.6-6.8-1.8-6.8-5.6 0-3.5 2.5-5 6.5-5 2.7 0 5 .3 6.9.8v4.6h-3.7zM79.7 264.4c0-5.2 2.2-8.6 8-8.6s8 3.4 8 8.6c0 5.2-2.2 8.6-8 8.6s-8-3.4-8-8.6zm4.5 0c0 3.1.8 5 3.5 5s3.5-2 3.5-5-.8-5-3.5-5-3.5 2-3.5 5zM96.9 256.1h6.2v10.3c0 1.9.9 3 2.6 3 1.4 0 2.6-.8 3.5-1.3v-8.4H107v-3.6h6.4v13h1.9v3.5h-6.2v-2.1h-.1c-1.4 1.5-3.2 2.5-5.4 2.5-3.3 0-5-2.1-5-5.5v-7.8h-1.9v-3.6zM125.5 249.5h6.2v19.6h1.9v3.5h-6.2V271h-.1c-1 1.2-2.8 2-4.6 2-4.6 0-6-3.9-6-8.6 0-4.7 1.6-8.6 6.3-8.6 1.7 0 3.4.7 4.4 1.8h.1V253h-1.9v-3.5zm-1.1 19.9c1.4 0 2.5-.6 3-1.1v-8c-.5-.4-1.6-1-3-1-2.5 0-3.2 2.2-3.2 5 0 2.9.7 5.1 3.2 5.1zM134.9 256.1h6.2v2.6h.1c1.1-1.5 3.1-3 5.7-3v4.1c-2.2 0-4.5.6-5.8 1.3v8h2.1v3.5h-8.3v-3.5h1.9v-9.4h-1.9v-3.6zM152.5 265.3c.1 2.5 1.6 4.1 4.7 4.1 1.4 0 3-.1 5.1-.7l.5 3.4c-2.2.6-4.1.8-6.3.8-6.3 0-8.6-3.4-8.6-8.6 0-5.2 2.2-8.6 8.5-8.6 7.1 0 7.5 4.9 6.8 9.5h-10.7zm0-2.7h6.5c.3-1.8-.1-3.5-2.8-3.5-2.4 0-3.5 1.4-3.7 3.5zM180.9 249.5h6.2v19.6h1.9v3.5h-6.2V271h-.1c-1 1.2-2.8 2-4.6 2-4.6 0-6-3.9-6-8.6 0-4.7 1.7-8.6 6.3-8.6 1.7 0 3.4.7 4.4 1.8h.1V253H181v-3.5zm-1.1 19.9c1.4 0 2.5-.6 3-1.1v-8c-.5-.4-1.6-1-3-1-2.5 0-3.2 2.2-3.2 5 0 2.9.7 5.1 3.2 5.1zM194.8 265.3c.1 2.5 1.6 4.1 4.7 4.1 1.4 0 3-.1 5.1-.7l.5 3.4c-2.2.6-4.1.8-6.3.8-6.3 0-8.6-3.4-8.6-8.6 0-5.2 2.2-8.6 8.5-8.6 7.1 0 7.5 4.9 6.8 9.5h-10.7zm0-2.7h6.5c.3-1.8-.1-3.5-2.8-3.5-2.4 0-3.5 1.4-3.7 3.5zM217.9 261.2v-1.7c-1.3-.2-2.4-.3-3.1-.3-2 0-2.5.8-2.5 1.4 0 .8.5 1.2 2.7 1.7 3.1.7 7 1.5 7 5.3 0 3.6-2.5 5.3-6.5 5.3-2.7 0-5.5-.3-7.5-.8v-4.6h3.6v1.7c1.4.3 2.7.3 3.5.3 2.1 0 2.7-1 2.7-1.6 0-.8-.9-1.2-2.8-1.6-3.7-.6-6.8-1.8-6.8-5.6 0-3.5 2.5-5 6.5-5 2.7 0 5 .3 6.9.8v4.6h-3.7zM229.9 256.1h6.2v1.7h.1c1.1-1.2 2.9-2 4.7-2 4.6 0 6 3.9 6 8.6 0 4.7-1.7 8.6-6.3 8.6-1.6 0-3.3-.7-4.4-1.8h-.1v4.6h1.9v3.5h-8.1v-3.5h1.9v-16h-1.9v-3.7zm9.1 3.3c-1.4 0-2.4.6-3 1v8c.5.4 1.6 1.1 3 1.1 2.5 0 3.2-2.2 3.2-5 .1-2.9-.6-5.1-3.2-5.1zM248.4 256.1h6.2v2.6h.1c1.1-1.5 3.1-3 5.7-3v4.1c-2.2 0-4.5.6-5.8 1.3v8h2.1v3.5h-8.3v-3.5h1.9v-9.4h-1.9v-3.6zM261.5 264.4c0-5.2 2.2-8.6 8-8.6s8 3.4 8 8.6c0 5.2-2.2 8.6-8 8.6s-8-3.4-8-8.6zm4.5 0c0 3.1.8 5 3.5 5s3.5-2 3.5-5-.8-5-3.5-5-3.5 2-3.5 5zM279.1 249.5h6.2v8.3h.1c1.1-1.2 2.9-2 4.7-2 4.6 0 6 3.9 6 8.6 0 4.7-1.7 8.6-6.3 8.6-1.6 0-3.5-.7-4.6-1.8h-.2l-.8 1.5H279v-3.5h1.9v-16H279v-3.7zm9.1 9.9c-1.4 0-2.4.6-3 1v8c.5.4 1.6 1.1 3 1.1 2.5 0 3.2-2.2 3.2-5 0-2.9-.6-5.1-3.2-5.1zM297.5 249.5h6.2v19.6h1.9v3.5h-8.1v-3.5h1.9v-16h-1.9v-3.6zM311.4 265.3c.1 2.5 1.6 4.1 4.7 4.1 1.4 0 3-.1 5.1-.7l.5 3.4c-2.2.6-4.1.8-6.3.8-6.3 0-8.6-3.4-8.6-8.6 0-5.2 2.2-8.6 8.5-8.6 7.1 0 7.5 4.9 6.8 9.5h-10.7zm-.3-15.8h3.6l1.8 4.6h-2.3l-3.1-4.6zm.3 13.1h6.5c.3-1.8-.1-3.5-2.8-3.5-2.4 0-3.5 1.4-3.7 3.5zM334.5 269.1h1.7v-7c-.1-1.7-.9-2.8-2.6-2.8-1.3 0-2.4.7-3.2 1.3v8.5h1.7v3.5h-7.8v-3.5h1.9v-9.4h-1.9v-3.6h6.2v2.1h.1c1.1-1.2 2.4-2.1 4.1-2.3.5-.1 1-.1 1.5-.1 2 .1 3.3 1.1 4 2.7 1.7-1.9 3.6-2.7 5.7-2.7 3.3 0 5 2.1 5 5.5v7.8h1.9v3.5h-7.9v-3.5h1.7v-6.8c0-1.9-.9-3-2.6-3-1.3 0-2.4.7-3.2 1.3v8.5h1.6v3.5h-7.6v-3.5zM358.3 265.3c.1 2.5 1.6 4.1 4.7 4.1 1.4 0 3-.1 5.1-.7l.5 3.4c-2.2.6-4.1.8-6.3.8-6.3 0-8.6-3.4-8.6-8.6 0-5.2 2.2-8.6 8.5-8.6 7.1 0 7.5 4.9 6.8 9.5h-10.7zm0-2.7h6.5c.3-1.8-.1-3.5-2.8-3.5-2.4 0-3.5 1.4-3.7 3.5zM381.4 261.2v-1.7c-1.3-.2-2.4-.3-3.1-.3-2 0-2.5.8-2.5 1.4 0 .8.5 1.2 2.7 1.7 3.1.7 7 1.5 7 5.3 0 3.6-2.5 5.3-6.5 5.3-2.7 0-5.5-.3-7.5-.8v-4.6h3.6v1.7c1.4.3 2.7.3 3.5.3 2.1 0 2.7-1 2.7-1.6 0-.8-.9-1.2-2.8-1.6-3.7-.6-6.8-1.8-6.8-5.6 0-3.5 2.5-5 6.5-5 2.7 0 5 .3 6.9.8v4.6h-3.7zM44.2 304.2v-1.6c-.9-.2-1.6-.2-2.2-.2-2.6 0-4 1.7-4 5s1.4 5 4 5c1.2 0 2.3 0 5-.7l.8 3.4c-2 .5-3.7.8-5.8.8-6.4 0-8.5-3.4-8.5-8.6 0-5.2 2.1-8.6 8.5-8.6 2.1 0 3.8.3 5.8.8v4.6h-3.6zM49.5 307.4c0-5.2 2.2-8.6 8-8.6s8 3.4 8 8.6c0 5.2-2.2 8.6-8 8.6s-8-3.4-8-8.6zm4.5 0c0 3.1.8 5 3.5 5s3.5-2 3.5-5-.8-5-3.5-5-3.5 2-3.5 5zM77.4 312.1h1.7v-7c-.1-1.7-.9-2.8-2.6-2.8-1.3 0-2.4.7-3.2 1.3v8.5H75v3.5h-8v-3.5h1.9v-9.4H67v-3.6h6.2v2.1h.1c1.1-1.2 2.4-2.1 4.1-2.3.5-.1 1-.1 1.5-.1 2 .1 3.3 1.1 4 2.7 1.7-1.9 3.6-2.7 5.7-2.7 3.3 0 5 2.1 5 5.5v7.8h1.9v3.5h-7.9v-3.5h1.6v-6.8c0-1.9-.9-3-2.6-3-1.3 0-2.4.7-3.2 1.3v8.5H85v3.5h-7.6v-3.5zM96.7 299.1h6.2v1.7h.1c1.1-1.2 2.9-2 4.7-2 4.6 0 6 3.9 6 8.6 0 4.7-1.7 8.6-6.3 8.6-1.7 0-3.3-.7-4.4-1.8h-.1v4.6h1.9v3.5h-8.1v-3.5h1.9v-16h-1.9v-3.7zm9.2 3.3c-1.4 0-2.4.6-3 1v8c.5.4 1.6 1.1 3 1.1 2.5 0 3.2-2.2 3.2-5 0-2.9-.7-5.1-3.2-5.1zM115.2 292.5h6.2v19.6h1.9v3.5h-8.1v-3.5h1.9v-16h-1.9v-3.6zM129.1 308.3c.1 2.5 1.6 4.1 4.7 4.1 1.4 0 3-.1 5.1-.7l.5 3.4c-2.2.6-4.1.8-6.3.8-6.3 0-8.6-3.4-8.6-8.6 0-5.2 2.2-8.6 8.5-8.6 7.1 0 7.5 4.9 6.8 9.5h-10.7zm0-2.7h6.5c.3-1.8-.1-3.5-2.8-3.5-2.4 0-3.5 1.4-3.7 3.5zM152.9 299.1h6.8v3.6h-1.4l-4.7 4.8 4.6 4.6h1.8v3.5h-9v-3.5h1.4l-3-3.2-2.9 3.2h1.5v3.5h-7v-3.5h1.4l4.8-5.1-4.3-4.3h-1.6v-3.6h8.8v3.6h-1.4l2.8 2.9 2.7-2.9h-1.3v-3.6zM165.6 308.3c.1 2.5 1.6 4.1 4.7 4.1 1.4 0 3-.1 5.1-.7l.5 3.4c-2.2.6-4.1.8-6.3.8-6.3 0-8.6-3.4-8.6-8.6 0-5.2 2.2-8.6 8.5-8.6 7.1 0 7.5 4.9 6.8 9.5h-10.7zm0-2.7h6.5c.3-1.8-.1-3.5-2.8-3.5-2.4 0-3.6 1.4-3.7 3.5zM188.7 304.2v-1.7c-1.3-.2-2.4-.3-3.1-.3-2 0-2.5.8-2.5 1.4 0 .8.5 1.2 2.7 1.7 3.1.7 7 1.5 7 5.3 0 3.6-2.5 5.3-6.5 5.3-2.7 0-5.5-.3-7.5-.8v-4.6h3.6v1.7c1.4.3 2.7.3 3.5.3 2.1 0 2.7-1 2.7-1.6 0-.8-.9-1.2-2.8-1.6-3.7-.6-6.8-1.8-6.8-5.6 0-3.5 2.5-5 6.5-5 2.7 0 5 .3 6.9.8v4.6h-3.7zM205.8 308.3c.1 2.5 1.6 4.1 4.7 4.1 1.4 0 3-.1 5.1-.7l.5 3.4c-2.2.6-4.1.8-6.3.8-6.3 0-8.6-3.4-8.6-8.6 0-5.2 2.2-8.6 8.5-8.6 7.1 0 7.5 4.9 6.8 9.5h-10.7zm0-2.7h6.5c.3-1.8-.1-3.5-2.8-3.5-2.4 0-3.5 1.4-3.7 3.5zM220.7 302.2h-2.2v-2.8l2.2-.3.5-4.6h3.8v4.6h4.1v3.1H225v8c0 1.6.7 2.4 2.4 2.4.4 0 .9 0 1.5-.2l.4 3.3c-.9.2-2.5.3-3.4.3-3.8 0-5.2-1.6-5.2-5v-8.8zM246.9 292.5h6.2v19.6h1.9v3.5h-6.2V314h-.1c-1 1.2-2.8 2-4.6 2-4.6 0-6-3.9-6-8.6 0-4.7 1.7-8.6 6.3-8.6 1.7 0 3.4.7 4.4 1.8h.1V296H247v-3.5zm-1.1 19.9c1.4 0 2.5-.6 3-1.1v-8c-.5-.4-1.6-1-3-1-2.5 0-3.2 2.2-3.2 5 0 2.9.7 5.1 3.2 5.1zM260.8 308.3c.1 2.5 1.6 4.1 4.7 4.1 1.4 0 3-.1 5.1-.7l.5 3.4c-2.2.6-4.1.8-6.3.8-6.3 0-8.6-3.4-8.6-8.6 0-5.2 2.2-8.6 8.5-8.6 7.1 0 7.5 4.9 6.8 9.5h-10.7zm0-2.7h6.5c.3-1.8-.1-3.5-2.8-3.5-2.4 0-3.5 1.4-3.7 3.5zM290.1 312.1h1.7v-7c-.1-1.7-.9-2.8-2.6-2.8-1.3 0-2.4.7-3.2 1.3v8.5h1.7v3.5h-7.8v-3.5h1.9v-9.4h-1.9v-3.6h6.2v2.1h.1c1.1-1.2 2.4-2.1 4.1-2.3.5-.1 1-.1 1.5-.1 2 .1 3.3 1.1 4 2.7 1.7-1.9 3.6-2.7 5.7-2.7 3.3 0 5 2.1 5 5.5v7.8h1.9v3.5h-7.9v-3.5h1.7v-6.8c0-1.9-.9-3-2.6-3-1.3 0-2.4.7-3.2 1.3v8.5h1.7v3.5h-7.6v-3.5zM310.6 304.2v-4.6c2.3-.5 4.8-.8 6.8-.8 4.2 0 6.5 1.1 6.5 5.5v7.8h1.9v3.5h-6.2V314h-.1c-1.5 1.5-3.3 2.1-5.3 1.9-2.8-.2-4.6-2.1-4.6-5 0-3.8 3.1-5.1 6.9-5.1h3.1v-1.2c0-1.7-1.1-2.2-3.2-2.2-.6 0-1.3 0-2.3.2v1.6h-3.5zm9 4.1h-2.4c-2.1 0-3.3.5-3.3 2.2 0 1.5 1.2 2.1 2.6 2.1 1.4 0 2.6-.6 3.2-1v-3.3zM327.1 299.1h6.2v13h1.9v3.5h-8.1v-3.5h1.9v-9.4h-1.9v-3.6zm6.2-6.6v4.6H329v-4.6h4.3zM347.1 312.1h1.7v-6.8c0-1.9-.7-3-2.6-3-1.4 0-2.6.7-3.5 1.3v8.5h1.7v3.5h-7.8v-3.5h1.9v-9.4h-1.9v-3.6h6.2v2.1h.1c1.4-1.5 3.2-2.5 5.4-2.5 3.3 0 5 2.1 5 5.5v7.8h1.9v3.5h-7.9v-3.4zM357.2 302.2H355v-2.8l2.2-.3.5-4.6h3.8v4.6h4.1v3.1h-4.1v8c0 1.6.7 2.4 2.4 2.4.4 0 .9 0 1.5-.2l.4 3.3c-.9.2-2.5.3-3.4.3-3.8 0-5.2-1.6-5.2-5v-8.8zM371.6 308.3c.1 2.5 1.6 4.1 4.7 4.1 1.4 0 3-.1 5.1-.7l.5 3.4c-2.2.6-4.1.8-6.3.8-6.3 0-8.6-3.4-8.6-8.6 0-5.2 2.2-8.6 8.5-8.6 7.1 0 7.5 4.9 6.8 9.5h-10.7zm0-2.7h6.5c.3-1.8-.1-3.5-2.8-3.5-2.3 0-3.5 1.4-3.7 3.5zM395 312.1h1.6v-6.8c0-1.9-.7-3-2.6-3-1.4 0-2.6.7-3.5 1.3v8.5h1.7v3.5h-7.8v-3.5h1.9v-9.4h-1.9v-3.6h6.2v2.1h.1c1.4-1.5 3.2-2.5 5.4-2.5 3.3 0 5 2.1 5 5.5v7.8h1.9v3.5h-8v-3.4zM404.1 299.1h6.2v13h1.9v3.5h-8.1v-3.5h1.9v-9.4h-1.9v-3.6zm6.2-6.6v4.6H406v-4.6h4.3zM413.5 299.1h6.2v2.6h.1c1.1-1.5 3.1-3 5.7-3v4.1c-2.2 0-4.5.6-5.8 1.3v8h2.1v3.5h-8.3v-3.5h1.9v-9.4h-1.9v-3.6zM433.3 292.5h6.2v19.6h1.9v3.5h-8.1v-3.5h1.9v-16h-1.9v-3.6zM443.9 304.2v-4.6c2.3-.5 4.8-.8 6.8-.8 4.2 0 6.5 1.1 6.5 5.5v7.8h1.9v3.5h-6.2V314h-.1c-1.5 1.5-3.3 2.1-5.3 1.9-2.8-.2-4.6-2.1-4.6-5 0-3.8 3.1-5.1 6.9-5.1h3.1v-1.2c0-1.7-1.1-2.2-3.2-2.2-.6 0-1.3 0-2.3.2v1.6h-3.5zm9 4.1h-2.4c-2.1 0-3.3.5-3.3 2.2 0 1.5 1.2 2.1 2.6 2.1 1.4 0 2.6-.6 3.2-1v-3.3zM32.9 342.1h6.2v2.6h.1c1.1-1.5 3.1-3 5.7-3v4.1c-2.2 0-4.5.6-5.8 1.3v8h2.1v3.5h-8.3v-3.5h1.9v-9.4h-1.9v-3.6zM50.5 351.3c.1 2.5 1.6 4.1 4.7 4.1 1.4 0 3-.1 5.1-.7l.5 3.4c-2.2.6-4.1.8-6.3.8-6.3 0-8.6-3.4-8.6-8.6 0-5.2 2.2-8.6 8.5-8.6 7.1 0 7.5 4.9 6.8 9.5H50.5zm0-2.7H57c.3-1.8-.1-3.5-2.8-3.5-2.3 0-3.5 1.4-3.7 3.5zm5.5-8.4h-2.3l1.8-4.6h3.6l-3.1 4.6zM73.6 347.2v-1.7c-1.3-.2-2.4-.3-3.1-.3-2 0-2.5.8-2.5 1.4 0 .8.5 1.2 2.7 1.7 3.1.7 7 1.5 7 5.3 0 3.6-2.5 5.3-6.5 5.3-2.7 0-5.5-.3-7.5-.8v-4.6h3.6v1.7c1.4.3 2.7.3 3.5.3 2.1 0 2.7-1 2.7-1.6 0-.8-.9-1.2-2.8-1.6-3.7-.6-6.8-1.8-6.8-5.6 0-3.5 2.5-5 6.5-5 2.7 0 5 .3 6.9.8v4.6h-3.7zM79.4 342.1h6.2v13h1.9v3.5h-8.1v-3.5h1.9v-9.4h-1.9v-3.6zm6.2-6.6v4.6h-4.3v-4.6h4.3zM88.8 335.5H95v19.6h1.9v3.5h-8.1v-3.5h1.9v-16h-1.9v-3.6zM98.2 342.1h6.2v13h1.9v3.5h-8.1v-3.5h1.9v-9.4h-1.9v-3.6zm6.2-6.6v4.6h-4.3v-4.6h4.3zM112.1 351.3c.1 2.5 1.6 4.1 4.7 4.1 1.4 0 3-.1 5.1-.7l.5 3.4c-2.2.6-4.1.8-6.3.8-6.3 0-8.6-3.4-8.6-8.6 0-5.2 2.2-8.6 8.5-8.6 7.1 0 7.5 4.9 6.8 9.5h-10.7zm0-2.7h6.5c.3-1.8-.1-3.5-2.8-3.5-2.4 0-3.5 1.4-3.7 3.5zM135.4 355.1h1.7v-6.8c0-1.9-.7-3-2.6-3-1.4 0-2.6.7-3.5 1.3v8.5h1.7v3.5h-7.8v-3.5h1.9v-9.4h-1.9v-3.6h6.2v2.1h.1c1.4-1.5 3.2-2.5 5.4-2.5 3.3 0 5 2.1 5 5.5v7.8h1.9v3.5h-7.9v-3.4zM155.2 347.2v-1.6c-.9-.2-1.6-.2-2.2-.2-2.6 0-4 1.7-4 5s1.4 5 4 5c1.2 0 2.3 0 5-.7l.8 3.4c-2 .5-3.7.8-5.8.8-6.4 0-8.5-3.4-8.5-8.6 0-5.2 2.1-8.6 8.5-8.6 2.1 0 3.8.3 5.8.8v4.6h-3.6zM165.1 351.3c.1 2.5 1.6 4.1 4.7 4.1 1.4 0 3-.1 5.1-.7l.5 3.4c-2.2.6-4.1.8-6.3.8-6.3 0-8.6-3.4-8.6-8.6 0-5.2 2.2-8.6 8.5-8.6 7.1 0 7.5 4.9 6.8 9.5h-10.7zm0-2.7h6.5c.3-1.8-.1-3.5-2.8-3.5-2.4 0-3.5 1.4-3.7 3.5zM184.6 350.4c0-5.2 2.2-8.6 8-8.6s8 3.4 8 8.6c0 5.2-2.2 8.6-8 8.6s-8-3.4-8-8.6zm4.5 0c0 3.1.8 5 3.5 5s3.5-2 3.5-5-.8-5-3.5-5-3.5 2-3.5 5zM202.2 342.1h6.2v1.7h.1c1.1-1.2 2.9-2 4.7-2 4.6 0 6 3.9 6 8.6 0 4.7-1.6 8.6-6.3 8.6-1.7 0-3.3-.7-4.4-1.8h-.1v4.6h1.9v3.5h-8.1v-3.5h1.9v-16h-1.9v-3.7zm9.1 3.3c-1.4 0-2.4.6-3 1v8c.5.4 1.6 1.1 3 1.1 2.5 0 3.2-2.2 3.2-5 .1-2.9-.6-5.1-3.2-5.1zM226.1 351.3c.1 2.5 1.6 4.1 4.7 4.1 1.4 0 3-.1 5.1-.7l.5 3.4c-2.2.6-4.1.8-6.3.8-6.3 0-8.6-3.4-8.6-8.6 0-5.2 2.2-8.6 8.5-8.6 7.1 0 7.5 4.9 6.8 9.5h-10.7zm0-2.7h6.5c.3-1.8-.1-3.5-2.8-3.5-2.4 0-3.5 1.4-3.7 3.5zm5.5-8.4h-2.3l1.8-4.6h3.6l-3.1 4.6zM238.8 342.1h6.2v2.6h.1c1.1-1.5 3.1-3 5.7-3v4.1c-2.2 0-4.5.6-5.8 1.3v8h2.1v3.5h-8.3v-3.5h1.9v-9.4h-1.9v-3.6zM252.8 347.2v-4.6c2.3-.5 4.8-.8 6.8-.8 4.2 0 6.5 1.1 6.5 5.5v7.8h1.9v3.5h-6.2V357h-.1c-1.5 1.5-3.3 2.1-5.3 1.9-2.8-.2-4.6-2.1-4.6-5 0-3.8 3.1-5.1 6.9-5.1h3.1v-1.2c0-1.7-1.1-2.2-3.2-2.2-.6 0-1.3 0-2.3.2v1.6h-3.5zm9 4.1h-2.4c-2.1 0-3.3.5-3.3 2.2 0 1.5 1.2 2.1 2.6 2.1 1.4 0 2.6-.6 3.2-1v-3.3zM270.2 345.2H268v-2.8l2.2-.3.5-4.6h3.8v4.6h4.1v3.1h-4.1v8c0 1.6.7 2.4 2.4 2.4.4 0 .9 0 1.5-.2l.4 3.3c-.9.2-2.5.3-3.4.3-3.8 0-5.2-1.6-5.2-5v-8.8zM280.7 342.1h6.2v13h1.9v3.5h-8.1v-3.5h1.9v-9.4h-1.9v-3.6zm6.2-6.6v4.6h-4.3v-4.6h4.3zM290 350.4c0-5.2 2.2-8.6 8-8.6s8 3.4 8 8.6c0 5.2-2.2 8.6-8 8.6s-8-3.4-8-8.6zm4.6 0c0 3.1.8 5 3.5 5s3.5-2 3.5-5-.8-5-3.5-5-3.5 2-3.5 5zM318.2 355.1h1.7v-6.8c0-1.9-.7-3-2.6-3-1.4 0-2.6.7-3.5 1.3v8.5h1.7v3.5h-7.8v-3.5h1.9v-9.4h-1.9v-3.6h6.2v2.1h.1c1.4-1.5 3.2-2.5 5.4-2.5 3.3 0 5 2.1 5 5.5v7.8h1.9v3.5h-7.9v-3.4zM338 355.1h1.7v-6.8c0-1.9-.7-3-2.6-3-1.4 0-2.6.7-3.5 1.3v8.5h1.7v3.5h-7.8v-3.5h1.9v-9.4h-1.9v-3.6h6.2v2.1h.1c1.4-1.5 3.2-2.5 5.4-2.5 3.3 0 5 2.1 5 5.5v7.8h1.9v3.5H338v-3.4zM351.7 351.3c.1 2.5 1.6 4.1 4.7 4.1 1.4 0 3-.1 5.1-.7l.5 3.4c-2.2.6-4.1.8-6.3.8-6.3 0-8.6-3.4-8.6-8.6 0-5.2 2.2-8.6 8.5-8.6 7.1 0 7.5 4.9 6.8 9.5h-10.7zm0-2.7h6.5c.3-1.8-.1-3.5-2.8-3.5-2.4 0-3.5 1.4-3.7 3.5zM364 335.5h6.2v19.6h1.9v3.5H364v-3.5h1.9v-16H364v-3.6zM373.4 335.5h6.2v19.6h1.9v3.5h-8.1v-3.5h1.9v-16h-1.9v-3.6zM387.3 351.3c.1 2.5 1.6 4.1 4.7 4.1 1.4 0 3-.1 5.1-.7l.5 3.4c-2.2.6-4.1.8-6.3.8-6.3 0-8.6-3.4-8.6-8.6 0-5.2 2.2-8.6 8.5-8.6 7.1 0 7.5 4.9 6.8 9.5h-10.7zm0-2.7h6.5c.3-1.8-.1-3.5-2.8-3.5-2.4 0-3.5 1.4-3.7 3.5zM405.2 353.9v4.8h-4.3v-4.8h4.3zM420.2 345.6v2.1h-6.7v-2.1h2.1v-8.7l-2.1.1v-1.8l3.4-.8h1.2v11.1h2.1z"/></g></g></g></g><g id="Glance_2_lines_00000028303443882164478580000004982156701570438050_"><g id="Glance_00000039114584325091666230000009114082711206210196_"><g id="Glance_00000025431690969461516820000016552765209979526061_"><g id="_Jobs_in_advanced_economies_are_increasingly_for_high-skill_workers._00000089537229176095583380000014146777493133907644_"><path class="st4" d="M39.7 46.1c2.7 0 4.2 1.6 4.2 4 0 2.5-1.5 4-4.2 4H36v4.1h1.3v1.5h-4.5v-1.5h1.3V47.6h-1.3v-1.5h6.9zM36 52.6h3.5c1.5 0 2.4-.8 2.4-2.5 0-1.5-.9-2.5-2.4-2.5H36v5zM45.2 45.7h3.1v12.5h1.3v1.5h-4.4v-1.5h1.3v-11h-1.3v-1.5zM49.6 49.7h3.1v6.5c0 1.3.5 2.2 2 2.2 1.1 0 2.2-.7 2.8-1.1v-6.1h-1.6v-1.5h3.4v8.5h1.3v1.5h-3.1v-1.4c-1 1-2.2 1.6-3.6 1.6-2 0-3-1.2-3-3.3v-5.4h-1.3v-1.5zM68.1 52.4v-1.2c-1-.2-1.9-.2-2.4-.2-1.8 0-2 1-2 1.3 0 .6.3 1.2 2.1 1.5 2.1.5 4 1 4 3.1 0 2-1.4 3-3.7 3-1.6 0-3.1-.1-4.3-.4V57h1.5v1.2c1 .2 2.1.2 2.6.2 1.8 0 2.1-1.1 2.1-1.5 0-.7-.5-1.2-2.3-1.5-2.1-.4-3.8-1.1-3.8-3.2 0-1.9 1.3-2.8 3.7-2.8 1.5 0 2.8.2 4 .5v2.4h-1.5zM80.6 45.7h3.1v12.5H85v1.5h-3.1v-1c-.7.7-1.9 1.2-3.1 1.2-2.8 0-3.7-2.3-3.7-5.2 0-2.9 1-5.2 3.8-5.2 1.1 0 2.2.5 3 1.2v-3.5h-1.3v-1.5zm-1.1 12.7c1.1 0 2-.5 2.4-.8v-5.7c-.4-.3-1.3-.9-2.4-.9-2 0-2.5 1.7-2.5 3.7s.5 3.7 2.5 3.7zM87.8 55c0 2 1 3.4 3.3 3.4 1 0 2 0 3.1-.4l.2 1.5c-1.3.3-2.3.4-3.6.4-3.7 0-5-2.1-5-5.2s1.3-5.2 4.9-5.2c4.2 0 4.3 3.2 3.9 5.5h-6.8zm0-1.1h5.1c.3-1.4-.1-3-2.2-3-2 0-2.8 1.3-2.9 3zM106.3 58.2h1.2v-5c0-1.3-.5-2.2-2-2.2-1.2 0-2.2.7-2.8 1.2v6h1.2v1.5h-4.3v-1.5h1.3v-11h-1.3v-1.5h3.1v5.4c1-.9 2.2-1.6 3.6-1.6 2 0 3 1.2 3 3.3v5.4h1.3v1.5h-4.3v-1.5zM110.8 49.7h3.1v6.5c0 1.3.5 2.2 2 2.2 1.1 0 2.2-.7 2.8-1.1v-6.1h-1.6v-1.5h3.4v8.5h1.3v1.5h-3.1v-1.4c-1 1-2.2 1.6-3.6 1.6-2 0-3-1.2-3-3.3v-5.4h-1.3v-1.5zM122.6 49.7h3.1v8.5h1.3v1.5h-4.4v-1.5h1.3v-7h-1.3v-1.5zm3.1-4v2.5h-1.8v-2.5h1.8zM128.7 51h-1.5v-1.2l1.5-.1.2-2.8h1.6v2.8h2.8V51h-2.8v5.5c0 1.3.4 2 1.7 2 .3 0 .6 0 1-.1l.2 1.4c-.5.1-1.3.1-1.8.1-2.1 0-2.9-.8-2.9-3.1V51zM140.7 55c0 2 1 3.4 3.3 3.4 1 0 2 0 3.1-.4l.2 1.5c-1.3.3-2.3.4-3.6.4-3.7 0-5-2.1-5-5.2s1.3-5.2 4.9-5.2c4.2 0 4.3 3.2 3.9 5.5h-6.8zm0-1.1h5.1c.3-1.4-.1-3-2.2-3-2 0-2.8 1.3-2.9 3zM155.6 58.2h1.2v-5c0-1.3-.5-2.2-2-2.2-1.2 0-2.2.7-2.8 1.2v6h1.2v1.5h-4.3v-1.5h1.3v-7h-1.3v-1.5h3.1v1.4c1-.9 2.2-1.6 3.6-1.6 2 0 3 1.2 3 3.3v5.4h1.3v1.5h-4.3v-1.5zM161.4 51h-1.5v-1.2l1.5-.1.2-2.8h1.6v2.8h2.8V51h-2.8v5.5c0 1.3.4 2 1.7 2 .3 0 .6 0 1-.1l.2 1.4c-.5.1-1.3.1-1.8.1-2.1 0-2.9-.8-2.9-3.1V51zM167.4 49.7h3.1v1.6c.8-.9 2.2-1.8 3.8-1.8v1.7c-1.5 0-3 .6-3.8 1.2v5.8h1.5v1.5h-4.6v-1.5h1.3v-7h-1.3v-1.5zM177 55c0 2 1 3.4 3.3 3.4 1 0 2 0 3.1-.4l.2 1.5c-1.3.3-2.3.4-3.6.4-3.7 0-5-2.1-5-5.2s1.3-5.2 4.9-5.2c4.2 0 4.3 3.2 3.9 5.5H177zm0-1.1h5.1c.3-1.4-.1-3-2.2-3-2 0-2.8 1.3-2.9 3zM185.2 49.7h3.1v1c.7-.7 1.9-1.2 3.1-1.2 2.8 0 3.7 2.3 3.7 5.2 0 2.9-1 5.2-3.8 5.2-1.1 0-2.3-.4-3-1.1v3.4h1.3v1.5h-4.4v-1.5h1.3v-11h-1.3v-1.5zm5.5 1.3c-1.1 0-2 .5-2.4.9v5.7c.4.3 1.3.8 2.4.8 1.9 0 2.5-1.7 2.5-3.7s-.6-3.7-2.5-3.7zM196.2 49.7h3.1v1.6c.8-.9 2.2-1.8 3.8-1.8v1.7c-1.5 0-3 .6-3.8 1.2v5.8h1.5v1.5h-4.6v-1.5h1.3v-7h-1.3v-1.5zM204.2 49.7h3.1v8.5h1.3v1.5h-4.4v-1.5h1.3v-7h-1.3v-1.5zm3.1-4v2.5h-1.8v-2.5h1.8zM216.1 52.4v-1.2c-1-.2-1.9-.2-2.4-.2-1.8 0-2 1-2 1.3 0 .6.3 1.2 2.1 1.5 2.1.5 4 1 4 3.1 0 2-1.4 3-3.7 3-1.6 0-3.1-.1-4.3-.4V57h1.5v1.2c1 .2 2.1.2 2.6.2 1.8 0 2.1-1.1 2.1-1.5 0-.7-.5-1.2-2.3-1.5-2.1-.4-3.8-1.1-3.8-3.2 0-1.9 1.3-2.8 3.7-2.8 1.5 0 2.8.2 4 .5v2.4h-1.5zM221.2 55c0 2 1 3.4 3.3 3.4 1 0 2 0 3.1-.4l.2 1.5c-1.3.3-2.3.4-3.6.4-3.7 0-5-2.1-5-5.2s1.3-5.2 4.9-5.2c4.2 0 4.3 3.2 3.9 5.5h-6.8zm0-1.1h5.1c.3-1.4-.1-3-2.2-3-2 0-2.8 1.3-2.9 3zM236.1 52.4v-1.2c-1-.2-1.9-.2-2.4-.2-1.8 0-2 1-2 1.3 0 .6.3 1.2 2.1 1.5 2.1.5 4 1 4 3.1 0 2-1.4 3-3.7 3-1.6 0-3.1-.1-4.3-.4V57h1.5v1.2c1 .2 2.1.2 2.6.2 1.8 0 2.1-1.1 2.1-1.5 0-.7-.5-1.2-2.3-1.5-2.1-.4-3.8-1.1-3.8-3.2 0-1.9 1.3-2.8 3.7-2.8 1.5 0 2.8.2 4 .5v2.4h-1.5zM249.3 52.4v-1.2c-1-.2-1.9-.2-2.4-.2-1.8 0-2 1-2 1.3 0 .6.3 1.2 2.1 1.5 2.1.5 4 1 4 3.1 0 2-1.4 3-3.7 3-1.6 0-3.1-.1-4.3-.4V57h1.5v1.2c1 .2 2.1.2 2.6.2 1.8 0 2.1-1.1 2.1-1.5 0-.7-.5-1.2-2.3-1.5-2.1-.4-3.8-1.1-3.8-3.2 0-1.9 1.3-2.8 3.7-2.8 1.5 0 2.8.2 4 .5v2.4h-1.5zM252.2 49.7h3.1v6.5c0 1.3.5 2.2 2 2.2 1.1 0 2.2-.7 2.8-1.1v-6.1h-1.6v-1.5h3.4v8.5h1.3v1.5h-3.1v-1.4c-1 1-2.2 1.6-3.6 1.6-2 0-3-1.2-3-3.3v-5.4h-1.3v-1.5zM264 49.7h3.1v1.6c.8-.9 2.2-1.8 3.8-1.8v1.7c-1.5 0-3 .6-3.8 1.2v5.8h1.5v1.5H264v-1.5h1.3v-7H264v-1.5zM281.6 45.7h3.1v12.5h1.3v1.5h-3.1v-1c-.7.7-1.9 1.2-3.1 1.2-2.8 0-3.7-2.3-3.7-5.2 0-2.9 1-5.2 3.8-5.2 1.1 0 2.2.5 3 1.2v-3.5h-1.3v-1.5zm-1.1 12.7c1.1 0 2-.5 2.4-.8v-5.7c-.4-.3-1.3-.9-2.4-.9-2 0-2.5 1.7-2.5 3.7s.5 3.7 2.5 3.7zM286.8 49.7h3.1v8.5h1.3v1.5h-4.4v-1.5h1.3v-7h-1.3v-1.5zm3.1-4v2.5h-1.8v-2.5h1.8zM299.3 49.7h3.9v1.5h-1.1l-3.1 3.5 3.2 3.5h1.2v1.5h-4.8v-1.5h1.1l-2.5-2.9-2.4 2.9h1.2v1.5h-4v-1.5h1l3.2-3.7-3-3.3h-1.1v-1.5h4.7v1.5h-1.1l2.3 2.7 2.2-2.7h-1v-1.5zM308.3 54.7c0-3.1 1.2-5.2 4.6-5.2 3.3 0 4.6 2.1 4.6 5.2s-1.3 5.2-4.6 5.2c-3.4 0-4.6-2.1-4.6-5.2zm1.9 0c0 2.1.6 3.7 2.7 3.7s2.7-1.6 2.7-3.7-.6-3.7-2.7-3.7-2.7 1.6-2.7 3.7zM325.3 58.2h1.2v-5c0-1.3-.5-2.2-2-2.2-1.2 0-2.2.7-2.8 1.2v6h1.2v1.5h-4.3v-1.5h1.3v-7h-1.3v-1.5h3.1v1.4c1-.9 2.2-1.6 3.6-1.6 2 0 3 1.2 3 3.3v5.4h1.3v1.5h-4.3v-1.5zM331.1 51h-1.5v-1.2l1.5-.1.2-2.8h1.6v2.8h2.8V51h-2.8v5.5c0 1.3.4 2 1.7 2 .3 0 .6 0 1-.1l.2 1.4c-.5.1-1.3.1-1.8.1-2.1 0-2.9-.8-2.9-3.1V51zM346.7 45.7h3.1v12.5h1.3v1.5H348v-1c-.7.7-1.9 1.2-3.1 1.2-2.8 0-3.7-2.3-3.7-5.2 0-2.9 1-5.2 3.8-5.2 1.1 0 2.2.5 3 1.2v-3.5h-1.3v-1.5zm-1.1 12.7c1.1 0 2-.5 2.4-.8v-5.7c-.4-.3-1.3-.9-2.4-.9-2 0-2.5 1.7-2.5 3.7s.5 3.7 2.5 3.7zM353.9 55c0 2 1 3.4 3.3 3.4 1 0 2 0 3.1-.4l.2 1.5c-1.3.3-2.3.4-3.6.4-3.7 0-5-2.1-5-5.2s1.3-5.2 4.9-5.2c4.2 0 4.3 3.2 3.9 5.5h-6.8zm0-1.1h5.1c.3-1.4-.1-3-2.2-3-2 0-2.8 1.3-2.9 3zm3.6-5.4h-1l1.2-2.8h1.5l-1.7 2.8zM369.4 52.4v-1.2c-.9-.2-1.5-.2-1.9-.2-2.1 0-3 1.5-3 3.7s.9 3.7 3 3.7c.7 0 1.5 0 3.1-.4l.3 1.5c-1.2.3-2.2.4-3.4.4-3.7 0-4.9-2.1-4.9-5.2s1.2-5.2 4.9-5.2c1.2 0 2.2.2 3.4.5v2.4h-1.5zM371.9 45.7h3.1v12.5h1.3v1.5h-4.4v-1.5h1.3v-11h-1.3v-1.5zM377.9 52.4v-2.5c1.4-.3 2.8-.4 3.9-.4 2.4 0 3.7.7 3.7 3.3v5.4h1.3v1.5h-3.1v-1c-.9.7-1.8 1.2-3.1 1.2-2.1 0-3.2-1.1-3.2-3 0-2.4 2.1-3 4.2-3h2.2v-1c0-1.3-.7-1.9-2.3-1.9-.5 0-1.1 0-2 .2v1.2h-1.6zm5.8 2.6h-1.9c-1.9 0-2.7.6-2.7 1.8 0 1.1.8 1.7 2.1 1.7 1.1 0 2-.5 2.5-.8V55zM387.6 49.7h3.1v1.6c.8-.9 2.2-1.8 3.8-1.8v1.7c-1.5 0-3 .6-3.8 1.2v5.8h1.5v1.5h-4.6v-1.5h1.3v-7h-1.3v-1.5zM397.2 55c0 2 1 3.4 3.3 3.4 1 0 2 0 3.1-.4l.2 1.5c-1.3.3-2.3.4-3.6.4-3.7 0-5-2.1-5-5.2s1.3-5.2 4.9-5.2c4.2 0 4.3 3.2 3.9 5.5h-6.8zm0-1.1h5.1c.3-1.4-.1-3-2.2-3-2 0-2.8 1.3-2.9 3zm3.6-5.4h-1l1.2-2.8h1.5l-1.7 2.8zM415 62.2h1.3v-3.5c-.7.7-1.9 1.2-3.1 1.2-2.8 0-3.7-2.3-3.7-5.2 0-2.9 1-5.2 3.8-5.2 1.1 0 2.3.5 3.1 1.2l.3-1h1.4v12.5h1.3v1.5H415v-1.5zm-1.1-3.8c1.1 0 2-.5 2.4-.8v-5.7c-.4-.3-1.3-.9-2.4-.9-2 0-2.5 1.7-2.5 3.7s.5 3.7 2.5 3.7zM419.6 49.7h3.1v6.5c0 1.3.5 2.2 2 2.2 1.1 0 2.2-.7 2.8-1.1v-6.1h-1.6v-1.5h3.4v8.5h1.3v1.5h-3.1v-1.4c-1 1-2.2 1.6-3.6 1.6-2 0-3-1.2-3-3.3v-5.4h-1.3v-1.5zM433.4 55c0 2 1 3.4 3.3 3.4 1 0 2 0 3.1-.4l.2 1.5c-1.3.3-2.3.4-3.6.4-3.7 0-5-2.1-5-5.2s1.3-5.2 4.9-5.2c4.2 0 4.3 3.2 3.9 5.5h-6.8zm0-1.1h5.1c.3-1.4-.1-3-2.2-3-2 0-2.8 1.3-2.9 3z"/></g></g></g></g><path style="fill:none" d="M29.9 482.8h316V498h-316z"/><path class="st6" d="m31.5 483.4-.8.4-.1-.5 1-.5h.5v4.5h-.6v-3.9zM33.9 486.1c.3-1 .8-2.3 1.1-2.9l.7-.1c-.3.7-.6 1.9-.7 2.8l-1.1.2zm1.8 0c.3-1 .8-2.3 1.1-2.9l.7-.1c-.3.7-.6 1.9-.7 2.8l-1.1.2zM45.4 487.2c0 2.8-1.7 4.3-3.8 4.3-2.1 0-3.6-1.7-3.6-4.1 0-2.6 1.6-4.2 3.8-4.2 2.1-.1 3.6 1.6 3.6 4zm-6.3.2c0 1.7.9 3.3 2.6 3.3 1.7 0 2.6-1.5 2.6-3.4 0-1.6-.8-3.3-2.6-3.3s-2.6 1.6-2.6 3.4zM46.7 487.4v-1.8h.9v1.1c.3-.8.9-1.3 1.6-1.3h.3v1h-.4c-.7 0-1.3.6-1.4 1.4v3.6h-1v-4zM55.5 485.6v5c0 1.3-.3 2.1-.8 2.7-.6.5-1.4.7-2.1.7-.7 0-1.5-.2-1.9-.5l.3-.8c.4.2 1 .5 1.7.5 1.1 0 1.9-.6 1.9-2v-.6c-.3.5-.9 1-1.8 1-1.4 0-2.5-1.2-2.5-2.8 0-2 1.3-3.1 2.6-3.1 1 0 1.6.5 1.8 1v-.9h.8zm-1.1 2.2c0-.2 0-.3-.1-.5-.2-.6-.7-1.1-1.5-1.1-1 0-1.7.9-1.7 2.2 0 1.1.6 2.1 1.7 2.1.6 0 1.2-.4 1.5-1.1.1-.2.1-.4.1-.6v-1zM60.4 491.4l-.1-.7c-.3.5-.9.9-1.8.9-1.2 0-1.8-.8-1.8-1.7 0-1.4 1.2-2.2 3.5-2.2v-.1c0-.5-.1-1.3-1.3-1.3-.5 0-1.1.2-1.5.4l-.2-.7c.5-.3 1.2-.5 1.9-.5 1.8 0 2.2 1.2 2.2 2.4v2.2c0 .5 0 1 .1 1.4h-1zm-.1-3c-1.2 0-2.5.2-2.5 1.3 0 .7.5 1 1 1 .8 0 1.2-.5 1.4-1 0-.1.1-.2.1-.3v-1zM63 487.1v-1.6h.9l.1 1c.3-.6 1-1.1 1.9-1.1.8 0 2.1.5 2.1 2.5v3.5h-1.1V488c0-.9-.3-1.7-1.3-1.7-.7 0-1.2.5-1.4 1.1 0 .1-.1.3-.1.5v3.5H63v-4.3zM70.8 483.9c0 .4-.3.6-.7.6-.4 0-.6-.3-.6-.6 0-.4.3-.7.7-.7.4.1.6.4.6.7zm-1.1 7.5v-5.8h1.1v5.8h-1.1zM71.8 490.7l2.6-3.4c.3-.3.5-.6.8-.9H72v-.9h4.4v.7l-2.6 3.4c-.2.3-.5.6-.7.9h3.4v.8h-4.7v-.6zM80.8 491.4l-.1-.7c-.3.5-.9.9-1.8.9-1.2 0-1.8-.8-1.8-1.7 0-1.4 1.2-2.2 3.5-2.2v-.1c0-.5-.1-1.3-1.3-1.3-.5 0-1.1.2-1.5.4l-.2-.7c.5-.3 1.2-.5 1.9-.5 1.8 0 2.2 1.2 2.2 2.4v2.2c0 .5 0 1 .1 1.4h-1zm-.1-3c-1.2 0-2.5.2-2.5 1.3 0 .7.5 1 1 1 .8 0 1.2-.5 1.4-1 0-.1.1-.2.1-.3v-1zM84.6 483.9v1.7h1.5v.8h-1.5v3.1c0 .7.2 1.1.8 1.1.3 0 .5 0 .6-.1v.8c-.2.1-.5.1-.9.1-.5 0-.9-.2-1.1-.4-.3-.3-.4-.8-.4-1.5v-3.2h-.9v-.8h.9v-1.4l1-.2zM88.5 483.9c0 .4-.3.6-.7.6-.4 0-.6-.3-.6-.6 0-.4.3-.7.7-.7.3.1.6.4.6.7zm-1.2 7.5v-5.8h1.1v5.8h-1.1zM95.4 488.4c0 2.1-1.5 3.1-2.9 3.1-1.6 0-2.8-1.2-2.8-3 0-1.9 1.3-3.1 2.9-3.1 1.6 0 2.8 1.2 2.8 3zm-4.6.1c0 1.3.7 2.2 1.8 2.2 1 0 1.8-.9 1.8-2.3 0-1-.5-2.2-1.7-2.2-1.4 0-1.9 1.2-1.9 2.3zM96.7 487.1v-1.6h.9l.1 1c.3-.6 1-1.1 1.9-1.1.8 0 2.1.5 2.1 2.5v3.5h-1.1V488c0-.9-.3-1.7-1.3-1.7-.7 0-1.2.5-1.4 1.1 0 .1-.1.3-.1.5v3.5h-1.1v-4.3zM103.2 490.3c.3.2.9.4 1.4.4.8 0 1.1-.4 1.1-.9s-.3-.8-1.1-1.1c-1-.4-1.5-.9-1.5-1.6 0-.9.8-1.7 2-1.7.6 0 1.1.2 1.4.4l-.3.8c-.2-.1-.6-.3-1.2-.3s-1 .4-1 .8c0 .5.3.7 1.1 1 1 .4 1.5.9 1.5 1.8 0 1-.8 1.7-2.2 1.7-.6 0-1.2-.2-1.6-.4l.4-.9zM109.2 483.1c-.3 1-.8 2.3-1.1 2.8l-.7.1c.3-.7.6-2 .7-2.8l1.1-.1zM111.9 483.4c.5-.1 1.2-.2 2-.2 1 0 1.8.2 2.3.7.4.4.7 1 .7 1.7s-.2 1.3-.6 1.7c-.6.6-1.5.9-2.5.9-.3 0-.6 0-.8-.1v3.2h-1v-7.9zm1.1 3.9c.2.1.5.1.9.1 1.3 0 2-.6 2-1.7s-.8-1.6-1.9-1.6c-.5 0-.8 0-1 .1v3.1zM121.2 491.4l-.1-.7c-.3.5-.9.9-1.8.9-1.2 0-1.8-.8-1.8-1.7 0-1.4 1.2-2.2 3.5-2.2v-.1c0-.5-.1-1.3-1.3-1.3-.5 0-1.1.2-1.5.4l-.2-.7c.5-.3 1.2-.5 1.9-.5 1.8 0 2.2 1.2 2.2 2.4v2.2c0 .5 0 1 .1 1.4h-1zm-.2-3c-1.2 0-2.5.2-2.5 1.3 0 .7.5 1 1 1 .8 0 1.2-.5 1.4-1 0-.1.1-.2.1-.3v-1zM123.8 487.1v-1.6h.9l.1 1c.3-.6 1-1.1 1.9-1.1.8 0 2.1.5 2.1 2.5v3.5h-1.1V488c0-.9-.3-1.7-1.3-1.7-.7 0-1.2.5-1.4 1.1 0 .1-.1.3-.1.5v3.5h-1.1v-4.3zM135.4 482.8v8.5h-.9v-1c-.3.6-1 1.1-2 1.1-1.4 0-2.5-1.2-2.5-3 0-1.9 1.2-3.1 2.6-3.1.9 0 1.5.4 1.8.9v-3.5h1zm-1 5.1v-.4c-.2-.7-.7-1.2-1.5-1.2-1.1 0-1.7 1-1.7 2.2 0 1.2.6 2.1 1.7 2.1.7 0 1.4-.5 1.5-1.3v-1.4zM137.8 488.6c0 1.4.9 2 2 2 .8 0 1.2-.1 1.6-.3l.2.8c-.4.2-1 .4-1.9.4-1.8 0-2.9-1.2-2.9-2.9s1-3.1 2.7-3.1c1.9 0 2.4 1.7 2.4 2.7v.5h-4.1zm3.1-.7c0-.7-.3-1.7-1.5-1.7-1.1 0-1.5 1-1.6 1.7h3.1zM143.2 487.1v-1.6h.9v.9c.3-.6.9-1.1 1.8-1.1.8 0 1.4.5 1.6 1.2.2-.3.4-.6.6-.8.3-.3.7-.4 1.3-.4.8 0 1.9.5 1.9 2.5v3.4h-1v-3.3c0-1.1-.4-1.8-1.3-1.8-.6 0-1.1.4-1.2 1 0 .1-.1.3-.1.5v3.6h-1v-3.5c0-.9-.4-1.6-1.2-1.6-.7 0-1.1.5-1.3 1.1-.1.2-.1.3-.1.5v3.5h-1v-4.1zM154.4 483.9c0 .4-.3.6-.7.6-.4 0-.6-.3-.6-.6 0-.4.3-.7.7-.7.3.1.6.4.6.7zm-1.2 7.5v-5.8h1.1v5.8h-1.1zM160.2 491.1c-.3.1-.9.3-1.7.3-1.8 0-2.9-1.2-2.9-3s1.2-3.1 3.1-3.1c.6 0 1.2.2 1.5.3l-.2.8c-.3-.1-.6-.3-1.2-.3-1.3 0-2.1 1-2.1 2.2 0 1.3.9 2.2 2 2.2.6 0 1-.2 1.3-.3l.2.9zM164 483.4c.5-.1 1.3-.2 2-.2 1.1 0 1.8.2 2.3.7.4.4.6.9.6 1.5 0 1.1-.7 1.8-1.5 2.1.6.2 1 .8 1.2 1.6.3 1.1.5 1.9.6 2.2h-1.1c-.1-.2-.3-.9-.5-1.9-.2-1.1-.7-1.5-1.6-1.6h-1v3.5h-1v-7.9zm1 3.7h1.1c1.1 0 1.8-.6 1.8-1.5 0-1-.8-1.5-1.9-1.5-.5 0-.9 0-1 .1v2.9zM171 488.6c0 1.4.9 2 2 2 .8 0 1.2-.1 1.6-.3l.2.8c-.4.2-1 .4-1.9.4-1.8 0-2.9-1.2-2.9-2.9s1-3.1 2.7-3.1c1.9 0 2.4 1.7 2.4 2.7v.5H171zm3.1-.7c0-.7-.3-1.7-1.5-1.7-1.1 0-1.5 1-1.6 1.7h3.1zM176.3 490.3c.3.2.9.4 1.4.4.8 0 1.1-.4 1.1-.9s-.3-.8-1.1-1.1c-1-.4-1.5-.9-1.5-1.6 0-.9.8-1.7 2-1.7.6 0 1.1.2 1.4.4l-.3.8c-.2-.1-.6-.3-1.2-.3s-1 .4-1 .8c0 .5.3.7 1.1 1 1 .4 1.5.9 1.5 1.8 0 1-.8 1.7-2.2 1.7-.6 0-1.2-.2-1.6-.4l.4-.9zM181.2 487.4v-1.9h.9v1c.4-.7 1.1-1.1 2.1-1.1 1.4 0 2.5 1.2 2.5 3 0 2.1-1.3 3.1-2.6 3.1-.8 0-1.4-.3-1.8-.9v3.2h-1v-6.4zm1.1 1.6v.4c.2.7.8 1.2 1.6 1.2 1.1 0 1.8-.9 1.8-2.2 0-1.2-.6-2.2-1.7-2.2-.7 0-1.4.5-1.6 1.3 0 .1-.1.3-.1.4v1.1zM193.3 488.4c0 2.1-1.5 3.1-2.9 3.1-1.6 0-2.8-1.2-2.8-3 0-1.9 1.3-3.1 2.9-3.1 1.7 0 2.8 1.2 2.8 3zm-4.6.1c0 1.3.7 2.2 1.8 2.2 1 0 1.8-.9 1.8-2.3 0-1-.5-2.2-1.7-2.2-1.4 0-1.9 1.2-1.9 2.3zM194.6 487.1v-1.6h.9l.1 1c.3-.6 1-1.1 1.9-1.1.8 0 2.1.5 2.1 2.5v3.5h-1.1V488c0-.9-.3-1.7-1.3-1.7-.7 0-1.2.5-1.4 1.1 0 .1-.1.3-.1.5v3.5h-1.1v-4.3zM201.1 490.3c.3.2.9.4 1.4.4.8 0 1.1-.4 1.1-.9s-.3-.8-1.1-1.1c-1-.4-1.5-.9-1.5-1.6 0-.9.8-1.7 2-1.7.6 0 1.1.2 1.4.4l-.3.8c-.2-.1-.6-.3-1.2-.3s-1 .4-1 .8c0 .5.3.7 1.1 1 1 .4 1.5.9 1.5 1.8 0 1-.8 1.7-2.2 1.7-.6 0-1.2-.2-1.6-.4l.4-.9zM206.6 488.6c0 1.4.9 2 2 2 .8 0 1.2-.1 1.6-.3l.2.8c-.4.2-1 .4-1.9.4-1.8 0-2.9-1.2-2.9-2.9s1-3.1 2.7-3.1c1.9 0 2.4 1.7 2.4 2.7v.5h-4.1zm3.1-.7c0-.7-.3-1.7-1.5-1.7-1.1 0-1.5 1-1.6 1.7h3.1zM211.8 486.5c0-.4.3-.8.7-.8s.7.3.7.8c0 .4-.3.7-.7.7-.4.1-.7-.3-.7-.7zm0 4.2c0-.4.3-.8.7-.8s.7.3.7.8c0 .4-.3.7-.7.7-.4.1-.7-.2-.7-.7zM217.1 483.4c.5-.1 1.3-.2 2-.2 1.1 0 1.8.2 2.3.7.4.4.6.9.6 1.5 0 1.1-.7 1.8-1.5 2.1.6.2 1 .8 1.2 1.6.3 1.1.5 1.9.6 2.2h-1.1c-.1-.2-.3-.9-.5-1.9-.2-1.1-.7-1.5-1.6-1.6h-1v3.5h-1v-7.9zm1.1 3.7h1.1c1.1 0 1.8-.6 1.8-1.5 0-1-.8-1.5-1.9-1.5-.5 0-.9 0-1 .1v2.9zM224.2 488.6c0 1.4.9 2 2 2 .8 0 1.2-.1 1.6-.3l.2.8c-.4.2-1 .4-1.9.4-1.8 0-2.9-1.2-2.9-2.9s1-3.1 2.7-3.1c1.9 0 2.4 1.7 2.4 2.7v.5h-4.1zm3.1-.7c0-.7-.3-1.7-1.5-1.7-1.1 0-1.5 1-1.6 1.7h3.1zM232.8 491.4l-.1-.7c-.3.5-.9.9-1.8.9-1.2 0-1.8-.8-1.8-1.7 0-1.4 1.2-2.2 3.5-2.2v-.1c0-.5-.1-1.3-1.3-1.3-.5 0-1.1.2-1.5.4l-.2-.7c.5-.3 1.2-.5 1.9-.5 1.8 0 2.2 1.2 2.2 2.4v2.2c0 .5 0 1 .1 1.4h-1zm-.2-3c-1.2 0-2.5.2-2.5 1.3 0 .7.5 1 1 1 .8 0 1.2-.5 1.4-1 0-.1.1-.2.1-.3v-1zM239.5 491.1c-.3.1-.9.3-1.7.3-1.8 0-2.9-1.2-2.9-3s1.2-3.1 3.1-3.1c.6 0 1.2.2 1.5.3l-.2.8c-.3-.1-.6-.3-1.2-.3-1.3 0-2.1 1-2.1 2.2 0 1.3.9 2.2 2 2.2.6 0 1-.2 1.3-.3l.2.9zM242.2 483.9v1.7h1.5v.8h-1.5v3.1c0 .7.2 1.1.8 1.1.3 0 .5 0 .6-.1v.8c-.2.1-.5.1-.9.1-.5 0-.9-.2-1.1-.4-.3-.3-.4-.8-.4-1.5v-3.2h-.9v-.8h.9v-1.4l1-.2zM250.6 491.4l-.1-.7c-.3.5-.9.9-1.8.9-1.2 0-1.8-.8-1.8-1.7 0-1.4 1.2-2.2 3.5-2.2v-.1c0-.5-.1-1.3-1.3-1.3-.5 0-1.1.2-1.5.4l-.2-.7c.5-.3 1.2-.5 1.9-.5 1.8 0 2.2 1.2 2.2 2.4v2.2c0 .5 0 1 .1 1.4h-1zm-.1-3c-1.2 0-2.5.2-2.5 1.3 0 .7.5 1 1 1 .8 0 1.2-.5 1.4-1 0-.1.1-.2.1-.3v-1zM253.2 487.1v-1.6h.9l.1 1c.3-.6 1-1.1 1.9-1.1.8 0 2.1.5 2.1 2.5v3.5h-1.1V488c0-.9-.3-1.7-1.3-1.7-.7 0-1.2.5-1.4 1.1 0 .1-.1.3-.1.5v3.5h-1.1v-4.3zM264.9 482.8v8.5h-.9v-1c-.3.6-1 1.1-2 1.1-1.4 0-2.5-1.2-2.5-3 0-1.9 1.2-3.1 2.6-3.1.9 0 1.5.4 1.8.9v-3.5h1zm-1.1 5.1v-.4c-.2-.7-.7-1.2-1.5-1.2-1.1 0-1.7 1-1.7 2.2 0 1.2.6 2.1 1.7 2.1.7 0 1.4-.5 1.5-1.3v-1.4zM269.2 483.4c.5-.1 1.3-.2 2-.2 1.1 0 1.8.2 2.3.7.4.4.6.9.6 1.5 0 1.1-.7 1.8-1.5 2.1.6.2 1 .8 1.2 1.6.3 1.1.5 1.9.6 2.2h-1.1c-.1-.2-.3-.9-.5-1.9-.2-1.1-.7-1.5-1.6-1.6h-1v3.5h-1v-7.9zm1.1 3.7h1.1c1.1 0 1.8-.6 1.8-1.5 0-1-.8-1.5-1.9-1.5-.5 0-.9 0-1 .1v2.9zM276.3 488.6c0 1.4.9 2 2 2 .8 0 1.2-.1 1.6-.3l.2.8c-.4.2-1 .4-1.9.4-1.8 0-2.9-1.2-2.9-2.9s1-3.1 2.7-3.1c1.9 0 2.4 1.7 2.4 2.7v.5h-4.1zm3.1-.7c0-.7-.3-1.7-1.5-1.7-1.1 0-1.5 1-1.6 1.7h3.1zM281.5 490.3c.3.2.9.4 1.4.4.8 0 1.1-.4 1.1-.9s-.3-.8-1.1-1.1c-1-.4-1.5-.9-1.5-1.6 0-.9.8-1.7 2-1.7.6 0 1.1.2 1.4.4l-.3.8c-.2-.1-.6-.3-1.2-.3s-1 .4-1 .8c0 .5.3.7 1.1 1 1 .4 1.5.9 1.5 1.8 0 1-.8 1.7-2.2 1.7-.6 0-1.2-.2-1.6-.4l.4-.9zM286.4 487.4v-1.9h.9v1c.4-.7 1.1-1.1 2.1-1.1 1.4 0 2.5 1.2 2.5 3 0 2.1-1.3 3.1-2.6 3.1-.8 0-1.4-.3-1.8-.9v3.2h-1v-6.4zm1.1 1.6v.4c.2.7.8 1.2 1.6 1.2 1.1 0 1.8-.9 1.8-2.2 0-1.2-.6-2.2-1.7-2.2-.7 0-1.4.5-1.6 1.3 0 .1-.1.3-.1.4v1.1zM298.5 488.4c0 2.1-1.5 3.1-2.9 3.1-1.6 0-2.8-1.2-2.8-3 0-1.9 1.3-3.1 2.9-3.1 1.7 0 2.8 1.2 2.8 3zm-4.6.1c0 1.3.7 2.2 1.8 2.2 1 0 1.8-.9 1.8-2.3 0-1-.5-2.2-1.7-2.2s-1.9 1.2-1.9 2.3zM299.9 487.1v-1.6h.9l.1 1c.3-.6 1-1.1 1.9-1.1.8 0 2.1.5 2.1 2.5v3.5h-1.1V488c0-.9-.3-1.7-1.3-1.7-.7 0-1.2.5-1.4 1.1 0 .1-.1.3-.1.5v3.5h-1.1v-4.3zM311.5 482.8v8.5h-.9v-1c-.3.6-1 1.1-2 1.1-1.4 0-2.5-1.2-2.5-3 0-1.9 1.2-3.1 2.6-3.1.9 0 1.5.4 1.8.9v-3.5h1zm-1 5.1v-.4c-.2-.7-.7-1.2-1.5-1.2-1.1 0-1.7 1-1.7 2.2 0 1.2.6 2.1 1.7 2.1.7 0 1.4-.5 1.5-1.3v-1.4zM312.5 492.8c.3-.7.6-2 .7-2.9l1.2-.1c-.3 1-.8 2.4-1.1 2.9l-.8.1zM315.6 483.1c-.3 1-.8 2.3-1.1 2.8l-.7.1c.3-.7.6-2 .7-2.8l1.1-.1zm1.8 0c-.3 1-.8 2.3-1.1 2.8l-.7.1c.3-.7.6-2 .7-2.8l1.1-.1zM321.4 488.8l-.8 2.5h-1.1l2.7-8.1h1.3l2.8 8.1h-1.1l-.9-2.5h-2.9zm2.7-.8-.8-2.3c-.2-.5-.3-1-.4-1.5-.1.5-.3 1-.4 1.5l-.8 2.3h2.4zM332.5 488.4c0 2.1-1.5 3.1-2.9 3.1-1.6 0-2.8-1.2-2.8-3 0-1.9 1.3-3.1 2.9-3.1 1.7 0 2.8 1.2 2.8 3zm-4.6.1c0 1.3.7 2.2 1.8 2.2 1 0 1.8-.9 1.8-2.3 0-1-.5-2.2-1.7-2.2s-1.9 1.2-1.9 2.3zM333.8 487.1v-1.6h.9l.1 1c.3-.6 1-1.1 1.9-1.1.8 0 2.1.5 2.1 2.5v3.5h-1.1V488c0-.9-.3-1.7-1.3-1.7-.7 0-1.2.5-1.4 1.1 0 .1-.1.3-.1.5v3.5h-1.1v-4.3z"/></g></switch></svg>