<?xml version="1.0" encoding="utf-8"?>
<!-- Generator: Adobe Illustrator 26.0.0, SVG Export Plug-In . SVG Version: 6.00 Build 0)  -->
<svg version="1.1" id="Layer_1" xmlns="http://www.w3.org/2000/svg" xmlns:xlink="http://www.w3.org/1999/xlink" x="0px" y="0px"
	 viewBox="0 0 540 5306.9" style="enable-background:new 0 0 540 5306.9;" xml:space="preserve">
<style type="text/css">
	.Drop_x0020_Shadow{fill:none;}
	.Outer_x0020_Glow_x0020_5_x0020_pt{fill:none;}
	.Jive_GS{fill:#A5CFE3;}
	.st0{fill:none;stroke:#E11B22;stroke-width:3;stroke-miterlimit:10;}
	.st1{fill:none;}
	.st2{fill:#E11B22;}
	.st3{font-family:'PreloSlab-Bold';}
	.st4{font-size:24px;}
	.st5{fill:none;stroke:#E11B22;stroke-width:2;stroke-linecap:round;stroke-linejoin:round;stroke-miterlimit:10;}
	.st6{font-size:18px;}
	.st7{fill:#231F20;}
	.st8{font-family:'PreloSlab-Book';}
	.st9{opacity:0.54;fill:#5FB9E4;stroke:#E11B22;stroke-width:4;stroke-miterlimit:10;}
	.st10{fill:none;stroke:#E11B22;stroke-width:4;stroke-miterlimit:10;}
</style>
<rect x="2.5" y="2.8" class="st0" width="532.7" height="5294.9"/>
<g>
	<g>
		<rect x="27.1" y="29.7" class="st1" width="461.6" height="25.2"/>
		<text transform="matrix(1 0 0 1 27.1162 49.866)" class="st2 st3 st4">Eight Emerging, Evolving EPLI Exposures</text>
	</g>
</g>
<line class="st5" x1="27.6" y1="76.3" x2="278.6" y2="76.3"/>
<rect x="117.7" y="118.5" class="st1" width="313.8" height="20.1"/>
<text transform="matrix(1 0 0 1 117.738 133.5804)" class="st2 st3 st6">Returning to office following COVID-19</text>
<rect x="117.7" y="159.1" class="st1" width="392" height="441.3"/>
<text transform="matrix(1 0 0 1 117.738 174.2195)"><tspan x="0" y="0" class="st7 st8 st6">After a number of stops and starts in 2021, </tspan><tspan x="0" y="21.6" class="st7 st8 st6">employers are in the midst of bringing employees </tspan><tspan x="0" y="43.2" class="st7 st8 st6">back to their workplaces. There are several </tspan><tspan x="0" y="64.8" class="st7 st8 st6">potential COVID-19-related exposures that may </tspan><tspan x="0" y="86.4" class="st7 st8 st6">emerge as organizations reopen their offices with </tspan><tspan x="0" y="108" class="st7 st8 st6">uncertainty around the vaccination status of their </tspan><tspan x="0" y="129.6" class="st7 st8 st6">workforce, including disability discrimination, </tspan><tspan x="0" y="151.2" class="st7 st8 st6">emotional distress claims, wrongful terminations </tspan><tspan x="0" y="172.8" class="st7 st8 st6">and retaliation, age discrimination, labor unrest, </tspan><tspan x="0" y="194.4" class="st7 st8 st6">failure to protect and wrongful death.</tspan><tspan x="0" y="216" class="st7 st8 st6"> </tspan><tspan x="0" y="237.6" class="st7 st8 st6">As a best practice, employers should review their </tspan><tspan x="0" y="259.2" class="st7 st8 st6">EPLI policy to assess whether it will respond to </tspan><tspan x="0" y="280.8" class="st7 st8 st6">these evolving COVID-19-related issues in </tspan><tspan x="0" y="302.4" class="st7 st8 st6">respect of employment matters. To assess </tspan><tspan x="0" y="324" class="st7 st8 st6">coverage for any potential claims, EPLI policies </tspan><tspan x="0" y="345.6" class="st7 st8 st6">should be reviewed for Bodily Injury/Property </tspan><tspan x="0" y="367.2" class="st7 st8 st6">Damage (BI/PD) exclusions and potential </tspan><tspan x="0" y="388.8" class="st7 st8 st6">carve-backs. Coverage would depend on the </tspan><tspan x="0" y="410.4" class="st7 st8 st6">language used in the policy.</tspan></text>
<g>
	<rect x="37" y="104.7" class="st9" width="45.8" height="45.8"/>
	<g>
		<g>
			<g>
			</g>
		</g>
		<path class="st2" d="M63.1,142.5c-1.5,0-3-0.7-4-1.9l-12.8-14.9c-1.9-2.2-1.7-5.6,0.6-7.5c2.2-1.9,5.6-1.7,7.5,0.6l8.4,9.7
			l26.4-31.8c4.1-5.7,8.4-2.6,4.3,3.2l-25.9,40.3c-1,1.3-2.5,2.2-4.1,2.2C63.3,142.5,63.2,142.5,63.1,142.5z"/>
	</g>
</g>
<rect x="117.7" y="645.7" class="st1" width="313.8" height="20.1"/>
<text transform="matrix(1 0 0 1 117.738 660.785)" class="st2 st3 st6">Cannabis and the workplace</text>
<rect x="117.7" y="686.3" class="st1" width="392" height="323.7"/>
<text transform="matrix(1 0 0 1 117.738 701.4241)"><tspan x="0" y="0" class="st7 st8 st6">Medical and recreational marijuana continues to </tspan><tspan x="0" y="21.6" class="st7 st8 st6">be a thorny issue in the workplace following the </tspan><tspan x="0" y="43.2" class="st7 st8 st6">legalization of marijuana in Canada and select U.S. </tspan><tspan x="0" y="64.8" class="st7 st8 st6">states. Employers must walk a fine line between </tspan><tspan x="0" y="86.4" class="st7 st8 st6">compliance with employment law protecting </tspan><tspan x="0" y="108" class="st7 st8 st6">employee rights, a patchwork of federal, state and </tspan><tspan x="0" y="129.6" class="st7 st8 st6">provincial laws that prohibit working under the </tspan><tspan x="0" y="151.2" class="st7 st8 st6">influence of marijuana and their own company </tspan><tspan x="0" y="172.8" class="st7 st8 st6">drug use and safety policies. EPLI policies can </tspan><tspan x="0" y="194.4" class="st7 st8 st6">provide coverage for a host of accusations that </tspan><tspan x="0" y="216" class="st7 st8 st6">may arise resulting from the intersection of </tspan><tspan x="0" y="237.6" class="st7 st8 st6">cannabis and the workplace, spanning from </tspan><tspan x="0" y="259.2" class="st7 st8 st6">discrimination based on a disability to wrongful </tspan><tspan x="0" y="280.8" class="st7 st8 st6">dismissal allegations.</tspan></text>
<g>
	<rect x="37" y="631.9" class="st9" width="45.8" height="45.8"/>
	<g>
		<g>
			<g>
			</g>
		</g>
		<path class="st2" d="M63.1,669.7c-1.5,0-3-0.7-4-1.9l-12.8-14.9c-1.9-2.2-1.7-5.6,0.6-7.5c2.2-1.9,5.6-1.7,7.5,0.6l8.4,9.7
			l26.4-31.8c4.1-5.7,8.4-2.6,4.3,3.2l-25.9,40.3c-1,1.3-2.5,2.2-4.1,2.2C63.3,669.7,63.2,669.7,63.1,669.7z"/>
	</g>
</g>
<rect x="117.7" y="1050.1" class="st1" width="313.8" height="20.1"/>
<text transform="matrix(1 0 0 1 117.738 1065.2203)" class="st2 st3 st6">Sexual harassment</text>
<rect x="117.7" y="1090.7" class="st1" width="392" height="751.5"/>
<text transform="matrix(1 0 0 1 117.738 1105.8594)"><tspan x="0" y="0" class="st7 st8 st6">In the midst of continued worldwide focus on </tspan><tspan x="0" y="21.6" class="st7 st8 st6">sexual harassment allegations in the workplace, </tspan><tspan x="0" y="43.2" class="st7 st8 st6">various Canadian jurisdictions have created </tspan><tspan x="0" y="64.8" class="st7 st8 st6">statutory obligations for companies to investigate </tspan><tspan x="0" y="86.4" class="st7 st8 st6">and address workplace harassment complaints, </tspan><tspan x="0" y="108" class="st7 st8 st6">and to develop and maintain programs and </tspan><tspan x="0" y="129.6" class="st7 st8 st6">policies that explicitly address sexual </tspan><tspan x="0" y="151.2" class="st7 st8 st6">harassment. In Ontario, for example, this came in </tspan><tspan x="0" y="172.8" class="st7 st8 st6">the form of amendments to the province’s </tspan><tspan x="0" y="194.4" class="st7 st8 st6">Occupational Health and Safety Act (OHSA). An </tspan><tspan x="0" y="216" class="st7 st8 st6">employer’s failure to comply can result in a </tspan><tspan x="0" y="237.6" class="st7 st8 st6">mandated third-party investigation and report at </tspan><tspan x="0" y="259.2" class="st7 st8 st6">the company’s expense, or a hefty fine. Although </tspan><tspan x="0" y="280.8" class="st7 st8 st6">most EPLI policies exclude violations of the OHSA, </tspan><tspan x="0" y="302.4" class="st7 st8 st6">and its associated fines and penalties, some EPLI </tspan><tspan x="0" y="324" class="st7 st8 st6">programs will respond to provide certain </tspan><tspan x="0" y="345.6" class="st7 st8 st6">indemnity and defense costs coverage in the </tspan><tspan x="0" y="367.2" class="st7 st8 st6">event a company is faced with a civil lawsuit </tspan><tspan x="0" y="388.8" class="st7 st8 st6">alleging harassment or sexual harassment.</tspan><tspan x="0" y="410.4" class="st7 st8 st6">  </tspan><tspan x="0" y="432" class="st7 st8 st6">Meanwhile, in the U.S., local, state and federal laws </tspan><tspan x="0" y="453.6" class="st7 st8 st6">offer a variety of prohibitions against sexual </tspan><tspan x="0" y="475.2" class="st7 st8 st6">harassment differing mostly in the type of </tspan><tspan x="0" y="496.8" class="st7 st8 st6">available damages, but also regarding mandatory </tspan><tspan x="0" y="518.4" class="st7 st8 st6">training requirements in some states. State and </tspan><tspan x="0" y="540" class="st7 st8 st6">local laws often provide the plaintiffs’ bar with </tspan><tspan x="0" y="561.6" class="st7 st8 st6">uncapped damage and punitive damage award </tspan><tspan x="0" y="583.2" class="st7 st8 st6">potential, making it more common that these </tspan><tspan x="0" y="604.8" class="st7 st8 st6">suits are brought under state and local laws.  </tspan><tspan x="0" y="626.4" class="st7 st8 st6">However, similarly complex state insurance laws </tspan><tspan x="0" y="648" class="st7 st8 st6">require careful analysis to ensure EPLI policies </tspan><tspan x="0" y="669.6" class="st7 st8 st6">can respond to these types of punitive and </tspan><tspan x="0" y="691.2" class="st7 st8 st6">intentional act-related awards.</tspan></text>
<g>
	<rect x="37" y="1036.3" class="st9" width="45.8" height="45.8"/>
	<g>
		<g>
			<g>
			</g>
		</g>
		<path class="st2" d="M63.1,1074.1c-1.5,0-3-0.7-4-1.9l-12.8-14.9c-1.9-2.2-1.7-5.6,0.6-7.5c2.2-1.9,5.6-1.7,7.5,0.6l8.4,9.7
			l26.4-31.8c4.1-5.7,8.4-2.6,4.3,3.2l-25.9,40.3c-1,1.3-2.5,2.2-4.1,2.2C63.3,1074.1,63.2,1074.1,63.1,1074.1z"/>
	</g>
</g>
<rect x="117.7" y="1867" class="st1" width="313.8" height="20.1"/>
<text transform="matrix(1 0 0 1 117.738 1882.1523)" class="st2 st3 st6">Invasion of privacy</text>
<rect x="117.7" y="1907.7" class="st1" width="392" height="853.6"/>
<text transform="matrix(1 0 0 1 117.738 1922.7914)"><tspan x="0" y="0" class="st7 st8 st6">Various privacy-related torts have been </tspan><tspan x="0" y="21.6" class="st7 st8 st6">recognized in recent years in Canadian </tspan><tspan x="0" y="43.2" class="st7 st8 st6">jurisdictions. With the broadening of privacy </tspan><tspan x="0" y="64.8" class="st7 st8 st6">rights, employers must be careful in balancing </tspan><tspan x="0" y="86.4" class="st7 st8 st6">employees’ reasonable expectations of privacy </tspan><tspan x="0" y="108" class="st7 st8 st6">and, for instance, surveillance and searches or </tspan><tspan x="0" y="129.6" class="st7 st8 st6">public announcements or statements  </tspan><tspan x="0" y="151.2" class="st7 st8 st6">involving employees. </tspan><tspan x="0" y="194.4" class="st7 st8 st6">In the U.S., there have been two significant trends </tspan><tspan x="0" y="216" class="st7 st8 st6">in the area of employee privacy. The first relates </tspan><tspan x="0" y="237.6" class="st7 st8 st6">to the capture of biometric information from </tspan><tspan x="0" y="259.2" class="st7 st8 st6">employees such as eye scans, fingerprints or the </tspan><tspan x="0" y="280.8" class="st7 st8 st6">use of facial recognition software. In Illinois in </tspan><tspan x="0" y="302.4" class="st7 st8 st6">particular, but also in a growing number of other </tspan><tspan x="0" y="324" class="st7 st8 st6">states, laws have been passed to make the </tspan><tspan x="0" y="345.6" class="st7 st8 st6">capture of such information illegal without the </tspan><tspan x="0" y="367.2" class="st7 st8 st6">written authorization of the employee. Many </tspan><tspan x="0" y="388.8" class="st7 st8 st6">employee class actions have been brought in </tspan><tspan x="0" y="410.4" class="st7 st8 st6">Illinois under its Biometric Information Projection </tspan><tspan x="0" y="432" class="st7 st8 st6">Act (BIPA). The COVID-19 pandemic has been </tspan><tspan x="0" y="453.6" class="st7 st8 st6">another area of significant employee privacy </tspan><tspan x="0" y="475.2" class="st7 st8 st6">concern. Both contact tracing as a result of an </tspan><tspan x="0" y="496.8" class="st7 st8 st6">infection and the growing push for employers to </tspan><tspan x="0" y="518.4" class="st7 st8 st6">learn whether employees have obtained the </tspan><tspan x="0" y="540" class="st7 st8 st6">COVID-19 vaccine have increased the likelihood of </tspan><tspan x="0" y="561.6" class="st7 st8 st6">privacy-related lawsuits in this area as well.  </tspan><tspan x="0" y="604.8" class="st7 st8 st6">Many EPLI policies provide some measure of </tspan><tspan x="0" y="626.4" class="st7 st8 st6">coverage for invasion of privacy claims, although </tspan><tspan x="0" y="648" class="st7 st8 st6">the extent of coverage varies among carriers and </tspan><tspan x="0" y="669.6" class="st7 st8 st6">may differ depending on whether the insured is a </tspan><tspan x="0" y="691.2" class="st7 st8 st6">public or private company. Recently, given the </tspan><tspan x="0" y="712.8" class="st7 st8 st6">rise in BIPA-related lawsuits, some carriers have </tspan><tspan x="0" y="734.4" class="st7 st8 st6">begun to actively look to either underwrite or </tspan><tspan x="0" y="756" class="st7 st8 st6">exclude coverage for biometric </tspan><tspan x="0" y="777.6" class="st7 st8 st6">information-related matters.</tspan></text>
<g>
	<rect x="37" y="1853.3" class="st9" width="45.8" height="45.8"/>
	<g>
		<g>
			<g>
			</g>
		</g>
		<path class="st2" d="M63.1,1891.1c-1.5,0-3-0.7-4-1.9l-12.8-14.9c-1.9-2.2-1.7-5.6,0.6-7.5c2.2-1.9,5.6-1.7,7.5,0.6l8.4,9.7
			l26.4-31.8c4.1-5.7,8.4-2.6,4.3,3.2l-25.9,40.3c-1,1.3-2.5,2.2-4.1,2.2C63.3,1891.1,63.2,1891.1,63.1,1891.1z"/>
	</g>
</g>
<rect x="117.7" y="2786" class="st1" width="313.8" height="20.1"/>
<text transform="matrix(1 0 0 1 117.738 2801.1631)" class="st2 st3 st6">Evolving grounds of discrimination</text>
<rect x="117.7" y="2826.7" class="st1" width="392" height="460.5"/>
<text transform="matrix(1 0 0 1 117.738 2841.8022)"><tspan x="0" y="0" class="st7 st8 st6">Traditionally, discrimination claims based on </tspan><tspan x="0" y="21.6" class="st7 st8 st6">race, ethnicity and age have been commonly </tspan><tspan x="0" y="43.2" class="st7 st8 st6">covered under EPLI policies, but insurance and </tspan><tspan x="0" y="64.8" class="st7 st8 st6">legal practitioners are expecting to see an uptick </tspan><tspan x="0" y="86.4" class="st7 st8 st6">in litigation in more recent grounds of human </tspan><tspan x="0" y="108" class="st7 st8 st6">rights discrimination as well. In recent years, </tspan><tspan x="0" y="129.6" class="st7 st8 st6">legislation has evolved to both recognize </tspan><tspan x="0" y="151.2" class="st7 st8 st6">expanding rights such as LGBTQ+ rights and </tspan><tspan x="0" y="172.8" class="st7 st8 st6">gender identity, as well as realities such as </tspan><tspan x="0" y="194.4" class="st7 st8 st6">work-life balance. It is vital for EPLI policies to </tspan><tspan x="0" y="216" class="st7 st8 st6">respond in the event of discrimination based on, </tspan><tspan x="0" y="237.6" class="st7 st8 st6">among other things, sexual orientation, </tspan><tspan x="0" y="259.2" class="st7 st8 st6">transgender status, or gender dysphoria. Equally </tspan><tspan x="0" y="280.8" class="st7 st8 st6">important is coverage for other grounds of </tspan><tspan x="0" y="302.4" class="st7 st8 st6">discrimination such as family status (expressly </tspan><tspan x="0" y="324" class="st7 st8 st6">recognized by the Canadian Human Rights </tspan><tspan x="0" y="345.6" class="st7 st8 st6">Tribunal). EPLI policies typically provide broad </tspan><tspan x="0" y="367.2" class="st7 st8 st6">coverage in this regard, which in most cases will </tspan><tspan x="0" y="388.8" class="st7 st8 st6">extend to cover claims stemming from these </tspan><tspan x="0" y="410.4" class="st7 st8 st6">novel bases of discrimination.</tspan></text>
<g>
	<rect x="37" y="2772.3" class="st9" width="45.8" height="45.8"/>
	<g>
		<g>
			<g>
			</g>
		</g>
		<path class="st2" d="M63.1,2810.1c-1.5,0-3-0.7-4-1.9l-12.8-14.9c-1.9-2.2-1.7-5.6,0.6-7.5c2.2-1.9,5.6-1.7,7.5,0.6l8.4,9.7
			l26.4-31.8c4.1-5.7,8.4-2.6,4.3,3.2l-25.9,40.3c-1,1.3-2.5,2.2-4.1,2.2C63.3,2810.1,63.2,2810.1,63.1,2810.1z"/>
	</g>
</g>
<rect x="117.7" y="3312" class="st1" width="313.8" height="20.1"/>
<text transform="matrix(1 0 0 1 117.738 3327.1165)" class="st2 st3 st6">Employee termination</text>
<rect x="117.7" y="3352.6" class="st1" width="392" height="653.1"/>
<text transform="matrix(1 0 0 1 117.738 3367.7556)"><tspan x="0" y="0" class="st7 st8 st6">Termination of an employee can come with </tspan><tspan x="0" y="21.6" class="st7 st8 st6">potential risk and litigation if not conducted </tspan><tspan x="0" y="43.2" class="st7 st8 st6">carefully. In Canada, claims for wrongful </tspan><tspan x="0" y="64.8" class="st7 st8 st6">dismissal are generally accompanied by disputes </tspan><tspan x="0" y="86.4" class="st7 st8 st6">over the amount of pay-in-lieu of notice to </tspan><tspan x="0" y="108" class="st7 st8 st6">which a terminated employee is entitled. </tspan><tspan x="0" y="129.6" class="st7 st8 st6">Notably, common law notice periods in Canada </tspan><tspan x="0" y="151.2" class="st7 st8 st6">have recently increased to an upper threshold of </tspan><tspan x="0" y="172.8" class="st7 st8 st6">26 months. In the U.S., wrongful termination </tspan><tspan x="0" y="194.4" class="st7 st8 st6">claims can take many forms even with its </tspan><tspan x="0" y="216" class="st7 st8 st6">supposed employment at-will nature of the </tspan><tspan x="0" y="237.6" class="st7 st8 st6">employee relationship.</tspan><tspan x="0" y="259.2" class="st7 st8 st6"> </tspan><tspan x="0" y="280.8" class="st7 st8 st6">The Canadian EPLI market now offers coverage </tspan><tspan x="0" y="302.4" class="st7 st8 st6">by some carriers, subject to terms and </tspan><tspan x="0" y="324" class="st7 st8 st6">conditions, for some of the wages ultimately </tspan><tspan x="0" y="345.6" class="st7 st8 st6">awarded by a court that are over and above the </tspan><tspan x="0" y="367.2" class="st7 st8 st6">statutory minimums required by legislation, or </tspan><tspan x="0" y="388.8" class="st7 st8 st6">the amount that is offered to the employee at or </tspan><tspan x="0" y="410.4" class="st7 st8 st6">after the time of termination. </tspan><tspan x="0" y="453.6" class="st7 st8 st6">In the U.S., wrongful termination is broadly </tspan><tspan x="0" y="475.2" class="st7 st8 st6">covered because the damages are much less </tspan><tspan x="0" y="496.8" class="st7 st8 st6">formulaic and statutory based than in Canada. </tspan><tspan x="0" y="518.4" class="st7 st8 st6">Therefore, wrongful termination claims are a </tspan><tspan x="0" y="540" class="st7 st8 st6">major source of exposure addressed by EPLI in </tspan><tspan x="0" y="561.6" class="st7 st8 st6">the U.S.</tspan></text>
<g>
	<rect x="37" y="3298.2" class="st9" width="45.8" height="45.8"/>
	<g>
		<g>
			<g>
			</g>
		</g>
		<path class="st2" d="M63.1,3336c-1.5,0-3-0.7-4-1.9l-12.8-14.9c-1.9-2.2-1.7-5.6,0.6-7.5c2.2-1.9,5.6-1.7,7.5,0.6l8.4,9.7
			l26.4-31.8c4.1-5.7,8.4-2.6,4.3,3.2l-25.9,40.3c-1,1.3-2.5,2.2-4.1,2.2C63.3,3336,63.2,3336,63.1,3336z"/>
	</g>
</g>
<rect x="117.7" y="4023.4" class="st1" width="313.8" height="20.1"/>
<text transform="matrix(1 0 0 1 117.738 4038.4871)" class="st2 st3 st6">Dependent contractors</text>
<rect x="117.7" y="4064" class="st1" width="392" height="795.5"/>
<text transform="matrix(1 0 0 1 117.738 4079.1262)"><tspan x="0" y="0" class="st7 st8 st6">Dependent contractors find themselves </tspan><tspan x="0" y="21.6" class="st7 st8 st6">somewhere on the job classification spectrum </tspan><tspan x="0" y="43.2" class="st7 st8 st6">between employees and independent </tspan><tspan x="0" y="64.8" class="st7 st8 st6">contractors. Canadian courts have generally </tspan><tspan x="0" y="86.4" class="st7 st8 st6">classified a dependent contractor as an </tspan><tspan x="0" y="108" class="st7 st8 st6">individual who works for themselves but </tspan><tspan x="0" y="129.6" class="st7 st8 st6">provides consistent and regular services to one </tspan><tspan x="0" y="151.2" class="st7 st8 st6">or a limited number of organizations. As a result, </tspan><tspan x="0" y="172.8" class="st7 st8 st6">that individual is entitled to many of the same </tspan><tspan x="0" y="194.4" class="st7 st8 st6">rights as an employee. Traditionally, EPLI polices </tspan><tspan x="0" y="216" class="st7 st8 st6">did not extend to cover individuals in these </tspan><tspan x="0" y="237.6" class="st7 st8 st6">positions. However, the Canada insurance </tspan><tspan x="0" y="259.2" class="st7 st8 st6">market has begun to move in a favorable </tspan><tspan x="0" y="280.8" class="st7 st8 st6">direction for insureds, with policies now </tspan><tspan x="0" y="302.4" class="st7 st8 st6">providing coverage for claims involving </tspan><tspan x="0" y="324" class="st7 st8 st6">dependent contractors.</tspan><tspan x="0" y="345.6" class="st7 st8 st6">  </tspan><tspan x="0" y="367.2" class="st7 st8 st6">In the U.S., the advent of the gig economy has </tspan><tspan x="0" y="388.8" class="st7 st8 st6">resulted in a blurring of the spectrum between </tspan><tspan x="0" y="410.4" class="st7 st8 st6">independent contractors and employees as well. </tspan><tspan x="0" y="432" class="st7 st8 st6">In response, employment laws have tended to </tspan><tspan x="0" y="453.6" class="st7 st8 st6">make it easier for workers who have entered </tspan><tspan x="0" y="475.2" class="st7 st8 st6">into clear agreements stating they are not </tspan><tspan x="0" y="496.8" class="st7 st8 st6">employees of a particular organization to sue as </tspan><tspan x="0" y="518.4" class="st7 st8 st6">if they were employees. As a result, brokers have </tspan><tspan x="0" y="540" class="st7 st8 st6">worked diligently with the insurance market to </tspan><tspan x="0" y="561.6" class="st7 st8 st6">seek to expand coverage treating employment </tspan><tspan x="0" y="583.2" class="st7 st8 st6">claims for otherwise covered wrongful acts </tspan><tspan x="0" y="604.8" class="st7 st8 st6">brought by these non-traditional employees to </tspan><tspan x="0" y="626.4" class="st7 st8 st6">be treated as employment claims covered under </tspan><tspan x="0" y="648" class="st7 st8 st6">EPLI policies. That is, as long as the worker is </tspan><tspan x="0" y="669.6" class="st7 st8 st6">claiming to be an employee, which is typically a </tspan><tspan x="0" y="691.2" class="st7 st8 st6">requirement for the plaintiff to allege to bring a </tspan><tspan x="0" y="712.8" class="st7 st8 st6">claim under most U.S. employment laws.</tspan></text>
<g>
	<rect x="37" y="4009.6" class="st9" width="45.8" height="45.8"/>
	<g>
		<g>
			<g>
			</g>
		</g>
		<path class="st2" d="M63.1,4047.4c-1.5,0-3-0.7-4-1.9l-12.8-14.9c-1.9-2.2-1.7-5.6,0.6-7.5c2.2-1.9,5.6-1.7,7.5,0.6l8.4,9.7
			l26.4-31.8c4.1-5.7,8.4-2.6,4.3,3.2l-25.9,40.3c-1,1.3-2.5,2.2-4.1,2.2C63.3,4047.4,63.2,4047.4,63.1,4047.4z"/>
	</g>
</g>
<rect x="117.7" y="4869.3" class="st1" width="313.8" height="20.1"/>
<text transform="matrix(1 0 0 1 117.738 4884.4077)" class="st2 st3 st6">Wage and hour claims</text>
<rect x="117.7" y="4909.9" class="st1" width="392" height="377.5"/>
<text transform="matrix(1 0 0 1 117.738 4925.0469)"><tspan x="0" y="0" class="st7 st8 st6">“Wage and hour” claims have increased in both </tspan><tspan x="0" y="21.6" class="st7 st8 st6">frequency and severity over the past few years.  </tspan><tspan x="0" y="43.2" class="st7 st8 st6">These claims are frequently brought as class </tspan><tspan x="0" y="64.8" class="st7 st8 st6">action lawsuits, with large groups of employees </tspan><tspan x="0" y="86.4" class="st7 st8 st6">seeking millions of dollars in damages for </tspan><tspan x="0" y="108" class="st7 st8 st6">matters such as unpaid wages, unpaid overtime </tspan><tspan x="0" y="129.6" class="st7 st8 st6">and job misclassification leading to wages or </tspan><tspan x="0" y="151.2" class="st7 st8 st6">other benefits owed. To address this exposure, </tspan><tspan x="0" y="172.8" class="st7 st8 st6">coverage for lawsuits related to employee wages </tspan><tspan x="0" y="194.4" class="st7 st8 st6">may be available for larger U.S. and Canadian </tspan><tspan x="0" y="216" class="st7 st8 st6">policyholders who may face significant losses in </tspan><tspan x="0" y="237.6" class="st7 st8 st6">a wage and hour class action lawsuit. This is </tspan><tspan x="0" y="259.2" class="st7 st8 st6">typically priced much higher than traditional </tspan><tspan x="0" y="280.8" class="st7 st8 st6">EPLI insurance. The cost of this coverage has </tspan><tspan x="0" y="302.4" class="st7 st8 st6">recently decreased, but remains relatively high, </tspan><tspan x="0" y="324" class="st7 st8 st6">as does the retention, due to litigation trends in </tspan><tspan x="0" y="345.6" class="st7 st8 st6">this area.</tspan></text>
<g>
	<rect x="37" y="4855.5" class="st9" width="45.8" height="45.8"/>
	<g>
		<g>
			<g>
			</g>
		</g>
		<path class="st2" d="M63.1,4893.3c-1.5,0-3-0.7-4-1.9l-12.8-14.9c-1.9-2.2-1.7-5.6,0.6-7.5c2.2-1.9,5.6-1.7,7.5,0.6l8.4,9.7
			l26.4-31.8c4.1-5.7,8.4-2.6,4.3,3.2l-25.9,40.3c-1,1.3-2.5,2.2-4.1,2.2C63.3,4893.3,63.2,4893.3,63.1,4893.3z"/>
	</g>
</g>
</svg>
