<?xml version="1.0" encoding="utf-8"?>
<!-- Generator: Adobe Illustrator 26.0.0, SVG Export Plug-In . SVG Version: 6.00 Build 0)  -->
<svg version="1.1" id="Layer_1" xmlns="http://www.w3.org/2000/svg" xmlns:xlink="http://www.w3.org/1999/xlink" x="0px" y="0px"
	 viewBox="0 0 1200 3907.5" style="enable-background:new 0 0 1200 3907.5;" xml:space="preserve">
<style type="text/css">
	.Drop_x0020_Shadow{fill:none;}
	.Round_x0020_Corners_x0020_2_x0020_pt{fill:#FFFFFF;stroke:#000000;stroke-miterlimit:10;}
	.Live_x0020_Reflect_x0020_X{fill:none;}
	.Bevel_x0020_Soft{fill:url(#SVGID_1_);}
	.Dusk{fill:#FFFFFF;}
	.Foliage_GS{fill:#FFDD00;}
	.Pompadour_GS{fill-rule:evenodd;clip-rule:evenodd;fill:#44ADE2;}
	.st0{fill:none;}
	.st1{fill:#E11B22;}
	.st2{font-family:'PreloSlab-Bold';}
	.st3{font-size:36px;}
	.st4{fill:none;stroke:#E11B22;stroke-width:3;stroke-miterlimit:10;}
	.st5{font-size:29px;}
	.st6{font-family:'PreloSlab-Book';}
	.st7{font-size:21px;}
	.st8{opacity:0.54;fill:#5FB9E4;stroke:#E11B22;stroke-width:4;stroke-miterlimit:10;}
	.st9{fill:none;stroke:#E11B22;stroke-width:4;stroke-miterlimit:10;}
	.st10{fill:none;stroke:#E11B22;stroke-width:2;stroke-linecap:round;stroke-linejoin:round;stroke-miterlimit:10;}
</style>
<linearGradient id="SVGID_1_" gradientUnits="userSpaceOnUse" x1="-3969.2788" y1="-714.4431" x2="-3968.5718" y2="-713.736">
	<stop  offset="0" style="stop-color:#DEDFE3"/>
	<stop  offset="0.1738" style="stop-color:#D8D9DD"/>
	<stop  offset="0.352" style="stop-color:#C9CACD"/>
	<stop  offset="0.5323" style="stop-color:#B4B5B8"/>
	<stop  offset="0.7139" style="stop-color:#989A9C"/>
	<stop  offset="0.8949" style="stop-color:#797C7E"/>
	<stop  offset="1" style="stop-color:#656B6C"/>
</linearGradient>
<g>
	<g>
		<rect x="41.8" y="41" class="st0" width="1045.8" height="48.6"/>
		<text transform="matrix(1 0 0 1 41.8326 71.2314)" class="st1 st2 st3">Eight Emerging, Evolving EPLI Exposures</text>
	</g>
</g>
<rect x="3.6" y="3.2" class="st4" width="1193.4" height="3891"/>
<rect x="225.2" y="176.5" class="st0" width="932" height="31.7"/>
<text transform="matrix(1 0 0 1 225.1794 200.8632)" class="st1 st2 st5">Returning to office following COVID-19</text>
<rect x="225.2" y="232.7" class="st0" width="952.3" height="260.2"/>
<text transform="matrix(1 0 0 1 225.1794 250.3884)"><tspan x="0" y="0" class="st6 st7">After a number of stops and starts in 2021, employers are in the midst of bringing employees back to </tspan><tspan x="0" y="25.2" class="st6 st7">their workplaces. There are several potential COVID-19-related exposures that may emerge as </tspan><tspan x="0" y="50.4" class="st6 st7">organizations reopen their offices with uncertainty around the vaccination status of their workforce, </tspan><tspan x="0" y="75.6" class="st6 st7">including disability discrimination, emotional distress claims, wrongful terminations and retaliation, age </tspan><tspan x="0" y="100.8" class="st6 st7">discrimination, labor unrest, failure to protect and wrongful death.</tspan><tspan x="0" y="126" class="st6 st7"> </tspan><tspan x="0" y="151.2" class="st6 st7">As a best practice, employers should review their EPLI policy to assess whether it will respond to these </tspan><tspan x="0" y="176.4" class="st6 st7">evolving COVID-19-related issues in respect of employment matters. To assess coverage for any </tspan><tspan x="0" y="201.6" class="st6 st7">potential claims, EPLI policies should be reviewed for Bodily Injury/Property Damage (BI/PD) exclusions </tspan><tspan x="0" y="226.8" class="st6 st7">and potential carve-backs. Coverage would depend on the language used in the policy.</tspan></text>
<g>
	<rect x="70.5" y="162.1" class="st8" width="83.9" height="83.9"/>
	<g>
		<g>
			<g>
			</g>
		</g>
		<path class="st1" d="M118.3,231.2c-2.8,0-5.5-1.2-7.4-3.4l-23.4-27.3c-3.5-4.1-3-10.2,1.1-13.7c4.1-3.5,10.2-3,13.7,1.1l15.3,17.8
			l48.3-58.3c7.5-10.5,15.3-4.7,7.8,5.8l-47.5,73.9c-1.7,2.4-4.5,3.9-7.5,4.1C118.6,231.2,118.4,231.2,118.3,231.2z"/>
	</g>
</g>
<g>
	<rect x="225.2" y="588.5" class="st0" width="579.5" height="25"/>
	<text transform="matrix(1 0 0 1 225.1794 612.9008)" class="st1 st2 st5">Cannabis and the workplace</text>
	<rect x="225.2" y="643.3" class="st0" width="952.3" height="187.5"/>
	<text transform="matrix(1 0 0 1 225.1794 660.8919)"><tspan x="0" y="0" class="st6 st7">Medical and recreational marijuana continues to be a thorny issue in the workplace following the </tspan><tspan x="0" y="25.2" class="st6 st7">legalization of marijuana in Canada and select U.S. states. Employers must walk a fine line between </tspan><tspan x="0" y="50.4" class="st6 st7">compliance with employment law protecting employee rights, a patchwork of federal, state and </tspan><tspan x="0" y="75.6" class="st6 st7">provincial laws that prohibit working under the influence of marijuana and their own company drug use </tspan><tspan x="0" y="100.8" class="st6 st7">and safety policies. EPLI policies can provide coverage for a host of accusations that may arise resulting </tspan><tspan x="0" y="126" class="st6 st7">from the intersection of cannabis and the workplace, spanning from discrimination based on a disability </tspan><tspan x="0" y="151.2" class="st6 st7">to wrongful dismissal allegations.</tspan></text>
	<g>
		<rect x="70.5" y="574.1" class="st8" width="83.9" height="83.9"/>
		<g>
			<g>
				<g>
				</g>
			</g>
			<path class="st1" d="M118.3,643.3c-2.8,0-5.5-1.2-7.4-3.4l-23.4-27.3c-3.5-4.1-3-10.2,1.1-13.7c4.1-3.5,10.2-3,13.7,1.1
				l15.3,17.8l48.3-58.3c7.5-10.5,15.3-4.7,7.8,5.8l-47.5,73.9c-1.7,2.4-4.5,3.9-7.5,4.1C118.6,643.2,118.4,643.3,118.3,643.3z"/>
		</g>
	</g>
</g>
<g>
	<rect x="225.2" y="896.3" class="st0" width="579.5" height="31.7"/>
	<text transform="matrix(1 0 0 1 225.1794 920.6508)" class="st1 st2 st5">Sexual harassment</text>
	<rect x="225.2" y="951" class="st0" width="952.3" height="435.7"/>
	<text transform="matrix(1 0 0 1 225.1794 968.6419)"><tspan x="0" y="0" class="st6 st7">In the midst of continued worldwide focus on sexual harassment allegations in the workplace, various </tspan><tspan x="0" y="25.2" class="st6 st7">Canadian jurisdictions have created statutory obligations for companies to investigate and address </tspan><tspan x="0" y="50.4" class="st6 st7">workplace harassment complaints, and to develop and maintain programs and policies that explicitly </tspan><tspan x="0" y="75.6" class="st6 st7">address sexual harassment. In Ontario, for example, this came in the form of amendments to the </tspan><tspan x="0" y="100.8" class="st6 st7">province’s Occupational Health and Safety Act (OHSA). An employer’s failure to comply can result in a </tspan><tspan x="0" y="126" class="st6 st7">mandated third-party investigation and report at the company’s expense, or a hefty fine. Although most </tspan><tspan x="0" y="151.2" class="st6 st7">EPLI policies exclude violations of the OHSA, and its associated fines and penalties, some EPLI programs </tspan><tspan x="0" y="176.4" class="st6 st7">will respond to provide certain indemnity and defense costs coverage in the event a company is faced </tspan><tspan x="0" y="201.6" class="st6 st7">with a civil lawsuit alleging harassment or sexual harassment.</tspan><tspan x="0" y="226.8" class="st6 st7">  </tspan><tspan x="0" y="252" class="st6 st7">Meanwhile, in the U.S., local, state and federal laws offer a variety of prohibitions against sexual </tspan><tspan x="0" y="277.2" class="st6 st7">harassment differing mostly in the type of available damages, but also regarding mandatory training </tspan><tspan x="0" y="302.4" class="st6 st7">requirements in some states. State and local laws often provide the plaintiffs’ bar with uncapped damage </tspan><tspan x="0" y="327.6" class="st6 st7">and punitive damage award potential, making it more common that these suits are brought under state </tspan><tspan x="0" y="352.8" class="st6 st7">and local laws.  However, similarly complex state insurance laws require careful analysis to ensure EPLI </tspan><tspan x="0" y="378" class="st6 st7">policies can respond to these types of punitive and intentional act-related awards.</tspan></text>
	<g>
		<rect x="70.5" y="881.9" class="st8" width="83.9" height="83.9"/>
		<g>
			<g>
				<g>
				</g>
			</g>
			<path class="st1" d="M118.3,951c-2.8,0-5.5-1.2-7.4-3.4l-23.4-27.3c-3.5-4.1-3-10.2,1.1-13.7c4.1-3.5,10.2-3,13.7,1.1l15.3,17.8
				l48.3-58.3c7.5-10.5,15.3-4.7,7.8,5.8l-47.5,73.9c-1.7,2.4-4.5,3.9-7.5,4.1C118.6,951,118.4,951,118.3,951z"/>
		</g>
	</g>
</g>
<g>
	<rect x="225.2" y="1472.3" class="st0" width="579.5" height="63.4"/>
	<text transform="matrix(1 0 0 1 225.1794 1496.6252)" class="st1 st2 st5">Invasion of privacy</text>
	<rect x="225.2" y="1527" class="st0" width="952.3" height="507.3"/>
	<text transform="matrix(1 0 0 1 225.1794 1544.6163)"><tspan x="0" y="0" class="st6 st7">Various privacy-related torts have been recognized in recent years in Canadian jurisdictions.  </tspan><tspan x="0" y="25.2" class="st6 st7">With the broadening of privacy rights, employers must be careful in balancing employees’ reasonable </tspan><tspan x="0" y="50.4" class="st6 st7">expectations of privacy and, for instance, surveillance and searches or public announcements or </tspan><tspan x="0" y="75.6" class="st6 st7">statements involving employees.</tspan><tspan x="0" y="100.8" class="st6 st7"> </tspan><tspan x="0" y="126" class="st6 st7">In the U.S., there have been two significant trends in the area of employee privacy. The first relates to the </tspan><tspan x="0" y="151.2" class="st6 st7">capture of biometric information from employees such as eye scans, fingerprints or the use of facial </tspan><tspan x="0" y="176.4" class="st6 st7">recognition software. In Illinois in particular, but also in a growing number of other states, laws have been </tspan><tspan x="0" y="201.6" class="st6 st7">passed to make the capture of such information illegal without the written authorization of the </tspan><tspan x="0" y="226.8" class="st6 st7">employee. Many employee class actions have been brought in Illinois under its Biometric Information </tspan><tspan x="0" y="252" class="st6 st7">Projection Act (BIPA). The COVID-19 pandemic has been another area of significant employee privacy </tspan><tspan x="0" y="277.2" class="st6 st7">concern. Both contact tracing as a result of an infection and the growing push for employers to learn </tspan><tspan x="0" y="302.4" class="st6 st7">whether employees have obtained the COVID-19 vaccine have increased the likelihood of </tspan><tspan x="0" y="327.6" class="st6 st7">privacy-related lawsuits in this area as well.  </tspan><tspan x="0" y="378" class="st6 st7">Many EPLI policies provide some measure of coverage for invasion of privacy claims, although the </tspan><tspan x="0" y="403.2" class="st6 st7">extent of coverage varies among carriers and may differ depending on whether the insured is a public or </tspan><tspan x="0" y="428.4" class="st6 st7">private company. Recently, given the rise in BIPA-related lawsuits, some carriers have begun to actively </tspan><tspan x="0" y="453.6" class="st6 st7">look to either underwrite or exclude coverage for biometric information-related matters.</tspan></text>
	<g>
		<rect x="70.5" y="1457.8" class="st8" width="83.9" height="83.9"/>
		<g>
			<g>
				<g>
				</g>
			</g>
			<path class="st1" d="M118.3,1527c-2.8,0-5.5-1.2-7.4-3.4l-23.4-27.3c-3.5-4.1-3-10.2,1.1-13.7c4.1-3.5,10.2-3,13.7,1.1l15.3,17.8
				l48.3-58.3c7.5-10.5,15.3-4.7,7.8,5.8l-47.5,73.9c-1.7,2.4-4.5,3.9-7.5,4.1C118.6,1527,118.4,1527,118.3,1527z"/>
		</g>
	</g>
</g>
<g>
	<rect x="225.2" y="2109.8" class="st0" width="579.5" height="63.4"/>
	<text transform="matrix(1 0 0 1 225.1794 2134.2031)" class="st1 st2 st5">Evolving grounds of discrimination</text>
	<rect x="225.2" y="2169.3" class="st0" width="952.3" height="260.2"/>
	<text transform="matrix(1 0 0 1 225.1794 2186.9265)"><tspan x="0" y="0" class="st6 st7">Traditionally, discrimination claims based on race, ethnicity and age have been commonly covered </tspan><tspan x="0" y="25.2" class="st6 st7">under EPLI policies, but insurance and legal practitioners are expecting to see an uptick in litigation in </tspan><tspan x="0" y="50.4" class="st6 st7">more recent grounds of human rights discrimination as well. In recent years, legislation has evolved to </tspan><tspan x="0" y="75.6" class="st6 st7">both recognize expanding rights such as LGBTQ+ rights and gender identity, as well as realities such as </tspan><tspan x="0" y="100.8" class="st6 st7">work-life balance. It is vital for EPLI policies to respond in the event of discrimination based on, among </tspan><tspan x="0" y="126" class="st6 st7">other things, sexual orientation, transgender status, or gender dysphoria. Equally important is coverage </tspan><tspan x="0" y="151.2" class="st6 st7">for other grounds of discrimination such as family status (expressly recognized by the Canadian Human </tspan><tspan x="0" y="176.4" class="st6 st7">Rights Tribunal). EPLI policies typically provide broad coverage in this regard, which in most cases will </tspan><tspan x="0" y="201.6" class="st6 st7">extend to cover claims stemming from these novel bases of discrimination.</tspan></text>
	<g>
		<rect x="70.5" y="2095.4" class="st8" width="83.9" height="83.9"/>
		<g>
			<g>
				<g>
				</g>
			</g>
			<path class="st1" d="M118.3,2164.6c-2.8,0-5.5-1.2-7.4-3.4l-23.4-27.3c-3.5-4.1-3-10.2,1.1-13.7c4.1-3.5,10.2-3,13.7,1.1
				l15.3,17.8l48.3-58.3c7.5-10.5,15.3-4.7,7.8,5.8l-47.5,73.9c-1.7,2.4-4.5,3.9-7.5,4.1C118.6,2164.6,118.4,2164.6,118.3,2164.6z"
				/>
		</g>
	</g>
</g>
<g>
	<rect x="225.2" y="2485.1" class="st0" width="579.5" height="63.4"/>
	<text transform="matrix(1 0 0 1 225.1794 2509.4387)" class="st1 st2 st5">Employee termination</text>
	<rect x="225.2" y="2539.8" class="st0" width="952.3" height="396.5"/>
	<text transform="matrix(1 0 0 1 225.1794 2557.4299)"><tspan x="0" y="0" class="st6 st7">Termination of an employee can come with potential risk and litigation if not conducted carefully. In </tspan><tspan x="0" y="25.2" class="st6 st7">Canada, claims for wrongful dismissal are generally accompanied by disputes over the amount of </tspan><tspan x="0" y="50.4" class="st6 st7">pay-in-lieu of notice to which a terminated employee is entitled. Notably, common law notice periods in </tspan><tspan x="0" y="75.6" class="st6 st7">Canada have recently increased to an upper threshold of 26 months. In the U.S., wrongful termination </tspan><tspan x="0" y="100.8" class="st6 st7">claims can take many forms even with its supposed employment at-will nature of the employee </tspan><tspan x="0" y="126" class="st6 st7">relationship. </tspan><tspan x="0" y="176.4" class="st6 st7">The Canadian EPLI market now offers coverage by some carriers, subject to terms and conditions, for </tspan><tspan x="0" y="201.6" class="st6 st7">some of the wages ultimately awarded by a court that are over and above the statutory minimums </tspan><tspan x="0" y="226.8" class="st6 st7">required by legislation, or the amount that is offered to the employee at or after the time of termination. </tspan><tspan x="0" y="277.2" class="st6 st7">In the U.S., wrongful termination is broadly covered because the damages are much less formulaic and </tspan><tspan x="0" y="302.4" class="st6 st7">statutory based than in Canada. Therefore, wrongful termination claims are a major source of exposure </tspan><tspan x="0" y="327.6" class="st6 st7">addressed by EPLI in the U.S.</tspan></text>
	<g>
		<rect x="70.5" y="2470.6" class="st8" width="83.9" height="83.9"/>
		<g>
			<g>
				<g>
				</g>
			</g>
			<path class="st1" d="M118.3,2539.8c-2.8,0-5.5-1.2-7.4-3.4l-23.4-27.3c-3.5-4.1-3-10.2,1.1-13.7c4.1-3.5,10.2-3,13.7,1.1
				l15.3,17.8l48.3-58.3c7.5-10.5,15.3-4.7,7.8,5.8l-47.5,73.9c-1.7,2.4-4.5,3.9-7.5,4.1C118.6,2539.8,118.4,2539.8,118.3,2539.8z"
				/>
		</g>
	</g>
</g>
<g>
	<rect x="225.2" y="3011.9" class="st0" width="579.5" height="63.4"/>
	<text transform="matrix(1 0 0 1 225.1794 3036.2788)" class="st1 st2 st5">Dependent contractors</text>
	<rect x="225.2" y="3065.3" class="st0" width="952.3" height="427.6"/>
	<text transform="matrix(1 0 0 1 225.1794 3082.9434)"><tspan x="0" y="0" class="st6 st7">Dependent contractors find themselves somewhere on the job classification spectrum between </tspan><tspan x="0" y="25.2" class="st6 st7">employees and independent contractors. Canadian courts have generally classified a dependent </tspan><tspan x="0" y="50.4" class="st6 st7">contractor as an individual who works for themselves but provides consistent and regular services to </tspan><tspan x="0" y="75.6" class="st6 st7">one or a limited number of organizations. As a result, that individual is entitled to many of the same </tspan><tspan x="0" y="100.8" class="st6 st7">rights as an employee. Traditionally, EPLI polices did not extend to cover individuals in these positions. </tspan><tspan x="0" y="126" class="st6 st7">However, the Canada insurance market has begun to move in a favorable direction for insureds, with </tspan><tspan x="0" y="151.2" class="st6 st7">policies now providing coverage for claims involving dependent contractors. </tspan><tspan x="0" y="176.4" class="st6 st7"> </tspan><tspan x="0" y="201.6" class="st6 st7">In the U.S., the advent of the gig economy has resulted in a blurring of the spectrum between </tspan><tspan x="0" y="226.8" class="st6 st7">independent contractors and employees as well. In response, employment laws have tended to make it </tspan><tspan x="0" y="252" class="st6 st7">easier for workers who have entered into clear agreements stating they are not employees of a </tspan><tspan x="0" y="277.2" class="st6 st7">particular organization to sue as if they were employees. As a result, brokers have worked diligently </tspan><tspan x="0" y="302.4" class="st6 st7">with the insurance market to seek to expand coverage treating employment claims for otherwise </tspan><tspan x="0" y="327.6" class="st6 st7">covered wrongful acts brought by these non-traditional employees to be treated as employment claims </tspan><tspan x="0" y="352.8" class="st6 st7">covered under EPLI policies. That is, as long as the worker is claiming to be an employee, which is </tspan><tspan x="0" y="378" class="st6 st7">typically a requirement for the plaintiff to allege to bring a claim under most U.S. employment laws.</tspan></text>
	<g>
		<rect x="70.5" y="2997.5" class="st8" width="83.9" height="83.9"/>
		<g>
			<g>
				<g>
				</g>
			</g>
			<path class="st1" d="M118.3,3066.6c-2.8,0-5.5-1.2-7.4-3.4l-23.4-27.3c-3.5-4.1-3-10.2,1.1-13.7c4.1-3.5,10.2-3,13.7,1.1
				l15.3,17.8l48.3-58.3c7.5-10.5,15.3-4.7,7.8,5.8l-47.5,73.9c-1.7,2.4-4.5,3.9-7.5,4.1C118.6,3066.6,118.4,3066.6,118.3,3066.6z"
				/>
		</g>
	</g>
</g>
<g>
	<rect x="225.2" y="3575.1" class="st0" width="579.5" height="36.7"/>
	<text transform="matrix(1 0 0 1 225.1794 3599.4556)" class="st1 st2 st5">Wage and hour claims</text>
	<rect x="225.2" y="3627.5" class="st0" width="952.3" height="217.6"/>
	<text transform="matrix(1 0 0 1 225.1794 3645.1687)"><tspan x="0" y="0" class="st6 st7">“Wage and hour” claims have increased in both frequency and severity over the past few years.  These </tspan><tspan x="0" y="25.2" class="st6 st7">claims are frequently brought as class action lawsuits, with large groups of employees seeking millions </tspan><tspan x="0" y="50.4" class="st6 st7">of dollars in damages for matters such as unpaid wages, unpaid overtime and job misclassification </tspan><tspan x="0" y="75.6" class="st6 st7">leading to wages or other benefits owed. To address this exposure, coverage for lawsuits related to </tspan><tspan x="0" y="100.8" class="st6 st7">employee wages may be available for larger U.S. and Canadian policyholders who may face significant </tspan><tspan x="0" y="126" class="st6 st7">losses in a wage and hour class action lawsuit. This is typically priced much higher than traditional EPLI </tspan><tspan x="0" y="151.2" class="st6 st7">insurance. The cost of this coverage has recently decreased, but remains relatively high, as does the </tspan><tspan x="0" y="176.4" class="st6 st7">retention, due to litigation trends in this area.</tspan></text>
	<g>
		<rect x="70.5" y="3556.7" class="st8" width="83.9" height="83.9"/>
		<g>
			<g>
				<g>
				</g>
			</g>
			<path class="st1" d="M118.3,3625.8c-2.8,0-5.5-1.2-7.4-3.4l-23.4-27.3c-3.5-4.1-3-10.2,1.1-13.7c4.1-3.5,10.2-3,13.7,1.1
				l15.3,17.8l48.3-58.3c7.5-10.5,15.3-4.7,7.8,5.8l-47.5,73.9c-1.7,2.4-4.5,3.9-7.5,4.1C118.6,3625.8,118.4,3625.8,118.3,3625.8z"
				/>
		</g>
	</g>
</g>
<line class="st10" x1="41.8" y1="106.3" x2="292.7" y2="106.3"/>
</svg>
