<?xml version="1.0" encoding="utf-8"?>
<!-- Generator: Adobe Illustrator 26.0.0, SVG Export Plug-In . SVG Version: 6.00 Build 0)  -->
<svg version="1.1" id="Layer_1" xmlns="http://www.w3.org/2000/svg" xmlns:xlink="http://www.w3.org/1999/xlink" x="0px" y="0px"
	 viewBox="0 0 1200 4758.4" style="enable-background:new 0 0 1200 4758.4;" xml:space="preserve">
<style type="text/css">
	.Drop_x0020_Shadow{fill:none;}
	.Round_x0020_Corners_x0020_2_x0020_pt{fill:#FFFFFF;stroke:#000000;stroke-miterlimit:10;}
	.Live_x0020_Reflect_x0020_X{fill:none;}
	.Bevel_x0020_Soft{fill:url(#SVGID_1_);}
	.Dusk{fill:#FFFFFF;}
	.Foliage_GS{fill:#FFDD00;}
	.Pompadour_GS{fill-rule:evenodd;clip-rule:evenodd;fill:#44ADE2;}
	.st0{fill:none;}
	.st1{fill:#E11B22;}
	.st2{font-family:'PreloSlab-Bold';}
	.st3{font-size:36px;}
	.st4{fill:none;stroke:#E11B22;stroke-width:3;stroke-miterlimit:10;}
	.st5{font-size:29px;}
	.st6{font-family:'PreloSlab-Book';}
	.st7{font-size:21px;}
	.st8{opacity:0.54;fill:#5FB9E4;stroke:#E11B22;stroke-width:4;stroke-miterlimit:10;}
	.st9{fill:none;stroke:#E11B22;stroke-width:4;stroke-miterlimit:10;}
	.st10{font-family:'MyriadPro-Regular';}
	.st11{fill:none;stroke:#E11B22;stroke-width:2;stroke-linecap:round;stroke-linejoin:round;stroke-miterlimit:10;}
</style>
<linearGradient id="SVGID_1_" gradientUnits="userSpaceOnUse" x1="-3969.2788" y1="-714.4431" x2="-3968.5718" y2="-713.736">
	<stop  offset="0" style="stop-color:#DEDFE3"/>
	<stop  offset="0.1738" style="stop-color:#D8D9DD"/>
	<stop  offset="0.352" style="stop-color:#C9CACD"/>
	<stop  offset="0.5323" style="stop-color:#B4B5B8"/>
	<stop  offset="0.7139" style="stop-color:#989A9C"/>
	<stop  offset="0.8949" style="stop-color:#797C7E"/>
	<stop  offset="1" style="stop-color:#656B6C"/>
</linearGradient>
<g>
	<g>
		<rect x="41.8" y="41" class="st0" width="1125.1" height="85.2"/>
		<text transform="matrix(1 0 0 1 41.8326 71.2304)"><tspan x="0" y="0" class="st1 st2 st3">Huit préoccupations émergentes et en évolution en matière </tspan><tspan x="0" y="43.2" class="st1 st2 st3">d’assurance responsabilité civile liée aux pratiques d’emploi</tspan></text>
	</g>
</g>
<rect x="3.6" class="st4" width="1193.4" height="4751.7"/>
<g>
	<rect x="225.2" y="225.5" class="st0" width="932" height="31.7"/>
	<text transform="matrix(1 0 0 1 225.1794 249.8632)" class="st1 st2 st5">Retour au bureau après la pandémie de COVID-19</text>
	<rect x="225.2" y="281.7" class="st0" width="952.3" height="351.2"/>
	<text transform="matrix(1 0 0 1 225.1794 299.3875)"><tspan x="0" y="0" class="st6 st7">Après un certain nombre d’arrêts et de recommencements en 2021, les employeurs sont en train de </tspan><tspan x="0" y="25.2" class="st6 st7">ramener les employés sur leur lieu de travail. Plusieurs risques liés à la pandémie de COVID-19 peuvent </tspan><tspan x="0" y="50.4" class="st6 st7">faire leur apparition tandis que les organisations rouvrent leurs bureaux compte tenu des incertitudes </tspan><tspan x="0" y="75.6" class="st6 st7">quant au statut vaccinal du personnel, y compris la discrimination fondée sur le handicap, les </tspan><tspan x="0" y="100.8" class="st6 st7">réclamations pour trouble émotionnel, les congédiements injustifiés et les représailles, la discrimination </tspan><tspan x="0" y="126" class="st6 st7">fondée sur l’âge, les conflits de travail, les manquements en matière de protection et les homicides </tspan><tspan x="0" y="151.2" class="st6 st7">délictuels. </tspan><tspan x="0" y="201.6" class="st6 st7">À titre de pratique exemplaire, les employeurs devraient revoir leur police d’assurance responsabilité </tspan><tspan x="0" y="226.8" class="st6 st7">civile liée aux pratiques d’emploi pour évaluer si elle couvrira les enjeux en évolution liés à la pandémie </tspan><tspan x="0" y="252" class="st6 st7">de COVID-19 en ce qui a trait aux questions d’emploi. Pour évaluer la couverture de toute réclamation </tspan><tspan x="0" y="277.2" class="st6 st7">potentielle, les polices d’assurance responsabilité civile liée aux pratiques d’emploi devraient faire l’objet </tspan><tspan x="0" y="302.4" class="st6 st7">d’un examen pour déterminer si elles contiennent des exclusions et d’éventuelles exemptions relatives </tspan><tspan x="0" y="327.6" class="st6 st7">aux dommages corporels et matériels. La couverture dépendrait du libellé utilisé dans la police.</tspan></text>
	<g>
		<rect x="70.5" y="211.1" class="st8" width="83.9" height="83.9"/>
		<g>
			<g>
				<g>
				</g>
			</g>
			<path class="st1" d="M118.3,280.2c-2.8,0-5.5-1.2-7.4-3.4l-23.4-27.3c-3.5-4.1-3-10.2,1.1-13.7c4.1-3.5,10.2-3,13.7,1.1
				l15.3,17.8l48.3-58.3c7.5-10.5,15.3-4.7,7.8,5.8l-47.5,73.9c-1.7,2.4-4.5,3.9-7.5,4.1C118.6,280.2,118.4,280.2,118.3,280.2z"/>
		</g>
	</g>
</g>
<g>
	<rect x="225.2" y="721.9" class="st0" width="579.5" height="25"/>
	<text transform="matrix(1 0 0 1 225.1794 746.2614)" class="st1 st2 st5">Le cannabis et le milieu de travail</text>
	<rect x="225.2" y="776.6" class="st0" width="952.3" height="213.9"/>
	<text transform="matrix(1 0 0 1 225.1794 794.2525)"><tspan x="0" y="0" class="st6 st7">Le cannabis thérapeutique et à usage récréatif continue d’être une question épineuse en milieu de travail </tspan><tspan x="0" y="25.2" class="st6 st7">depuis la légalisation de cette substance au Canada et dans certains États américains. Les employeurs </tspan><tspan x="0" y="50.4" class="st6 st7">doivent trouver un juste équilibre entre le respect des lois en matière d’emploi qui protègent les droits </tspan><tspan x="0" y="75.6" class="st6 st7">des employés, un ensemble de lois fédérales, provinciales et étatiques qui interdisent de travailler sous </tspan><tspan x="0" y="100.8" class="st6 st7">l’influence du cannabis et leurs propres politiques d’entreprise en matière de sécurité et de </tspan><tspan x="0" y="126" class="st6 st7">consommation de drogues. Les polices d’assurance responsabilité civile liée aux pratiques d’emploi </tspan><tspan x="0" y="151.2" class="st6 st7">peuvent couvrir une foule d’accusations pouvant découler de l’intersection du cannabis et du milieu de </tspan><tspan x="0" y="176.4" class="st6 st7">travail, allant de la discrimination fondée sur un handicap aux allégations de congédiement injustifié.</tspan></text>
	<g>
		<rect x="70.5" y="707.5" class="st8" width="83.9" height="83.9"/>
		<g>
			<g>
				<g>
				</g>
			</g>
			<path class="st1" d="M118.3,776.6c-2.8,0-5.5-1.2-7.4-3.4l-23.4-27.3c-3.5-4.1-3-10.2,1.1-13.7c4.1-3.5,10.2-3,13.7,1.1
				l15.3,17.8l48.3-58.3c7.5-10.5,15.3-4.7,7.8,5.8l-47.5,73.9c-1.7,2.4-4.5,3.9-7.5,4.1C118.6,776.6,118.4,776.6,118.3,776.6z"/>
		</g>
	</g>
</g>
<g>
	<rect x="225.2" y="1079.5" class="st0" width="579.5" height="31.7"/>
	<text transform="matrix(1 0 0 1 225.1794 1103.834)" class="st1 st2 st5">Harcèlement sexuel</text>
	<rect x="225.2" y="1134.2" class="st0" width="952.3" height="559.1"/>
	<text transform="matrix(1 0 0 1 225.1794 1151.8251)"><tspan x="0" y="0" class="st6 st7">Tandis que les allégations de harcèlement sexuel en milieu de travail continuent d’être au centre de </tspan><tspan x="0" y="25.2" class="st6 st7">l’attention partout dans le monde, diverses administrations canadiennes ont créé des obligations légales </tspan><tspan x="0" y="50.4" class="st6 st7">qui forcent les entreprises à enquêter sur les plaintes de harcèlement au travail et à les traiter, ainsi qu’à </tspan><tspan x="0" y="75.6" class="st6 st7">élaborer et à maintenir des politiques et des programmes portant explicitement sur le harcèlement </tspan><tspan x="0" y="100.8" class="st6 st7">sexuel. En Ontario, par exemple, cette obligation légale a pris la forme de modifications à la Loi sur la </tspan><tspan x="0" y="126" class="st6 st7">santé et la sécurité au travail (LSST) de la province. Les employeurs qui ne respectent pas ces obligations </tspan><tspan x="0" y="151.2" class="st6 st7">peuvent faire l’objet d’une enquête et d’un rapport indépendants aux frais de l’entreprise ou recevoir une </tspan><tspan x="0" y="176.4" class="st6 st7">lourde amende. Bien que la plupart des polices d’assurance responsabilité civile liée aux pratiques </tspan><tspan x="0" y="201.6" class="st6 st7">d’emploi excluent les violations de la LSST, et les amendes et sanctions associées, certains programmes </tspan><tspan x="0" y="226.8" class="st6 st7">d’assurance responsabilité civile liée aux pratiques d’emploi prévoient une certaine indemnité et une </tspan><tspan x="0" y="252" class="st6 st7">certaine couverture des frais de défense dans le cas de poursuites civiles en harcèlement, sexuel ou non. </tspan><tspan x="0" y="302.4" class="st6 st7">Pendant ce temps, aux États-Unis, les lois fédérales, locales et d’État prévoient diverses interdictions </tspan><tspan x="0" y="327.6" class="st6 st7">concernant le harcèlement sexuel qui diffèrent principalement sur le plan du type de </tspan><tspan x="0" y="352.8" class="st6 st7">dommages-intérêts offerts, mais aussi des exigences de formation dans certains États. Les lois locales et </tspan><tspan x="0" y="378" class="st6 st7">d’État accordent souvent à la partie plaignante la possibilité d’obtenir un jugement en </tspan><tspan x="0" y="403.2" class="st6 st7">dommages-intérêts et en dommages</tspan><tspan x="341.4" y="403.2" class="st10 st7">‐</tspan><tspan x="347.6" y="403.2" class="st6 st7">intérêts à titre punitif non plafonnés, de sorte que ces poursuites </tspan><tspan x="0" y="428.4" class="st6 st7">sont plus souvent intentées en vertu de ces lois. Toutefois, des lois d’État tout aussi complexes en </tspan><tspan x="0" y="453.6" class="st6 st7">matière d’assurances requièrent une analyse minutieuse pour veiller à ce que les polices d’assurance </tspan><tspan x="0" y="478.8" class="st6 st7">responsabilité civile liée aux pratiques d’emploi puissent répondre à ces types de jugements liés à des </tspan><tspan x="0" y="504" class="st6 st7">actes punitifs et intentionnels.</tspan></text>
	<g>
		<rect x="70.5" y="1065" class="st8" width="83.9" height="83.9"/>
		<g>
			<g>
				<g>
				</g>
			</g>
			<path class="st1" d="M118.3,1134.2c-2.8,0-5.5-1.2-7.4-3.4l-23.4-27.3c-3.5-4.1-3-10.2,1.1-13.7c4.1-3.5,10.2-3,13.7,1.1
				l15.3,17.8l48.3-58.3c7.5-10.5,15.3-4.7,7.8,5.8l-47.5,73.9c-1.7,2.4-4.5,3.9-7.5,4.1C118.6,1134.2,118.4,1134.2,118.3,1134.2z"
				/>
		</g>
	</g>
</g>
<g>
	<rect x="225.2" y="1782.2" class="st0" width="579.5" height="63.4"/>
	<text transform="matrix(1 0 0 1 225.1794 1806.5656)" class="st1 st2 st5">Atteinte à la vie privée</text>
	<rect x="225.2" y="1836.9" class="st0" width="952.3" height="667.9"/>
	<text transform="matrix(1 0 0 1 225.1794 1854.5566)"><tspan x="0" y="0" class="st6 st7">Divers délits relatifs à la protection de la vie privée ont été reconnus au cours des dernières années dans </tspan><tspan x="0" y="25.2" class="st6 st7">les administrations canadiennes. Avec l’élargissement des droits à la protection de la vie privée, les </tspan><tspan x="0" y="50.4" class="st6 st7">employeurs doivent être prudents dans l’établissement d’un équilibre entre les attentes raisonnables </tspan><tspan x="0" y="75.6" class="st6 st7">des employés en matière de protection de la vie privée et, par exemple, la surveillance et les fouilles, les </tspan><tspan x="0" y="100.8" class="st6 st7">annonces publiques ou les déclarations concernant les employés. </tspan><tspan x="0" y="151.2" class="st6 st7">Aux États-Unis, deux tendances importantes ont été observées relativement à la protection de la vie </tspan><tspan x="0" y="176.4" class="st6 st7">privée des employés. La première concerne la saisie des renseignements biométriques des employés, </tspan><tspan x="0" y="201.6" class="st6 st7">comme le balayage oculaire, les empreintes digitales ou l’utilisation d’un logiciel de reconnaissance </tspan><tspan x="0" y="226.8" class="st6 st7">faciale. En Illinois en particulier, mais aussi dans de plus en plus d’autres États, des lois ont été adoptées </tspan><tspan x="0" y="252" class="st6 st7">pour rendre illégale la saisie de tels renseignements sans l’autorisation écrite de l’employé. De </tspan><tspan x="0" y="277.2" class="st6 st7">nombreuses actions collectives ont été intentées en Illinois par des employés en vertu de la Biometric </tspan><tspan x="0" y="302.4" class="st6 st7">Information Privacy Act (BIPA). La pandémie de COVID-19 est un autre sujet qui soulève d’importantes </tspan><tspan x="0" y="327.6" class="st6 st7">préoccupations en matière de protection de la vie privée des employés. La recherche des contacts à la </tspan><tspan x="0" y="352.8" class="st6 st7">suite d’une infection et la pression croissante pour que les employeurs soient au courant du statut de </tspan><tspan x="0" y="378" class="st6 st7">leurs employés concernant le vaccin contre la COVID-19 ont également augmenté la probabilité de </tspan><tspan x="0" y="403.2" class="st6 st7">poursuites liées à l’atteinte à la vie privée. </tspan><tspan x="0" y="453.6" class="st6 st7">De nombreuses polices d’assurance responsabilité civile liée aux pratiques d’emploi offrent une certaine </tspan><tspan x="0" y="478.8" class="st6 st7">couverture pour les poursuites relatives à l’atteinte à la vie privée, même si l’étendue de la couverture </tspan><tspan x="0" y="504" class="st6 st7">varie parmi les assureurs et peut varier selon que l’assuré est une société ouverte ou fermée. </tspan><tspan x="0" y="554.4" class="st6 st7">Récemment, compte tenu de la hausse des poursuites liées à la BIPA, certains assureurs ont commencé </tspan><tspan x="0" y="579.6" class="st6 st7">à étudier activement la question de savoir s’ils doivent prendre en charge ou exclure la couverture des </tspan><tspan x="0" y="604.8" class="st6 st7">questions liées aux données biométriques.</tspan></text>
	<g>
		<rect x="70.5" y="1767.8" class="st8" width="83.9" height="83.9"/>
		<g>
			<g>
				<g>
				</g>
			</g>
			<path class="st1" d="M118.3,1836.9c-2.8,0-5.5-1.2-7.4-3.4l-23.4-27.3c-3.5-4.1-3-10.2,1.1-13.7c4.1-3.5,10.2-3,13.7,1.1
				l15.3,17.8l48.3-58.3c7.5-10.5,15.3-4.7,7.8,5.8l-47.5,73.9c-1.7,2.4-4.5,3.9-7.5,4.1C118.6,1836.9,118.4,1836.9,118.3,1836.9z"
				/>
		</g>
	</g>
</g>
<g>
	<rect x="225.2" y="2553.8" class="st0" width="579.5" height="63.4"/>
	<text transform="matrix(1 0 0 1 225.1794 2578.1658)" class="st1 st2 st5">Évolution des motifs de discrimination</text>
	<rect x="225.2" y="2613.2" class="st0" width="952.3" height="338.5"/>
	<text transform="matrix(1 0 0 1 225.1794 2630.8892)"><tspan x="0" y="0" class="st6 st7">Traditionnellement, les réclamations pour discrimination fondée sur la race, l’origine ethnique et l’âge </tspan><tspan x="0" y="25.2" class="st6 st7">étaient souvent couvertes par les polices d’assurance responsabilité civile liée aux pratiques d’emploi; </tspan><tspan x="0" y="50.4" class="st6 st7">les assureurs et les juristes s’attendent toutefois à une hausse des litiges pour de nouveaux motifs de </tspan><tspan x="0" y="75.6" class="st6 st7">discrimination en matière des droits de la personne. Au cours des dernières années, les lois ont évolué, </tspan><tspan x="0" y="100.8" class="st6 st7">reconnaissant à la fois des droits en pleine expansion comme les droits de la communauté LGBTQ+ et </tspan><tspan x="0" y="126" class="st6 st7">l’identité de genre, ainsi que des réalités comme la conciliation travail-vie personnelle. Il est essentiel que </tspan><tspan x="0" y="151.2" class="st6 st7">les polices d’assurance responsabilité civile liée aux pratiques d’emploi prévoient une couverture en cas </tspan><tspan x="0" y="176.4" class="st6 st7">de discrimination fondée, entre autres choses, sur l’orientation sexuelle, le statut de transgenre ou la </tspan><tspan x="0" y="201.6" class="st6 st7">dysphorie de genre. La couverture d’autres motifs de discrimination, comme la situation de famille </tspan><tspan x="0" y="226.8" class="st6 st7">(expressément reconnue par le Tribunal canadien des droits de la personne), est tout aussi importante. </tspan><tspan x="0" y="252" class="st6 st7">Les polices d’assurance responsabilité civile liée aux pratiques d’emploi offrent généralement une large </tspan><tspan x="0" y="277.2" class="st6 st7">couverture à cet égard, qui, dans la plupart des cas, couvrira les poursuites découlant de ces nouveaux </tspan><tspan x="0" y="302.4" class="st6 st7">motifs de discrimination.</tspan></text>
	<g>
		<rect x="70.5" y="2539.4" class="st8" width="83.9" height="83.9"/>
		<g>
			<g>
				<g>
				</g>
			</g>
			<path class="st1" d="M118.3,2608.5c-2.8,0-5.5-1.2-7.4-3.4l-23.4-27.3c-3.5-4.1-3-10.2,1.1-13.7c4.1-3.5,10.2-3,13.7,1.1
				l15.3,17.8l48.3-58.3c7.5-10.5,15.3-4.7,7.8,5.8l-47.5,73.9c-1.7,2.4-4.5,3.9-7.5,4.1C118.6,2608.5,118.4,2608.5,118.3,2608.5z"
				/>
		</g>
	</g>
</g>
<g>
	<rect x="225.2" y="3040.7" class="st0" width="579.5" height="63.4"/>
	<text transform="matrix(1 0 0 1 225.1794 3065.072)" class="st1 st2 st5">Congédiements</text>
	<rect x="225.2" y="3095.4" class="st0" width="952.3" height="460.1"/>
	<text transform="matrix(1 0 0 1 225.1794 3113.0632)"><tspan x="0" y="0" class="st6 st7">Le congédiement d’un employé peut entraîner des risques et des litiges s’il n’est pas mené de façon </tspan><tspan x="0" y="25.2" class="st6 st7">rigoureuse. Au Canada, les réclamations pour congédiement injustifié sont généralement accompagnées </tspan><tspan x="0" y="50.4" class="st6 st7">de différends concernant le montant de la rémunération tenant lieu de préavis auquel l’employé licencié </tspan><tspan x="0" y="75.6" class="st6 st7">a droit. Notamment, au Canada, la période de préavis en vertu de la common law est récemment passée à </tspan><tspan x="0" y="100.8" class="st6 st7">un seuil supérieur de 26 mois. Aux États-Unis, les réclamations pour congédiement injustifié peuvent </tspan><tspan x="0" y="126" class="st6 st7">prendre de nombreuses formes, et ce, même si l’emploi est censé être occupé à titre précaire. </tspan><tspan x="0" y="176.4" class="st6 st7">Au sein du marché canadien de l’assurance responsabilité civile liée aux pratiques d’emploi, certains </tspan><tspan x="0" y="201.6" class="st6 st7">assureurs, sous réserve de modalités, offrent maintenant une couverture pour une partie du salaire </tspan><tspan x="0" y="226.8" class="st6 st7">accordé par un tribunal qui excède le montant minimal prévu par la loi ou le montant offert à l’employé </tspan><tspan x="0" y="252" class="st6 st7">au moment du congédiement ou après. </tspan><tspan x="0" y="302.4" class="st6 st7">Aux États-Unis, le congédiement injustifié est largement couvert, car les dommages-intérêts sont </tspan><tspan x="0" y="327.6" class="st6 st7">beaucoup moins normés et moins souvent prévus par les lois qu’au Canada. Par conséquent, les </tspan><tspan x="0" y="352.8" class="st6 st7">réclamations pour congédiement injustifié sont dans ce pays une source de risques majeure couverte </tspan><tspan x="0" y="378" class="st6 st7">par l’assurance responsabilité civile liée aux pratiques d’emploi.</tspan></text>
	<g>
		<rect x="70.5" y="3026.3" class="st8" width="83.9" height="83.9"/>
		<g>
			<g>
				<g>
				</g>
			</g>
			<path class="st1" d="M118.3,3095.4c-2.8,0-5.5-1.2-7.4-3.4l-23.4-27.3c-3.5-4.1-3-10.2,1.1-13.7c4.1-3.5,10.2-3,13.7,1.1
				l15.3,17.8l48.3-58.3c7.5-10.5,15.3-4.7,7.8,5.8l-47.5,73.9c-1.7,2.4-4.5,3.9-7.5,4.1C118.6,3095.4,118.4,3095.4,118.3,3095.4z"
				/>
		</g>
	</g>
</g>
<g>
	<rect x="225.2" y="3620.9" class="st0" width="579.5" height="63.4"/>
	<text transform="matrix(1 0 0 1 225.1794 3645.2766)" class="st1 st2 st5">Entrepreneurs dépendants</text>
	<rect x="225.2" y="3674.3" class="st0" width="952.3" height="536.8"/>
	<text transform="matrix(1 0 0 1 225.1794 3691.9412)"><tspan x="0" y="0" class="st6 st7">Les entrepreneurs dépendants se retrouvent quelque part sur le spectre de la classification des emplois </tspan><tspan x="0" y="25.2" class="st6 st7">entre les employés et les entrepreneurs indépendants. En règle générale, les tribunaux canadiens ont </tspan><tspan x="0" y="50.4" class="st6 st7">classé un entrepreneur dépendant dans la catégorie d’une personne travaillant pour elle-même, mais </tspan><tspan x="0" y="75.6" class="st6 st7">qui fournit des services réguliers et uniformes à une organisation ou à un nombre limité d’organisations. </tspan><tspan x="0" y="100.8" class="st6 st7">Par conséquent, cette personne jouit de plusieurs des mêmes droits qu’un employé. Traditionnellement, </tspan><tspan x="0" y="126" class="st6 st7">les polices d’assurance responsabilité civile liée aux pratiques d’emploi ne couvraient pas les personnes </tspan><tspan x="0" y="151.2" class="st6 st7">occupant ces postes. Cependant, le marché de l’assurance canadien a commencé à évoluer dans une </tspan><tspan x="0" y="176.4" class="st6 st7">direction favorable pour les assurés, alors que des polices offrent désormais une couverture pour les </tspan><tspan x="0" y="201.6" class="st6 st7">réclamations concernant des entrepreneurs dépendants. </tspan><tspan x="0" y="252" class="st6 st7">Aux États-Unis, l’avènement de l’économie à la demande a créé un flou entre les entrepreneurs </tspan><tspan x="0" y="277.2" class="st6 st7">indépendants et les employés. En conséquence, les lois sur l’emploi ont souvent fait en sorte qu’il soit </tspan><tspan x="0" y="302.4" class="st6 st7">plus facile pour les travailleurs ayant conclu des ententes énonçant clairement qu’ils ne sont pas </tspan><tspan x="0" y="327.6" class="st6 st7">employés par l’organisation en question d’intenter des poursuites comme s’ils étaient des employés. Les </tspan><tspan x="0" y="352.8" class="st6 st7">courtiers ont ainsi travaillé avec diligence avec le marché de l’assurance pour chercher à élargir la </tspan><tspan x="0" y="378" class="st6 st7">couverture contre les réclamations liées à l’emploi de façon à ce que les poursuites pour les actes fautifs </tspan><tspan x="0" y="403.2" class="st6 st7">couverts autrement qui sont intentées par ces employés non traditionnels soient traitées comme des </tspan><tspan x="0" y="428.4" class="st6 st7">réclamations couvertes par les polices d’assurance responsabilité civile liée aux pratiques d’emploi, tant </tspan><tspan x="0" y="453.6" class="st6 st7">que le travailleur prétend être un employé, ce qui est généralement une exigence pour que le plaignant </tspan><tspan x="0" y="478.8" class="st6 st7">présente une réclamation en vertu de la plupart des lois sur l’emploi des États-Unis.</tspan></text>
	<g>
		<rect x="70.5" y="3606.5" class="st8" width="83.9" height="83.9"/>
		<g>
			<g>
				<g>
				</g>
			</g>
			<path class="st1" d="M118.3,3675.6c-2.8,0-5.5-1.2-7.4-3.4l-23.4-27.3c-3.5-4.1-3-10.2,1.1-13.7c4.1-3.5,10.2-3,13.7,1.1
				l15.3,17.8l48.3-58.3c7.5-10.5,15.3-4.7,7.8,5.8l-47.5,73.9c-1.7,2.4-4.5,3.9-7.5,4.1C118.6,3675.6,118.4,3675.6,118.3,3675.6z"
				/>
		</g>
	</g>
</g>
<g>
	<rect x="225.2" y="4304.1" class="st0" width="803.6" height="36.7"/>
	<text transform="matrix(1 0 0 1 225.1794 4328.4556)" class="st1 st2 st5">Poursuites relatives aux salaires et aux heures travaillées</text>
	<rect x="225.2" y="4356.5" class="st0" width="952.3" height="315.7"/>
	<text transform="matrix(1 0 0 1 225.1794 4374.1685)"><tspan x="0" y="0" class="st6 st7">Les poursuites relatives aux salaires et aux heures travaillées ont connu une hausse ces dernières </tspan><tspan x="0" y="25.2" class="st6 st7">années, à la fois en fréquence et en gravité. Ces poursuites prennent souvent la forme d’actions </tspan><tspan x="0" y="50.4" class="st6 st7">collectives, alors que de grands groupes d’employés cherchent à obtenir des millions de dollars en </tspan><tspan x="0" y="75.6" class="st6 st7">dommages-intérêts pour des questions comme les salaires impayés, les heures supplémentaires non </tspan><tspan x="0" y="100.8" class="st6 st7">payées et les erreurs de classification des emplois entraînant des salaires et d’autres avantages sociaux </tspan><tspan x="0" y="126" class="st6 st7">dus. Pour remédier à cette situation, la couverture des poursuites judiciaires liées aux salaires des </tspan><tspan x="0" y="151.2" class="st6 st7">employés pourrait être offerte aux titulaires de police d’envergure au Canada et aux États-Unis, ceux-ci </tspan><tspan x="0" y="176.4" class="st6 st7">pouvant faire face à de lourdes pertes advenant une action collective portant sur les salaires et les </tspan><tspan x="0" y="201.6" class="st6 st7">heures de travail. Cette couverture est généralement offerte à un prix beaucoup plus élevé que celui de </tspan><tspan x="0" y="226.8" class="st6 st7">l’assurance responsabilité civile traditionnelle liée aux pratiques d’emploi. Le prix de cette couverture a </tspan><tspan x="0" y="252" class="st6 st7">diminué récemment, mais son coût demeure relativement élevé, tout comme le taux de rétention, en </tspan><tspan x="0" y="277.2" class="st6 st7">raison des tendances en faveur des litiges dans ce domaine.</tspan></text>
	<g>
		<rect x="70.5" y="4285.7" class="st8" width="83.9" height="83.9"/>
		<g>
			<g>
				<g>
				</g>
			</g>
			<path class="st1" d="M118.3,4354.8c-2.8,0-5.5-1.2-7.4-3.4l-23.4-27.3c-3.5-4.1-3-10.2,1.1-13.7c4.1-3.5,10.2-3,13.7,1.1
				l15.3,17.8l48.3-58.3c7.5-10.5,15.3-4.7,7.8,5.8l-47.5,73.9c-1.7,2.4-4.5,3.9-7.5,4.1C118.6,4354.8,118.4,4354.8,118.3,4354.8z"
				/>
		</g>
	</g>
</g>
<line class="st11" x1="41.8" y1="155.3" x2="292.7" y2="155.3"/>
</svg>
