<?xml version="1.0" encoding="utf-8"?>
<!-- Generator: Adobe Illustrator 26.0.0, SVG Export Plug-In . SVG Version: 6.00 Build 0)  -->
<svg version="1.1" id="Layer_1" xmlns="http://www.w3.org/2000/svg" xmlns:xlink="http://www.w3.org/1999/xlink" x="0px" y="0px"
	 viewBox="0 0 540 6758.1" style="enable-background:new 0 0 540 6758.1;" xml:space="preserve">
<style type="text/css">
	.Drop_x0020_Shadow{fill:none;}
	.Outer_x0020_Glow_x0020_5_x0020_pt{fill:none;}
	.Jive_GS{fill:#A5CFE3;}
	.st0{fill:none;stroke:#E11B22;stroke-width:3;stroke-miterlimit:10;}
	.st1{fill:none;}
	.st2{fill:#E11B22;}
	.st3{font-family:'PreloSlab-Bold';}
	.st4{font-size:24px;}
	.st5{fill:none;stroke:#E11B22;stroke-width:2;stroke-linecap:round;stroke-linejoin:round;stroke-miterlimit:10;}
	.st6{font-size:18px;}
	.st7{fill:#231F20;}
	.st8{font-family:'PreloSlab-Book';}
	.st9{opacity:0.54;fill:#5FB9E4;stroke:#E11B22;stroke-width:4;stroke-miterlimit:10;}
	.st10{fill:none;stroke:#E11B22;stroke-width:4;stroke-miterlimit:10;}
	.st11{font-family:'MyriadPro-Regular';}
</style>
<rect x="2.5" y="-4.4" class="st0" width="532.7" height="6753.9"/>
<g>
	<g>
		<rect x="27.1" y="29.7" class="st1" width="477.6" height="120.2"/>
		<text transform="matrix(1 0 0 1 27.1162 49.866)"><tspan x="0" y="0" class="st2 st3 st4">Huit préoccupations émergentes  </tspan><tspan x="0" y="28.8" class="st2 st3 st4">et en évolution en matière  </tspan><tspan x="0" y="57.6" class="st2 st3 st4">d’assurance responsabilité civile  </tspan><tspan x="0" y="86.4" class="st2 st3 st4">liée aux pratiques d’emploi</tspan></text>
	</g>
</g>
<line class="st5" x1="27.6" y1="166.3" x2="278.6" y2="166.3"/>
<rect x="117.7" y="218.5" class="st1" width="383.7" height="20.1"/>
<text transform="matrix(1 0 0 1 117.738 233.5804)" class="st2 st3 st6">Retour au bureau après la pandémie de </text>
<rect x="117.7" y="259.1" class="st1" width="392" height="620"/>
<text transform="matrix(1 0 0 1 117.738 274.2195)"><tspan x="0" y="0" class="st7 st8 st6">Après un certain nombre d’arrêts et de </tspan><tspan x="0" y="21.6" class="st7 st8 st6">recommencements en 2021, les employeurs sont </tspan><tspan x="0" y="43.2" class="st7 st8 st6">en train de ramener les employés sur leur lieu de </tspan><tspan x="0" y="64.8" class="st7 st8 st6">travail. Plusieurs risques liés à la pandémie de </tspan><tspan x="0" y="86.4" class="st7 st8 st6">COVID-19 peuvent faire leur apparition tandis que </tspan><tspan x="0" y="108" class="st7 st8 st6">les organisations rouvrent leurs bureaux compte </tspan><tspan x="0" y="129.6" class="st7 st8 st6">tenu des incertitudes quant au statut vaccinal du </tspan><tspan x="0" y="151.2" class="st7 st8 st6">personnel, y compris la discrimination fondée sur </tspan><tspan x="0" y="172.8" class="st7 st8 st6">le handicap, les réclamations pour trouble </tspan><tspan x="0" y="194.4" class="st7 st8 st6">émotionnel, les congédiements injustifiés et les </tspan><tspan x="0" y="216" class="st7 st8 st6">représailles, la discrimination fondée sur l’âge, les </tspan><tspan x="0" y="237.6" class="st7 st8 st6">conflits de travail, les manquements en matière </tspan><tspan x="0" y="259.2" class="st7 st8 st6">de protection et les homicides délictuels. </tspan><tspan x="0" y="302.4" class="st7 st8 st6">À titre de pratique exemplaire, les employeurs </tspan><tspan x="0" y="324" class="st7 st8 st6">devraient revoir leur police d’assurance </tspan><tspan x="0" y="345.6" class="st7 st8 st6">responsabilité civile liée aux pratiques d’emploi </tspan><tspan x="0" y="367.2" class="st7 st8 st6">pour évaluer si elle couvrira les enjeux en </tspan><tspan x="0" y="388.8" class="st7 st8 st6">évolution liés à la pandémie de COVID-19 en ce qui </tspan><tspan x="0" y="410.4" class="st7 st8 st6">a trait aux questions d’emploi. Pour évaluer la </tspan><tspan x="0" y="432" class="st7 st8 st6">couverture de toute réclamation potentielle, les </tspan><tspan x="0" y="453.6" class="st7 st8 st6">polices d’assurance responsabilité civile liée aux </tspan><tspan x="0" y="475.2" class="st7 st8 st6">pratiques d’emploi devraient faire l’objet d’un </tspan><tspan x="0" y="496.8" class="st7 st8 st6">examen pour déterminer si elles contiennent des </tspan><tspan x="0" y="518.4" class="st7 st8 st6">exclusions et d’éventuelles exemptions relatives </tspan><tspan x="0" y="540" class="st7 st8 st6">aux dommages corporels et matériels. La </tspan><tspan x="0" y="561.6" class="st7 st8 st6">couverture dépendrait du libellé utilisé dans la </tspan><tspan x="0" y="583.2" class="st7 st8 st6">police.</tspan></text>
<g>
	<rect x="37" y="204.7" class="st9" width="45.8" height="45.8"/>
	<g>
		<g>
			<g>
			</g>
		</g>
		<path class="st2" d="M63.1,242.5c-1.5,0-3-0.7-4-1.9l-12.8-14.9c-1.9-2.2-1.7-5.6,0.6-7.5c2.2-1.9,5.6-1.7,7.5,0.6l8.4,9.7
			l26.4-31.8c4.1-5.7,8.4-2.6,4.3,3.2l-25.9,40.3c-1,1.3-2.5,2.2-4.1,2.2C63.3,242.5,63.2,242.5,63.1,242.5z"/>
	</g>
</g>
<rect x="117.7" y="910.3" class="st1" width="383.7" height="20.1"/>
<text transform="matrix(1 0 0 1 117.738 925.3726)" class="st2 st3 st6">Le cannabis et le milieu de travail</text>
<rect x="117.7" y="950.9" class="st1" width="392" height="391.1"/>
<text transform="matrix(1 0 0 1 117.738 966.0117)"><tspan x="0" y="0" class="st7 st8 st6">Le cannabis thérapeutique et à usage récréatif </tspan><tspan x="0" y="21.6" class="st7 st8 st6">continue d’être une question épineuse en milieu </tspan><tspan x="0" y="43.2" class="st7 st8 st6">de travail depuis la légalisation de cette substance </tspan><tspan x="0" y="64.8" class="st7 st8 st6">au Canada et dans certains États américains. Les </tspan><tspan x="0" y="86.4" class="st7 st8 st6">employeurs doivent trouver un juste équilibre </tspan><tspan x="0" y="108" class="st7 st8 st6">entre le respect des lois en matière d’emploi qui </tspan><tspan x="0" y="129.6" class="st7 st8 st6">protègent les droits des employés, un ensemble </tspan><tspan x="0" y="151.2" class="st7 st8 st6">de lois fédérales, provinciales et étatiques qui </tspan><tspan x="0" y="172.8" class="st7 st8 st6">interdisent de travailler sous l’influence du </tspan><tspan x="0" y="194.4" class="st7 st8 st6">cannabis et leurs propres politiques d’entreprise </tspan><tspan x="0" y="216" class="st7 st8 st6">en matière de sécurité et de consommation de </tspan><tspan x="0" y="237.6" class="st7 st8 st6">drogues. Les polices d’assurance responsabilité </tspan><tspan x="0" y="259.2" class="st7 st8 st6">civile liée aux pratiques d’emploi peuvent couvrir </tspan><tspan x="0" y="280.8" class="st7 st8 st6">une foule d’accusations pouvant découler de </tspan><tspan x="0" y="302.4" class="st7 st8 st6">l’intersection du cannabis et du milieu de travail, </tspan><tspan x="0" y="324" class="st7 st8 st6">allant de la discrimination fondée sur un handicap </tspan><tspan x="0" y="345.6" class="st7 st8 st6">aux allégations de congédiement injustifié.</tspan></text>
<g>
	<rect x="37" y="896.5" class="st9" width="45.8" height="45.8"/>
	<g>
		<g>
			<g>
			</g>
		</g>
		<path class="st2" d="M63.1,934.3c-1.5,0-3-0.7-4-1.9l-12.8-14.9c-1.9-2.2-1.7-5.6,0.6-7.5c2.2-1.9,5.6-1.7,7.5,0.6l8.4,9.7
			l26.4-31.8c4.1-5.7,8.4-2.6,4.3,3.2L67.4,932c-1,1.3-2.5,2.2-4.1,2.2C63.3,934.3,63.2,934.3,63.1,934.3z"/>
	</g>
</g>
<rect x="117.7" y="1387.3" class="st1" width="383.7" height="20.1"/>
<text transform="matrix(1 0 0 1 117.738 1402.4132)" class="st2 st3 st6">Harcèlement sexuel</text>
<rect x="117.7" y="1427.9" class="st1" width="392" height="959.8"/>
<text transform="matrix(1 0 0 1 117.738 1443.0522)"><tspan x="0" y="0" class="st7 st8 st6">Tandis que les allégations de harcèlement sexuel </tspan><tspan x="0" y="21.6" class="st7 st8 st6">en milieu de travail continuent d’être au centre de </tspan><tspan x="0" y="43.2" class="st7 st8 st6">l’attention partout dans le monde, diverses </tspan><tspan x="0" y="64.8" class="st7 st8 st6">administrations canadiennes ont créé des </tspan><tspan x="0" y="86.4" class="st7 st8 st6">obligations légales qui forcent les entreprises à </tspan><tspan x="0" y="108" class="st7 st8 st6">enquêter sur les plaintes de harcèlement au </tspan><tspan x="0" y="129.6" class="st7 st8 st6">travail et à les traiter, ainsi qu’à élaborer et à </tspan><tspan x="0" y="151.2" class="st7 st8 st6">maintenir des politiques et des programmes </tspan><tspan x="0" y="172.8" class="st7 st8 st6">portant explicitement sur le harcèlement sexuel. </tspan><tspan x="0" y="194.4" class="st7 st8 st6">En Ontario, par exemple, cette obligation légale a </tspan><tspan x="0" y="216" class="st7 st8 st6">pris la forme de modifications à la Loi sur la santé </tspan><tspan x="0" y="237.6" class="st7 st8 st6">et la sécurité au travail (LSST) de la province. Les </tspan><tspan x="0" y="259.2" class="st7 st8 st6">employeurs qui ne respectent pas ces obligations </tspan><tspan x="0" y="280.8" class="st7 st8 st6">peuvent faire l’objet d’une enquête et d’un rapport </tspan><tspan x="0" y="302.4" class="st7 st8 st6">indépendants aux frais de l’entreprise ou recevoir </tspan><tspan x="0" y="324" class="st7 st8 st6">une lourde amende. Bien que la plupart des polices </tspan><tspan x="0" y="345.6" class="st7 st8 st6">d’assurance responsabilité civile liée aux </tspan><tspan x="0" y="367.2" class="st7 st8 st6">pratiques d’emploi excluent les violations de la </tspan><tspan x="0" y="388.8" class="st7 st8 st6">LSST, et les amendes et sanctions associées, </tspan><tspan x="0" y="410.4" class="st7 st8 st6">certains programmes d’assurance responsabilité </tspan><tspan x="0" y="432" class="st7 st8 st6">civile liée aux pratiques d’emploi prévoient une </tspan><tspan x="0" y="453.6" class="st7 st8 st6">certaine indemnité et une certaine couverture </tspan><tspan x="0" y="475.2" class="st7 st8 st6">des frais de défense dans le cas de poursuites </tspan><tspan x="0" y="496.8" class="st7 st8 st6">civiles en harcèlement, sexuel ou non. </tspan><tspan x="0" y="540" class="st7 st8 st6">Pendant ce temps, aux États-Unis, les lois </tspan><tspan x="0" y="561.6" class="st7 st8 st6">fédérales, locales et d’État prévoient diverses </tspan><tspan x="0" y="583.2" class="st7 st8 st6">interdictions concernant le harcèlement sexuel </tspan><tspan x="0" y="604.8" class="st7 st8 st6">qui diffèrent principalement sur le plan du type de </tspan><tspan x="0" y="626.4" class="st7 st8 st6">dommages-intérêts offerts, mais aussi des </tspan><tspan x="0" y="648" class="st7 st8 st6">exigences de formation dans certains États. Les </tspan><tspan x="0" y="669.6" class="st7 st8 st6">lois locales et d’État accordent souvent à la partie </tspan><tspan x="0" y="691.2" class="st7 st8 st6">plaignante la possibilité d’obtenir un jugement en </tspan><tspan x="0" y="712.8" class="st7 st8 st6">dommages-intérêts et en dommages</tspan><tspan x="292.6" y="712.8" class="st7 st11 st6">‐</tspan><tspan x="298" y="712.8" class="st7 st8 st6">intérêts à </tspan><tspan x="0" y="734.4" class="st7 st8 st6">titre punitif non plafonnés, de sorte que ces </tspan><tspan x="0" y="756" class="st7 st8 st6">poursuites sont plus souvent intentées en vertu </tspan><tspan x="0" y="777.6" class="st7 st8 st6">de ces lois. Toutefois, des lois d’État tout aussi </tspan><tspan x="0" y="799.2" class="st7 st8 st6">complexes en matière d’assurances requièrent </tspan><tspan x="0" y="820.8" class="st7 st8 st6">une analyse minutieuse pour veiller à ce que les </tspan><tspan x="0" y="842.4" class="st7 st8 st6">polices d’assurance responsabilité civile liée aux </tspan><tspan x="0" y="864" class="st7 st8 st6">pratiques d’emploi puissent répondre à ces types </tspan><tspan x="0" y="885.6" class="st7 st8 st6">de jugements liés à des actes punitifs et </tspan><tspan x="0" y="907.2" class="st7 st8 st6">intentionnels.</tspan></text>
<g>
	<rect x="37" y="1373.5" class="st9" width="45.8" height="45.8"/>
	<g>
		<g>
			<g>
			</g>
		</g>
		<path class="st2" d="M63.1,1411.3c-1.5,0-3-0.7-4-1.9l-12.8-14.9c-1.9-2.2-1.7-5.6,0.6-7.5c2.2-1.9,5.6-1.7,7.5,0.6l8.4,9.7
			l26.4-31.8c4.1-5.7,8.4-2.6,4.3,3.2l-25.9,40.3c-1,1.3-2.5,2.2-4.1,2.2C63.3,1411.3,63.2,1411.3,63.1,1411.3z"/>
	</g>
</g>
<rect x="117.7" y="2413" class="st1" width="383.7" height="20.1"/>
<text transform="matrix(1 0 0 1 117.738 2428.126)" class="st2 st3 st6">Atteinte à la vie privée</text>
<rect x="117.7" y="2453.6" class="st1" width="392" height="1083.1"/>
<text transform="matrix(1 0 0 1 117.738 2468.7651)"><tspan x="0" y="0" class="st7 st8 st6">Divers délits relatifs à la protection de la vie privée </tspan><tspan x="0" y="21.6" class="st7 st8 st6">ont été reconnus au cours des dernières années </tspan><tspan x="0" y="43.2" class="st7 st8 st6">dans les administrations canadiennes. Avec </tspan><tspan x="0" y="64.8" class="st7 st8 st6">l’élargissement des droits à la protection de la vie </tspan><tspan x="0" y="86.4" class="st7 st8 st6">privée, les employeurs doivent être prudents </tspan><tspan x="0" y="108" class="st7 st8 st6">dans l’établissement d’un équilibre entre les </tspan><tspan x="0" y="129.6" class="st7 st8 st6">attentes raisonnables des employés en matière </tspan><tspan x="0" y="151.2" class="st7 st8 st6">de protection de la vie privée et, par exemple, la </tspan><tspan x="0" y="172.8" class="st7 st8 st6">surveillance et les fouilles, les annonces publiques </tspan><tspan x="0" y="194.4" class="st7 st8 st6">ou les déclarations concernant les employés. </tspan><tspan x="0" y="237.6" class="st7 st8 st6">Aux États-Unis, deux tendances importantes ont </tspan><tspan x="0" y="259.2" class="st7 st8 st6">été observées relativement à la protection de la </tspan><tspan x="0" y="280.8" class="st7 st8 st6">vie privée des employés. La première concerne la </tspan><tspan x="0" y="302.4" class="st7 st8 st6">saisie des renseignements biométriques des </tspan><tspan x="0" y="324" class="st7 st8 st6">employés, comme le balayage oculaire, les </tspan><tspan x="0" y="345.6" class="st7 st8 st6">empreintes digitales ou l’utilisation d’un logiciel de </tspan><tspan x="0" y="367.2" class="st7 st8 st6">reconnaissance faciale. En Illinois en particulier, </tspan><tspan x="0" y="388.8" class="st7 st8 st6">mais aussi dans de plus en plus d’autres États, des </tspan><tspan x="0" y="410.4" class="st7 st8 st6">lois ont été adoptées pour rendre illégale la saisie </tspan><tspan x="0" y="432" class="st7 st8 st6">de tels renseignements sans l’autorisation écrite </tspan><tspan x="0" y="453.6" class="st7 st8 st6">de l’employé. De nombreuses actions collectives </tspan><tspan x="0" y="475.2" class="st7 st8 st6">ont été intentées en Illinois par des employés en </tspan><tspan x="0" y="496.8" class="st7 st8 st6">vertu de la Biometric Information Privacy Act </tspan><tspan x="0" y="518.4" class="st7 st8 st6">(BIPA). La pandémie de COVID-19 est un autre </tspan><tspan x="0" y="540" class="st7 st8 st6">sujet qui soulève d’importantes préoccupations </tspan><tspan x="0" y="561.6" class="st7 st8 st6">en matière de protection de la vie privée des </tspan><tspan x="0" y="583.2" class="st7 st8 st6">employés. La recherche des contacts à la suite </tspan><tspan x="0" y="604.8" class="st7 st8 st6">d’une infection et la pression croissante pour que </tspan><tspan x="0" y="626.4" class="st7 st8 st6">les employeurs soient au courant du statut de </tspan><tspan x="0" y="648" class="st7 st8 st6">leurs employés concernant le vaccin contre la </tspan><tspan x="0" y="669.6" class="st7 st8 st6">COVID-19 ont également augmenté la probabilité </tspan><tspan x="0" y="691.2" class="st7 st8 st6">de poursuites liées à l’atteinte à la vie privée. </tspan><tspan x="0" y="734.4" class="st7 st8 st6">De nombreuses polices d’assurance  </tspan><tspan x="0" y="756" class="st7 st8 st6">responsabilité civile liée aux pratiques d’emploi </tspan><tspan x="0" y="777.6" class="st7 st8 st6">offrent une certaine couverture pour les </tspan><tspan x="0" y="799.2" class="st7 st8 st6">poursuites relatives à l’atteinte à la vie privée, </tspan><tspan x="0" y="820.8" class="st7 st8 st6">même si l’étendue de la couverture varie parmi </tspan><tspan x="0" y="842.4" class="st7 st8 st6">les assureurs et peut varier selon que l’assuré est </tspan><tspan x="0" y="864" class="st7 st8 st6">une société ouverte ou fermée.  </tspan><tspan x="0" y="907.2" class="st7 st8 st6">Récemment, compte tenu de la hausse des </tspan><tspan x="0" y="928.8" class="st7 st8 st6">poursuites liées à la BIPA, certains assureurs ont </tspan><tspan x="0" y="950.4" class="st7 st8 st6">commencé à étudier activement la question de </tspan><tspan x="0" y="972" class="st7 st8 st6">savoir s’ils doivent prendre en charge ou exclure </tspan><tspan x="0" y="993.6" class="st7 st8 st6">la couverture des questions liées aux données </tspan><tspan x="0" y="1015.2" class="st7 st8 st6">biométriques.</tspan></text>
<g>
	<rect x="37" y="2399.3" class="st9" width="45.8" height="45.8"/>
	<g>
		<g>
			<g>
			</g>
		</g>
		<path class="st2" d="M63.1,2437c-1.5,0-3-0.7-4-1.9l-12.8-14.9c-1.9-2.2-1.7-5.6,0.6-7.5c2.2-1.9,5.6-1.7,7.5,0.6l8.4,9.7
			l26.4-31.8c4.1-5.7,8.4-2.6,4.3,3.2l-25.9,40.3c-1,1.3-2.5,2.2-4.1,2.2C63.3,2437,63.2,2437,63.1,2437z"/>
	</g>
</g>
<rect x="117.7" y="3581.5" class="st1" width="383.7" height="20.1"/>
<text transform="matrix(1 0 0 1 117.738 3596.634)" class="st2 st3 st6">Évolution des motifs de discrimination</text>
<rect x="117.7" y="3622.2" class="st1" width="392" height="632.9"/>
<text transform="matrix(1 0 0 1 117.738 3637.2732)"><tspan x="0" y="0" class="st7 st8 st6">Traditionnellement, les réclamations pour </tspan><tspan x="0" y="21.6" class="st7 st8 st6">discrimination fondée sur la race, l’origine </tspan><tspan x="0" y="43.2" class="st7 st8 st6">ethnique et l’âge étaient souvent couvertes par </tspan><tspan x="0" y="64.8" class="st7 st8 st6">les polices d’assurance responsabilité civile liée </tspan><tspan x="0" y="86.4" class="st7 st8 st6">aux pratiques d’emploi; les assureurs et les </tspan><tspan x="0" y="108" class="st7 st8 st6">juristes s’attendent toutefois à une hausse des </tspan><tspan x="0" y="129.6" class="st7 st8 st6">litiges pour de nouveaux motifs de discrimination </tspan><tspan x="0" y="151.2" class="st7 st8 st6">en matière des droits de la personne. Au cours des </tspan><tspan x="0" y="172.8" class="st7 st8 st6">dernières années, les lois ont évolué, </tspan><tspan x="0" y="194.4" class="st7 st8 st6">reconnaissant à la fois des droits en pleine </tspan><tspan x="0" y="216" class="st7 st8 st6">expansion comme les droits de la communauté </tspan><tspan x="0" y="237.6" class="st7 st8 st6">LGBTQ+ et l’identité de genre, ainsi que des </tspan><tspan x="0" y="259.2" class="st7 st8 st6">réalités comme la conciliation travail-vie </tspan><tspan x="0" y="280.8" class="st7 st8 st6">personnelle. Il est essentiel que les polices </tspan><tspan x="0" y="302.4" class="st7 st8 st6">d’assurance responsabilité civile liée aux </tspan><tspan x="0" y="324" class="st7 st8 st6">pratiques d’emploi prévoient une couverture en </tspan><tspan x="0" y="345.6" class="st7 st8 st6">cas de discrimination fondée, entre autres choses, </tspan><tspan x="0" y="367.2" class="st7 st8 st6">sur l’orientation sexuelle, le statut de transgenre </tspan><tspan x="0" y="388.8" class="st7 st8 st6">ou la dysphorie de genre. La couverture d’autres </tspan><tspan x="0" y="410.4" class="st7 st8 st6">motifs de discrimination, comme la situation de </tspan><tspan x="0" y="432" class="st7 st8 st6">famille (expressément reconnue par le Tribunal </tspan><tspan x="0" y="453.6" class="st7 st8 st6">canadien des droits de la personne), est tout aussi </tspan><tspan x="0" y="475.2" class="st7 st8 st6">importante. Les polices d’assurance </tspan><tspan x="0" y="496.8" class="st7 st8 st6">responsabilité civile liée aux pratiques d’emploi </tspan><tspan x="0" y="518.4" class="st7 st8 st6">offrent généralement une large couverture à cet </tspan><tspan x="0" y="540" class="st7 st8 st6">égard, qui, dans la plupart des cas, couvrira les </tspan><tspan x="0" y="561.6" class="st7 st8 st6">poursuites découlant de ces nouveaux motifs de </tspan><tspan x="0" y="583.2" class="st7 st8 st6">discrimination.</tspan></text>
<g>
	<rect x="37" y="3567.8" class="st9" width="45.8" height="45.8"/>
	<g>
		<g>
			<g>
			</g>
		</g>
		<path class="st2" d="M63.1,3605.5c-1.5,0-3-0.7-4-1.9l-12.8-14.9c-1.9-2.2-1.7-5.6,0.6-7.5c2.2-1.9,5.6-1.7,7.5,0.6l8.4,9.7
			l26.4-31.8c4.1-5.7,8.4-2.6,4.3,3.2l-25.9,40.3c-1,1.3-2.5,2.2-4.1,2.2C63.3,3605.5,63.2,3605.5,63.1,3605.5z"/>
	</g>
</g>
<rect x="117.7" y="4279.8" class="st1" width="383.7" height="20.1"/>
<text transform="matrix(1 0 0 1 117.738 4294.9023)" class="st2 st3 st6">Congédiements</text>
<rect x="117.7" y="4320.4" class="st1" width="392" height="739.9"/>
<text transform="matrix(1 0 0 1 117.738 4335.541)"><tspan x="0" y="0" class="st7 st8 st6">Le congédiement d’un employé peut  </tspan><tspan x="0" y="21.6" class="st7 st8 st6">entraîner des risques et des litiges s’il n’est pas </tspan><tspan x="0" y="43.2" class="st7 st8 st6">mené de façon rigoureuse. Au Canada, les </tspan><tspan x="0" y="64.8" class="st7 st8 st6">réclamations pour congédiement injustifié sont </tspan><tspan x="0" y="86.4" class="st7 st8 st6">généralement accompagnées de différends </tspan><tspan x="0" y="108" class="st7 st8 st6">concernant le montant de la rémunération tenant </tspan><tspan x="0" y="129.6" class="st7 st8 st6">lieu de préavis auquel l’employé licencié a droit. </tspan><tspan x="0" y="151.2" class="st7 st8 st6">Notamment, au Canada, la période de préavis en </tspan><tspan x="0" y="172.8" class="st7 st8 st6">vertu de la common law est récemment passée à </tspan><tspan x="0" y="194.4" class="st7 st8 st6">un seuil supérieur de 26 mois. Aux États-Unis, les </tspan><tspan x="0" y="216" class="st7 st8 st6">réclamations pour congédiement injustifié </tspan><tspan x="0" y="237.6" class="st7 st8 st6">peuvent prendre de nombreuses formes, et ce, </tspan><tspan x="0" y="259.2" class="st7 st8 st6">même si l’emploi est censé être occupé à  </tspan><tspan x="0" y="280.8" class="st7 st8 st6">titre précaire.</tspan><tspan x="0" y="302.4" class="st7 st8 st6"> </tspan><tspan x="0" y="324" class="st7 st8 st6">Au sein du marché canadien de l’assurance </tspan><tspan x="0" y="345.6" class="st7 st8 st6">responsabilité civile liée aux pratiques d’emploi, </tspan><tspan x="0" y="367.2" class="st7 st8 st6">certains assureurs, sous réserve de modalités, </tspan><tspan x="0" y="388.8" class="st7 st8 st6">offrent maintenant une couverture pour une </tspan><tspan x="0" y="410.4" class="st7 st8 st6">partie du salaire accordé par un tribunal qui </tspan><tspan x="0" y="432" class="st7 st8 st6">excède le montant minimal prévu par la loi ou le </tspan><tspan x="0" y="453.6" class="st7 st8 st6">montant offert à l’employé au moment du </tspan><tspan x="0" y="475.2" class="st7 st8 st6">congédiement  </tspan><tspan x="0" y="496.8" class="st7 st8 st6">ou après. </tspan><tspan x="0" y="540" class="st7 st8 st6">Aux États-Unis, le congédiement injustifié est </tspan><tspan x="0" y="561.6" class="st7 st8 st6">largement couvert, car les dommages-intérêts </tspan><tspan x="0" y="583.2" class="st7 st8 st6">sont beaucoup moins normés et moins souvent </tspan><tspan x="0" y="604.8" class="st7 st8 st6">prévus par les lois qu’au Canada. Par conséquent, </tspan><tspan x="0" y="626.4" class="st7 st8 st6">les réclamations pour congédiement injustifié </tspan><tspan x="0" y="648" class="st7 st8 st6">sont dans ce pays une source de risques majeure </tspan><tspan x="0" y="669.6" class="st7 st8 st6">couverte par l’assurance responsabilité civile liée </tspan><tspan x="0" y="691.2" class="st7 st8 st6">aux pratiques d’emploi.</tspan></text>
<g>
	<rect x="37" y="4266" class="st9" width="45.8" height="45.8"/>
	<g>
		<g>
			<g>
			</g>
		</g>
		<path class="st2" d="M63.1,4303.8c-1.5,0-3-0.7-4-1.9L46.3,4287c-1.9-2.2-1.7-5.6,0.6-7.5c2.2-1.9,5.6-1.7,7.5,0.6l8.4,9.7
			l26.4-31.8c4.1-5.7,8.4-2.6,4.3,3.2l-25.9,40.3c-1,1.3-2.5,2.2-4.1,2.2C63.3,4303.8,63.2,4303.8,63.1,4303.8z"/>
	</g>
</g>
<rect x="117.7" y="5085" class="st1" width="383.7" height="20.1"/>
<text transform="matrix(1 0 0 1 117.738 5100.1626)" class="st2 st3 st6">Entrepreneurs dépendants</text>
<rect x="117.7" y="5125.7" class="st1" width="392" height="967.4"/>
<text transform="matrix(1 0 0 1 117.738 5140.8018)"><tspan x="0" y="0" class="st7 st8 st6">Les entrepreneurs dépendants se retrouvent </tspan><tspan x="0" y="21.6" class="st7 st8 st6">quelque part sur le spectre de la classification des </tspan><tspan x="0" y="43.2" class="st7 st8 st6">emplois entre les employés et les entrepreneurs </tspan><tspan x="0" y="64.8" class="st7 st8 st6">indépendants. En règle générale, les tribunaux </tspan><tspan x="0" y="86.4" class="st7 st8 st6">canadiens ont classé un entrepreneur dépendant </tspan><tspan x="0" y="108" class="st7 st8 st6">dans la catégorie d’une personne travaillant pour </tspan><tspan x="0" y="129.6" class="st7 st8 st6">elle-même, mais qui fournit des services réguliers </tspan><tspan x="0" y="151.2" class="st7 st8 st6">et uniformes à une organisation ou à un nombre </tspan><tspan x="0" y="172.8" class="st7 st8 st6">limité d’organisations. Par conséquent, cette </tspan><tspan x="0" y="194.4" class="st7 st8 st6">personne jouit de plusieurs des mêmes droits </tspan><tspan x="0" y="216" class="st7 st8 st6">qu’un employé. Traditionnellement, les polices </tspan><tspan x="0" y="237.6" class="st7 st8 st6">d’assurance responsabilité civile liée aux </tspan><tspan x="0" y="259.2" class="st7 st8 st6">pratiques d’emploi ne couvraient pas les </tspan><tspan x="0" y="280.8" class="st7 st8 st6">personnes occupant ces postes. Cependant, le </tspan><tspan x="0" y="302.4" class="st7 st8 st6">marché de l’assurance canadien a commencé à </tspan><tspan x="0" y="324" class="st7 st8 st6">évoluer dans une direction favorable pour les </tspan><tspan x="0" y="345.6" class="st7 st8 st6">assurés, alors que des polices offrent désormais </tspan><tspan x="0" y="367.2" class="st7 st8 st6">une couverture pour les réclamations concernant </tspan><tspan x="0" y="388.8" class="st7 st8 st6">des entrepreneurs dépendants. </tspan><tspan x="0" y="432" class="st7 st8 st6">Aux États-Unis, l’avènement de l’économie à la </tspan><tspan x="0" y="453.6" class="st7 st8 st6">demande a créé un flou entre les entrepreneurs </tspan><tspan x="0" y="475.2" class="st7 st8 st6">indépendants et les employés. En conséquence, </tspan><tspan x="0" y="496.8" class="st7 st8 st6">les lois sur l’emploi ont souvent fait en sorte qu’il </tspan><tspan x="0" y="518.4" class="st7 st8 st6">soit plus facile pour les travailleurs ayant conclu </tspan><tspan x="0" y="540" class="st7 st8 st6">des ententes énonçant clairement qu’ils ne sont </tspan><tspan x="0" y="561.6" class="st7 st8 st6">pas employés par l’organisation en question </tspan><tspan x="0" y="583.2" class="st7 st8 st6">d’intenter des poursuites comme s’ils étaient des </tspan><tspan x="0" y="604.8" class="st7 st8 st6">employés. Les courtiers ont ainsi travaillé avec </tspan><tspan x="0" y="626.4" class="st7 st8 st6">diligence avec le marché de l’assurance pour </tspan><tspan x="0" y="648" class="st7 st8 st6">chercher à élargir la couverture contre les </tspan><tspan x="0" y="669.6" class="st7 st8 st6">réclamations liées à l’emploi de façon à ce que les </tspan><tspan x="0" y="691.2" class="st7 st8 st6">poursuites pour les actes fautifs couverts </tspan><tspan x="0" y="712.8" class="st7 st8 st6">autrement qui sont intentées par ces employés </tspan><tspan x="0" y="734.4" class="st7 st8 st6">non traditionnels soient traitées comme des </tspan><tspan x="0" y="756" class="st7 st8 st6">réclamations couvertes par les polices </tspan><tspan x="0" y="777.6" class="st7 st8 st6">d’assurance responsabilité civile liée aux </tspan><tspan x="0" y="799.2" class="st7 st8 st6">pratiques d’emploi, tant que le travailleur prétend </tspan><tspan x="0" y="820.8" class="st7 st8 st6">être un employé, ce qui est généralement une </tspan><tspan x="0" y="842.4" class="st7 st8 st6">exigence pour que le plaignant présente une </tspan><tspan x="0" y="864" class="st7 st8 st6">réclamation en vertu de la plupart des lois sur </tspan><tspan x="0" y="885.6" class="st7 st8 st6">l’emploi des États-Unis.</tspan></text>
<g>
	<rect x="37" y="5071.3" class="st9" width="45.8" height="45.8"/>
	<g>
		<g>
			<g>
			</g>
		</g>
		<path class="st2" d="M63.1,5109.1c-1.5,0-3-0.7-4-1.9l-12.8-14.9c-1.9-2.2-1.7-5.6,0.6-7.5c2.2-1.9,5.6-1.7,7.5,0.6l8.4,9.7
			l26.4-31.8c4.1-5.7,8.4-2.6,4.3,3.2l-25.9,40.3c-1,1.3-2.5,2.2-4.1,2.2C63.3,5109.1,63.2,5109.1,63.1,5109.1z"/>
	</g>
</g>
<rect x="117.7" y="6117.8" class="st1" width="383.7" height="40.6"/>
<text transform="matrix(1 0 0 1 117.738 6132.9233)"><tspan x="0" y="0" class="st2 st3 st6">Poursuites relatives aux salaires et aux  </tspan><tspan x="0" y="21.6" class="st2 st3 st6">heures travaillées</tspan></text>
<rect x="117.7" y="6173.4" class="st1" width="392" height="608.3"/>
<text transform="matrix(1 0 0 1 117.738 6188.5625)"><tspan x="0" y="0" class="st7 st8 st6">Les poursuites relatives aux salaires et aux </tspan><tspan x="0" y="21.6" class="st7 st8 st6">heures travaillées ont connu une hausse ces </tspan><tspan x="0" y="43.2" class="st7 st8 st6">dernières années, à la fois en fréquence et en </tspan><tspan x="0" y="64.8" class="st7 st8 st6">gravité. Ces poursuites prennent souvent la </tspan><tspan x="0" y="86.4" class="st7 st8 st6">forme d’actions collectives, alors que de grands </tspan><tspan x="0" y="108" class="st7 st8 st6">groupes d’employés cherchent à obtenir des </tspan><tspan x="0" y="129.6" class="st7 st8 st6">millions de dollars en dommages-intérêts pour </tspan><tspan x="0" y="151.2" class="st7 st8 st6">des questions comme les salaires impayés, les </tspan><tspan x="0" y="172.8" class="st7 st8 st6">heures supplémentaires non payées et les erreurs </tspan><tspan x="0" y="194.4" class="st7 st8 st6">de classification des emplois entraînant des </tspan><tspan x="0" y="216" class="st7 st8 st6">salaires et d’autres avantages sociaux dus. Pour </tspan><tspan x="0" y="237.6" class="st7 st8 st6">remédier à cette situation, la couverture des </tspan><tspan x="0" y="259.2" class="st7 st8 st6">poursuites judiciaires liées aux salaires des </tspan><tspan x="0" y="280.8" class="st7 st8 st6">employés pourrait être offerte aux titulaires de </tspan><tspan x="0" y="302.4" class="st7 st8 st6">police d’envergure au Canada et aux États-Unis, </tspan><tspan x="0" y="324" class="st7 st8 st6">ceux-ci pouvant faire face à de lourdes pertes </tspan><tspan x="0" y="345.6" class="st7 st8 st6">advenant une action collective portant sur les </tspan><tspan x="0" y="367.2" class="st7 st8 st6">salaires et les heures de travail. Cette couverture </tspan><tspan x="0" y="388.8" class="st7 st8 st6">est généralement offerte à un prix beaucoup plus </tspan><tspan x="0" y="410.4" class="st7 st8 st6">élevé que celui de l’assurance responsabilité civile </tspan><tspan x="0" y="432" class="st7 st8 st6">traditionnelle liée aux pratiques d’emploi. Le prix </tspan><tspan x="0" y="453.6" class="st7 st8 st6">de cette couverture a diminué récemment, mais </tspan><tspan x="0" y="475.2" class="st7 st8 st6">son coût demeure relativement élevé, tout </tspan><tspan x="0" y="496.8" class="st7 st8 st6">comme le taux de rétention, en raison des </tspan><tspan x="0" y="518.4" class="st7 st8 st6">tendances en faveur des litiges dans ce domaine.</tspan></text>
<g>
	<rect x="37" y="6104.1" class="st9" width="45.8" height="45.8"/>
	<g>
		<g>
			<g>
			</g>
		</g>
		<path class="st2" d="M63.1,6141.8c-1.5,0-3-0.7-4-1.9l-12.8-14.9c-1.9-2.2-1.7-5.6,0.6-7.5c2.2-1.9,5.6-1.7,7.5,0.6l8.4,9.7
			l26.4-31.8c4.1-5.7,8.4-2.6,4.3,3.2l-25.9,40.3c-1,1.3-2.5,2.2-4.1,2.2C63.3,6141.8,63.2,6141.8,63.1,6141.8z"/>
	</g>
</g>
</svg>
